<svg width="100" height="101" viewBox="0 0 100 101" fill="none" xmlns="http://www.w3.org/2000/svg">
<path d="M50 34.1676C52.7614 34.1676 55 31.9249 55 29.1585C55 26.392 52.7614 24.1494 50 24.1494C47.2386 24.1494 45 26.392 45 29.1585C45 31.9249 47.2386 34.1676 50 34.1676Z" fill="#D27927"/>
<path d="M63.2709 29.2874C62.8864 29.4747 62.4967 29.6824 62.1122 29.9002C60.9587 30.5686 59.8205 31.384 58.6567 32.3208L56.1752 29.5153C57.0314 28.7304 57.9594 28.0163 58.9438 27.3832C59.7282 26.8768 60.5485 26.4262 61.3945 26.0413C61.7328 25.8742 62.0712 25.7172 62.4198 25.5703C60.7843 22.709 58.4311 20.658 55.7651 19.392C53.099 18.131 50.1152 17.6448 47.2082 17.9234C44.3217 18.1968 41.5173 19.235 39.1999 21.0126C36.5185 23.0635 34.4831 26.1325 33.6986 30.199L33.4526 31.4701L32.1708 31.6929C30.9147 31.9107 29.7919 32.2094 28.8075 32.5893C27.8539 32.9539 27.0028 33.4046 26.2594 33.9363C25.6647 34.3617 25.152 34.8378 24.7162 35.3543C23.3678 36.9495 22.7423 38.9499 22.7577 40.9755C22.7731 43.0316 23.4499 45.1079 24.7008 46.8146C25.1674 47.4475 25.7057 48.03 26.321 48.5364C26.9464 49.0478 27.6488 49.4732 28.4384 49.7923C29.2228 50.1114 30.0893 50.3392 31.048 50.4709H68.2441C70.0539 50.0404 71.6535 49.4581 73.0121 48.7085C74.3605 47.9641 75.4628 47.0576 76.2882 45.9688C77.57 44.2825 78.2006 41.8972 78.2262 39.4512C78.257 36.8837 77.6213 34.306 76.3857 32.4322C76.0319 31.8904 75.6423 31.4042 75.2321 30.9688C73.3813 28.9988 71.0331 28.1378 68.5927 28.1227C66.8341 28.1075 65.0038 28.5278 63.2709 29.2874ZM66.1625 24.5879C66.9828 24.4612 67.8031 24.3954 68.6183 24.4055C72.0636 24.4309 75.3859 25.6463 78.0007 28.4315C78.5492 29.0139 79.0671 29.6723 79.5541 30.4066C81.1947 32.8982 82.0356 36.2253 81.9997 39.4816C81.9638 42.6771 81.0922 45.8574 79.308 48.1971C78.1442 49.7214 76.6523 50.9671 74.863 51.9547C73.1403 52.9067 71.1305 53.631 68.8747 54.1475L68.4543 54.1981H30.9865L30.7506 54.1779C29.3818 54.0056 28.141 53.6867 27.0131 53.2258C25.8493 52.7498 24.8188 52.1369 23.9113 51.3875C23.05 50.6785 22.2963 49.8733 21.6554 48.9972C19.943 46.6677 19.0202 43.8216 18.9997 40.9857C18.9792 38.1194 19.8815 35.2682 21.8297 32.959C22.4604 32.2094 23.2038 31.5208 24.0548 30.9131C25.0443 30.2041 26.1774 29.6065 27.4591 29.1152C28.341 28.776 29.2843 28.4924 30.279 28.2644C31.4069 23.8384 33.8114 20.4302 36.903 18.0652C39.7946 15.8522 43.2758 14.5607 46.8595 14.2215C50.4279 13.8822 54.0988 14.4798 57.3954 16.0446C60.9894 17.7512 64.1271 20.5922 66.1625 24.5879Z" fill="#D27927"/>
<path d="M64 40.1785H36V52.2004H64V40.1785Z" stroke="#D27927" stroke-width="2"/>
<path d="M50 29.1585V40.1785" stroke="#D27927" stroke-width="2"/>
<path d="M36.5 55.2058C37.8807 55.2058 39 54.0845 39 52.7013C39 51.318 37.8807 50.1967 36.5 50.1967C35.1193 50.1967 34 51.318 34 52.7013C34 54.0845 35.1193 55.2058 36.5 55.2058Z" fill="white" stroke="#D27927" stroke-width="2"/>
<path d="M63.5 55.2058C64.8807 55.2058 66 54.0845 66 52.7013C66 51.318 64.8807 50.1967 63.5 50.1967C62.1193 50.1967 61 51.318 61 52.7013C61 54.0845 62.1193 55.2058 63.5 55.2058Z" fill="white" stroke="#D27927" stroke-width="2"/>
<path d="M46 57.2095H27C26.4477 57.2095 26 57.658 26 58.2113V65.224C26 65.7773 26.4477 66.2259 27 66.2259H46C46.5523 66.2259 47 65.7773 47 65.224V58.2113C47 57.658 46.5523 57.2095 46 57.2095Z" fill="#D27927"/>
<path d="M28 60.2149H33" stroke="white" stroke-width="2"/>
<path d="M73 57.2095H54C53.4477 57.2095 53 57.658 53 58.2113V65.224C53 65.7773 53.4477 66.2259 54 66.2259H73C73.5523 66.2259 74 65.7773 74 65.224V58.2113C74 57.658 73.5523 57.2095 73 57.2095Z" fill="#D27927"/>
<path d="M55 60.2149H60" stroke="white" stroke-width="2"/>
<path d="M46 67.2277H27C26.4477 67.2277 26 67.6762 26 68.2295V75.2423C26 75.7956 26.4477 76.2441 27 76.2441H46C46.5523 76.2441 47 75.7956 47 75.2423V68.2295C47 67.6762 46.5523 67.2277 46 67.2277Z" fill="#D27927"/>
<path d="M28 70.2332H33" stroke="white" stroke-width="2"/>
<path d="M73 67.2277H54C53.4477 67.2277 53 67.6762 53 68.2295V75.2423C53 75.7956 53.4477 76.2441 54 76.2441H73C73.5523 76.2441 74 75.7956 74 75.2423V68.2295C74 67.6762 73.5523 67.2277 73 67.2277Z" fill="#D27927"/>
<path d="M55 70.2332H60" stroke="white" stroke-width="2"/>
<path d="M46 77.2459H27C26.4477 77.2459 26 77.6944 26 78.2477V85.2605C26 85.8138 26.4477 86.2623 27 86.2623H46C46.5523 86.2623 47 85.8138 47 85.2605V78.2477C47 77.6944 46.5523 77.2459 46 77.2459Z" fill="#D27927"/>
<path d="M28 80.2514H33" stroke="white" stroke-width="2"/>
<path d="M73 77.2459H54C53.4477 77.2459 53 77.6944 53 78.2477V85.2605C53 85.8138 53.4477 86.2623 54 86.2623H73C73.5523 86.2623 74 85.8138 74 85.2605V78.2477C74 77.6944 73.5523 77.2459 73 77.2459Z" fill="#D27927"/>
<path d="M55 80.2514H60" stroke="white" stroke-width="2"/>
</svg>
