<svg width="473" height="513" viewBox="0 0 473 513" fill="none" xmlns="http://www.w3.org/2000/svg">
<path fill-rule="evenodd" clip-rule="evenodd" d="M430.609 376.254C430.263 387.121 430.814 379.198 430.598 383.695C430.435 387.108 428.224 390.37 423.969 392.789L259.131 486.509C249.251 492.126 231.69 491.373 220.189 484.834L61.2429 394.464C54.8608 390.835 51.601 386.123 51.659 381.716C51.7055 378.194 51.6753 382.752 51.6598 374.793C51.7339 371.277 53.9166 367.938 58.2965 365.448L223.135 271.728C233.034 266.1 250.557 266.853 262.077 273.403L421.023 363.773C427.215 367.293 430.468 371.964 430.609 376.254Z" fill="#D8EAFF"/>
<path d="M220.187 271.885L61.242 362.254C49.6746 368.831 49.6746 379.494 61.242 386.07L220.187 476.44C231.754 483.016 250.509 483.016 262.076 476.44L421.021 386.07C432.588 379.494 432.588 368.831 421.021 362.254L262.076 271.885C250.509 265.308 231.754 265.308 220.187 271.885Z" fill="white"/>
<path d="M227.57 309.872L130.683 364.958C123.632 368.967 123.632 375.467 130.683 379.476L227.57 434.562C234.621 438.571 246.053 438.571 253.104 434.562L349.992 379.476C357.043 375.467 357.043 368.967 349.992 364.958L253.104 309.872C246.053 305.863 234.621 305.863 227.57 309.872Z" fill="#F2F8FF"/>
<path d="M228.123 292.644L135.428 345.347C128.682 349.182 128.682 355.401 135.428 359.236L228.123 411.939C234.869 415.774 245.807 415.774 252.553 411.939L345.248 359.236C351.994 355.401 351.994 349.182 345.248 345.347L252.553 292.644C245.807 288.809 234.869 288.809 228.123 292.644Z" fill="#EEB820"/>
<path fill-rule="evenodd" clip-rule="evenodd" d="M355.548 328.485C355.338 335.109 355.68 341.82 355.542 344.566C355.437 346.653 354.106 348.628 351.501 350.109L251.021 407.238C244.987 410.668 234.305 410.209 227.284 406.217L130.396 351.13C126.495 348.912 124.512 346.051 124.554 343.359C124.587 341.206 124.564 332.446 124.554 327.594C124.6 325.451 125.93 323.415 128.6 321.897L229.079 264.769C235.113 261.338 245.795 261.798 252.817 265.791L349.705 320.877C353.479 323.023 355.462 325.87 355.548 328.485Z" fill="#D8EAFF"/>
<path fill-rule="evenodd" clip-rule="evenodd" d="M239.422 262.469C244.078 262.488 248.991 263.615 252.817 265.791L349.705 320.877C353.48 323.023 355.463 325.87 355.548 328.485C355.338 335.109 355.68 341.82 355.542 344.566C355.437 346.653 354.106 348.628 351.501 350.109L251.021 407.238C248.361 408.75 245.597 409.358 241.043 409.538L239.422 262.469Z" fill="#C4E0FF"/>
<path d="M227.283 264.865L130.396 319.951C123.345 323.96 123.345 330.46 130.396 334.469L227.283 389.555C234.334 393.564 245.766 393.564 252.817 389.555L349.704 334.469C356.755 330.46 356.755 323.96 349.704 319.951L252.817 264.865C245.766 260.856 234.334 260.856 227.283 264.865Z" fill="white"/>
<path d="M229.238 272.461L145.012 320.348C138.883 323.834 138.883 329.484 145.012 332.969L229.238 380.856C235.368 384.341 245.306 384.341 251.436 380.856L335.662 332.969C341.792 329.484 341.792 323.834 335.662 320.348L251.436 272.461C245.306 268.976 235.368 268.976 229.238 272.461Z" fill="#D8EAFF"/>
<path d="M230.045 279.271L151.942 323.677C146.258 326.909 146.258 332.148 151.942 335.38L230.045 379.786C235.729 383.018 244.945 383.018 250.629 379.786L328.732 335.38C334.416 332.148 334.416 326.909 328.732 323.677L250.629 279.271C244.945 276.039 235.729 276.039 230.045 279.271Z" fill="white"/>
<path fill-rule="evenodd" clip-rule="evenodd" d="M355.548 241.537C355.337 248.161 355.678 247.701 355.542 250.445C355.438 252.53 354.102 254.509 351.501 255.989L251.021 313.117C244.99 316.546 234.302 316.086 227.284 312.096L130.396 257.01C126.498 254.794 124.514 251.929 124.554 249.239C124.586 247.087 124.564 245.498 124.554 240.646C124.6 238.503 125.93 236.467 128.6 234.949L229.079 177.821C235.113 174.39 245.795 174.85 252.817 178.843L349.705 233.929C353.479 236.075 355.462 238.922 355.548 241.537ZM142.193 237.788L230.417 187.628C235.716 184.615 245.095 185.019 251.26 188.524L336.331 236.892C342.496 240.397 343.206 245.73 337.907 248.742L249.683 298.903C244.385 301.915 235.006 301.512 228.84 298.006L143.77 249.639C137.604 246.133 136.895 240.801 142.193 237.788Z" fill="#D8EAFF"/>
<path fill-rule="evenodd" clip-rule="evenodd" d="M128.6 234.024L229.079 176.895C235.113 173.465 245.795 173.924 252.817 177.916L349.705 233.003C356.726 236.995 357.534 243.068 351.5 246.499L251.021 303.627C244.987 307.058 234.305 306.599 227.283 302.606L130.396 247.52C123.374 243.528 122.566 237.455 128.6 234.024ZM137.999 234.987L229.746 182.824C235.255 179.691 245.009 180.111 251.42 183.756L339.887 234.055C346.299 237.7 347.037 243.245 341.527 246.378L249.78 298.541C244.271 301.674 234.518 301.254 228.106 297.609L139.639 247.31C133.227 243.665 132.489 238.12 137.999 234.987Z" fill="white"/>
<path fill-rule="evenodd" clip-rule="evenodd" d="M150.494 237.848L231.493 191.796C236.358 189.03 244.968 189.4 250.629 192.619L328.733 237.025C334.394 240.244 335.045 245.139 330.18 247.905L249.181 293.958C244.317 296.723 235.706 296.353 230.045 293.135L151.942 248.728C146.281 245.51 145.63 240.614 150.494 237.848Z" fill="#FFE100" fill-opacity="0.5"/>
<path fill-rule="evenodd" clip-rule="evenodd" d="M355.548 176.53C355.337 183.154 355.678 182.694 355.542 185.439C355.438 187.524 354.102 189.503 351.501 190.982L251.021 248.11C244.99 251.539 234.302 251.08 227.284 247.089L130.396 192.003C126.498 189.787 124.514 186.922 124.554 184.232C124.586 182.081 124.564 180.491 124.554 175.64C124.6 173.496 125.93 171.461 128.6 169.943L229.079 112.815C235.113 109.384 245.795 109.843 252.817 113.836L349.705 168.922C353.479 171.068 355.462 173.915 355.548 176.53ZM142.193 172.782L230.417 122.621C235.716 119.609 245.095 120.012 251.26 123.518L336.331 171.885C342.496 175.391 343.206 180.723 337.907 183.735L249.683 233.896C244.385 236.909 235.006 236.505 228.84 233L143.77 184.632C137.604 181.127 136.895 175.794 142.193 172.782Z" fill="#D8EAFF"/>
<path fill-rule="evenodd" clip-rule="evenodd" d="M128.6 169.017L229.079 111.889C235.113 108.458 245.795 108.918 252.817 112.91L349.705 167.996C356.726 171.989 357.534 178.062 351.5 181.492L251.021 238.621C244.987 242.051 234.305 241.592 227.283 237.6L130.396 182.514C123.374 178.521 122.566 172.448 128.6 169.017ZM137.999 169.98L229.746 117.817C235.255 114.684 245.009 115.104 251.42 118.75L339.887 169.048C346.299 172.693 347.037 178.239 341.527 181.371L249.78 233.534C244.271 236.667 234.518 236.248 228.106 232.602L139.639 182.304C133.227 178.658 132.489 173.113 137.999 169.98Z" fill="white"/>
<path fill-rule="evenodd" clip-rule="evenodd" d="M150.494 172.842L231.493 126.789C236.358 124.023 244.968 124.394 250.629 127.612L328.733 172.019C334.394 175.237 335.045 180.133 330.18 182.898L249.181 228.951C244.317 231.717 235.706 231.346 230.045 228.128L151.942 183.722C146.281 180.503 145.63 175.607 150.494 172.842Z" fill="#FFE100" fill-opacity="0.5"/>
<path fill-rule="evenodd" clip-rule="evenodd" d="M355.548 70.8801C355.338 77.5044 355.68 84.2151 355.542 86.9615C355.437 89.0481 354.106 91.0237 351.501 92.5048L251.021 149.633C244.987 153.064 234.305 152.604 227.284 148.612L130.396 93.5259C126.495 91.3078 124.512 88.4469 124.554 85.7548C124.587 83.6016 124.564 74.8413 124.554 69.9897C124.6 67.8465 125.93 65.811 128.6 64.2929L229.079 7.16496C235.113 3.73385 245.795 4.19359 252.817 8.18603L349.705 63.2721C353.479 65.4181 355.462 68.2652 355.548 70.8801Z" fill="#D8EAFF"/>
<path fill-rule="evenodd" clip-rule="evenodd" d="M239.422 4.86401C244.078 4.88324 248.991 6.0102 252.817 8.18579L349.705 63.2718C353.48 65.4178 355.463 68.2649 355.548 70.8799C355.338 77.5042 355.68 84.2149 355.542 86.9613C355.437 89.0479 354.106 91.0235 351.501 92.5046L251.021 149.633C248.361 151.145 245.597 151.753 241.043 151.933L239.422 4.86401Z" fill="#C4E0FF"/>
<path d="M227.283 7.25909L130.396 62.345C123.345 66.354 123.345 72.8538 130.396 76.8627L227.283 131.949C234.334 135.958 245.766 135.958 252.817 131.949L349.704 76.8627C356.755 72.8538 356.755 66.354 349.704 62.345L252.817 7.25909C245.766 3.25014 234.334 3.25015 227.283 7.25909Z" fill="white"/>
<g opacity="0.3">
<path fill-rule="evenodd" clip-rule="evenodd" d="M120.952 482.286L155.5 462.758L158.015 464.146L123.467 483.65L120.952 482.286Z" fill="#D8EAFF"/>
<path fill-rule="evenodd" clip-rule="evenodd" d="M55.3491 502.681L154.627 446.517L157.142 447.905L57.8642 504.045L55.3491 502.681Z" fill="#D8EAFF"/>
<path d="M118.994 480.44C120.893 480.44 122.637 480.866 123.922 481.554C125.435 482.365 126.372 483.564 126.372 484.957C126.372 486.35 125.435 487.549 123.922 488.36C122.637 489.049 120.892 489.475 118.994 489.475C117.096 489.475 115.352 489.049 114.067 488.36C112.553 487.549 111.616 486.35 111.616 484.957C111.616 483.564 112.553 482.365 114.067 481.554C115.352 480.866 117.096 480.44 118.994 480.44ZM122.783 483.69C121.838 483.183 120.5 482.87 118.994 482.87C117.489 482.87 116.151 483.183 115.206 483.69C114.49 484.073 114.046 484.526 114.046 484.957C114.046 485.388 114.49 485.841 115.206 486.225C116.151 486.732 117.489 487.045 118.994 487.045C120.499 487.045 121.838 486.731 122.783 486.225C123.499 485.841 123.942 485.388 123.942 484.957C123.942 484.526 123.499 484.073 122.783 483.69Z" fill="#D8EAFF"/>
<path d="M51.8774 501.603C53.7757 501.603 55.52 502.029 56.8048 502.717C58.3186 503.528 59.2556 504.727 59.2556 506.12C59.2556 507.514 58.3186 508.712 56.8048 509.524C55.52 510.212 53.7754 510.638 51.8774 510.638C49.9793 510.638 48.2347 510.212 46.9499 509.524C45.4361 508.712 44.4991 507.514 44.4991 506.12C44.4991 504.727 45.4361 503.528 46.9499 502.717C48.2347 502.029 49.979 501.603 51.8774 501.603ZM55.666 504.853C54.7207 504.347 53.3828 504.033 51.8774 504.033C50.3719 504.033 49.034 504.347 48.0887 504.853C47.3727 505.236 46.9293 505.69 46.9293 506.12C46.9293 506.551 47.3727 507.004 48.0887 507.388C49.0343 507.895 50.3722 508.208 51.8774 508.208C53.3826 508.208 54.7207 507.894 55.666 507.388C56.382 507.004 56.8254 506.551 56.8254 506.12C56.8254 505.69 56.382 505.236 55.666 504.853Z" fill="#D8EAFF"/>
<path fill-rule="evenodd" clip-rule="evenodd" d="M74.524 476.203L132.041 443.577L134.556 444.965L77.039 477.567L74.524 476.203Z" fill="#D8EAFF"/>
<path fill-rule="evenodd" clip-rule="evenodd" d="M106.415 441.275L126.061 430.005L128.576 431.487L108.93 442.639L106.415 441.275Z" fill="#D8EAFF"/>
<path d="M103.695 439.905C105.594 439.905 107.338 440.331 108.623 441.02C110.136 441.831 111.073 443.03 111.073 444.423C111.073 445.816 110.136 447.015 108.623 447.826C107.338 448.515 105.593 448.941 103.695 448.941C101.797 448.941 100.053 448.515 98.7679 447.826C97.2541 447.015 96.3171 445.816 96.3171 444.423C96.3171 443.03 97.2541 441.831 98.7679 441.02C100.053 440.331 101.797 439.905 103.695 439.905ZM107.484 443.156C106.539 442.649 105.201 442.335 103.695 442.335C102.19 442.335 100.852 442.649 99.9066 443.156C99.1906 443.539 98.7472 443.992 98.7472 444.423C98.7472 444.853 99.1906 445.307 99.9066 445.69C100.852 446.197 102.19 446.511 103.695 446.511C105.2 446.511 106.539 446.197 107.484 445.69C108.2 445.307 108.643 444.853 108.643 444.423C108.643 443.992 108.2 443.539 107.484 443.156Z" fill="#D8EAFF"/>
<path fill-rule="evenodd" clip-rule="evenodd" d="M362.749 466.628L328.202 447.1L325.687 448.488L360.234 467.992L362.749 466.628Z" fill="#D8EAFF"/>
<path fill-rule="evenodd" clip-rule="evenodd" d="M472.104 511.32L372.826 455.156L370.311 456.544L469.589 512.684L472.104 511.32Z" fill="#D8EAFF"/>
<path d="M364.42 465.17C362.522 465.17 360.777 465.596 359.493 466.285C357.979 467.096 357.042 468.295 357.042 469.688C357.042 471.081 357.979 472.28 359.493 473.091C360.777 473.779 362.522 474.205 364.42 474.205C366.318 474.205 368.063 473.779 369.347 473.091C370.861 472.28 371.798 471.081 371.798 469.688C371.798 468.295 370.861 467.096 369.347 466.285C368.063 465.596 366.318 465.17 364.42 465.17ZM360.631 468.42C361.577 467.914 362.915 467.6 364.42 467.6C365.926 467.6 367.263 467.914 368.209 468.42C368.925 468.804 369.368 469.257 369.368 469.688C369.368 470.118 368.925 470.571 368.209 470.955C367.263 471.462 365.925 471.775 364.42 471.775C362.915 471.775 361.577 471.462 360.631 470.955C359.915 470.571 359.472 470.118 359.472 469.688C359.472 469.257 359.915 468.804 360.631 468.42Z" fill="#D8EAFF"/>
<path fill-rule="evenodd" clip-rule="evenodd" d="M414.113 463.202L356.597 430.576L354.082 431.964L411.598 464.566L414.113 463.202Z" fill="#D8EAFF"/>
<path d="M416.832 461.832C414.934 461.832 413.19 462.258 411.905 462.947C410.391 463.758 409.454 464.957 409.454 466.35C409.454 467.743 410.391 468.942 411.905 469.753C413.19 470.442 414.934 470.868 416.832 470.868C418.73 470.868 420.475 470.442 421.76 469.753C423.273 468.942 424.21 467.743 424.21 466.35C424.21 464.957 423.273 463.758 421.76 462.947C420.475 462.258 418.73 461.832 416.832 461.832ZM413.043 465.082C413.989 464.576 415.327 464.262 416.832 464.262C418.338 464.262 419.676 464.576 420.621 465.082C421.337 465.466 421.78 465.919 421.78 466.35C421.78 466.78 421.337 467.234 420.621 467.617C419.675 468.124 418.337 468.438 416.832 468.438C415.327 468.438 413.989 468.124 413.043 467.617C412.327 467.234 411.884 466.78 411.884 466.35C411.884 465.919 412.327 465.466 413.043 465.082Z" fill="#D8EAFF"/>
<path fill-rule="evenodd" clip-rule="evenodd" d="M390.954 433.21L371.307 421.94L368.792 423.422L388.439 434.574L390.954 433.21Z" fill="#D8EAFF"/>
</g>
<path fill-rule="evenodd" clip-rule="evenodd" d="M59.5041 294.36L24.9562 274.832L22.4412 276.22L56.989 295.724L59.5041 294.36Z" fill="#D8EAFF"/>
<path fill-rule="evenodd" clip-rule="evenodd" d="M112.199 308.301L12.9208 252.137L10.4058 253.524L109.684 309.665L112.199 308.301Z" fill="#D8EAFF"/>
<path d="M7.3782 245.719C5.47984 245.719 3.73559 246.146 2.45079 246.834C0.936981 247.645 0 248.844 0 250.237C0 251.63 0.936981 252.829 2.45079 253.64C3.73559 254.329 5.48013 254.755 7.3782 254.755C9.27628 254.755 11.0208 254.329 12.3056 253.64C13.8194 252.829 14.7564 251.63 14.7564 250.237C14.7564 248.844 13.8194 247.645 12.3056 246.834C11.0208 246.146 9.27656 245.719 7.3782 245.719ZM3.58952 248.97C4.53482 248.463 5.87272 248.15 7.3782 248.15C8.88369 248.15 10.2216 248.463 11.1669 248.97C11.8829 249.353 12.3263 249.806 12.3263 250.237C12.3263 250.668 11.8829 251.121 11.1669 251.505C10.2213 252.011 8.8834 252.325 7.3782 252.325C5.873 252.325 4.53482 252.011 3.58952 251.505C2.87351 251.121 2.43013 250.668 2.43013 250.237C2.43013 249.806 2.87351 249.353 3.58952 248.97Z" fill="#D8EAFF"/>
<path fill-rule="evenodd" clip-rule="evenodd" d="M138.202 311.056L80.6857 278.43L78.1707 279.817L135.687 312.42L138.202 311.056Z" fill="#D8EAFF"/>
<path d="M75.6224 272.193C73.724 272.193 71.9797 272.62 70.6949 273.308C69.1811 274.119 68.2441 275.318 68.2441 276.711C68.2441 278.104 69.1811 279.303 70.6949 280.114C71.9797 280.803 73.7243 281.229 75.6224 281.229C77.5204 281.229 79.265 280.803 80.5498 280.114C82.0636 279.303 83.0005 278.104 83.0005 276.711C83.0005 275.318 82.0636 274.119 80.5498 273.308C79.265 272.62 77.5207 272.193 75.6224 272.193ZM71.8337 275.444C72.779 274.937 74.1169 274.624 75.6224 274.624C77.1278 274.624 78.4657 274.937 79.411 275.444C80.127 275.827 80.5704 276.28 80.5704 276.711C80.5704 277.141 80.127 277.595 79.411 277.979C78.4654 278.485 77.1276 278.799 75.6224 278.799C74.1172 278.799 72.779 278.485 71.8337 277.979C71.1177 277.595 70.6743 277.141 70.6743 276.711C70.6743 276.28 71.1177 275.827 71.8337 275.444Z" fill="#D8EAFF"/>
<path fill-rule="evenodd" clip-rule="evenodd" d="M363.624 322.727L462.902 266.564L465.417 267.951L366.139 324.091L363.624 322.727Z" fill="#D8EAFF"/>
<path d="M199.274 60.7339C199.893 60.2802 200.512 60.0537 201.12 60.0537C202.104 60.0537 203.035 60.5552 203.872 61.5953L206.942 65.4089L210.048 61.5953C210.889 60.5636 211.808 60.0537 212.8 60.0537C213.413 60.0537 214.027 60.2783 214.646 60.7339C214.974 60.9754 215.257 61.3045 215.485 61.7134C215.777 62.2371 215.92 62.7835 215.92 63.3502C215.92 64.0395 215.721 64.6302 215.299 65.0914L210.102 70.7777V77.0942C210.102 77.968 209.796 78.7162 209.2 79.3523C208.6 79.9936 207.862 80.3228 206.969 80.3228C206.099 80.3228 205.347 79.9979 204.706 79.3523C204.115 78.7567 203.818 78.0056 203.818 77.0942V70.7777L198.621 65.0914C198.199 64.6294 198 64.0395 198 63.3502C198 62.7924 198.131 62.2419 198.426 61.7134C198.66 61.2953 198.957 60.9666 199.274 60.7339ZM221.57 79.0622C220.577 78.5634 219.752 77.933 219.095 77.1758C218.442 76.4186 217.943 75.5298 217.603 74.5095C217.263 73.494 217.09 72.3784 217.09 71.1768V63.255C217.09 62.3618 217.39 61.5999 217.993 60.9697C218.623 60.3393 219.376 60.0264 220.251 60.0264C221.112 60.0264 221.838 60.3212 222.432 60.9151C223.062 61.5455 223.375 62.3073 223.375 63.2006V71.3718C223.375 71.9929 223.479 72.537 223.692 73.0132C223.906 73.4848 224.214 73.8748 224.618 74.1831C225.021 74.4869 225.515 74.6909 226.1 74.7998C226.4 74.8359 226.626 74.8542 226.776 74.8542C226.917 74.8542 227.139 74.8359 227.438 74.7998C228.023 74.6909 228.517 74.4869 228.916 74.1877C229.311 73.8884 229.619 73.4983 229.832 73.0178C230.045 72.5415 230.15 71.9929 230.15 71.3718V63.2006C230.15 62.3164 230.467 61.5546 231.106 60.9151C231.696 60.3212 232.421 60.0264 233.278 60.0264C234.163 60.0264 234.906 60.3393 235.505 60.9697C235.791 61.2463 236.013 61.5864 236.18 61.9989C236.348 62.4116 236.434 62.8287 236.434 63.255V71.1768C236.434 72.3965 236.267 73.5164 235.931 74.5232C235.596 75.5344 235.092 76.4186 234.421 77.1758C233.754 77.933 232.925 78.5634 231.927 79.0622C228.724 80.6639 224.774 80.6639 221.57 79.0622Z" fill="#C4E0FF"/>
<path d="M249.952 74.6282C250.89 74.4512 251.552 74.0885 251.942 73.549H250.31C249.53 73.549 248.872 73.2722 248.337 72.7235C247.802 72.1749 247.53 71.5175 247.53 70.7466C247.548 70.2343 247.68 69.7717 247.916 69.359C248.156 68.9465 248.487 68.6199 248.909 68.3706C249.326 68.1212 249.788 67.9986 250.283 67.9986H255.556C257.497 67.9986 258.467 69.0689 258.467 71.2046C258.467 71.8213 258.404 72.4606 258.281 73.118C258.154 73.9434 257.851 74.7913 257.361 75.671C256.821 76.6369 256.132 77.4667 255.298 78.1604C254.459 78.8589 253.498 79.3893 252.414 79.752C251.33 80.1147 250.138 80.2961 248.836 80.2961C248.092 80.2961 247.267 80.2236 246.365 80.0832C245.122 79.8699 244.002 79.5026 242.996 78.972C241.989 78.4461 241.109 77.7659 240.357 76.9316C239.604 76.1017 239.005 75.1541 238.552 74.0885C238.031 72.8325 237.767 71.5538 237.767 70.2614C237.767 68.5609 238.198 66.9513 239.064 65.4321C239.926 63.9132 241.146 62.6571 242.724 61.664C244.442 60.5893 246.397 60.0544 248.596 60.0544C248.877 60.0544 249.285 60.0724 249.816 60.1087C250.763 60.1903 251.688 60.3717 252.595 60.6528C253.461 60.9386 254.278 61.3104 255.039 61.7729C256.59 62.7931 257.361 63.8814 257.361 65.0422C257.361 65.7359 257.043 66.3618 256.404 66.9195C255.955 67.3186 255.411 67.5134 254.772 67.5134C254.305 67.5134 253.801 67.4047 253.271 67.1825H253.244L252.101 66.584C251.856 66.4433 251.666 66.3481 251.53 66.2937C250.423 65.7814 249.394 65.5228 248.437 65.5228C247.666 65.5228 246.972 65.677 246.365 65.9808C245.753 66.2846 245.245 66.7336 244.837 67.3275C244.429 67.9216 244.157 68.6064 244.025 69.3862C243.971 69.631 243.943 69.8759 243.943 70.1162C243.943 70.4245 243.971 70.724 244.025 71.0186C244.184 71.803 244.47 72.4787 244.877 73.041C245.281 73.6033 245.798 74.0387 246.424 74.3423C247.049 74.6463 247.752 74.8005 248.541 74.8005C249.022 74.8005 249.489 74.7413 249.952 74.6282ZM261.374 75.816C260.975 75.2493 260.644 74.6508 260.372 74.0159C260.104 73.3811 259.9 72.7463 259.759 72.1024C259.624 71.4585 259.556 70.8101 259.556 70.1525C259.556 69.5177 259.624 68.8738 259.759 68.2254C259.9 67.5815 260.104 66.9376 260.381 66.2937C260.653 65.6498 260.984 65.0513 261.374 64.4936C262.013 63.5639 262.784 62.7615 263.687 62.0857C264.589 61.4146 265.577 60.8977 266.657 60.5395C267.731 60.1812 268.838 60 269.971 60C270.819 60 271.658 60.0996 272.488 60.3038C273.313 60.5078 274.107 60.807 274.864 61.2015C275.621 61.596 276.31 62.0676 276.936 62.6163C277.562 63.1695 278.106 63.7907 278.578 64.4936C279.788 66.2485 280.396 68.1347 280.396 70.1525C280.396 71.1548 280.242 72.1386 279.929 73.0999C279.621 74.0613 279.172 74.9681 278.578 75.816C278.106 76.5008 277.548 77.1266 276.904 77.6979C276.256 78.2693 275.576 78.7408 274.864 79.1127C274.152 79.4845 273.368 79.7792 272.52 79.9968C271.667 80.2145 270.819 80.3235 269.971 80.3235C268.838 80.3235 267.731 80.1465 266.657 79.7929C265.577 79.4391 264.589 78.9176 263.682 78.2374C262.77 77.5528 262.004 76.7456 261.374 75.816ZM265.786 70.1525C265.786 71.0323 265.976 71.8258 266.353 72.5422C266.729 73.2587 267.232 73.8165 267.863 74.2109C268.498 74.6054 269.191 74.8005 269.944 74.8005C270.207 74.8005 270.484 74.7733 270.765 74.7189C271.273 74.6145 271.726 74.4286 272.134 74.1655C272.542 73.898 272.9 73.5625 273.218 73.1543C273.531 72.7463 273.771 72.2927 273.939 71.7941C274.107 71.2952 274.193 70.7557 274.193 70.1797C274.193 69.9076 274.166 69.613 274.111 69.3046C273.98 68.5337 273.721 67.8718 273.336 67.314C272.95 66.7562 272.465 66.3209 271.88 65.999C271.295 65.6816 270.66 65.5228 269.967 65.5228C269.2 65.5228 268.493 65.7179 267.858 66.1123C267.219 66.5068 266.716 67.0646 266.344 67.7811C265.972 68.4974 265.786 69.2866 265.786 70.1525Z" fill="#C4E0FF"/>
<path d="M204 85.9322H206.112C206.617 85.9322 207.038 86.0839 207.379 86.3883C207.719 86.6928 207.889 87.0622 207.889 87.4974C207.889 87.9327 207.719 88.3021 207.379 88.6041C207.038 88.9074 206.617 89.059 206.112 89.059H204.829V90.7956H204V85.9322ZM206.112 86.6268H204.829V88.3634H206.112C206.372 88.3634 206.595 88.2812 206.78 88.1145C206.964 87.9489 207.056 87.7428 207.056 87.4974C207.056 87.2519 206.964 87.046 206.78 86.878C206.595 86.7114 206.372 86.6268 206.112 86.6268Z" fill="#C4E0FF"/>
<path d="M217.016 90.7956H213.62V85.9322H214.449V90.0998H217.016V90.7956Z" fill="#C4E0FF"/>
<path d="M221.916 90.7956L224.106 85.9322H224.936L227.126 90.7956H226.259L225.691 89.5106H223.35L222.783 90.7956H221.916ZM224.522 86.8005L223.653 88.8148H225.389L224.522 86.8005Z" fill="#C4E0FF"/>
<path d="M231.952 85.9322H235.953V86.6268H234.367V90.7956H233.538V86.6268H231.952V85.9322Z" fill="#C4E0FF"/>
<path d="M241.384 85.9322H245.082V86.6268H242.214V87.9837H244.478V88.676H242.214V90.7956H241.384V85.9322Z" fill="#C4E0FF"/>
<path d="M251.761 87.0827C251.38 87.4324 251.192 87.8596 251.192 88.3632C251.192 88.8679 251.38 89.295 251.761 89.6458C252.141 89.9966 252.605 90.1715 253.155 90.1715C253.704 90.1715 254.168 89.9966 254.548 89.6458C254.928 89.295 255.119 88.8679 255.119 88.3632C255.119 87.8596 254.928 87.4324 254.548 87.0827C254.168 86.7342 253.704 86.5596 253.155 86.5596C252.605 86.5596 252.141 86.7342 251.761 87.0827ZM251.165 90.1379C250.629 89.654 250.361 89.0623 250.361 88.3632C250.361 87.665 250.629 87.0735 251.165 86.5897C251.701 86.1056 252.365 85.8638 253.155 85.8638C253.946 85.8638 254.608 86.1056 255.144 86.5897C255.68 87.0735 255.948 87.665 255.948 88.3632C255.948 89.0623 255.68 89.654 255.144 90.1379C254.608 90.6218 253.946 90.8638 253.155 90.8638C252.365 90.8638 251.701 90.6218 251.165 90.1379Z" fill="#C4E0FF"/>
<path d="M261.681 90.7956V85.9322H263.908C264.397 85.9322 264.803 86.0757 265.125 86.3629C265.447 86.65 265.608 87.0054 265.608 87.4279C265.608 87.6271 265.57 87.8123 265.497 87.986C265.423 88.1585 265.335 88.295 265.232 88.3947C265.129 88.4941 265.025 88.581 264.922 88.6551C264.819 88.7303 264.73 88.7812 264.657 88.8078L264.55 88.8519L265.759 90.7956H264.852L263.72 88.9201H262.511V90.7956H261.681ZM264.526 87.9964C264.692 87.8436 264.775 87.6537 264.775 87.4256C264.775 87.1988 264.692 87.0089 264.526 86.8561C264.36 86.7032 264.153 86.6268 263.908 86.6268H262.511V88.2245H263.908C264.153 88.2245 264.36 88.148 264.526 87.9964Z" fill="#C4E0FF"/>
<path d="M274.242 88.2962L276.281 85.9322H277V90.7956H276.171V87.2543L274.242 89.4759L272.318 87.2543V90.7956H271.489V85.9322H272.203L274.242 88.2962Z" fill="#C4E0FF"/>
</svg>
