<svg width="473" height="268" viewBox="0 0 473 268" fill="none" xmlns="http://www.w3.org/2000/svg">
<path fill-rule="evenodd" clip-rule="evenodd" d="M430.609 131.254C430.263 142.121 430.814 134.198 430.598 138.695C430.435 142.108 428.224 145.37 423.969 147.789L259.131 241.509C249.251 247.126 231.69 246.373 220.189 239.834L61.2429 149.464C54.8608 145.835 51.601 141.123 51.659 136.716C51.7055 133.194 51.6753 137.752 51.6598 129.793C51.7339 126.277 53.9166 122.938 58.2965 120.448L223.135 26.728C233.034 21.0995 250.557 21.8534 262.077 28.4031L421.023 118.773C427.215 122.293 430.468 126.964 430.609 131.254Z" fill="#D8EAFF"/>
<path d="M220.187 26.8847L61.242 117.254C49.6746 123.831 49.6746 134.494 61.242 141.07L220.187 231.44C231.754 238.016 250.509 238.016 262.076 231.44L421.021 141.07C432.588 134.494 432.588 123.831 421.021 117.254L262.076 26.8847C250.509 20.308 231.754 20.3079 220.187 26.8847Z" fill="white"/>
<g opacity="0.3">
<path fill-rule="evenodd" clip-rule="evenodd" d="M120.952 237.286L155.5 217.758L158.015 219.146L123.467 238.65L120.952 237.286Z" fill="#D8EAFF"/>
<path fill-rule="evenodd" clip-rule="evenodd" d="M55.3491 257.681L154.627 201.517L157.142 202.905L57.8642 259.045L55.3491 257.681Z" fill="#D8EAFF"/>
<path d="M118.994 235.44C120.893 235.44 122.637 235.866 123.922 236.554C125.435 237.365 126.372 238.564 126.372 239.957C126.372 241.35 125.435 242.549 123.922 243.36C122.637 244.049 120.892 244.475 118.994 244.475C117.096 244.475 115.352 244.049 114.067 243.36C112.553 242.549 111.616 241.35 111.616 239.957C111.616 238.564 112.553 237.365 114.067 236.554C115.352 235.866 117.096 235.44 118.994 235.44ZM122.783 238.69C121.838 238.183 120.5 237.87 118.994 237.87C117.489 237.87 116.151 238.183 115.206 238.69C114.49 239.073 114.046 239.526 114.046 239.957C114.046 240.388 114.49 240.841 115.206 241.225C116.151 241.732 117.489 242.045 118.994 242.045C120.499 242.045 121.838 241.731 122.783 241.225C123.499 240.841 123.942 240.388 123.942 239.957C123.942 239.526 123.499 239.073 122.783 238.69Z" fill="#D8EAFF"/>
<path d="M51.8774 256.603C53.7757 256.603 55.52 257.029 56.8048 257.717C58.3186 258.528 59.2556 259.727 59.2556 261.12C59.2556 262.514 58.3186 263.712 56.8048 264.524C55.52 265.212 53.7754 265.638 51.8774 265.638C49.9793 265.638 48.2347 265.212 46.9499 264.524C45.4361 263.712 44.4991 262.514 44.4991 261.12C44.4991 259.727 45.4361 258.528 46.9499 257.717C48.2347 257.029 49.979 256.603 51.8774 256.603ZM55.666 259.853C54.7207 259.347 53.3828 259.033 51.8774 259.033C50.3719 259.033 49.034 259.347 48.0887 259.853C47.3727 260.236 46.9293 260.69 46.9293 261.12C46.9293 261.551 47.3727 262.004 48.0887 262.388C49.0343 262.895 50.3722 263.208 51.8774 263.208C53.3826 263.208 54.7207 262.894 55.666 262.388C56.382 262.004 56.8254 261.551 56.8254 261.12C56.8254 260.69 56.382 260.236 55.666 259.853Z" fill="#D8EAFF"/>
<path fill-rule="evenodd" clip-rule="evenodd" d="M74.524 231.203L132.041 198.577L134.556 199.965L77.039 232.567L74.524 231.203Z" fill="#D8EAFF"/>
<path fill-rule="evenodd" clip-rule="evenodd" d="M106.415 196.275L126.061 185.005L128.576 186.487L108.93 197.639L106.415 196.275Z" fill="#D8EAFF"/>
<path d="M103.695 194.905C105.594 194.905 107.338 195.331 108.623 196.02C110.136 196.831 111.073 198.03 111.073 199.423C111.073 200.816 110.136 202.015 108.623 202.826C107.338 203.515 105.593 203.941 103.695 203.941C101.797 203.941 100.053 203.515 98.7679 202.826C97.2541 202.015 96.3171 200.816 96.3171 199.423C96.3171 198.03 97.2541 196.831 98.7679 196.02C100.053 195.331 101.797 194.905 103.695 194.905ZM107.484 198.156C106.539 197.649 105.201 197.335 103.695 197.335C102.19 197.335 100.852 197.649 99.9066 198.156C99.1906 198.539 98.7472 198.992 98.7472 199.423C98.7472 199.853 99.1906 200.307 99.9066 200.69C100.852 201.197 102.19 201.511 103.695 201.511C105.2 201.511 106.539 201.197 107.484 200.69C108.2 200.307 108.643 199.853 108.643 199.423C108.643 198.992 108.2 198.539 107.484 198.156Z" fill="#D8EAFF"/>
<path fill-rule="evenodd" clip-rule="evenodd" d="M362.749 221.628L328.202 202.1L325.687 203.488L360.234 222.992L362.749 221.628Z" fill="#D8EAFF"/>
<path fill-rule="evenodd" clip-rule="evenodd" d="M472.104 266.32L372.826 210.156L370.311 211.544L469.589 267.684L472.104 266.32Z" fill="#D8EAFF"/>
<path d="M364.42 220.17C362.522 220.17 360.777 220.596 359.493 221.285C357.979 222.096 357.042 223.295 357.042 224.688C357.042 226.081 357.979 227.28 359.493 228.091C360.777 228.779 362.522 229.205 364.42 229.205C366.318 229.205 368.063 228.779 369.347 228.091C370.861 227.28 371.798 226.081 371.798 224.688C371.798 223.295 370.861 222.096 369.347 221.285C368.063 220.596 366.318 220.17 364.42 220.17ZM360.631 223.42C361.577 222.914 362.915 222.6 364.42 222.6C365.926 222.6 367.263 222.914 368.209 223.42C368.925 223.804 369.368 224.257 369.368 224.688C369.368 225.118 368.925 225.571 368.209 225.955C367.263 226.462 365.925 226.775 364.42 226.775C362.915 226.775 361.577 226.462 360.631 225.955C359.915 225.571 359.472 225.118 359.472 224.688C359.472 224.257 359.915 223.804 360.631 223.42Z" fill="#D8EAFF"/>
<path fill-rule="evenodd" clip-rule="evenodd" d="M414.113 218.202L356.597 185.576L354.082 186.964L411.598 219.566L414.113 218.202Z" fill="#D8EAFF"/>
<path d="M416.832 216.832C414.934 216.832 413.19 217.258 411.905 217.947C410.391 218.758 409.454 219.957 409.454 221.35C409.454 222.743 410.391 223.942 411.905 224.753C413.19 225.442 414.934 225.868 416.832 225.868C418.73 225.868 420.475 225.442 421.76 224.753C423.273 223.942 424.21 222.743 424.21 221.35C424.21 219.957 423.273 218.758 421.76 217.947C420.475 217.258 418.73 216.832 416.832 216.832ZM413.043 220.082C413.989 219.576 415.327 219.262 416.832 219.262C418.338 219.262 419.676 219.576 420.621 220.082C421.337 220.466 421.78 220.919 421.78 221.35C421.78 221.78 421.337 222.234 420.621 222.617C419.675 223.124 418.337 223.438 416.832 223.438C415.327 223.438 413.989 223.124 413.043 222.617C412.327 222.234 411.884 221.78 411.884 221.35C411.884 220.919 412.327 220.466 413.043 220.082Z" fill="#D8EAFF"/>
<path fill-rule="evenodd" clip-rule="evenodd" d="M390.954 188.21L371.307 176.94L368.792 178.422L388.439 189.574L390.954 188.21Z" fill="#D8EAFF"/>
</g>
<path fill-rule="evenodd" clip-rule="evenodd" d="M59.5041 49.3601L24.9562 29.832L22.4412 31.2196L56.989 50.724L59.5041 49.3601Z" fill="#D8EAFF"/>
<path fill-rule="evenodd" clip-rule="evenodd" d="M112.199 63.3006L12.9208 7.13696L10.4058 8.52449L109.684 64.6646L112.199 63.3006Z" fill="#D8EAFF"/>
<path d="M7.3782 0.719482C5.47984 0.719482 3.73559 1.14564 2.45079 1.8341C0.936981 2.6451 0 3.8441 0 5.23709C0 6.63037 0.936981 7.82907 2.45079 8.64036C3.73559 9.32882 5.48013 9.75498 7.3782 9.75498C9.27628 9.75498 11.0208 9.32882 12.3056 8.64036C13.8194 7.82907 14.7564 6.63037 14.7564 5.23709C14.7564 3.8441 13.8194 2.6451 12.3056 1.8341C11.0208 1.14564 9.27656 0.719482 7.3782 0.719482ZM3.58952 3.96979C4.53482 3.46327 5.87272 3.1496 7.3782 3.1496C8.88369 3.1496 10.2216 3.46327 11.1669 3.96979C11.8829 4.35319 12.3263 4.80634 12.3263 5.23709C12.3263 5.66756 11.8829 6.12098 11.1669 6.50467C10.2213 7.01147 8.8834 7.32486 7.3782 7.32486C5.873 7.32486 4.53482 7.01119 3.58952 6.50467C2.87351 6.12098 2.43013 5.66756 2.43013 5.23709C2.43013 4.80634 2.87351 4.35319 3.58952 3.96979Z" fill="#D8EAFF"/>
<path fill-rule="evenodd" clip-rule="evenodd" d="M138.202 66.0556L80.6857 33.4299L78.1707 34.8175L135.687 67.4196L138.202 66.0556Z" fill="#D8EAFF"/>
<path d="M75.6224 27.1934C73.724 27.1934 71.9797 27.6195 70.6949 28.308C69.1811 29.119 68.2441 30.318 68.2441 31.711C68.2441 33.1042 69.1811 34.303 70.6949 35.1143C71.9797 35.8028 73.7243 36.2289 75.6224 36.2289C77.5204 36.2289 79.265 35.8028 80.5498 35.1143C82.0636 34.303 83.0005 33.1042 83.0005 31.711C83.0005 30.318 82.0636 29.119 80.5498 28.308C79.265 27.6195 77.5207 27.1934 75.6224 27.1934ZM71.8337 30.4437C72.779 29.9372 74.1169 29.6235 75.6224 29.6235C77.1278 29.6235 78.4657 29.9372 79.411 30.4437C80.127 30.8271 80.5704 31.2802 80.5704 31.711C80.5704 32.1414 80.127 32.5949 79.411 32.9785C78.4654 33.4853 77.1276 33.7987 75.6224 33.7987C74.1172 33.7987 72.779 33.4851 71.8337 32.9785C71.1177 32.5949 70.6743 32.1414 70.6743 31.711C70.6743 31.2802 71.1177 30.8271 71.8337 30.4437Z" fill="#D8EAFF"/>
<path fill-rule="evenodd" clip-rule="evenodd" d="M363.624 77.7274L462.902 21.5637L465.417 22.9513L366.139 79.0914L363.624 77.7274Z" fill="#D8EAFF"/>
</svg>
