<svg width="246" height="185" viewBox="0 0 246 185" fill="none" xmlns="http://www.w3.org/2000/svg">
<path d="M110.57 52.872L13.6832 107.958C6.6321 111.967 6.6321 118.467 13.6832 122.476L110.57 177.562C117.621 181.571 129.053 181.571 136.104 177.562L232.992 122.476C240.043 118.467 240.043 111.967 232.992 107.958L136.104 52.872C129.053 48.863 117.621 48.863 110.57 52.872Z" fill="#F2F8FF"/>
<path d="M111.123 35.6443L18.4282 88.3468C11.6822 92.1822 11.6822 98.4008 18.4282 102.236L111.123 154.939C117.869 158.774 128.807 158.774 135.553 154.939L228.248 102.236C234.994 98.4008 234.994 92.1822 228.248 88.3468L135.553 35.6443C128.807 31.8089 117.869 31.8089 111.123 35.6443Z" fill="#EEB820"/>
<path fill-rule="evenodd" clip-rule="evenodd" d="M238.548 71.4846C238.338 78.109 238.68 84.8196 238.542 87.566C238.437 89.6526 237.106 91.6282 234.501 93.1093L134.021 150.238C127.987 153.668 117.305 153.209 110.284 149.217L13.3958 94.1304C9.49486 91.9123 7.51213 89.0514 7.55374 86.3593C7.58732 84.2061 7.56377 75.4458 7.5543 70.5941C7.59965 68.451 8.93008 66.4154 11.5998 64.8973L112.079 7.76945C118.113 4.33834 128.795 4.79808 135.817 8.79052L232.705 63.8765C236.479 66.0225 238.462 68.8697 238.548 71.4846Z" fill="#D8EAFF"/>
<path d="M110.283 7.86517L13.3959 62.9511C6.34481 66.9601 6.34481 73.4599 13.3959 77.4688L110.283 132.555C117.334 136.564 128.766 136.564 135.817 132.555L232.704 77.4688C239.755 73.4599 239.755 66.9601 232.704 62.9511L135.817 7.86517C128.766 3.85622 117.334 3.85622 110.283 7.86517Z" fill="white"/>
<path d="M112.238 15.4612L28.0123 63.3485C21.8826 66.8335 21.8826 72.4839 28.0123 75.9689L112.238 123.856C118.368 127.341 128.306 127.341 134.436 123.856L218.662 75.9689C224.792 72.4839 224.792 66.8335 218.662 63.3485L134.436 15.4612C128.306 11.9762 118.368 11.9762 112.238 15.4612Z" fill="#D8EAFF"/>
<path d="M113.045 22.2707L34.9418 66.677C29.2577 69.9087 29.2577 75.1484 34.9418 78.3801L113.045 122.786C118.729 126.018 127.945 126.018 133.629 122.786L211.732 78.3801C217.416 75.1484 217.416 69.9087 211.732 66.677L133.629 22.2707C127.945 19.039 118.729 19.039 113.045 22.2707Z" fill="white"/>
</svg>
