<svg width="232" height="142" viewBox="0 0 232 142" fill="none" xmlns="http://www.w3.org/2000/svg">
<path fill-rule="evenodd" clip-rule="evenodd" d="M231.548 67.5366C231.337 74.1609 231.678 73.7006 231.542 76.4453C231.438 78.5302 230.102 80.5094 227.501 81.9885L127.021 139.117C120.99 142.546 110.302 142.086 103.284 138.096L6.3957 83.0096C2.49796 80.7935 0.5138 77.929 0.55369 75.2385C0.585545 73.0873 0.563721 71.4978 0.554251 66.6461C0.599593 64.503 1.93003 62.4674 4.59979 60.9493L105.079 3.82145C111.113 0.390341 121.795 0.850083 128.817 4.84252L225.705 59.9285C229.479 62.0746 231.462 64.9216 231.548 67.5366ZM18.1931 63.7884L106.417 13.6278C111.716 10.6154 121.095 11.0189 127.26 14.5243L212.331 62.8919C218.496 66.3973 219.206 71.7296 213.907 74.742L125.683 124.903C120.385 127.915 111.006 127.512 104.84 124.006L19.7697 75.6386C13.6043 72.1331 12.8946 66.8008 18.1931 63.7884Z" fill="#D8EAFF"/>
<path fill-rule="evenodd" clip-rule="evenodd" d="M4.59968 60.0238L105.079 2.89534C111.113 -0.535196 121.795 -0.0757418 128.817 3.91641L225.705 59.0027C232.726 62.9952 233.534 69.0682 227.5 72.499L127.021 129.627C120.987 133.058 110.305 132.599 103.283 128.606L6.39559 73.5201C-0.626191 69.5276 -1.43432 63.4546 4.59968 60.0238ZM13.9991 60.9869L105.746 8.82374C111.255 5.69108 121.009 6.11065 127.42 9.75613L215.887 60.0548C222.299 63.7 223.037 69.2453 217.527 72.3779L125.78 124.541C120.271 127.674 110.518 127.254 104.106 123.609L15.6389 73.3103C9.2272 69.6648 8.48937 64.1196 13.9991 60.9869Z" fill="white"/>
<path fill-rule="evenodd" clip-rule="evenodd" d="M26.4939 63.8485L107.493 17.7957C112.358 15.03 120.968 15.4003 126.629 18.619L204.733 63.0252C210.394 66.2436 211.045 71.1394 206.18 73.905L125.181 119.958C120.317 122.723 111.706 122.353 106.045 119.135L27.9418 74.7284C22.2811 71.5097 21.6297 66.6141 26.4939 63.8485Z" fill="#FFE100" fill-opacity="0.5"/>
</svg>
