<svg width="246" height="152" viewBox="0 0 246 152" fill="none" xmlns="http://www.w3.org/2000/svg">
<path fill-rule="evenodd" clip-rule="evenodd" d="M238.548 70.8801C238.338 77.5044 238.68 84.2151 238.542 86.9615C238.437 89.0481 237.106 91.0237 234.501 92.5048L134.021 149.633C127.987 153.064 117.305 152.604 110.284 148.612L13.3958 93.5259C9.49486 91.3078 7.51213 88.4469 7.55374 85.7548C7.58732 83.6016 7.56377 74.8413 7.5543 69.9897C7.59965 67.8465 8.93008 65.811 11.5998 64.2929L112.079 7.16496C118.113 3.73385 128.795 4.19359 135.817 8.18603L232.705 63.2721C236.479 65.4181 238.462 68.2652 238.548 70.8801Z" fill="#D8EAFF"/>
<path fill-rule="evenodd" clip-rule="evenodd" d="M122.422 4.86401C127.078 4.88324 131.991 6.0102 135.817 8.18579L232.705 63.2718C236.48 65.4178 238.463 68.2649 238.548 70.8799C238.338 77.5042 238.68 84.2149 238.542 86.9613C238.437 89.0479 237.106 91.0235 234.501 92.5046L134.021 149.633C131.361 151.145 128.597 151.753 124.043 151.933L122.422 4.86401Z" fill="#C4E0FF"/>
<path d="M110.283 7.25909L13.3959 62.345C6.34481 66.354 6.34481 72.8538 13.3959 76.8627L110.283 131.949C117.334 135.958 128.766 135.958 135.817 131.949L232.704 76.8627C239.755 72.8538 239.755 66.354 232.704 62.345L135.817 7.25909C128.766 3.25014 117.334 3.25015 110.283 7.25909Z" fill="white"/>
</svg>
