<svg width="44" height="52" viewBox="0 0 44 52" fill="none" xmlns="http://www.w3.org/2000/svg">
<path fill-rule="evenodd" clip-rule="evenodd" d="M41.6899 40.9996C38.4695 40.9996 28.9145 42.0477 27.0912 40.3749C24.9161 38.3795 25.4083 33.9997 29.1179 33.9997H42.0209C42.0209 36.7583 41.6899 38.1777 41.6899 40.9996ZM23.8237 37.9995C23.8237 40.0453 25.6499 42.0893 27.1491 42.6495C28.1895 43.0385 29.2967 42.9464 30.6897 43.1087L35.4043 42.9999C36.2168 42.9999 36.6785 43.1889 37.1029 43.1998C38.1875 43.2265 37.3367 42.9999 38.7121 42.9999C40.2859 42.9999 39.4106 49.1623 39.3134 49.9917L2.98079 49.9996C1.1761 49.9996 2.13689 46.28 2.18306 44.2916L2.02198 38.3498C2.01216 37.2383 2.10544 37.6659 2.07695 36.8127C2.05534 36.1485 1.98662 35.4191 1.98073 34.6827C1.96108 31.7935 1.98754 28.8905 1.98754 26.0003C3.023 26.0864 3.1635 26.3339 4.30408 26.3339H39.3743V32.0004H29.1179C25.8346 32.0004 23.8237 35.0232 23.8237 37.9995ZM0.00314271 23.6664L0.295852 29.6071C0.175997 31.0719 0.00606308 32.336 0.000168606 34.3353C-0.00867311 37.5353 0.333172 40.1235 0.333172 43.667C0.333172 45.403 -1.03633 52 1.98754 52H39.0432C40.2575 52 40.6426 51.4834 41.3588 51.0004V43.3335C42.0475 43.0009 44.4347 42.9484 43.9307 39.1071C43.6763 37.1621 43.7834 34.2313 43.3442 32.3329C42.5652 32.1508 42.3667 32.0222 41.3588 32.0004C41.3588 24.8967 42.0327 24.3336 37.7199 24.3336C37.7199 17.0418 38.6483 18.3335 27.4635 18.3335C26.1981 18.3335 27.3427 18.2315 26.4703 18.667V20.0002L35.7345 20.3338V24.3336H3.97309C3.11446 24.3336 1.71055 22.9488 2.28034 21.6264C2.72538 20.5911 3.29909 20.3803 4.94169 20.3091C5.52917 20.2833 6.33479 20.3278 6.94978 20.3318C8.86941 20.3437 13.6066 20.7693 14.0781 19.5083C14.6175 18.0682 12.3815 18.3017 11.2655 18.3195C9.37434 18.3502 4.55365 18.086 3.04565 18.3988C1.01795 18.8195 0.00314271 21.0257 0.00314271 23.6664Z" fill="#FFBB00"/>
<path fill-rule="evenodd" clip-rule="evenodd" d="M20.5153 2.00035V3.33357C17.7852 3.33357 18.5672 3.15245 17.5376 3.66714C17.5798 5.57742 18.0141 5.33402 20.5153 5.33402L20.8455 8.33402H22.4998L22.8309 5.33402C25.3321 5.33402 25.7663 5.57742 25.8086 3.66714C24.889 3.14651 24.4087 3.33357 22.8309 3.33357C22.8309 0.73736 23.1108 0.431547 21.5075 0C20.8375 0.494893 20.5153 0.76609 20.5153 2.00035Z" fill="#FFBB00"/>
<path fill-rule="evenodd" clip-rule="evenodd" d="M7.94282 8.66605V10.6654C5.20876 10.6654 5.45437 10.4328 4.63504 11.6651C5.45437 12.8984 5.20876 12.6658 7.94282 12.6658C7.94282 15.4204 7.71198 15.1729 8.93607 15.9984C10.1592 15.1729 9.92827 15.4204 9.92827 12.6658H12.906C13.4179 10.4536 13.5838 10.6654 9.92827 10.6654V7.66534C8.95961 7.43769 7.94282 7.20215 7.94282 8.66605Z" fill="#FFBB00"/>
<path fill-rule="evenodd" clip-rule="evenodd" d="M18.8111 18.3223C17.6725 18.3332 16.8954 18.1867 17.0359 19.2478C17.1872 20.3939 17.8896 19.909 18.6185 20.5771C19.8298 21.6876 18.4721 21.9133 19.9409 22.1687C20.9861 22.3508 20.8457 21.4996 20.8457 20.3336C22.0168 20.3069 23.2075 20.0307 22.9953 19.0647C22.5188 16.8881 20.8457 20.2841 20.8457 16.3329H19.1923L18.8111 18.3223Z" fill="#FFBB00"/>
<path fill-rule="evenodd" clip-rule="evenodd" d="M26.8005 12.3325C27.9253 14.025 27.6523 12.8383 28.5787 13.541C29.5886 14.3071 28.6956 14.5328 29.7782 15.3325C30.9218 15.0247 30.9846 14.7535 31.1015 13.3321C32.8748 13.2926 32.472 13.1698 33.087 11.9989C32.3266 11.4862 32.4219 11.3625 31.1015 11.3328C30.9846 9.91143 30.9218 9.64023 29.7782 9.33241C28.3812 10.3638 29.7811 10.0589 28.5364 11.0813C27.6345 11.8227 27.89 10.6944 26.8005 12.3325Z" fill="#FFBB00"/>
</svg>
