<svg width="164" height="213" viewBox="0 0 164 213" fill="none" xmlns="http://www.w3.org/2000/svg">
<path fill-rule="evenodd" clip-rule="evenodd" d="M109.982 41.0081L75.6141 21.5378V91.8961L109.982 111.514V41.0081Z" fill="#FEFEFE"/>
<path fill-rule="evenodd" clip-rule="evenodd" d="M133.973 121.75L117.445 112.377C116.396 111.814 115.491 111.153 114.369 110.583C113.825 110.027 113.125 109.838 112.52 109.311L112.516 49.7824C113.293 49.9497 113.203 50.2604 113.913 50.2934L113.91 39.1759L76.4265 17.57C76.269 16.5685 76.3967 14.3219 76.3664 13.026C76.3311 11.5207 76.3087 11.927 76.5768 11.7979C78.4777 12.7363 85.0448 16.7207 87.3186 17.9928C90.7815 19.9297 94.4931 22.2439 98.0841 24.2191C103.359 27.1205 108.942 30.554 114.237 33.5441C115.85 34.4551 117.94 35.8009 119.604 36.5895L119.606 53.732L120.713 54.2625L120.686 28.9167C121.033 29.4058 120.927 29.9423 120.921 30.5601C120.882 34.3567 120.764 53.9645 121.022 54.2744C121.222 54.9404 122.535 55.4383 123.431 55.9763C123.818 55.0208 123.519 34.5624 123.495 30.2857C123.488 29.0119 123.377 28.0236 123.347 26.8711L123.443 27.0617C123.685 27.6847 123.281 26.4141 123.517 27.2677C123.728 28.0336 123.619 55.212 123.627 56.0341L126.153 57.5162C127.441 58.1604 130.999 60.4238 132.326 61.0748L143.309 67.4058C143.708 67.9716 144.239 67.7413 144.34 68.3993L144.416 112.325C144.416 117.376 144.562 122.67 144.4 127.686C143.893 127.521 142.114 126.495 141.683 126.213C139.212 124.596 136.546 123.316 133.973 121.75ZM138.222 118.822C138.683 117.803 138.537 116.444 138.536 115.201C138.535 111.489 138.543 112.179 136.679 110.958C136.23 110.664 135.812 110.478 135.358 110.221C134.304 109.625 133.751 108.876 132.396 109.035C132.021 110.166 132.191 111.521 132.191 112.735C132.191 113.904 131.946 115.347 132.804 116.049C133.608 116.707 135.603 117.61 136.619 118.282C137.323 118.747 137.32 118.72 138.222 118.822ZM128.228 112.392L128.122 111.247C127.014 110.739 123.862 108.573 122.793 108.42L122.799 109.586L125.53 111.138C126.358 111.595 127.776 112.646 128.228 112.392ZM130.57 111.219C130.719 109.394 130.257 109.623 128.987 108.917C128.575 108.688 128.18 108.406 127.792 108.192C127.632 108.105 127.672 108.137 127.524 108.048L127.192 107.823C126.873 107.605 126.966 107.56 126.45 107.585L126.437 108.901C126.832 109.24 129.857 111.073 130.57 111.219ZM119.379 106.413C119.319 107.179 119.184 107.38 119.695 107.815C120.043 108.112 120.313 108.238 120.718 108.162L120.612 106.967L119.379 106.413ZM124.136 106.057C123.422 105.669 122.558 105.105 121.828 104.732C120.983 104.3 120.216 103.585 119.349 103.501C119.349 105.288 118.982 104.641 121.331 106.013C122.407 106.641 123.187 107.219 124.146 107.591L124.136 106.057ZM133.484 98.7655C131.839 97.8453 132.19 100.302 132.191 101.231C132.196 106.219 131.8 104.997 134.767 106.85C138.617 109.254 138.535 109.07 138.536 105.888C138.539 101.097 138.9 102.037 136.008 100.24C135.304 99.802 134.364 99.2573 133.484 98.7655ZM127.799 100.231C126.757 99.7444 122.793 97.36 122.49 97.3425L122.457 98.6069L126.384 100.833C126.902 101.114 127.109 101.403 127.799 101.438V100.231ZM130.235 100.236C130.159 98.1091 130.248 98.9528 128.7 97.9728C128.003 97.5315 127.068 96.7809 126.065 96.6068L126.078 97.9438C126.376 98.2024 129.771 100.215 130.235 100.236ZM120.315 97.2064C120.288 96.4662 120.606 95.7122 118.978 95.4266L119.019 96.5742C119.182 96.7057 119.391 96.8731 119.563 96.9611C120.016 97.1931 119.822 97.1186 120.315 97.2064ZM132.242 88.5665C132.121 89.892 132.194 91.2622 132.191 92.6024C132.185 95.7881 132.333 95.0585 135.818 97.1655C139.078 99.1365 138.522 98.2144 138.536 93.6972C138.547 90.5357 138.069 91.2279 134.844 89.2318C133.98 88.6965 133.162 87.9405 132.242 88.5665ZM120.057 92.9257C119.568 92.6405 119.225 92.3542 118.956 92.5196L119.064 93.972C119.384 94.1736 119.903 94.4303 120.255 94.6266C120.641 94.842 121.01 95.0384 121.405 95.2723C122.114 95.693 123.087 96.293 123.794 96.5957L123.763 95.0676L120.057 92.9257ZM128.094 91.8374C128.171 90.5918 128.298 90.6472 127.325 90.1658C126.334 89.676 123.663 87.8909 122.846 87.6877C122.626 89.3814 122.763 88.8034 124.992 90.183C125.626 90.5755 127.468 91.7647 128.094 91.8374ZM130.567 90.6127C130.624 89.7146 130.818 89.3104 130.111 88.8895C129.675 88.6303 129.279 88.4556 128.875 88.2182C128.271 87.864 127.082 86.9383 126.436 86.8998L126.455 88.3248C127.004 88.71 130.046 90.4919 130.567 90.6127ZM125.801 86.4392C125.518 86.1958 125.362 86.0105 124.795 86.0516L124.822 87.3979C125.152 87.6026 125.424 87.8363 125.8 87.8762L125.801 86.4392ZM124.121 85.405C122.946 84.8432 120.176 82.9756 119.347 82.7485L119.411 84.2576C119.955 84.6364 123.64 86.7803 124.155 86.9178L124.121 85.405ZM135.297 85.4541C135.785 84.7139 135.791 84.5915 135.793 83.4316L135.791 75.8933C135.791 72.445 136.417 69.3714 134.012 67.7343L124.485 62.2006C123.825 61.835 122.047 60.4834 121.14 60.7854C120.141 61.118 120.478 64.1446 120.478 65.2104C120.478 66.8996 120.478 68.5888 120.478 70.2779C120.478 73.6474 119.835 76.8225 122.226 78.5542L131.769 84.0723C132.698 84.6113 133.93 85.6658 135.297 85.4541Z" fill="#D1E6F6"/>
<path fill-rule="evenodd" clip-rule="evenodd" d="M53.7929 67.923C53.6795 69.2403 53.6522 69.0759 54.6057 69.615C55.4489 70.0916 58.625 72.0199 59.1166 72.0206L59.103 70.8258L53.7929 67.923ZM61.5404 70.7619C61.5246 69.913 61.7348 69.5142 61.1214 69.1211C60.6111 68.7942 57.7703 67.1666 57.3677 67.1421L57.3947 68.5161C57.8844 68.8989 60.9591 70.6887 61.5404 70.7619ZM63.306 70.2786C63.1156 71.3337 63.1638 72.6524 63.1769 73.842C63.205 76.405 64.1862 76.1549 65.3812 76.9227L66.5243 77.6836C66.5497 77.6981 66.5828 77.72 66.608 77.7346C66.6334 77.7491 66.6672 77.7701 66.6926 77.7846C66.7497 77.817 66.8316 77.8617 66.9532 77.9256C67.7525 78.3457 68.1624 78.8057 69.0127 78.7444C69.6906 77.8618 69.4247 76.9052 69.4247 74.9345C69.4247 73.4552 69.651 72.9787 69.0747 72.1208C68.8588 71.7993 68.8713 71.7803 68.557 71.575C68.417 71.4837 68.5171 71.5681 68.2972 71.4192C67.4881 70.8706 66.6262 70.5811 65.8475 70.0195C64.9582 69.3782 64.4368 69.5883 64.0101 68.689C63.8562 68.3647 63.8791 68.225 63.6671 67.947C63.4098 67.3884 63.1368 66.7116 62.4297 67.1109C62.0696 67.4594 62.6276 68.5215 62.7207 68.7596C62.8859 69.1816 63.2395 69.8796 63.306 70.2786ZM55.1013 65.6213C54.3792 65.209 50.8269 63.0391 50.3041 63.0843C50.2438 64.0619 50.1415 64.3629 50.8238 64.7689L55.0948 67.1551L55.1013 65.6213ZM58.7441 59.869C58.1191 59.3022 56.9323 58.776 56.1719 58.3487C55.62 58.0384 53.9963 56.9716 53.4413 57.0214C53.4406 58.4461 52.9916 57.9183 55.7384 59.4549C56.4991 59.8804 58.3165 61.0811 58.7901 61.0342L58.7441 59.869ZM61.1783 58.3761C60.5437 58.0155 57.8023 56.2425 57.0692 56.1077C56.9556 57.9006 56.778 57.4048 58.6293 58.4536C59.2738 58.8188 60.5863 59.7424 61.1437 59.7003L61.1783 58.3761ZM63.2094 59.2838C63.1098 60.5508 63.1604 61.8724 63.1583 63.1561C63.1561 64.6168 62.9894 65.215 64.1231 65.9774L66.5978 67.3678C67.791 68.0313 67.7117 68.3543 69.0683 68.4896C69.2096 68.0617 68.9003 68.4253 69.4111 68.1053C69.5312 66.9283 69.467 65.5863 69.469 64.3887C69.4712 63.2258 69.6216 62.0596 68.8464 61.4092C68.3385 60.9831 65.6602 59.63 64.7665 59.047C64.5163 58.8836 64.5063 59.0272 64.3785 58.6867C63.7488 57.8523 63.6362 55.9539 62.3896 56.2679C62.0832 57.4199 63.0043 58.2983 63.2094 59.2838ZM69.4968 52.3362C69.4968 51.1134 67.1536 50.0872 66.2839 49.5967L65.7556 49.3017C65.5843 49.2081 65.468 49.156 65.3041 49.0663C65.0123 48.9063 64.6875 48.6109 64.3076 48.5089C62.8694 48.1223 63.1649 49.2596 63.1649 50.2818C63.1672 51.4531 62.9621 54.5397 63.5432 55.2107L67.938 57.9078C68.233 58.0595 68.5194 58.1728 69.0127 58.1976C69.4292 57.7887 69.4968 57.8331 69.4968 57.1298V52.3362ZM54.7356 54.6644C53.9979 54.151 50.5754 52.1058 49.9636 52.0321L49.9756 53.4521L52.3874 54.8683C53.0368 55.2578 54.1069 55.9217 54.7543 56.1647L54.7356 54.6644ZM59.0602 50.1448C58.3815 49.6527 57.2766 49.1603 56.4776 48.7121C55.7064 48.2793 54.6487 47.6328 53.805 47.2668L53.7406 48.3644C53.7697 48.3905 53.8108 48.4208 53.8327 48.4372L55.2899 49.3681C58.7957 51.2354 59.3277 52.2467 59.0602 50.1448ZM61.5221 48.7107C60.4933 48.3055 58.4051 46.6073 57.4034 46.5406L57.3603 47.8437C58.1134 48.3261 60.6673 49.918 61.533 50.1769L61.5221 48.7107ZM51.5589 45.8991C51.1389 45.683 50.8703 45.4653 50.3132 45.4013V46.4469L51.627 47.1383L51.5589 45.8991ZM55.0934 45.018C54.5271 44.5839 50.5442 42.3245 50.3918 42.3381C49.9088 43.9981 50.7308 44.0816 52.1969 44.9101C52.7692 45.2337 53.1708 45.4287 53.6757 45.754C54.2293 46.1107 54.7154 46.5104 55.1264 46.4921L55.0934 45.018ZM68.3183 32.751C68.3183 31.5404 68.3948 30.8206 67.8053 29.867C66.9994 28.563 65.0245 27.7732 63.7425 27.0779L57.3927 23.413C56.1417 22.7517 53.2551 20.4977 53.2551 22.7528V36.3119C53.2551 38.8865 55.47 39.7543 57.9406 41.0751C59.9115 42.1286 61.7569 43.4648 63.7826 44.4177C65.5379 45.2435 66.5073 46.5825 68.054 46.2178C68.5583 45.2619 68.3183 34.432 68.3183 32.751ZM46.1367 11.0841C46.5901 11.152 51.7889 14.275 52.5435 14.7074C53.1628 15.0622 53.4851 15.2725 54.1033 15.6091C54.6671 15.9162 55.1358 16.2648 55.7341 16.5599L71.8541 25.939C72.2977 26.5792 72.0867 39.9119 72.0867 40.5577C72.0867 55.4663 72.1933 70.5542 72.0869 85.4204C71.081 85.3918 66.7135 82.5682 65.3934 81.8367L55.7744 76.2732C54.9844 75.8862 54.861 75.7507 54.1317 75.4038L53.6504 75.0909C52.2787 74.1605 50.2117 73.1605 48.5579 72.1114L46.1545 70.7092C45.7968 70.3112 45.7771 70.3435 45.2475 70.2406C45.1336 69.1931 45.294 57.2177 45.0673 56.7189C44.3116 55.9034 44.0867 56.9416 44.0867 55.0761C44.923 55.1839 44.3727 55.1197 44.8158 55.2626C45.0443 55.3366 44.6985 55.3555 45.2288 55.3906C45.2285 55.2777 45.179 55.0148 45.0636 54.8558C44.8581 54.5732 45.0246 54.791 44.8348 54.6242C44.7142 54.5181 44.7789 54.9276 44.6315 54.4751C44.6123 54.4158 44.5553 54.429 44.5213 54.4004C45.0724 54.4582 45.3984 54.6192 45.0975 53.7514C44.9228 53.2483 45.1509 53.7512 44.8123 53.3881C44.6522 53.2163 44.8096 53.5493 44.5335 53.0947L45.1381 53.3652C45.2381 52.2859 45.1621 50.5001 45.1121 49.1861C44.6651 48.9013 44.2352 48.7412 43.8128 48.5007V47.4063C44.4774 47.4921 44.2517 47.4458 44.7343 47.6847C44.9174 47.7754 45.0191 47.8715 45.3062 47.9385C45.0433 47.1757 45.3025 46.5757 45.2306 45.7652L45.0197 44.364C45.0259 44.3476 45.0996 44.2887 45.1309 44.2556V42.3381C44.3059 41.7953 44.0935 42.2416 44.0867 40.8322C44.8624 40.8465 44.8416 40.8789 45.4293 41.1823C45.1226 40.6213 45.261 40.7015 45.073 40.1738L45.2256 40.0862C45.0082 39.3781 45.1273 39.4677 44.7408 38.8993C45.1316 38.8599 44.8871 38.9689 45.1099 38.7772C45.1244 38.045 45.1178 37.3159 45.1272 36.5781C45.1393 35.629 45.5158 35.4415 44.7404 34.9714C45.3381 34.9237 45.1365 35.1638 45.2151 34.4162L45.1829 31.7922C45.0147 31.6408 45.4427 31.6255 44.8 31.6463C45.3715 31.445 45.2137 31.5172 45.2023 30.012C45.1921 28.6534 45.4029 24.5446 45.0278 23.9952C45.1571 23.8072 45.0821 23.992 45.1509 23.6875C45.1857 23.5332 45.1838 23.4719 45.1905 23.3121C45.2012 23.0642 45.1771 22.7126 45.1771 22.4494C45.5385 21.6827 45.0296 12.5372 45.3037 10.6626C45.8682 10.8097 45.6428 10.7772 46.1367 11.0841Z" fill="#D1E6F6"/>
<path fill-rule="evenodd" clip-rule="evenodd" d="M150.219 115.201C150.219 112.848 150.158 113.101 148.683 112.224C148.025 111.833 146.561 110.706 145.715 111.114L145.556 114.105C145.575 116.34 145.851 115.939 148.135 117.302C150.591 118.767 150.219 117.861 150.219 115.201ZM145.665 108.489C145.935 109.12 148.484 110.565 149.134 110.843C150.373 111.372 150.231 110.199 150.222 109.312C150.191 106.127 150.597 106.272 148.544 105.11C146.295 103.838 145.54 102.962 145.554 105.612C145.557 106.215 145.482 108.062 145.665 108.489ZM150.107 103.545C150.242 102.577 150.227 101.839 150.219 100.819C150.198 98.2553 150.27 98.8784 147.892 97.4118C145.176 95.7378 145.553 96.8246 145.555 99.3132C145.557 101.777 145.569 101.532 147.869 102.788C148.508 103.136 149.083 103.731 150.107 103.545ZM147.053 81.7822C145.406 80.953 145.725 82.3058 145.727 83.9736L145.759 92.9176C145.857 93.4439 145.995 93.6473 146.331 94.0158C146.881 94.6193 150.007 96.1993 151.08 96.8484L154.53 98.8546C157.016 100.454 156.782 99.3507 156.785 97.1218L156.783 89.8628C156.764 88.5782 156.879 87.7382 156.1 87.0097C155.546 86.4919 152.372 84.8193 151.332 84.2005C150.706 83.8282 149.817 83.23 149.209 83.0277C148.807 82.8941 148.531 82.5736 148.148 82.343L147.053 81.7822ZM144.4 127.686C144.562 122.67 144.416 117.375 144.416 112.324L144.34 68.3991C144.239 67.741 143.708 67.9714 143.309 67.4055C144.011 67.5686 144.047 67.8562 144.625 67.9493C144.691 69.7859 144.246 74.4128 144.712 76.03L148.792 78.2759C149.044 78.4285 148.914 78.3344 149.096 78.4176C149.556 78.6278 149.132 78.3018 149.601 78.7194C150.774 79.7632 150.645 79.0509 151.371 79.8302C151.688 80.1705 151.178 79.8553 151.821 80.1538C152.158 80.3103 152.23 80.3351 152.49 80.4668C152.978 80.7136 152.803 80.6433 153.102 80.8299L159.033 84.2007C159.044 84.2074 159.357 84.4022 159.373 84.4138C159.616 84.5848 159.354 84.3922 159.604 84.5993C160.104 85.0147 161.316 85.4983 161.964 85.9533C161.989 85.9707 162.022 85.9937 162.047 86.0109L162.291 86.1759C162.764 86.4826 162.726 86.3664 163.037 86.7898C163.369 87.2419 162.978 86.7404 163.202 87.0315L163.389 130.067C162.769 129.981 162.368 129.87 161.92 129.526C160.155 128.174 160.856 129.018 159.224 127.989L152.94 124.266C151.589 123.502 152.158 123.709 150.87 123.166C150.487 123.005 148.454 121.631 147.148 121.006C146.83 120.853 147.112 120.99 146.888 120.859L144.583 119.506C144.53 120.152 144.749 127.348 144.4 127.686Z" fill="#E5F1FD"/>
<path fill-rule="evenodd" clip-rule="evenodd" d="M120.685 28.9166L120.713 54.2624L119.606 53.7319L119.604 36.5894C117.94 35.8008 115.85 34.4551 114.236 33.544C108.941 30.554 103.359 27.1204 98.0839 24.219C94.4929 22.2439 90.7813 19.9296 87.3184 17.9927C85.0447 16.7206 78.4776 12.7363 76.5767 11.7978C75.9172 11.4325 76.308 11.7551 76.2408 11.796L76.2695 21.3766C76.1598 21.6267 76.7708 21.7951 75.8923 21.6856C75.1629 21.1388 75.3693 21.3799 75.3656 20.2875L75.3782 5.63288C75.3781 3.90958 75.0495 2.3358 76.38 1.7423C77.7289 1.64474 81.0913 3.92029 82.4044 4.70757L116.363 24.4417C118.779 25.8737 119.625 25.9303 120.685 28.9166Z" fill="#2D4281"/>
<path fill-rule="evenodd" clip-rule="evenodd" d="M40.6475 54.7633C41.0776 53.9985 41.031 50.7656 40.8324 50.2526C40.4987 49.3914 38.6789 48.7054 37.8412 48.1807C37.4084 47.9095 37.2385 47.8243 36.6715 47.8263C36.149 48.7975 36.3535 48.5815 36.3454 50.2819C36.3313 53.201 36.2037 52.3476 38.3728 53.7958L38.5311 53.9071C39.0733 54.2487 40.0427 54.7771 40.6475 54.7633ZM44.8818 46.8786L44.8899 45.8743C44.1121 45.4596 42.3866 44.2628 41.5533 44.1614C41.593 45.4944 41.6037 45.1158 42.8902 45.8624C43.3603 46.1352 44.2761 46.8094 44.8818 46.8786ZM40.7418 47.5427C41.0436 46.8998 40.9465 45.6594 40.944 44.8033C40.9409 43.661 41.0978 43.0536 40.3553 42.5089L37.6825 40.9337C37.1748 40.6594 37.0554 40.5631 36.4163 40.7759C36.2763 41.2793 36.3509 42.8153 36.3487 43.4342C36.3399 45.8061 36.3704 45.3828 38.7725 46.8316C39.4644 47.2488 40.0076 47.7623 40.7418 47.5427ZM36.4034 33.4435L36.3427 37.6835C36.4441 38.6152 37.5102 38.9943 38.6875 39.6568C40.8168 40.8553 41.0233 41.1716 40.9789 37.8186C40.9434 35.1252 41.1998 35.7853 38.5131 34.2053C37.2444 33.4592 37.8171 33.9494 37.0033 32.6792C36.8123 32.1157 36.7287 32.0216 36.1422 32.0445C35.8902 32.5965 36.1876 32.8584 36.4034 33.4435ZM45.1271 36.5782C45.1177 37.3159 45.1243 38.045 45.1098 38.7772C44.887 38.9689 45.1315 38.86 44.7407 38.8993C43.8746 38.586 42.6495 37.5305 41.7779 37.3922L41.8023 38.3666C42.1436 38.6172 44.7637 40.1326 45.0729 40.1738C45.2609 40.7016 45.1225 40.6213 45.4292 41.1823C44.8415 40.879 44.8623 40.8465 44.0866 40.8322C44.0934 42.2417 44.3058 41.7953 45.1308 42.3381V44.2556C45.0995 44.2888 45.0259 44.3476 45.0196 44.364L45.2306 45.7652C45.3024 46.5757 45.0432 47.1758 45.3061 47.9385C45.019 47.8715 44.9174 47.7754 44.7342 47.6847C44.2516 47.4458 44.4773 47.4921 43.8128 47.4063V48.5007C44.2351 48.7412 44.665 48.9013 45.112 49.1862C45.162 50.5002 45.238 52.2859 45.138 53.3652L44.5334 53.0947C43.5921 52.9304 42.6531 51.8768 41.7916 51.7906L41.8339 52.8854C42.3122 53.043 44.2664 54.0925 44.5212 54.4004C44.5552 54.429 44.6122 54.4158 44.6314 54.4752C44.7788 54.9276 44.7141 54.5181 44.8347 54.6242C45.0245 54.791 44.858 54.5733 45.0635 54.8558C45.1789 55.0148 45.2284 55.2777 45.2287 55.3907C44.6984 55.3555 45.0442 55.3366 44.8157 55.2627C44.3726 55.1197 44.9229 55.1839 44.0866 55.0761C44.0866 56.9416 44.3115 55.9034 45.0672 56.7189C45.2939 57.2178 45.1336 69.1931 45.2474 70.2406C45.777 70.3436 45.7967 70.3112 46.1544 70.7093L45.164 70.309L45.091 61.5124L43.1103 60.5501C42.624 60.2757 43.1841 60.5897 42.9397 60.4457L40.2354 58.7985C40.094 58.7205 40.0009 58.6825 39.8575 58.6058C38.7113 57.9931 37.2995 56.8735 36.1644 56.4284L34.5338 55.4626C34.4969 55.4411 34.3851 55.3807 34.3484 55.3583C34.3198 55.3406 34.2852 55.3206 34.2572 55.3026C33.2239 54.6426 32.8716 54.5698 31.9806 54.1167L31.9455 10.497L33.7387 11.4599C34.3666 11.7982 33.0988 11.229 33.9516 11.548C34.212 11.6454 34.1917 11.5754 34.4814 11.7136C34.5067 11.7256 34.54 11.7458 34.5641 11.7593C34.5878 11.7725 34.6192 11.7967 34.6422 11.811L35.2806 12.2636C36.3875 13.0588 35.6605 12.2347 36.9098 13.2169C37.0356 13.3157 37.103 13.3593 37.222 13.445L38.5149 14.2032C38.8978 14.3896 38.9725 14.5125 39.2767 14.6856L43.4575 17.0633C43.8429 17.3595 44.0075 17.3021 44.3598 17.5647C44.7483 17.8545 44.5433 18.0101 45.0953 17.9919C45.0953 16.556 44.9284 11.5075 45.2044 10.4878C45.7795 10.5259 45.8508 10.6232 46.1366 11.0841C45.6428 10.7772 45.8681 10.8097 45.3036 10.6626C45.0295 12.5372 45.4884 35.8114 45.1271 36.5782Z" fill="#E5F1FD"/>
<path fill-rule="evenodd" clip-rule="evenodd" d="M114.369 110.583C113.512 110.358 113.801 110.569 113.016 110.087L110.756 108.785C110.593 108.695 110.386 108.609 110.214 108.485C109.561 108.012 109.957 108.02 109.957 108.017C109.685 108.697 109.738 109.004 109.752 109.722L109.627 111.382L109.697 42.2011C109.693 41.0446 110.073 41.3884 108.255 40.3692L93.1342 31.6417C88.3142 28.8578 82.8477 25.5916 78.1093 22.9752C77.7287 22.7651 77.4555 22.5938 77.0644 22.363L76.2698 21.9456C76.2404 21.9286 76.2053 21.9087 76.1769 21.8909L75.8924 21.6856C76.7709 21.7951 76.1599 21.6268 76.2696 21.3767L76.2409 11.796C76.308 11.7551 75.9172 11.4326 76.5767 11.7978C76.3086 11.9269 76.331 11.5206 76.3664 13.026C76.3966 14.3219 76.2689 16.5685 76.4265 17.5699L113.91 39.1759L113.913 50.2934C113.203 50.2604 113.293 49.9496 112.516 49.7824L112.52 109.311C113.125 109.838 113.825 110.027 114.369 110.583Z" fill="#8196D5"/>
<path fill-rule="evenodd" clip-rule="evenodd" d="M109.627 111.382L109.752 109.722C109.738 109.004 109.685 108.697 109.957 108.017C109.957 108.02 109.561 108.012 110.214 108.485C110.386 108.609 110.593 108.695 110.756 108.785L113.016 110.087C113.801 110.569 113.512 110.358 114.369 110.583C115.491 111.153 116.396 111.814 117.445 112.377L120.635 114.105C120.785 115.679 120.67 117.811 120.669 119.446C120.668 124.872 119.639 123.687 112.066 119.116C110.035 117.889 107.524 116.456 105.307 115.203C96.3487 110.138 87.1943 104.662 78.275 99.4949C74.5429 97.3327 75.4773 94.629 75.3043 91.7107L75.8076 91.7991C76.1418 92.1908 82.8494 95.9189 84.2023 96.7137L92.7169 101.633C98.0248 104.501 104.139 108.325 109.627 111.382Z" fill="#2D4281"/>
<path fill-rule="evenodd" clip-rule="evenodd" d="M83.4302 33.6455C84.8017 33.9635 92.7059 38.8989 94.7427 40.0167C98.3265 41.9834 99.9595 42.5876 99.9511 46.7207L99.9506 58.6364C99.9506 60.2335 100.459 63.3315 98.2458 62.8363C97.6695 62.7073 96.8069 62.1232 96.3169 61.8626C94.5633 60.93 83.9528 54.8151 83.238 54.1364C82.1235 53.0784 81.7883 51.7764 81.7928 49.7342L81.7931 37.8184C81.7931 36.1332 81.3011 33.1518 83.4302 33.6455Z" fill="#8DC1FC"/>
<path fill-rule="evenodd" clip-rule="evenodd" d="M64.356 36.7154C64.612 36.3215 65.0635 34.535 65.2388 33.9359C65.7114 32.3192 65.5396 32.2398 64.325 31.5602C58.1972 28.131 58.4607 27.6429 58.7878 31.0712C58.8865 32.1057 58.7985 33.6012 59.3616 34.1896C59.7119 34.5556 62.1591 35.8238 62.9277 36.236C63.5482 36.5689 63.606 36.7965 64.356 36.7154ZM59.21 36.7033C59.0925 37.3017 58.9544 37.8897 59.2495 38.4172C59.5987 39.0418 59.8553 39.2382 60.58 38.9627C60.6461 38.4205 60.5761 37.9894 60.4516 37.6064C61.1438 37.6993 60.9221 37.7417 61.498 38.0673C61.8284 38.2542 62.1384 38.4118 62.3893 38.5561C61.6372 40.1138 62.9229 40.8718 63.2604 40.844C64.1656 40.7694 63.4211 39.8422 63.6859 39.3135C63.8109 39.0639 64.2572 38.8428 63.7135 38.335C63.3455 37.9911 59.4244 35.907 58.8423 35.6155C58.8043 33.7901 58.4807 31.9575 58.3326 30.1484C58.1747 28.219 58.0906 28.6347 56.9951 26.9686C56.7139 26.541 56.6589 26.3018 56.1384 26.337C55.9435 26.9613 56.7778 27.8456 57.1621 28.4408C57.6969 29.2689 57.6017 30.1499 57.7247 31.3041C57.8392 32.3795 57.9181 33.322 58.0461 34.3656C58.228 35.8489 57.8618 36.2158 59.21 36.7033ZM68.3181 32.7508C68.3181 34.4319 68.5582 45.2617 68.0539 46.2176C66.5072 46.5823 65.5377 45.2433 63.7824 44.4176C61.7567 43.4646 59.9114 42.1284 57.9404 41.0749C55.4699 39.7541 53.255 38.8863 53.255 36.3117V22.7526C53.255 20.4975 56.1415 22.7515 57.3925 23.4128L63.7424 27.0777C65.0244 27.773 66.9992 28.5629 67.8051 29.8668C68.3946 30.8205 68.3181 31.5402 68.3181 32.7508Z" fill="#C7C7FC"/>
<path fill-rule="evenodd" clip-rule="evenodd" d="M133.736 82.5649C133.837 81.7167 132.959 79.2559 132.673 78.3946C132.265 77.1612 131.235 76.1173 130.472 75.2372C129.645 74.2834 128.933 75.6328 126.895 73.4784C126.272 72.8195 126.423 72.4836 125.168 72.4984C123.985 72.5122 123.836 72.5548 123.386 73.4375C121.658 76.8208 122.293 76.1699 126.714 78.872C127.612 79.421 132.936 82.6747 133.736 82.5649ZM127.277 66.2382C125.142 65.6662 125.431 69.0821 125.909 70.5075C126.297 71.6647 127.479 73.6284 128.89 73.7785C131.815 74.0898 131.08 67.2572 127.277 66.2382ZM135.297 85.454C133.93 85.6657 132.698 84.6112 131.769 84.0722L122.226 78.5541C119.835 76.8225 120.478 73.6473 120.478 70.2778C120.478 68.5887 120.478 66.8995 120.478 65.2103C120.478 64.1445 120.141 61.1179 121.14 60.7853C122.047 60.4833 123.825 61.835 124.485 62.2006L134.012 67.7342C136.417 69.3713 135.791 72.445 135.791 75.8932L135.794 83.4316C135.791 84.5915 135.785 84.7138 135.297 85.454Z" fill="#FFBB00"/>
<path fill-rule="evenodd" clip-rule="evenodd" d="M102.378 13.8504C102.182 13.1595 99.3365 11.7374 98.6186 11.3499C96.9785 10.4644 95.2554 8.94444 94.4388 10.2895C94.6936 10.8988 95.6521 11.2443 96.2978 11.6413C96.978 12.0599 97.564 12.3753 98.2071 12.7367C99.2827 13.3412 101.419 15.1023 102.378 13.8504ZM123.248 26.3304C122.654 26.0995 123.068 26.1799 122.827 26.3138C122.991 27.0461 123.105 26.8563 123.143 27.9543C122.873 27.9585 122.53 27.9371 122.276 27.9514C122.098 27.9612 122.076 27.9625 121.905 27.9971L120.931 28.3682C121.356 29.5084 121.009 44.3258 120.992 47.6794C120.984 49.2787 120.802 52.9403 121.022 54.2743C120.764 53.9644 120.882 34.3566 120.921 30.56C120.927 29.9422 121.033 29.4058 120.685 28.9166C119.625 25.9303 118.779 25.8736 116.363 24.4417L82.4044 4.70754C81.0913 3.92026 77.7289 1.64471 76.38 1.74227C76.3624 1.22771 76.5006 1.32794 76.9578 1.10395C77.3107 0.931013 77.4424 0.838024 77.7278 0.671335C79.9356 -0.617127 80.0812 0.0971231 82.5262 1.56209C83.1035 1.90784 83.5236 2.03774 84.0422 2.36955L88.5617 4.99843C89.1951 5.30605 89.5019 5.53975 90.0392 5.8302C90.2269 5.93156 90.5387 6.04049 90.8216 6.17941L96.6253 9.65456C98.1706 10.3494 96.4934 9.30747 97.4485 10.0797L104.571 14.168C105.065 14.4475 105.44 14.7745 105.96 15.1109L114.956 20.2139C115.418 20.5366 116.038 20.7803 116.486 21.0353C117.275 21.4835 120.986 23.5269 121.626 24.1068C122.301 24.7182 122.958 25.3157 123.248 26.3304Z" fill="#E8E7EB"/>
<path fill-rule="evenodd" clip-rule="evenodd" d="M59.5322 103.676C60.374 101.324 57.6102 102.11 57.4585 102.176C56.8417 102.445 55.1884 107.513 55.1959 108.121C55.9316 108.626 56.0646 108.749 57.2006 108.614C58.9236 108.408 62.5969 108.037 63.5727 107.443C63.5545 105.364 60.8293 106.733 58.4888 106.694C58.6125 105.904 59.2408 104.489 59.5322 103.676ZM69.6981 105.905L69.7087 106.254C69.3643 106.37 62.2521 110.537 62.032 110.75C61.2915 110.946 60.2842 111.872 59.7514 111.823C57.5746 112.423 55.86 110.23 54.3342 109.659C53.2452 109.252 53.9932 109.306 53.0401 108.892C51.7101 108.315 51.2846 107.895 50.2071 107.312L49.0168 106.643C48.5849 106.373 49.0757 106.498 48.3007 106.263L48.3596 105.494C48.6742 105.421 52.8532 102.873 53.6331 102.436C54.8738 101.742 58.0109 99.5821 59.2874 99.7394C60.0873 99.8378 65.9664 103.405 67.422 104.225C68.0439 104.575 69.5366 105.218 69.6981 105.905Z" fill="#04F4D1"/>
<path fill-rule="evenodd" clip-rule="evenodd" d="M147.054 81.7823L148.148 82.3431C148.532 82.5737 148.807 82.8941 149.209 83.0278C149.817 83.2301 150.707 83.8282 151.332 84.2005C152.372 84.8193 155.547 86.4919 156.1 87.0097C156.879 87.7382 156.764 88.5782 156.783 89.8628L156.785 97.1218C156.782 99.3508 157.016 100.454 154.531 98.8546L151.08 96.8485C150.007 96.1993 146.881 94.6194 146.331 94.0159C145.995 93.6474 145.858 93.444 145.759 92.9176L145.727 83.9736C145.726 82.3059 145.406 80.9531 147.054 81.7823Z" fill="#D1E6F6"/>
<path fill-rule="evenodd" clip-rule="evenodd" d="M77.7031 116.128C77.7031 114.587 78.0888 113.313 76.1377 113.367C74.3608 113.417 74.7841 114.664 74.7841 116.178C73.4415 116.199 70.3402 115.659 69.8762 116.998C70.1816 118.458 73.4882 117.85 74.7853 117.903C74.7834 119.521 74.5368 120.444 75.7515 120.681C76.6844 120.863 77.1556 120.582 77.6989 120.148L77.687 117.897C79.129 117.858 82.5626 118.456 82.5744 116.861C81.969 115.69 79.0393 116.37 77.7031 116.128ZM87.2343 117.023C86.5766 117.556 80.0795 121.342 79.4149 121.57C76.9009 122.574 77.5037 123.893 73.8427 121.761L66.3586 117.429C66.1397 117.326 66.3572 117.676 66.1571 117.266C66.0804 117.108 66.0484 116.969 66.0041 116.855L65.9338 119.987C65.7153 119.685 65.8313 120.011 65.7898 119.468C65.7747 119.273 65.8001 118.867 65.8001 118.644C65.7998 118.096 65.7808 117.556 65.7848 117.004C65.8967 116.009 67.3323 115.574 68.0898 115.112C68.9166 114.607 69.9143 114.061 70.7766 113.557C76.6379 110.132 76.0163 109.894 79.4138 111.951C80.2999 112.487 81.2726 113 82.1267 113.488C82.9553 113.962 83.9993 114.589 84.8861 115.104C86.2235 115.88 87.1604 116.076 87.2343 117.023Z" fill="#EEDE20"/>
<path fill-rule="evenodd" clip-rule="evenodd" d="M123.248 26.3305L123.347 26.871C123.377 28.0235 123.488 29.0119 123.495 30.2856C123.519 34.5623 123.818 55.0207 123.431 55.9763C122.535 55.4383 121.222 54.9403 121.022 54.2744C120.802 52.9403 120.984 49.2787 120.992 47.6794C121.009 44.3258 121.356 29.5085 120.931 28.3682L121.905 27.9971C122.076 27.9626 122.098 27.9612 122.276 27.9514C122.53 27.9371 122.873 27.9585 123.143 27.9543C123.105 26.8563 122.991 27.0462 122.827 26.3139C123.068 26.1799 122.654 26.0996 123.248 26.3305Z" fill="#CACAD7"/>
<path fill-rule="evenodd" clip-rule="evenodd" d="M133.736 82.5651C132.936 82.6749 127.612 79.4212 126.714 78.8721C122.293 76.17 121.658 76.8209 123.386 73.4377C123.836 72.5549 123.985 72.5123 125.168 72.4985C126.423 72.4838 126.272 72.8196 126.895 73.4786C128.933 75.6329 129.645 74.2836 130.472 75.2373C131.235 76.1175 132.265 77.1613 132.674 78.3947C132.959 79.256 133.837 81.7169 133.736 82.5651Z" fill="#FDFDFD"/>
<path fill-rule="evenodd" clip-rule="evenodd" d="M79.4152 121.57L79.1863 121.798C77.934 122.88 78.1443 122.072 78.2537 123.171C78.4761 125.407 77.9265 124.709 77.751 125.481L78.3216 125.288C77.4196 126.525 76.0084 126.059 74.8379 125.421L68.7388 121.935C68.1218 121.583 66.0311 120.603 65.934 119.987L66.0043 116.855C66.0486 116.969 66.0806 117.108 66.1573 117.266C66.3574 117.676 66.14 117.326 66.3588 117.429L73.8429 121.761C77.5039 123.893 76.9011 122.574 79.4152 121.57Z" fill="#FFBB00"/>
<path fill-rule="evenodd" clip-rule="evenodd" d="M77.7029 116.128C79.0391 116.37 81.9688 115.69 82.5742 116.861C82.5624 118.456 79.1287 117.858 77.6867 117.897L77.6987 120.148C77.1553 120.582 76.6841 120.863 75.7512 120.681C74.5366 120.444 74.7831 119.521 74.785 117.903C73.488 117.85 70.1814 118.458 69.876 116.998C70.34 115.659 73.4412 116.199 74.7839 116.178C74.7839 114.664 74.3605 113.417 76.1375 113.367C78.0886 113.313 77.7029 114.587 77.7029 116.128Z" fill="#FDFDFD"/>
<path fill-rule="evenodd" clip-rule="evenodd" d="M64.356 36.7155C63.6061 36.7965 63.5482 36.569 62.9277 36.236C62.1592 35.8238 59.7119 34.5557 59.3616 34.1896C58.7986 33.6013 58.8865 32.1057 58.7879 31.0713C58.4607 27.643 58.1973 28.1311 64.325 31.5603C65.5397 32.2399 65.7115 32.3193 65.2389 33.936C65.0636 34.535 64.612 36.3216 64.356 36.7155Z" fill="#FDFDFD"/>
<path fill-rule="evenodd" clip-rule="evenodd" d="M105.288 56.7189L103.748 53.344C103.478 52.7914 103.261 52.3254 102.962 51.6839C101.825 49.2396 103.954 49.0757 104.63 49.5859C104.935 49.8159 107.672 55.6709 107.909 56.2961C108.345 57.4478 107.653 58.0136 106.302 59.3574C105.398 60.2566 104.582 61.8356 103.282 61.0678C102.757 60.7576 102.556 59.952 102.897 59.3818C103.174 58.9193 104.776 57.4216 105.288 56.7189Z" fill="#C7C7FC"/>
<path fill-rule="evenodd" clip-rule="evenodd" d="M78.2783 34.5452C79.7469 35.3714 78.0412 36.9058 77.5331 37.4353C75.9947 39.0385 76.1406 38.5986 77.0533 40.5885C77.5719 41.7189 78.0425 42.7153 78.6275 43.9446C79.6627 46.1197 77.6116 46.8 76.7652 45.8151L73.6334 39.2367C73.2882 38.2722 73.671 37.9177 74.1043 37.4307C74.5609 36.9176 74.9199 36.5512 75.3063 36.1671C76.0006 35.4767 76.8631 33.749 78.2783 34.5452Z" fill="#C7C7FC"/>
<path fill-rule="evenodd" clip-rule="evenodd" d="M59.7516 111.823C59.2674 112.389 59.1823 111.936 57.9737 112.615C58.0953 112.95 57.8208 112.6 58.3047 112.914L58.5066 113.848L58.0061 114.122C58.3129 114.351 58.2666 114.381 58.6627 114.49C58.6299 114.519 58.5722 114.505 58.5514 114.56C58.3989 114.962 58.6179 114.444 57.9637 114.822C57.2087 114.583 53.1966 112.124 52.1581 111.541C51.2339 111.022 50.1784 110.412 49.2755 109.904C48.6769 109.568 48.3494 109.508 48.2796 108.655C48.2249 107.986 48.2625 106.945 48.3009 106.263C49.076 106.498 48.5851 106.373 49.0171 106.643L50.2073 107.312C51.2848 107.895 51.7103 108.315 53.0403 108.892C53.9934 109.306 53.2454 109.252 54.3344 109.659C55.8602 110.23 57.5748 112.423 59.7516 111.823Z" fill="#03DFC3"/>
<path fill-rule="evenodd" clip-rule="evenodd" d="M87.2349 117.332C87.251 119.833 87.5686 120.102 86.4448 120.724C85.4402 121.28 78.9962 125.195 78.3213 125.288L77.7506 125.481C77.9261 124.709 78.4758 125.407 78.2534 123.171C78.144 122.072 77.9337 122.88 79.1859 121.799L79.4148 121.57C80.0794 121.342 86.5765 117.556 87.2342 117.023L87.2349 117.332Z" fill="#FFBB00"/>
<path fill-rule="evenodd" clip-rule="evenodd" d="M127.277 66.2383C131.08 67.2572 131.815 74.0898 128.89 73.7785C127.479 73.6284 126.296 71.6647 125.909 70.5075C125.431 69.0821 125.142 65.6663 127.277 66.2383Z" fill="#FDFDFD"/>
<path fill-rule="evenodd" clip-rule="evenodd" d="M137.803 118.105L133.589 115.674C132.632 115.088 132.901 114.421 132.902 113.146C132.904 112.093 132.828 110.786 132.92 109.769C133.279 109.777 136.574 111.667 137.104 112.012C138.05 112.629 137.842 113.409 137.839 114.653C137.838 115.657 137.923 117.168 137.803 118.105Z" fill="#E5F1FD"/>
<path fill-rule="evenodd" clip-rule="evenodd" d="M137.796 107.708L133.535 105.33C132.691 104.746 132.906 103.983 132.902 102.737C132.888 98.4838 131.956 98.7646 137.055 101.659C138.112 102.259 137.842 102.874 137.839 104.244C137.837 105.393 137.903 106.569 137.796 107.708Z" fill="#E5F1FD"/>
<path fill-rule="evenodd" clip-rule="evenodd" d="M137.819 97.3409C137.238 97.201 136.075 96.518 135.546 96.2094C133.876 95.2359 132.988 95.0071 132.917 93.963L132.937 89.1186C133.383 89.0942 136.588 91.0629 137.097 91.3597C137.554 91.6267 137.723 91.7114 137.816 92.3218L137.819 97.3409Z" fill="#E5F1FD"/>
<path fill-rule="evenodd" clip-rule="evenodd" d="M61.4833 113.985L60.845 113.904C60.8446 113.566 60.8464 113.229 60.8499 112.889L60.8162 112.089C60.7595 111.817 60.7918 111.919 60.7015 111.772C61.5605 111.29 61.7842 111.258 62.0322 110.749C62.2523 110.537 69.3645 106.369 69.7089 106.254C69.6897 110.243 70.3776 108.882 66.602 111.155C65.9394 111.554 61.9062 113.968 61.4833 113.985Z" fill="#02AB91"/>
<path fill-rule="evenodd" clip-rule="evenodd" d="M58.4889 106.694C60.8295 106.733 63.5547 105.364 63.5729 107.443C62.5971 108.037 58.9238 108.408 57.2008 108.614C56.0648 108.749 55.9317 108.627 55.1961 108.121C55.1886 107.513 56.8419 102.445 57.4587 102.176C57.6103 102.11 60.3741 101.324 59.5323 103.676C59.241 104.489 58.6127 105.904 58.4889 106.694Z" fill="#FDFDFD"/>
<path fill-rule="evenodd" clip-rule="evenodd" d="M95.8867 69.1948C97.0287 71.4389 97.2481 73.9792 98.9169 73.9679C99.3446 73.3205 100.091 72.4537 100.646 71.778C101.37 70.896 100.871 69.4593 99.4821 69.4051C99.1726 69.8344 98.5825 70.7787 98.1851 70.896C97.8832 70.3115 96.6359 67.3865 96.6051 66.9601C96.6634 66.7332 96.5659 66.8142 96.7497 66.7992C97.4561 67.4973 100.664 68.9035 101.332 69.6032C101.953 70.254 101.686 71.8687 101.688 72.8801L101.706 75.7701C101.684 76.8863 101.533 76.5996 100.688 76.126L97.2841 74.1957C96.4594 73.7299 95.7335 73.4924 95.6343 72.4641C95.5598 71.6929 95.5394 69.7457 95.6257 68.9954C95.7457 69.3153 95.7064 69.0853 95.8867 69.1948Z" fill="#FDFDFD"/>
<path fill-rule="evenodd" clip-rule="evenodd" d="M95.8706 94.4284C96.6173 95.8827 97.533 99.5267 98.7328 99.2297C99.1575 98.9771 100.287 97.4848 100.677 97.0068C101.468 96.0366 100.661 94.7124 99.5101 94.6549C98.8911 95.2556 98.6483 96.0084 98.1849 96.1211C97.8659 95.5675 96.6077 92.5792 96.5699 92.1627L96.3401 91.543C97.1821 91.902 98.0199 92.4715 98.8319 92.9217C99.4964 93.2902 100.712 93.9275 101.225 94.3617C102.344 95.3089 101.339 99.8678 101.779 101.47C99.8407 100.698 99.3218 100.119 97.5097 99.1437C96.776 98.7489 95.8627 98.397 95.6737 97.5962L95.5794 95.0453C95.611 94.2312 95.4585 94.4465 95.8706 94.4284Z" fill="#FDFDFD"/>
<path fill-rule="evenodd" clip-rule="evenodd" d="M98.4592 82.4526C98.0751 82.0963 97.7839 81.4206 97.448 80.8658C97.12 80.3238 96.9605 79.6753 96.01 79.8761C95.7796 81.2662 97.0338 82.0179 97.2578 83.1814L96.0085 83.9736C95.8369 84.9032 96.2438 85.3201 96.8157 85.6541C97.6166 85.5721 97.7174 85.1597 98.5014 85.0018C99.7967 88.3038 101.299 88.0159 100.721 86.5262C100.448 85.8209 99.6243 84.9527 99.5636 84.2544L100.836 83.4955C100.932 80.6233 98.6396 82.3846 98.4592 82.4526ZM101.664 88.9807C101.142 88.9452 97.1153 86.5053 96.4621 86.1017C95.3084 85.3884 95.6213 84.4347 95.6069 82.8781C95.5955 81.644 95.5319 80.0115 95.6364 78.83C96.2086 78.8112 99.8434 81.0547 100.728 81.5723C101.35 81.9363 101.703 82.2904 101.703 83.1519L101.664 88.9807Z" fill="#FDFDFD"/>
<path fill-rule="evenodd" clip-rule="evenodd" d="M101.664 88.9807L101.703 83.152C101.703 82.2904 101.35 81.9363 100.728 81.5724C99.8431 81.0547 96.2084 78.8113 95.6362 78.83C95.5316 80.0115 95.5953 81.6441 95.6066 82.8781C95.621 84.4347 95.3082 85.3885 96.4618 86.1017C97.1151 86.5054 101.141 88.9452 101.664 88.9807ZM95.9949 78.0427C96.4721 78.1539 98.6031 79.4434 99.1102 79.7567C102.903 82.0995 102.436 80.9404 102.436 86.0281C102.436 91.0071 102.602 90.4653 98.1541 87.9769C94.3093 85.8258 94.8533 86.33 94.8533 81.6455C94.8533 79.7433 94.4812 77.6904 95.9949 78.0427Z" fill="#C7C7FC"/>
<path fill-rule="evenodd" clip-rule="evenodd" d="M95.6945 90.3376L95.6429 90.958C96.2319 91.3308 96.1328 91.7973 96.57 92.1627C96.6078 92.5792 97.8661 95.5675 98.1851 96.1211C98.6484 96.0085 98.8912 95.2556 99.5102 94.6549C100.661 94.7124 101.468 96.0367 100.677 97.0068C100.287 97.4848 99.1577 98.9771 98.733 99.2297C97.5331 99.5268 96.6174 95.8827 95.8707 94.4284C95.5776 93.5713 95.6397 93.7296 95.5494 92.7395C95.1405 92.4841 95.2221 92.6808 94.9043 92.2878C94.6995 91.4033 93.3938 89.5322 93.9464 88.6307C94.864 88.1732 95.5576 89.6915 95.6945 90.3376Z" fill="#04F4D1"/>
<path fill-rule="evenodd" clip-rule="evenodd" d="M95.8907 65.4848C95.8396 66.1588 95.8146 66.1629 96.0206 66.4321L96.6048 66.96C96.6356 67.3865 97.8829 70.3114 98.1848 70.896C98.5822 70.7787 99.1723 69.8343 99.4818 69.4051C100.871 69.4592 101.369 70.896 100.645 71.7779C100.091 72.4536 99.3443 73.3205 98.9166 73.9679C97.2478 73.9791 97.0284 71.4389 95.8864 69.1948C95.5922 68.4432 95.5799 68.4552 95.5677 67.5386L94.8807 66.9633C94.6326 65.8553 93.5849 64.6934 93.8672 63.358C95.172 63.0445 95.5309 64.6106 95.8907 65.4848Z" fill="#04F4D1"/>
<path fill-rule="evenodd" clip-rule="evenodd" d="M94.9043 92.2876C95.2222 92.6806 95.1406 92.484 95.5494 92.7393C95.6397 93.7294 95.5776 93.5712 95.8708 94.4282C95.4587 94.4463 95.6112 94.231 95.5795 95.0452L95.6739 97.596C95.8628 98.3969 96.7761 98.7488 97.5099 99.1436C99.3219 100.119 99.8408 100.698 101.779 101.47C101.339 99.8676 102.344 95.3087 101.225 94.3616C100.712 93.9273 99.4965 93.2901 98.832 92.9216C98.0201 92.4714 97.1823 91.9018 96.3403 91.5428L96.5701 92.1625C96.1329 91.7971 96.2319 91.3306 95.643 90.9578L95.6946 90.3374C96.8978 90.7722 97.6333 91.3539 98.7016 91.956C102.655 94.184 102.435 93.7013 102.436 97.2589C102.436 98.1347 102.552 100.968 102.408 101.626C102.019 103.391 98.7597 100.575 96.5959 99.531C95.3801 98.9444 94.8643 98.3877 94.8501 96.715C94.8381 95.26 94.9425 93.7106 94.9043 92.2876Z" fill="#C7C7FC"/>
<path fill-rule="evenodd" clip-rule="evenodd" d="M94.8809 66.9633L95.5678 67.5386C95.5801 68.4553 95.5924 68.4432 95.8866 69.1948C95.7063 69.0853 95.7456 69.3153 95.6256 68.9955C95.5393 69.7457 95.5597 71.6929 95.6342 72.4641C95.7334 73.4924 96.4593 73.7299 97.284 74.1957L100.688 76.1261C101.533 76.5996 101.684 76.8864 101.706 75.7702L101.688 72.8801C101.686 71.8687 101.953 70.2541 101.332 69.6032C100.664 68.9035 97.4559 67.4973 96.7496 66.7992C96.5657 66.8142 96.6633 66.7332 96.605 66.9601L96.0207 66.4321C95.8148 66.163 95.8398 66.1589 95.8908 65.4849L101.667 68.8522C102.714 69.7445 102.436 71.1593 102.436 72.7431C102.436 78.3178 103.382 78.7301 96.1952 74.4568C94.9217 73.6995 94.8589 73.2044 94.8524 71.3736C94.8477 70.0549 94.9955 68.1689 94.8809 66.9633Z" fill="#C7C7FC"/>
<path fill-rule="evenodd" clip-rule="evenodd" d="M98.4591 82.4527C98.6395 82.3847 100.932 80.6234 100.835 83.4957L99.5635 84.2545C99.6242 84.9528 100.448 85.8211 100.721 86.5263C101.299 88.016 99.7967 88.3039 98.5013 85.0019C97.7174 85.1598 97.6166 85.5722 96.8157 85.6543C96.2437 85.3202 95.8368 84.9033 96.0084 83.9738L97.2578 83.1815C97.0338 82.018 95.7795 81.2663 96.0099 79.8762C96.9604 79.6754 97.1199 80.3239 97.448 80.8659C97.7838 81.4207 98.075 82.0964 98.4591 82.4527Z" fill="#EEDE20"/>
<path fill-rule="evenodd" clip-rule="evenodd" d="M123.57 115.748C123.395 120.195 124.291 120.707 122.147 122.007C121.903 122.156 120.746 122.781 120.594 122.836C121.734 121.237 120.328 116.484 121.13 114.255C121.379 114.507 121.456 114.481 121.735 114.654C121.98 114.806 122.099 114.868 122.33 114.994L123.57 115.748Z" fill="#CACAD7"/>
<path fill-rule="evenodd" clip-rule="evenodd" d="M137.819 97.341L137.816 92.3219C137.723 91.7115 137.554 91.6267 137.097 91.3598C136.588 91.063 133.383 89.0943 132.938 89.1187L132.917 93.9631C132.989 95.0072 133.876 95.236 135.546 96.2095C136.076 96.5181 137.238 97.2011 137.819 97.341ZM132.242 88.5665C133.162 87.9404 133.98 88.6965 134.844 89.2318C138.069 91.2278 138.547 90.5356 138.536 93.6971C138.522 98.2143 139.078 99.1364 135.818 97.1655C132.333 95.0584 132.185 95.7881 132.191 92.6024C132.194 91.2622 132.121 89.892 132.242 88.5665Z" fill="#ABCAF3"/>
<path fill-rule="evenodd" clip-rule="evenodd" d="M137.803 118.105C137.923 117.168 137.838 115.657 137.839 114.653C137.842 113.409 138.05 112.629 137.104 112.012C136.574 111.667 133.279 109.777 132.92 109.768C132.829 110.785 132.904 112.093 132.903 113.146C132.901 114.421 132.632 115.088 133.589 115.674L137.803 118.105ZM138.222 118.821C137.32 118.72 137.323 118.747 136.619 118.281C135.603 117.61 133.608 116.707 132.804 116.049C131.946 115.346 132.191 113.904 132.191 112.735C132.191 111.521 132.021 110.165 132.396 109.035C133.751 108.876 134.304 109.624 135.358 110.221C135.812 110.478 136.23 110.664 136.679 110.958C138.543 112.179 138.535 111.489 138.536 115.201C138.537 116.444 138.683 117.803 138.222 118.821Z" fill="#ABCAF3"/>
<path fill-rule="evenodd" clip-rule="evenodd" d="M137.796 107.708C137.903 106.569 137.837 105.393 137.839 104.244C137.842 102.875 138.113 102.26 137.055 101.659C131.956 98.7646 132.888 98.4839 132.902 102.737C132.906 103.983 132.691 104.746 133.535 105.33L137.796 107.708ZM133.484 98.7655C134.364 99.2574 135.305 99.802 136.008 100.24C138.9 102.037 138.539 101.097 138.536 105.888C138.535 109.07 138.617 109.254 134.767 106.85C131.8 104.997 132.196 106.219 132.191 101.231C132.19 100.302 131.839 97.8454 133.484 98.7655Z" fill="#ABCAF3"/>
<path fill-rule="evenodd" clip-rule="evenodd" d="M59.2101 36.7034C57.8619 36.2159 58.2281 35.849 58.0462 34.3657C57.9182 33.3221 57.8393 32.3796 57.7248 31.3043C57.6018 30.15 57.697 29.269 57.1622 28.4409C56.7779 27.8457 55.9436 26.9614 56.1385 26.3372C56.659 26.3019 56.714 26.5411 56.9952 26.9687C58.0907 28.6348 58.1748 28.2191 58.3326 30.1485C58.4808 31.9576 58.8044 33.7902 58.8424 35.6156C59.4245 35.9071 63.3456 37.9912 63.7136 38.3352C64.2573 38.8429 63.811 39.064 63.686 39.3137C63.4212 39.8423 64.1657 40.7695 63.2605 40.8441C62.923 40.8719 61.6373 40.1139 62.3894 38.5563C62.1385 38.4119 61.8285 38.2543 61.4981 38.0675C60.9222 37.7418 61.1439 37.6994 60.4517 37.6065C60.5762 37.9895 60.6462 38.4206 60.5801 38.9628C59.8554 39.2383 59.5988 39.0419 59.2496 38.4173C58.9545 37.8898 59.0926 37.3018 59.2101 36.7034Z" fill="#FDFDFD"/>
<path fill-rule="evenodd" clip-rule="evenodd" d="M64.0183 71.7557C64.3114 72.4166 64.6369 73.1969 64.9261 73.9419C65.9346 76.5405 66.3735 75.9635 67.1591 74.9885C67.4543 74.6221 67.6172 74.4407 67.8923 74.0868C68.5073 73.2953 68.1818 72.2304 67.2322 72.0564C66.5211 72.3198 66.6591 72.7947 65.9996 73.2113L64.7959 70.4837C64.6874 69.8924 64.7298 70.4081 64.9989 70.1875C65.3462 70.6467 68.1705 71.8996 68.5574 72.3729C68.9932 72.9059 68.8547 77.1456 68.7945 78.1344C67.8694 77.843 66.0359 76.639 65.1267 76.0894C64.0251 75.4235 63.6155 75.7382 63.7891 72.4603C63.7979 72.2959 63.794 72.2326 63.8417 72.0776C63.9792 71.6311 63.6545 72.0804 64.0183 71.7557Z" fill="#E5F1FD"/>
<path fill-rule="evenodd" clip-rule="evenodd" d="M68.7987 53.295C68.7987 51.3286 68.6452 51.936 66.7968 50.7201C66.0115 50.2037 64.7761 49.5133 63.9453 49.105C63.8425 49.3052 63.5064 54.4319 64.3008 54.9877L68.7911 57.4544L68.7987 53.295ZM69.4968 52.3362V57.1298C69.4968 57.8331 69.4293 57.7887 69.0127 58.1976C68.5194 58.1729 68.233 58.0596 67.938 57.9078L63.5432 55.2107C62.9621 54.5397 63.1672 51.4531 63.1649 50.2819C63.1649 49.2596 62.8694 48.1224 64.3076 48.5089C64.6875 48.6109 65.0123 48.9063 65.3041 49.0663C65.468 49.1561 65.5843 49.2081 65.7556 49.3017L66.2839 49.5967C67.1536 50.0872 69.4968 51.1134 69.4968 52.3362Z" fill="#C7C7FC"/>
<path fill-rule="evenodd" clip-rule="evenodd" d="M63.2094 59.2838C63.4996 59.5653 63.4285 59.4396 63.8128 59.5986C63.8103 59.8723 63.7887 60.2648 63.8386 60.5261C63.9505 61.1134 63.9388 60.534 64.0956 61.2286C63.7206 61.0399 64.0151 61.0843 63.8089 61.2386C63.9835 64.6163 63.2915 64.66 65.005 65.6707C65.7871 66.1322 68.1419 67.585 68.8194 67.6698C68.6861 65.5867 69.0765 63.3739 68.4817 61.9377C68.0364 61.9921 68.246 61.7881 68.1854 62.185C67.9105 61.7449 68.1353 61.7085 67.7109 61.4351C67.426 61.2517 67.2689 61.2685 66.9905 61.3758C66.848 60.7949 67.2885 61.3029 66.0722 60.6019C65.5853 60.3212 65.5632 60.225 65.0091 60.0356C64.9986 60.6875 65.0097 60.2937 65.1959 60.8263C64.9631 60.46 64.9438 60.152 64.6866 59.8262C64.2472 59.2691 64.2698 59.7306 64.3785 58.6868C64.5063 59.0273 64.5163 58.8837 64.7665 59.047C65.6602 59.63 68.3385 60.9832 68.8465 61.4092C69.6216 62.0597 69.4712 63.2258 69.4691 64.3887C69.467 65.5863 69.5312 66.9283 69.4111 68.1054C68.9003 68.4254 69.2096 68.0618 69.0683 68.4896C67.7117 68.3544 67.791 68.0314 66.5978 67.3678L64.1231 65.9775C62.9894 65.2151 63.1561 64.6169 63.1583 63.1561C63.1604 61.8725 63.1098 60.5509 63.2094 59.2838Z" fill="#C7C7FC"/>
<path fill-rule="evenodd" clip-rule="evenodd" d="M66.1362 52.0224C65.297 51.4106 65.48 49.8828 64.1217 49.9213C63.9532 51.3134 65.0551 51.6114 65.1265 52.7468C64.9423 52.8596 64.7475 52.94 64.6325 53.008C64.0371 53.3609 64.4481 52.9318 64.1709 53.4112C63.9657 54.08 64.3198 54.4054 64.6546 54.7546C65.4845 54.7414 65.4228 54.3818 66.1362 54.2734C66.7975 55.092 66.8804 56.3571 68.0723 56.4354C68.3153 54.9348 67.1861 54.7173 67.0769 53.5403C67.6078 53.2677 67.9679 53.2484 68.086 52.8838C68.1586 52.1295 67.9984 51.9161 67.5059 51.6006C66.6188 51.5824 66.8635 51.9067 66.1362 52.0224ZM68.7985 53.2947L68.7908 57.4541L64.3006 54.9874C63.5061 54.4316 63.8422 49.305 63.945 49.1047C64.7759 49.513 66.0113 50.2034 66.7965 50.7199C68.6449 51.9358 68.7985 51.3283 68.7985 53.2947Z" fill="#E5F1FD"/>
<path fill-rule="evenodd" clip-rule="evenodd" d="M64.3786 58.6864C64.2699 59.7303 64.2473 59.2688 64.6867 59.8258C64.9439 60.1516 64.9632 60.4597 65.196 60.8259C65.3577 61.1214 65.4258 61.4063 65.5366 61.6904L66.0322 62.5099L66.9905 61.3754C67.269 61.2682 67.4261 61.2513 67.7109 61.4347C68.1354 61.7081 67.9106 61.7446 68.1855 62.1846C68.3569 63.4162 66.4114 65.0214 66.4107 65.0216C65.4886 64.8911 65.3105 64.14 64.9942 63.3639C64.72 62.6904 64.4204 61.7824 64.0956 61.2282C63.9389 60.5336 63.9506 61.1131 63.8386 60.5258C63.7888 60.2644 63.8104 59.872 63.8129 59.5982C63.4285 59.4393 63.4997 59.5649 63.2094 59.2835C63.0044 58.298 62.0833 57.4196 62.3897 56.2676C63.6363 55.9536 63.7489 57.852 64.3786 58.6864Z" fill="#71E6D5"/>
<path fill-rule="evenodd" clip-rule="evenodd" d="M63.667 67.9468C64.0276 68.7793 63.9066 68.8775 64.0108 69.73C64.2861 69.9347 64.2021 69.8246 64.4352 70.0702C64.6484 70.2946 64.5328 70.264 64.7959 70.4836L65.9997 73.2113C66.6592 72.7946 66.5211 72.3198 67.2323 72.0564C68.1819 72.2303 68.5073 73.2952 67.8923 74.0868C67.6173 74.4407 67.4544 74.6221 67.1591 74.9884C66.3735 75.9635 65.9347 76.5405 64.9262 73.9418C64.6369 73.1969 64.3115 72.4165 64.0184 71.7557L63.8281 70.3663L63.306 70.2785C63.2394 69.8794 62.8859 69.1814 62.7206 68.7594C62.6275 68.5213 62.0696 67.4593 62.4296 67.1107C63.1367 66.7114 63.4098 67.3882 63.667 67.9468Z" fill="#71E6D5"/>
<path fill-rule="evenodd" clip-rule="evenodd" d="M63.306 70.2784L63.8282 70.3663L64.0184 71.7556C63.6546 72.0803 63.9793 71.631 63.8418 72.0775C63.7941 72.2325 63.798 72.2958 63.7892 72.4602C63.6156 75.7381 64.0252 75.4235 65.1268 76.0893C66.0359 76.6389 67.8695 77.8429 68.7946 78.1343C68.8548 77.1455 68.9933 72.9058 68.5574 72.3728C68.1706 71.8995 65.3463 70.6466 64.999 70.1874C64.7299 70.408 64.6875 69.8923 64.796 70.4836C64.5328 70.2639 64.6485 70.2946 64.4353 70.0701C64.2021 69.8245 64.2861 69.9347 64.0108 69.73C63.9067 68.8775 64.0276 68.7792 63.6671 67.9468C63.8791 68.2247 63.8562 68.3645 64.0101 68.6888C64.4368 69.588 64.9582 69.378 65.8475 70.0193C66.6262 70.5809 67.4881 70.8703 68.2972 71.4189C68.5171 71.5679 68.417 71.4835 68.557 71.5748C68.8713 71.7801 68.8588 71.799 69.0747 72.1206C69.651 72.9784 69.4247 73.455 69.4247 74.9343C69.4247 76.9049 69.6906 77.8616 69.0127 78.7442C68.1624 78.8055 67.7526 78.3455 66.9532 77.9253C66.8316 77.8615 66.7497 77.8167 66.6927 77.7844C66.6672 77.7699 66.6335 77.7488 66.608 77.7343C66.5828 77.7197 66.5497 77.6979 66.5243 77.6834L65.3812 76.9224C64.1862 76.1547 63.205 76.4047 63.1769 73.8418C63.1638 72.6522 63.1156 71.3335 63.306 70.2784Z" fill="#C7C7FC"/>
<path fill-rule="evenodd" clip-rule="evenodd" d="M64.0955 61.2284C64.4203 61.7825 64.7199 62.6906 64.9941 63.364C65.3104 64.1402 65.4884 64.8913 66.4105 65.0218C66.4113 65.0215 68.3568 63.4164 68.1853 62.1848C68.246 61.7879 68.0364 61.9919 68.4817 61.9375C69.0764 63.3737 68.6861 65.5865 68.8193 67.6696C68.1419 67.5849 65.787 66.1321 65.005 65.6706C63.2915 64.6598 63.9835 64.6161 63.8088 61.2384C64.015 61.0841 63.7205 61.0397 64.0955 61.2284Z" fill="#E5F1FD"/>
<path fill-rule="evenodd" clip-rule="evenodd" d="M36.4036 33.4435C36.8225 33.9826 36.3947 33.4777 36.9005 33.7489C37.0091 34.2204 36.9664 34.4084 37.0859 34.811C37.1817 35.1333 37.2726 35.2047 37.3567 35.6222C37.1144 34.9908 37.3926 35.5674 37.0238 35.2899L37.0374 37.8811C37.9321 38.2119 39.3364 39.4401 40.247 39.595L40.1033 36.6715C40.3102 34.4628 38.6081 36.3335 38.6076 36.3341C38.5848 36.3059 38.5603 36.2638 38.5474 36.2433C38.5351 36.223 38.5039 36.1784 38.4891 36.1533C38.4745 36.1286 38.4499 36.0905 38.4344 36.0629C38.4143 36.0275 38.358 35.9164 38.3393 35.8791C38.2862 35.7722 38.1825 35.5273 38.1383 35.423C37.9999 35.0972 37.9253 34.8681 37.7089 34.6035C36.9187 33.6377 37.7236 34.6743 37.0034 32.6792C37.8172 33.9494 37.2446 33.4592 38.5132 34.2053C41.1999 35.7853 40.9435 35.1252 40.9791 37.8186C41.0234 41.1716 40.817 40.8553 38.6876 39.6568C37.5103 38.9943 36.4442 38.6152 36.3428 37.6835L36.4036 33.4435Z" fill="#C7C7FC"/>
<path fill-rule="evenodd" clip-rule="evenodd" d="M66.1362 52.0224C66.8635 51.9067 66.6188 51.5825 67.5059 51.6006C67.9983 51.9162 68.1586 52.1296 68.086 52.8839C67.9679 53.2485 67.6078 53.2677 67.0769 53.5404C67.1861 54.7173 68.3153 54.9349 68.0723 56.4354C66.8804 56.3571 66.7975 55.0921 66.1362 54.2734C65.4228 54.3818 65.4845 54.7414 64.6545 54.7547C64.3198 54.4055 63.9657 54.08 64.1709 53.4112C64.4481 52.9318 64.0371 53.361 64.6325 53.0081C64.7475 52.94 64.9423 52.8597 65.1265 52.7468C65.055 51.6114 63.9532 51.3134 64.1217 49.9214C65.48 49.8828 65.297 51.4106 66.1362 52.0224Z" fill="#EEDE20"/>
<path fill-rule="evenodd" clip-rule="evenodd" d="M149.498 100.683C149.498 98.5678 149.462 99.1865 147.335 97.9632C146.909 97.7179 146.753 97.5231 146.313 97.3897C146.29 98.9005 146.01 100.767 146.733 101.303C147.016 101.512 149.318 102.773 149.508 102.796L149.498 100.683ZM150.106 103.545C149.082 103.731 148.507 103.136 147.869 102.788C145.569 101.532 145.557 101.777 145.555 99.3132C145.553 96.8247 145.176 95.7378 147.891 97.4118C150.27 98.8784 150.198 98.2553 150.219 100.82C150.227 101.839 150.242 102.577 150.106 103.545Z" fill="#ABCAF3"/>
<path fill-rule="evenodd" clip-rule="evenodd" d="M149.495 110.101C149.517 109.38 149.494 108.662 149.499 107.94C149.506 107.036 149.653 106.647 149.068 106.24C148.878 106.108 146.493 104.747 146.333 104.707C146.241 105.317 146.29 106.199 146.287 106.847C146.283 107.629 146.118 108.181 146.695 108.61C147.17 108.964 149.077 110.079 149.495 110.101ZM145.665 108.49C145.482 108.062 145.557 106.215 145.554 105.612C145.54 102.963 146.295 103.838 148.544 105.111C150.597 106.273 150.191 106.127 150.223 109.312C150.231 110.199 150.373 111.372 149.135 110.843C148.484 110.565 145.935 109.12 145.665 108.49Z" fill="#ABCAF3"/>
<path fill-rule="evenodd" clip-rule="evenodd" d="M149.498 114.927C149.498 113.231 149.546 113.611 148.318 112.867C147.942 112.639 146.776 111.893 146.303 111.802C146.241 112.514 146.291 113.251 146.287 113.969C146.283 114.757 146.111 115.26 146.734 115.679C147.164 115.967 149.005 117.045 149.514 117.096L149.498 114.927ZM150.219 115.201C150.219 117.861 150.591 118.767 148.135 117.302C145.851 115.94 145.576 116.34 145.556 114.105L145.715 111.115C146.561 110.706 148.025 111.833 148.683 112.225C150.158 113.101 150.219 112.849 150.219 115.201Z" fill="#ABCAF3"/>
<path fill-rule="evenodd" clip-rule="evenodd" d="M86.66 43.0231C87.4023 42.2171 88.7604 41.1585 89.279 43.5557C89.6622 45.3282 88.6571 45.8041 88.0698 46.5752C88.4218 49.0028 89.4012 51.0392 90.4839 51.9043C91.547 51.7691 92.7884 50.5709 93.5162 52.5301C94.1275 54.1749 93.07 55.0641 92.2136 55.4212C88.8678 56.8166 84.0281 45.8821 86.66 43.0231Z" fill="#FDFDFD"/>
<path fill-rule="evenodd" clip-rule="evenodd" d="M149.495 110.101C149.077 110.079 147.17 108.964 146.695 108.61C146.118 108.181 146.283 107.629 146.287 106.847C146.29 106.198 146.241 105.317 146.333 104.707C146.493 104.747 148.878 106.108 149.067 106.24C149.653 106.647 149.506 107.036 149.499 107.94C149.493 108.661 149.516 109.38 149.495 110.101Z" fill="#E5F1FD"/>
<path fill-rule="evenodd" clip-rule="evenodd" d="M149.498 114.927L149.514 117.096C149.006 117.045 147.164 115.967 146.734 115.679C146.111 115.26 146.283 114.757 146.287 113.97C146.291 113.251 146.241 112.514 146.303 111.802C146.777 111.893 147.942 112.639 148.318 112.867C149.547 113.611 149.498 113.231 149.498 114.927Z" fill="#E5F1FD"/>
<path fill-rule="evenodd" clip-rule="evenodd" d="M149.498 100.683L149.508 102.796C149.319 102.774 147.016 101.513 146.733 101.303C146.01 100.767 146.291 98.9007 146.313 97.3899C146.753 97.5232 146.909 97.718 147.335 97.9633C149.462 99.1867 149.498 98.568 149.498 100.683Z" fill="#E5F1FD"/>
<path fill-rule="evenodd" clip-rule="evenodd" d="M102.379 13.8504C101.42 15.1023 99.2829 13.3412 98.2073 12.7367C97.5642 12.3753 96.9783 12.0599 96.298 11.6413C95.6524 11.2443 94.6938 10.8988 94.4391 10.2895C95.2557 8.94443 96.9787 10.4644 98.6189 11.3499C99.3368 11.7374 102.182 13.1595 102.379 13.8504Z" fill="#2D4281"/>
<path fill-rule="evenodd" clip-rule="evenodd" d="M84.7897 63.0407C84.0484 63.0163 82.8484 62.1189 81.8376 61.5491C81.1545 61.1639 79.5265 60.2981 79.0371 59.8689L78.9857 58.0754C79.9321 58.1975 83.181 60.5609 84.3541 60.9206C84.9658 61.1082 84.7897 62.1678 84.7897 63.0407Z" fill="#C7C7FC"/>
<path fill-rule="evenodd" clip-rule="evenodd" d="M84.7304 88.0577C84.4454 87.963 83.5929 87.4315 83.2747 87.2495C82.6712 86.9045 82.4368 86.7896 81.891 86.439C80.9164 85.8126 79.9219 85.4115 78.9911 84.7959L78.9774 82.9502C79.5063 83.0548 84.1473 85.6951 84.7943 86.1656L84.7304 88.0577Z" fill="#C7C7FC"/>
<path fill-rule="evenodd" clip-rule="evenodd" d="M84.3373 74.8083L78.5753 71.5376L78.5977 69.6289C79.1835 69.7569 81.433 71.2127 82.0868 71.5818C82.6587 71.9043 83.1592 72.2385 83.8489 72.5671C84.5308 72.8919 84.4955 73.4075 84.3373 74.8083Z" fill="#C7C7FC"/>
<path fill-rule="evenodd" clip-rule="evenodd" d="M89.2335 79.2154L89.2374 80.662C88.5701 80.694 87.9952 80.1252 87.3232 79.7701C86.6263 79.402 86.0353 79.065 85.4592 78.7425C82.2715 76.9579 82.6379 77.3491 82.7426 75.6455C83.2936 75.6596 85.3009 76.9284 86.0487 77.3406C87.1631 77.9545 88.3369 78.6294 89.2335 79.2154Z" fill="#C7C7FC"/>
<path fill-rule="evenodd" clip-rule="evenodd" d="M89.5809 67.5387L89.6085 69.0873C88.9938 68.9758 83.815 66.0098 83.1491 65.4844L83.1344 64.1209C83.7635 64.0705 88.0354 66.5465 89.1729 67.2305L89.5809 67.5387Z" fill="#C7C7FC"/>
<path fill-rule="evenodd" clip-rule="evenodd" d="M40.2897 53.9291C40.3074 52.7558 40.6478 50.6169 39.8107 50.0387C39.3368 49.7116 37.4942 48.6366 36.9707 48.6307L36.9804 51.769C36.9359 52.0288 36.947 51.956 36.8612 52.0912C37.6163 52.542 39.4673 53.8225 40.2897 53.9291ZM40.6476 54.7631C40.0428 54.777 39.0735 54.2486 38.5313 53.9069L38.3729 53.7957C36.2039 52.3474 36.3314 53.2008 36.3456 50.2817C36.3536 48.5814 36.1491 48.7973 36.6716 47.8262C37.2387 47.8242 37.4085 47.9094 37.8413 48.1805C38.679 48.7053 40.4988 49.3913 40.8326 50.2525C41.0311 50.7655 41.0777 53.9984 40.6476 54.7631Z" fill="#C7C7FC"/>
<path fill-rule="evenodd" clip-rule="evenodd" d="M39.5674 42.8789C39.367 42.5193 38.7202 42.2434 38.3607 42.0289C37.4479 41.4835 37.6426 41.4231 37.0047 41.4024C37.0035 42.0318 37.0215 42.6581 36.9987 43.2969C36.9861 43.6545 36.8963 44.6424 37.076 44.9578C37.226 45.2211 39.8278 46.7432 40.2641 46.8646C40.3316 45.828 40.4501 43.9015 40.1985 43.0733L39.5674 42.8789ZM40.7418 47.5426C40.0076 47.7623 39.4643 47.2487 38.7725 46.8315C36.3704 45.3827 36.3398 45.8061 36.3487 43.4342C36.3509 42.8152 36.2763 41.2793 36.4162 40.7759C37.0553 40.563 37.1747 40.6593 37.6825 40.9336L40.3553 42.5089C41.0978 43.0535 40.9409 43.661 40.944 44.8032C40.9465 45.6593 41.0436 46.8997 40.7418 47.5426Z" fill="#C7C7FC"/>
<path fill-rule="evenodd" clip-rule="evenodd" d="M89.6497 93.9315C89.0243 93.9697 87.0406 92.6368 86.3701 92.2336L83.1071 90.4099L83.1905 88.8254L89.6497 92.4918V93.9315Z" fill="#C7C7FC"/>
<path fill-rule="evenodd" clip-rule="evenodd" d="M92.5244 92.4301C91.9206 92.4249 88.4364 90.1633 87.5074 89.7151L87.5449 87.8352C88.1841 88.0186 89.477 88.8601 90.0518 89.2173C92.4419 90.7022 92.7921 90.1284 92.5244 92.4301Z" fill="#C7C7FC"/>
<path fill-rule="evenodd" clip-rule="evenodd" d="M92.5316 65.758L92.553 67.5647C91.9444 67.4819 88.0827 65.1897 87.5463 64.7758L87.4991 63.0391C88.1641 63.0432 89.0794 63.7652 90.0346 64.3156C90.7697 64.739 91.8659 65.3134 92.5316 65.758Z" fill="#C7C7FC"/>
<path fill-rule="evenodd" clip-rule="evenodd" d="M92.1149 77.3997L92.1597 79.1798C91.5932 79.1188 87.8587 76.8946 87.1169 76.418L87.1 74.5637C87.4655 74.6095 91.7248 77.1371 92.1149 77.3997Z" fill="#C7C7FC"/>
<path fill-rule="evenodd" clip-rule="evenodd" d="M61.4833 113.985C60.941 114.629 58.9623 115.741 57.9637 114.822C58.6178 114.444 58.3989 114.962 58.5514 114.56C58.5721 114.505 58.6299 114.519 58.6627 114.49C58.2665 114.381 58.3129 114.351 58.0061 114.122L58.5066 113.848L58.3046 112.914C57.8207 112.6 58.0952 112.95 57.9736 112.615C59.1822 111.936 59.2673 112.389 59.7515 111.823C60.2844 111.872 61.2917 110.946 62.0322 110.75C61.7843 111.258 61.5605 111.29 60.7015 111.772C60.7918 111.919 60.7595 111.817 60.8162 112.089L60.8499 112.889C60.8465 113.229 60.8447 113.566 60.845 113.904L61.4833 113.985Z" fill="#03C5A6"/>
<path fill-rule="evenodd" clip-rule="evenodd" d="M55.0932 45.0179L55.1262 46.492C54.7152 46.5103 54.2291 46.1106 53.6755 45.7539C53.1707 45.4285 52.7691 45.2335 52.1967 44.91C50.7307 44.0814 49.9087 43.9979 50.3917 42.338C50.544 42.3243 54.5269 44.5837 55.0932 45.0179Z" fill="#ABCAF3"/>
<path fill-rule="evenodd" clip-rule="evenodd" d="M54.7353 54.6643L54.754 56.1645C54.1067 55.9216 53.0365 55.2577 52.3872 54.8681L49.9754 53.452L49.9633 52.032C50.5751 52.1057 53.9976 54.1509 54.7353 54.6643Z" fill="#ABCAF3"/>
<path fill-rule="evenodd" clip-rule="evenodd" d="M124.136 106.057L124.146 107.591C123.187 107.219 122.407 106.641 121.331 106.013C118.982 104.641 119.35 105.288 119.35 103.501C120.216 103.585 120.983 104.3 121.828 104.732C122.558 105.105 123.423 105.669 124.136 106.057Z" fill="#ABCAF3"/>
<path fill-rule="evenodd" clip-rule="evenodd" d="M124.121 85.4048L124.155 86.9176C123.64 86.7801 119.955 84.6362 119.411 84.2574L119.347 82.7483C120.176 82.9754 122.946 84.843 124.121 85.4048Z" fill="#ABCAF3"/>
<path fill-rule="evenodd" clip-rule="evenodd" d="M123.764 95.0674L123.794 96.5955C123.087 96.2928 122.114 95.6928 121.405 95.2721C121.01 95.0382 120.641 94.8418 120.255 94.6264C119.903 94.4301 119.384 94.1734 119.064 93.9718L118.956 92.5194C119.225 92.354 119.568 92.6403 120.057 92.9255L123.764 95.0674Z" fill="#ABCAF3"/>
<path fill-rule="evenodd" clip-rule="evenodd" d="M55.1013 65.6212L55.0949 67.155L50.8238 64.7688C50.1416 64.3628 50.2438 64.0618 50.3041 63.0842C50.827 63.039 54.3793 65.2089 55.1013 65.6212Z" fill="#ABCAF3"/>
<path fill-rule="evenodd" clip-rule="evenodd" d="M128.094 91.8374C127.468 91.7648 125.626 90.5755 124.992 90.1831C122.763 88.8034 122.626 89.3814 122.846 87.6877C123.663 87.8909 126.334 89.6761 127.325 90.1659C128.298 90.6472 128.171 90.5918 128.094 91.8374Z" fill="#ABCAF3"/>
<path fill-rule="evenodd" clip-rule="evenodd" d="M58.7439 59.8689L58.7898 61.034C58.3163 61.0809 56.4989 59.8802 55.7381 59.4548C52.9914 57.9181 53.4404 58.4459 53.441 57.0212C53.9961 56.9714 55.6197 58.0382 56.1716 58.3485C56.932 58.7759 58.1188 59.302 58.7439 59.8689Z" fill="#ABCAF3"/>
<path fill-rule="evenodd" clip-rule="evenodd" d="M128.228 112.392C127.776 112.646 126.358 111.595 125.53 111.138L122.799 109.586L122.793 108.42C123.862 108.573 127.014 110.739 128.122 111.247L128.228 112.392Z" fill="#ABCAF3"/>
<path fill-rule="evenodd" clip-rule="evenodd" d="M127.799 100.231V101.438C127.109 101.402 126.902 101.114 126.384 100.833L122.457 98.6067L122.49 97.3423C122.793 97.3598 126.757 99.7442 127.799 100.231Z" fill="#ABCAF3"/>
<path fill-rule="evenodd" clip-rule="evenodd" d="M59.06 50.1448C59.3275 52.2468 58.7955 51.2354 55.2897 49.3681L53.8325 48.4372C53.8106 48.4208 53.7695 48.3905 53.7404 48.3644L53.8048 47.2668C54.6485 47.6328 55.7062 48.2794 56.4774 48.7121C57.2764 49.1603 58.3813 49.6527 59.06 50.1448Z" fill="#ABCAF3"/>
<path fill-rule="evenodd" clip-rule="evenodd" d="M59.103 70.8258L59.1166 72.0206C58.625 72.02 55.4489 70.0916 54.6056 69.6151C53.6521 69.076 53.6794 69.2403 53.7928 67.9231L59.103 70.8258Z" fill="#ABCAF3"/>
<path fill-rule="evenodd" clip-rule="evenodd" d="M37.0033 32.6791C37.7235 34.6742 36.9186 33.6376 37.7088 34.6034C37.9252 34.868 37.9998 35.0971 38.1382 35.4229C38.1824 35.5272 38.2861 35.7721 38.3392 35.879C38.3579 35.9163 38.4142 36.0274 38.4343 36.0628C38.4498 36.0904 38.4744 36.1285 38.489 36.1532C38.5038 36.1783 38.5349 36.2229 38.5473 36.2432C38.5601 36.2637 38.5847 36.3058 38.6075 36.334C38.608 36.3334 40.3101 34.4627 40.1032 36.6714C39.8518 36.9891 39.1665 37.9354 38.8816 38.0961C38.2627 37.9454 38.2936 37.7668 37.9886 37.0696C37.7726 36.5756 37.6125 36.0977 37.3566 35.6221C37.2725 35.2046 37.1816 35.1331 37.0858 34.8109C36.9663 34.4083 37.009 34.2203 36.9004 33.7488C36.3946 33.4776 36.8223 33.9825 36.4034 33.4434C36.1876 32.8583 35.8902 32.5964 36.1422 32.0443C36.7287 32.0215 36.8123 32.1156 37.0033 32.6791Z" fill="#71E6D5"/>
<path fill-rule="evenodd" clip-rule="evenodd" d="M39.5673 42.8789C38.7915 42.9768 39.0898 43.1222 38.4706 43.2434C38.0013 42.6453 37.9177 41.6471 37.1905 41.8803L37.3631 42.7566C37.5095 43.0314 37.6322 43.2416 37.7577 43.5706C37.3816 44.3547 36.6803 43.8176 37.3878 45.0791C37.9271 45.1034 38.0694 44.9376 38.4706 44.8194C38.989 45.3948 39.0783 46.1307 39.8043 46.2419C40.0707 45.4407 39.3616 45.0877 39.1908 44.3924C39.7785 43.718 40.3158 44.0721 39.5673 42.8789ZM39.5673 42.8789L40.1985 43.0732C40.45 43.9014 40.3315 45.828 40.264 46.8646C39.8278 46.7432 37.226 45.2211 37.0759 44.9578C36.8963 44.6423 36.986 43.6545 36.9986 43.2969C37.0215 42.6581 37.0034 42.0317 37.0047 41.4023C37.6425 41.4231 37.4478 41.4835 38.3607 42.0288C38.7201 42.2434 39.3669 42.5193 39.5673 42.8789Z" fill="#E5F1FD"/>
<path fill-rule="evenodd" clip-rule="evenodd" d="M61.1781 58.3761L61.1434 59.7003C60.5861 59.7424 59.2736 58.8188 58.6291 58.4536C56.7778 57.4048 56.9554 57.9005 57.069 56.1077C57.8021 56.2425 60.5435 58.0155 61.1781 58.3761Z" fill="#ABCAF3"/>
<path fill-rule="evenodd" clip-rule="evenodd" d="M130.567 90.6126C130.046 90.4918 127.004 88.7099 126.455 88.3247L126.436 86.8997C127.082 86.9382 128.271 87.8639 128.875 88.2181C129.279 88.4555 129.675 88.6302 130.111 88.8894C130.818 89.3103 130.624 89.7145 130.567 90.6126Z" fill="#ABCAF3"/>
<path fill-rule="evenodd" clip-rule="evenodd" d="M61.522 48.7106L61.533 50.1768C60.6673 49.9179 58.1133 48.3259 57.3603 47.8436L57.4033 46.5405C58.405 46.6072 60.4932 48.3054 61.522 48.7106Z" fill="#ABCAF3"/>
<path fill-rule="evenodd" clip-rule="evenodd" d="M61.5402 70.7618C60.959 70.6887 57.8842 68.8988 57.3945 68.5161L57.3675 67.1421C57.7701 67.1666 60.611 68.7941 61.1212 69.1211C61.7346 69.5142 61.5245 69.913 61.5402 70.7618Z" fill="#ABCAF3"/>
<path fill-rule="evenodd" clip-rule="evenodd" d="M130.236 100.235C129.771 100.215 126.376 98.2022 126.078 97.9437L126.065 96.6067C127.068 96.7807 128.004 97.5313 128.7 97.9726C130.248 98.9527 130.159 98.109 130.236 100.235Z" fill="#ABCAF3"/>
<path fill-rule="evenodd" clip-rule="evenodd" d="M130.57 111.219C129.857 111.073 126.832 109.24 126.437 108.9L126.449 107.585C126.966 107.559 126.873 107.605 127.191 107.823L127.523 108.048C127.672 108.136 127.631 108.104 127.791 108.192C128.18 108.406 128.574 108.688 128.987 108.917C130.257 109.623 130.719 109.394 130.57 111.219Z" fill="#ABCAF3"/>
<path fill-rule="evenodd" clip-rule="evenodd" d="M38.4707 50.4203C37.9312 49.7349 38.0061 49.1486 37.2379 48.9897C37.1267 49.1898 37.0323 48.9479 37.1364 49.5394L37.8326 50.8296L37.2627 51.2818C36.9745 51.619 37.0304 51.4866 37.1201 52.0542C38.2123 52.7174 37.5713 52.097 38.6075 52.129C39.1306 53.14 39.1452 53.3277 39.7033 53.4917C39.846 53.2904 39.9361 53.613 39.8439 52.9186C39.8015 52.5993 39.3753 52.2028 39.1908 51.6513C39.5522 51.2695 40.1586 51.2395 39.7943 50.4805C39.4643 49.793 38.9806 50.3671 38.4707 50.4203ZM40.2895 53.9291C39.4671 53.8225 37.6161 52.5419 36.8611 52.0912C36.9468 51.9559 36.9358 52.0287 36.9803 51.7689L36.9706 48.6306C37.4941 48.6365 39.3367 49.7116 39.8105 50.0386C40.6476 50.6168 40.3072 52.7558 40.2895 53.9291Z" fill="#E5F1FD"/>
<path fill-rule="evenodd" clip-rule="evenodd" d="M38.4709 50.4203C38.9808 50.3671 39.4645 49.793 39.7946 50.4805C40.1588 51.2395 39.5524 51.2695 39.191 51.6513C39.3755 52.2028 39.8017 52.5993 39.8441 52.9186C39.9363 53.613 39.8462 53.2904 39.7035 53.4917C39.1454 53.3277 39.1308 53.14 38.6077 52.129C37.5715 52.097 38.2125 52.7174 37.1203 52.0542C37.0306 51.4866 36.9747 51.619 37.2629 51.2818L37.8328 50.8296L37.1366 49.5394C37.0325 48.9479 37.1269 49.1898 37.2381 48.9897C38.0063 49.1486 37.9314 49.7349 38.4709 50.4203Z" fill="#EEDE20"/>
<path fill-rule="evenodd" clip-rule="evenodd" d="M39.5672 42.8789C40.3157 44.0722 39.7784 43.7181 39.1907 44.3924C39.3615 45.0877 40.0707 45.4407 39.8043 46.2419C39.0782 46.1308 38.9889 45.3949 38.4706 44.8194C38.0694 44.9376 37.927 45.1034 37.3877 45.0791C36.6802 43.8176 37.3816 44.3547 37.7576 43.5707C37.6321 43.2416 37.5095 43.0315 37.3631 42.7566L37.1905 41.8804C37.9176 41.6471 38.0013 42.6454 38.4706 43.2434C39.0897 43.1222 38.7915 42.9768 39.5672 42.8789Z" fill="#EEDE20"/>
<path fill-rule="evenodd" clip-rule="evenodd" d="M37.3567 35.6221C37.6126 36.0977 37.7727 36.5756 37.9887 37.0696C38.2936 37.7668 38.2627 37.9454 38.8817 38.0961C39.1665 37.9354 39.8519 36.9891 40.1032 36.6714L40.2469 39.5949C39.3363 39.4399 37.932 38.2118 37.0374 37.881L37.0238 35.2898C37.3926 35.5673 37.1143 34.9906 37.3567 35.6221Z" fill="#E5F1FD"/>
<path fill-rule="evenodd" clip-rule="evenodd" d="M94.9196 50.5146C94.7351 48.4262 95.7536 47.7837 94.4487 45.0551C93.1359 42.3099 91.8016 43.2405 91.2386 42.2067C92.1908 39.207 97.555 44.7051 95.9806 49.5511C95.7123 50.377 95.6962 50.3429 94.9196 50.5146Z" fill="#FDFDFD"/>
<path fill-rule="evenodd" clip-rule="evenodd" d="M44.8819 46.8786C44.2762 46.8093 43.3604 46.1351 42.8903 45.8624C41.6037 45.1158 41.593 45.4943 41.5533 44.1614C42.3867 44.2627 44.1122 45.4595 44.89 45.8742L44.8819 46.8786Z" fill="#ABCAF3"/>
<path fill-rule="evenodd" clip-rule="evenodd" d="M44.5334 53.0946C44.8096 53.5492 44.6522 53.2162 44.8123 53.3881C45.1509 53.7511 44.9228 53.2482 45.0975 53.7513C45.3984 54.6191 45.0724 54.4581 44.5213 54.4003C44.2665 54.0924 42.3123 53.0429 41.834 52.8853L41.7917 51.7905C42.6531 51.8767 43.5922 52.9303 44.5334 53.0946Z" fill="#ABCAF3"/>
<path fill-rule="evenodd" clip-rule="evenodd" d="M44.7408 38.8992C45.1272 39.4676 45.0082 39.378 45.2256 40.0861L45.0729 40.1737C44.7638 40.1325 42.1437 38.6171 41.8024 38.3665L41.778 37.3921C42.6496 37.5303 43.8747 38.5859 44.7408 38.8992Z" fill="#ABCAF3"/>
<path fill-rule="evenodd" clip-rule="evenodd" d="M80.5896 87.261C80.8056 89.7715 80.3519 88.6735 78.9864 88.0822L79.0441 86.478C79.2838 86.5411 80.3051 87.0664 80.5896 87.261Z" fill="#C7C7FC"/>
<path fill-rule="evenodd" clip-rule="evenodd" d="M80.6025 62.3806L80.6024 64.0454C80.307 64.0288 79.2394 63.3202 79.0244 63.1788L79.014 61.5466L80.6025 62.3806Z" fill="#C7C7FC"/>
<path fill-rule="evenodd" clip-rule="evenodd" d="M80.1063 75.6144L78.6011 74.811L78.5681 73.3857C80.192 73.3837 80.3267 74.327 80.1063 75.6144Z" fill="#C7C7FC"/>
<path fill-rule="evenodd" clip-rule="evenodd" d="M86.7444 89.2574C86.615 89.1985 85.7237 88.6697 85.6516 88.5513C85.4501 88.2208 85.5249 87.2164 85.5364 86.7773C86.9138 86.9629 87.0164 87.6338 86.7444 89.2574Z" fill="#C7C7FC"/>
<path fill-rule="evenodd" clip-rule="evenodd" d="M86.3749 74.1127C86.3749 76.8704 86.5602 76.0801 85.1369 75.2541L85.1169 73.4973C85.7604 73.5861 85.9872 73.7829 86.3749 74.1127Z" fill="#C7C7FC"/>
<path fill-rule="evenodd" clip-rule="evenodd" d="M86.8203 64.2696L85.6221 63.7958L85.5148 61.8713C87.0796 62.0846 86.8091 62.7573 86.8203 64.2696Z" fill="#C7C7FC"/>
<path fill-rule="evenodd" clip-rule="evenodd" d="M66.9906 61.3756L66.0323 62.5101L65.5367 61.6906C65.4259 61.4065 65.3577 61.1216 65.196 60.8261C65.0098 60.2935 64.9987 60.6873 65.0092 60.0354C65.5633 60.2248 65.5854 60.3211 66.0723 60.6017C67.2886 61.3028 66.8481 60.7947 66.9906 61.3756Z" fill="#E5F1FD"/>
<path fill-rule="evenodd" clip-rule="evenodd" d="M93.0718 49.4094C92.8838 48.5524 92.7505 47.1387 92.4107 46.4704C91.8442 45.3563 91.6118 46.3251 91.08 44.7561C91.6597 43.6513 92.7953 44.535 93.3704 45.4713C93.623 45.8823 94.9937 48.9688 93.0718 49.4094Z" fill="#FDFDFD"/>
<path fill-rule="evenodd" clip-rule="evenodd" d="M82.3879 89.9547C82.0502 89.9114 81.7379 89.6268 81.3401 89.4441L81.3337 87.8123C81.8032 87.8941 82.0966 88.0824 82.4044 88.3566L82.3879 89.9547Z" fill="#C7C7FC"/>
<path fill-rule="evenodd" clip-rule="evenodd" d="M82.0136 75.066L82.0197 76.5703C81.4677 76.5444 81.4029 76.36 80.9342 76.1711L80.9181 74.5376C81.3121 74.6401 81.6717 74.906 82.0136 75.066Z" fill="#C7C7FC"/>
<path fill-rule="evenodd" clip-rule="evenodd" d="M82.4072 63.4508L82.3909 65.1415C82.1091 64.9116 81.7527 64.7085 81.3556 64.5191L81.3193 63.002C81.8692 63.035 82.0613 63.2331 82.4072 63.4508Z" fill="#C7C7FC"/>
<path fill-rule="evenodd" clip-rule="evenodd" d="M120.315 97.2062C119.822 97.1185 120.016 97.193 119.563 96.9609C119.391 96.873 119.182 96.7056 119.019 96.574L118.978 95.4265C120.606 95.7121 120.288 96.4661 120.315 97.2062Z" fill="#ABCAF3"/>
<path fill-rule="evenodd" clip-rule="evenodd" d="M120.612 106.967L120.718 108.162C120.313 108.238 120.043 108.112 119.694 107.815C119.184 107.38 119.318 107.179 119.378 106.413L120.612 106.967Z" fill="#ABCAF3"/>
<path fill-rule="evenodd" clip-rule="evenodd" d="M125.801 86.4392L125.8 87.8763C125.424 87.8364 125.152 87.6027 124.822 87.398L124.794 86.0516C125.362 86.0105 125.518 86.1958 125.801 86.4392Z" fill="#ABCAF3"/>
<path fill-rule="evenodd" clip-rule="evenodd" d="M51.5587 45.899L51.6268 47.1381L50.3131 46.4467V45.4011C50.8701 45.4651 51.1387 45.6829 51.5587 45.899Z" fill="#ABCAF3"/>
<path fill-rule="evenodd" clip-rule="evenodd" d="M42.8608 26.8315C42.9934 26.6274 43.2273 25.7023 43.318 25.392C43.5628 24.5548 43.4738 24.5137 42.8447 24.1618C39.6714 22.3859 39.8079 22.1331 39.9773 23.9085C40.0283 24.4442 39.9828 25.2187 40.2744 25.5234C40.4558 25.7129 41.7232 26.3698 42.1211 26.5832C42.4425 26.7556 42.4725 26.8734 42.8608 26.8315ZM40.1959 26.8252C40.1351 27.1351 40.0635 27.4396 40.2163 27.7128C40.3971 28.0362 40.5301 28.1379 40.9054 27.9953C40.9396 27.7144 40.9033 27.4912 40.8388 27.2929C41.1974 27.341 41.0825 27.3629 41.3808 27.5316C41.5519 27.6283 41.7124 27.7099 41.8424 27.7847C41.4529 28.5914 42.1187 28.9839 42.2935 28.9696C42.7622 28.9309 42.3767 28.4508 42.5138 28.1769C42.5785 28.0477 42.8096 27.9332 42.5281 27.6702C42.3375 27.4921 40.307 26.4128 40.0055 26.2618C39.9858 25.3166 39.8183 24.3675 39.7416 23.4306C39.6597 22.4315 39.6162 22.6468 39.0489 21.7839C38.9033 21.5624 38.8748 21.4386 38.6053 21.4569C38.5043 21.7801 38.9364 22.2381 39.1353 22.5463C39.4123 22.9751 39.363 23.4314 39.4267 24.0291C39.486 24.586 39.5269 25.0741 39.5931 25.6146C39.6874 26.3827 39.4977 26.5727 40.1959 26.8252ZM44.9127 24.7783C44.9127 25.6488 45.037 31.2574 44.7759 31.7523C43.9749 31.9412 43.4728 31.2478 42.5638 30.8201C41.5148 30.3266 40.5592 29.6346 39.5384 29.0891C38.259 28.405 37.112 27.9557 37.112 26.6224V19.6007C37.112 18.4327 38.6068 19.6 39.2548 19.9425L42.5431 21.8404C43.207 22.2004 44.2297 22.6095 44.647 23.2849C44.9523 23.7787 44.9127 24.1513 44.9127 24.7783Z" fill="#C7C7FC"/>
<path fill-rule="evenodd" clip-rule="evenodd" d="M42.8606 26.8314C42.4723 26.8733 42.4423 26.7554 42.121 26.5831C41.723 26.3697 40.4556 25.7128 40.2742 25.5233C39.9827 25.2186 40.0281 24.4441 39.9771 23.9084C39.8077 22.133 39.6712 22.3857 42.8446 24.1617C43.4736 24.5136 43.5626 24.5547 43.3179 25.3919C43.2271 25.7022 42.9932 26.6273 42.8606 26.8314Z" fill="#FDFDFD"/>
<path fill-rule="evenodd" clip-rule="evenodd" d="M40.1959 26.825C39.4978 26.5724 39.6874 26.3824 39.5932 25.6143C39.527 25.0738 39.486 24.5858 39.4267 24.0288C39.3631 23.4311 39.4123 22.9749 39.1354 22.546C38.9365 22.2379 38.5043 21.7798 38.6053 21.4566C38.8748 21.4383 38.9034 21.5622 39.049 21.7836C39.6163 22.6465 39.6598 22.4312 39.7416 23.4303C39.8183 24.3672 39.9859 25.3163 40.0055 26.2616C40.307 26.4126 42.3376 27.4918 42.5281 27.6699C42.8097 27.9329 42.5785 28.0474 42.5139 28.1767C42.3767 28.4505 42.7623 28.9306 42.2935 28.9693C42.1187 28.9837 41.453 28.5911 41.8424 27.7844C41.7124 27.7096 41.552 27.6281 41.3808 27.5313C41.0826 27.3626 41.1974 27.3408 40.8388 27.2926C40.9034 27.491 40.9396 27.7142 40.9054 27.995C40.5301 28.1376 40.3972 28.036 40.2163 27.7125C40.0636 27.4393 40.1352 27.1348 40.1959 26.825Z" fill="#FDFDFD"/>
<path fill-rule="evenodd" clip-rule="evenodd" d="M154.071 95.2495C153.697 95.3008 151.209 93.7805 150.79 93.524C148.724 92.2614 148.427 92.5655 149.235 90.9847C149.445 90.5723 149.514 90.5523 150.067 90.5459C150.654 90.539 150.583 90.6959 150.874 91.0039C151.826 92.0105 152.159 91.38 152.545 91.8256C152.902 92.2368 153.383 92.7246 153.574 93.3009C153.707 93.7034 154.118 94.8531 154.071 95.2495Z" fill="#FDFDFD"/>
<path fill-rule="evenodd" clip-rule="evenodd" d="M151.053 87.6209C152.829 88.097 153.173 91.2895 151.806 91.1441C151.147 91.074 150.594 90.1565 150.413 89.6157C150.19 88.9498 150.055 87.3537 151.053 87.6209Z" fill="#FDFDFD"/>
<path d="M26.0439 212.479C14.9649 212.479 5.9836 207.923 5.9836 202.302C5.9836 196.681 14.9649 192.124 26.0439 192.124C37.1228 192.124 46.1041 196.681 46.1041 202.302C46.1041 207.923 37.1228 212.479 26.0439 212.479Z" fill="#DADFFE"/>
<path fill-rule="evenodd" clip-rule="evenodd" d="M13.5228 71.9408L13.3149 73.6987C13.4358 75.01 13.408 74.6081 13.8388 75.7568C11.3656 74.8257 12.7013 74.2346 11.1514 73.4975C10.1921 75.5455 12.6574 76.9371 14.3098 78.0551C15.9964 79.1961 18.8461 79.3886 21.0798 79.3721C23.9629 79.3507 25.3166 79.2989 27.792 79.9368C30.9989 80.7637 30.7801 81.4369 32.2202 83.3843C31.6444 83.6632 32.079 83.4841 31.28 83.6692C29.1648 84.1589 26.8898 84.3294 25.0076 87.0052L22.8478 90.8832C21.2971 95.151 21.893 101.006 23.4637 105.448C23.8344 106.497 24.307 107.817 24.5303 108.841C27.3168 121.622 23.8687 122.7 23.0167 126.332C22.5288 128.412 22.4257 131.956 22.4392 134.359C25.735 134.671 29.5142 134.997 32.6832 133.805C38.5735 131.588 34.6231 133.679 40.5382 130.369C40.6774 131.918 41.2009 133.436 41.4633 134.882C44.1207 149.54 35.9464 161.162 36.1164 164.343C35.6743 164.818 35.9765 164.308 35.5397 165.204C35.4458 165.397 35.2743 165.94 35.2108 166.162C34.962 167.027 34.8476 167.655 34.7117 168.54L33.9262 173.988L33.4744 178.599L33.2447 182.745L33.2057 186.649C32.4956 188.358 32.7823 195.526 33.453 197.384C33.4451 201.637 26.3797 205.278 21.9148 204.011C21.6562 202.487 23.8138 188.043 22.8797 181.685C20.4918 165.428 26.3678 178.823 25.3905 152.014C25.2726 148.772 24.4879 137.184 23.4978 135.176C22.6804 134.54 18.2542 133.978 16.8184 133.8C17.5077 140.563 21.0696 140.409 21.3894 142.81C21.5268 143.841 21.3808 145.801 21.3756 146.934C21.3507 152.506 22.4944 160.042 22.0259 163.429C20.9897 170.918 18.3379 170.198 19.8774 182.23C20.3074 185.592 20.0676 193.924 20.1266 194.134C18.9181 194.417 17.3423 195.846 16.3297 196.442C14.568 197.48 14.1199 197.719 11.8054 197.413C11.446 194.62 11.1839 192.135 10.7997 189.32C10.4371 186.665 10.4409 183.63 10.096 181.145C7.01407 158.945 10.8339 164.28 12.6323 149.522C13.1014 145.672 13.4346 136.611 12.6773 132.636C11.5619 131.917 10.5096 131.704 9.2021 130.845L8.41135 130.373C7.67681 129.891 7.41077 129.115 6.50519 128.507C4.41216 127.57 5.35755 125.36 5.76998 123.402C6.1978 121.371 6.60989 119.393 7.04673 117.361C8.34902 111.3 8.54003 111.31 7.68362 105.003C6.46952 96.0604 0.663742 92.4932 1.26717 82.5309C1.4353 79.2816 1.82187 76.0886 3.63459 73.8545C4.4309 72.8731 5.73886 71.9749 6.80723 71.6586C8.39362 71.1888 9.92715 71.8826 10.8323 71.3025L13.5228 71.9408Z" fill="#2D4281"/>
<path fill-rule="evenodd" clip-rule="evenodd" d="M59.8487 91.9334L60.1895 92.628C60.194 92.6498 60.1613 92.7316 60.1648 92.7841C58.2594 91.7461 56.0297 91.1835 54.0762 90.5098L47.4501 88.4953C42.0848 87.0688 30.4743 82.2057 27.4127 87.1446C26.6643 88.3516 23.1916 100.757 34.9159 98.8508C37.7025 98.3978 37.6691 99.0085 38.399 97.7681L38.4095 98.6392C38.9826 101.84 37.5663 104.513 37.3606 107.244C37.1212 110.426 38.8663 112.567 38.9113 115.388C38.923 117.038 39.1609 116.97 36.7121 118.417C36.2531 118.688 35.9629 118.891 35.4991 119.106C34.9422 119.364 34.8116 119.277 34.2523 119.608C34.3045 120.218 34.5293 121.673 34.7447 122.107C38.0831 122.257 38.4579 121.83 40.3014 120.183C40.8366 121.953 41.318 123.854 41.8691 125.799C42.5975 128.368 42.1903 128.72 40.5382 130.369C34.6232 133.679 38.5735 131.588 32.6832 133.805C29.5143 134.997 25.7351 134.671 22.4392 134.359C22.4257 131.956 22.5289 128.412 23.0168 126.332C23.8687 122.7 27.3169 121.622 24.5303 108.841C24.307 107.817 23.8345 106.497 23.4638 105.448C21.8931 101.006 21.2971 95.1511 22.8478 90.8833L25.0077 87.0053C26.8899 84.3295 29.1648 84.159 31.2801 83.6693C32.079 83.4843 31.6444 83.6633 32.2202 83.3845C30.7801 81.4371 30.999 80.7638 27.7921 79.937C25.3166 79.299 23.9629 79.3508 21.0798 79.3722C18.8461 79.3887 15.9964 79.1962 14.3098 78.0552C12.6574 76.9373 10.1921 75.5456 11.1514 73.4977C12.7014 74.2348 11.3656 74.8258 13.8389 75.7569C14.6259 75.8556 18.7305 78.7319 22.8513 77.5348C23.4536 77.3598 23.6957 77.1898 24.1558 76.9279C25.1845 76.3427 23.83 76.7218 25.2123 76.3717C27.5004 77.4112 30.3564 78.711 32.9838 79.0982C32.5279 78.2854 32.8033 79.0994 32.3455 77.8233C33.6278 77.5167 34.1037 77.0933 34.8964 75.9367C36.6821 73.3303 35.2136 72.9959 36.9673 73.2271C37.1797 74.0895 39.9193 75.9179 40.9803 76.8224C43.6284 79.0791 43.5605 77.7607 47.3 78.169C48.5932 79.8754 48.7103 81.8672 49.3469 82.7649C49.7082 83.2753 52.2354 85.0744 53.0874 85.6986C54.8562 86.9949 59.5005 90.4693 59.8487 91.9334Z" fill="#132146"/>
<path fill-rule="evenodd" clip-rule="evenodd" d="M59.8486 91.9333C62.5609 92.9882 63.2203 96.6083 61.8767 99.0458C60.4334 101.664 58.0539 101.963 54.7522 101.832C48.7185 101.592 43.9206 98.9186 38.4094 98.6391L38.399 97.768C37.669 99.0084 37.7024 98.3977 34.9158 98.8507C23.1915 100.756 26.6642 88.3515 27.4126 87.1445C30.4742 82.2056 42.0847 87.0687 47.45 88.4952L54.0762 90.5097C56.0296 91.1834 58.2593 91.746 60.1647 92.784C60.1612 92.7315 60.1939 92.6497 60.1894 92.6279L59.8486 91.9333Z" fill="#2D4281"/>
<path fill-rule="evenodd" clip-rule="evenodd" d="M21.9147 204.011C20.533 203.497 20.5896 202.88 19.7708 201.956L19.6117 199.446C19.4551 198.381 19.9122 198.611 18.9694 198.805C20.2631 197.273 20.1265 196.456 20.1265 194.134C20.0676 193.924 20.3074 185.592 19.8774 182.23C18.3378 170.198 20.9896 170.918 22.0259 163.429C22.4943 160.042 21.3507 152.506 21.3755 146.935C21.3808 145.801 21.5267 143.841 21.3894 142.81C21.0696 140.409 17.5077 140.563 16.8183 133.8C18.2542 133.979 22.6804 134.54 23.4978 135.176C24.4879 137.184 25.2726 148.772 25.3905 152.014C26.3677 178.823 20.4917 165.428 22.8796 181.685C23.8138 188.043 21.6562 202.487 21.9147 204.011Z" fill="#465B9B"/>
<path fill-rule="evenodd" clip-rule="evenodd" d="M33.6554 52.8645L33.2914 51.8329C32.0762 52.7167 31.9948 53.7108 31.705 54.562L31.32 54.7868C30.065 58.1202 26.0651 60.4721 22.9276 61.5868C17.4161 63.5448 14.345 61.8826 9.83089 60.5971C11.1287 53.2624 17.132 50.8064 21.9413 48.3437C23.4808 47.5553 23.8332 48.0548 25.5231 47.8381C26.8348 47.6704 27.1485 47.097 28.7072 46.7671L29.8811 48.376C31.0483 47.7279 31.3801 47.357 32.838 47.3949C33.4814 48.7779 33.0854 49.4846 32.9191 50.9738C33.991 51.5683 34.7731 51.6013 33.6554 52.8645Z" fill="#723D24"/>
<path fill-rule="evenodd" clip-rule="evenodd" d="M11.8056 197.413C11.1263 197.273 10.8749 197.175 10.5337 196.928L9.72346 196.05C9.66158 195.974 9.58229 195.871 9.53056 195.807C9.47648 195.74 9.40367 195.632 9.33087 195.552C8.35025 193.249 9.03252 190.412 8.1101 188.271C8.2245 185.688 7.37031 181.193 7.02433 178.446C6.62049 175.238 5.96443 172.291 5.56783 168.991C5.18651 165.689 5.48824 164.409 5.8748 161.285C6.38479 160.281 7.79857 155.631 8.21735 154.059C9.92794 147.643 9.84432 142.974 8.21814 136.523C7.77304 134.758 6.95296 129.545 6.5053 128.507C7.41088 129.115 7.67693 129.891 8.41147 130.373L9.20221 130.845C10.5097 131.704 11.562 131.917 12.6775 132.636C13.4348 136.611 13.1015 145.672 12.6324 149.522C10.834 164.28 7.01418 158.945 10.0961 181.145C10.4411 183.63 10.4373 186.665 10.7998 189.32C11.1841 192.135 11.4461 194.62 11.8056 197.413Z" fill="#465B9B"/>
<path fill-rule="evenodd" clip-rule="evenodd" d="M44.8612 199.793C45.6685 200.92 45.2117 199.671 45.7432 201.167C46.0269 201.967 46.0189 202.217 46.0172 203.248C44.2563 204.183 44.072 205.071 41.3706 205.961C39.6375 206.533 36.4879 206.788 34.416 206.798C29.1724 206.822 25.8656 208.465 20.6358 207.543C19.1763 206.759 18.8213 203.493 19.7708 201.956C20.5896 202.88 20.533 203.497 21.9148 204.011C26.3797 205.278 33.4451 201.637 33.453 197.384C34.7654 197.593 35.0221 198.027 35.9881 198.382C36.7462 198.661 37.907 198.758 38.8835 198.886C40.5731 199.107 43.1653 199.365 44.8612 199.793Z" fill="#3A83F9"/>
<path fill-rule="evenodd" clip-rule="evenodd" d="M33.6555 52.8644C33.6082 53.7903 32.1859 55.9029 31.9397 57.6487C31.2855 58.4158 31.4361 58.6748 30.4678 59.401C29.4688 60.1505 29.3032 59.9977 28.5384 60.8241C29.1716 63.0474 29.9514 63.6659 26.8008 67.4022L26.1654 65.7806C24.9322 66.0711 24.2896 66.953 24.1256 67.8646C20.7514 70.2381 19.0269 72.6287 13.8748 68.3476C13.1467 67.7426 13.7972 68.163 13.0169 67.7423C11.2995 65.6072 9.97283 64.6044 9.831 60.597C14.3451 61.8825 17.4162 63.5447 22.9277 61.5867C26.0652 60.472 30.0651 58.1201 31.3201 54.7867L31.7051 54.5619C31.9949 53.7107 32.0763 52.7166 33.2915 51.8328L33.6555 52.8644Z" fill="#4B2614"/>
<path fill-rule="evenodd" clip-rule="evenodd" d="M34.3586 71.5646C34.07 76.5155 31.6925 76.9933 27.9208 74.9888C26.125 74.0348 26.1903 73.3483 25.7159 72.7092C25.1579 71.9567 25.776 72.2341 24.8549 72.0558C25.3233 70.8428 24.9834 71.303 26.6106 70.8485C24.4309 70.323 23.2141 70.2214 24.1257 67.8649C24.2898 66.9533 24.9323 66.0713 26.1655 65.7809L26.8009 67.4025C29.9515 63.6661 29.1717 63.0476 28.5385 60.8244C29.3034 59.9979 29.4689 60.1507 30.4679 59.4012C31.4362 58.675 31.2857 58.416 31.9398 57.6489C31.6231 62.8337 30.3336 64.1772 30.2401 65.9817C31.6933 66.7799 31.617 66.8411 32.5786 68.4038C33.1655 69.3578 33.9244 70.3287 34.3586 71.5646Z" fill="#EC9971"/>
<path fill-rule="evenodd" clip-rule="evenodd" d="M36.9674 73.227C35.2137 72.9959 36.6822 73.3302 34.8965 75.9366C34.1038 77.0933 33.6279 77.5166 32.3456 77.8232C32.8034 79.0993 32.528 78.2853 32.9839 79.0981C30.3565 78.7109 27.5005 77.4112 25.2124 76.3717C23.8301 76.7218 25.1846 76.3427 24.1559 76.9278C23.6958 77.1897 23.4537 77.3597 22.8514 77.5347C18.7306 78.7318 14.626 75.8555 13.839 75.7569C13.4081 74.6081 13.4359 75.0101 13.315 73.6987C14.6943 74.3112 15.4058 75.2507 18.5865 75.7539C20.9805 76.1326 22.8731 76.0057 24.5579 75.1395L24.684 73.4825L24.855 72.0557C25.7761 72.234 25.1579 71.9566 25.716 72.7091C26.1904 73.3482 26.1251 74.0347 27.9208 74.9887C31.6926 76.9931 34.07 76.5154 34.3587 71.5645L35.9514 72.2989C37.0477 72.9737 36.3684 72.1788 36.9674 73.227Z" fill="#D1E6F6"/>
<path fill-rule="evenodd" clip-rule="evenodd" d="M18.9695 198.805C16.4869 201.36 14.7463 202.496 11.4899 201.65C9.86593 201.228 10.1508 200.878 9.01744 200.245L9.0849 202.834C8.44658 201.71 8.64994 200.773 8.96369 199.665C9.31312 198.43 9.38738 197.623 9.39942 196.063L9.33074 195.552C9.40355 195.632 9.47636 195.74 9.53043 195.807C9.58217 195.872 9.66145 195.974 9.72333 196.05L10.5336 196.928C10.8748 197.175 11.1262 197.273 11.8054 197.413C14.1199 197.719 14.568 197.48 16.3297 196.442C17.3423 195.846 18.9181 194.417 20.1266 194.134C20.1266 196.456 20.2632 197.273 18.9695 198.805Z" fill="#2066AE"/>
<path fill-rule="evenodd" clip-rule="evenodd" d="M57.6242 84.1761C55.7152 82.4393 53.5095 82.0591 51.3144 83.2691C50.8134 77.7923 47.9709 80.1777 49.9664 75.9383C51.6931 75.2452 52.0069 74.4372 54.5322 74.4605C54.1892 75.6825 54.1336 75.1214 54.0447 76.4537C56.0856 76.6076 55.9463 75.7999 58.2281 75.816C58.4034 77.813 57.8633 77.4873 56.4357 78.3951C55.6296 78.9078 54.545 79.6241 53.6044 79.9777C54.3349 81.197 55.1169 81.3498 56.432 81.9799C57.4967 82.4903 58.2743 82.965 59.21 83.3858C58.4278 84.4516 60.4833 84.5406 57.6242 84.1761Z" fill="#EC9971"/>
<path fill-rule="evenodd" clip-rule="evenodd" d="M44.4925 206.06C35.5176 209.36 37.9046 207.347 30.3362 208.35C26.6468 208.839 30.9184 210.224 24.2703 210.413C23.0623 210.447 21.5214 210.433 20.5359 210.057C18.883 209.427 19.2812 208.776 19.3322 206.829C20.5909 207.261 19.6219 206.725 20.636 207.543C25.8658 208.465 29.1725 206.822 34.4161 206.798C36.4881 206.788 39.6377 206.533 41.3708 205.961C44.0721 205.071 44.2565 204.183 46.0173 203.248C45.9547 205.324 45.3305 204.824 44.4925 206.06Z" fill="#132146"/>
<path fill-rule="evenodd" clip-rule="evenodd" d="M24.8548 72.0557L24.6838 73.4825C24.6245 73.555 24.5779 73.5948 24.5577 73.7336C24.4372 74.5488 23.8517 75.6063 22.8482 75.3038C22.5269 75.2074 21.1635 74.0377 20.3201 73.6312C18.5007 72.7538 16.1412 72.5901 14.091 71.8939C14.0745 70.9557 14.0193 70.2757 13.465 69.4646L13.0169 67.7424C13.7972 68.1631 13.1467 67.7428 13.8748 68.3478C19.0269 72.6288 20.7514 70.2382 24.1256 67.8648C23.214 70.2212 24.4308 70.3229 26.6105 70.8484C24.9833 71.3029 25.3232 70.8427 24.8548 72.0557Z" fill="#B96D51"/>
<path fill-rule="evenodd" clip-rule="evenodd" d="M10.8323 71.3024C9.92714 71.8825 8.39361 71.1886 6.80722 71.6585C5.73886 71.9748 4.43089 72.8729 3.63458 73.8543C1.82186 76.0885 1.4353 79.2815 1.26716 82.5308C-0.982413 80.3834 0.181397 75.0178 1.5449 73.0639C4.1235 69.3685 6.2019 70.7244 10.8323 71.3024Z" fill="#071235"/>
<path fill-rule="evenodd" clip-rule="evenodd" d="M24.6838 73.4825L24.5577 75.1395C22.873 76.0057 20.9803 76.1326 18.5864 75.7538C15.4057 75.2506 14.6941 74.3112 13.3149 73.6987L13.5228 71.9408L13.4651 69.4646C14.0193 70.2756 14.0745 70.9557 14.091 71.8939C16.1412 72.5901 18.5008 72.7538 20.3202 73.6311C21.1635 74.0377 22.5269 75.2074 22.8482 75.3038C23.8517 75.6063 24.4372 74.5488 24.5577 73.7336C24.5779 73.5948 24.6245 73.555 24.6838 73.4825Z" fill="#EDA697"/>
<path fill-rule="evenodd" clip-rule="evenodd" d="M19.6118 199.445C17.7068 200.155 18.4716 202.344 15.3822 203.834C13.2287 204.873 10.5998 204.063 9.08502 202.834L9.01756 200.244C10.1509 200.878 9.86605 201.228 11.49 201.65C14.7464 202.496 16.487 201.36 18.9696 198.805C19.9124 198.611 19.4553 198.381 19.6118 199.445Z" fill="#132146"/>
<path fill-rule="evenodd" clip-rule="evenodd" d="M40.3014 120.183C38.4579 121.83 38.083 122.257 34.7447 122.107C34.5293 121.673 34.3045 120.218 34.2523 119.608C34.8116 119.276 34.9422 119.364 35.4991 119.106C35.9629 118.891 36.253 118.688 36.7121 118.417C39.1609 116.97 38.9229 117.038 38.9112 115.388L40.3014 120.183Z" fill="#2D4281"/>
</svg>
