<svg width="66" height="78" viewBox="0 0 66 78" fill="none" xmlns="http://www.w3.org/2000/svg">
<path d="M59.0614 39.5009V39.4959H6.45611C5.60115 39.4959 5.12114 39.4031 4.66073 39.2943C4.60154 39.2803 4.54267 39.266 4.48335 39.2516C4.08114 39.1542 3.65891 39.0518 2.98172 38.9955L2.98131 39.0005L2.98089 39.0055L2.97631 39.0606V39.0005C2.97631 40.5806 2.97104 42.1632 2.96576 43.7465C2.95656 46.5072 2.94736 49.2699 2.96609 52.0241C2.97134 52.6801 3.00984 53.3326 3.04703 53.9631C3.07246 54.3941 3.09728 54.8149 3.11043 55.2192C3.13122 55.8418 3.10877 56.0093 3.08196 56.2094L3.07975 56.2259C3.05191 56.4343 3.0206 56.691 3.02797 57.5248L3.02797 57.5249L3.2696 66.4372C3.26959 66.4373 3.26959 66.4373 3.26959 66.4374C3.2533 67.1387 3.16113 67.9837 3.06486 68.8663C3.05882 68.9217 3.05276 68.9773 3.0467 69.033C2.94415 69.9754 2.84207 70.9527 2.82678 71.8368C2.81149 72.7208 2.88293 73.5124 3.12786 74.0831C3.25035 74.3685 3.41634 74.5989 3.63679 74.758C3.85728 74.917 4.1319 75.0045 4.47119 75.0045L58.97 74.9926L58.9701 75.0304L58.975 74.9882C58.984 74.9119 58.9973 74.8055 59.0139 74.6731C59.1327 73.7254 59.419 71.4415 59.4641 69.2773C59.4898 68.044 59.4372 66.8491 59.2304 65.9625C59.127 65.5192 58.9851 65.1525 58.7947 64.8965C58.6043 64.6403 58.3652 64.4949 58.0682 64.4949C57.0366 64.4949 56.8387 64.5798 56.6953 64.6605C56.6883 64.6644 56.6815 64.6683 56.6747 64.6721C56.6123 64.7078 56.5536 64.7413 56.4269 64.7648C56.286 64.791 56.0612 64.8047 55.6545 64.7947C55.3992 64.7881 55.135 64.7386 54.8307 64.6815C54.7562 64.6675 54.6794 64.6531 54.5996 64.6387C54.1944 64.5658 53.7163 64.4949 53.1065 64.4949L46.0348 64.6581C45.3489 64.5782 44.709 64.5394 44.1039 64.5027C43.7873 64.4835 43.4803 64.4648 43.1811 64.4412C42.3098 64.3724 41.505 64.2611 40.7254 63.9696C39.6021 63.5498 38.3558 62.574 37.3903 61.3194C36.4248 60.0648 35.7405 58.5322 35.7405 56.9992C35.7405 52.5365 38.7557 48.0056 43.6768 48.0056H59.0614V48.0006H59.0664V39.5009H59.0614ZM56.5749 36.5003H56.5799V36.5053C58.1973 36.5053 59.3463 36.5582 60.1605 36.8036C60.5674 36.9263 60.8905 37.097 61.1464 37.3332C61.4024 37.5694 61.5915 37.8712 61.7303 38.2564C62.0079 39.027 62.0837 40.1307 62.09 41.7084C62.093 42.4421 62.0809 43.2781 62.0671 44.2306L62.064 44.4471C62.049 45.49 62.0332 46.6687 62.0332 48.0006H61.8067L62.0381 48.0056C63.1903 48.0305 63.6366 48.1485 64.3017 48.3242C64.5082 48.3788 64.7358 48.4389 65.0122 48.5036C65.3409 49.9264 65.4653 51.7357 65.5551 53.5541C65.5719 53.8939 65.5875 54.234 65.6029 54.572C65.6703 56.0438 65.7359 57.4748 65.8911 58.6613C66.269 61.5412 65.5629 62.9995 64.6347 63.8003C64.1705 64.2009 63.6503 64.4373 63.1814 64.6048C62.9882 64.6738 62.8038 64.731 62.6356 64.7833C62.5997 64.7944 62.5644 64.8054 62.53 64.8161C62.3348 64.8773 62.1655 64.9332 62.036 64.9957L62.0332 64.9899V65.0002V76.4979C61.8203 76.6415 61.627 76.7871 61.4397 76.9281C60.6821 77.4984 60.0226 77.995 58.5648 77.995H2.98131C2.4153 77.995 1.95235 77.8407 1.57536 77.5657C1.19831 77.2906 0.906949 76.8947 0.684569 76.4111C0.239752 75.4436 0.071311 74.1262 0.044608 72.7267C0.0179072 71.3273 0.132921 69.8464 0.254632 68.5526C0.282777 68.2534 0.311283 67.9641 0.338477 67.6882C0.428862 66.7712 0.504758 66.0011 0.504758 65.5004C0.504758 62.8427 0.376558 60.5432 0.250024 58.3082L0.244874 58.2173C0.120124 56.0143 -0.00128794 53.8702 0.00525289 51.503C0.0120751 49.1889 0.165399 47.5317 0.317679 45.8858C0.362739 45.3988 0.407707 44.9128 0.448761 44.411L0.448804 44.411L0.448772 44.4103L0.00971406 35.4996C0.00971406 33.5196 0.390165 31.7029 1.15041 30.3025C1.9106 28.9022 3.05043 27.9182 4.56949 27.6031C5.13452 27.4859 6.01019 27.4227 7.05051 27.3932C8.09073 27.3636 9.29524 27.3677 10.5178 27.3851C11.4286 27.398 12.3495 27.4183 13.2199 27.4374C14.6858 27.4697 16.0083 27.4988 16.8983 27.4843C17.0689 27.4816 17.2568 27.4755 17.4559 27.4691C18.2346 27.4439 19.1846 27.4132 19.9379 27.5557C20.4109 27.6452 20.8052 27.8029 21.0309 28.072C21.2561 28.3407 21.3144 28.7218 21.1125 29.2608C21.0246 29.4958 20.8372 29.692 20.5702 29.8551C20.3031 30.0183 19.9568 30.1483 19.5518 30.2511C18.7417 30.4569 17.6976 30.5538 16.5853 30.5911C15.1201 30.6402 13.5375 30.5858 12.2162 30.5404C11.5312 30.5168 10.9164 30.4957 10.4247 30.4927C10.0975 30.4906 9.73426 30.4808 9.3623 30.4708C8.68596 30.4526 7.98094 30.4337 7.41231 30.4586C6.18041 30.5121 5.34835 30.6178 4.74076 30.9048C4.13272 31.192 3.74999 31.6605 3.41592 32.4377C2.98763 33.4316 3.3013 34.4487 3.8826 35.2168C4.17327 35.6009 4.531 35.923 4.89672 36.149C5.26238 36.3751 5.6364 36.5053 5.95963 36.5053H53.6017V36.5003H53.6067V30.5007H53.7407L53.6019 30.4957L39.7105 29.9955V28.0036C40.0357 27.841 40.1742 27.7281 40.2276 27.6496C40.2545 27.61 40.26 27.5789 40.2564 27.5544C40.2532 27.5323 40.2426 27.5163 40.2354 27.5056L40.2335 27.5027C40.2317 27.4999 40.2304 27.4978 40.2296 27.496C40.2289 27.4945 40.2287 27.4937 40.2287 27.4934C40.2288 27.4933 40.2289 27.4932 40.2292 27.4931C40.2301 27.4925 40.2321 27.4918 40.2356 27.4912C40.2427 27.49 40.2542 27.4895 40.2722 27.4897C40.2901 27.4898 40.314 27.4905 40.3456 27.4915L40.3752 27.4925C40.5094 27.497 40.7552 27.5052 41.1952 27.5052C43.2924 27.5052 45.1057 27.4749 46.6733 27.4433C47.0171 27.4364 47.3491 27.4294 47.6697 27.4226C48.8107 27.3986 49.8071 27.3776 50.677 27.3734C51.7913 27.368 52.698 27.3902 53.4353 27.4689C54.1726 27.5476 54.7403 27.6828 55.1767 27.9031C55.6131 28.1234 55.9185 28.4287 56.1313 28.8483C56.3442 29.268 56.4646 29.8023 56.5303 30.4802C56.621 31.4148 56.6079 32.6214 56.5909 34.1763C56.5833 34.8778 56.5749 35.6501 56.5749 36.5003ZM30.778 8.00048L30.8185 7.99603H30.773C30.3569 7.99603 29.9791 8.00051 29.6359 8.00459C29.2053 8.00971 28.8295 8.01417 28.5013 8.0083C27.9116 7.99776 27.4774 7.95384 27.1585 7.82079C26.84 7.68794 26.6363 7.46611 26.5082 7.09859C26.38 6.73122 26.3274 6.21844 26.3115 5.50376C26.5032 5.40786 26.653 5.32809 26.7761 5.26195C26.7912 5.25387 26.8058 5.246 26.8201 5.23832C26.9233 5.18283 27.007 5.13777 27.0821 5.10132C27.2528 5.01848 27.3783 4.98025 27.5835 4.966C27.7711 4.95298 28.0251 4.96002 28.4408 4.97155C28.4805 4.97265 28.5217 4.97379 28.5645 4.97496C29.0546 4.98837 29.7492 5.00535 30.773 5.00535V5.00035H30.778V3.00053C30.778 2.07518 30.8988 1.51167 31.1446 1.08687C31.3902 0.66254 31.7607 0.376013 32.2623 0.0054558C32.8623 0.167037 33.2856 0.316781 33.5833 0.510943C33.8811 0.705152 34.0534 0.943863 34.1509 1.28393C34.2485 1.62436 34.2712 2.06636 34.2694 2.66715C34.2687 2.91802 34.2637 3.19646 34.2581 3.50665C34.257 3.56781 34.2559 3.6302 34.2547 3.69386C34.2479 4.08038 34.2414 4.51352 34.2414 5.00035H34.2464V5.00535C34.8064 5.00535 35.2743 4.98964 35.6805 4.976L35.7489 4.97371C36.1708 4.95961 36.5257 4.94895 36.8497 4.96267C37.4965 4.99008 38.0202 5.11468 38.7078 5.50359C38.6919 6.21835 38.6393 6.73119 38.5111 7.09859C38.3829 7.46611 38.1793 7.68794 37.8609 7.82079C37.542 7.95384 37.1077 7.99776 36.5181 8.0083C36.1899 8.01417 35.8141 8.00971 35.3835 8.00459C35.0404 8.00051 34.6625 7.99603 34.2464 7.99603V7.95545L34.2414 8.00048L33.7453 12.496H31.2727L30.778 8.00048ZM28.2167 27.4885L28.2169 27.5088L28.2215 27.4845L28.7926 24.5044H31.2636C31.2638 25.2429 31.303 25.8103 31.3729 26.244C31.443 26.6786 31.5439 26.9793 31.6676 27.1835C31.7914 27.3879 31.938 27.4957 32.0989 27.5444C32.2596 27.5931 32.4342 27.5826 32.6136 27.5514C32.7033 27.5358 32.7945 27.515 32.8858 27.4938L32.9094 27.4883C32.993 27.4688 33.0766 27.4493 33.1596 27.4334C33.3413 27.3986 33.5196 27.3809 33.6865 27.4178C34.0194 27.4913 34.3095 27.7825 34.488 28.5981C34.5673 28.9593 34.5155 29.2555 34.3661 29.4975C34.2167 29.7396 33.9693 29.9279 33.6567 30.0726C33.0314 30.3618 32.1466 30.4754 31.2685 30.4954L31.2636 30.2813V30.5004C31.2636 30.6929 31.2662 30.8794 31.2686 31.0588C31.2717 31.2874 31.2747 31.5042 31.272 31.7067C31.2673 32.068 31.2446 32.3825 31.1731 32.6337C31.1017 32.8847 30.9816 33.072 30.7825 33.1797C30.5831 33.2876 30.3036 33.3163 29.9121 33.2481C29.6368 33.2002 29.4279 33.1531 29.2695 33.104C29.1111 33.0549 29.0034 33.004 28.9305 32.9487C28.8577 32.8935 28.8193 32.8339 28.7994 32.7671C28.7795 32.7001 28.7781 32.6257 28.7798 32.5405C28.78 32.5257 28.7804 32.5105 28.7808 32.495C28.7849 32.333 28.7899 32.1351 28.6991 31.8859C28.5998 31.6129 28.3858 31.2788 27.9312 30.862C27.5051 30.4715 27.0846 30.3429 26.7177 30.2307C26.6129 30.1986 26.5125 30.1679 26.4176 30.1329C26.2039 30.0539 26.0177 29.9527 25.8707 29.7645C25.7237 29.5762 25.6155 29.3003 25.5588 28.871C25.5062 28.4735 25.5397 28.1901 25.6453 27.9879C25.7508 27.786 25.9288 27.6644 26.1672 27.5916C26.4058 27.5188 26.7044 27.495 27.0505 27.4885C27.234 27.485 27.4305 27.4864 27.6383 27.4878C27.8226 27.4891 28.0157 27.4904 28.2167 27.4885ZM46.6522 19.9932L46.6512 19.9502L46.6473 19.9978C46.6034 20.5308 46.5647 20.9558 46.5044 21.3007C46.4442 21.6456 46.3625 21.91 46.233 22.1222C45.9745 22.5459 45.5245 22.7627 44.6684 22.9933C44.264 22.6943 44.0443 22.4491 43.9185 22.2319C43.7925 22.0144 43.7605 21.8245 43.7318 21.6355L43.7286 21.6146C43.701 21.4326 43.6735 21.2503 43.5643 21.0452C43.4511 20.8322 43.2502 20.5951 42.8711 20.3076C42.5233 20.0437 42.2875 19.9568 42.1029 19.9356C42.0107 19.9251 41.9314 19.9309 41.8578 19.9392C41.8428 19.9408 41.8281 19.9426 41.8136 19.9443C41.7564 19.9512 41.702 19.9577 41.6461 19.9569C41.5066 19.9549 41.3573 19.9072 41.1373 19.7012C40.9175 19.4953 40.6275 19.1317 40.2067 18.4987C40.6143 17.8862 40.896 17.5324 41.1102 17.3289C41.3247 17.1252 41.4712 17.0723 41.6086 17.0609C41.6614 17.0566 41.7128 17.0583 41.7666 17.0601C41.7831 17.0607 41.7999 17.0612 41.817 17.0616C41.8895 17.0633 41.9674 17.0619 42.0578 17.0438C42.2388 17.0074 42.4692 16.9042 42.8078 16.6259C43.2747 16.2424 43.4942 15.9828 43.5931 15.7849C43.687 15.5971 43.6721 15.4649 43.6577 15.3365C43.6569 15.3293 43.6561 15.322 43.6553 15.3148C43.6479 15.2472 43.6423 15.1799 43.6543 15.1049C43.6663 15.03 43.6959 14.947 43.759 14.8482C43.8853 14.6506 44.1459 14.39 44.6684 14.0041C45.5245 14.2347 45.9745 14.4514 46.233 14.8751C46.3625 15.0873 46.4442 15.3518 46.5044 15.6967C46.5647 16.0416 46.6034 16.4665 46.6473 16.9995L46.6045 17.0031L46.6522 17.0041C47.6425 17.0264 48.101 17.084 48.4544 17.2317C48.6311 17.3055 48.7817 17.402 48.9595 17.5282C49.0151 17.5676 49.0733 17.6099 49.1358 17.6553C49.2725 17.7547 49.4296 17.8689 49.6239 18C49.4353 18.3597 49.3106 18.6534 49.2087 18.8933C49.1866 18.9452 49.1657 18.9945 49.1454 19.0415C49.0307 19.3067 48.937 19.4953 48.7895 19.631C48.6422 19.7665 48.4406 19.8498 48.1092 19.9027C47.7778 19.9557 47.3172 19.9784 46.6522 19.9932ZM62.5348 61.5043V61.4993H62.5398C62.5398 59.3831 62.6639 57.7928 62.788 56.2142L62.7902 56.1872C62.9136 54.6177 63.0363 53.0569 63.0363 50.9996H63.0313V50.9946H43.6768C42.2847 50.9946 41.194 51.4055 40.3923 52.069C39.5906 52.7325 39.0781 53.6483 38.8418 54.6574C38.3691 56.6757 39.0006 59.0682 40.6334 60.5661C40.976 60.8805 41.5 61.1306 42.1634 61.3279C42.8268 61.5251 43.6302 61.6696 44.5323 61.7723C46.3364 61.9778 48.5356 62.0165 50.8 61.9768C53.0646 61.9371 55.3945 61.819 57.4602 61.7108C57.5747 61.7048 57.6884 61.6988 57.8012 61.6929C59.7239 61.592 61.3943 61.5043 62.5348 61.5043ZM11.9142 15.9981H11.9192V12.9991C11.9192 12.4506 12.0145 12.062 12.1795 11.7928C12.3444 11.5237 12.5793 11.3733 12.8597 11.3019C13.1402 11.2304 13.4664 11.2379 13.8134 11.2847C14.1592 11.3313 14.5254 11.4169 14.8874 11.502V15.9981H14.8924V16.0031C15.3741 16.0031 15.8116 16.0007 16.2083 15.9985C16.9407 15.9944 17.5342 15.991 18.0114 16.0053C18.3792 16.0164 18.6776 16.0379 18.917 16.0775C19.1563 16.1172 19.3362 16.175 19.4672 16.2583C19.598 16.3415 19.6802 16.4503 19.7242 16.5926C19.7682 16.735 19.7739 16.9113 19.7511 17.1294C19.7157 17.4684 19.6117 17.907 19.4771 18.4747C19.4386 18.6369 19.3976 18.8097 19.355 18.9937H14.8924V18.9987H14.8874C14.8874 19.6584 14.8962 20.2034 14.9036 20.6584C14.9078 20.9159 14.9115 21.1445 14.9129 21.3488C14.9167 21.9145 14.9026 22.2935 14.8314 22.582C14.7603 22.8702 14.6322 23.0682 14.4073 23.2715C14.2113 23.4487 13.9419 23.6298 13.5728 23.878C13.5187 23.9143 13.4625 23.9521 13.4041 23.9915C13.3455 23.9521 13.2892 23.9142 13.235 23.8778C12.8657 23.6297 12.5962 23.4486 12.4 23.2715C12.1749 23.0682 12.0467 22.8702 11.9755 22.582C11.9042 22.2935 11.89 21.9145 11.8938 21.3488C11.8952 21.1442 11.8989 20.9151 11.9031 20.6571C11.9104 20.2024 11.9192 19.6577 11.9192 18.9987H11.9142V18.9937C11.26 18.9937 10.7195 19.0026 10.2681 19.01C10.012 19.0142 9.78471 19.0179 9.58161 19.0193C9.02017 19.0231 8.64395 19.0089 8.35758 18.937C8.0716 18.8653 7.87512 18.7361 7.67332 18.5093C7.49747 18.3116 7.31777 18.0401 7.07151 17.668C7.03536 17.6134 6.99778 17.5567 6.95856 17.4976C6.99771 17.4387 7.03523 17.3821 7.07132 17.3276C7.31768 16.9557 7.49743 16.6843 7.67332 16.4868C7.87511 16.2603 8.0716 16.1312 8.35758 16.0596C8.64395 15.9878 9.02017 15.9737 9.58161 15.9775C9.78438 15.9789 10.0113 15.9826 10.2668 15.9868C10.7185 15.9943 11.2594 16.0031 11.9142 16.0031V15.9981Z" fill="white" stroke="white" stroke-width="0.01"/>
</svg>
