<svg width="58" height="46" viewBox="0 0 58 46" fill="none" xmlns="http://www.w3.org/2000/svg">
<path fill-rule="evenodd" clip-rule="evenodd" d="M23.1649 39.7345C24.224 40.0219 24.6029 40.3549 24.7064 41.6144C23.0275 42.0701 23.8505 42.9203 21.9318 41.6144C22.1625 40.7372 22.5433 40.1977 23.1649 39.7345ZM20.3903 39.422C19.6992 39.422 19.7138 39.1736 19.1573 38.795C19.4941 37.3254 19.7166 37.6249 20.3903 36.6027L22.0023 38.0974C21.5803 38.7029 21.2608 39.422 20.3903 39.422ZM16.9997 36.6027C16.1219 35.2707 16.228 34.7284 17.6158 33.7833L19.2278 35.2781C18.6685 36.0278 18.089 36.5106 16.9997 36.6027ZM13.6082 33.4699C13.6082 31.644 13.7244 31.724 14.8412 30.9641L16.4532 32.4588C15.0005 33.4708 15.5195 33.9219 13.6082 33.4699ZM21.3158 21.2532C21.3158 23.3312 22.7895 25.3254 24.7064 25.3254C27.0434 25.3254 29.1643 22.5759 31.1004 20.5463C31.9141 19.6933 32.0414 19.1696 33.3385 19.0608C33.7211 23.7367 36.384 24.0725 39.5036 24.0725C43.1203 24.0725 43.8197 21.2346 43.8197 18.4339C39.3572 18.4339 45.0289 22.1927 37.9621 22.1927C35.0127 22.1927 35.1876 19.1371 35.1876 17.1809C30.9365 17.1809 31.9663 16.8182 29.8655 18.9771C29.384 19.472 29.2998 19.5845 28.8458 20.1342C28.2608 20.8439 26.1802 23.028 25.4378 23.2512C24.3549 23.5786 23.1649 22.841 23.1649 21.5667C23.1649 20.5519 25.3032 18.8785 26.279 17.8395C26.3229 17.793 26.3861 17.726 26.431 17.6804C26.4758 17.6349 26.5417 17.5707 26.5875 17.526L28.4393 15.649C32.262 11.4103 31.288 13.8212 35.9885 12.6697C36.9424 12.4362 37.4175 12.1302 37.6546 11.2289C39.1384 11.3545 39.6419 12.4632 40.506 13.3431L47.8273 20.9397C46.8506 22.4224 46.3343 21.8606 45.9718 24.066C45.5168 26.8286 45.2816 25.7682 44.1282 27.5188L41.4177 24.9459L40.0519 26.1961C41.123 27.7709 44.1282 29.6526 44.1282 31.2775C44.1282 31.3436 43.5039 34.4074 40.6332 31.6951L36.4206 27.5188L35.1189 28.7019C36.0517 30.0813 37.487 31.2821 38.6578 32.4504C41.6292 35.4167 40.0273 36.6027 38.5791 36.6027C37.9859 36.6027 37.3342 35.9189 36.9076 35.4818L34.9029 33.4466C34.8589 33.4001 34.7967 33.3322 34.7528 33.2857L34.1779 32.6169C33.3595 31.6951 33.4401 31.8291 32.413 31.2775L31.4363 32.482C32.6236 34.24 36.7291 37.0779 36.7291 38.795C36.7291 39.5252 35.9071 40.3614 35.1876 40.3614C33.0492 40.3614 30.3955 36.1803 28.714 35.0362L27.7363 36.2408C29.416 38.7308 32.5119 40.4767 32.868 42.1054C32.9842 42.6375 32.6657 46.4446 28.3286 42.0069C27.3317 40.9865 26.5545 40.2023 25.554 39.1866L14.7643 28.2228C13.0269 26.4574 12.6837 26.6127 12.3294 25.0594C11.7664 22.5945 12.1317 22.9089 10.8336 20.9397L20.6256 11.1544C22.3483 13.7319 23.3003 13.7347 27.1724 13.7347C26.5472 16.1141 21.3158 18.6385 21.3158 21.2532ZM35.1876 7.78362L36.7895 9.60387C34.6045 12.8557 30.9557 9.39464 28.714 12.7953C26.9299 11.5814 27.6539 11.9897 24.9993 11.8707C23.0504 11.7842 23.3022 10.9089 21.9318 9.97594L22.9095 8.77145C20.0534 6.80231 16.5155 1.37291 14.5336 1.20548C13.5432 2.43422 13.8901 2.65661 15.0637 3.79884L20.0827 9.03651L7.8275 21.6439L5.77062 19.8198C5.7276 19.7724 5.66628 19.7035 5.62234 19.657L3.46201 17.4674C2.34798 16.2787 1.93058 15.6025 0.660931 15.3011L0 16.2034C0.425656 17.6935 2.60429 19.312 3.66706 20.3919C4.89551 21.6411 6.53589 23.0102 7.44304 24.3859C8.11402 23.9292 8.00692 23.9144 8.61107 23.333C8.64311 23.3024 9.04773 22.934 9.06054 22.9266C10.6725 21.9322 10.0711 25.0482 10.8355 26.5774C11.2822 27.4713 12.6232 28.3708 13.2997 29.3977C12.7376 31.5389 11.7591 29.8535 11.7591 32.8439C11.7591 35.6418 13.7208 34.4308 14.8101 36.6343C15.4747 37.9784 15.1863 37.6212 16.5164 38.3467C18.0478 39.182 17.353 39.4303 18.1741 40.421C19.0309 41.4562 19.4713 40.8581 20.1569 41.8524C20.7867 42.7677 20.2219 43.0106 21.6243 43.8226C23.9109 45.1453 24.7586 43.5677 26.2479 42.5538C27.9908 43.7397 28.5995 46 31.4885 46C33.6323 46 34.7097 44.3156 34.8791 42.2413C36.1121 42.2134 36.8719 41.9045 37.5328 41.1781C38.2257 40.4163 38.5507 39.7633 38.5791 38.4815C41.0122 38.4267 42.0878 37.0492 42.2782 34.7228C47.8648 34.2503 45.4729 29.26 45.3612 28.7717C48.1824 26.8518 47.4666 25.252 47.9975 23.933C48.2264 23.3656 48.685 23.0753 49.0603 22.5061C50.2036 22.8158 49.4585 22.8224 50.6018 23.133L58 15.3011L57.0233 14.0966L50.3657 20.6997L37.888 7.85892L44.1996 1.27806L43.1506 0C42.7917 0.231609 42.5775 0.3554 42.1445 0.756298C41.8672 1.01395 41.5706 1.35808 41.2273 1.70317L35.1876 7.78362Z" fill="#FFBB00"/>
</svg>
