<svg width="88" height="69" viewBox="0 0 88 69" fill="none" xmlns="http://www.w3.org/2000/svg">
<mask id="path-1-inside-1" fill="white">
<path fill-rule="evenodd" clip-rule="evenodd" d="M35.1467 59.6018C36.7536 60.0329 37.3286 60.5324 37.4855 62.4215C34.9384 63.1052 36.1869 64.3804 33.2759 62.4215C33.6259 61.1058 34.2036 60.2966 35.1467 59.6018ZM30.937 59.1329C29.8884 59.1329 29.9106 58.7604 29.0662 58.1925C29.5773 55.988 29.9148 56.4374 30.937 54.904L33.3828 57.1461C32.7425 58.0544 32.2578 59.1329 30.937 59.1329ZM25.7927 54.904C24.4608 52.906 24.6219 52.0926 26.7274 50.675L29.1732 52.9172C28.3246 54.0417 27.4454 54.7659 25.7927 54.904ZM20.6469 50.2048C20.6469 47.4659 20.8233 47.586 22.5177 46.4461L24.9635 48.6881C22.7594 50.2062 23.5469 50.8829 20.6469 50.2048ZM32.3412 31.8798C32.3412 34.9967 34.5772 37.9882 37.4855 37.9882C41.0313 37.9882 44.2493 33.8639 47.1868 30.8195C48.4215 29.54 48.6145 28.7544 50.5826 28.5912C51.1631 35.605 55.2033 36.1088 59.9366 36.1088C65.424 36.1088 66.4851 31.8519 66.4851 27.6509C59.7144 27.6509 68.3198 33.289 57.5977 33.289C53.1228 33.289 53.3881 28.7056 53.3881 25.7714C46.9382 25.7714 48.5006 25.2273 45.3132 28.4657C44.5826 29.2079 44.4549 29.3767 43.766 30.2013C42.8785 31.2658 39.7216 34.542 38.5952 34.8768C36.9522 35.3679 35.1467 34.2615 35.1467 32.35C35.1467 30.8278 38.3911 28.3177 39.8716 26.7592C39.9383 26.6895 40.0341 26.589 40.1022 26.5207C40.1702 26.4523 40.2702 26.356 40.3397 26.289L43.1493 23.4735C48.9492 17.1154 47.4715 20.7318 54.6033 19.0045C56.0505 18.6543 56.7713 18.1954 57.1311 16.8434C59.3824 17.0317 60.1463 18.6948 61.4574 20.0147L72.5655 31.4096C71.0836 33.6336 70.3003 32.7909 69.7503 36.099C69.06 40.2429 68.7031 38.6523 66.9531 41.2781L62.8407 37.4189L60.7685 39.2941C62.3935 41.6563 66.9531 44.4788 66.9531 46.9163C66.9531 47.0154 66.0059 51.6112 61.6504 47.5427L55.2589 41.2781L53.2839 43.0528C54.6992 45.122 56.8769 46.9232 58.6532 48.6756C63.1615 53.125 60.731 54.904 58.5338 54.904C57.6338 54.904 56.645 53.8784 55.9977 53.2227L52.9561 50.1699C52.8894 50.1001 52.795 49.9984 52.7283 49.9286L51.8561 48.9254C50.6145 47.5427 50.7367 47.7437 49.1784 46.9163L47.6965 48.723C49.4978 51.36 55.7269 55.6169 55.7269 58.1925C55.7269 59.2878 54.4797 60.5421 53.3881 60.5421C50.1437 60.5421 46.1173 54.2705 43.566 52.5543L42.0827 54.3612C44.6312 58.0962 49.3284 60.7151 49.8687 63.1581C50.045 63.9562 49.5617 69.667 42.9813 63.0103C41.4688 61.4797 40.2897 60.3035 38.7716 58.7799L22.401 42.3342C19.765 39.6861 19.2442 39.9191 18.7067 37.5891C17.8525 33.8917 18.4067 34.3633 16.4373 31.4096L31.294 16.7317C33.9078 20.5979 35.3522 20.6021 41.2271 20.6021C40.2785 24.1711 32.3412 27.9578 32.3412 31.8798ZM53.3881 11.6754L55.8186 14.4058C52.5034 19.2836 46.9673 14.092 43.566 19.1929C40.8591 17.3722 41.9577 17.9846 37.93 17.806C34.9731 17.6763 35.355 16.3633 33.2759 14.9639L34.7592 13.1572C30.4259 10.2035 25.0579 2.05936 22.051 1.80822C20.5483 3.65133 21.0747 3.98491 22.8552 5.69826L30.4704 13.5548L11.8762 32.4658L8.75542 29.7297C8.69015 29.6585 8.59711 29.5553 8.53044 29.4855L5.2527 26.2011C3.56245 24.418 2.92915 23.4037 1.00279 22.9516L0 24.305C0.645823 26.5402 3.95133 28.968 5.56381 30.5878C7.42767 32.4616 9.91652 34.5153 11.2929 36.5789C12.3109 35.8938 12.1484 35.8716 13.0651 34.9996C13.1137 34.9535 13.7276 34.401 13.747 34.3898C16.1928 32.8983 15.2803 37.5724 16.44 39.8661C17.1178 41.207 19.1525 42.5562 20.1789 44.0965C19.3261 47.3084 17.8414 44.7802 17.8414 49.2659C17.8414 53.4627 20.8177 51.6461 22.4705 54.9514C23.4788 56.9676 23.0413 56.4318 25.0593 57.5201C27.3829 58.773 26.3288 59.1455 27.5746 60.6314C28.8745 62.1843 29.5426 61.2872 30.5829 62.7787C31.5384 64.1516 30.6815 64.5158 32.8092 65.7339C36.2786 67.7179 37.5647 65.3515 39.8244 63.8307C42.4688 65.6096 43.3924 69 47.7757 69C51.0284 69 52.6631 66.4733 52.92 63.362C54.7908 63.3201 55.9436 62.8568 56.9463 61.7671C57.9977 60.6244 58.4908 59.6449 58.5338 57.7223C62.2254 57.64 63.8573 55.5737 64.1462 52.0843C72.6225 51.3755 68.9934 43.89 68.8239 43.1575C73.1044 40.2777 72.0183 37.878 72.8239 35.8995C73.1711 35.0484 73.8669 34.613 74.4363 33.7591C76.171 34.2237 75.0405 34.2335 76.7752 34.6995L88 22.9516L86.5181 21.1449L76.4169 31.0496L57.4852 11.7884L67.0614 1.91709L65.4698 0C64.9254 0.347414 64.6004 0.5331 63.9435 1.13445C63.5226 1.52093 63.0726 2.03712 62.5518 2.55475L53.3881 11.6754Z"/>
</mask>
<path fill-rule="evenodd" clip-rule="evenodd" d="M35.1467 59.6018C36.7536 60.0329 37.3286 60.5324 37.4855 62.4215C34.9384 63.1052 36.1869 64.3804 33.2759 62.4215C33.6259 61.1058 34.2036 60.2966 35.1467 59.6018ZM30.937 59.1329C29.8884 59.1329 29.9106 58.7604 29.0662 58.1925C29.5773 55.988 29.9148 56.4374 30.937 54.904L33.3828 57.1461C32.7425 58.0544 32.2578 59.1329 30.937 59.1329ZM25.7927 54.904C24.4608 52.906 24.6219 52.0926 26.7274 50.675L29.1732 52.9172C28.3246 54.0417 27.4454 54.7659 25.7927 54.904ZM20.6469 50.2048C20.6469 47.4659 20.8233 47.586 22.5177 46.4461L24.9635 48.6881C22.7594 50.2062 23.5469 50.8829 20.6469 50.2048ZM32.3412 31.8798C32.3412 34.9967 34.5772 37.9882 37.4855 37.9882C41.0313 37.9882 44.2493 33.8639 47.1868 30.8195C48.4215 29.54 48.6145 28.7544 50.5826 28.5912C51.1631 35.605 55.2033 36.1088 59.9366 36.1088C65.424 36.1088 66.4851 31.8519 66.4851 27.6509C59.7144 27.6509 68.3198 33.289 57.5977 33.289C53.1228 33.289 53.3881 28.7056 53.3881 25.7714C46.9382 25.7714 48.5006 25.2273 45.3132 28.4657C44.5826 29.2079 44.4549 29.3767 43.766 30.2013C42.8785 31.2658 39.7216 34.542 38.5952 34.8768C36.9522 35.3679 35.1467 34.2615 35.1467 32.35C35.1467 30.8278 38.3911 28.3177 39.8716 26.7592C39.9383 26.6895 40.0341 26.589 40.1022 26.5207C40.1702 26.4523 40.2702 26.356 40.3397 26.289L43.1493 23.4735C48.9492 17.1154 47.4715 20.7318 54.6033 19.0045C56.0505 18.6543 56.7713 18.1954 57.1311 16.8434C59.3824 17.0317 60.1463 18.6948 61.4574 20.0147L72.5655 31.4096C71.0836 33.6336 70.3003 32.7909 69.7503 36.099C69.06 40.2429 68.7031 38.6523 66.9531 41.2781L62.8407 37.4189L60.7685 39.2941C62.3935 41.6563 66.9531 44.4788 66.9531 46.9163C66.9531 47.0154 66.0059 51.6112 61.6504 47.5427L55.2589 41.2781L53.2839 43.0528C54.6992 45.122 56.8769 46.9232 58.6532 48.6756C63.1615 53.125 60.731 54.904 58.5338 54.904C57.6338 54.904 56.645 53.8784 55.9977 53.2227L52.9561 50.1699C52.8894 50.1001 52.795 49.9984 52.7283 49.9286L51.8561 48.9254C50.6145 47.5427 50.7367 47.7437 49.1784 46.9163L47.6965 48.723C49.4978 51.36 55.7269 55.6169 55.7269 58.1925C55.7269 59.2878 54.4797 60.5421 53.3881 60.5421C50.1437 60.5421 46.1173 54.2705 43.566 52.5543L42.0827 54.3612C44.6312 58.0962 49.3284 60.7151 49.8687 63.1581C50.045 63.9562 49.5617 69.667 42.9813 63.0103C41.4688 61.4797 40.2897 60.3035 38.7716 58.7799L22.401 42.3342C19.765 39.6861 19.2442 39.9191 18.7067 37.5891C17.8525 33.8917 18.4067 34.3633 16.4373 31.4096L31.294 16.7317C33.9078 20.5979 35.3522 20.6021 41.2271 20.6021C40.2785 24.1711 32.3412 27.9578 32.3412 31.8798ZM53.3881 11.6754L55.8186 14.4058C52.5034 19.2836 46.9673 14.092 43.566 19.1929C40.8591 17.3722 41.9577 17.9846 37.93 17.806C34.9731 17.6763 35.355 16.3633 33.2759 14.9639L34.7592 13.1572C30.4259 10.2035 25.0579 2.05936 22.051 1.80822C20.5483 3.65133 21.0747 3.98491 22.8552 5.69826L30.4704 13.5548L11.8762 32.4658L8.75542 29.7297C8.69015 29.6585 8.59711 29.5553 8.53044 29.4855L5.2527 26.2011C3.56245 24.418 2.92915 23.4037 1.00279 22.9516L0 24.305C0.645823 26.5402 3.95133 28.968 5.56381 30.5878C7.42767 32.4616 9.91652 34.5153 11.2929 36.5789C12.3109 35.8938 12.1484 35.8716 13.0651 34.9996C13.1137 34.9535 13.7276 34.401 13.747 34.3898C16.1928 32.8983 15.2803 37.5724 16.44 39.8661C17.1178 41.207 19.1525 42.5562 20.1789 44.0965C19.3261 47.3084 17.8414 44.7802 17.8414 49.2659C17.8414 53.4627 20.8177 51.6461 22.4705 54.9514C23.4788 56.9676 23.0413 56.4318 25.0593 57.5201C27.3829 58.773 26.3288 59.1455 27.5746 60.6314C28.8745 62.1843 29.5426 61.2872 30.5829 62.7787C31.5384 64.1516 30.6815 64.5158 32.8092 65.7339C36.2786 67.7179 37.5647 65.3515 39.8244 63.8307C42.4688 65.6096 43.3924 69 47.7757 69C51.0284 69 52.6631 66.4733 52.92 63.362C54.7908 63.3201 55.9436 62.8568 56.9463 61.7671C57.9977 60.6244 58.4908 59.6449 58.5338 57.7223C62.2254 57.64 63.8573 55.5737 64.1462 52.0843C72.6225 51.3755 68.9934 43.89 68.8239 43.1575C73.1044 40.2777 72.0183 37.878 72.8239 35.8995C73.1711 35.0484 73.8669 34.613 74.4363 33.7591C76.171 34.2237 75.0405 34.2335 76.7752 34.6995L88 22.9516L86.5181 21.1449L76.4169 31.0496L57.4852 11.7884L67.0614 1.91709L65.4698 0C64.9254 0.347414 64.6004 0.5331 63.9435 1.13445C63.5226 1.52093 63.0726 2.03712 62.5518 2.55475L53.3881 11.6754Z" fill="white" stroke="white" stroke-width="0.02" mask="url(#path-1-inside-1)"/>
</svg>
