<svg width="215" height="173" viewBox="0 0 215 173" fill="none" xmlns="http://www.w3.org/2000/svg">
<path d="M97.469 69.0788L21.3445 112.36C15.8045 115.51 15.8045 120.617 21.3445 123.766L97.469 167.048C103.009 170.197 111.991 170.197 117.531 167.048L193.656 123.766C199.196 120.617 199.196 115.51 193.656 112.36L117.531 69.0788C111.991 65.9289 103.009 65.9289 97.469 69.0788Z" fill="#F9F9F9"/>
<path fill-rule="evenodd" clip-rule="evenodd" d="M208.921 62.1328C208.736 67.9499 209.036 73.8427 208.915 76.2542C208.823 78.0866 207.654 79.8213 205.366 81.1219L117.134 131.287C111.835 134.3 102.455 133.896 96.2894 130.391L11.211 82.0186C7.78532 80.0708 6.0443 77.5585 6.08101 75.1946C6.11035 73.3038 6.08977 65.6113 6.08148 61.3511C6.12111 59.4691 7.28946 57.6815 9.63386 56.3486L97.8664 6.18358C103.165 3.17083 112.545 3.57436 118.711 7.0802L203.789 55.4522C207.104 57.3365 208.845 59.8368 208.921 62.1328Z" fill="#D8EAFF"/>
<path fill-rule="evenodd" clip-rule="evenodd" d="M106.948 4C111.037 4.01705 115.351 5.00662 118.711 6.91691L203.789 55.2889C207.104 57.1732 208.845 59.6735 208.921 61.9695C208.736 67.7866 209.036 73.6794 208.915 76.0909C208.823 77.9233 207.654 79.658 205.366 80.9586L117.134 131.124C114.798 132.452 112.371 132.986 108.372 133.143L106.948 4Z" fill="#C4E0FF"/>
<path d="M96.289 6.55389L11.211 54.9256C5.01933 58.4459 5.01933 64.1535 11.211 67.6738L96.289 116.045C102.481 119.566 112.519 119.566 118.711 116.045L203.789 67.6738C209.981 64.1535 209.981 58.4459 203.789 54.9256L118.711 6.55389C112.519 3.03358 102.481 3.03358 96.289 6.55389Z" fill="#F5F8FF"/>
</svg>
