<svg width="207" height="124" viewBox="0 0 207 124" fill="none" xmlns="http://www.w3.org/2000/svg">
<path fill-rule="evenodd" clip-rule="evenodd" d="M200.32 60.3255C200.395 63.5421 200.366 67.7703 200.32 68.858C200.245 70.6233 199.127 72.2955 196.924 73.5479L112.509 121.543C107.44 124.425 98.4655 124.039 92.5663 120.685L11.1689 74.4058C7.91806 72.5576 6.21391 70.1776 6.26045 67.9322C6.27105 67.4146 6.32082 62.139 6.26552 59.5751C6.22758 57.8167 7.46675 56.1557 9.66015 54.9087L94.075 6.91403C99.1445 4.03184 108.119 4.41771 114.018 7.77178L195.415 54.0508C198.57 55.8447 200.232 58.1388 200.32 60.3255Z" fill="#E3F0FF"/>
<path d="M93.0271 6.58293L11.6301 52.8619C5.70633 56.2299 5.70633 61.6905 11.6301 65.0585L93.0271 111.337C98.9509 114.705 108.555 114.705 114.479 111.337L195.876 65.0585C201.8 61.6905 201.8 56.2299 195.876 52.8619L114.479 6.58293C108.555 3.21493 98.9509 3.21493 93.0271 6.58293Z" fill="#F5F8FF"/>
</svg>
