<svg width="215" height="233" viewBox="0 0 215 233" fill="none" xmlns="http://www.w3.org/2000/svg">
<path fill-rule="evenodd" clip-rule="evenodd" d="M208.921 161.239C208.736 167.056 209.036 172.949 208.915 175.36C208.823 177.193 207.654 178.927 205.366 180.228L117.134 230.393C111.835 233.406 102.455 233.002 96.2894 229.497L11.211 181.125C7.78532 179.177 6.0443 176.665 6.08101 174.301C6.11035 172.41 6.08977 164.717 6.08148 160.457C6.12111 158.575 7.28946 156.788 9.63386 155.455L97.8664 105.29C103.165 102.277 112.545 102.68 118.711 106.186L203.789 154.558C207.104 156.443 208.845 158.943 208.921 161.239Z" fill="#D8EAFF"/>
<path d="M96.289 105.374L11.211 153.746C5.01933 157.266 5.01933 162.974 11.211 166.494L96.289 214.866C102.481 218.386 112.519 218.386 118.711 214.866L203.789 166.494C209.981 162.974 209.981 157.266 203.789 153.746L118.711 105.374C112.519 101.854 102.481 101.854 96.289 105.374Z" fill="#F5F8FF"/>
<path d="M35.2776 164.089C44.5312 164.089 52.0327 160.63 52.0327 156.364C52.0327 152.097 44.5312 148.638 35.2776 148.638C26.024 148.638 18.5225 152.097 18.5225 156.364C18.5225 160.63 26.024 164.089 35.2776 164.089Z" fill="#D9E8F9"/>
<path d="M77.0913 166.001C90.7669 166.001 101.853 160.89 101.853 154.584C101.853 148.279 90.7669 143.167 77.0913 143.167C63.4156 143.167 52.3293 148.279 52.3293 154.584C52.3293 160.89 63.4156 166.001 77.0913 166.001Z" fill="#D9E8F9"/>
<path fill-rule="evenodd" clip-rule="evenodd" d="M87.0378 118.726C88.0384 118.33 87.7093 118.772 87.8147 120.089C87.9059 121.232 87.944 126.047 87.4088 126.806C89.1965 127.566 90.5104 128.58 92.2557 129.583C94.1379 130.664 95.4034 131.385 97.3349 132.473L151.771 163.834C155.375 165.973 165.398 172.927 168.063 169.918C166.162 170.204 167.51 170.047 166.954 169.748C166.972 169.714 166.995 169.612 167 169.641C167.005 169.672 167.045 169.542 167.053 169.526L167.253 169.102C168.048 167.306 167.468 167.04 167.47 164.584L167.475 147.11C167.448 145.48 167.14 144.741 167.97 143.837C167.019 140.894 167.944 145.356 167.672 142.879L167.446 140.682C167.543 138.62 167.466 136.462 167.493 134.386C162.778 134.553 159.766 132.043 156.768 130.374C153.58 128.598 102.523 99.3412 99.6953 97.3518C99.643 97.3149 99.5748 97.2574 99.521 97.2219L89.7833 92.1989C90.1383 94.0332 88.79 102.92 88.4883 105.429C87.9766 109.685 87.3133 114.321 87.0378 118.726Z" fill="#72ABFA"/>
<path fill-rule="evenodd" clip-rule="evenodd" d="M109.516 74.4192C108.97 75.6679 109.519 75.0467 108.143 75.5758C106.647 75.3891 93.3745 84.5796 91.4228 84.5275C90.3262 87.5203 92.5443 87.9363 94.6525 89.1693C96.5594 90.2848 98.0696 91.13 99.9285 92.1762L121.208 104.58C122.987 105.679 130.504 110.125 132.045 110.63L132.181 110.178C132.417 109.312 132.308 109.157 132.786 108.639L149.145 99.3334C149.469 96.9934 149.603 90.126 148.891 88.4541C148.324 88.3064 148.948 88.5378 148.109 88.1519C148.051 88.1251 147.644 87.9158 147.505 87.8428C147.005 87.5804 146.878 87.5116 146.309 87.1789C145.408 86.652 144.767 86.3044 143.975 85.8298L120.143 72.2808C116.284 70.15 114.389 71.8032 111.757 73.1899C110.995 73.5917 110.163 73.982 109.516 74.4192Z" fill="#2255BE"/>
<path fill-rule="evenodd" clip-rule="evenodd" d="M166.279 112.482L156.02 118.713C154.609 119.164 148.219 114.734 145.396 113.253C143.604 112.314 139.782 109.673 138.242 109.354C139.345 107.944 148.755 102.873 148.83 102.851C150.022 102.504 151.343 103.646 152.462 104.294C153.803 105.071 165.462 111.476 166.279 112.482ZM165.914 116.351C166.771 114.808 168.321 111.742 168.665 110.201C169.005 108.674 169.531 105.595 171.642 105.45L172.404 105.549C172.468 105.56 172.579 105.589 172.662 105.624C173.44 107.945 171.354 106.18 174.036 109.729C174.823 110.769 175.749 112.213 176.208 113.716C176.716 115.377 176.865 117.029 176.276 118.693C175.397 121.177 174.635 120.273 172.491 121.039C170.72 121.671 167.227 124.148 162.902 122.032C161.397 121.296 160.858 120.229 161.77 118.295C162.461 116.829 164.234 116.754 165.914 116.351ZM150.202 98.3582L150.259 89.7244C151.016 89.9449 156.141 92.2501 156.307 93.8248C156.502 95.6882 152.019 97.8194 150.202 98.3582ZM162.08 74.4603C163.58 75.0641 174.66 81.3962 175.733 82.3375L175.693 96.7197L153.522 84.0114L150.234 82.3355L150.676 71.0744C153.369 68.3849 152.409 68.6826 157.702 71.7891C158.946 72.5192 161.508 73.4953 162.08 74.4603ZM149.176 72.0067C149.993 73.1351 149.381 76.873 149.306 79.0889C149.224 81.5445 149.229 80.952 148.757 81.1245L148.892 88.4541C149.603 90.126 149.469 96.9934 149.145 99.3334L132.786 108.639C132.308 109.157 132.417 109.312 132.181 110.178L132.045 110.63C130.504 110.125 122.987 105.679 121.208 104.58L99.9285 92.1762C98.0696 91.13 96.5595 90.2848 94.6525 89.1693C92.5443 87.9363 90.3262 87.5203 91.4229 84.5275L89.5476 83.6764L89.8005 87.2917C90.9338 90.2853 90.7031 89.5154 93.4741 90.9843L108.013 99.4304C111.205 101.346 114.316 102.917 117.579 104.882C129.036 111.782 144.053 120.132 156.081 127.053C159.67 129.118 163.4 132.162 166.983 131.002C167.571 130.184 167.502 130.163 168.663 129.951C168.442 130 167.872 130.567 168.203 128.075C168.399 126.601 168.302 127.951 168.47 127.05L168.395 125.966C169.776 125.69 176.496 121.485 178.683 120.262C179.973 119.54 180.907 118.683 182.186 118.511L181.997 89.191C181.997 88.5693 181.971 87.5984 182.045 87.0062C182.229 85.5284 181.885 86.3474 182.655 85.382C183.884 85.948 183.069 84.8586 183.527 86.4264L183.486 98.0782L183.837 85.207L175.844 81.5563C174.502 80.7683 175.341 81.6429 174.927 80.6101C174.257 79.84 170.373 77.8163 169.006 77.0385C168.128 76.5394 167.078 75.9187 166.101 75.3383C165.195 74.7998 163.963 74.2566 163.306 73.4361C162.042 73.2608 155.595 69.2231 154.103 68.3944C152.671 67.6481 151.107 66.4079 149.249 66.4524L149.176 72.0067Z" fill="#D3E2FD"/>
<path fill-rule="evenodd" clip-rule="evenodd" d="M89.7832 92.1989L99.5209 97.222C99.5747 97.2575 99.6429 97.315 99.6952 97.3519C102.523 99.3412 153.58 128.598 156.768 130.374C159.766 132.043 162.778 134.553 167.493 134.386C167.466 136.462 167.543 138.62 167.446 140.682L167.672 142.879C167.944 145.356 167.019 140.894 167.97 143.837C167.14 144.741 167.448 145.48 167.475 147.11L167.47 164.584C167.468 167.04 168.048 167.306 167.253 169.102L167.052 169.526C167.045 169.542 167.005 169.672 167 169.641C166.995 169.612 166.972 169.714 166.954 169.748C167.51 170.047 166.162 170.204 168.063 169.918C169.917 169.652 178.186 164.426 180.474 163.04C184.506 160.598 189.479 158.272 192.724 155.788C193.998 153.989 193.041 153.516 193.13 151.776C193.192 150.574 193.468 148.603 193.321 146.821C192.741 139.84 193.03 124.025 193.03 116.5L183.448 121.859C182.34 122.382 181.395 123.033 180.364 123.677C178.078 125.104 175.967 126.069 173.73 127.475C171.959 128.589 168.996 130.646 166.983 131.002C163.4 132.163 159.67 129.118 156.081 127.053C144.053 120.132 129.036 111.782 117.579 104.882C114.316 102.917 111.205 101.346 108.013 99.4304L93.4741 90.9844C90.7031 89.5155 90.9338 90.2853 89.8005 87.2917C89.7152 89.3954 90.3063 89.8901 89.7832 92.1989Z" fill="#2C83E5"/>
<path fill-rule="evenodd" clip-rule="evenodd" d="M116.263 45.8439C115.848 46.5523 115.85 46.4917 114.591 47.2393L109.834 50.0179C110.548 50.3901 111.014 49.9705 111.968 49.4864L123.018 43.0731C124.558 42.2169 125.991 41.0837 127.541 40.701C127.799 43.4821 128.041 42.5541 123.978 45.016C121.608 46.4517 110.8 52.8838 109.59 53.029L109.516 74.4191C110.163 73.9819 110.995 73.5916 111.757 73.1898C114.389 71.8031 116.284 70.1499 120.143 72.2807L143.975 85.8298C144.767 86.3043 145.408 86.652 146.309 87.1789C146.879 87.5115 147.005 87.5804 147.505 87.8427C147.644 87.9157 148.051 88.1251 148.109 88.1519C148.948 88.5378 148.324 88.3063 148.892 88.454L148.757 81.1244C147.592 80.2437 145.144 79.1145 143.618 78.2325C141.755 77.156 139.911 76.2374 138.06 75.2021C136.224 74.1748 128.42 69.6527 127.027 69.4159L126.808 68.9837C125.743 67.2672 124.944 67.8732 123.799 66.5132C124.128 65.3016 124.743 65.4005 126.907 64.1409L152.133 49.8067C152.707 49.3728 152.398 49.6184 152.669 49.3516L150.987 47.7294C147.502 45.3934 150.143 42.2285 149.836 40.7134C144.919 43.8395 146.66 46.3228 138.657 43.6774C135.217 42.5402 133.027 41.2875 130.263 40.0823C129.241 39.6365 128.84 39.2088 127.485 39.0304C124.725 41.3688 119.473 43.4325 116.263 45.8439Z" fill="#ECECFA"/>
<path fill-rule="evenodd" clip-rule="evenodd" d="M70.1424 31.3558L69.7105 30.9002L69.2646 31.6942C69.0784 33.451 68.432 35.4327 69.1517 36.8037C69.9604 38.3444 70.9307 37.5972 71.0093 40.4328C67.1582 39.0665 57.7237 30.9014 56.085 27.2243C54.8942 27.4152 55.7346 27.1219 55.1244 27.4815L52.6372 29.7383C56.2839 30.1191 56.2857 29.542 58.8647 32.1652C61.8002 35.1509 63.0301 39.8163 64.1921 43.7668C65.6619 48.7639 68.7355 56.8654 70.5468 62.4806C70.9846 63.8373 70.9736 64.2185 71.6749 65.6221L73.9749 72.0197C74.2963 73.2197 74.2683 74.1105 75.0873 74.7371L79.2265 74.8746C79.2177 77.4611 79.4676 77.7186 80.517 79.3801C80.7379 78.1842 81.5441 77.8149 82.4823 77.6197C82.7885 77.0065 84.3257 76.1402 85.1202 75.3518C86.5329 73.95 86.1028 73.6832 87.0205 72.4456C86.8971 68.356 85.2784 65.1993 85.3517 61.5555C85.5006 56.6826 85.5613 51.1471 86.0099 46.3415C86.4608 41.5119 85.611 38.4507 83.4449 33.6175C83.4277 33.7017 83.2652 34.1946 83.1441 34.4112L82.3991 35.411L81.8491 34.2257C81.7394 33.8342 81.7273 33.5405 81.669 33.141C81.5486 32.3146 81.404 31.5867 81.2621 30.893C80.8567 28.9108 80.7528 28.5298 79.926 27.0061C78.8738 25.067 76.8729 22.5309 75.1594 21.5516C73.7214 22.6681 75.0255 22.6249 72.3522 23.3061C72.6349 24.4521 73.3569 25.6947 73.8571 27.0206C75.1545 30.4597 74.8423 37.1168 73.512 39.6361C70.969 36.2717 74.009 33.0251 70.1424 31.3558Z" fill="#EEDE20"/>
<path fill-rule="evenodd" clip-rule="evenodd" d="M97.4154 26.3671C96.8749 27.1046 96.8022 27.1844 95.5767 27.2866C95.6075 28.6686 96.2923 29.8344 96.6616 31.126C97.0874 32.6159 96.8301 33.7281 97.4154 34.948C96.0976 34.8383 95.7923 34.4367 94.8334 33.8524L84.2139 28.5362C82.5148 27.6895 83.1053 27.2945 81.9749 22.8073C81.6264 21.4247 81.2031 20.9702 81.173 19.6251C80.8091 20.1988 80.8666 20.5977 80.8666 21.4638C79.3467 20.4459 77.6579 20.0775 75.3505 19.9528L75.1592 21.5514C76.8727 22.5308 78.8736 25.0669 79.9258 27.006C80.7526 28.5296 80.8565 28.9106 81.2619 30.8929C81.4038 31.5866 81.5484 32.3144 81.6688 33.1408C81.7271 33.5404 81.7392 33.834 81.8489 34.2255L82.3989 35.4108L83.1439 34.411C83.2649 34.1945 83.4275 33.7016 83.4447 33.6174C85.6108 38.4506 86.4606 41.5118 86.0097 46.3414C85.5611 51.147 85.5004 56.6825 85.3515 61.5554C87.4568 61.6542 99.6771 69.397 102.453 70.9648L108.268 74.1696L108.047 50.3426C106.366 51.2838 105.23 52.4796 103.401 52.8945L99.7221 37.57C100.754 37.9775 107.183 41.7629 108.624 41.5392L109.042 41.1364C106.168 39.9286 103.514 38.1188 100.676 36.8944C98.4996 35.9551 99.1097 35.4078 98.5316 32.8648C98.116 31.0373 97.436 29.7261 97.3479 27.817C104.857 23.8679 115.284 17.1053 123.226 12.6118C123.971 12.1903 124.227 12.0726 124.997 11.8153C125.045 11.8924 125.097 11.9945 125.126 12.0557L128.267 24.397C128.774 26.4531 129.307 28.4491 129.899 30.7345C130.154 31.7173 130.395 32.759 130.674 33.9628C130.931 35.07 131.556 35.8859 130.723 36.1395C131.455 36.5351 132.432 36.5797 133.292 36.8262C133.993 37.0275 134.889 37.4005 135.556 37.5739C137.2 38.0005 138.8 38.5353 140.319 38.737C139.934 38.2997 140.279 38.6144 139.788 38.2602C139.423 37.9975 139.649 38.1592 139.203 37.8953C138.725 37.6124 138.51 37.4953 138.044 37.2229C136.392 36.2568 132.033 33.5167 130.819 33.4158C130.776 31.4799 129.973 29.389 129.528 27.6583C129.089 25.9475 128.497 23.7175 128.137 22.0004L125.303 10.4313C123.767 10.5592 112.608 17.6385 111.407 18.2941C110.072 19.0228 109.217 19.5727 107.936 20.3386L97.4154 26.3671Z" fill="#C8D8EA"/>
<path fill-rule="evenodd" clip-rule="evenodd" d="M108.624 41.5393L108.379 49.6919C109.714 49.1773 110.807 48.7224 112.24 47.9701C113.491 47.3134 114.806 46.2086 116.262 45.8439C119.473 43.4326 124.725 41.3688 127.484 39.0304C128.035 36.9908 122.404 40.0423 120.96 40.1379C118.184 36.2319 115.579 36.9457 113.846 36.6005C113.672 33.6004 119.093 35.8688 121.266 33.7222C120.014 32.1499 117.427 32.3423 117.446 30.0922C120.455 29.7532 124.759 33.1165 127.193 34.893C128.286 35.6913 129.437 35.7576 130.723 36.1395C131.556 35.886 130.931 35.07 130.674 33.9629C130.395 32.759 130.154 31.7173 129.899 30.7346C129.306 28.4491 128.774 26.4532 128.267 24.397L125.126 12.0558C125.097 11.9946 125.045 11.8925 124.996 11.8154C124.227 12.0726 123.971 12.1904 123.226 12.6118C115.284 17.1053 104.857 23.868 97.3479 27.8171C97.436 29.7262 98.116 31.0373 98.5316 32.8648C99.1097 35.4078 98.4995 35.9551 100.676 36.8945C103.514 38.1189 106.168 39.9287 109.042 41.1364L108.624 41.5393Z" fill="#2255BE"/>
<path fill-rule="evenodd" clip-rule="evenodd" d="M29.51 66.3569C30.5268 67.1842 31.0732 68.1907 32.083 68.7076C33.913 69.6444 37.5714 70.5709 39.6942 70.0842C40.4793 69.9043 40.2657 69.7474 41.6257 69.6781C42.3149 69.6429 43.0283 69.6313 43.7207 69.6802C43.7658 72.1035 43.3322 71.5512 41.295 71.9072C40.9062 73.0865 40.7318 73.5597 40.377 75.0671C39.2892 79.6894 37.6268 78.664 34.7941 80.8327C31.3981 83.4327 30.9045 87.8459 30.5943 91.7646L30.0692 91.0409C30.6987 93.7935 30.5295 93.6292 32.5356 94.9372C34.0934 95.9531 34.4984 96.975 35.5994 98.6264C37.1665 100.977 39.3933 104.881 39.0791 108.444C39.568 108.775 39.6972 108.907 40.4202 109.213C41.2715 108.914 40.0575 109.396 40.9024 109.175L41.8885 108.804C41.4787 105.262 41.4263 98.451 42.8661 96.0999C44.7687 96.1323 44.1294 97.1098 44.8829 98.7756C46.7637 102.932 46.9384 106.529 47.4953 111.353L48.6889 111.132C50.2588 108.876 50.1764 105.879 50.6607 102.197C50.7351 101.631 50.7452 101.059 50.8128 100.528C51.0177 98.9172 50.4696 99.9551 51.4066 98.9976C50.051 95.8373 52.4372 90.2354 52.265 86.4309C52.1691 84.3098 51.8032 81.8468 51.5989 79.7109C51.4064 77.6959 50.557 76.1768 50.2061 74.1374L49.5176 72.3083C49.5347 70.7564 49.5527 71.1809 50.8397 70.4567C51.5408 70.0623 51.8765 69.8477 52.6984 69.4775L51.7847 68.6584C51.1201 67.8291 50.8399 67.9134 49.9147 67.4435C49.1981 67.6987 49.6642 67.6022 48.8028 68.4779L47.8199 69.2835C47.6798 69.3758 47.3552 69.5642 47.2471 69.6314C46.1679 70.3028 46.5576 70.2681 45.4899 70.3235C45.6919 68.6699 46.9189 68.4136 47.4644 68.104C48.0231 67.7865 47.5856 68.1538 48.2244 67.5616C49.5583 66.3252 49.3663 65.6236 49.5487 62.588C48.2109 63.6807 48.8671 63.7615 47.9067 64.8162C47.4496 65.3184 43.5518 68.1862 41.8141 67.4252C41.3347 67.2162 39.9056 68.1673 38.2462 68.0479C36.8534 67.9474 35.5526 67.4352 34.2703 67.0593C32.464 66.53 32.2671 66.8225 31.1484 65.6886C28.8475 63.3563 31.1125 62.4298 29.3319 62.8556C28.9397 64.5733 29.313 64.8129 29.51 66.3569Z" fill="#065587"/>
<path fill-rule="evenodd" clip-rule="evenodd" d="M51.4067 98.9977L56.5519 101.861C58.085 102.78 56.8983 102.485 59.5519 103.595L66.9034 108.043C66.9572 108.079 67.031 108.129 67.0858 108.164C67.2822 108.29 67.383 108.336 67.6749 108.503C67.7341 108.537 67.8182 108.58 67.8759 108.613L68.797 109.189C71.206 109.774 72.0367 111.197 74.2608 111.619C74.4279 111.682 74.755 111.886 74.7632 111.89C75.2895 112.119 74.3978 111.963 75.8106 112.278C75.8235 109.193 76.1859 100.197 75.6036 97.776C74.037 97.5488 75.3793 97.9517 74.3166 96.9805L72.9487 95.5348C72.9042 95.4822 72.8504 95.4083 72.8058 95.3577C72.7621 95.3085 72.7037 95.2382 72.6597 95.1917C72.344 94.8581 72.4664 95.0062 72.1978 94.7735L69.1729 91.7713C66.9839 89.9254 67.6072 90.7934 67.0779 89.1925C68.4697 89.8253 75.4341 96.8178 75.5742 97.0549L75.6426 87.8763C73.9728 87.5345 54.8133 76.0804 51.8203 74.3727C50.5441 73.6444 50.5051 73.9575 50.2062 74.1374C50.5571 76.1769 51.4065 77.6959 51.599 79.7109C51.8032 81.8469 52.1692 84.3099 52.2651 86.4309C52.4373 90.2354 50.0511 95.8374 51.4067 98.9977Z" fill="#442312"/>
<path fill-rule="evenodd" clip-rule="evenodd" d="M86.021 131.789C87.6424 132.493 87.4846 132.822 88.7848 133.281L89.4623 133.474C90.4413 133.809 91.4913 134.803 92.6898 135.595C94.3949 136.721 94.1416 136.175 96.3884 137.719L107.245 144.024C108.775 145.317 108.007 144.024 110.413 145.759L121.157 151.871C121.787 152.221 122.126 152.598 122.803 152.982C123.186 153.2 123.2 153.172 123.615 153.397L128.268 156.099C128.972 156.487 129.362 156.649 130.08 157.044L136.307 160.625C138 161.89 136.972 160.664 139.776 162.672L141.852 165.193C142.061 164.863 142.027 165.186 142.131 164.553C142.177 164.275 142.158 163.944 142.158 163.66H143.078C143.584 165.059 144.396 164.7 145.876 165.765C147.289 166.782 147.646 168.09 149.068 168.348C152.155 168.906 149.575 168.524 153.012 170.274C153.701 170.625 154.039 170.728 154.667 171.071C156.219 171.919 161.272 175.661 164.292 176.156C164.962 176.266 165.995 176.268 166.692 176.253L168.074 176.089C168.145 176.061 168.224 176.019 168.288 175.987C168.823 175.715 168.478 175.898 168.82 175.551L167.288 175.602C166.855 174.835 167.255 175.552 166.993 174.662L166.729 172.038L178.265 165.765C178.797 165.436 179.293 165.024 179.911 164.668L183.074 162.94C183.657 162.612 184.155 162.353 184.661 162.082C185.261 161.762 185.729 161.437 186.357 161.052C187.401 160.412 188.437 159.846 189.743 159.155L192.396 157.478C194.755 155.694 191.271 158.845 193.024 156.918C192.167 156.1 192.369 157.205 192.724 155.788C189.479 158.271 184.506 160.598 180.474 163.04C178.186 164.426 169.916 169.652 168.063 169.918C165.398 172.927 155.375 165.973 151.771 163.834L97.3348 132.473C95.4033 131.385 94.1378 130.664 92.2556 129.583C90.5102 128.58 89.1964 127.566 87.4087 126.806C87.9439 126.047 87.9058 121.232 87.8145 120.089C87.7092 118.772 88.0383 118.33 87.0377 118.726C86.8974 122.007 85.345 129.098 86.021 131.789Z" fill="#D3E2FD"/>
<path fill-rule="evenodd" clip-rule="evenodd" d="M34.1231 127.328C32.5406 127.412 33.0793 127.487 32.1735 126.868L27.4202 123.999C26.8815 123.678 26.0201 123.582 25.3275 123.307C22.1251 122.034 22.1363 120.72 22.2688 118.61C22.5222 114.569 22.7187 114.934 24.0964 115.169L30.9742 118.816C32.3908 119.357 33.4195 119.559 34.6521 120.143C34.8649 122.484 35.0513 125.818 34.1231 127.328ZM34.4119 110.399C34.4802 110.348 34.8488 110.086 34.9291 110.04C36.6369 109.062 38.1624 109.889 39.0885 111.314L37.9841 113.378C36.9744 113.135 34.6394 111.69 33.7616 110.95L34.0843 110.658C34.7483 110.11 33.9669 110.732 34.4119 110.399ZM20.8013 104.209C20.2476 105.632 20.0961 112.492 19.8013 114.853C19.6966 115.69 19.3577 117.356 19.2882 118.324L18.1796 130.039C18.1526 130.251 18.0431 131.08 18.0431 131.789C18.55 132.128 18.9429 132.372 19.4753 132.808L27.7225 137.432C29.083 138.178 29.9948 138.496 29.9948 140.514L30.4952 141.654C32.2597 145.233 36.7528 143.456 36.8053 143.424C37.1906 143.189 36.5803 141.828 38.9259 141.273C40.8659 140.814 40.3512 141.316 41.6404 139.919C41.8677 138.845 41.5264 139.371 42.3577 138.623L44.6572 137.279C45.6774 136.518 45.0654 137.35 45.6242 136.087C37.4757 136.023 41.5627 133.335 37.2939 140.627L36.1964 141.9L37.8444 114.657C38.9762 109.91 42.4234 113.283 43.784 111.017C42.3639 110.411 41.7308 110.103 40.4202 109.213C39.6972 108.907 39.568 108.775 39.0791 108.444C38.8064 108.457 38.2502 108.311 37.928 108.157C37.8686 108.129 37.7869 108.085 37.7273 108.052L37.3366 107.803C37.2759 107.764 37.2062 107.708 37.1458 107.668L33.6725 105.741L33.4045 106.336C32.6362 108.467 33.3069 110.181 33.1237 112.288C32.8659 115.249 33.7107 115.516 31.8414 115.851C32.0086 113.506 32.6707 112.578 32.3289 110C30.7107 109.683 31.7225 109.716 30.3245 109.07C27.4961 107.762 26.0961 107.149 26.0042 105.128C25.9318 105.217 25.8746 105.331 25.8293 105.424L25.0174 109.712C24.9904 110.266 25.0072 110.104 24.9392 110.616C24.9277 110.701 24.8778 110.955 24.8679 110.914C24.8577 110.873 24.8337 111.122 24.7852 111.213C24.1788 110.962 23.5341 111.421 24.3933 108.617C24.4248 108.514 24.4555 108.454 24.4852 108.353C24.6781 107.689 25.0428 107.409 24.477 106.048C25.8932 106.006 25.3966 105.52 25.3933 103.903H23.2529L23.2545 105.128C20.8134 105.142 22.0937 104.998 20.8013 104.209Z" fill="#D5A374"/>
<path fill-rule="evenodd" clip-rule="evenodd" d="M158.963 41.9966C159.115 40.8796 159.561 39.4583 160.239 38.649L165.6 41.3837C165.676 43.0935 165.326 43.9734 164.53 45.0114C163.388 44.8226 159.84 42.9678 158.963 41.9966ZM147.323 35.8674C147.615 36.6758 147.871 36.9275 148.648 37.3652C149.57 37.8853 149.566 37.8103 150.861 37.9066C150.97 39.5222 150.381 39.4686 149.836 40.7135C150.143 42.2286 147.502 45.3935 150.987 47.7295C150.749 45.8828 150.802 47.2142 151.352 46.7652C156.132 47.748 152.669 45.4946 157.742 49.0888C159.765 50.5218 161.912 51.0983 164.53 49.8931C164.863 50.1594 164.784 49.9419 165.276 50.5728C166.942 51.8221 168.118 52.3552 170.659 52.448C171.385 51.3865 171.045 52.2487 171.719 51.3284C171.942 51.0232 172.347 50.0904 172.418 49.8851C173.449 46.9107 175.297 41.6557 174.629 38.9928C174.614 38.9346 174.583 38.8518 174.572 38.7941C174.252 37.153 175.252 36.796 171.716 33.8906C171.336 33.5781 171.42 33.6708 171.046 33.3347C170.447 32.7959 170.455 32.7526 170.064 32.172C169.166 30.8397 169.673 31.3722 167.564 30.0447C166.879 31.3994 165.772 31.6086 164.393 32.3459C162.75 33.2247 162.467 33.5946 160.02 33.3046C159.298 31.2817 159.647 31.082 159.942 29.0497C159.646 27.9221 159.298 28.0738 158.094 26.6441C157.522 26.9645 158.26 26.7818 157.392 26.6926C157.254 26.6785 156.527 26.5427 156.5 26.5422L155.462 26.7756C155.395 26.8005 155.313 26.8371 155.246 26.8639C153.836 27.4241 153.666 27.5695 152.686 28.621C152.643 28.667 152.584 28.7364 152.541 28.7818C152.497 28.8274 152.435 28.8933 152.39 28.938L148.358 32.8733C147.445 34.0029 148.454 33.2919 147.062 34.0287C147.233 34.7638 147.357 34.9211 147.323 35.8674Z" fill="#D3E2FD"/>
<path fill-rule="evenodd" clip-rule="evenodd" d="M57.5762 151.121L58.0691 151.886L63.0476 151.823C66.2657 146.989 65.6221 151.562 64.9836 143.398C64.2825 134.439 66.3673 123.734 67.9272 115.041C68.282 113.064 68.81 111.081 68.797 109.188L67.8759 108.613C67.8182 108.58 67.7341 108.537 67.6749 108.503C67.383 108.336 67.2822 108.29 67.0858 108.164C67.031 108.129 66.9571 108.079 66.9033 108.043L59.5519 103.594C58.636 108.87 61.7562 108.036 57.3867 121.179C54.9272 128.577 55.1518 130.459 55.4209 139.46C55.4736 141.223 55.8517 143.894 56.0155 145.607C56.2128 147.673 56.3505 150.154 57.5762 151.121Z" fill="#013152"/>
<path fill-rule="evenodd" clip-rule="evenodd" d="M80.5169 79.3801C80.7792 80.7917 81.1762 82.4813 80.6326 83.9296C80.23 85.6043 80.8054 84.9591 80.8929 87.0344L80.9011 96.8525C80.8933 101.304 81.0995 105.599 80.8502 110.056C79.2228 110.687 77.4549 112.317 75.8105 112.278C74.3977 111.963 75.2894 112.119 74.7631 111.89C74.7549 111.886 74.4277 111.682 74.2606 111.619C74.5429 112.969 74.0389 115.036 73.678 116.452C73.6011 116.754 73.3571 117.528 73.3354 117.626C73.1452 118.479 73.1169 119.804 72.9511 120.644L71.9795 123.513L71.1048 134.592C70.9365 136.092 70.9579 138.98 70.9297 140.548C70.9076 141.795 72.9296 143.529 73.8183 143.681C75.987 145.417 76.9306 144.186 79.3008 143.422C80.7789 142.946 83.7286 142.793 84.6488 141.733L83.7239 141.474L82.1299 135.177C81.8788 134.35 81.594 134.123 81.0256 133.627C81.9426 132.765 81.434 131.668 81.2403 130.204L81.2214 121.705C81.4557 120.06 81.5723 121.547 81.7589 117.999C81.9333 114.682 82.9736 109.775 83.1726 106.487C83.2765 104.772 82.384 105.954 81.7916 103.596C83.2791 104.15 82.6071 104.26 83.6068 104.752C83.3806 103.729 83.9842 99.8458 84.2356 98.1374C85.0309 92.7344 83.7822 78.0741 82.4821 77.6196C81.544 77.8149 80.7378 78.1842 80.5169 79.3801Z" fill="#013152"/>
<path fill-rule="evenodd" clip-rule="evenodd" d="M82.4821 77.6195C83.7822 78.074 85.0309 92.7343 84.2356 98.1373C83.9842 99.8457 83.3806 103.729 83.6068 104.751C82.6071 104.26 83.2791 104.15 81.7916 103.596C82.384 105.954 83.2765 104.772 83.1726 106.487C82.9736 109.775 81.9333 114.682 81.7589 117.999C81.5723 121.547 81.4557 120.06 81.2214 121.705L81.2403 130.203C81.434 131.668 81.9426 132.764 81.0256 133.627C81.594 134.123 81.8788 134.35 82.1299 135.177L83.7239 141.474L84.6488 141.733C85.0996 141.606 85.6933 141.365 86.1328 141.119L86.9134 140.588C88.8305 139.043 87.8523 138.699 87.3713 137.305C87.1414 136.011 86.867 136.071 86.5585 134.678C86.3536 133.752 86.1564 132.638 86.021 131.789C85.3451 129.098 86.8974 122.007 87.0377 118.726C87.3132 114.321 87.9765 109.685 88.4882 105.429C88.7899 102.92 90.1381 94.0331 89.7832 92.1988C90.3062 89.89 89.7151 89.3953 89.8004 87.2916L89.5476 83.6763L89.2323 80.9181C88.9338 79.1064 88.2122 76.2348 88.6056 74.5604C87.114 73.7605 87.8656 73.7903 87.0203 72.4455C86.1027 73.6831 86.5328 73.9498 85.1201 75.3517C84.3256 76.14 82.7883 77.0063 82.4821 77.6195Z" fill="#065587"/>
<path fill-rule="evenodd" clip-rule="evenodd" d="M22.9138 45.9806C23.25 46.5115 23.0747 46.2282 23.2528 46.8999L20.1435 51.7592L19.2635 55.4725C19.2426 55.5337 19.2041 55.6161 19.1819 55.68L18.5176 58.4071C17.7421 62.9037 17.442 65.8537 17.423 70.5042C17.4146 72.5128 17.7366 73.0827 17.7366 74.9693C19.5267 77.7152 23.4713 76.7584 25.0989 74.7356C25.3227 71.5174 27.4422 71.0812 28.9794 68.6211L29.5099 66.357C29.313 64.813 28.9397 64.5734 29.3318 62.8556C28.9638 59.0998 27.0569 61.6061 29.1599 56.7527C35.7986 56.25 35.1623 53.5234 32.1864 48.3629C29.8004 44.2257 26.374 41.8281 22.9138 45.9806Z" fill="#ECECFA"/>
<path fill-rule="evenodd" clip-rule="evenodd" d="M50.6125 60.0774L49.9225 61.9164L49.9408 62.5292C50.4244 63.3629 49.9702 63.428 51.057 64.7576C51.6664 65.503 52.0642 66.0865 52.7379 66.7544L54.521 68.3424C55.5614 69.3476 55.7373 69.1219 55.7373 70.8036C55.1047 70.1368 52.713 68.7391 51.7845 68.6584L52.6982 69.4775C51.8763 69.8477 51.5406 70.0624 50.8396 70.4568C49.5525 71.1809 49.5346 70.7565 49.5175 72.3084C53.8763 73.6232 51.3024 75.342 56.7392 72.0294C56.5346 70.5425 56.3862 71.7087 56.1069 70.2066C57.4006 70.3959 59.2958 71.9375 60.4077 72.8478C64.8184 76.4598 70.8754 78.3688 71.7703 81.975C70.7021 82.3844 70.123 82.6346 69.333 83.3683C74.5095 87.3855 73.4378 83.9331 75.9418 84.8785C77.4357 85.4425 76.9122 85.6447 78.8942 85.3621C79.07 84.9314 78.4206 85.5674 79.4218 84.7033C79.8407 84.3421 80.0524 84.257 80.6325 83.9296C81.1761 82.4813 80.7791 80.7916 80.5168 79.3801C79.4674 77.7186 79.2175 77.461 79.2263 74.8746L75.0872 74.7371C74.2428 75.5422 74.615 75.437 73.2052 75.3712C72.4775 74.5684 72.6693 73.9874 71.9564 72.9597L61.1469 61.7162C60.3814 60.9249 59.7204 60.7586 59.828 59.5533L59.1062 60.5137L50.9447 60.2731L50.6125 60.0774Z" fill="#FDA87A"/>
<path fill-rule="evenodd" clip-rule="evenodd" d="M33.1229 104.514C33.5827 103.392 33.7788 103.694 34.8774 103.235C36.5629 102.531 35.4664 102.534 36.1238 101.152C36.3451 101.429 36.2112 101.212 36.5044 101.713C37.3546 103.165 38.0519 106.296 38.2559 107.853L33.9864 105.719C32.6987 104.935 33.5336 105.499 33.1229 104.514ZM20.8011 104.209C22.0935 104.998 20.8132 105.142 23.2542 105.128L23.2526 103.903H25.3931C25.3963 105.52 25.8929 106.006 24.4768 106.048C25.0426 107.409 24.6779 107.689 24.485 108.353C24.4553 108.454 24.4246 108.514 24.3931 108.617C23.5338 111.421 24.1785 110.962 24.7849 111.213C24.8334 111.122 24.8574 110.873 24.8676 110.914C24.8776 110.955 24.9275 110.701 24.9389 110.615C25.0069 110.104 24.9901 110.266 25.0171 109.712L25.8291 105.424C25.8743 105.331 25.9315 105.217 26.0039 105.128L28.6147 104.356C29.6704 106.008 29.779 104.544 29.8281 107.397L31.457 107.134C31.5559 107.098 31.931 106.904 32.3218 106.811L32.3287 110C32.6704 112.578 32.0084 113.506 31.8411 115.85C33.7104 115.516 32.8657 115.249 33.1235 112.288C33.3066 110.181 32.6359 108.467 33.4042 106.336L33.6722 105.741L37.1455 107.668C37.2059 107.708 37.2756 107.764 37.3364 107.803L37.727 108.052C37.7866 108.085 37.8683 108.129 37.9277 108.157C38.25 108.311 38.8061 108.457 39.0788 108.444C39.3931 104.881 37.1663 100.977 35.5991 98.6264C34.4981 96.975 34.0932 95.9532 32.5354 94.9372C30.5292 93.6292 30.6985 93.7936 30.069 91.0409C29.3543 88.5371 25.8969 75.8943 25.0987 74.7356C23.4711 76.7583 19.5265 77.7152 17.7364 74.9693C17.1196 76.8648 17.5359 76.7629 18.1621 78.3449L19.6893 83.5605C19.9182 84.2905 19.9915 84.8828 20.1746 85.527C20.6336 87.1431 21.1114 86.8714 21.7785 88.5199C22.9313 91.3689 25.0913 100.93 25.0913 103.901C23.5266 103.901 21.8957 103.715 20.8011 104.209Z" fill="#EA9975"/>
<path fill-rule="evenodd" clip-rule="evenodd" d="M26.6239 39.0174C25.8995 39.4123 25.9375 39.6752 25.3919 40.4539C24.7919 41.31 24.6793 41.2999 24.1724 42.3555C28.9163 42.3388 30.2451 43.7377 32.8709 46.7874C36.4226 50.9123 36.0737 53.7542 37.205 55.9182C38.304 58.0196 43.5931 58.9917 47.0578 55.6841C48.8094 54.0118 50.7111 48.6952 54.3084 49.9644L54.0456 51.1909C55.596 48.8291 52.7714 46.3837 51.7994 45.3196C51.116 44.5714 50.328 44.0105 49.4862 43.0385C48.7359 42.1724 48.4657 41.4863 47.7671 40.5139C47.5977 41.2628 47.9711 40.7094 47.4297 41.1533C46.5597 40.0082 45.9754 39.9778 44.7638 39.1795C43.4574 38.3188 43.3498 37.9523 41.9978 37.4953C42.1144 39.2728 42.5547 41.503 42.1839 43.1596C39.9557 43.7059 34.7788 43.2324 32.7207 42.647C28.2116 41.3649 28.5032 39.5092 26.6239 39.0174Z" fill="#549FFF"/>
<path fill-rule="evenodd" clip-rule="evenodd" d="M153.522 84.0114L175.694 96.7197L175.734 82.3376C174.661 81.3962 163.58 75.0641 162.08 74.4603L155.748 81.6331C153.295 84.4077 155.318 83.7238 153.522 84.0114Z" fill="#549FFF"/>
<path fill-rule="evenodd" clip-rule="evenodd" d="M127.027 69.4159C128.42 69.6528 136.224 74.1748 138.06 75.2022C139.911 76.2375 141.755 77.156 143.618 78.2325C145.143 79.1145 147.592 80.2437 148.757 81.1245C149.228 80.952 149.224 81.5444 149.306 79.0888C149.38 76.873 149.993 73.135 149.175 72.0067C147.436 70.9016 146.871 71.0694 145.687 69.2225L147.903 65.3711C146.997 65.2101 145.681 65.1458 144.91 64.6743C146.471 62.0213 147.625 64.8354 149.594 62.6631L151.078 58.5699C151.635 57.41 151.72 57.5998 151.82 55.9468C149.696 56.8194 147.866 58.2424 145.496 59.4294L139.2 62.6466C137.102 63.8362 135.124 64.8297 133.001 65.9364C131.504 66.7172 127.695 68.1972 127.027 69.4159Z" fill="#2255BE"/>
<path fill-rule="evenodd" clip-rule="evenodd" d="M50.9744 30.6576C50.6183 31.682 50.6812 31.2272 50.4902 32.2993C53.5492 31.0749 55.7351 31.0697 57.5862 33.4156C59.0255 35.2392 59.4715 38.5836 59.5218 41.0746C59.6448 47.1619 59.8668 53.4871 59.8281 59.5534C59.7205 60.7586 60.3816 60.9249 61.147 61.7162L71.9565 72.9597C72.6694 73.9874 72.4777 74.5684 73.2053 75.3712C74.6151 75.437 74.243 75.5422 75.0873 74.7371C74.2683 74.1104 74.2962 73.2196 73.9749 72.0197L71.6748 65.622C70.9735 64.2184 70.9845 63.8372 70.5467 62.4806C68.7355 56.8654 65.6619 48.7639 64.192 43.7667C63.0301 39.8163 61.8002 35.1509 58.8647 32.1651C56.2857 29.542 56.2839 30.1191 52.6372 29.7382C51.7816 29.8131 52.3456 29.6097 51.651 29.949C50.3265 30.5963 51.2609 29.9829 50.9744 30.6576Z" fill="#FFBB00"/>
<path fill-rule="evenodd" clip-rule="evenodd" d="M47.1899 38.319L47.4629 39.0635C47.7816 39.4385 47.875 39.253 47.5844 39.545L47.7669 40.5138C48.4655 41.4862 48.7358 42.1723 49.486 43.0384C50.3279 44.0104 51.1158 44.5713 51.7993 45.3195C52.7713 46.3836 55.5959 48.829 54.0454 51.1908C54.0295 52.5681 51.4533 55.8197 50.6592 57.1023C50.109 58.4462 49.9501 58.3723 49.8808 60.0774H50.6126L50.9448 60.2731L59.1063 60.5136L59.8281 59.5533C59.8667 53.4871 59.6447 47.1618 59.5218 41.0745C59.4714 38.5835 59.0254 35.2391 57.5862 33.4155C55.7351 31.0697 53.5491 31.0748 50.4902 32.2992C50.6812 31.2271 50.6183 31.682 50.9744 30.6575C49.6695 31.8406 50.381 31.6554 50.5275 33.4158C49.4478 33.6672 49.715 33.5102 49.1903 34.2481C49.1535 34.2995 49.1069 34.3817 49.0757 34.4356L48.6898 35.7294C48.4026 36.7726 48.0533 37.9872 47.1899 38.319Z" fill="#ECECFA"/>
<path fill-rule="evenodd" clip-rule="evenodd" d="M166.279 112.482C165.462 111.476 153.804 105.071 152.462 104.294C151.343 103.646 150.022 102.504 148.83 102.851C148.755 102.873 139.345 107.944 138.242 109.353C139.782 109.673 143.605 112.313 145.396 113.253C148.219 114.734 154.609 119.164 156.02 118.713L166.279 112.482Z" fill="#4D76D1"/>
<path fill-rule="evenodd" clip-rule="evenodd" d="M22.9138 45.9804C26.374 41.8279 29.8004 44.2256 32.1864 48.3627C35.1623 53.5232 35.7986 56.2498 29.1599 56.7525C27.0569 61.606 28.9637 59.0996 29.3318 62.8555C31.1124 62.4297 28.8475 63.3563 31.1483 65.6886C32.267 66.8224 32.4639 66.53 34.2702 67.0592C35.5526 67.4352 36.8534 67.9474 38.2461 68.0478C39.9055 68.1673 41.3347 67.2162 41.814 67.4252C42.5494 66.5151 42.8351 65.0963 43.3418 63.8653C43.9771 62.3225 44.0315 62.2688 44.9559 60.9345C46.844 58.2094 46.7988 58.0564 50.6592 57.1022C51.4533 55.8197 54.0295 52.568 54.0454 51.1908L54.3082 49.9643C50.711 48.6951 48.8093 54.0117 47.0577 55.6839C43.593 58.9916 38.3038 58.0195 37.2049 55.9181C36.0735 53.7541 36.4224 50.9122 32.8708 46.7873C30.2449 43.7376 28.9162 42.3387 24.1722 42.3554C23.464 42.751 23.2803 42.9231 22.9103 43.8185C22.6006 44.568 22.4881 45.2297 22.9138 45.9804Z" fill="#2255BE"/>
<path fill-rule="evenodd" clip-rule="evenodd" d="M150.987 47.7295L152.669 49.3517C152.397 49.6185 152.707 49.3728 152.133 49.8068L126.907 64.141C124.742 65.4006 124.128 65.3017 123.799 66.5133C124.944 67.8733 125.742 67.2673 126.808 68.9838L127.027 69.416C127.695 68.1972 131.504 66.7173 133.001 65.9364C135.124 64.8297 137.102 63.8362 139.2 62.6467L145.496 59.4295C147.866 58.2424 149.696 56.8195 151.82 55.9469L152.307 56.1763C152.528 57.8911 152.142 58.6728 154.376 60.7358L154.698 61.0035C154.746 61.0409 154.822 61.0894 154.872 61.1262L155.621 61.6453C155.674 61.6902 155.742 61.7533 155.793 61.7997C156.893 62.804 155.634 62.4289 157.16 62.6697C157.972 62.6192 158.513 62.4904 159.297 62.2299C159.727 62.0874 159.958 62.0618 160.35 61.7353C160.884 61.2905 160.633 61.6437 160.967 60.9084C158.585 60.2587 155.821 59.7763 154.043 57.7185L153.78 57.387C153.745 57.3406 153.69 57.2683 153.656 57.2207C152.645 55.7933 152.115 54.3158 153.497 51.9346C156.258 51.7447 157.198 51.8878 159.473 52.6341C164.757 54.3679 161.748 54.0859 164.132 55.0352C164.778 53.6382 165.145 52.3338 165.276 50.5728C164.785 49.9419 164.863 50.1594 164.53 49.8931C161.912 51.0983 159.765 50.5218 157.742 49.0888C152.669 45.4946 156.132 47.748 151.352 46.7653C150.802 47.2143 150.75 45.8828 150.987 47.7295Z" fill="#A8C7F9"/>
<path fill-rule="evenodd" clip-rule="evenodd" d="M45.6243 136.087C46.0809 136.329 46.5919 137.247 46.2247 133.342L44.9263 119.001C44.8855 118.114 44.5604 119.063 45.0902 117.773L48.689 111.132L47.4954 111.353L44.4035 112.642L43.7841 111.017C42.4235 113.283 38.9763 109.91 37.8445 114.657L36.1965 141.9L37.294 140.627C41.5628 133.335 37.4758 136.023 45.6243 136.087Z" fill="#AF7758"/>
<path fill-rule="evenodd" clip-rule="evenodd" d="M19.5752 29.4303C21.4306 29.1267 21.5396 28.5342 21.5737 24.8424C21.5966 22.3894 21.6216 19.9398 21.6207 17.4794C21.6198 14.6278 21.5104 13.377 23.5531 11.9584C25.4134 10.6666 26.5851 10.596 29.5539 10.883C27.933 12.8344 30.6328 16.5336 30.9784 16.7951C33.548 18.7382 34.7496 15.1562 36.6647 15.1133C38.8755 19.8836 28.8842 20.8653 29.7247 26.3107C31.7438 23.8877 32.087 24.8229 35.597 23.662C37.9669 22.8783 38.445 21.5462 39.1183 19.5898C39.4813 18.5342 38.9676 19.5029 39.4948 18.6566C39.541 18.7263 39.5902 18.757 39.6022 18.883C39.8583 21.5483 39.9555 23.6092 36.8882 25.6261C36.0532 26.1755 35.0084 26.3761 34.2852 26.7821L34.024 26.3028C33.961 26.2492 33.7697 26.1627 33.6676 26.0622L33.0495 27.593C35.6128 31.088 41.8751 27.0406 42.7689 22.8242C43.4757 22.7982 42.9351 22.643 43.5633 23.0562L42.8514 21.7667C42.1486 21.0743 42.3899 19.6575 39.9043 16.1349C39.2581 15.219 38.7126 14.6649 37.7933 13.669C36.9841 12.7923 36.6491 11.9834 34.9268 11.515C35.8524 11.7826 35.0291 11.5801 35.5094 11.0444C34.1548 10.193 31.9382 3.60065 24.0621 7.5632C20.1358 9.53853 18.2805 14.3227 19.1269 19.4606C19.4232 21.2606 19.6664 22.3529 19.9805 24.1314C20.4299 26.6775 19.7164 27.0236 19.5752 29.4303Z" fill="#7B3A1D"/>
<path fill-rule="evenodd" clip-rule="evenodd" d="M63.0475 151.823C65.9682 151.901 66.3335 151.209 69.235 151.096C69.8667 150.138 70.0851 150.646 70.2009 149.249C70.2703 148.412 69.9872 147.65 69.8136 146.884C69.4525 145.292 69.3518 143.272 69.2743 141.595L70.8831 125.176C71.0589 124.248 71.2898 123.824 71.3665 122.901C72.5985 122.901 71.4967 122.784 71.9795 123.513L72.9512 120.643C73.1169 119.804 73.1452 118.479 73.3354 117.626C73.3571 117.528 73.6011 116.754 73.678 116.452C74.0389 115.036 74.5429 112.969 74.2606 111.619C72.0366 111.197 71.2058 109.774 68.7968 109.189C68.8098 111.081 68.2818 113.064 67.9271 115.041C66.3671 123.734 64.2824 134.439 64.9835 143.398C65.622 151.562 66.2656 146.989 63.0475 151.823Z" fill="#065587"/>
<path fill-rule="evenodd" clip-rule="evenodd" d="M19.5753 29.4302C19.5067 29.4237 19.4033 29.3384 19.3701 29.4073L18.3495 29.4317C18.3059 27.4726 17.8758 27.2866 15.8979 27.2866C15.0889 28.8155 13.9982 31.2618 16.8449 32.4727C19.3044 33.5189 21.4504 32.0776 22.512 30.5297C24.1764 28.1029 23.8214 27.4005 24.5549 24.2981C25.26 21.3152 25.2115 19.6907 28.1561 19.6251C28.1561 21.6982 27.5587 22.0214 28.5829 25.6339C29.0795 27.385 29.9956 29.1935 31.2207 30.0639C32.0254 30.7176 34.2765 32.775 36.2453 31.8835C34.8183 30.6628 33.7663 30.5177 32.4928 29.077C30.9904 27.3775 31.0757 25.4243 33.6677 26.0622C33.7698 26.1627 33.9611 26.2491 34.0241 26.3028L34.2853 26.7821C35.0085 26.3761 36.0533 26.1755 36.8883 25.6261C39.9556 23.6092 39.8584 21.5483 39.6023 18.883C39.5903 18.757 39.5411 18.7263 39.495 18.6566C38.9677 19.5029 39.4814 18.5342 39.1184 19.5898C38.4451 21.5462 37.9671 22.8783 35.5971 23.6619C32.0871 24.8229 31.7439 23.8877 29.7248 26.3107C28.8843 20.8653 38.8756 19.8835 36.6648 15.1132C34.7498 15.1562 33.5481 18.7382 30.9785 16.795C30.6329 16.5335 27.9332 12.8344 29.554 10.8829C26.5853 10.596 25.4136 10.6666 23.5532 11.9584C21.5105 13.377 21.6199 14.6278 21.6208 17.4794C21.6217 19.9398 21.5967 22.3894 21.5738 24.8424C21.5397 28.5341 21.4307 29.1267 19.5753 29.4302Z" fill="#442312"/>
<path fill-rule="evenodd" clip-rule="evenodd" d="M87.0203 72.4455C87.8655 73.7903 87.114 73.7606 88.6056 74.5604C88.8912 73.9423 92.3484 70.7812 94.6679 71.9711C95.5256 72.4111 96.6259 73.1727 97.557 73.7265C98.7637 74.4442 99.4801 74.5751 100.357 75.7068L90.0604 81.864C89.3701 80.3971 89.9739 81.4909 89.2323 80.9181L89.5475 83.6764L91.4228 84.5275C93.3745 84.5796 106.647 75.3891 108.143 75.5757L108.268 74.1697L102.453 70.9648C99.6772 69.397 87.4569 61.6543 85.3515 61.5554C85.2782 65.1992 86.8969 68.3559 87.0203 72.4455Z" fill="#ECECFA"/>
<path fill-rule="evenodd" clip-rule="evenodd" d="M127.484 39.0304C128.84 39.2088 129.24 39.6365 130.263 40.0823C133.027 41.2875 135.217 42.5402 138.657 43.6774C146.66 46.3228 144.918 43.8395 149.836 40.7134C150.381 39.4685 150.97 39.5221 150.861 37.9065C149.566 37.8103 149.57 37.8852 148.648 37.3652C147.871 36.9274 147.615 36.6758 147.323 35.8673C145.433 35.912 146.793 35.6904 145.548 36.804C144.676 37.5833 144.997 37.1864 144.177 38.2012C143.143 39.4817 142.029 39.2 140.319 38.7369C138.8 38.5353 137.2 38.0005 135.556 37.5739C134.889 37.4005 133.993 37.0275 133.292 36.8262C132.432 36.5797 131.455 36.5351 130.723 36.1394C129.437 35.7576 128.286 35.6912 127.192 34.893C124.759 33.1165 120.455 29.7531 117.446 30.0922C117.427 32.3422 120.014 32.1499 121.265 33.7222C119.093 35.8688 113.672 33.6003 113.846 36.6004C115.579 36.9457 118.184 36.2318 120.96 40.1379C122.404 40.0423 128.035 36.9907 127.484 39.0304Z" fill="#FDA87A"/>
<path fill-rule="evenodd" clip-rule="evenodd" d="M166.983 131.002C168.996 130.646 171.959 128.589 173.73 127.475C175.967 126.069 178.078 125.104 180.364 123.677C181.395 123.033 182.34 122.382 183.448 121.859L193.03 116.5C193.993 116.19 194.874 115.389 195.102 114.553C195.283 113.888 195.175 111.165 195.175 110.288C194.28 110.789 193.69 111.48 192.443 112.163L183.757 117.177L183.651 101.143L183.487 98.0782L183.527 86.4264C183.069 84.8586 183.884 85.948 182.655 85.382C181.885 86.3474 182.229 85.5284 182.045 87.0062C181.971 87.5984 181.997 88.5693 181.998 89.191L182.186 118.511C180.907 118.683 179.973 119.54 178.683 120.262C176.496 121.485 169.776 125.69 168.395 125.966L168.47 127.05C168.302 127.951 168.399 126.601 168.203 128.075C167.872 130.567 168.442 130 168.663 129.951C167.502 130.163 167.571 130.184 166.983 131.002Z" fill="#A8C7F9"/>
<path fill-rule="evenodd" clip-rule="evenodd" d="M108.268 74.1697L108.143 75.5757C109.519 75.0467 108.97 75.6679 109.516 74.4192L109.589 53.029C110.8 52.8839 121.608 46.4517 123.978 45.0161C128.041 42.5542 127.799 43.4821 127.541 40.701C125.991 41.0838 124.558 42.2169 123.018 43.0731L111.968 49.4864C111.013 49.9705 110.548 50.3902 109.833 50.0179L114.591 47.2393C115.85 46.4917 115.848 46.5524 116.262 45.8439C114.806 46.2086 113.491 47.3134 112.241 47.9701C110.808 48.7224 109.714 49.1773 108.379 49.6919L108.624 41.5393C107.183 41.763 100.754 37.9775 99.7223 37.57L103.401 52.8945C105.23 52.4797 106.366 51.2839 108.047 50.3426L108.268 74.1697Z" fill="#96B1E9"/>
<path fill-rule="evenodd" clip-rule="evenodd" d="M84.6488 141.733C83.7287 142.793 80.779 142.946 79.3009 143.422C76.9307 144.185 75.987 145.417 73.8184 143.681C73.8423 144.846 73.9421 145.109 74.6266 145.714C75.7752 146.729 75.7558 145.678 75.3506 147.418C76.9792 147.418 77.5184 147.179 78.4988 147.331C85.5308 148.422 83.9044 146.205 89.1793 149.219C90.3499 149.888 94.9156 150.788 97.0847 150.458C98.983 150.17 97.7139 149.563 100.174 149.563C100.345 148.753 100.464 148.373 100.09 147.217L99.3135 145.827C99.2794 145.768 99.2364 145.69 99.2031 145.631C98.1758 143.804 96.4461 141.831 94.3925 141.247C93.7488 141.064 93.8782 141.119 93.199 140.908C93.0698 140.868 92.2159 140.614 92.0265 140.534C90.8229 140.025 91.6712 140.285 90.9707 139.855C90.9369 139.835 90.8621 139.787 90.8281 139.769C90.3494 139.518 90.2616 139.743 89.0484 138.944C87.6465 138.02 88.3219 138.125 87.3713 137.305C87.8524 138.699 88.8305 139.043 86.9135 140.588L86.1328 141.119C85.6933 141.365 85.0996 141.606 84.6488 141.733Z" fill="#FFBB00"/>
<path fill-rule="evenodd" clip-rule="evenodd" d="M25.0989 74.7355C25.897 75.8943 29.3544 88.5371 30.0692 91.0409L30.5943 91.7646C30.9044 87.8459 31.398 83.4327 34.794 80.8327C37.6267 78.664 39.2891 79.6893 40.3769 75.0671C40.7317 73.5597 40.9061 73.0865 41.2949 71.9072C39.188 72.0673 35.7891 72.156 33.8112 71.594C32.7781 71.3005 31.8481 70.9616 31.0515 70.3682C29.9099 69.5177 30.1219 69.054 28.9794 68.621C27.4422 71.0811 25.3226 71.5173 25.0989 74.7355Z" fill="#013152"/>
<path fill-rule="evenodd" clip-rule="evenodd" d="M167.593 6.14088C167.589 7.61891 168.33 7.02431 167.206 8.46255L162.217 13.6284C160.935 14.7669 159.931 15.4818 157.995 16.1323C152.923 17.8364 154.916 15.7763 153.497 16.9563C153.497 18.952 153.352 19.2259 154.723 19.8197C154.782 19.7363 154.907 19.5612 154.94 19.5167C154.962 19.4868 155.037 19.3843 155.062 19.3507L155.336 18.9929C159.788 19.1526 162.192 17.4841 164.551 15.4544C165.078 14.6302 166.894 12.5939 167.631 11.6861C168.199 10.986 168.693 10.4254 169.028 9.73849L169.391 7.97365C169.449 6.2969 174.287 7.1476 173.712 11.3734C173.561 12.4846 173.39 12.3414 172.947 13.3251C172.848 13.3093 172.737 13.2642 172.662 13.2331L171.197 12.3917C170.826 13.7341 168.725 16.5215 167.633 17.5267C166.827 18.2675 166.884 17.8876 166.148 18.7632L167.51 22.1002C170.217 21.1379 167.801 18.3793 171.597 18.0217C171.57 21.15 169.867 20.7529 169.371 22.6897C170.472 24.0644 173.795 25.7864 175.751 26.485C178.2 27.3599 179.071 27.6448 181.743 27.6996L183.913 27.2866C183.846 27.2397 183.75 27.1883 183.7 27.1635C183.65 27.1389 183.549 27.0755 183.486 27.047C181.984 26.3596 180.028 26.3657 177.541 24.6905C176.421 23.9355 175.065 23.1118 174.395 22.0095C174.354 21.9425 174.176 21.5821 174.081 21.3961C173.79 20.8303 173.687 20.6807 173.401 19.9739C170.295 12.3063 178.628 13.0508 177.096 7.36672C177.056 5.73761 174.272 4.86853 172.844 4.56647C171.948 4.37671 170.765 4.1623 169.608 4.46941C167.54 5.01861 167.606 5.59 167.593 6.14088Z" fill="#442312"/>
<path fill-rule="evenodd" clip-rule="evenodd" d="M55.1228 13.8024C54.9699 13.5339 54.8256 13.1059 54.5816 12.7287C56.0645 12.0357 55.2317 11.2692 59.5324 10.1986C65.1442 8.80138 65.5582 9.49405 70.8374 5.91595C72.2626 4.95014 71.8919 5.65479 72.8939 4.02613C73.1807 3.55976 73.4366 3.11547 73.5006 2.6658C73.7201 1.12064 73.7147 1.49992 72.97 1.54263C73.5837 1.58488 73.159 1.54598 73.755 1.9608L74.431 2.46203C74.2661 1.43615 74.3335 1.80355 74.1246 0.931216C69.9741 -0.0357145 61.4612 -0.768168 58.1324 1.48759C54.3079 4.07904 52.6566 7.91706 53.6776 12.4728C53.9469 13.6752 53.9151 13.5859 55.1228 13.8024Z" fill="#7B3A1D"/>
<path fill-rule="evenodd" clip-rule="evenodd" d="M63.4864 17.7989L63.3479 20.5569L64.7117 21.0698C66.3761 21.7691 65.3414 21.5786 66.5701 22.5892C67.7732 23.5787 69.0967 23.2645 70.8058 23.5647L70.825 24.8334C71.1729 25.1939 72.2245 28.652 70.1424 30.0462V31.3557C74.009 33.025 70.969 36.2716 73.512 39.636C74.8423 37.1167 75.1545 30.4596 73.8571 27.0205C73.3569 25.6946 72.6349 24.452 72.3522 23.306C75.0255 22.6248 73.7214 22.668 75.1594 21.5515L75.3508 19.9528C75.6511 19.3614 75.8109 18.9806 76.1344 18.2624C76.6946 17.0193 76.5695 17.4863 77.1895 16.5606C76.6714 14.337 75.7393 14.7326 75.6526 11.6617C75.5806 9.11856 74.8162 8.14961 74.4312 6.41559C73.3678 7.75766 72.72 8.55243 71.0375 9.81851C70.9125 12.4936 71.4247 13.2505 70.0232 15.2153C68.7049 17.0634 68.4315 16.1364 67.6893 18.9324C66.869 18.8327 67.2489 18.9453 66.7044 18.4629C65.8638 17.7182 66.0349 16.7155 64.0453 16.6307L63.4864 17.7989Z" fill="#F0AE92"/>
<path fill-rule="evenodd" clip-rule="evenodd" d="M164.132 55.0351L163.255 60.8588C161.98 61.1903 161.834 61.6393 160.967 60.9083C160.633 61.6436 160.883 61.2904 160.35 61.7352C159.958 62.0616 159.727 62.0873 159.297 62.2298C158.512 62.4902 157.972 62.6191 157.16 62.6696C156.702 63.1823 157.246 62.8014 156.389 63.2675C153.853 64.6457 152.459 64.3887 149.75 63.4567L149.594 62.6631C147.625 64.8353 146.471 62.0213 144.91 64.6743C145.681 65.1458 146.997 65.21 147.903 65.3711L145.687 69.2224C146.871 71.0693 147.436 70.9015 149.175 72.0067L149.249 66.4523C151.107 66.4078 152.671 67.648 154.102 68.3944L155.192 67.8318C155.677 67.6925 156.248 67.6578 156.758 67.5739C160.683 66.9286 167.026 65.9818 168.283 61.7243L169.44 57.6466C170.075 56.0946 169.184 56.8606 170.352 56.6602C169.62 55.2671 170.633 55.3475 170.812 53.4655L170.659 52.4479C168.118 52.3551 166.942 51.8221 165.276 50.5727C165.144 52.3337 164.778 53.6381 164.132 55.0351Z" fill="#FDA87A"/>
<path fill-rule="evenodd" clip-rule="evenodd" d="M55.1228 13.8024C55.15 14.9054 56.4354 15.3459 57.1474 16.3761C57.8825 17.4395 58.3097 18.5904 59.1083 19.724C59.5775 20.3623 59.5292 20.364 59.9882 20.8547L62.8469 20.6396L63.3861 18.014C63.4044 17.9622 63.4403 17.8632 63.4862 17.7989L64.0451 16.6308C66.0348 16.7155 65.8636 17.7182 66.7042 18.463C67.2487 18.9454 66.8688 18.8327 67.6891 18.9325C68.4313 16.1365 68.7047 17.0634 70.023 15.2153C71.4245 13.2505 70.9123 12.4936 71.0373 9.81857C72.7198 8.55249 73.3676 7.75771 74.431 6.41564C74.977 5.44759 75.4745 3.39369 74.431 2.46207L73.7551 1.96084C73.159 1.54602 73.5837 1.58492 72.97 1.54266C73.7147 1.49996 73.7201 1.12067 73.5006 2.66584C73.4366 3.11551 73.1808 3.5598 72.8939 4.02617C71.8919 5.65483 72.2626 4.95018 70.8375 5.91599C65.5582 9.49409 65.1443 8.80142 59.5324 10.1986C55.2317 11.2692 56.0645 12.0358 54.5817 12.7288C54.8257 13.1059 54.9699 13.534 55.1228 13.8024Z" fill="#442312"/>
<path fill-rule="evenodd" clip-rule="evenodd" d="M43.5633 23.0563C42.9351 22.6431 43.4757 22.7982 42.7689 22.8242C41.8751 27.0407 35.6128 31.088 33.0495 27.5931L33.6676 26.0623C31.0756 25.4244 30.9903 27.3776 32.4927 29.0771C33.7662 30.5178 34.8182 30.6629 36.2452 31.8836C34.2764 32.7751 32.0253 30.7177 31.2206 30.0641C31.2206 31.7768 31.2976 31.3478 30.7256 32.6134C30.3306 33.4865 30.1041 34.2054 29.6364 34.9482C29.9994 36.3262 31.8537 37.7224 32.8748 38.1412C34.4112 38.7712 37.3782 38.5301 39.1884 38.3994C40.0427 36.5409 39.1889 36.3002 41.4742 35.4886C41.7367 34.6111 43.345 32.3413 44.3982 32.652C44.3982 30.9637 44.2819 31.8099 44.9081 30.8696C47.028 27.6865 45.282 28.7542 47.1047 25.6767C47.3721 25.2254 47.2146 25.5985 47.4628 25.0116C46.8518 24.0306 47.6852 24.3853 46.9114 23.2411C46.7079 22.9401 45.9688 22.5461 45.6241 22.1863C44.9205 23.1716 44.8892 24.7156 43.2451 25.1893L43.5633 23.0563Z" fill="#FDA87A"/>
<path fill-rule="evenodd" clip-rule="evenodd" d="M42.4432 153.787C44.2869 152.105 43.542 151.023 43.1997 148.644C42.2786 147.378 42.1706 147.565 41.9825 145.543C41.817 143.762 42.0459 143.228 41.6401 141.658C40.162 142.031 39.4847 142.161 37.7688 142.425C36.8441 144.692 37.2029 145.167 33.6561 144.907C31.1063 144.72 30.4431 144.283 29.6882 141.94C26.256 143.217 30.0457 148.188 30.823 149.681C31.8364 151.628 33.3746 155.582 34.8979 156.771C37.585 156.248 39.1137 154.341 42.4432 153.787Z" fill="#FDA87A"/>
<path fill-rule="evenodd" clip-rule="evenodd" d="M49.5175 72.3084L50.206 74.1374C50.5049 73.9575 50.5439 73.6444 51.8201 74.3727C54.8131 76.0804 73.9726 87.5345 75.6424 87.8763L75.574 97.0549C75.4339 96.8178 68.4695 89.8253 67.0777 89.1925C67.607 90.7934 66.9837 89.9254 69.1727 91.7713L72.1976 94.7735C72.4662 95.0062 72.3438 94.8581 72.6595 95.1917C72.7035 95.2382 72.7619 95.3085 72.8056 95.3577C72.8502 95.4083 72.904 95.4822 72.9485 95.5348L74.3164 96.9805C75.3791 97.9517 74.0368 97.5488 75.6034 97.776C76.5992 94.72 74.6099 90.4627 76.7261 87.5051L77.1786 87.8763C78.6544 89.4845 77.0806 89.035 78.7215 89.1992C79.3503 87.9891 78.5626 89.1801 78.8942 85.3621C76.9122 85.6447 77.4357 85.4425 75.9418 84.8785C73.4378 83.9331 74.5095 87.3855 69.333 83.3683C70.123 82.6346 70.7021 82.3844 71.7703 81.975C70.8754 78.3687 64.8184 76.4598 60.4077 72.8478C59.2958 71.9375 57.4006 70.3959 56.1069 70.2066C56.3862 71.7087 56.5346 70.5425 56.7392 72.0294C51.3024 75.342 53.8763 73.6232 49.5175 72.3084Z" fill="#7B3A1D"/>
<path fill-rule="evenodd" clip-rule="evenodd" d="M193.024 156.918C191.271 158.845 194.755 155.693 192.396 157.478L189.743 159.155C188.437 159.846 187.401 160.412 186.357 161.052C185.729 161.437 185.261 161.762 184.661 162.082C184.155 162.353 183.657 162.612 183.074 162.94L179.911 164.668C179.293 165.024 178.797 165.436 178.265 165.765L166.729 172.038L166.993 174.662C167.255 175.552 166.855 174.835 167.288 175.602L168.82 175.551C169.484 175.439 170.024 175.095 170.713 174.749L194.671 160.704C195.542 159.661 195.175 157.1 195.175 155.386L193.024 156.918Z" fill="#A8C7F9"/>
<path fill-rule="evenodd" clip-rule="evenodd" d="M163.306 73.4362C163.963 74.2566 165.195 74.7999 166.101 75.3383C167.078 75.9188 168.128 76.5395 169.006 77.0386C170.373 77.8163 174.257 79.8401 174.927 80.6102C175.357 80.8404 175.291 80.7635 175.869 80.9167C175.869 75.683 176.572 66.9073 174.765 63.0308C174.003 61.3936 174.067 61.7109 173.419 61.3034C173.779 62.5186 173.702 61.538 173.328 62.4496C172.961 63.3459 163.869 72.8455 163.306 73.4362Z" fill="#549FFF"/>
<path fill-rule="evenodd" clip-rule="evenodd" d="M78.8944 85.3621C78.5627 89.18 79.3504 87.9891 78.7216 89.1992C77.0808 89.035 78.6545 89.4845 77.1787 87.8763L76.7262 87.5051C74.61 90.4627 76.5994 94.72 75.6035 97.7759C76.1858 100.197 75.8234 109.193 75.8105 112.278C77.455 112.317 79.2229 110.687 80.8503 110.056C81.0996 105.598 80.8933 101.304 80.9012 96.8525L80.893 87.0343C80.8055 84.959 80.23 85.6043 80.6326 83.9296C80.0525 84.257 79.8408 84.342 79.4219 84.7033C78.4207 85.5674 79.0701 84.9314 78.8944 85.3621Z" fill="#AF7758"/>
<path fill-rule="evenodd" clip-rule="evenodd" d="M183.913 27.2866C185.801 27.1111 187.44 25.0079 188.439 23.6145C188.912 22.9549 189.594 21.8454 189.671 20.7844C189.813 18.7983 188.735 19.3187 186.901 19.3187C186.094 20.5236 184.837 22.6196 182.744 22.2793C180.835 21.9689 179.181 20.6277 178.366 19.2728C176.589 16.3178 179.111 13.2781 178.567 9.88781C178.186 7.51661 177.369 7.53836 177.096 7.36676C178.628 13.0509 170.295 12.3063 173.401 19.974C173.687 20.6807 173.79 20.8304 174.081 21.3962C174.176 21.5821 174.354 21.9426 174.395 22.0096C175.065 23.1118 176.421 23.9355 177.541 24.6906C180.028 26.3658 181.984 26.3596 183.486 27.047C183.549 27.0756 183.65 27.1389 183.7 27.1636C183.75 27.1883 183.846 27.2398 183.913 27.2866Z" fill="#7B3A1D"/>
<path fill-rule="evenodd" clip-rule="evenodd" d="M154.723 19.8197C155.666 22.1963 155.319 23.0738 156.904 25.107L157.453 25.7835C157.722 26.123 157.858 26.3132 158.094 26.6441C159.298 28.0738 159.646 27.9221 159.942 29.0497C160.531 28.2899 159.919 28.8685 161.817 28.2256C163.038 27.8117 164.503 26.7135 165.578 25.8915C166.39 25.2707 166.8 25.0423 166.981 24.4462C167.889 23.7665 167.218 24.362 167.812 23.5118C168.055 23.1638 168.3 22.7019 168.514 22.3833C169.304 22.5929 168.794 22.3643 169.371 22.6897C169.867 20.7529 171.57 21.15 171.597 18.0217C167.801 18.3794 170.217 21.1379 167.51 22.1003L166.148 18.7632C165.091 17.5506 165.515 16.6161 164.551 15.4545C162.192 17.4842 159.788 19.1526 155.336 18.9929L155.062 19.3508C155.037 19.3843 154.962 19.4868 154.94 19.5168C154.907 19.5613 154.782 19.7363 154.723 19.8197Z" fill="#FDA87A"/>
<path fill-rule="evenodd" clip-rule="evenodd" d="M153.522 84.0114C155.318 83.7238 153.295 84.4078 155.748 81.6332L162.08 74.4604C161.508 73.4954 158.946 72.5192 157.702 71.7891C152.409 68.6827 153.369 68.385 150.675 71.0745L150.234 82.3356L153.522 84.0114Z" fill="#549FFF"/>
<path fill-rule="evenodd" clip-rule="evenodd" d="M195.175 110.288V108.191C194.113 107.908 193.287 106.905 192.404 106.365C189.713 104.721 186.274 102.957 183.651 101.143L183.757 117.177L192.443 112.163C193.69 111.48 194.28 110.789 195.175 110.288Z" fill="#ECECFA"/>
<path fill-rule="evenodd" clip-rule="evenodd" d="M29.9948 140.514C29.5362 140.681 29.9541 140.453 29.4694 140.792C26.5111 142.859 27.603 145.534 28.7654 147.728C30.9443 151.841 29.6977 149.14 29.3819 152.934C30.6295 153.267 30.3662 153.75 30.8632 154.824C31.2433 155.645 30.8905 155.14 31.5073 155.712L32.627 157.052C34.3367 159.889 31.968 159.443 33.6027 159.498C34.9913 159.544 32.7304 159.301 34.8981 159.063C36.9912 163.019 41.0851 163.16 43.548 161.278C44.6483 160.437 44.7634 159.411 45.0113 157.839C44.3795 156.488 45.8646 157.715 44.3954 157.417C43.5287 157.242 44.1598 157.241 43.1732 157.513C43.7194 157.093 43.7131 157.181 44.0851 156.612C43.1129 155.581 43.4526 155.067 42.0774 154.612C42.3086 153.923 41.9479 154.117 42.4434 153.787C39.1139 154.341 37.5852 156.248 34.8981 156.771C33.3748 155.582 31.8366 151.628 30.8232 149.682C30.0459 148.188 26.2562 143.217 29.6884 141.94C30.4433 144.283 31.1065 144.72 33.6563 144.907C37.2031 145.167 36.8443 144.692 37.769 142.425C39.4849 142.161 40.1622 142.031 41.6403 141.658C41.832 140.754 42.1391 140.642 41.6403 139.919C40.3512 141.316 40.8658 140.814 38.9258 141.273C36.5803 141.828 37.1906 143.189 36.8052 143.424C36.7528 143.456 32.2596 145.233 30.4951 141.654L29.9948 140.514Z" fill="#2F6A94"/>
<path fill-rule="evenodd" clip-rule="evenodd" d="M172.06 109.008C172.424 110.253 174.477 111.967 175.206 114.328C176.106 117.245 175.363 119.897 172.191 119.796C170.846 117.647 171.562 116.991 168.083 116.447C169.19 114.148 170.664 111.179 172.06 109.008ZM165.914 116.351C164.234 116.754 162.461 116.829 161.77 118.295C160.858 120.229 161.397 121.296 162.902 122.032C167.227 124.148 170.72 121.671 172.491 121.039C174.635 120.273 175.397 121.177 176.276 118.693C176.865 117.029 176.716 115.377 176.208 113.716C175.749 112.213 174.823 110.77 174.036 109.729C171.354 106.18 173.44 107.945 172.662 105.624C172.579 105.589 172.468 105.56 172.404 105.549L171.642 105.45C169.531 105.595 169.005 108.674 168.664 110.201C168.321 111.742 166.771 114.808 165.914 116.351Z" fill="#4D76D1"/>
<path fill-rule="evenodd" clip-rule="evenodd" d="M154.103 68.3944C155.595 69.223 162.042 73.2608 163.306 73.4361C163.869 72.8454 172.961 63.3458 173.328 62.4495C173.702 61.5379 173.779 62.5185 173.419 61.3033C173.643 60.2926 173.712 61.0868 173.145 60.0652C173.043 59.881 172.408 59.0037 172.243 58.8003C171.595 58.0004 170.993 57.478 170.352 56.6602C169.185 56.8606 170.075 56.0946 169.441 57.6466L168.283 61.7243C167.026 65.9818 160.683 66.9286 156.759 67.574C156.248 67.6578 155.677 67.6925 155.192 67.8319L154.103 68.3944Z" fill="#549FFF"/>
<path fill-rule="evenodd" clip-rule="evenodd" d="M153.497 16.9563C154.915 15.7763 152.923 17.8364 157.995 16.1323C159.931 15.4818 160.935 14.7669 162.216 13.6284L167.206 8.46254C168.33 7.02431 167.589 7.6189 167.593 6.14088C165.707 6.68929 161.149 4.14078 156.991 7.7961L154.526 11.4606C154.22 12.2447 153.497 16.0244 153.497 16.9563Z" fill="#7B3A1D"/>
<path fill-rule="evenodd" clip-rule="evenodd" d="M34.123 127.328C35.0512 125.817 34.8648 122.484 34.6519 120.143C33.4194 119.559 32.3907 119.357 30.9741 118.816L24.0963 115.169C22.7186 114.934 22.5221 114.569 22.2687 118.61C22.1362 120.72 22.125 122.033 25.3274 123.307C26.0199 123.582 26.8814 123.678 27.4201 123.999L32.1733 126.868C33.0792 127.486 32.5404 127.412 34.123 127.328Z" fill="#FC9BCA"/>
<path fill-rule="evenodd" clip-rule="evenodd" d="M43.5632 23.0562L43.245 25.1892C44.8892 24.7155 44.9204 23.1715 45.624 22.1862C45.9687 22.546 46.7078 22.9401 46.9113 23.241C47.6852 24.3852 46.8517 24.0305 47.4627 25.0116C48.4842 23.9051 49.2435 21.3729 48.7808 19.5474C48.0496 16.6634 43.6613 12.5897 41.6499 11.6472C40.828 11.2624 35.8974 9.85763 35.5094 11.0444C35.029 11.5801 35.8523 11.7826 34.9268 11.515C36.649 11.9834 36.984 12.7923 37.7933 13.669C38.7125 14.6649 39.2581 15.219 39.9042 16.1349C42.3898 19.6575 42.1485 21.0743 42.8513 21.7667L43.5632 23.0562Z" fill="#442312"/>
<path fill-rule="evenodd" clip-rule="evenodd" d="M69.2351 151.096C69.2822 152.223 69.6828 152.51 70.2643 153.623C58.5104 154.455 62.9278 160.463 67.4815 161.622C69.2136 162.063 72.1142 162.198 73.2384 161.146C73.8568 162.759 74.0579 162.161 73.5104 163.659C72.2263 164.141 70.1821 163.96 68.4282 163.967C71.0965 164.235 71.0453 165.211 73.8185 163.354V157.225C72.3048 157.099 73.0261 157.309 71.6974 154.71C70.7111 152.781 71.6734 154.37 71.6734 151.402C71.2964 151.361 70.5021 151.982 70.5958 149.582C70.6183 149.01 70.7459 149.28 70.7385 148.32C70.7247 146.51 70.6532 147.581 70.3593 146.901C69.7026 145.384 69.9872 142.953 69.2745 141.595C69.3519 143.272 69.4527 145.291 69.8138 146.884C69.9873 147.65 70.2704 148.412 70.2011 149.249C70.0853 150.646 69.8668 150.138 69.2351 151.096Z" fill="#EEDE20"/>
<path fill-rule="evenodd" clip-rule="evenodd" d="M55.1243 27.4814C55.7344 27.1218 54.8941 27.4151 56.0848 27.2242C57.7236 30.9013 67.1581 39.0664 71.0092 40.4327C70.9305 37.5971 69.9602 38.3443 69.1515 36.8036C68.4319 35.4326 69.0782 33.4509 69.2644 31.6941C69.0275 31.0052 69.3948 31.5892 68.9149 31.195C66.9423 31.4889 67.0038 31.2256 66.8392 31.1862C66.77 31.1698 66.635 31.1877 66.5863 31.0824C66.5376 30.9772 66.4169 31.0136 66.3391 30.9666C64.1469 30.9418 59.8663 27.3063 58.4213 26.0607C58.8081 24.8997 59.2228 24.5521 59.4718 22.9961C58.1068 23.8118 55.5844 25.8509 55.1243 27.4814Z" fill="#ECECFA"/>
<path fill-rule="evenodd" clip-rule="evenodd" d="M68.4279 163.967C70.1819 163.96 72.2261 164.141 73.5102 163.659C74.0577 162.161 73.8566 162.759 73.2382 161.146C72.114 162.198 69.2134 162.063 67.4813 161.622C62.9276 160.463 58.5101 154.455 70.2641 153.623C69.6826 152.51 69.282 152.223 69.2349 151.096C66.3335 151.209 65.9682 151.901 63.0474 151.823L58.0689 151.886L57.576 151.121C58.0465 153.06 57.5024 153.059 58.36 154.57L59.2234 155.864C59.2569 155.915 59.3061 155.995 59.3403 156.049L61.0366 158.974C61.9609 161.19 61.8001 161.12 63.4987 162.641C64.7425 163.754 63.7222 163.119 65.7047 163.497C66.8246 163.71 67.2098 163.943 68.4279 163.967Z" fill="#FFBB00"/>
<path fill-rule="evenodd" clip-rule="evenodd" d="M160.967 60.9084C161.834 61.6394 161.98 61.1904 163.256 60.8588L164.132 55.0352C161.748 54.0858 164.757 54.3678 159.473 52.634C157.198 51.8878 156.258 51.7447 153.497 51.9345C152.115 54.3157 152.645 55.7933 153.656 57.2206C153.69 57.2683 153.745 57.3406 153.78 57.387L154.043 57.7184C155.821 59.7762 158.585 60.2586 160.967 60.9084Z" fill="#D3E2FD"/>
<path fill-rule="evenodd" clip-rule="evenodd" d="M26.6238 39.0172C28.5031 39.5091 28.2114 41.3648 32.7206 42.6469C34.7786 43.2323 39.9556 43.7057 42.1838 43.1595C42.5545 41.5029 42.1143 39.2727 41.9976 37.4952L41.4743 35.4885C39.1889 36.3 40.0428 36.5408 39.1885 38.3992C37.3783 38.5299 34.4112 38.771 32.8749 38.1411C31.8537 37.7222 29.9995 36.326 29.6364 34.948C28.9567 35.4593 28.6244 35.9496 28.0668 36.6966C27.4581 37.5121 26.8687 37.9745 26.6238 39.0172Z" fill="#ECECFA"/>
<path fill-rule="evenodd" clip-rule="evenodd" d="M88.6057 74.5604C88.2123 76.2348 88.9339 79.1065 89.2324 80.9182C89.974 81.4909 89.3702 80.3971 90.0605 81.864L100.357 75.7068C99.4802 74.5751 98.7638 74.4442 97.5571 73.7265C96.626 73.1727 95.5257 72.4112 94.668 71.9711C92.3485 70.7813 88.8913 73.9423 88.6057 74.5604Z" fill="#FBFDFD"/>
<path fill-rule="evenodd" clip-rule="evenodd" d="M40.4202 109.213C41.7307 110.103 42.3638 110.411 43.784 111.017L44.4033 112.642L47.4952 111.353C46.9383 106.53 46.7637 102.932 44.8828 98.7756C44.1293 97.1098 44.7686 96.1324 42.866 96.1C41.4262 98.451 41.4787 105.262 41.8884 108.804L40.9023 109.175C40.0575 109.396 41.2714 108.914 40.4202 109.213Z" fill="#013152"/>
<path fill-rule="evenodd" clip-rule="evenodd" d="M59.1084 19.724C59.1491 21.3202 59.3281 20.4651 59.4606 21.2398C59.5747 21.9075 59.4878 20.9636 59.4983 21.8633C59.5026 22.2487 59.4314 22.4355 59.4719 22.9961C59.2229 24.5522 58.8082 24.8997 58.4214 26.0608C59.8665 27.3063 64.147 30.9418 66.3392 30.9666L67.4238 30.7706C66.3148 30.3328 65.9295 30.0142 65.2444 29.4532C60.4583 25.5344 70.8229 24.833 70.8249 24.8335L70.8058 23.5647C69.0966 23.2646 67.7732 23.5787 66.5701 22.5893C65.3413 21.5786 66.3761 21.7692 64.7116 21.0699L63.3478 20.5569L63.4864 17.7989C63.4404 17.8632 63.4045 17.9622 63.3863 18.014L62.8471 20.6396L59.9883 20.8547C59.5293 20.364 59.5776 20.3623 59.1084 19.724Z" fill="#D0725C"/>
<path fill-rule="evenodd" clip-rule="evenodd" d="M41.814 67.4252C43.5517 68.1861 47.4494 65.3184 47.9066 64.8162C48.8669 63.7615 48.2108 63.6807 49.5486 62.588C49.3662 65.6236 49.5581 66.3251 48.2243 67.5616C47.5855 68.1537 48.023 67.7864 47.4642 68.104C46.9187 68.4135 45.6918 68.6699 45.4898 70.3234C46.5575 70.2681 46.1678 70.3028 47.247 69.6313C47.3551 69.5642 47.6797 69.3758 47.8198 69.2834L48.8027 68.4779C49.6641 67.6022 49.198 67.6987 49.9146 67.4435L49.9408 62.5291L49.9225 61.9163L49.8807 60.0773C49.95 58.3722 50.1089 58.4462 50.6591 57.1022C46.7987 58.0564 46.844 58.2094 44.9558 60.9345C44.0314 62.2689 43.977 62.3226 43.3418 63.8654C42.835 65.0964 42.5493 66.5151 41.814 67.4252Z" fill="#549FFF"/>
<path fill-rule="evenodd" clip-rule="evenodd" d="M164.551 15.4544C165.515 16.616 165.09 17.5505 166.147 18.7631C166.884 17.8876 166.827 18.2674 167.632 17.5267C168.725 16.5214 170.826 13.734 171.197 12.3916L172.662 13.233C172.737 13.2642 172.848 13.3092 172.947 13.325C173.39 12.3413 173.561 12.4845 173.712 11.3734C174.287 7.14754 169.449 6.29683 169.391 7.97358L169.028 9.73842C168.693 10.4254 168.199 10.9859 167.631 11.6861C166.894 12.5938 165.077 14.6301 164.551 15.4544Z" fill="#7B3A1D"/>
<path fill-rule="evenodd" clip-rule="evenodd" d="M172.06 109.008C170.664 111.179 169.19 114.148 168.083 116.447C171.562 116.991 170.846 117.647 172.191 119.796C175.363 119.897 176.106 117.245 175.206 114.328C174.477 111.967 172.424 110.253 172.06 109.008Z" fill="#ECECFA"/>
<path fill-rule="evenodd" clip-rule="evenodd" d="M159.942 29.0497C159.647 31.082 159.298 31.2817 160.02 33.3046C162.467 33.5946 162.75 33.2247 164.393 32.3459C165.772 31.6086 166.879 31.3993 167.564 30.0447C166.699 28.2071 166.981 27.0584 166.981 24.4462C166.8 25.0423 166.39 25.2707 165.578 25.8915C164.503 26.7135 163.038 27.8117 161.817 28.2256C159.919 28.8685 160.531 28.2898 159.942 29.0497Z" fill="#DF9359"/>
<path fill-rule="evenodd" clip-rule="evenodd" d="M42.4435 153.787C41.9479 154.117 42.3086 153.923 42.0775 154.612C43.4526 155.067 43.1129 155.581 44.0851 156.612C43.7131 157.181 43.7195 157.093 43.1732 157.513C44.1599 157.24 43.5288 157.242 44.3955 157.417C45.8647 157.715 44.3796 156.488 45.0114 157.839C46.7357 158.481 45.9539 157.578 48.076 157.531C48.076 154.511 48.9902 157.1 48.9743 154.806C48.971 154.337 48.074 152.378 47.8108 151.973C47.1293 150.924 44.5466 148.971 43.2 148.644C43.5423 151.023 44.2872 152.105 42.4435 153.787Z" fill="#16304E"/>
<path fill-rule="evenodd" clip-rule="evenodd" d="M66.3392 30.9666C66.417 31.0136 66.5377 30.9772 66.5864 31.0823C66.6351 31.1877 66.7701 31.1698 66.8393 31.1862C67.0039 31.2256 66.9424 31.4889 68.9151 31.195C69.3949 31.5892 69.0276 31.0052 69.2645 31.6941L69.7105 30.9001L70.1424 31.3557V30.0461C72.2244 28.652 71.1728 25.1939 70.8249 24.8334C70.8229 24.833 60.4583 25.5344 65.2444 29.4531C65.9295 30.0142 66.3148 30.3327 67.4238 30.7705L66.3392 30.9666Z" fill="#EA9975"/>
<path fill-rule="evenodd" clip-rule="evenodd" d="M150.202 98.3581C152.019 97.8194 156.502 95.6881 156.307 93.8248C156.141 92.25 151.016 89.9448 150.259 89.7244L150.202 98.3581Z" fill="#3571CE"/>
<path fill-rule="evenodd" clip-rule="evenodd" d="M28.9792 68.6211C30.1218 69.0541 29.9098 69.5178 31.0514 70.3682C31.848 70.9617 32.7779 71.3005 33.8111 71.5941C35.789 72.156 39.1879 72.0674 41.2948 71.9072C43.332 71.5513 43.7655 72.1036 43.7205 69.6803C43.028 69.6314 42.3146 69.643 41.6254 69.6781C40.2654 69.7474 40.4791 69.9043 39.6939 70.0842C37.5712 70.571 33.9128 69.6444 32.0828 68.7076C31.0729 68.1907 30.5265 67.1842 29.5097 66.3569L28.9792 68.6211Z" fill="#FFBB00"/>
<path fill-rule="evenodd" clip-rule="evenodd" d="M149.594 62.6631L149.75 63.4568C152.459 64.3887 153.853 64.6457 156.389 63.2676C157.246 62.8014 156.702 63.1824 157.16 62.6696C155.634 62.4289 156.893 62.8039 155.793 61.7996C155.742 61.7532 155.674 61.6901 155.621 61.6452L154.872 61.1261C154.822 61.0894 154.746 61.0409 154.698 61.0034L154.376 60.7358C152.142 58.6728 152.528 57.891 152.307 56.1763L151.82 55.9468C151.72 57.5998 151.635 57.41 151.078 58.5699L149.594 62.6631Z" fill="#549FFF"/>
<path fill-rule="evenodd" clip-rule="evenodd" d="M41.4744 35.4885L41.9977 37.4952C43.3497 37.9522 43.4573 38.3187 44.7637 39.1794C45.9754 39.9777 46.5596 40.0081 47.4296 41.1532C47.971 40.7093 47.5976 41.2627 47.767 40.5138L47.5844 39.545L47.4629 39.0634L47.19 38.319C47.0315 37.0914 46.6648 36.3021 46.1132 35.3782C45.8222 34.8909 45.5735 34.482 45.3031 34.0545C44.8576 33.3498 44.8076 33.4577 44.3984 32.6519C43.3451 32.3412 41.7369 34.611 41.4744 35.4885Z" fill="#2255BE"/>
<path fill-rule="evenodd" clip-rule="evenodd" d="M158.963 41.9965C159.841 42.9677 163.388 44.8226 164.53 45.0113C165.326 43.9733 165.676 43.0935 165.6 41.3837L160.239 38.649C159.561 39.4582 159.115 40.8795 158.963 41.9965Z" fill="#FBFDFD"/>
<path fill-rule="evenodd" clip-rule="evenodd" d="M26.004 105.128C26.0959 107.149 27.496 107.762 30.3243 109.07C31.7223 109.716 30.7106 109.683 32.3288 110L32.322 106.811C31.9311 106.904 31.556 107.098 31.4571 107.134L29.8283 107.397C29.7792 104.544 29.6706 106.008 28.6149 104.356L26.004 105.128Z" fill="#3EB6CE"/>
<path fill-rule="evenodd" clip-rule="evenodd" d="M33.123 104.514C33.5337 105.499 32.6988 104.935 33.9865 105.719L38.2561 107.853C38.0521 106.296 37.3547 103.165 36.5046 101.713C36.2114 101.212 36.3453 101.429 36.1239 101.152C35.4666 102.534 36.5631 102.531 34.8776 103.235C33.779 103.694 33.5828 103.392 33.123 104.514Z" fill="#065587"/>
<path fill-rule="evenodd" clip-rule="evenodd" d="M33.7615 110.95C34.6393 111.69 36.9743 113.135 37.9841 113.378L39.0884 111.314C38.1623 109.889 36.6368 109.062 34.929 110.04C34.8487 110.086 34.4801 110.348 34.4118 110.399C33.9668 110.732 34.7482 110.11 34.0842 110.658L33.7615 110.95Z" fill="#D7180A"/>
<path fill-rule="evenodd" clip-rule="evenodd" d="M142.771 165.805C143.086 166.12 143.88 165.364 143.127 165.64C143.119 165.643 142.257 165.291 142.771 165.805Z" fill="#C8D8EA"/>
<path fill-rule="evenodd" clip-rule="evenodd" d="M143.691 166.418V166.725L144.048 166.469L143.691 166.418Z" fill="#D3D0D1"/>
<path fill-rule="evenodd" clip-rule="evenodd" d="M97.4155 26.3673V26.0609L97.0579 26.3162L97.4155 26.3673Z" fill="#D3E2FD"/>
<path fill-rule="evenodd" clip-rule="evenodd" d="M143.691 166.418V166.112L143.333 166.367L143.691 166.418Z" fill="#D3D0D1"/>
<path fill-rule="evenodd" clip-rule="evenodd" d="M148.287 169.176C148.318 169.207 148.379 169.042 148.379 169.085L148.379 169.085C148.373 169.091 148.257 169.146 148.287 169.176Z" fill="#B3C9D4"/>
<path fill-rule="evenodd" clip-rule="evenodd" d="M100.48 146.192C100.511 146.223 100.571 146.058 100.571 146.101L100.572 146.101C100.565 146.107 100.45 146.162 100.48 146.192Z" fill="#C8D8EA"/>
<path fill-rule="evenodd" clip-rule="evenodd" d="M80.8669 148.644C80.8975 148.674 80.9581 148.509 80.9583 148.552L80.9585 148.553C80.9523 148.558 80.8365 148.613 80.8669 148.644Z" fill="#C8D8EA"/>
</svg>
