<svg width="125" height="192" viewBox="0 0 125 192" fill="none" xmlns="http://www.w3.org/2000/svg">
<path fill-rule="evenodd" clip-rule="evenodd" d="M121.007 154.124C121.052 156.052 121.035 158.585 121.007 159.237C120.961 160.295 120.281 161.297 118.942 162.047L67.6252 190.805C64.5434 192.532 59.088 192.3 55.5017 190.291L6.01909 162.561C4.04285 161.454 3.00688 160.028 3.03517 158.682C3.04161 158.372 3.07187 155.211 3.03825 153.675C3.01519 152.621 3.7685 151.626 5.1019 150.879L56.4189 122.121C59.5007 120.394 64.9563 120.625 68.5425 122.635L118.025 150.365C119.943 151.44 120.953 152.814 121.007 154.124Z" fill="#D8EAFF"/>
<path d="M55.7023 121.687L6.48544 149.67C2.90363 151.707 2.90363 155.008 6.48544 157.045L55.7023 185.027C59.2841 187.064 65.0913 187.064 68.6731 185.027L117.89 157.045C121.472 155.008 121.472 151.707 117.89 149.67L68.6731 121.687C65.0913 119.651 59.2841 119.651 55.7023 121.687Z" fill="#F5F8FF"/>
<path fill-rule="evenodd" clip-rule="evenodd" d="M46.0925 41.0081L80.4605 21.5378V91.8961L46.0925 111.514V41.0081Z" fill="#FEFEFE"/>
<path fill-rule="evenodd" clip-rule="evenodd" d="M22.1017 121.75L38.6299 112.377C39.6781 111.814 40.5838 111.153 41.7058 110.583C42.2493 110.027 42.9491 109.838 43.5544 109.311L43.5584 49.7824C42.7814 49.9497 42.8715 50.2604 42.1618 50.2934L42.1643 39.1759L79.648 17.57C79.8055 16.5685 79.6779 14.3219 79.7081 13.026C79.7434 11.5207 79.7658 11.927 79.4977 11.7979C77.5968 12.7363 71.0297 16.7207 68.7559 17.9928C65.293 19.9297 61.5814 22.2439 57.9904 24.2191C52.7153 27.1205 47.1329 30.554 41.8379 33.5441C40.2246 34.4551 38.1342 35.8009 36.4704 36.5895L36.4684 53.732L35.3616 54.2625L35.3889 28.9167C35.0416 29.4058 35.1474 29.9423 35.1538 30.5601C35.1927 34.3567 35.3103 53.9645 35.0522 54.2744C34.8525 54.9404 33.5395 55.4383 32.6432 55.9763C32.2562 55.0208 32.5554 34.5624 32.5793 30.2857C32.5864 29.0119 32.6974 28.0236 32.7276 26.8711L32.6314 27.0617C32.3891 27.6847 32.7931 26.4141 32.5576 27.2677C32.3462 28.0336 32.456 55.212 32.4477 56.0341L29.9218 57.5162C28.6336 58.1604 25.0759 60.4238 23.7486 61.0748L12.7653 67.4058C12.3664 67.9716 11.8352 67.7413 11.7344 68.3993L11.6588 112.325C11.6588 117.376 11.5123 122.67 11.6743 127.686C12.1816 127.521 13.9606 126.495 14.3915 126.213C16.8624 124.596 19.5289 123.316 22.1017 121.75ZM17.8522 118.822C17.3915 117.803 17.5379 116.444 17.5382 115.201C17.5391 111.489 17.5311 112.179 19.3954 110.958C19.8441 110.664 20.2624 110.478 20.7167 110.221C21.7704 109.625 22.3231 108.876 23.6787 109.035C24.054 110.166 23.8838 111.521 23.8838 112.735C23.8838 113.904 24.1281 115.347 23.2704 116.049C22.4666 116.707 20.4715 117.61 19.4555 118.282C18.7514 118.747 18.7543 118.72 17.8522 118.822ZM27.8462 112.392L27.9522 111.247C29.0602 110.739 32.2126 108.573 33.2818 108.42L33.2759 109.586L30.5446 111.138C29.7165 111.595 28.2984 112.646 27.8462 112.392ZM25.5046 111.219C25.3554 109.394 25.8177 109.623 27.0877 108.917C27.4999 108.688 27.8944 108.406 28.283 108.192C28.4429 108.105 28.4024 108.137 28.551 108.048L28.8828 107.823C29.2016 107.605 29.1083 107.56 29.6248 107.585L29.6372 108.901C29.2423 109.24 26.2173 111.073 25.5046 111.219ZM36.696 106.413C36.756 107.179 36.8906 107.38 36.38 107.815C36.0311 108.112 35.7614 108.238 35.3566 108.162L35.4622 106.967L36.696 106.413ZM31.9386 106.057C32.6521 105.669 33.5169 105.105 34.2462 104.732C35.0914 104.3 35.8585 103.585 36.7251 103.501C36.7251 105.288 37.0928 104.641 34.7437 106.013C33.6674 106.641 32.8871 107.219 31.9284 107.591L31.9386 106.057ZM22.5901 98.7655C24.2356 97.8453 23.8842 100.302 23.8832 101.231C23.8782 106.219 24.275 104.997 21.3077 106.85C17.4579 109.254 17.54 109.07 17.5382 105.888C17.5355 101.097 17.1748 102.037 20.0662 100.24C20.7701 99.802 21.711 99.2573 22.5901 98.7655ZM28.2752 100.231C29.3173 99.7444 33.2813 97.36 33.5847 97.3425L33.6175 98.6069L29.6905 100.833C29.1721 101.114 28.9654 101.403 28.2752 101.438V100.231ZM25.8391 100.236C25.9158 98.1091 25.8269 98.9528 27.3742 97.9728C28.0711 97.5315 29.0064 96.7809 30.0098 96.6068L29.997 97.9438C29.6984 98.2024 26.304 100.215 25.8391 100.236ZM35.7595 97.2064C35.7868 96.4662 35.4681 95.7122 37.0965 95.4266L37.0558 96.5742C36.893 96.7057 36.6831 96.8731 36.5113 96.9611C36.0589 97.1931 36.253 97.1186 35.7595 97.2064ZM23.8329 88.5665C23.9539 89.892 23.8809 91.2622 23.8835 92.6024C23.89 95.7881 23.7415 95.0585 20.2564 97.1655C16.9969 99.1365 17.5527 98.2144 17.5382 93.6972C17.5279 90.5357 18.0054 91.2279 21.2302 89.2318C22.095 88.6965 22.9127 87.9405 23.8329 88.5665ZM36.0179 92.9257C36.507 92.6405 36.8493 92.3542 37.1185 92.5196L37.0103 93.972C36.6906 94.1736 36.1712 94.4303 35.8197 94.6266C35.4339 94.842 35.0641 95.0384 34.6695 95.2723C33.9601 95.693 32.9878 96.293 32.2805 96.5957L32.311 95.0676L36.0179 92.9257ZM27.98 91.8374C27.9033 90.5918 27.7762 90.6472 28.7495 90.1658C29.7401 89.676 32.4112 87.8909 33.2289 87.6877C33.4484 89.3814 33.3116 88.8034 31.0828 90.183C30.4488 90.5755 28.6062 91.7647 27.98 91.8374ZM25.5078 90.6127C25.4505 89.7146 25.2566 89.3104 25.9635 88.8895C26.3991 88.6303 26.7954 88.4556 27.1998 88.2182C27.8036 87.864 28.9922 86.9383 29.6382 86.8998L29.6192 88.3248C29.0703 88.71 26.0286 90.4919 25.5078 90.6127ZM30.2732 86.4392C30.5567 86.1958 30.7122 86.0105 31.28 86.0516L31.2521 87.3979C30.9228 87.6026 30.6508 87.8363 30.2741 87.8762L30.2732 86.4392ZM31.9539 85.405C33.1281 84.8432 35.8981 82.9756 36.728 82.7485L36.6633 84.2576C36.1199 84.6364 32.4341 86.7803 31.9199 86.9178L31.9539 85.405ZM20.7773 85.4541C20.2896 84.7139 20.2836 84.5915 20.281 83.4316L20.2832 75.8933C20.2832 72.445 19.6572 69.3714 22.0627 67.7343L31.5893 62.2006C32.2492 61.835 34.0276 60.4834 34.935 60.7854C35.9336 61.118 35.5968 64.1446 35.5968 65.2104C35.5968 66.8996 35.5968 68.5888 35.5968 70.2779C35.5968 73.6474 36.2399 76.8225 33.8481 78.5542L24.3055 84.0723C23.377 84.6113 22.1448 85.6658 20.7773 85.4541Z" fill="#D1E6F6"/>
<path fill-rule="evenodd" clip-rule="evenodd" d="M102.282 67.923C102.395 69.2403 102.422 69.0759 101.469 69.615C100.626 70.0916 97.4495 72.0199 96.9579 72.0206L96.9715 70.8258L102.282 67.923ZM94.5342 70.7619C94.5499 69.913 94.3397 69.5142 94.9532 69.1211C95.4634 68.7942 98.3042 67.1666 98.7068 67.1421L98.6799 68.5161C98.1902 68.8989 95.1154 70.6887 94.5342 70.7619ZM92.7685 70.2786C92.9589 71.3337 92.9108 72.6524 92.8976 73.842C92.8695 76.405 91.8883 76.1549 90.6933 76.9227L89.5502 77.6836C89.5248 77.6981 89.4917 77.72 89.4665 77.7346C89.4411 77.7491 89.4073 77.7701 89.3819 77.7846C89.3248 77.817 89.2429 77.8617 89.1213 77.9256C88.322 78.3457 87.9121 78.8057 87.0618 78.7444C86.3839 77.8618 86.6499 76.9052 86.6499 74.9345C86.6499 73.4552 86.4235 72.9787 86.9999 72.1208C87.2157 71.7993 87.2032 71.7803 87.5175 71.575C87.6576 71.4837 87.5574 71.5681 87.7773 71.4192C88.5865 70.8706 89.4483 70.5811 90.227 70.0195C91.1163 69.3782 91.6377 69.5883 92.0644 68.689C92.2184 68.3647 92.1954 68.225 92.4075 67.947C92.6647 67.3884 92.9377 66.7116 93.6449 67.1109C94.0049 67.4594 93.447 68.5215 93.3539 68.7596C93.1886 69.1816 92.8351 69.8796 92.7685 70.2786ZM100.973 65.6213C101.695 65.209 105.248 63.0391 105.77 63.0843C105.831 64.0619 105.933 64.3629 105.251 64.7689L100.98 67.1551L100.973 65.6213ZM97.3304 59.869C97.9555 59.3022 99.1422 58.776 99.9026 58.3487C100.455 58.0384 102.078 56.9716 102.633 57.0214C102.634 58.4461 103.083 57.9183 100.336 59.4549C99.5754 59.8804 97.758 61.0811 97.2845 61.0342L97.3304 59.869ZM94.8962 58.3761C95.5308 58.0155 98.2722 56.2425 99.0053 56.1077C99.1189 57.9006 99.2965 57.4048 97.4452 58.4536C96.8007 58.8188 95.4882 59.7424 94.9309 59.7003L94.8962 58.3761ZM92.8652 59.2838C92.9647 60.5508 92.9141 61.8724 92.9162 63.1561C92.9185 64.6168 93.0851 65.215 91.9514 65.9774L89.4768 67.3678C88.2835 68.0313 88.3628 68.3543 87.0062 68.4896C86.8649 68.0617 87.1742 68.4253 86.6635 68.1053C86.5434 66.9283 86.6075 65.5863 86.6055 64.3887C86.6034 63.2258 86.453 62.0596 87.2281 61.4092C87.7361 60.9831 90.4143 59.63 91.308 59.047C91.5582 58.8836 91.5682 59.0272 91.696 58.6867C92.3257 57.8523 92.4383 55.9539 93.6849 56.2679C93.9913 57.4199 93.0702 58.2983 92.8652 59.2838ZM86.5777 52.3362C86.5777 51.1134 88.9209 50.0872 89.7906 49.5967L90.3189 49.3017C90.4903 49.2081 90.6066 49.156 90.7705 49.0663C91.0623 48.9063 91.387 48.6109 91.7669 48.5089C93.2051 48.1223 92.9096 49.2596 92.9096 50.2818C92.9073 51.4531 93.1125 54.5397 92.5313 55.2107L88.1366 57.9078C87.8415 58.0595 87.5551 58.1728 87.0618 58.1976C86.6453 57.7887 86.5777 57.8331 86.5777 57.1298V52.3362ZM101.339 54.6644C102.077 54.151 105.499 52.1058 106.111 52.0321L106.099 53.4521L103.687 54.8683C103.038 55.2578 101.968 55.9217 101.32 56.1647L101.339 54.6644ZM97.0143 50.1448C97.693 49.6527 98.7979 49.1603 99.5969 48.7121C100.368 48.2793 101.426 47.6328 102.27 47.2668L102.334 48.3644C102.305 48.3905 102.264 48.4208 102.242 48.4372L100.785 49.3681C97.2788 51.2354 96.7468 52.2467 97.0143 50.1448ZM94.5525 48.7107C95.5812 48.3055 97.6695 46.6073 98.6712 46.5406L98.7142 47.8437C97.9611 48.3261 95.4072 49.918 94.5415 50.1769L94.5525 48.7107ZM104.516 45.8991C104.936 45.683 105.204 45.4653 105.761 45.4013V46.4469L104.448 47.1383L104.516 45.8991ZM100.981 45.018C101.547 44.5839 105.53 42.3245 105.683 42.3381C106.166 43.9981 105.344 44.0816 103.878 44.9101C103.305 45.2337 102.904 45.4287 102.399 45.754C101.845 46.1107 101.359 46.5104 100.948 46.4921L100.981 45.018ZM87.7562 32.751C87.7562 31.5404 87.6798 30.8206 88.2692 29.867C89.0751 28.563 91.05 27.7732 92.332 27.0779L98.6819 23.413C99.9329 22.7517 102.819 20.4977 102.819 22.7528V36.3119C102.819 38.8865 100.605 39.7543 98.134 41.0751C96.163 42.1286 94.3176 43.4648 92.292 44.4177C90.5367 45.2435 89.5672 46.5825 88.0205 46.2178C87.5162 45.2619 87.7562 34.432 87.7562 32.751ZM109.938 11.0841C109.484 11.152 104.286 14.275 103.531 14.7074C102.912 15.0622 102.589 15.2725 101.971 15.6091C101.407 15.9162 100.939 16.2648 100.34 16.5599L84.2204 25.939C83.7768 26.5792 83.9879 39.9119 83.9879 40.5577C83.9879 55.4663 83.8813 70.5542 83.9876 85.4204C84.9936 85.3918 89.361 82.5682 90.6812 81.8367L100.3 76.2732C101.09 75.8862 101.214 75.7507 101.943 75.4038L102.424 75.0909C103.796 74.1605 105.863 73.1605 107.517 72.1114L109.92 70.7092C110.278 70.3112 110.297 70.3435 110.827 70.2406C110.941 69.1931 110.781 57.2177 111.007 56.7189C111.763 55.9034 111.988 56.9416 111.988 55.0761C111.152 55.1839 111.702 55.1197 111.259 55.2626C111.03 55.3366 111.376 55.3555 110.846 55.3906C110.846 55.2777 110.896 55.0148 111.011 54.8558C111.216 54.5732 111.05 54.791 111.24 54.6242C111.36 54.5181 111.296 54.9276 111.443 54.4751C111.462 54.4158 111.519 54.429 111.553 54.4004C111.002 54.4582 110.676 54.6192 110.977 53.7514C111.152 53.2483 110.924 53.7512 111.262 53.3881C111.422 53.2163 111.265 53.5493 111.541 53.0947L110.936 53.3652C110.836 52.2859 110.912 50.5001 110.962 49.1861C111.409 48.9013 111.839 48.7412 112.262 48.5007V47.4063C111.597 47.4921 111.823 47.4458 111.34 47.6847C111.157 47.7754 111.055 47.8715 110.768 47.9385C111.031 47.1757 110.772 46.5757 110.844 45.7652L111.055 44.364C111.049 44.3476 110.975 44.2887 110.944 44.2556V42.3381C111.769 41.7953 111.981 42.2416 111.988 40.8322C111.212 40.8465 111.233 40.8789 110.645 41.1823C110.952 40.6213 110.814 40.7015 111.002 40.1738L110.849 40.0862C111.066 39.3781 110.947 39.4677 111.334 38.8993C110.943 38.8599 111.187 38.9689 110.965 38.7772C110.95 38.045 110.957 37.3159 110.947 36.5781C110.935 35.629 110.559 35.4415 111.334 34.9714C110.736 34.9237 110.938 35.1638 110.859 34.4162L110.892 31.7922C111.06 31.6408 110.632 31.6255 111.274 31.6463C110.703 31.445 110.861 31.5172 110.872 30.012C110.882 28.6534 110.672 24.5446 111.047 23.9952C110.917 23.8072 110.992 23.992 110.924 23.6875C110.889 23.5332 110.891 23.4719 110.884 23.3121C110.873 23.0642 110.897 22.7126 110.897 22.4494C110.536 21.6827 111.045 12.5372 110.771 10.6626C110.206 10.8097 110.432 10.7772 109.938 11.0841Z" fill="#D1E6F6"/>
<path fill-rule="evenodd" clip-rule="evenodd" d="M35.3891 28.9166L35.3618 54.2624L36.4687 53.7319L36.4707 36.5894C38.1344 35.8008 40.2248 34.4551 41.8381 33.544C47.1331 30.554 52.7155 27.1204 57.9906 24.219C61.5816 22.2439 65.2933 19.9296 68.7562 17.9927C71.0299 16.7206 77.597 12.7363 79.4979 11.7978C80.1574 11.4325 79.7666 11.7551 79.8338 11.796L79.8051 21.3766C79.9148 21.6267 79.3038 21.7951 80.1823 21.6856C80.9117 21.1388 80.7053 21.3799 80.709 20.2875L80.6964 5.63288C80.6965 3.90958 81.0251 2.3358 79.6946 1.7423C78.3457 1.64474 74.9833 3.92029 73.6702 4.70757L39.7114 24.4417C37.2959 25.8737 36.4491 25.9303 35.3891 28.9166Z" fill="#2D4281"/>
<path fill-rule="evenodd" clip-rule="evenodd" d="M41.7059 110.583C42.5628 110.358 42.2732 110.569 43.0582 110.087L45.3184 108.785C45.4818 108.695 45.6888 108.609 45.8609 108.485C46.5132 108.012 46.118 108.02 46.1171 108.017C46.3892 108.697 46.3363 109.004 46.323 109.722L46.4476 111.382L46.3777 42.2011C46.382 41.0446 46.0011 41.3884 47.82 40.3692L62.9404 31.6417C67.7604 28.8578 73.2269 25.5916 77.9653 22.9752C78.3458 22.7651 78.6191 22.5938 79.0101 22.363L79.8048 21.9456C79.8342 21.9286 79.8692 21.9087 79.8977 21.8909L80.1822 21.6856C79.3037 21.7951 79.9147 21.6268 79.805 21.3767L79.8337 11.796C79.7665 11.7551 80.1573 11.4326 79.4978 11.7978C79.766 11.9269 79.7436 11.5206 79.7082 13.026C79.678 14.3219 79.8057 16.5685 79.6481 17.5699L42.1644 39.1759L42.162 50.2934C42.8716 50.2604 42.7815 49.9496 43.5586 49.7824L43.5546 109.311C42.9492 109.838 42.2495 110.027 41.7059 110.583Z" fill="#8196D5"/>
<path fill-rule="evenodd" clip-rule="evenodd" d="M46.4476 111.382L46.323 109.722C46.3363 109.004 46.3892 108.697 46.1171 108.017C46.118 108.02 46.5133 108.012 45.8609 108.485C45.6888 108.609 45.4818 108.695 45.3184 108.785L43.0582 110.087C42.2732 110.569 42.5628 110.358 41.7059 110.583C40.5839 111.153 39.6782 111.814 38.6301 112.377L35.44 114.105C35.2899 115.679 35.4048 117.811 35.4052 119.446C35.4069 124.872 36.4353 123.687 44.0087 119.116C46.0396 117.889 48.551 116.456 50.7673 115.203C59.7259 110.138 68.8803 104.662 77.7996 99.4949C81.5317 97.3327 80.5973 94.629 80.7702 91.7107L80.2669 91.7991C79.9328 92.1908 73.2252 95.9189 71.8723 96.7137L63.3577 101.633C58.0498 104.501 51.9356 108.325 46.4476 111.382Z" fill="#2D4281"/>
<path fill-rule="evenodd" clip-rule="evenodd" d="M72.6444 33.6455C71.2728 33.9635 63.3687 38.8989 61.3318 40.0167C57.7481 41.9834 56.1151 42.5876 56.1235 46.7207L56.124 58.6364C56.124 60.2335 55.616 63.3315 57.8288 62.8363C58.405 62.7073 59.2677 62.1232 59.7577 61.8626C61.5112 60.93 72.1218 54.8151 72.8366 54.1364C73.9511 53.0784 74.2863 51.7764 74.2818 49.7342L74.2815 37.8184C74.2815 36.1332 74.7735 33.1518 72.6444 33.6455Z" fill="#8DC1FC"/>
<path fill-rule="evenodd" clip-rule="evenodd" d="M91.7187 36.7154C91.4627 36.3215 91.0111 34.535 90.8358 33.9359C90.3632 32.3192 90.535 32.2398 91.7497 31.5602C97.8774 28.131 97.614 27.6429 97.2868 31.0712C97.1882 32.1057 97.2761 33.6012 96.7131 34.1896C96.3628 34.5556 93.9155 35.8238 93.147 36.236C92.5265 36.5689 92.4686 36.7965 91.7187 36.7154ZM96.8646 36.7033C96.9821 37.3017 97.1203 37.8897 96.8251 38.4172C96.4759 39.0418 96.2194 39.2382 95.4946 38.9627C95.4285 38.4205 95.4985 37.9894 95.6231 37.6064C94.9308 37.6993 95.1526 37.7417 94.5767 38.0673C94.2462 38.2542 93.9362 38.4118 93.6854 38.5561C94.4374 40.1138 93.1518 40.8718 92.8142 40.844C91.909 40.7694 92.6536 39.8422 92.3888 39.3135C92.2638 39.0639 91.8175 38.8428 92.3611 38.335C92.7292 37.9911 96.6502 35.907 97.2323 35.6155C97.2703 33.7901 97.5939 31.9575 97.7421 30.1484C97.9 28.219 97.984 28.6347 99.0795 26.9686C99.3607 26.541 99.4158 26.3018 99.9362 26.337C100.131 26.9613 99.2968 27.8456 98.9126 28.4408C98.3777 29.2689 98.473 30.1499 98.35 31.3041C98.2355 32.3795 98.1565 33.322 98.0285 34.3656C97.8467 35.8489 98.2128 36.2158 96.8646 36.7033ZM87.7565 32.7508C87.7565 34.4319 87.5164 45.2617 88.0207 46.2176C89.5674 46.5823 90.5369 45.2433 92.2922 44.4176C94.3179 43.4646 96.1633 42.1284 98.1342 41.0749C100.605 39.7541 102.82 38.8863 102.82 36.3117V22.7526C102.82 20.4975 99.9331 22.7515 98.6821 23.4128L92.3322 27.0777C91.0502 27.773 89.0754 28.5629 88.2695 29.8668C87.68 30.8205 87.7565 31.5402 87.7565 32.7508Z" fill="#C7C7FC"/>
<path fill-rule="evenodd" clip-rule="evenodd" d="M22.3382 82.5649C22.2378 81.7167 23.1161 79.2559 23.4012 78.3946C23.8095 77.1612 24.8398 76.1173 25.6028 75.2372C26.4295 74.2834 27.142 75.6328 29.1793 73.4784C29.8023 72.8195 29.6519 72.4836 30.9063 72.4984C32.0901 72.5122 32.2382 72.5548 32.6889 73.4375C34.4162 76.8208 33.7818 76.1699 29.3608 78.872C28.4625 79.421 23.1385 82.6747 22.3382 82.5649ZM28.7973 66.2382C30.9325 65.6662 30.6437 69.0821 30.1658 70.5075C29.7781 71.6647 28.5955 73.6284 27.1848 73.7785C24.26 74.0898 24.9949 67.2572 28.7973 66.2382ZM20.7774 85.454C22.1449 85.6657 23.3771 84.6112 24.3056 84.0722L33.8482 78.5541C36.24 76.8225 35.5968 73.6473 35.5968 70.2778C35.5968 68.5887 35.5968 66.8995 35.5968 65.2103C35.5968 64.1445 35.9337 61.1179 34.9351 60.7853C34.0277 60.4833 32.2492 61.835 31.5894 62.2006L22.0627 67.7342C19.6573 69.3713 20.2832 72.445 20.2832 75.8932L20.2811 83.4316C20.2837 84.5915 20.2897 84.7138 20.7774 85.454Z" fill="#FFBB00"/>
<path fill-rule="evenodd" clip-rule="evenodd" d="M53.6962 13.8504C53.8927 13.1595 56.738 11.7374 57.456 11.3499C59.0961 10.4644 60.8192 8.94444 61.6358 10.2895C61.381 10.8988 60.4225 11.2443 59.7768 11.6413C59.0965 12.0599 58.5106 12.3753 57.8675 12.7367C56.7919 13.3412 54.6553 15.1023 53.6962 13.8504ZM32.8267 26.3304C33.4202 26.0995 33.0065 26.1799 33.248 26.3138C33.0832 27.0461 32.9696 26.8563 32.9315 27.9543C33.2017 27.9585 33.5447 27.9371 33.7989 27.9514C33.9761 27.9612 33.9991 27.9625 34.1692 27.9971L35.1436 28.3682C34.7181 29.5084 35.0654 44.3258 35.0826 47.6794C35.0906 49.2787 35.2728 52.9403 35.0524 54.2743C35.3105 53.9644 35.1929 34.3566 35.1539 30.56C35.1476 29.9422 35.0418 29.4058 35.3891 28.9166C36.4491 25.9303 37.2958 25.8736 39.7114 24.4417L73.6701 4.70754C74.9832 3.92026 78.3457 1.64471 79.6946 1.74227C79.7122 1.22771 79.574 1.32794 79.1168 1.10395C78.7639 0.931013 78.6322 0.838024 78.3468 0.671335C76.139 -0.617127 75.9934 0.0971231 73.5484 1.56209C72.971 1.90784 72.551 2.03774 72.0323 2.36955L67.5129 4.99843C66.8795 5.30605 66.5727 5.53975 66.0354 5.8302C65.8477 5.93156 65.5358 6.04049 65.253 6.17941L59.4493 9.65456C57.904 10.3494 59.5812 9.30747 58.6261 10.0797L51.5035 14.168C51.0099 14.4475 50.6343 14.7745 50.1141 15.1109L41.1183 20.2139C40.6563 20.5366 40.0371 20.7803 39.5885 21.0353C38.7996 21.4835 35.0888 23.5269 34.4487 24.1068C33.7739 24.7182 33.117 25.3157 32.8267 26.3304Z" fill="#E8E7EB"/>
<path fill-rule="evenodd" clip-rule="evenodd" d="M32.8267 26.3305L32.7278 26.871C32.6976 28.0235 32.5866 29.0119 32.5795 30.2856C32.5556 34.5623 32.2564 55.0207 32.6434 55.9763C33.5397 55.4383 34.8527 54.9403 35.0524 54.2744C35.2728 52.9403 35.0906 49.2787 35.0826 47.6794C35.0654 44.3258 34.7181 29.5085 35.1436 28.3682L34.1692 27.9971C33.9991 27.9626 33.9761 27.9612 33.7989 27.9514C33.5447 27.9371 33.2017 27.9585 32.9315 27.9543C32.9696 26.8563 33.0832 27.0462 33.248 26.3139C33.0065 26.1799 33.4202 26.0996 32.8267 26.3305Z" fill="#CACAD7"/>
<path fill-rule="evenodd" clip-rule="evenodd" d="M22.3382 82.5651C23.1384 82.6749 28.4624 79.4212 29.3608 78.8721C33.7817 76.17 34.4162 76.8209 32.6889 73.4377C32.2382 72.5549 32.0901 72.5123 30.9062 72.4985C29.6519 72.4838 29.8023 72.8196 29.1793 73.4786C27.142 75.6329 26.4295 74.2836 25.6028 75.2373C24.8398 76.1175 23.8094 77.1613 23.4011 78.3947C23.116 79.256 22.2378 81.7169 22.3382 82.5651Z" fill="#FDFDFD"/>
<path fill-rule="evenodd" clip-rule="evenodd" d="M78.3717 116.128C77.0355 116.37 74.1058 115.69 73.5004 116.861C73.5122 118.456 76.9459 117.858 78.3878 117.897L78.3759 120.148C78.9193 120.582 79.3904 120.863 80.3233 120.681C81.538 120.444 81.2915 119.521 81.2896 117.903C82.5866 117.85 85.8932 118.458 86.1986 116.998C85.7346 115.659 82.6333 116.199 81.2907 116.178C81.2907 114.664 81.714 113.417 79.9371 113.367C77.986 113.313 78.3717 114.587 78.3717 116.128Z" fill="#FDFDFD"/>
<path fill-rule="evenodd" clip-rule="evenodd" d="M91.7185 36.7155C92.4685 36.7965 92.5264 36.569 93.1468 36.236C93.9154 35.8238 96.3626 34.5557 96.713 34.1896C97.276 33.6013 97.1881 32.1057 97.2867 31.0713C97.6139 27.643 97.8773 28.1311 91.7495 31.5603C90.5349 32.2399 90.3631 32.3193 90.8357 33.936C91.011 34.535 91.4626 36.3216 91.7185 36.7155Z" fill="#FDFDFD"/>
<path fill-rule="evenodd" clip-rule="evenodd" d="M50.7864 56.7189L52.3264 53.344C52.5969 52.7914 52.814 52.3254 53.1125 51.6839C54.2499 49.2396 52.121 49.0757 51.4445 49.5859C51.1396 49.8159 48.4024 55.6709 48.1658 56.2961C47.7298 57.4478 48.4215 58.0136 49.7722 59.3574C50.6763 60.2566 51.4925 61.8356 52.7927 61.0678C53.3176 60.7576 53.5187 59.952 53.1771 59.3818C52.9002 58.9193 51.2983 57.4216 50.7864 56.7189Z" fill="#C7C7FC"/>
<path fill-rule="evenodd" clip-rule="evenodd" d="M77.7963 34.5452C76.3278 35.3714 78.0335 36.9058 78.5416 37.4353C80.0799 39.0385 79.9341 38.5986 79.0213 40.5885C78.5028 41.7189 78.0322 42.7153 77.4471 43.9446C76.412 46.1197 78.4631 46.8 79.3095 45.8151L82.4412 39.2367C82.7864 38.2722 82.4036 37.9177 81.9703 37.4307C81.5138 36.9176 81.1547 36.5512 80.7683 36.1671C80.074 35.4767 79.2116 33.749 77.7963 34.5452Z" fill="#C7C7FC"/>
<path fill-rule="evenodd" clip-rule="evenodd" d="M28.7973 66.2383C24.9949 67.2572 24.26 74.0898 27.1848 73.7785C28.5955 73.6284 29.7781 71.6647 30.1658 70.5075C30.6437 69.0821 30.9325 65.6663 28.7973 66.2383Z" fill="#FDFDFD"/>
<path fill-rule="evenodd" clip-rule="evenodd" d="M18.2718 118.105L22.4858 115.674C23.4422 115.088 23.174 114.421 23.1722 113.146C23.1707 112.093 23.2461 110.786 23.1542 109.769C22.7958 109.777 19.5003 111.667 18.9707 112.012C18.0247 112.629 18.2327 113.409 18.2352 114.653C18.2371 115.657 18.152 117.168 18.2718 118.105Z" fill="#E5F1FD"/>
<path fill-rule="evenodd" clip-rule="evenodd" d="M18.2785 107.708L22.5394 105.33C23.3837 104.746 23.1687 103.983 23.1727 102.737C23.1866 98.4838 24.1185 98.7646 19.0199 101.659C17.9621 102.259 18.233 102.874 18.2357 104.244C18.2379 105.393 18.1715 106.569 18.2785 107.708Z" fill="#E5F1FD"/>
<path fill-rule="evenodd" clip-rule="evenodd" d="M18.2559 97.3409C18.8362 97.201 19.9991 96.518 20.5284 96.2094C22.1986 95.2359 23.0861 95.0071 23.1577 93.963L23.1371 89.1186C22.692 89.0942 19.4863 91.0629 18.9776 91.3597C18.5202 91.6267 18.3516 91.7114 18.2586 92.3218L18.2559 97.3409Z" fill="#E5F1FD"/>
<path fill-rule="evenodd" clip-rule="evenodd" d="M60.1878 69.1948C59.0459 71.4389 58.8265 73.9792 57.1577 73.9679C56.73 73.3205 55.9836 72.4537 55.4289 71.778C54.705 70.896 55.2036 69.4593 56.5925 69.4051C56.902 69.8344 57.4921 70.7787 57.8894 70.896C58.1914 70.3115 59.4387 67.3865 59.4695 66.9601C59.4112 66.7332 59.5087 66.8142 59.3249 66.7992C58.6185 67.4973 55.4106 68.9035 54.7427 69.6032C54.1217 70.254 54.3885 71.8687 54.3862 72.8801L54.3686 75.7701C54.3907 76.8863 54.5416 76.5996 55.3867 76.126L58.7905 74.1957C59.6152 73.7299 60.341 73.4924 60.4403 72.4641C60.5148 71.6929 60.5352 69.7457 60.4489 68.9954C60.3289 69.3153 60.3681 69.0853 60.1878 69.1948Z" fill="#FDFDFD"/>
<path fill-rule="evenodd" clip-rule="evenodd" d="M60.204 94.4284C59.4573 95.8827 58.5416 99.5267 57.3417 99.2297C56.917 98.9771 55.7879 97.4848 55.3979 97.0068C54.6064 96.0366 55.4133 94.7124 56.5645 94.6549C57.1835 95.2556 57.4263 96.0084 57.8896 96.1211C58.2086 95.5675 59.4669 92.5792 59.5047 92.1627L59.7345 91.543C58.8924 91.902 58.0547 92.4715 57.2427 92.9217C56.5782 93.2902 55.3628 93.9275 54.8497 94.3617C53.7308 95.3089 54.7359 99.8678 54.2954 101.47C56.2339 100.698 56.7528 100.119 58.5649 99.1437C59.2986 98.7489 60.2119 98.397 60.4009 97.5962L60.4952 95.0453C60.4636 94.2312 60.6161 94.4465 60.204 94.4284Z" fill="#FDFDFD"/>
<path fill-rule="evenodd" clip-rule="evenodd" d="M57.6154 82.4526C57.9995 82.0963 58.2907 81.4206 58.6265 80.8658C58.9546 80.3238 59.1141 79.6753 60.0646 79.8761C60.295 81.2662 59.0407 82.0179 58.8168 83.1814L60.0661 83.9736C60.2377 84.9032 59.8308 85.3201 59.2588 85.6541C58.458 85.5721 58.3572 85.1597 57.5732 85.0018C56.2778 88.3038 54.7758 88.0159 55.3534 86.5262C55.6269 85.8209 56.4503 84.9527 56.511 84.2544L55.239 83.4955C55.1429 80.6233 57.435 82.3846 57.6154 82.4526ZM54.4105 88.9807C54.933 88.9452 58.9592 86.5053 59.6125 86.1017C60.7662 85.3884 60.4533 84.4347 60.4677 82.8781C60.4791 81.644 60.5427 80.0115 60.4381 78.83C59.8659 78.8112 56.2312 81.0547 55.3466 81.5723C54.7245 81.9363 54.3715 82.2904 54.3715 83.1519L54.4105 88.9807Z" fill="#FDFDFD"/>
<path fill-rule="evenodd" clip-rule="evenodd" d="M54.4107 88.9807L54.3717 83.152C54.3717 82.2904 54.7247 81.9363 55.3468 81.5724C56.2314 81.0547 59.8661 78.8113 60.4383 78.83C60.5429 80.0115 60.4793 81.6441 60.4679 82.8781C60.4535 84.4347 60.7664 85.3885 59.6127 86.1017C58.9594 86.5054 54.9332 88.9452 54.4107 88.9807ZM60.0797 78.0427C59.6024 78.1539 57.4714 79.4434 56.9643 79.7567C53.1711 82.0995 53.6384 80.9404 53.6384 86.0281C53.6386 91.0071 53.4724 90.4653 57.9204 87.9769C61.7653 85.8258 61.2213 86.33 61.2213 81.6455C61.2213 79.7433 61.5933 77.6904 60.0797 78.0427Z" fill="#C7C7FC"/>
<path fill-rule="evenodd" clip-rule="evenodd" d="M60.38 90.3376L60.4317 90.958C59.8427 91.3308 59.9417 91.7973 59.5046 92.1627C59.4668 92.5792 58.2085 95.5675 57.8895 96.1211C57.4261 96.0085 57.1834 95.2556 56.5644 94.6549C55.4132 94.7124 54.6063 96.0367 55.3978 97.0068C55.7878 97.4848 56.9169 98.9771 57.3416 99.2297C58.5414 99.5268 59.4572 95.8827 60.2039 94.4284C60.497 93.5713 60.4349 93.7296 60.5252 92.7395C60.9341 92.4841 60.8524 92.6808 61.1703 92.2878C61.375 91.4033 62.6808 89.5322 62.1282 88.6307C61.2106 88.1732 60.517 89.6915 60.38 90.3376Z" fill="#04F4D1"/>
<path fill-rule="evenodd" clip-rule="evenodd" d="M60.1839 65.4848C60.2349 66.1588 60.2599 66.1629 60.054 66.4321L59.4697 66.96C59.4389 67.3865 58.1916 70.3114 57.8897 70.896C57.4923 70.7787 56.9023 69.8343 56.5927 69.4051C55.2038 69.4592 54.7052 70.896 55.4292 71.7779C55.9839 72.4536 56.7302 73.3205 57.1579 73.9679C58.8267 73.9791 59.0461 71.4389 60.1881 69.1948C60.4823 68.4432 60.4946 68.4552 60.5069 67.5386L61.1938 66.9633C61.4419 65.8553 62.4896 64.6934 62.2073 63.358C60.9026 63.0445 60.5437 64.6106 60.1839 65.4848Z" fill="#04F4D1"/>
<path fill-rule="evenodd" clip-rule="evenodd" d="M61.1702 92.2876C60.8523 92.6806 60.934 92.484 60.5251 92.7393C60.4348 93.7294 60.4969 93.5712 60.2038 94.4282C60.6159 94.4463 60.4633 94.231 60.495 95.0452L60.4007 97.596C60.2117 98.3969 59.2984 98.7488 58.5646 99.1436C56.7526 100.119 56.2337 100.698 54.2952 101.47C54.7357 99.8676 53.7306 95.3087 54.8494 94.3616C55.3626 93.9273 56.578 93.2901 57.2425 92.9216C58.0544 92.4714 58.8922 91.9018 59.7343 91.5428L59.5045 92.1625C59.9416 91.7971 59.8426 91.3306 60.4316 90.9578L60.3799 90.3374C59.1768 90.7722 58.4412 91.3539 57.373 91.956C53.4193 94.184 53.6396 93.7013 53.6385 97.2589C53.6384 98.1347 53.5223 100.968 53.6669 101.626C54.0554 103.391 57.3149 100.575 59.4786 99.531C60.6945 98.9444 61.2102 98.3877 61.2244 96.715C61.2364 95.26 61.132 93.7106 61.1702 92.2876Z" fill="#C7C7FC"/>
<path fill-rule="evenodd" clip-rule="evenodd" d="M61.1936 66.9633L60.5067 67.5386C60.4944 68.4553 60.4822 68.4432 60.1879 69.1948C60.3682 69.0853 60.329 69.3153 60.4489 68.9955C60.5352 69.7457 60.5148 71.6929 60.4403 72.4641C60.3411 73.4924 59.6153 73.7299 58.7905 74.1957L55.3867 76.1261C54.5417 76.5996 54.3907 76.8864 54.3687 75.7702L54.3863 72.8801C54.3886 71.8687 54.1218 70.2541 54.7427 69.6032C55.4107 68.9035 58.6186 67.4973 59.3249 66.7992C59.5088 66.8142 59.4112 66.7332 59.4695 66.9601L60.0538 66.4321C60.2597 66.163 60.2347 66.1589 60.1837 65.4849L54.4079 68.8522C53.3608 69.7445 53.6386 71.1593 53.6385 72.7431C53.6385 78.3178 52.6923 78.7301 59.8793 74.4568C61.1528 73.6995 61.2156 73.2044 61.2222 71.3736C61.2268 70.0549 61.079 68.1689 61.1936 66.9633Z" fill="#C7C7FC"/>
<path fill-rule="evenodd" clip-rule="evenodd" d="M57.6154 82.4527C57.435 82.3847 55.143 80.6234 55.2391 83.4957L56.5111 84.2545C56.4504 84.9528 55.627 85.8211 55.3535 86.5263C54.7758 88.016 56.2779 88.3039 57.5733 85.0019C58.3572 85.1598 58.458 85.5722 59.2589 85.6543C59.8309 85.3202 60.2377 84.9033 60.0661 83.9738L58.8168 83.1815C59.0408 82.018 60.2951 81.2663 60.0647 79.8762C59.1142 79.6754 58.9546 80.3239 58.6266 80.8659C58.2908 81.4207 57.9995 82.0964 57.6154 82.4527Z" fill="#EEDE20"/>
<path fill-rule="evenodd" clip-rule="evenodd" d="M32.5043 115.748C32.6794 120.195 31.7832 120.707 33.9275 122.007C34.1718 122.156 35.3282 122.781 35.4808 122.836C34.3409 121.237 35.7464 116.484 34.9443 114.255C34.6956 114.507 34.6189 114.481 34.3393 114.654C34.0947 114.806 33.9756 114.868 33.7445 114.994L32.5043 115.748Z" fill="#CACAD7"/>
<path fill-rule="evenodd" clip-rule="evenodd" d="M18.2558 97.341L18.2586 92.3219C18.3516 91.7115 18.5201 91.6267 18.9775 91.3598C19.4863 91.063 22.6919 89.0943 23.137 89.1187L23.1576 93.9631C23.0861 95.0072 22.1985 95.236 20.5283 96.2095C19.999 96.5181 18.8361 97.2011 18.2558 97.341ZM23.833 88.5665C22.9128 87.9404 22.0951 88.6965 21.2303 89.2318C18.0055 91.2278 17.528 90.5356 17.5383 93.6971C17.5528 98.2143 16.997 99.1364 20.2565 97.1655C23.7416 95.0584 23.8901 95.7881 23.8836 92.6024C23.881 91.2622 23.954 89.892 23.833 88.5665Z" fill="#ABCAF3"/>
<path fill-rule="evenodd" clip-rule="evenodd" d="M18.2717 118.105C18.152 117.168 18.237 115.657 18.2352 114.653C18.2327 113.409 18.0246 112.629 18.9707 112.012C19.5003 111.667 22.7957 109.777 23.1542 109.768C23.2461 110.785 23.1707 112.093 23.1721 113.146C23.1739 114.421 23.4422 115.088 22.4858 115.674L18.2717 118.105ZM17.8523 118.821C18.7544 118.72 18.7515 118.747 19.4556 118.281C20.4716 117.61 22.4667 116.707 23.2705 116.049C24.1282 115.346 23.8839 113.904 23.8839 112.735C23.8839 111.521 24.0541 110.165 23.6788 109.035C22.3232 108.876 21.7705 109.624 20.7167 110.221C20.2625 110.478 19.8442 110.664 19.3955 110.958C17.5312 112.179 17.5392 111.489 17.5383 115.201C17.538 116.444 17.3916 117.803 17.8523 118.821Z" fill="#ABCAF3"/>
<path fill-rule="evenodd" clip-rule="evenodd" d="M18.2786 107.708C18.1715 106.569 18.238 105.393 18.2357 104.244C18.2331 102.875 17.9621 102.26 19.0199 101.659C24.1186 98.7646 23.1867 98.4839 23.1727 102.737C23.1687 103.983 23.3838 104.746 22.5394 105.33L18.2786 107.708ZM22.5902 98.7655C21.711 99.2574 20.7701 99.802 20.0662 100.24C17.1748 102.037 17.5355 101.097 17.5382 105.888C17.54 109.07 17.4579 109.254 21.3077 106.85C24.275 104.997 23.8782 106.219 23.8832 101.231C23.8842 100.302 24.2356 97.8454 22.5902 98.7655Z" fill="#ABCAF3"/>
<path fill-rule="evenodd" clip-rule="evenodd" d="M96.8645 36.7034C98.2127 36.2159 97.8465 35.849 98.0284 34.3657C98.1564 33.3221 98.2353 32.3796 98.3498 31.3043C98.4728 30.15 98.3776 29.269 98.9124 28.4409C99.2967 27.8457 100.131 26.9614 99.9361 26.3372C99.4156 26.3019 99.3605 26.5411 99.0793 26.9687C97.9839 28.6348 97.8998 28.2191 97.7419 30.1485C97.5938 31.9576 97.2702 33.7902 97.2322 35.6156C96.65 35.9071 92.729 37.9912 92.361 38.3352C91.8173 38.8429 92.2636 39.064 92.3886 39.3137C92.6534 39.8423 91.9088 40.7695 92.8141 40.8441C93.1516 40.8719 94.4373 40.1139 93.6852 38.5563C93.9361 38.4119 94.246 38.2543 94.5765 38.0675C95.1524 37.7418 94.9306 37.6994 95.6229 37.6065C95.4984 37.9895 95.4284 38.4206 95.4945 38.9628C96.2192 39.2383 96.4758 39.0419 96.825 38.4173C97.1201 37.8898 96.982 37.3018 96.8645 36.7034Z" fill="#FDFDFD"/>
<path fill-rule="evenodd" clip-rule="evenodd" d="M92.0563 71.7557C91.7631 72.4166 91.4377 73.1969 91.1485 73.9419C90.14 76.5405 89.7011 75.9635 88.9155 74.9885C88.6203 74.6221 88.4574 74.4407 88.1823 74.0868C87.5673 73.2953 87.8927 72.2304 88.8424 72.0564C89.5535 72.3198 89.4155 72.7947 90.075 73.2113L91.2787 70.4837C91.3872 69.8924 91.3448 70.4081 91.0757 70.1875C90.7283 70.6467 87.9041 71.8996 87.5172 72.3729C87.0814 72.9059 87.2199 77.1456 87.2801 78.1344C88.2052 77.843 90.0387 76.639 90.9479 76.0894C92.0495 75.4235 92.4591 75.7382 92.2855 72.4603C92.2767 72.2959 92.2806 72.2326 92.2329 72.0776C92.0954 71.6311 92.4201 72.0804 92.0563 71.7557Z" fill="#E5F1FD"/>
<path fill-rule="evenodd" clip-rule="evenodd" d="M87.2759 53.295C87.2759 51.3286 87.4294 51.936 89.2778 50.7201C90.0631 50.2037 91.2985 49.5133 92.1294 49.105C92.2322 49.3052 92.5682 54.4319 91.7738 54.9877L87.2836 57.4544L87.2759 53.295ZM86.5778 52.3362V57.1298C86.5778 57.8331 86.6454 57.7887 87.0619 58.1976C87.5552 58.1729 87.8416 58.0596 88.1367 57.9078L92.5314 55.2107C93.1126 54.5397 92.9074 51.4531 92.9097 50.2819C92.9097 49.2596 93.2052 48.1224 91.767 48.5089C91.3871 48.6109 91.0624 48.9063 90.7706 49.0663C90.6067 49.1561 90.4904 49.2081 90.319 49.3017L89.7907 49.5967C88.921 50.0872 86.5778 51.1134 86.5778 52.3362Z" fill="#C7C7FC"/>
<path fill-rule="evenodd" clip-rule="evenodd" d="M92.8653 59.2838C92.575 59.5653 92.6462 59.4396 92.2619 59.5986C92.2643 59.8723 92.2859 60.2648 92.2361 60.5261C92.1241 61.1134 92.1359 60.534 91.9791 61.2286C92.3541 61.0399 92.0596 61.0843 92.2657 61.2386C92.0911 64.6163 92.7831 64.66 91.0696 65.6707C90.2876 66.1322 87.9327 67.585 87.2553 67.6698C87.3885 65.5867 86.9982 63.3739 87.5929 61.9377C88.0382 61.9921 87.8286 61.7881 87.8893 62.185C88.1641 61.7449 87.9393 61.7085 88.3638 61.4351C88.6487 61.2517 88.8058 61.2685 89.0842 61.3758C89.2267 60.7949 88.7861 61.3029 90.0025 60.6019C90.4894 60.3212 90.5115 60.225 91.0656 60.0356C91.0761 60.6875 91.0649 60.2937 90.8787 60.8263C91.1115 60.46 91.1308 60.152 91.388 59.8262C91.8275 59.2691 91.8048 59.7306 91.6961 58.6868C91.5683 59.0273 91.5583 58.8837 91.3081 59.047C90.4145 59.63 87.7362 60.9832 87.2282 61.4092C86.4531 62.0597 86.6035 63.2258 86.6056 64.3887C86.6076 65.5863 86.5435 66.9283 86.6636 68.1054C87.1743 68.4254 86.865 68.0618 87.0063 68.4896C88.3629 68.3544 88.2836 68.0314 89.4769 67.3678L91.9516 65.9775C93.0853 65.2151 92.9186 64.6169 92.9163 63.1561C92.9142 61.8725 92.9648 60.5509 92.8653 59.2838Z" fill="#C7C7FC"/>
<path fill-rule="evenodd" clip-rule="evenodd" d="M89.9383 52.0224C90.7776 51.4106 90.5946 49.8828 91.9529 49.9213C92.1213 51.3134 91.0195 51.6114 90.9481 52.7468C91.1322 52.8596 91.327 52.94 91.4421 53.008C92.0375 53.3609 91.6265 52.9318 91.9037 53.4112C92.1089 54.08 91.7547 54.4054 91.42 54.7546C90.59 54.7414 90.6518 54.3818 89.9383 54.2734C89.277 55.092 89.1942 56.3571 88.0023 56.4354C87.7592 54.9348 88.8885 54.7173 88.9976 53.5403C88.4668 53.2677 88.1067 53.2484 87.9886 52.8838C87.916 52.1295 88.0762 51.9161 88.5687 51.6006C89.4558 51.5824 89.211 51.9067 89.9383 52.0224ZM87.2761 53.2947L87.2838 57.4541L91.774 54.9874C92.5684 54.4316 92.2324 49.305 92.1296 49.1047C91.2987 49.513 90.0633 50.2034 89.2781 50.7199C87.4297 51.9358 87.2761 51.3283 87.2761 53.2947Z" fill="#E5F1FD"/>
<path fill-rule="evenodd" clip-rule="evenodd" d="M91.696 58.6864C91.8047 59.7303 91.8273 59.2688 91.3879 59.8258C91.1307 60.1516 91.1114 60.4597 90.8786 60.8259C90.7169 61.1214 90.6488 61.4063 90.538 61.6904L90.0424 62.5099L89.084 61.3754C88.8056 61.2682 88.6485 61.2513 88.3637 61.4347C87.9392 61.7081 88.164 61.7446 87.8891 62.1846C87.7176 63.4162 89.6632 65.0214 89.6639 65.0216C90.586 64.8911 90.7641 64.14 91.0804 63.3639C91.3546 62.6904 91.6542 61.7824 91.979 61.2282C92.1357 60.5336 92.124 61.1131 92.236 60.5258C92.2858 60.2644 92.2642 59.872 92.2617 59.5982C92.646 59.4393 92.5749 59.5649 92.8651 59.2835C93.0702 58.298 93.9913 57.4196 93.6849 56.2676C92.4383 55.9536 92.3257 57.852 91.696 58.6864Z" fill="#71E6D5"/>
<path fill-rule="evenodd" clip-rule="evenodd" d="M92.4076 67.9468C92.047 68.7793 92.168 68.8775 92.0638 69.73C91.7885 69.9347 91.8725 69.8246 91.6393 70.0702C91.4262 70.2946 91.5418 70.264 91.2787 70.4836L90.0749 73.2113C89.4154 72.7946 89.5535 72.3198 88.8423 72.0564C87.8927 72.2303 87.5672 73.2952 88.1823 74.0868C88.4573 74.4407 88.6202 74.6221 88.9155 74.9884C89.7011 75.9635 90.1399 76.5405 91.1484 73.9418C91.4376 73.1969 91.7631 72.4165 92.0562 71.7557L92.2465 70.3663L92.7686 70.2785C92.8352 69.8794 93.1887 69.1814 93.354 68.7594C93.4471 68.5213 94.005 67.4593 93.645 67.1107C92.9378 66.7114 92.6648 67.3882 92.4076 67.9468Z" fill="#71E6D5"/>
<path fill-rule="evenodd" clip-rule="evenodd" d="M92.7685 70.2784L92.2464 70.3663L92.0562 71.7556C92.42 72.0803 92.0953 71.631 92.2328 72.0775C92.2805 72.2325 92.2766 72.2958 92.2854 72.4602C92.459 75.7381 92.0494 75.4235 90.9478 76.0893C90.0386 76.6389 88.2051 77.8429 87.28 78.1343C87.2198 77.1455 87.0813 72.9058 87.5171 72.3728C87.904 71.8995 90.7283 70.6466 91.0756 70.1874C91.3447 70.408 91.3871 69.8923 91.2786 70.4836C91.5417 70.2639 91.4261 70.2946 91.6393 70.0701C91.8724 69.8245 91.7885 69.9347 92.0638 69.73C92.1679 68.8775 92.0469 68.7792 92.4075 67.9468C92.1955 68.2247 92.2184 68.3645 92.0644 68.6888C91.6377 69.588 91.1164 69.378 90.2271 70.0193C89.4484 70.5809 88.5865 70.8703 87.7774 71.4189C87.5575 71.5679 87.6576 71.4835 87.5176 71.5748C87.2033 71.7801 87.2158 71.799 86.9999 72.1206C86.4236 72.9784 86.6499 73.455 86.6499 74.9343C86.6499 76.9049 86.384 77.8616 87.0619 78.7442C87.9122 78.8055 88.322 78.3455 89.1214 77.9253C89.243 77.8615 89.3248 77.8167 89.3819 77.7844C89.4073 77.7699 89.4411 77.7488 89.4666 77.7343C89.4918 77.7197 89.5249 77.6979 89.5503 77.6834L90.6934 76.9224C91.8884 76.1547 92.8696 76.4047 92.8977 73.8418C92.9108 72.6522 92.959 71.3335 92.7685 70.2784Z" fill="#C7C7FC"/>
<path fill-rule="evenodd" clip-rule="evenodd" d="M91.9791 61.2284C91.6543 61.7825 91.3547 62.6906 91.0805 63.364C90.7642 64.1402 90.5861 64.8913 89.6641 65.0218C89.6633 65.0215 87.7178 63.4164 87.8892 62.1848C87.8286 61.7879 88.0382 61.9919 87.5929 61.9375C86.9982 63.3737 87.3885 65.5865 87.2553 67.6696C87.9327 67.5849 90.2876 66.1321 91.0696 65.6706C92.7831 64.6598 92.0911 64.6161 92.2657 61.2384C92.0596 61.0841 92.354 61.0397 91.9791 61.2284Z" fill="#E5F1FD"/>
<path fill-rule="evenodd" clip-rule="evenodd" d="M89.9383 52.0224C89.211 51.9067 89.4557 51.5825 88.5687 51.6006C88.0762 51.9162 87.916 52.1296 87.9885 52.8839C88.1066 53.2485 88.4668 53.2677 88.9976 53.5404C88.8884 54.7173 87.7592 54.9349 88.0023 56.4354C89.1942 56.3571 89.277 55.0921 89.9383 54.2734C90.6518 54.3818 90.59 54.7414 91.42 54.7547C91.7547 54.4055 92.1088 54.08 91.9037 53.4112C91.6265 52.9318 92.0375 53.361 91.4421 53.0081C91.327 52.94 91.1322 52.8597 90.948 52.7468C91.0195 51.6114 92.1213 51.3134 91.9528 49.9214C90.5946 49.8828 90.7775 51.4106 89.9383 52.0224Z" fill="#EEDE20"/>
<path fill-rule="evenodd" clip-rule="evenodd" d="M69.4146 43.0231C68.6723 42.2171 67.3142 41.1585 66.7956 43.5557C66.4124 45.3282 67.4175 45.8041 68.0048 46.5752C67.6528 49.0028 66.6734 51.0392 65.5906 51.9043C64.5276 51.7691 63.2862 50.5709 62.5584 52.5301C61.9471 54.1749 63.0046 55.0641 63.861 55.4212C67.2068 56.8166 72.0464 45.8821 69.4146 43.0231Z" fill="#FDFDFD"/>
<path fill-rule="evenodd" clip-rule="evenodd" d="M53.6959 13.8504C54.655 15.1023 56.7916 13.3412 57.8673 12.7367C58.5104 12.3753 59.0963 12.0599 59.7765 11.6413C60.4222 11.2443 61.3808 10.8988 61.6355 10.2895C60.8189 8.94443 59.0958 10.4644 57.4557 11.3499C56.7378 11.7374 53.8925 13.1595 53.6959 13.8504Z" fill="#2D4281"/>
<path fill-rule="evenodd" clip-rule="evenodd" d="M71.2849 63.0407C72.0263 63.0163 73.2262 62.1189 74.237 61.5491C74.9202 61.1639 76.5481 60.2981 77.0375 59.8689L77.0889 58.0754C76.1425 58.1975 72.8936 60.5609 71.7205 60.9206C71.1089 61.1082 71.2849 62.1678 71.2849 63.0407Z" fill="#C7C7FC"/>
<path fill-rule="evenodd" clip-rule="evenodd" d="M71.3441 88.0577C71.6291 87.963 72.4816 87.4315 72.7998 87.2495C73.4033 86.9045 73.6377 86.7896 74.1835 86.439C75.1581 85.8126 76.1527 85.4115 77.0834 84.7959L77.0971 82.9502C76.5682 83.0548 71.9272 85.6951 71.2802 86.1656L71.3441 88.0577Z" fill="#C7C7FC"/>
<path fill-rule="evenodd" clip-rule="evenodd" d="M71.7373 74.8083L77.4993 71.5376L77.4769 69.6289C76.8911 69.7569 74.6416 71.2127 73.9878 71.5818C73.4159 71.9043 72.9154 72.2385 72.2257 72.5671C71.5438 72.8919 71.5791 73.4075 71.7373 74.8083Z" fill="#C7C7FC"/>
<path fill-rule="evenodd" clip-rule="evenodd" d="M66.8411 79.2154L66.8372 80.662C67.5045 80.694 68.0793 80.1252 68.7513 79.7701C69.4483 79.402 70.0392 79.065 70.6153 78.7425C73.8031 76.9579 73.4367 77.3491 73.332 75.6455C72.781 75.6596 70.7737 76.9284 70.0259 77.3406C68.9114 77.9545 67.7377 78.6294 66.8411 79.2154Z" fill="#C7C7FC"/>
<path fill-rule="evenodd" clip-rule="evenodd" d="M66.4938 67.5387L66.4661 69.0873C67.0808 68.9758 72.2596 66.0098 72.9255 65.4844L72.9402 64.1209C72.3112 64.0705 68.0392 66.5465 66.9017 67.2305L66.4938 67.5387Z" fill="#C7C7FC"/>
<path fill-rule="evenodd" clip-rule="evenodd" d="M66.4249 93.9315C67.0503 93.9697 69.034 92.6368 69.7045 92.2336L72.9675 90.4099L72.8841 88.8254L66.4249 92.4918V93.9315Z" fill="#C7C7FC"/>
<path fill-rule="evenodd" clip-rule="evenodd" d="M63.5503 92.4301C64.154 92.4249 67.6382 90.1633 68.5672 89.7151L68.5297 87.8352C67.8905 88.0186 66.5976 88.8601 66.0228 89.2173C63.6328 90.7022 63.2826 90.1284 63.5503 92.4301Z" fill="#C7C7FC"/>
<path fill-rule="evenodd" clip-rule="evenodd" d="M63.543 65.758L63.5215 67.5647C64.1301 67.4819 67.9918 65.1897 68.5282 64.7758L68.5754 63.0391C67.9104 63.0432 66.9951 63.7652 66.0399 64.3156C65.3048 64.739 64.2086 65.3134 63.543 65.758Z" fill="#C7C7FC"/>
<path fill-rule="evenodd" clip-rule="evenodd" d="M63.9598 77.3997L63.915 79.1798C64.4815 79.1188 68.216 76.8946 68.9578 76.418L68.9746 74.5637C68.6091 74.6095 64.3498 77.1371 63.9598 77.3997Z" fill="#C7C7FC"/>
<path fill-rule="evenodd" clip-rule="evenodd" d="M100.981 45.0179L100.948 46.492C101.359 46.5103 101.845 46.1106 102.399 45.7539C102.904 45.4285 103.306 45.2335 103.878 44.91C105.344 44.0814 106.166 43.9979 105.683 42.338C105.531 42.3243 101.548 44.5837 100.981 45.0179Z" fill="#ABCAF3"/>
<path fill-rule="evenodd" clip-rule="evenodd" d="M101.339 54.6643L101.321 56.1645C101.968 55.9216 103.038 55.2577 103.687 54.8681L106.099 53.452L106.111 52.032C105.499 52.1057 102.077 54.1509 101.339 54.6643Z" fill="#ABCAF3"/>
<path fill-rule="evenodd" clip-rule="evenodd" d="M31.9386 106.057L31.9283 107.591C32.8871 107.219 33.6674 106.641 34.7437 106.013C37.0928 104.641 36.7251 105.288 36.7251 103.501C35.8585 103.585 35.0914 104.3 34.2461 104.732C33.5168 105.105 32.6521 105.669 31.9386 106.057Z" fill="#ABCAF3"/>
<path fill-rule="evenodd" clip-rule="evenodd" d="M31.9539 85.4048L31.9199 86.9176C32.4341 86.7801 36.1198 84.6362 36.6633 84.2574L36.728 82.7483C35.8981 82.9754 33.128 84.843 31.9539 85.4048Z" fill="#ABCAF3"/>
<path fill-rule="evenodd" clip-rule="evenodd" d="M32.3111 95.0674L32.2806 96.5955C32.9879 96.2928 33.9602 95.6928 34.6696 95.2721C35.0642 95.0382 35.4339 94.8418 35.8198 94.6264C36.1713 94.4301 36.6907 94.1734 37.0104 93.9718L37.1186 92.5194C36.8494 92.354 36.5071 92.6403 36.018 92.9255L32.3111 95.0674Z" fill="#ABCAF3"/>
<path fill-rule="evenodd" clip-rule="evenodd" d="M100.973 65.6212L100.98 67.155L105.251 64.7688C105.933 64.3628 105.831 64.0618 105.77 63.0842C105.248 63.039 101.695 65.2089 100.973 65.6212Z" fill="#ABCAF3"/>
<path fill-rule="evenodd" clip-rule="evenodd" d="M27.9802 91.8374C28.6064 91.7648 30.449 90.5755 31.0829 90.1831C33.3118 88.8034 33.4486 89.3814 33.229 87.6877C32.4113 87.8909 29.7403 89.6761 28.7496 90.1659C27.7764 90.6472 27.9035 90.5918 27.9802 91.8374Z" fill="#ABCAF3"/>
<path fill-rule="evenodd" clip-rule="evenodd" d="M97.3307 59.8689L97.2848 61.034C97.7583 61.0809 99.5757 59.8802 100.336 59.4548C103.083 57.9181 102.634 58.4459 102.634 57.0212C102.079 56.9714 100.455 58.0382 99.903 58.3485C99.1426 58.7759 97.9558 59.302 97.3307 59.8689Z" fill="#ABCAF3"/>
<path fill-rule="evenodd" clip-rule="evenodd" d="M27.8462 112.392C28.2983 112.646 29.7165 111.595 30.5445 111.138L33.2759 109.586L33.2818 108.42C32.2125 108.573 29.0602 110.739 27.9521 111.247L27.8462 112.392Z" fill="#ABCAF3"/>
<path fill-rule="evenodd" clip-rule="evenodd" d="M28.2754 100.231V101.438C28.9657 101.402 29.1723 101.114 29.6907 100.833L33.6177 98.6067L33.5849 97.3423C33.2815 97.3598 29.3176 99.7442 28.2754 100.231Z" fill="#ABCAF3"/>
<path fill-rule="evenodd" clip-rule="evenodd" d="M97.0145 50.1448C96.747 52.2468 97.279 51.2354 100.785 49.3681L102.242 48.4372C102.264 48.4208 102.305 48.3905 102.334 48.3644L102.27 47.2668C101.426 47.6328 100.368 48.2794 99.5971 48.7121C98.7981 49.1603 97.6932 49.6527 97.0145 50.1448Z" fill="#ABCAF3"/>
<path fill-rule="evenodd" clip-rule="evenodd" d="M96.9716 70.8258L96.9579 72.0206C97.4495 72.02 100.626 70.0916 101.469 69.6151C102.422 69.076 102.395 69.2403 102.282 67.9231L96.9716 70.8258Z" fill="#ABCAF3"/>
<path fill-rule="evenodd" clip-rule="evenodd" d="M94.8964 58.3761L94.9311 59.7003C95.4885 59.7424 96.8009 58.8188 97.4455 58.4536C99.2968 57.4048 99.1192 57.9005 99.0055 56.1077C98.2725 56.2425 95.5311 58.0155 94.8964 58.3761Z" fill="#ABCAF3"/>
<path fill-rule="evenodd" clip-rule="evenodd" d="M25.5079 90.6126C26.0287 90.4918 29.0703 88.7099 29.6192 88.3247L29.6383 86.8997C28.9923 86.9382 27.8037 87.8639 27.1999 88.2181C26.7955 88.4555 26.3992 88.6302 25.9636 88.8894C25.2567 89.3103 25.4506 89.7145 25.5079 90.6126Z" fill="#ABCAF3"/>
<path fill-rule="evenodd" clip-rule="evenodd" d="M94.5526 48.7106L94.5416 50.1768C95.4073 49.9179 97.9613 48.3259 98.7143 47.8436L98.6713 46.5405C97.6696 46.6072 95.5813 48.3054 94.5526 48.7106Z" fill="#ABCAF3"/>
<path fill-rule="evenodd" clip-rule="evenodd" d="M94.5344 70.7618C95.1156 70.6887 98.1904 68.8988 98.6801 68.5161L98.7071 67.1421C98.3045 67.1666 95.4636 68.7941 94.9534 69.1211C94.3399 69.5142 94.5501 69.913 94.5344 70.7618Z" fill="#ABCAF3"/>
<path fill-rule="evenodd" clip-rule="evenodd" d="M25.839 100.235C26.3039 100.215 29.6984 98.2022 29.997 97.9437L30.0098 96.6067C29.0063 96.7807 28.0711 97.5313 27.3741 97.9726C25.8268 98.9527 25.9157 98.109 25.839 100.235Z" fill="#ABCAF3"/>
<path fill-rule="evenodd" clip-rule="evenodd" d="M25.5048 111.219C26.2175 111.073 29.2425 109.24 29.6374 108.9L29.6251 107.585C29.1085 107.559 29.2018 107.605 28.8831 107.823L28.5512 108.048C28.4026 108.136 28.4431 108.104 28.2832 108.192C27.8946 108.406 27.5002 108.688 27.0879 108.917C25.8179 109.623 25.3556 109.394 25.5048 111.219Z" fill="#ABCAF3"/>
<path fill-rule="evenodd" clip-rule="evenodd" d="M61.1551 50.5146C61.3395 48.4262 60.3211 47.7837 61.6259 45.0551C62.9387 42.3099 64.273 43.2405 64.8361 42.2067C63.8839 39.207 58.5196 44.7051 60.0941 49.5511C60.3623 50.377 60.3784 50.3429 61.1551 50.5146Z" fill="#FDFDFD"/>
<path fill-rule="evenodd" clip-rule="evenodd" d="M75.4849 87.261C75.269 89.7715 75.7226 88.6735 77.0881 88.0822L77.0304 86.478C76.7908 86.5411 75.7695 87.0664 75.4849 87.261Z" fill="#C7C7FC"/>
<path fill-rule="evenodd" clip-rule="evenodd" d="M75.472 62.3806L75.4721 64.0454C75.7676 64.0288 76.8352 63.3202 77.0501 63.1788L77.0605 61.5466L75.472 62.3806Z" fill="#C7C7FC"/>
<path fill-rule="evenodd" clip-rule="evenodd" d="M75.9682 75.6144L77.4735 74.811L77.5065 73.3857C75.8826 73.3837 75.7479 74.327 75.9682 75.6144Z" fill="#C7C7FC"/>
<path fill-rule="evenodd" clip-rule="evenodd" d="M69.3302 89.2574C69.4596 89.1985 70.351 88.6697 70.4231 88.5513C70.6246 88.2208 70.5498 87.2164 70.5383 86.7773C69.1608 86.9629 69.0583 87.6338 69.3302 89.2574Z" fill="#C7C7FC"/>
<path fill-rule="evenodd" clip-rule="evenodd" d="M69.6997 74.1127C69.6997 76.8704 69.5144 76.0801 70.9377 75.2541L70.9578 73.4973C70.3142 73.5861 70.0874 73.7829 69.6997 74.1127Z" fill="#C7C7FC"/>
<path fill-rule="evenodd" clip-rule="evenodd" d="M69.2542 64.2696L70.4525 63.7958L70.5598 61.8713C68.995 62.0846 69.2655 62.7573 69.2542 64.2696Z" fill="#C7C7FC"/>
<path fill-rule="evenodd" clip-rule="evenodd" d="M89.084 61.3756L90.0424 62.5101L90.538 61.6906C90.6488 61.4065 90.7169 61.1216 90.8786 60.8261C91.0648 60.2935 91.0759 60.6873 91.0655 60.0354C90.5113 60.2248 90.4892 60.3211 90.0023 60.6017C88.786 61.3028 89.2265 60.7947 89.084 61.3756Z" fill="#E5F1FD"/>
<path fill-rule="evenodd" clip-rule="evenodd" d="M63.0027 49.4094C63.1908 48.5524 63.324 47.1387 63.6639 46.4704C64.2304 45.3563 64.4627 46.3251 64.9946 44.7561C64.4148 43.6513 63.2792 44.535 62.7041 45.4713C62.4515 45.8823 61.0808 48.9688 63.0027 49.4094Z" fill="#FDFDFD"/>
<path fill-rule="evenodd" clip-rule="evenodd" d="M73.6867 89.9547C74.0245 89.9114 74.3368 89.6268 74.7346 89.4441L74.7409 87.8123C74.2714 87.8941 73.9781 88.0824 73.6702 88.3566L73.6867 89.9547Z" fill="#C7C7FC"/>
<path fill-rule="evenodd" clip-rule="evenodd" d="M74.061 75.066L74.0549 76.5703C74.6068 76.5444 74.6717 76.36 75.1404 76.1711L75.1565 74.5376C74.7625 74.6401 74.4029 74.906 74.061 75.066Z" fill="#C7C7FC"/>
<path fill-rule="evenodd" clip-rule="evenodd" d="M73.6674 63.4508L73.6837 65.1415C73.9656 64.9116 74.3219 64.7085 74.7191 64.5191L74.7553 63.002C74.2054 63.035 74.0134 63.2331 73.6674 63.4508Z" fill="#C7C7FC"/>
<path fill-rule="evenodd" clip-rule="evenodd" d="M35.7596 97.2062C36.2531 97.1185 36.0589 97.193 36.5113 96.9609C36.6831 96.873 36.8931 96.7056 37.0558 96.574L37.0965 95.4265C35.4681 95.7121 35.7869 96.4661 35.7596 97.2062Z" fill="#ABCAF3"/>
<path fill-rule="evenodd" clip-rule="evenodd" d="M35.4622 106.967L35.3566 108.162C35.7615 108.238 36.0312 108.112 36.3801 107.815C36.8906 107.38 36.756 107.179 36.696 106.413L35.4622 106.967Z" fill="#ABCAF3"/>
<path fill-rule="evenodd" clip-rule="evenodd" d="M30.2734 86.4392L30.2743 87.8763C30.651 87.8364 30.923 87.6027 31.2523 87.398L31.2802 86.0516C30.7123 86.0105 30.5569 86.1958 30.2734 86.4392Z" fill="#ABCAF3"/>
<path fill-rule="evenodd" clip-rule="evenodd" d="M104.516 45.899L104.448 47.1381L105.761 46.4467V45.4011C105.204 45.4651 104.936 45.6829 104.516 45.899Z" fill="#ABCAF3"/>
<path fill-rule="evenodd" clip-rule="evenodd" d="M2.00372 95.2495C2.37768 95.3008 4.8653 93.7805 5.28498 93.524C7.35069 92.2614 7.64716 92.5655 6.84003 90.9847C6.62941 90.5723 6.56028 90.5523 6.00714 90.5459C5.421 90.539 5.49136 90.6959 5.20012 91.0039C4.24827 92.0105 3.91534 91.38 3.52911 91.8256C3.17254 92.2368 2.69121 92.7246 2.50033 93.3009C2.36709 93.7034 1.95678 94.8531 2.00372 95.2495Z" fill="#FDFDFD"/>
<path fill-rule="evenodd" clip-rule="evenodd" d="M5.02191 87.6209C3.2452 88.097 2.90178 91.2895 4.26852 91.1441C4.92758 91.074 5.48016 90.1565 5.66134 89.6157C5.88456 88.9498 6.01947 87.3537 5.02191 87.6209Z" fill="#FDFDFD"/>
</svg>
