<svg width="215" height="694" viewBox="0 0 215 694" fill="none" xmlns="http://www.w3.org/2000/svg">
<path d="M97 261L97 326" stroke="#FFBB00" stroke-width="3"/>
<path fill-rule="evenodd" clip-rule="evenodd" d="M153.007 204.124C153.052 206.052 153.035 208.585 153.007 209.237C152.961 210.295 152.281 211.297 150.942 212.047L99.6252 240.805C96.5434 242.532 91.088 242.3 87.5017 240.291L38.0191 212.561C36.0429 211.454 35.0069 210.028 35.0352 208.682C35.0416 208.372 35.0719 205.211 35.0383 203.675C35.0152 202.621 35.7685 201.626 37.1019 200.879L88.4189 172.121C91.5007 170.394 96.9563 170.625 100.543 172.635L150.025 200.365C151.943 201.44 152.953 202.814 153.007 204.124Z" fill="#D8EAFF"/>
<path d="M87.7023 171.687L38.4854 199.67C34.9036 201.707 34.9036 205.008 38.4854 207.045L87.7023 235.027C91.2841 237.064 97.0913 237.064 100.673 235.027L149.89 207.045C153.472 205.008 153.472 201.707 149.89 199.67L100.673 171.687C97.0913 169.651 91.2841 169.651 87.7023 171.687Z" fill="#F5F8FF"/>
<path d="M97.4689 589.703L21.3445 632.984C15.8044 636.134 15.8044 641.241 21.3445 644.391L97.4689 687.672C103.009 690.822 111.991 690.822 117.531 687.672L193.656 644.391C199.196 641.241 199.196 636.134 193.656 632.984L117.531 589.703C111.991 586.553 103.009 586.553 97.4689 589.703Z" fill="#F9F9F9"/>
<path fill-rule="evenodd" clip-rule="evenodd" d="M208.921 563.419C208.736 569.236 209.036 575.129 208.915 577.54C208.823 579.373 207.654 581.107 205.366 582.408L117.134 632.573C111.835 635.586 102.455 635.182 96.2894 631.677L11.211 583.305C7.78532 581.357 6.0443 578.845 6.08101 576.481C6.11035 574.59 6.08977 566.897 6.08148 562.637C6.12111 560.755 7.28946 558.968 9.63386 557.635L97.8664 507.47C103.165 504.457 112.545 504.86 118.711 508.366L203.789 556.738C207.104 558.623 208.845 561.123 208.921 563.419Z" fill="#D8EAFF"/>
<path fill-rule="evenodd" clip-rule="evenodd" d="M106.948 505.286C111.037 505.303 115.351 506.293 118.711 508.203L203.789 556.575C207.104 558.459 208.845 560.96 208.921 563.256C208.736 569.073 209.036 574.965 208.915 577.377C208.823 579.209 207.654 580.944 205.366 582.245L117.134 632.41C114.798 633.738 112.371 634.272 108.372 634.429L106.948 505.286Z" fill="#C4E0FF"/>
<path d="M96.289 507.554L11.211 555.925C5.01933 559.446 5.01933 565.153 11.211 568.674L96.289 617.045C102.481 620.566 112.519 620.566 118.711 617.045L203.789 568.674C209.981 565.153 209.981 559.446 203.789 555.925L118.711 507.554C112.519 504.033 102.481 504.033 96.289 507.554Z" fill="#F5F8FF"/>
<path fill-rule="evenodd" clip-rule="evenodd" d="M204.32 553.325C204.395 556.542 204.366 560.77 204.32 561.858C204.245 563.623 203.127 565.295 200.924 566.548L116.509 614.542C111.44 617.425 102.465 617.039 96.5663 613.685L15.1689 567.406C11.9181 565.557 10.2139 563.177 10.2605 560.932C10.271 560.414 10.3208 555.139 10.2655 552.575C10.2276 550.817 11.4667 549.156 13.6601 547.909L98.075 499.914C103.144 497.032 112.119 497.418 118.018 500.772L199.415 547.051C202.57 548.845 204.232 551.139 204.32 553.325Z" fill="#FFBB00"/>
<path d="M97.0271 499.583L15.6301 545.862C9.70633 549.23 9.70633 554.691 15.6301 558.059L97.0271 604.338C102.951 607.706 112.555 607.706 118.479 604.338L199.876 558.059C205.8 554.691 205.8 549.23 199.876 545.862L118.479 499.583C112.555 496.215 102.951 496.215 97.0271 499.583Z" fill="#EEDE20"/>
<path fill-rule="evenodd" clip-rule="evenodd" d="M208.921 524.239C208.736 530.056 209.036 535.949 208.915 538.36C208.823 540.192 207.654 541.927 205.366 543.228L117.134 593.393C111.835 596.406 102.455 596.002 96.2894 592.496L11.211 544.124C7.78532 542.177 6.0443 539.664 6.08101 537.3C6.11035 535.41 6.08977 527.717 6.08148 523.457C6.12111 521.575 7.28946 519.787 9.63386 518.455L97.8664 468.289C103.165 465.277 112.545 465.68 118.711 469.186L203.789 517.558C207.104 519.442 208.845 521.943 208.921 524.239Z" fill="#D8EAFF"/>
<path fill-rule="evenodd" clip-rule="evenodd" d="M106.948 466.27C111.037 466.287 115.351 467.276 118.711 469.186L203.789 517.558C207.104 519.443 208.845 521.943 208.921 524.239C208.736 530.056 209.036 535.949 208.915 538.36C208.823 540.193 207.654 541.928 205.366 543.228L117.134 593.393C114.798 594.721 112.371 595.255 108.372 595.413L106.948 466.27Z" fill="#C4E0FF"/>
<path d="M96.289 468.374L11.211 516.746C5.01933 520.266 5.01933 525.974 11.211 529.494L96.289 577.866C102.481 581.386 112.519 581.386 118.711 577.866L203.789 529.494C209.981 525.974 209.981 520.266 203.789 516.746L118.711 468.374C112.519 464.854 102.481 464.854 96.289 468.374Z" fill="#F5F8FF"/>
<path d="M70.7269 197.419C71.0796 197.16 71.4329 197.031 71.7795 197.031C72.3408 197.031 72.8718 197.317 73.3495 197.91L75.1006 200.085L76.8724 197.91C77.3518 197.322 77.876 197.031 78.4424 197.031C78.7916 197.031 79.1423 197.159 79.4951 197.419C79.6821 197.556 79.8436 197.744 79.9736 197.977C80.1403 198.276 80.2219 198.588 80.2219 198.911C80.2219 199.304 80.1081 199.641 79.8676 199.904L76.9034 203.148V206.751C76.9034 207.249 76.7284 207.676 76.3888 208.039C76.0463 208.405 75.6257 208.593 75.1161 208.593C74.6196 208.593 74.191 208.407 73.8255 208.039C73.4883 207.699 73.3185 207.271 73.3185 206.751V203.148L70.3544 199.904C70.1135 199.641 70 199.304 70 198.911C70 198.593 70.0745 198.279 70.2431 197.977C70.3765 197.739 70.5459 197.551 70.7269 197.419ZM83.4449 207.873C82.8785 207.589 82.4077 207.229 82.0327 206.797C81.6603 206.366 81.3757 205.859 81.1817 205.277C80.9877 204.697 80.8895 204.061 80.8895 203.375V198.857C80.8895 198.347 81.0602 197.913 81.4041 197.553C81.7637 197.194 82.193 197.015 82.6923 197.015C83.1836 197.015 83.5976 197.183 83.9363 197.522C84.2959 197.882 84.4743 198.316 84.4743 198.826V203.487C84.4743 203.841 84.5338 204.151 84.6554 204.423C84.7769 204.692 84.9528 204.914 85.1831 205.09C85.4133 205.264 85.6952 205.38 86.0289 205.442C86.1996 205.463 86.3288 205.473 86.4143 205.473C86.4944 205.473 86.6212 205.463 86.7919 205.442C87.1256 205.38 87.4075 205.264 87.6351 205.093C87.8601 204.922 88.036 204.7 88.1576 204.426C88.2791 204.154 88.3387 203.841 88.3387 203.487V198.826C88.3387 198.321 88.5197 197.887 88.8843 197.522C89.2206 197.183 89.6345 197.015 90.1233 197.015C90.6277 197.015 91.0519 197.194 91.3933 197.553C91.5563 197.711 91.6831 197.905 91.7787 198.14C91.8745 198.376 91.9236 198.614 91.9236 198.857V203.375C91.9236 204.071 91.8279 204.71 91.6365 205.284C91.4451 205.861 91.1579 206.366 90.7751 206.797C90.3949 207.229 89.9216 207.589 89.3526 207.873C87.5255 208.787 85.2724 208.787 83.4449 207.873Z" fill="#C4E0FF"/>
<path d="M99.634 205.344C100.169 205.243 100.547 205.036 100.769 204.729H99.8383C99.3934 204.729 99.0184 204.571 98.7131 204.258C98.408 203.945 98.2528 203.57 98.2528 203.13C98.2631 202.838 98.3381 202.574 98.4726 202.339C98.6097 202.103 98.7985 201.917 99.0391 201.775C99.277 201.632 99.5409 201.563 99.8228 201.563H102.831C103.938 201.563 104.491 202.173 104.491 203.391C104.491 203.743 104.455 204.108 104.385 204.483C104.313 204.954 104.14 205.437 103.86 205.939C103.553 206.49 103.159 206.963 102.683 207.359C102.205 207.757 101.657 208.06 101.038 208.267C100.42 208.474 99.7401 208.577 98.9977 208.577C98.5735 208.577 98.1027 208.536 97.588 208.456C96.8793 208.334 96.2405 208.125 95.6663 207.822C95.092 207.522 94.5902 207.134 94.1608 206.658C93.7315 206.185 93.3901 205.644 93.1314 205.036C92.834 204.32 92.684 203.59 92.684 202.853C92.684 201.883 92.9297 200.965 93.4237 200.099C93.9152 199.232 94.6109 198.516 95.511 197.949C96.4913 197.336 97.6062 197.031 98.8606 197.031C99.021 197.031 99.2537 197.041 99.5564 197.062C100.097 197.109 100.625 197.212 101.142 197.372C101.636 197.535 102.102 197.747 102.536 198.011C103.421 198.593 103.86 199.214 103.86 199.876C103.86 200.272 103.679 200.629 103.315 200.947C103.059 201.175 102.748 201.286 102.384 201.286C102.117 201.286 101.83 201.224 101.527 201.097H101.512L100.86 200.756C100.72 200.675 100.612 200.621 100.534 200.59C99.9029 200.298 99.3158 200.15 98.7701 200.15C98.3303 200.15 97.9346 200.238 97.588 200.412C97.2389 200.585 96.9491 200.841 96.7163 201.18C96.4836 201.519 96.3284 201.909 96.2534 202.354C96.2224 202.494 96.2069 202.633 96.2069 202.77C96.2069 202.946 96.2224 203.117 96.2534 203.285C96.3439 203.733 96.5069 204.118 96.7396 204.439C96.9698 204.76 97.2647 205.008 97.6217 205.181C97.9786 205.354 98.3795 205.442 98.8296 205.442C99.1037 205.442 99.3702 205.409 99.634 205.344ZM106.149 206.022C105.922 205.698 105.733 205.357 105.578 204.995C105.425 204.633 105.309 204.271 105.229 203.903C105.151 203.536 105.112 203.166 105.112 202.791C105.112 202.429 105.151 202.062 105.229 201.692C105.309 201.325 105.425 200.957 105.583 200.59C105.738 200.223 105.927 199.881 106.149 199.563C106.514 199.033 106.954 198.575 107.469 198.19C107.983 197.807 108.547 197.512 109.163 197.308C109.776 197.103 110.407 197 111.054 197C111.537 197 112.016 197.057 112.489 197.173C112.96 197.29 113.412 197.46 113.844 197.685C114.276 197.91 114.669 198.179 115.026 198.492C115.383 198.808 115.694 199.162 115.963 199.563C116.653 200.564 117 201.64 117 202.791C117 203.363 116.912 203.924 116.734 204.472C116.558 205.021 116.302 205.538 115.963 206.022C115.694 206.412 115.376 206.769 115.008 207.095C114.638 207.421 114.25 207.69 113.844 207.902C113.438 208.114 112.991 208.282 112.507 208.407C112.021 208.531 111.537 208.593 111.054 208.593C110.407 208.593 109.776 208.492 109.163 208.29C108.547 208.088 107.983 207.791 107.466 207.403C106.946 207.012 106.509 206.552 106.149 206.022ZM108.666 202.791C108.666 203.293 108.775 203.746 108.989 204.154C109.204 204.563 109.491 204.881 109.851 205.106C110.213 205.331 110.609 205.442 111.038 205.442C111.188 205.442 111.346 205.427 111.506 205.396C111.796 205.336 112.054 205.23 112.287 205.08C112.52 204.928 112.724 204.736 112.905 204.503C113.084 204.271 113.221 204.012 113.317 203.728C113.412 203.443 113.462 203.135 113.462 202.807C113.462 202.651 113.446 202.483 113.415 202.308C113.34 201.868 113.193 201.49 112.973 201.172C112.753 200.854 112.476 200.606 112.142 200.422C111.809 200.241 111.447 200.15 111.051 200.15C110.614 200.15 110.21 200.262 109.848 200.487C109.483 200.712 109.196 201.03 108.984 201.438C108.772 201.847 108.666 202.297 108.666 202.791Z" fill="#C4E0FF"/>
<path d="M73.4225 211.792H74.6271C74.9151 211.792 75.1556 211.879 75.3501 212.052C75.544 212.226 75.6409 212.437 75.6409 212.685C75.6409 212.933 75.544 213.144 75.3501 213.316C75.1556 213.489 74.9151 213.576 74.6271 213.576H73.8956V214.566H73.4225V211.792ZM74.6271 212.188H73.8956V213.179H74.6271C74.7758 213.179 74.9029 213.132 75.0084 213.037C75.1132 212.943 75.1656 212.825 75.1656 212.685C75.1656 212.545 75.1132 212.428 75.0084 212.332C74.9029 212.237 74.7758 212.188 74.6271 212.188Z" fill="#C4E0FF"/>
<path d="M80.8468 214.566H78.9098V211.792H79.3829V214.169H80.8468V214.566Z" fill="#C4E0FF"/>
<path d="M83.6418 214.566L84.891 211.792H85.3648L86.6141 214.566H86.1194L85.7956 213.833H84.4602L84.1364 214.566H83.6418ZM85.1287 212.287L84.6326 213.437H85.6233L85.1287 212.287Z" fill="#C4E0FF"/>
<path d="M89.3667 211.792H91.649V212.188H90.7444V214.566H90.2713V212.188H89.3667V211.792Z" fill="#C4E0FF"/>
<path d="M94.747 211.792H96.8563V212.188H95.2201V212.962H96.5117V213.357H95.2201V214.566H94.747V211.792Z" fill="#C4E0FF"/>
<path d="M100.666 212.448C100.449 212.648 100.341 212.892 100.341 213.179C100.341 213.467 100.449 213.71 100.666 213.911C100.883 214.111 101.148 214.21 101.461 214.21C101.774 214.21 102.039 214.111 102.256 213.911C102.473 213.71 102.581 213.467 102.581 213.179C102.581 212.892 102.473 212.648 102.256 212.448C102.039 212.25 101.774 212.15 101.461 212.15C101.148 212.15 100.883 212.25 100.666 212.448ZM100.326 214.191C100.02 213.915 99.8674 213.578 99.8674 213.179C99.8674 212.781 100.02 212.443 100.326 212.167C100.632 211.891 101.01 211.753 101.461 211.753C101.912 211.753 102.29 211.891 102.596 212.167C102.901 212.443 103.054 212.781 103.054 213.179C103.054 213.578 102.901 213.915 102.596 214.191C102.29 214.467 101.912 214.605 101.461 214.605C101.01 214.605 100.632 214.467 100.326 214.191Z" fill="#C4E0FF"/>
<path d="M106.325 214.566V211.792H107.595C107.874 211.792 108.105 211.874 108.289 212.038C108.473 212.202 108.565 212.404 108.565 212.645C108.565 212.759 108.543 212.865 108.501 212.964C108.459 213.062 108.409 213.14 108.35 213.197C108.291 213.254 108.232 213.303 108.173 213.345C108.115 213.388 108.064 213.417 108.022 213.433L107.961 213.458L108.651 214.566H108.133L107.488 213.497H106.798V214.566H106.325ZM107.947 212.97C108.042 212.882 108.089 212.774 108.089 212.644C108.089 212.515 108.042 212.406 107.947 212.319C107.853 212.232 107.735 212.188 107.595 212.188H106.798V213.1H107.595C107.735 213.1 107.853 213.056 107.947 212.97Z" fill="#C4E0FF"/>
<path d="M113.49 213.141L114.653 211.792H115.063V214.566H114.59V212.546L113.49 213.814L112.392 212.546V214.566H111.919V211.792H112.327L113.49 213.141Z" fill="#C4E0FF"/>
<path fill-rule="evenodd" clip-rule="evenodd" d="M78.0925 91.0081L112.46 71.5378V141.896L78.0925 161.514V91.0081Z" fill="#FEFEFE"/>
<path fill-rule="evenodd" clip-rule="evenodd" d="M54.1017 171.75L70.6299 162.377C71.6781 161.814 72.5838 161.153 73.7058 160.583C74.2493 160.027 74.9491 159.838 75.5544 159.311L75.5584 99.7824C74.7814 99.9497 74.8715 100.26 74.1618 100.293L74.1643 89.1759L111.648 67.57C111.806 66.5685 111.678 64.3219 111.708 63.026C111.743 61.5207 111.766 61.927 111.498 61.7979C109.597 62.7363 103.03 66.7207 100.756 67.9928C97.293 69.9297 93.5814 72.2439 89.9904 74.2191C84.7153 77.1205 79.1329 80.554 73.8379 83.5441C72.2246 84.4551 70.1342 85.8009 68.4704 86.5895L68.4684 103.732L67.3616 104.262L67.3889 78.9167C67.0416 79.4058 67.1474 79.9423 67.1538 80.5601C67.1927 84.3567 67.3103 103.964 67.0522 104.274C66.8525 104.94 65.5395 105.438 64.6432 105.976C64.2562 105.021 64.5554 84.5624 64.5793 80.2857C64.5864 79.0119 64.6974 78.0236 64.7276 76.8711L64.6314 77.0617C64.3891 77.6847 64.7931 76.4141 64.5576 77.2677C64.3462 78.0336 64.456 105.212 64.4477 106.034L61.9218 107.516C60.6336 108.16 57.0759 110.424 55.7486 111.075L44.7653 117.406C44.3664 117.972 43.8352 117.741 43.7344 118.399L43.6588 162.325C43.6588 167.376 43.5123 172.67 43.6743 177.686C44.1816 177.521 45.9606 176.495 46.3915 176.213C48.8624 174.596 51.5289 173.316 54.1017 171.75ZM49.8522 168.822C49.3915 167.803 49.5379 166.444 49.5382 165.201C49.5391 161.489 49.5311 162.179 51.3954 160.958C51.8441 160.664 52.2624 160.478 52.7167 160.221C53.7704 159.625 54.3231 158.876 55.6787 159.035C56.054 160.166 55.8838 161.521 55.8838 162.735C55.8838 163.904 56.1281 165.347 55.2704 166.049C54.4666 166.707 52.4715 167.61 51.4555 168.282C50.7514 168.747 50.7543 168.72 49.8522 168.822ZM59.8462 162.392L59.9522 161.247C61.0602 160.739 64.2126 158.573 65.2818 158.42L65.2759 159.586L62.5446 161.138C61.7165 161.595 60.2984 162.646 59.8462 162.392ZM57.5046 161.219C57.3554 159.394 57.8177 159.623 59.0877 158.917C59.4999 158.688 59.8944 158.406 60.283 158.192C60.4429 158.105 60.4024 158.137 60.551 158.048L60.8828 157.823C61.2016 157.605 61.1083 157.56 61.6248 157.585L61.6372 158.901C61.2423 159.24 58.2173 161.073 57.5046 161.219ZM68.696 156.413C68.756 157.179 68.8906 157.38 68.38 157.815C68.0311 158.112 67.7614 158.238 67.3566 158.162L67.4622 156.967L68.696 156.413ZM63.9386 156.057C64.6521 155.669 65.5169 155.105 66.2462 154.732C67.0914 154.3 67.8585 153.585 68.7251 153.501C68.7251 155.288 69.0928 154.641 66.7437 156.013C65.6674 156.641 64.8871 157.219 63.9284 157.591L63.9386 156.057ZM54.5901 148.766C56.2356 147.845 55.8842 150.302 55.8832 151.231C55.8782 156.219 56.275 154.997 53.3077 156.85C49.4579 159.254 49.54 159.07 49.5382 155.888C49.5355 151.097 49.1748 152.037 52.0662 150.24C52.7701 149.802 53.711 149.257 54.5901 148.766ZM60.2752 150.231C61.3173 149.744 65.2813 147.36 65.5847 147.342L65.6175 148.607L61.6905 150.833C61.1721 151.114 60.9654 151.403 60.2752 151.438V150.231ZM57.8391 150.236C57.9158 148.109 57.8269 148.953 59.3742 147.973C60.0711 147.531 61.0064 146.781 62.0098 146.607L61.997 147.944C61.6984 148.202 58.304 150.215 57.8391 150.236ZM67.7595 147.206C67.7868 146.466 67.4681 145.712 69.0965 145.427L69.0558 146.574C68.893 146.706 68.6831 146.873 68.5113 146.961C68.0589 147.193 68.253 147.119 67.7595 147.206ZM55.8329 138.567C55.9539 139.892 55.8809 141.262 55.8835 142.602C55.89 145.788 55.7415 145.058 52.2564 147.166C48.9969 149.136 49.5527 148.214 49.5382 143.697C49.5279 140.536 50.0054 141.228 53.2302 139.232C54.095 138.697 54.9127 137.94 55.8329 138.567ZM68.0179 142.926C68.507 142.641 68.8493 142.354 69.1185 142.52L69.0103 143.972C68.6906 144.174 68.1712 144.43 67.8197 144.627C67.4339 144.842 67.0641 145.038 66.6695 145.272C65.9601 145.693 64.9878 146.293 64.2805 146.596L64.311 145.068L68.0179 142.926ZM59.98 141.837C59.9033 140.592 59.7762 140.647 60.7495 140.166C61.7401 139.676 64.4112 137.891 65.2289 137.688C65.4484 139.381 65.3116 138.803 63.0828 140.183C62.4488 140.575 60.6062 141.765 59.98 141.837ZM57.5078 140.613C57.4505 139.715 57.2566 139.31 57.9635 138.89C58.3991 138.63 58.7954 138.456 59.1998 138.218C59.8036 137.864 60.9922 136.938 61.6382 136.9L61.6192 138.325C61.0703 138.71 58.0286 140.492 57.5078 140.613ZM62.2732 136.439C62.5567 136.196 62.7122 136.01 63.28 136.052L63.2521 137.398C62.9228 137.603 62.6508 137.836 62.2741 137.876L62.2732 136.439ZM63.9539 135.405C65.1281 134.843 67.8981 132.976 68.728 132.748L68.6633 134.258C68.1199 134.636 64.4341 136.78 63.9199 136.918L63.9539 135.405ZM52.7773 135.454C52.2896 134.714 52.2836 134.592 52.281 133.432L52.2832 125.893C52.2832 122.445 51.6572 119.371 54.0627 117.734L63.5893 112.201C64.2492 111.835 66.0276 110.483 66.935 110.785C67.9336 111.118 67.5968 114.145 67.5968 115.21C67.5968 116.9 67.5968 118.589 67.5968 120.278C67.5968 123.647 68.2399 126.823 65.8481 128.554L56.3055 134.072C55.377 134.611 54.1448 135.666 52.7773 135.454Z" fill="#D1E6F6"/>
<path fill-rule="evenodd" clip-rule="evenodd" d="M134.282 117.923C134.395 119.24 134.422 119.076 133.469 119.615C132.626 120.092 129.449 122.02 128.958 122.021L128.972 120.826L134.282 117.923ZM126.534 120.762C126.55 119.913 126.34 119.514 126.953 119.121C127.463 118.794 130.304 117.167 130.707 117.142L130.68 118.516C130.19 118.899 127.115 120.689 126.534 120.762ZM124.768 120.279C124.959 121.334 124.911 122.652 124.898 123.842C124.87 126.405 123.888 126.155 122.693 126.923L121.55 127.684C121.525 127.698 121.492 127.72 121.467 127.735C121.441 127.749 121.407 127.77 121.382 127.785C121.325 127.817 121.243 127.862 121.121 127.926C120.322 128.346 119.912 128.806 119.062 128.744C118.384 127.862 118.65 126.905 118.65 124.935C118.65 123.455 118.424 122.979 119 122.121C119.216 121.799 119.203 121.78 119.518 121.575C119.658 121.484 119.557 121.568 119.777 121.419C120.586 120.871 121.448 120.581 122.227 120.02C123.116 119.378 123.638 119.588 124.064 118.689C124.218 118.365 124.195 118.225 124.407 117.947C124.665 117.388 124.938 116.712 125.645 117.111C126.005 117.459 125.447 118.521 125.354 118.76C125.189 119.182 124.835 119.88 124.768 120.279ZM132.973 115.621C133.695 115.209 137.248 113.039 137.77 113.084C137.831 114.062 137.933 114.363 137.251 114.769L132.98 117.155L132.973 115.621ZM129.33 109.869C129.955 109.302 131.142 108.776 131.903 108.349C132.455 108.038 134.078 106.972 134.633 107.021C134.634 108.446 135.083 107.918 132.336 109.455C131.575 109.88 129.758 111.081 129.284 111.034L129.33 109.869ZM126.896 108.376C127.531 108.016 130.272 106.242 131.005 106.108C131.119 107.901 131.297 107.405 129.445 108.454C128.801 108.819 127.488 109.742 126.931 109.7L126.896 108.376ZM124.865 109.284C124.965 110.551 124.914 111.872 124.916 113.156C124.918 114.617 125.085 115.215 123.951 115.977L121.477 117.368C120.284 118.031 120.363 118.354 119.006 118.49C118.865 118.062 119.174 118.425 118.663 118.105C118.543 116.928 118.607 115.586 118.605 114.389C118.603 113.226 118.453 112.06 119.228 111.409C119.736 110.983 122.414 109.63 123.308 109.047C123.558 108.884 123.568 109.027 123.696 108.687C124.326 107.852 124.438 105.954 125.685 106.268C125.991 107.42 125.07 108.298 124.865 109.284ZM118.578 102.336C118.578 101.113 120.921 100.087 121.791 99.5967L122.319 99.3017C122.49 99.2081 122.607 99.156 122.77 99.0663C123.062 98.9063 123.387 98.6109 123.767 98.5089C125.205 98.1223 124.91 99.2596 124.91 100.282C124.907 101.453 125.112 104.54 124.531 105.211L120.137 107.908C119.842 108.06 119.555 108.173 119.062 108.198C118.645 107.789 118.578 107.833 118.578 107.13V102.336ZM133.339 104.664C134.077 104.151 137.499 102.106 138.111 102.032L138.099 103.452L135.687 104.868C135.038 105.258 133.968 105.922 133.32 106.165L133.339 104.664ZM129.014 100.145C129.693 99.6527 130.798 99.1603 131.597 98.7121C132.368 98.2793 133.426 97.6328 134.27 97.2668L134.334 98.3644C134.305 98.3905 134.264 98.4208 134.242 98.4372L132.785 99.3681C129.279 101.235 128.747 102.247 129.014 100.145ZM126.552 98.7107C127.581 98.3055 129.669 96.6073 130.671 96.5406L130.714 97.8437C129.961 98.3261 127.407 99.918 126.542 100.177L126.552 98.7107ZM136.516 95.8991C136.936 95.683 137.204 95.4653 137.761 95.4013V96.4469L136.448 97.1383L136.516 95.8991ZM132.981 95.018C133.547 94.5839 137.53 92.3245 137.683 92.3381C138.166 93.9981 137.344 94.0816 135.878 94.9101C135.305 95.2337 134.904 95.4287 134.399 95.754C133.845 96.1107 133.359 96.5104 132.948 96.4921L132.981 95.018ZM119.756 82.751C119.756 81.5404 119.68 80.8206 120.269 79.867C121.075 78.563 123.05 77.7732 124.332 77.0779L130.682 73.413C131.933 72.7517 134.819 70.4977 134.819 72.7528V86.3119C134.819 88.8865 132.605 89.7543 130.134 91.0751C128.163 92.1286 126.318 93.4648 124.292 94.4177C122.537 95.2435 121.567 96.5825 120.02 96.2178C119.516 95.2619 119.756 84.432 119.756 82.751ZM141.938 61.0841C141.484 61.152 136.286 64.275 135.531 64.7074C134.912 65.0622 134.589 65.2725 133.971 65.6091C133.407 65.9162 132.939 66.2648 132.34 66.5599L116.22 75.939C115.777 76.5792 115.988 89.9119 115.988 90.5577C115.988 105.466 115.881 120.554 115.988 135.42C116.994 135.392 121.361 132.568 122.681 131.837L132.3 126.273C133.09 125.886 133.214 125.751 133.943 125.404L134.424 125.091C135.796 124.161 137.863 123.161 139.517 122.111L141.92 120.709C142.278 120.311 142.297 120.344 142.827 120.241C142.941 119.193 142.781 107.218 143.007 106.719C143.763 105.903 143.988 106.942 143.988 105.076C143.152 105.184 143.702 105.12 143.259 105.263C143.03 105.337 143.376 105.356 142.846 105.391C142.846 105.278 142.896 105.015 143.011 104.856C143.216 104.573 143.05 104.791 143.24 104.624C143.36 104.518 143.296 104.928 143.443 104.475C143.462 104.416 143.519 104.429 143.553 104.4C143.002 104.458 142.676 104.619 142.977 103.751C143.152 103.248 142.924 103.751 143.262 103.388C143.422 103.216 143.265 103.549 143.541 103.095L142.936 103.365C142.836 102.286 142.912 100.5 142.962 99.1861C143.409 98.9013 143.839 98.7412 144.262 98.5007V97.4063C143.597 97.4921 143.823 97.4458 143.34 97.6847C143.157 97.7754 143.055 97.8715 142.768 97.9385C143.031 97.1757 142.772 96.5757 142.844 95.7652L143.055 94.364C143.049 94.3476 142.975 94.2887 142.944 94.2556V92.3381C143.769 91.7953 143.981 92.2416 143.988 90.8322C143.212 90.8465 143.233 90.8789 142.645 91.1823C142.952 90.6213 142.814 90.7015 143.002 90.1738L142.849 90.0862C143.066 89.3781 142.947 89.4677 143.334 88.8993C142.943 88.8599 143.187 88.9689 142.965 88.7772C142.95 88.045 142.957 87.3159 142.947 86.5781C142.935 85.629 142.559 85.4415 143.334 84.9714C142.736 84.9237 142.938 85.1638 142.859 84.4162L142.892 81.7922C143.06 81.6408 142.632 81.6255 143.274 81.6463C142.703 81.445 142.861 81.5172 142.872 80.012C142.882 78.6534 142.672 74.5446 143.047 73.9952C142.917 73.8072 142.992 73.992 142.924 73.6875C142.889 73.5332 142.891 73.4719 142.884 73.3121C142.873 73.0642 142.897 72.7126 142.897 72.4494C142.536 71.6827 143.045 62.5372 142.771 60.6626C142.206 60.8097 142.432 60.7772 141.938 61.0841Z" fill="#D1E6F6"/>
<path fill-rule="evenodd" clip-rule="evenodd" d="M67.3891 78.9166L67.3618 104.262L68.4687 103.732L68.4707 86.5894C70.1344 85.8008 72.2248 84.4551 73.8381 83.544C79.1331 80.554 84.7155 77.1204 89.9906 74.219C93.5816 72.2439 97.2933 69.9296 100.756 67.9927C103.03 66.7206 109.597 62.7363 111.498 61.7978C112.157 61.4325 111.767 61.7551 111.834 61.796L111.805 71.3766C111.915 71.6267 111.304 71.7951 112.182 71.6856C112.912 71.1388 112.705 71.3799 112.709 70.2875L112.696 55.6329C112.697 53.9096 113.025 52.3358 111.695 51.7423C110.346 51.6447 106.983 53.9203 105.67 54.7076L71.7114 74.4417C69.2959 75.8737 68.4491 75.9303 67.3891 78.9166Z" fill="#2D4281"/>
<path fill-rule="evenodd" clip-rule="evenodd" d="M73.7059 160.583C74.5628 160.358 74.2732 160.569 75.0582 160.087L77.3184 158.785C77.4818 158.695 77.6888 158.609 77.8609 158.485C78.5132 158.012 78.118 158.02 78.1171 158.017C78.3892 158.697 78.3363 159.004 78.323 159.722L78.4476 161.382L78.3777 92.2011C78.382 91.0446 78.0011 91.3884 79.82 90.3692L94.9404 81.6417C99.7604 78.8578 105.227 75.5916 109.965 72.9752C110.346 72.7651 110.619 72.5938 111.01 72.363L111.805 71.9456C111.834 71.9286 111.869 71.9087 111.898 71.8909L112.182 71.6856C111.304 71.7951 111.915 71.6268 111.805 71.3767L111.834 61.796C111.767 61.7551 112.157 61.4326 111.498 61.7978C111.766 61.9269 111.744 61.5206 111.708 63.026C111.678 64.3219 111.806 66.5685 111.648 67.5699L74.1644 89.1759L74.162 100.293C74.8716 100.26 74.7815 99.9496 75.5586 99.7824L75.5546 159.311C74.9492 159.838 74.2495 160.027 73.7059 160.583Z" fill="#8196D5"/>
<path fill-rule="evenodd" clip-rule="evenodd" d="M78.4476 161.382L78.323 159.722C78.3363 159.004 78.3892 158.697 78.1171 158.017C78.118 158.02 78.5133 158.012 77.8609 158.485C77.6888 158.609 77.4818 158.695 77.3184 158.785L75.0582 160.087C74.2732 160.569 74.5628 160.358 73.7059 160.583C72.5839 161.153 71.6782 161.814 70.6301 162.377L67.44 164.105C67.2899 165.679 67.4048 167.811 67.4052 169.446C67.4069 174.872 68.4353 173.687 76.0087 169.116C78.0396 167.889 80.551 166.456 82.7673 165.203C91.7259 160.138 100.88 154.662 109.8 149.495C113.532 147.333 112.597 144.629 112.77 141.711L112.267 141.799C111.933 142.191 105.225 145.919 103.872 146.714L95.3577 151.633C90.0498 154.501 83.9356 158.325 78.4476 161.382Z" fill="#2D4281"/>
<path fill-rule="evenodd" clip-rule="evenodd" d="M104.644 83.6455C103.273 83.9635 95.3687 88.8989 93.3318 90.0167C89.7481 91.9834 88.1151 92.5876 88.1235 96.7207L88.124 108.636C88.124 110.233 87.616 113.331 89.8288 112.836C90.405 112.707 91.2677 112.123 91.7577 111.863C93.5112 110.93 104.122 104.815 104.837 104.136C105.951 103.078 106.286 101.776 106.282 99.7342L106.281 87.8184C106.281 86.1332 106.774 83.1518 104.644 83.6455Z" fill="#8DC1FC"/>
<path fill-rule="evenodd" clip-rule="evenodd" d="M123.719 86.7154C123.463 86.3215 123.011 84.535 122.836 83.9359C122.363 82.3192 122.535 82.2398 123.75 81.5602C129.877 78.131 129.614 77.6429 129.287 81.0712C129.188 82.1057 129.276 83.6012 128.713 84.1896C128.363 84.5556 125.916 85.8238 125.147 86.236C124.526 86.5689 124.469 86.7965 123.719 86.7154ZM128.865 86.7033C128.982 87.3017 129.12 87.8897 128.825 88.4172C128.476 89.0418 128.219 89.2382 127.495 88.9627C127.429 88.4205 127.499 87.9894 127.623 87.6064C126.931 87.6993 127.153 87.7417 126.577 88.0673C126.246 88.2542 125.936 88.4118 125.685 88.5561C126.437 90.1138 125.152 90.8718 124.814 90.844C123.909 90.7694 124.654 89.8422 124.389 89.3135C124.264 89.0639 123.817 88.8428 124.361 88.335C124.729 87.9911 128.65 85.907 129.232 85.6155C129.27 83.7901 129.594 81.9575 129.742 80.1484C129.9 78.219 129.984 78.6347 131.08 76.9686C131.361 76.541 131.416 76.3018 131.936 76.337C132.131 76.9613 131.297 77.8456 130.913 78.4408C130.378 79.2689 130.473 80.1499 130.35 81.3041C130.235 82.3795 130.157 83.322 130.029 84.3656C129.847 85.8489 130.213 86.2158 128.865 86.7033ZM119.757 82.7508C119.757 84.4319 119.516 95.2617 120.021 96.2176C121.567 96.5823 122.537 95.2433 124.292 94.4176C126.318 93.4646 128.163 92.1284 130.134 91.0749C132.605 89.7541 134.82 88.8863 134.82 86.3117V72.7526C134.82 70.4975 131.933 72.7515 130.682 73.4128L124.332 77.0777C123.05 77.773 121.075 78.5629 120.27 79.8668C119.68 80.8205 119.757 81.5402 119.757 82.7508Z" fill="#C7C7FC"/>
<path fill-rule="evenodd" clip-rule="evenodd" d="M54.3382 132.565C54.2378 131.717 55.1161 129.256 55.4012 128.395C55.8095 127.161 56.8398 126.117 57.6028 125.237C58.4295 124.283 59.142 125.633 61.1793 123.478C61.8023 122.819 61.6519 122.484 62.9063 122.498C64.0901 122.512 64.2382 122.555 64.6889 123.438C66.4162 126.821 65.7818 126.17 61.3608 128.872C60.4625 129.421 55.1385 132.675 54.3382 132.565ZM60.7973 116.238C62.9325 115.666 62.6437 119.082 62.1658 120.507C61.7781 121.665 60.5955 123.628 59.1848 123.778C56.26 124.09 56.9949 117.257 60.7973 116.238ZM52.7774 135.454C54.1449 135.666 55.3771 134.611 56.3056 134.072L65.8482 128.554C68.24 126.822 67.5968 123.647 67.5968 120.278C67.5968 118.589 67.5968 116.9 67.5968 115.21C67.5968 114.145 67.9337 111.118 66.9351 110.785C66.0277 110.483 64.2492 111.835 63.5894 112.201L54.0627 117.734C51.6573 119.371 52.2832 122.445 52.2832 125.893L52.2811 133.432C52.2837 134.591 52.2897 134.714 52.7774 135.454Z" fill="#FFBB00"/>
<path fill-rule="evenodd" clip-rule="evenodd" d="M85.6962 63.8504C85.8927 63.1595 88.738 61.7374 89.456 61.3499C91.0961 60.4644 92.8192 58.9444 93.6358 60.2895C93.381 60.8988 92.4225 61.2443 91.7768 61.6413C91.0965 62.0599 90.5106 62.3753 89.8675 62.7367C88.7919 63.3412 86.6553 65.1023 85.6962 63.8504ZM64.8267 76.3304C65.4202 76.0995 65.0065 76.1799 65.248 76.3138C65.0832 77.0461 64.9696 76.8563 64.9315 77.9543C65.2017 77.9585 65.5447 77.9371 65.7989 77.9514C65.9761 77.9612 65.9991 77.9625 66.1692 77.9971L67.1436 78.3682C66.7181 79.5084 67.0654 94.3258 67.0826 97.6794C67.0906 99.2787 67.2728 102.94 67.0524 104.274C67.3105 103.964 67.1929 84.3566 67.1539 80.56C67.1476 79.9422 67.0418 79.4058 67.3891 78.9166C68.4491 75.9303 69.2958 75.8736 71.7114 74.4417L105.67 54.7075C106.983 53.9203 110.346 51.6447 111.695 51.7423C111.712 51.2277 111.574 51.3279 111.117 51.1039C110.764 50.931 110.632 50.838 110.347 50.6713C108.139 49.3829 107.993 50.0971 105.548 51.5621C104.971 51.9078 104.551 52.0377 104.032 52.3696L99.5129 54.9984C98.8795 55.3061 98.5727 55.5398 98.0354 55.8302C97.8477 55.9316 97.5358 56.0405 97.253 56.1794L91.4493 59.6546C89.904 60.3494 91.5812 59.3075 90.6261 60.0797L83.5035 64.168C83.0099 64.4475 82.6343 64.7745 82.1141 65.1109L73.1183 70.2139C72.6563 70.5366 72.0371 70.7803 71.5885 71.0353C70.7996 71.4835 67.0888 73.5269 66.4487 74.1068C65.7739 74.7182 65.117 75.3157 64.8267 76.3304Z" fill="#E8E7EB"/>
<path fill-rule="evenodd" clip-rule="evenodd" d="M64.8267 76.3305L64.7278 76.871C64.6976 78.0235 64.5866 79.0119 64.5795 80.2856C64.5556 84.5623 64.2564 105.021 64.6434 105.976C65.5397 105.438 66.8527 104.94 67.0524 104.274C67.2728 102.94 67.0906 99.2787 67.0826 97.6794C67.0654 94.3258 66.7181 79.5085 67.1436 78.3682L66.1692 77.9971C65.9991 77.9626 65.9761 77.9612 65.7989 77.9514C65.5447 77.9371 65.2017 77.9585 64.9315 77.9543C64.9696 76.8563 65.0832 77.0462 65.248 76.3139C65.0065 76.1799 65.4202 76.0996 64.8267 76.3305Z" fill="#CACAD7"/>
<path fill-rule="evenodd" clip-rule="evenodd" d="M54.3382 132.565C55.1384 132.675 60.4624 129.421 61.3608 128.872C65.7817 126.17 66.4162 126.821 64.6889 123.438C64.2382 122.555 64.0901 122.512 62.9062 122.499C61.6519 122.484 61.8023 122.82 61.1793 123.479C59.142 125.633 58.4295 124.284 57.6028 125.237C56.8398 126.117 55.8094 127.161 55.4011 128.395C55.116 129.256 54.2378 131.717 54.3382 132.565Z" fill="#FDFDFD"/>
<path fill-rule="evenodd" clip-rule="evenodd" d="M110.372 166.128C109.036 166.37 106.106 165.69 105.5 166.861C105.512 168.456 108.946 167.858 110.388 167.897L110.376 170.148C110.919 170.582 111.39 170.863 112.323 170.681C113.538 170.444 113.291 169.521 113.29 167.903C114.587 167.85 117.893 168.458 118.199 166.998C117.735 165.659 114.633 166.199 113.291 166.178C113.291 164.664 113.714 163.417 111.937 163.367C109.986 163.313 110.372 164.587 110.372 166.128Z" fill="#FDFDFD"/>
<path fill-rule="evenodd" clip-rule="evenodd" d="M123.719 86.7155C124.468 86.7965 124.526 86.569 125.147 86.236C125.915 85.8238 128.363 84.5557 128.713 84.1896C129.276 83.6013 129.188 82.1057 129.287 81.0713C129.614 77.643 129.877 78.1311 123.75 81.5603C122.535 82.2399 122.363 82.3193 122.836 83.936C123.011 84.535 123.463 86.3216 123.719 86.7155Z" fill="#FDFDFD"/>
<path fill-rule="evenodd" clip-rule="evenodd" d="M82.7864 106.719L84.3264 103.344C84.5969 102.791 84.814 102.325 85.1125 101.684C86.2499 99.2396 84.121 99.0757 83.4445 99.5859C83.1396 99.8159 80.4024 105.671 80.1658 106.296C79.7298 107.448 80.4215 108.014 81.7722 109.357C82.6763 110.257 83.4925 111.836 84.7927 111.068C85.3176 110.758 85.5187 109.952 85.1771 109.382C84.9002 108.919 83.2983 107.422 82.7864 106.719Z" fill="#C7C7FC"/>
<path fill-rule="evenodd" clip-rule="evenodd" d="M109.796 84.5452C108.328 85.3714 110.033 86.9058 110.542 87.4353C112.08 89.0385 111.934 88.5986 111.021 90.5885C110.503 91.7189 110.032 92.7153 109.447 93.9446C108.412 96.1197 110.463 96.8 111.309 95.8151L114.441 89.2367C114.786 88.2722 114.404 87.9177 113.97 87.4307C113.514 86.9176 113.155 86.5512 112.768 86.1671C112.074 85.4767 111.212 83.749 109.796 84.5452Z" fill="#C7C7FC"/>
<path fill-rule="evenodd" clip-rule="evenodd" d="M60.7973 116.238C56.9949 117.257 56.26 124.09 59.1848 123.778C60.5955 123.628 61.7781 121.665 62.1658 120.507C62.6437 119.082 62.9325 115.666 60.7973 116.238Z" fill="#FDFDFD"/>
<path fill-rule="evenodd" clip-rule="evenodd" d="M50.2718 168.105L54.4858 165.674C55.4422 165.088 55.174 164.421 55.1722 163.146C55.1707 162.093 55.2461 160.786 55.1542 159.769C54.7958 159.777 51.5003 161.667 50.9707 162.012C50.0247 162.629 50.2327 163.409 50.2352 164.653C50.2371 165.657 50.152 167.168 50.2718 168.105Z" fill="#E5F1FD"/>
<path fill-rule="evenodd" clip-rule="evenodd" d="M50.2785 157.708L54.5394 155.33C55.3837 154.746 55.1687 153.983 55.1727 152.737C55.1866 148.484 56.1185 148.765 51.0199 151.659C49.9621 152.259 50.233 152.874 50.2357 154.244C50.2379 155.393 50.1715 156.569 50.2785 157.708Z" fill="#E5F1FD"/>
<path fill-rule="evenodd" clip-rule="evenodd" d="M50.2559 147.341C50.8362 147.201 51.9991 146.518 52.5284 146.209C54.1986 145.236 55.0861 145.007 55.1577 143.963L55.1371 139.119C54.692 139.094 51.4863 141.063 50.9776 141.36C50.5202 141.627 50.3516 141.711 50.2586 142.322L50.2559 147.341Z" fill="#E5F1FD"/>
<path fill-rule="evenodd" clip-rule="evenodd" d="M92.1878 119.195C91.0459 121.439 90.8265 123.979 89.1577 123.968C88.73 123.321 87.9836 122.454 87.4289 121.778C86.705 120.896 87.2036 119.459 88.5925 119.405C88.902 119.834 89.4921 120.779 89.8894 120.896C90.1914 120.311 91.4387 117.387 91.4695 116.96C91.4112 116.733 91.5087 116.814 91.3249 116.799C90.6185 117.497 87.4106 118.903 86.7427 119.603C86.1217 120.254 86.3885 121.869 86.3862 122.88L86.3686 125.77C86.3907 126.886 86.5416 126.6 87.3867 126.126L90.7905 124.196C91.6152 123.73 92.341 123.492 92.4403 122.464C92.5148 121.693 92.5352 119.746 92.4489 118.995C92.3289 119.315 92.3681 119.085 92.1878 119.195Z" fill="#FDFDFD"/>
<path fill-rule="evenodd" clip-rule="evenodd" d="M92.204 144.428C91.4573 145.883 90.5416 149.527 89.3417 149.23C88.917 148.977 87.7879 147.485 87.3979 147.007C86.6064 146.037 87.4133 144.712 88.5645 144.655C89.1835 145.256 89.4263 146.008 89.8896 146.121C90.2086 145.567 91.4669 142.579 91.5047 142.163L91.7345 141.543C90.8924 141.902 90.0547 142.472 89.2427 142.922C88.5782 143.29 87.3628 143.927 86.8497 144.362C85.7308 145.309 86.7359 149.868 86.2954 151.47C88.2339 150.698 88.7528 150.119 90.5649 149.144C91.2986 148.749 92.2119 148.397 92.4009 147.596L92.4952 145.045C92.4636 144.231 92.6161 144.446 92.204 144.428Z" fill="#FDFDFD"/>
<path fill-rule="evenodd" clip-rule="evenodd" d="M89.6154 132.453C89.9995 132.096 90.2907 131.421 90.6265 130.866C90.9546 130.324 91.1141 129.675 92.0646 129.876C92.295 131.266 91.0407 132.018 90.8168 133.181L92.0661 133.974C92.2377 134.903 91.8308 135.32 91.2588 135.654C90.458 135.572 90.3572 135.16 89.5732 135.002C88.2778 138.304 86.7758 138.016 87.3534 136.526C87.6269 135.821 88.4503 134.953 88.511 134.254L87.239 133.496C87.1429 130.623 89.435 132.385 89.6154 132.453ZM86.4105 138.981C86.933 138.945 90.9592 136.505 91.6125 136.102C92.7662 135.388 92.4533 134.435 92.4677 132.878C92.4791 131.644 92.5427 130.011 92.4381 128.83C91.8659 128.811 88.2312 131.055 87.3466 131.572C86.7245 131.936 86.3715 132.29 86.3715 133.152L86.4105 138.981Z" fill="#FDFDFD"/>
<path fill-rule="evenodd" clip-rule="evenodd" d="M86.4107 138.981L86.3717 133.152C86.3717 132.29 86.7247 131.936 87.3468 131.572C88.2314 131.055 91.8661 128.811 92.4383 128.83C92.5429 130.012 92.4793 131.644 92.4679 132.878C92.4535 134.435 92.7664 135.388 91.6127 136.102C90.9594 136.505 86.9332 138.945 86.4107 138.981ZM92.0797 128.043C91.6024 128.154 89.4714 129.443 88.9643 129.757C85.1711 132.1 85.6384 130.94 85.6384 136.028C85.6386 141.007 85.4724 140.465 89.9204 137.977C93.7653 135.826 93.2213 136.33 93.2213 131.646C93.2213 129.743 93.5933 127.69 92.0797 128.043Z" fill="#C7C7FC"/>
<path fill-rule="evenodd" clip-rule="evenodd" d="M92.38 140.338L92.4317 140.958C91.8427 141.331 91.9417 141.797 91.5046 142.163C91.4668 142.579 90.2085 145.567 89.8895 146.121C89.4261 146.008 89.1834 145.256 88.5644 144.655C87.4132 144.712 86.6063 146.037 87.3978 147.007C87.7878 147.485 88.9169 148.977 89.3416 149.23C90.5414 149.527 91.4572 145.883 92.2039 144.428C92.497 143.571 92.4349 143.73 92.5252 142.739C92.9341 142.484 92.8524 142.681 93.1703 142.288C93.375 141.403 94.6808 139.532 94.1282 138.631C93.2106 138.173 92.517 139.691 92.38 140.338Z" fill="#04F4D1"/>
<path fill-rule="evenodd" clip-rule="evenodd" d="M92.1839 115.485C92.2349 116.159 92.2599 116.163 92.054 116.432L91.4697 116.96C91.4389 117.387 90.1916 120.311 89.8897 120.896C89.4923 120.779 88.9023 119.834 88.5927 119.405C87.2038 119.459 86.7052 120.896 87.4292 121.778C87.9839 122.454 88.7302 123.321 89.1579 123.968C90.8267 123.979 91.0461 121.439 92.1881 119.195C92.4823 118.443 92.4946 118.455 92.5069 117.539L93.1938 116.963C93.4419 115.855 94.4896 114.693 94.2073 113.358C92.9026 113.044 92.5437 114.611 92.1839 115.485Z" fill="#04F4D1"/>
<path fill-rule="evenodd" clip-rule="evenodd" d="M93.1702 142.288C92.8523 142.681 92.934 142.484 92.5251 142.739C92.4348 143.729 92.4969 143.571 92.2038 144.428C92.6159 144.446 92.4633 144.231 92.495 145.045L92.4007 147.596C92.2117 148.397 91.2984 148.749 90.5646 149.144C88.7526 150.119 88.2337 150.698 86.2952 151.47C86.7357 149.868 85.7306 145.309 86.8494 144.362C87.3626 143.927 88.578 143.29 89.2425 142.922C90.0544 142.471 90.8922 141.902 91.7343 141.543L91.5045 142.163C91.9416 141.797 91.8426 141.331 92.4316 140.958L92.3799 140.337C91.1768 140.772 90.4412 141.354 89.373 141.956C85.4193 144.184 85.6396 143.701 85.6385 147.259C85.6384 148.135 85.5223 150.968 85.6669 151.626C86.0554 153.391 89.3149 150.575 91.4786 149.531C92.6945 148.944 93.2102 148.388 93.2244 146.715C93.2364 145.26 93.132 143.711 93.1702 142.288Z" fill="#C7C7FC"/>
<path fill-rule="evenodd" clip-rule="evenodd" d="M93.1936 116.963L92.5067 117.539C92.4944 118.455 92.4822 118.443 92.1879 119.195C92.3682 119.085 92.329 119.315 92.4489 118.995C92.5352 119.746 92.5148 121.693 92.4403 122.464C92.3411 123.492 91.6153 123.73 90.7905 124.196L87.3867 126.126C86.5417 126.6 86.3907 126.886 86.3687 125.77L86.3863 122.88C86.3886 121.869 86.1218 120.254 86.7427 119.603C87.4107 118.903 90.6186 117.497 91.3249 116.799C91.5088 116.814 91.4112 116.733 91.4695 116.96L92.0538 116.432C92.2597 116.163 92.2347 116.159 92.1837 115.485L86.4079 118.852C85.3608 119.745 85.6386 121.159 85.6385 122.743C85.6385 128.318 84.6923 128.73 91.8793 124.457C93.1528 123.7 93.2156 123.204 93.2222 121.374C93.2268 120.055 93.079 118.169 93.1936 116.963Z" fill="#C7C7FC"/>
<path fill-rule="evenodd" clip-rule="evenodd" d="M89.6154 132.453C89.435 132.385 87.143 130.623 87.2391 133.496L88.5111 134.255C88.4504 134.953 87.627 135.821 87.3535 136.526C86.7758 138.016 88.2779 138.304 89.5733 135.002C90.3572 135.16 90.458 135.572 91.2589 135.654C91.8309 135.32 92.2377 134.903 92.0661 133.974L90.8168 133.181C91.0408 132.018 92.2951 131.266 92.0647 129.876C91.1142 129.675 90.9546 130.324 90.6266 130.866C90.2908 131.421 89.9995 132.096 89.6154 132.453Z" fill="#EEDE20"/>
<path fill-rule="evenodd" clip-rule="evenodd" d="M64.5043 165.748C64.6794 170.195 63.7832 170.707 65.9275 172.007C66.1718 172.156 67.3282 172.781 67.4808 172.836C66.3409 171.237 67.7464 166.484 66.9443 164.255C66.6956 164.507 66.6189 164.481 66.3393 164.654C66.0947 164.806 65.9756 164.868 65.7445 164.994L64.5043 165.748Z" fill="#CACAD7"/>
<path fill-rule="evenodd" clip-rule="evenodd" d="M50.2558 147.341L50.2586 142.322C50.3516 141.711 50.5201 141.627 50.9775 141.36C51.4863 141.063 54.6919 139.094 55.137 139.119L55.1576 143.963C55.0861 145.007 54.1985 145.236 52.5283 146.21C51.999 146.518 50.8361 147.201 50.2558 147.341ZM55.833 138.566C54.9128 137.94 54.0951 138.696 53.2303 139.232C50.0055 141.228 49.528 140.536 49.5383 143.697C49.5528 148.214 48.997 149.136 52.2565 147.165C55.7416 145.058 55.8901 145.788 55.8836 142.602C55.881 141.262 55.954 139.892 55.833 138.566Z" fill="#ABCAF3"/>
<path fill-rule="evenodd" clip-rule="evenodd" d="M50.2717 168.105C50.152 167.168 50.237 165.657 50.2352 164.653C50.2327 163.409 50.0246 162.629 50.9707 162.012C51.5003 161.667 54.7957 159.777 55.1542 159.768C55.2461 160.785 55.1707 162.093 55.1721 163.146C55.1739 164.421 55.4422 165.088 54.4858 165.674L50.2717 168.105ZM49.8523 168.821C50.7544 168.72 50.7515 168.747 51.4556 168.281C52.4716 167.61 54.4667 166.707 55.2705 166.049C56.1282 165.346 55.8839 163.904 55.8839 162.735C55.8839 161.521 56.0541 160.165 55.6788 159.035C54.3232 158.876 53.7705 159.624 52.7167 160.221C52.2625 160.478 51.8442 160.664 51.3955 160.958C49.5312 162.179 49.5392 161.489 49.5383 165.201C49.538 166.444 49.3916 167.803 49.8523 168.821Z" fill="#ABCAF3"/>
<path fill-rule="evenodd" clip-rule="evenodd" d="M50.2786 157.708C50.1715 156.569 50.238 155.393 50.2357 154.244C50.2331 152.875 49.9621 152.26 51.0199 151.659C56.1186 148.765 55.1867 148.484 55.1727 152.737C55.1687 153.983 55.3838 154.746 54.5394 155.33L50.2786 157.708ZM54.5902 148.766C53.711 149.257 52.7701 149.802 52.0662 150.24C49.1748 152.037 49.5355 151.097 49.5382 155.888C49.54 159.07 49.4579 159.254 53.3077 156.85C56.275 154.997 55.8782 156.219 55.8832 151.231C55.8842 150.302 56.2356 147.845 54.5902 148.766Z" fill="#ABCAF3"/>
<path fill-rule="evenodd" clip-rule="evenodd" d="M128.864 86.7034C130.213 86.2159 129.847 85.849 130.028 84.3657C130.156 83.3221 130.235 82.3796 130.35 81.3043C130.473 80.15 130.378 79.269 130.912 78.4409C131.297 77.8457 132.131 76.9614 131.936 76.3372C131.416 76.3019 131.361 76.5411 131.079 76.9687C129.984 78.6348 129.9 78.2191 129.742 80.1485C129.594 81.9576 129.27 83.7902 129.232 85.6156C128.65 85.9071 124.729 87.9912 124.361 88.3352C123.817 88.8429 124.264 89.064 124.389 89.3137C124.653 89.8423 123.909 90.7695 124.814 90.8441C125.152 90.8719 126.437 90.1139 125.685 88.5563C125.936 88.4119 126.246 88.2543 126.577 88.0675C127.152 87.7418 126.931 87.6994 127.623 87.6065C127.498 87.9895 127.428 88.4206 127.494 88.9628C128.219 89.2383 128.476 89.0419 128.825 88.4173C129.12 87.8898 128.982 87.3018 128.864 86.7034Z" fill="#FDFDFD"/>
<path fill-rule="evenodd" clip-rule="evenodd" d="M124.056 121.756C123.763 122.417 123.438 123.197 123.148 123.942C122.14 126.541 121.701 125.964 120.916 124.988C120.62 124.622 120.457 124.441 120.182 124.087C119.567 123.295 119.893 122.23 120.842 122.056C121.553 122.32 121.415 122.795 122.075 123.211L123.279 120.484C123.387 119.892 123.345 120.408 123.076 120.188C122.728 120.647 119.904 121.9 119.517 122.373C119.081 122.906 119.22 127.146 119.28 128.134C120.205 127.843 122.039 126.639 122.948 126.089C124.049 125.424 124.459 125.738 124.286 122.46C124.277 122.296 124.281 122.233 124.233 122.078C124.095 121.631 124.42 122.08 124.056 121.756Z" fill="#E5F1FD"/>
<path fill-rule="evenodd" clip-rule="evenodd" d="M119.276 103.295C119.276 101.329 119.429 101.936 121.278 100.72C122.063 100.204 123.299 99.5133 124.129 99.105C124.232 99.3052 124.568 104.432 123.774 104.988L119.284 107.454L119.276 103.295ZM118.578 102.336V107.13C118.578 107.833 118.645 107.789 119.062 108.198C119.555 108.173 119.842 108.06 120.137 107.908L124.531 105.211C125.113 104.54 124.907 101.453 124.91 100.282C124.91 99.2596 125.205 98.1224 123.767 98.5089C123.387 98.6109 123.062 98.9063 122.771 99.0663C122.607 99.1561 122.49 99.2081 122.319 99.3017L121.791 99.5967C120.921 100.087 118.578 101.113 118.578 102.336Z" fill="#C7C7FC"/>
<path fill-rule="evenodd" clip-rule="evenodd" d="M124.865 109.284C124.575 109.565 124.646 109.44 124.262 109.599C124.264 109.872 124.286 110.265 124.236 110.526C124.124 111.113 124.136 110.534 123.979 111.229C124.354 111.04 124.06 111.084 124.266 111.239C124.091 114.616 124.783 114.66 123.07 115.671C122.288 116.132 119.933 117.585 119.255 117.67C119.389 115.587 118.998 113.374 119.593 111.938C120.038 111.992 119.829 111.788 119.889 112.185C120.164 111.745 119.939 111.708 120.364 111.435C120.649 111.252 120.806 111.268 121.084 111.376C121.227 110.795 120.786 111.303 122.002 110.602C122.489 110.321 122.511 110.225 123.066 110.036C123.076 110.687 123.065 110.294 122.879 110.826C123.112 110.46 123.131 110.152 123.388 109.826C123.827 109.269 123.805 109.731 123.696 108.687C123.568 109.027 123.558 108.884 123.308 109.047C122.414 109.63 119.736 110.983 119.228 111.409C118.453 112.06 118.603 113.226 118.606 114.389C118.608 115.586 118.543 116.928 118.664 118.105C119.174 118.425 118.865 118.062 119.006 118.49C120.363 118.354 120.284 118.031 121.477 117.368L123.952 115.977C125.085 115.215 124.919 114.617 124.916 113.156C124.914 111.872 124.965 110.551 124.865 109.284Z" fill="#C7C7FC"/>
<path fill-rule="evenodd" clip-rule="evenodd" d="M121.938 102.022C122.778 101.411 122.595 99.8828 123.953 99.9213C124.121 101.313 123.02 101.611 122.948 102.747C123.132 102.86 123.327 102.94 123.442 103.008C124.038 103.361 123.627 102.932 123.904 103.411C124.109 104.08 123.755 104.405 123.42 104.755C122.59 104.741 122.652 104.382 121.938 104.273C121.277 105.092 121.194 106.357 120.002 106.435C119.759 104.935 120.888 104.717 120.998 103.54C120.467 103.268 120.107 103.248 119.989 102.884C119.916 102.13 120.076 101.916 120.569 101.601C121.456 101.582 121.211 101.907 121.938 102.022ZM119.276 103.295L119.284 107.454L123.774 104.987C124.568 104.432 124.232 99.305 124.13 99.1047C123.299 99.513 122.063 100.203 121.278 100.72C119.43 101.936 119.276 101.328 119.276 103.295Z" fill="#E5F1FD"/>
<path fill-rule="evenodd" clip-rule="evenodd" d="M123.696 108.686C123.805 109.73 123.827 109.269 123.388 109.826C123.131 110.152 123.111 110.46 122.879 110.826C122.717 111.121 122.649 111.406 122.538 111.69L122.042 112.51L121.084 111.375C120.806 111.268 120.649 111.251 120.364 111.435C119.939 111.708 120.164 111.745 119.889 112.185C119.718 113.416 121.663 115.021 121.664 115.022C122.586 114.891 122.764 114.14 123.08 113.364C123.355 112.69 123.654 111.782 123.979 111.228C124.136 110.534 124.124 111.113 124.236 110.526C124.286 110.264 124.264 109.872 124.262 109.598C124.646 109.439 124.575 109.565 124.865 109.283C125.07 108.298 125.991 107.42 125.685 106.268C124.438 105.954 124.326 107.852 123.696 108.686Z" fill="#71E6D5"/>
<path fill-rule="evenodd" clip-rule="evenodd" d="M124.408 117.947C124.047 118.779 124.168 118.878 124.064 119.73C123.789 119.935 123.872 119.825 123.639 120.07C123.426 120.295 123.542 120.264 123.279 120.484L122.075 123.211C121.415 122.795 121.553 122.32 120.842 122.056C119.893 122.23 119.567 123.295 120.182 124.087C120.457 124.441 120.62 124.622 120.915 124.988C121.701 125.963 122.14 126.54 123.148 123.942C123.438 123.197 123.763 122.417 124.056 121.756L124.246 120.366L124.769 120.278C124.835 119.879 125.189 119.181 125.354 118.759C125.447 118.521 126.005 117.459 125.645 117.111C124.938 116.711 124.665 117.388 124.408 117.947Z" fill="#71E6D5"/>
<path fill-rule="evenodd" clip-rule="evenodd" d="M124.769 120.278L124.246 120.366L124.056 121.756C124.42 122.08 124.095 121.631 124.233 122.078C124.281 122.233 124.277 122.296 124.285 122.46C124.459 125.738 124.049 125.423 122.948 126.089C122.039 126.639 120.205 127.843 119.28 128.134C119.22 127.146 119.081 122.906 119.517 122.373C119.904 121.899 122.728 120.647 123.076 120.187C123.345 120.408 123.387 119.892 123.279 120.484C123.542 120.264 123.426 120.295 123.639 120.07C123.872 119.825 123.788 119.935 124.064 119.73C124.168 118.877 124.047 118.779 124.408 117.947C124.195 118.225 124.218 118.364 124.064 118.689C123.638 119.588 123.116 119.378 122.227 120.019C121.448 120.581 120.587 120.87 119.777 121.419C119.557 121.568 119.658 121.483 119.518 121.575C119.203 121.78 119.216 121.799 119 122.121C118.424 122.978 118.65 123.455 118.65 124.934C118.65 126.905 118.384 127.862 119.062 128.744C119.912 128.806 120.322 128.345 121.121 127.925C121.243 127.861 121.325 127.817 121.382 127.784C121.407 127.77 121.441 127.749 121.467 127.734C121.492 127.72 121.525 127.698 121.55 127.683L122.693 126.922C123.888 126.155 124.87 126.405 124.898 123.842C124.911 122.652 124.959 121.334 124.769 120.278Z" fill="#C7C7FC"/>
<path fill-rule="evenodd" clip-rule="evenodd" d="M123.979 111.228C123.654 111.783 123.355 112.691 123.081 113.364C122.764 114.14 122.586 114.891 121.664 115.022C121.663 115.022 119.718 113.416 119.889 112.185C119.829 111.788 120.038 111.992 119.593 111.938C118.998 113.374 119.389 115.587 119.255 117.67C119.933 117.585 122.288 116.132 123.07 115.671C124.783 114.66 124.091 114.616 124.266 111.238C124.06 111.084 124.354 111.04 123.979 111.228Z" fill="#E5F1FD"/>
<path fill-rule="evenodd" clip-rule="evenodd" d="M121.938 102.022C121.211 101.907 121.456 101.582 120.569 101.601C120.076 101.916 119.916 102.13 119.989 102.884C120.107 103.248 120.467 103.268 120.998 103.54C120.888 104.717 119.759 104.935 120.002 106.435C121.194 106.357 121.277 105.092 121.938 104.273C122.652 104.382 122.59 104.741 123.42 104.755C123.755 104.405 124.109 104.08 123.904 103.411C123.626 102.932 124.037 103.361 123.442 103.008C123.327 102.94 123.132 102.86 122.948 102.747C123.019 101.611 124.121 101.313 123.953 99.9214C122.595 99.8828 122.778 101.411 121.938 102.022Z" fill="#EEDE20"/>
<path fill-rule="evenodd" clip-rule="evenodd" d="M101.415 93.0231C100.672 92.2171 99.3142 91.1585 98.7956 93.5557C98.4124 95.3282 99.4175 95.8041 100.005 96.5752C99.6528 99.0028 98.6734 101.039 97.5906 101.904C96.5276 101.769 95.2862 100.571 94.5584 102.53C93.9471 104.175 95.0046 105.064 95.861 105.421C99.2068 106.817 104.046 95.8821 101.415 93.0231Z" fill="#FDFDFD"/>
<path fill-rule="evenodd" clip-rule="evenodd" d="M85.6959 63.8504C86.655 65.1023 88.7916 63.3412 89.8673 62.7367C90.5104 62.3753 91.0963 62.0599 91.7765 61.6413C92.4222 61.2443 93.3808 60.8988 93.6355 60.2895C92.8189 58.9444 91.0958 60.4644 89.4557 61.3499C88.7378 61.7374 85.8925 63.1595 85.6959 63.8504Z" fill="#2D4281"/>
<path fill-rule="evenodd" clip-rule="evenodd" d="M103.285 113.041C104.026 113.016 105.226 112.119 106.237 111.549C106.92 111.164 108.548 110.298 109.038 109.869L109.089 108.075C108.143 108.198 104.894 110.561 103.721 110.921C103.109 111.108 103.285 112.168 103.285 113.041Z" fill="#C7C7FC"/>
<path fill-rule="evenodd" clip-rule="evenodd" d="M103.344 138.058C103.629 137.963 104.482 137.432 104.8 137.25C105.403 136.904 105.638 136.79 106.183 136.439C107.158 135.813 108.153 135.411 109.083 134.796L109.097 132.95C108.568 133.055 103.927 135.695 103.28 136.166L103.344 138.058Z" fill="#C7C7FC"/>
<path fill-rule="evenodd" clip-rule="evenodd" d="M103.737 124.808L109.499 121.538L109.477 119.629C108.891 119.757 106.642 121.213 105.988 121.582C105.416 121.904 104.915 122.238 104.226 122.567C103.544 122.892 103.579 123.408 103.737 124.808Z" fill="#C7C7FC"/>
<path fill-rule="evenodd" clip-rule="evenodd" d="M98.8411 129.215L98.8372 130.662C99.5045 130.694 100.079 130.125 100.751 129.77C101.448 129.402 102.039 129.065 102.615 128.742C105.803 126.958 105.437 127.349 105.332 125.646C104.781 125.66 102.774 126.928 102.026 127.341C100.911 127.955 99.7377 128.629 98.8411 129.215Z" fill="#C7C7FC"/>
<path fill-rule="evenodd" clip-rule="evenodd" d="M98.4938 117.539L98.4661 119.087C99.0808 118.976 104.26 116.01 104.926 115.484L104.94 114.121C104.311 114.07 100.039 116.546 98.9017 117.231L98.4938 117.539Z" fill="#C7C7FC"/>
<path fill-rule="evenodd" clip-rule="evenodd" d="M98.4249 143.931C99.0503 143.97 101.034 142.637 101.705 142.234L104.967 140.41L104.884 138.825L98.4249 142.492V143.931Z" fill="#C7C7FC"/>
<path fill-rule="evenodd" clip-rule="evenodd" d="M95.5503 142.43C96.154 142.425 99.6382 140.163 100.567 139.715L100.53 137.835C99.8905 138.019 98.5976 138.86 98.0228 139.217C95.6328 140.702 95.2826 140.128 95.5503 142.43Z" fill="#C7C7FC"/>
<path fill-rule="evenodd" clip-rule="evenodd" d="M95.543 115.758L95.5215 117.565C96.1301 117.482 99.9918 115.19 100.528 114.776L100.575 113.039C99.9104 113.043 98.9951 113.765 98.0399 114.316C97.3048 114.739 96.2086 115.313 95.543 115.758Z" fill="#C7C7FC"/>
<path fill-rule="evenodd" clip-rule="evenodd" d="M95.9598 127.4L95.915 129.18C96.4815 129.119 100.216 126.895 100.958 126.418L100.975 124.564C100.609 124.61 96.3498 127.137 95.9598 127.4Z" fill="#C7C7FC"/>
<path fill-rule="evenodd" clip-rule="evenodd" d="M132.981 95.0179L132.948 96.492C133.359 96.5103 133.845 96.1106 134.399 95.7539C134.904 95.4285 135.306 95.2335 135.878 94.91C137.344 94.0814 138.166 93.9979 137.683 92.338C137.531 92.3243 133.548 94.5837 132.981 95.0179Z" fill="#ABCAF3"/>
<path fill-rule="evenodd" clip-rule="evenodd" d="M133.339 104.664L133.321 106.165C133.968 105.922 135.038 105.258 135.687 104.868L138.099 103.452L138.111 102.032C137.499 102.106 134.077 104.151 133.339 104.664Z" fill="#ABCAF3"/>
<path fill-rule="evenodd" clip-rule="evenodd" d="M63.9386 156.057L63.9283 157.591C64.8871 157.219 65.6674 156.641 66.7437 156.013C69.0928 154.641 68.7251 155.288 68.7251 153.501C67.8585 153.585 67.0914 154.3 66.2461 154.732C65.5168 155.105 64.6521 155.669 63.9386 156.057Z" fill="#ABCAF3"/>
<path fill-rule="evenodd" clip-rule="evenodd" d="M63.9539 135.405L63.9199 136.918C64.4341 136.78 68.1198 134.636 68.6633 134.257L68.728 132.748C67.8981 132.975 65.128 134.843 63.9539 135.405Z" fill="#ABCAF3"/>
<path fill-rule="evenodd" clip-rule="evenodd" d="M64.3111 145.067L64.2806 146.595C64.9879 146.293 65.9602 145.693 66.6696 145.272C67.0642 145.038 67.4339 144.842 67.8198 144.626C68.1713 144.43 68.6907 144.173 69.0104 143.972L69.1186 142.519C68.8494 142.354 68.5071 142.64 68.018 142.926L64.3111 145.067Z" fill="#ABCAF3"/>
<path fill-rule="evenodd" clip-rule="evenodd" d="M132.973 115.621L132.98 117.155L137.251 114.769C137.933 114.363 137.831 114.062 137.77 113.084C137.248 113.039 133.695 115.209 132.973 115.621Z" fill="#ABCAF3"/>
<path fill-rule="evenodd" clip-rule="evenodd" d="M59.9802 141.837C60.6064 141.765 62.449 140.576 63.0829 140.183C65.3118 138.803 65.4486 139.381 65.229 137.688C64.4113 137.891 61.7403 139.676 60.7496 140.166C59.7764 140.647 59.9035 140.592 59.9802 141.837Z" fill="#ABCAF3"/>
<path fill-rule="evenodd" clip-rule="evenodd" d="M129.331 109.869L129.285 111.034C129.758 111.081 131.576 109.88 132.336 109.455C135.083 107.918 134.634 108.446 134.634 107.021C134.079 106.971 132.455 108.038 131.903 108.348C131.143 108.776 129.956 109.302 129.331 109.869Z" fill="#ABCAF3"/>
<path fill-rule="evenodd" clip-rule="evenodd" d="M59.8462 162.392C60.2983 162.646 61.7165 161.595 62.5445 161.138L65.2759 159.586L65.2818 158.42C64.2125 158.573 61.0602 160.739 59.9521 161.247L59.8462 162.392Z" fill="#ABCAF3"/>
<path fill-rule="evenodd" clip-rule="evenodd" d="M60.2754 150.231V151.438C60.9657 151.402 61.1723 151.114 61.6907 150.833L65.6177 148.607L65.5849 147.342C65.2815 147.36 61.3176 149.744 60.2754 150.231Z" fill="#ABCAF3"/>
<path fill-rule="evenodd" clip-rule="evenodd" d="M129.015 100.145C128.747 102.247 129.279 101.235 132.785 99.3681L134.242 98.4372C134.264 98.4208 134.305 98.3905 134.334 98.3644L134.27 97.2668C133.426 97.6328 132.368 98.2794 131.597 98.7121C130.798 99.1603 129.693 99.6527 129.015 100.145Z" fill="#ABCAF3"/>
<path fill-rule="evenodd" clip-rule="evenodd" d="M128.972 120.826L128.958 122.021C129.45 122.02 132.626 120.092 133.469 119.615C134.422 119.076 134.395 119.24 134.282 117.923L128.972 120.826Z" fill="#ABCAF3"/>
<path fill-rule="evenodd" clip-rule="evenodd" d="M126.896 108.376L126.931 109.7C127.488 109.742 128.801 108.819 129.445 108.454C131.297 107.405 131.119 107.901 131.006 106.108C130.272 106.242 127.531 108.015 126.896 108.376Z" fill="#ABCAF3"/>
<path fill-rule="evenodd" clip-rule="evenodd" d="M57.5079 140.613C58.0287 140.492 61.0703 138.71 61.6192 138.325L61.6383 136.9C60.9923 136.938 59.8037 137.864 59.1999 138.218C58.7955 138.455 58.3992 138.63 57.9636 138.889C57.2567 139.31 57.4506 139.715 57.5079 140.613Z" fill="#ABCAF3"/>
<path fill-rule="evenodd" clip-rule="evenodd" d="M126.553 98.7106L126.542 100.177C127.407 99.9179 129.961 98.3259 130.714 97.8436L130.671 96.5405C129.67 96.6072 127.581 98.3054 126.553 98.7106Z" fill="#ABCAF3"/>
<path fill-rule="evenodd" clip-rule="evenodd" d="M126.534 120.762C127.116 120.689 130.19 118.899 130.68 118.516L130.707 117.142C130.304 117.167 127.464 118.794 126.953 119.121C126.34 119.514 126.55 119.913 126.534 120.762Z" fill="#ABCAF3"/>
<path fill-rule="evenodd" clip-rule="evenodd" d="M57.839 150.235C58.3039 150.215 61.6984 148.202 61.997 147.944L62.0098 146.607C61.0063 146.781 60.0711 147.531 59.3741 147.973C57.8268 148.953 57.9157 148.109 57.839 150.235Z" fill="#ABCAF3"/>
<path fill-rule="evenodd" clip-rule="evenodd" d="M57.5048 161.219C58.2175 161.073 61.2425 159.24 61.6374 158.9L61.6251 157.585C61.1085 157.559 61.2018 157.605 60.8831 157.823L60.5512 158.048C60.4026 158.136 60.4431 158.104 60.2832 158.192C59.8946 158.406 59.5002 158.688 59.0879 158.917C57.8179 159.623 57.3556 159.394 57.5048 161.219Z" fill="#ABCAF3"/>
<path fill-rule="evenodd" clip-rule="evenodd" d="M93.1551 100.515C93.3395 98.4262 92.3211 97.7837 93.6259 95.0551C94.9387 92.3099 96.273 93.2405 96.8361 92.2067C95.8839 89.207 90.5196 94.7051 92.0941 99.5511C92.3623 100.377 92.3784 100.343 93.1551 100.515Z" fill="#FDFDFD"/>
<path fill-rule="evenodd" clip-rule="evenodd" d="M107.485 137.261C107.269 139.772 107.723 138.674 109.088 138.082L109.03 136.478C108.791 136.541 107.769 137.066 107.485 137.261Z" fill="#C7C7FC"/>
<path fill-rule="evenodd" clip-rule="evenodd" d="M107.472 112.381L107.472 114.045C107.768 114.029 108.835 113.32 109.05 113.179L109.06 111.547L107.472 112.381Z" fill="#C7C7FC"/>
<path fill-rule="evenodd" clip-rule="evenodd" d="M107.968 125.614L109.473 124.811L109.506 123.386C107.883 123.384 107.748 124.327 107.968 125.614Z" fill="#C7C7FC"/>
<path fill-rule="evenodd" clip-rule="evenodd" d="M101.33 139.257C101.46 139.199 102.351 138.67 102.423 138.551C102.625 138.221 102.55 137.216 102.538 136.777C101.161 136.963 101.058 137.634 101.33 139.257Z" fill="#C7C7FC"/>
<path fill-rule="evenodd" clip-rule="evenodd" d="M101.7 124.113C101.7 126.87 101.514 126.08 102.938 125.254L102.958 123.497C102.314 123.586 102.087 123.783 101.7 124.113Z" fill="#C7C7FC"/>
<path fill-rule="evenodd" clip-rule="evenodd" d="M101.254 114.27L102.453 113.796L102.56 111.871C100.995 112.085 101.266 112.757 101.254 114.27Z" fill="#C7C7FC"/>
<path fill-rule="evenodd" clip-rule="evenodd" d="M121.084 111.376L122.042 112.51L122.538 111.691C122.649 111.406 122.717 111.122 122.879 110.826C123.065 110.294 123.076 110.687 123.065 110.035C122.511 110.225 122.489 110.321 122.002 110.602C120.786 111.303 121.227 110.795 121.084 111.376Z" fill="#E5F1FD"/>
<path fill-rule="evenodd" clip-rule="evenodd" d="M95.0027 99.4094C95.1908 98.5524 95.324 97.1387 95.6639 96.4704C96.2304 95.3563 96.4627 96.3251 96.9946 94.7561C96.4148 93.6513 95.2792 94.535 94.7041 95.4713C94.4515 95.8823 93.0808 98.9688 95.0027 99.4094Z" fill="#FDFDFD"/>
<path fill-rule="evenodd" clip-rule="evenodd" d="M105.687 139.955C106.024 139.911 106.337 139.627 106.735 139.444L106.741 137.812C106.271 137.894 105.978 138.082 105.67 138.357L105.687 139.955Z" fill="#C7C7FC"/>
<path fill-rule="evenodd" clip-rule="evenodd" d="M106.061 125.066L106.055 126.57C106.607 126.544 106.672 126.36 107.14 126.171L107.157 124.538C106.762 124.64 106.403 124.906 106.061 125.066Z" fill="#C7C7FC"/>
<path fill-rule="evenodd" clip-rule="evenodd" d="M105.667 113.451L105.684 115.141C105.966 114.912 106.322 114.709 106.719 114.519L106.755 113.002C106.205 113.035 106.013 113.233 105.667 113.451Z" fill="#C7C7FC"/>
<path fill-rule="evenodd" clip-rule="evenodd" d="M67.7596 147.206C68.2531 147.118 68.0589 147.193 68.5113 146.961C68.6831 146.873 68.8931 146.706 69.0558 146.574L69.0965 145.427C67.4681 145.712 67.7869 146.466 67.7596 147.206Z" fill="#ABCAF3"/>
<path fill-rule="evenodd" clip-rule="evenodd" d="M67.4622 156.967L67.3566 158.162C67.7615 158.238 68.0312 158.112 68.3801 157.815C68.8906 157.38 68.756 157.179 68.696 156.413L67.4622 156.967Z" fill="#ABCAF3"/>
<path fill-rule="evenodd" clip-rule="evenodd" d="M62.2734 136.439L62.2743 137.876C62.651 137.836 62.923 137.603 63.2523 137.398L63.2802 136.052C62.7123 136.01 62.5569 136.196 62.2734 136.439Z" fill="#ABCAF3"/>
<path fill-rule="evenodd" clip-rule="evenodd" d="M136.516 95.899L136.448 97.1381L137.761 96.4467V95.4011C137.204 95.4651 136.936 95.6829 136.516 95.899Z" fill="#ABCAF3"/>
<path fill-rule="evenodd" clip-rule="evenodd" d="M34.0037 145.25C34.3777 145.301 36.8653 143.781 37.285 143.524C39.3507 142.261 39.6472 142.566 38.84 140.985C38.6294 140.572 38.5603 140.552 38.0071 140.546C37.421 140.539 37.4914 140.696 37.2001 141.004C36.2483 142.011 35.9153 141.38 35.5291 141.826C35.1725 142.237 34.6912 142.725 34.5003 143.301C34.3671 143.703 33.9568 144.853 34.0037 145.25Z" fill="#FDFDFD"/>
<path fill-rule="evenodd" clip-rule="evenodd" d="M37.0219 137.621C35.2452 138.097 34.9018 141.29 36.2685 141.144C36.9276 141.074 37.4802 140.156 37.6613 139.616C37.8846 138.95 38.0195 137.354 37.0219 137.621Z" fill="#FDFDFD"/>
<path d="M96 38L96 0" stroke="#FFBB00" stroke-width="3"/>
<path fill-rule="evenodd" clip-rule="evenodd" d="M43.8141 407.147C45.7679 409.174 46.8319 413.009 47.8783 415.903C48.4532 417.494 49.0871 419.116 49.4813 420.642C49.8322 422.001 50.7962 424.237 50.2915 425.124C51.8961 427.979 52.5718 437.265 52.7119 441.272C52.9457 447.959 51.297 453.064 51.2282 458.923L54.5627 460.795C56.1168 461.473 57.6114 462.737 59.0685 462.619L60.4513 451.797C61.3169 453.87 60.9685 460.746 60.9922 463.553L66.2813 465.005L76.4668 465.382L84.6448 463.984C85.9295 457.113 79.5975 439.531 76.9654 434.05C75.0861 430.135 71.5762 425.185 72.6891 419.849C73.657 415.209 78.1977 412.344 83.3266 411.431L83.4081 412.275C86.4042 411.775 93.0022 408.061 95.1108 408.334C94.4479 407.01 94.481 406.994 93.3401 406.03C92.3969 405.233 92.0024 405.216 91.3105 404.455L80.3364 407.979C80.6664 408.558 80.0933 408.326 80.8698 408.717C77.9782 408.474 62.8683 403.805 59.1101 402.162C56.6068 401.068 54.788 400.365 53.2756 398.598L54.3863 396.682C46.1604 396.812 41.7727 398.172 43.8141 407.147Z" fill="#003592"/>
<path fill-rule="evenodd" clip-rule="evenodd" d="M76.4667 465.381C83.8927 491.691 78.1877 496.52 79.1839 520.66C79.5268 528.968 80.5283 532.855 80.961 538.771L84.2436 537.688C85.118 536.38 88.419 534.471 90.0135 531.402C90.6765 530.126 90.4553 529.791 89.7435 528.67C89.697 528.597 89.6089 528.489 89.5428 528.397C89.2192 527.623 88.987 527.325 88.6626 526.258C85.8564 520.115 86.4205 502.011 86.8951 494.562C87.3907 486.781 89.7238 467.421 89.5748 462.457L93.8274 461.007L86.0111 429.141C84.3747 427.493 81.1621 426.855 78.1129 424.417C77.0535 423.57 75.8355 422.251 75.5612 420.702C75.1168 418.192 76.6592 416.128 76.6644 416.098C76.6846 415.979 76.7594 415.955 76.8133 415.889C78.8539 414.083 79.5237 413.084 83.2598 412.631L83.408 412.275L83.3265 411.431C78.1976 412.344 73.6569 415.208 72.689 419.849C71.5761 425.185 75.086 430.135 76.9653 434.049C79.5974 439.531 85.9294 457.113 84.6447 463.984L76.4667 465.381Z" fill="#000629"/>
<path fill-rule="evenodd" clip-rule="evenodd" d="M58.2868 517.155C60.0172 517.232 61.8184 517.612 61.8834 519.662L61.5347 521.085C61.7556 523.051 60.543 524.035 59.3994 524.798C57.7919 525.87 57.7907 526.171 56.8013 527.832C56.5244 533.192 49.7175 535.484 48.1997 531.576C45.9517 526.244 46.0299 522.928 46.9689 516.51C43.303 516.978 38.5072 520.453 37.0916 522.953C32.3601 531.306 44.0148 537.209 52.7808 538.026C59.2161 538.625 61.6799 537.566 67.1707 536.281C66.9223 551.795 98.8477 552.527 105.674 541.424C111.606 531.774 94.4233 524.73 88.6626 526.258C88.987 527.325 89.2192 527.623 89.5428 528.397C91.4221 528.429 93.2867 528.193 95.145 528.217C97.7539 528.251 97.366 528.58 99.0068 529.727C99.022 530.356 99.0773 530.969 98.9814 531.6C98.6246 533.947 99.4472 529.771 98.8205 532.231L98.5793 532.803C99.1849 538.309 90.1989 537.023 86.6616 538.319C85.9309 540.178 87.1683 539.639 85.229 540.396C84.0761 540.847 80.213 541.463 78.875 541.284C77.4696 541.096 77.19 540.713 76.7526 539.698C72.3382 534.294 76.5369 524.428 73.8373 520.708L73.7919 521.618C71.5278 518.094 64.717 515.747 59.144 515.293L59.2214 514.159L58.2868 517.155Z" fill="#D7E9F9"/>
<path fill-rule="evenodd" clip-rule="evenodd" d="M166.585 423.721C165.677 423.107 165.988 423.259 164.818 423.181C165.517 424.181 165.465 423.826 166.311 424.613C167.064 425.312 167.044 425.538 167.599 426.327L169.795 427.12C170.247 427.283 170.35 427.315 170.567 427.454C170.622 430.087 166.136 444.555 165.103 448.247C164.104 451.818 163.127 455.162 162.168 458.73C161.691 460.507 160.133 467.694 158.711 468.991C158.229 466.347 158.717 466.807 156.631 465.419C155.916 464.574 155.784 464.39 154.99 463.801C154.043 463.1 154.222 463.314 153.464 462.501C152.485 461.449 151.566 460.609 150.868 459.418L149.872 458.69C150.391 462.018 143.739 483.242 142.433 488.083C141.111 492.978 139.808 497.598 138.463 502.452C137.301 506.645 135.173 512.549 134.579 516.614C135.361 515.978 137.614 514.795 138.753 514.119C139.472 513.692 140.131 513.369 141.023 512.856C142.359 512.087 142.008 512.548 142.59 511.124L145.34 501.001L152.963 473.815L158.252 478.895C159.164 479.633 159.504 479.603 160.363 480.233C161.265 479.333 164.341 467.325 164.879 465.076L166.948 457.557L170.092 446.578L172.544 437.958L174.097 432.784C174.904 433.259 174.945 433.512 175.83 434.145C176.555 434.662 177.158 434.901 177.99 435.218L178.053 415.756C176.536 416.462 169.662 422.681 167.041 424.338C166.465 423.899 166.545 424.758 166.585 423.721Z" fill="#FE277D"/>
<path fill-rule="evenodd" clip-rule="evenodd" d="M59.0684 462.619C58.0739 466.294 57.5031 475.453 56.9634 479.968C54.8239 497.866 49.7268 513.38 51.3662 531.781L49.486 531.672C51.1874 532.542 54.3232 531.05 55.5181 529.016C56.7985 526.837 56.184 527.308 56.8013 527.832C57.7907 526.171 57.7919 525.87 59.3994 524.798C60.543 524.035 61.7556 523.051 61.5347 521.085L61.4005 520.238C60.9078 522.324 59.9272 523.181 58.3386 524.016C58.7302 521.341 58.7097 519.782 58.2868 517.155L59.2214 514.159C58.5825 511.124 62.4177 497.15 63.3961 493.527C64.2841 490.239 65.3746 486.957 66.1767 483.593C66.6655 481.542 68.5241 474.855 68.4853 473.535C68.7493 472.129 66.9925 466.508 66.2812 465.005L60.9921 463.553C60.9684 460.746 61.3168 453.87 60.4512 451.797L59.0684 462.619Z" fill="#000629"/>
<path fill-rule="evenodd" clip-rule="evenodd" d="M68.4854 473.535C69.3246 474.222 69.3172 474.317 69.5743 476.042L71.4828 483.951C72.2971 487.695 72.8395 491.36 73.1906 495.26C73.9127 503.28 73.2746 507.519 73.4137 514.31C73.4574 516.446 74.0474 518.726 73.8374 520.708C76.537 524.428 72.3383 534.294 76.7527 539.698C77.2266 539.432 76.781 539.601 77.5691 539.437C77.9206 539.364 78.4592 539.313 78.847 539.257C79.7852 539.121 80.0402 539.026 80.961 538.771C80.5283 532.855 79.5268 528.968 79.1839 520.66C78.1877 496.52 83.8928 491.691 76.4668 465.381L66.2812 465.004C66.9925 466.508 68.7494 472.129 68.4854 473.535Z" fill="#002057"/>
<path fill-rule="evenodd" clip-rule="evenodd" d="M170.092 446.579L166.948 457.558L167.272 458.154C168.144 460.881 166.708 484.742 167.719 488.929L178.389 482.843L178.381 441.959C177.634 442.556 171.422 446.105 170.092 446.579Z" fill="#71C2FF"/>
<path fill-rule="evenodd" clip-rule="evenodd" d="M59.2214 514.159L59.144 515.293C64.717 515.747 71.5278 518.094 73.7919 521.618L73.8373 520.708C74.0473 518.727 73.4573 516.446 73.4136 514.31C73.2745 507.519 73.9127 503.281 73.1906 495.26C72.8395 491.36 72.297 487.695 71.4827 483.951L69.5742 476.042C69.3171 474.317 69.3245 474.222 68.4853 473.535C68.5241 474.855 66.6655 481.542 66.1767 483.593C65.3746 486.957 64.2841 490.239 63.3961 493.527C62.4177 497.15 58.5825 511.123 59.2214 514.159Z" fill="white"/>
<path fill-rule="evenodd" clip-rule="evenodd" d="M170.092 446.578C171.422 446.105 177.634 442.556 178.381 441.959L178.389 482.843L167.719 488.929C166.895 489.258 166.957 489.372 166.02 489.21C165.025 489.038 165.352 489.122 164.705 488.48L160.364 486.078L160.363 480.233C159.504 479.603 159.164 479.634 158.252 478.895L152.963 473.815L145.34 501.001C147.339 501.748 148.214 502.551 150.327 501.355C152.713 500.006 162.09 494.743 162.868 493.722C162.286 492.39 161.563 492.402 160.35 491.705L160.398 488.113C166.654 490.529 163.887 492.723 171.071 488.571C172.775 487.586 180.139 483.59 180.827 482.434C180.225 481.404 179.524 481.206 178.56 480.837L178.513 441.622C177.751 440.677 174.126 438.603 172.544 437.958L170.092 446.578Z" fill="#C6C7FD"/>
<path fill-rule="evenodd" clip-rule="evenodd" d="M115.65 412.715L113.445 411.769C114.024 410.384 114.839 409.566 115.764 408.303L122.895 398.182L125.107 399.219C124.156 401.523 116.593 410.696 115.65 412.715ZM103.055 406.156C103.554 404.763 107.782 399.246 108.97 397.6L111.033 398.585C110.518 399.771 105.894 406.311 105.012 406.937L103.055 406.156ZM106.579 407.77C107.27 406.184 109.733 403.253 110.859 401.633C112.321 399.531 113.79 397.465 115.304 395.491L117.356 396.475L108.534 408.809C107.637 408.514 107.345 408.464 106.579 407.77ZM111.967 410.802C110.916 410.255 110.688 410.4 109.991 409.534C111.341 407.213 113.582 404.431 115.267 402.163C116.472 400.539 119.554 395.725 120.903 394.799L122.656 395.827L111.967 410.802ZM105.775 398.577C105.859 399.318 105.914 399.08 105.37 399.658C104.938 400.117 105.148 399.844 104.803 400.118L103.986 400.748C102.804 402.814 101.257 404.166 99.9796 406.524L116.267 415.366C116.874 414.787 116.81 414.828 117.367 414.13L131.499 395.25C129.488 394.737 125.084 391.901 123.04 390.806C121.053 389.741 116.769 387.052 114.769 386.538C114.225 387.497 113.237 388.626 112.539 389.548C111.723 390.625 111.055 391.506 110.259 392.558C108.636 394.702 107.131 396.564 105.775 398.577Z" fill="white"/>
<path fill-rule="evenodd" clip-rule="evenodd" d="M46.969 516.51C46.03 522.927 45.9518 526.244 48.1998 531.576L48.427 530.909C48.5318 530.988 48.6178 531.01 48.6483 531.121L49.4861 531.672L51.3663 531.781C49.7269 513.38 54.824 497.866 56.9635 479.968C57.5032 475.453 58.074 466.294 59.0685 462.619C57.6114 462.737 56.1168 461.473 54.5627 460.794C54.6548 467.631 53.4759 483.457 51.6822 489.558C50.2792 494.331 49.0555 496.53 48.3515 502.065C47.7392 506.878 47.5986 511.644 46.969 516.51Z" fill="#002057"/>
<path fill-rule="evenodd" clip-rule="evenodd" d="M86.0111 429.142C86.1581 429.116 97.9775 433.154 100.255 433.701C104.579 434.74 112.308 436.705 116.564 437.004C117.649 435.253 118.276 435.002 118.572 432.114C114.538 432.274 99.5006 428.005 95.2009 426.35C91.6241 424.973 88.676 423.278 85.6374 421.467C84.6168 420.86 77.2999 417.025 76.8133 415.889C76.7594 415.955 76.6846 415.979 76.6644 416.098C76.6592 416.128 75.1168 418.192 75.5612 420.702C75.8355 422.251 77.0535 423.57 78.1129 424.417C81.1621 426.855 84.3747 427.493 86.0111 429.142Z" fill="#002057"/>
<path fill-rule="evenodd" clip-rule="evenodd" d="M146.001 459.341L143.275 469.516L138.79 484.844L138.33 487.172C137.225 491.033 132.595 509.495 131.184 511.344L131.07 513.074C130.874 513.888 130.678 514.489 130.508 515.396C132.284 515.979 132.282 516.724 134.579 516.614C135.173 512.549 137.301 506.645 138.463 502.453C139.808 497.599 141.111 492.979 142.433 488.084C143.739 483.243 150.391 462.019 149.872 458.69C149.809 458.633 149.718 458.559 149.677 458.527L146.775 456.826L146.001 459.341Z" fill="#FF84BB"/>
<path fill-rule="evenodd" clip-rule="evenodd" d="M76.8134 415.889C77.3 417.025 84.6169 420.859 85.6375 421.467C88.6761 423.278 91.6242 424.973 95.201 426.35C99.5007 428.005 114.538 432.274 118.572 432.114C118.394 429.906 118.282 429.281 117.207 427.602C115.812 426.789 111.622 425.966 109.629 425.387C106.977 424.617 104.429 423.813 101.884 422.884C98.2424 421.555 91.217 418.063 88.9008 415.961C87.437 415.444 86.7583 414.89 85.4708 413.929C84.1969 412.977 84.6266 413.023 83.2599 412.631C79.5238 413.084 78.854 414.083 76.8134 415.889Z" fill="#003592"/>
<path fill-rule="evenodd" clip-rule="evenodd" d="M116.002 506.311C116.689 507.235 123.887 511.278 125.211 511.695C125.351 507.769 124.388 494.505 125.747 492.292C122.479 490.532 119.115 488.214 115.783 486.604L116.002 506.311Z" fill="#FFA700"/>
<path fill-rule="evenodd" clip-rule="evenodd" d="M115.555 504.14C115.584 505.422 115.311 505.662 116.002 506.311L115.783 486.604C119.115 488.214 122.479 490.532 125.747 492.292C128.157 493.436 129.244 492.379 131.098 491.298C132.861 490.27 134.488 489.216 136.341 488.348L136.641 487.79L137.505 484.476L136.539 484.14L136.284 483.792C125.953 478.593 130.38 477.236 119.615 483.33C114.595 486.172 115.501 485.401 115.502 491.958C115.502 495.837 115.293 500.341 115.555 504.14Z" fill="#FFDF5A"/>
<path fill-rule="evenodd" clip-rule="evenodd" d="M103.913 397.498C103.98 397.558 104.075 397.632 104.122 397.666L105.775 398.578C107.131 396.565 108.636 394.703 110.259 392.558C111.055 391.507 111.723 390.626 112.539 389.548C113.237 388.626 114.225 387.498 114.769 386.539C115.247 385.817 115.37 385.774 115.942 385.224C118.355 386.203 121.614 388.31 124.138 389.703L131.982 394.203C132.012 394.142 132.113 394.309 132.214 394.393L131.499 395.251L117.367 414.13C116.81 414.829 116.874 414.788 116.267 415.367L99.9795 406.525C101.257 404.167 102.804 402.815 103.986 400.748C101.23 401.466 97.7254 403.616 98.0404 407.065C99.738 408.611 101.37 408.962 102.955 410.181C106.025 411.624 109.876 413.798 112.769 415.538C117.235 418.225 117.387 417.158 121.583 411.647L131.412 398.541C132.414 397.218 134.071 395.665 133.791 393.433C132.903 392.628 118.117 384.298 116.64 383.773C113.975 382.826 112.201 386.462 109.8 389.64L103.913 397.498Z" fill="#41413E"/>
<path fill-rule="evenodd" clip-rule="evenodd" d="M125.747 492.292C124.388 494.505 125.351 507.769 125.211 511.695C126.877 513.335 128.393 513.226 129.989 511.821L136.341 488.348C134.488 489.216 132.861 490.27 131.098 491.298C129.244 492.379 128.157 493.436 125.747 492.292Z" fill="#FFCB02"/>
<path fill-rule="evenodd" clip-rule="evenodd" d="M165.251 435.096L162.108 446.066L157.462 462.846L156.631 465.42C158.717 466.807 158.229 466.348 158.711 468.991C160.133 467.695 161.691 460.508 162.168 458.73C163.127 455.163 164.104 451.818 165.103 448.248C166.136 444.555 170.622 430.088 170.567 427.454C170.35 427.315 170.247 427.283 169.795 427.12L167.599 426.328L165.251 435.096Z" fill="#FF64AA"/>
<path fill-rule="evenodd" clip-rule="evenodd" d="M58.1835 382.722C60.0736 382.343 65.6254 384.916 75.9116 382.191C77.7612 381.701 79.6207 380.798 81.3889 380.593C79.7656 377.251 74.4033 374.675 69.0584 375.033C63.4399 375.41 59.496 378.675 58.1835 382.722Z" fill="#8B3615"/>
<path fill-rule="evenodd" clip-rule="evenodd" d="M157.462 462.846L162.108 446.067C160.669 445.525 155.922 442.83 154.844 441.979L154.729 461.267L157.462 462.846Z" fill="#0199FD"/>
<path fill-rule="evenodd" clip-rule="evenodd" d="M120.18 428.438C121.316 432.583 120.74 432.555 119.747 436.321C124.043 437.481 127.563 437.432 128.983 433.153C130.155 429.62 129.367 430.553 129.701 429.657C132.757 429.339 135.061 430.835 137.396 429.023C136.406 427.98 130.151 427.667 128.721 427.464C125.051 426.944 122.789 426.445 120.18 428.438Z" fill="#FFAC82"/>
<path fill-rule="evenodd" clip-rule="evenodd" d="M136.539 484.14L137.505 484.476C138.325 484.754 138.165 484.692 138.79 484.843L143.275 469.515C142.451 468.438 137.462 465.859 136.484 465.474L136.539 484.14Z" fill="#9F9FF1"/>
<path fill-rule="evenodd" clip-rule="evenodd" d="M57.8992 388.535C57.8449 390.44 58.4513 390.538 58.8248 392.252C60.1106 394.098 61.2521 397.109 65.7206 396.661C68.7128 396.361 67.9346 395.397 67.9695 395.011C67.5916 392.018 68.8926 391.191 71.5542 391.467L71.2364 395.149C72.601 394.608 72.9574 393.76 73.6763 392.306C74.5993 390.44 75.139 390.309 75.9203 389.008C74.6377 388.364 69.0358 389.636 66.9197 389.695C61.684 389.841 62.4554 389.473 58.053 388.283L57.8992 388.535Z" fill="#4C1E08"/>
<path fill-rule="evenodd" clip-rule="evenodd" d="M75.9203 389.008C75.139 390.308 74.5993 390.44 73.6763 392.306C72.9574 393.76 72.601 394.607 71.2364 395.149L71.5542 391.466C68.8926 391.191 67.5916 392.018 67.9695 395.011C68.539 395.994 68.1506 396.969 68.1344 398.607L63.2214 398.077C63.7486 398.539 73.5842 399.221 74.5751 398.894C76.165 398.368 76.1951 396.706 76.7747 395.052C77.6322 392.606 78.2376 392.971 79.5924 391.543L79.6936 384.775C77.1094 386.084 77.9243 387.869 75.9203 389.008Z" fill="#FFAC82"/>
<path fill-rule="evenodd" clip-rule="evenodd" d="M54.3862 396.682L53.2755 398.598C54.7879 400.365 56.6067 401.068 59.11 402.162C62.8682 403.805 77.9781 408.474 80.8697 408.717C80.0932 408.326 80.6663 408.558 80.3363 407.979C78.9783 407.396 72.2641 401.835 70.5846 400.522L70.8191 402.038C70.8174 402.076 70.8141 402.185 70.7866 402.251C65.6886 402.07 60.2101 400.87 56.727 398.616L57.4033 396.229L54.3862 396.682Z" fill="#0051BF"/>
<path fill-rule="evenodd" clip-rule="evenodd" d="M58.1835 382.722L57.8058 384.153L57.5912 385.563C63.3606 386.6 68.5928 387.073 74.5528 385.767C76.3404 385.375 78.0361 384.643 79.7033 384.36C81.4507 384.137 82.5442 382.546 81.3889 380.593C79.6207 380.798 77.7612 381.701 75.9116 382.191C65.6254 384.916 60.0736 382.343 58.1835 382.722Z" fill="#4C1E08"/>
<path fill-rule="evenodd" clip-rule="evenodd" d="M160.363 480.233L160.364 486.077L164.705 488.479C165.381 488.124 165.389 488.884 165.366 485.979C165.358 484.917 165.329 483.855 165.329 482.786L165.346 467.959C165.375 466.578 165.602 465.98 164.879 465.076C164.341 467.325 161.265 479.333 160.363 480.233Z" fill="#0199FD"/>
<path fill-rule="evenodd" clip-rule="evenodd" d="M84.2437 537.689C89.9662 535.852 94.0918 536.322 96.4159 534.999C99.3097 533.351 97.5032 530.779 98.5794 532.803L98.8205 532.231C99.4472 529.771 98.6247 533.948 98.9815 531.6C99.0774 530.969 99.0221 530.356 99.0069 529.727C97.3661 528.58 97.7539 528.251 95.145 528.218C93.2867 528.193 91.4222 528.429 89.5429 528.397C89.609 528.489 89.6971 528.598 89.7436 528.671C90.4554 529.791 90.6766 530.127 90.0136 531.403C88.4191 534.471 85.1181 536.381 84.2437 537.689Z" fill="#262626"/>
<path fill-rule="evenodd" clip-rule="evenodd" d="M150.868 459.418C151.566 460.609 152.485 461.45 153.464 462.501C154.222 463.315 154.043 463.1 154.99 463.802C155.784 464.39 155.916 464.574 156.631 465.42L157.462 462.846L154.729 461.267L154.844 441.979C155.922 442.83 160.669 445.525 162.108 446.066L165.251 435.096L156.209 440.19C154.806 441.028 154.503 440.984 154.433 442.91C154.219 448.856 154.854 455.453 154.346 461.361L150.868 459.418Z" fill="#C2DCFD"/>
<path fill-rule="evenodd" clip-rule="evenodd" d="M142.59 511.125C142.008 512.549 142.359 512.088 141.023 512.856C140.131 513.369 139.472 513.693 138.753 514.12C137.614 514.796 135.361 515.978 134.579 516.614C132.282 516.724 132.284 515.979 130.508 515.396C130.678 514.489 130.874 513.889 131.07 513.074L131.184 511.344L129.989 511.821C128.393 513.226 126.877 513.335 125.211 511.695C123.887 511.278 116.689 507.236 116.002 506.311C115.311 505.663 115.584 505.422 115.555 504.141C114.524 504.643 113.641 505.055 113.114 505.625C113.564 507.176 115.424 507.789 116.894 508.604C118.423 509.452 119.444 510.076 120.91 510.936C123.596 512.511 126.249 513.915 129.025 515.519C133.706 518.225 134.611 519.446 137.446 517.764C138.894 516.904 144.52 513.9 145.249 512.773C144.394 511.802 143.865 511.502 142.59 511.125Z" fill="#C2DCFD"/>
<path fill-rule="evenodd" clip-rule="evenodd" d="M57.8992 388.535L58.053 388.283C62.4554 389.472 61.684 389.841 66.9197 389.695C69.0358 389.636 74.6377 388.364 75.9203 389.008C77.9243 387.869 77.1094 386.083 79.6936 384.775L79.7033 384.36C78.0361 384.643 76.3403 385.375 74.5527 385.767C68.5927 387.073 63.3606 386.6 57.5912 385.563L57.8058 384.153C57.1754 385.113 57.1054 387.655 57.8992 388.535Z" fill="#8B3615"/>
<path fill-rule="evenodd" clip-rule="evenodd" d="M164.879 465.076C165.602 465.98 165.375 466.578 165.346 467.96L165.329 482.786C165.329 483.855 165.358 484.917 165.366 485.979C165.389 488.884 165.381 488.124 164.705 488.48C165.352 489.122 165.025 489.038 166.02 489.21C166.957 489.372 166.895 489.258 167.719 488.929C166.708 484.742 168.144 460.88 167.272 458.154L166.948 457.558L164.879 465.076Z" fill="#51B5FE"/>
<path fill-rule="evenodd" clip-rule="evenodd" d="M83.408 412.275L83.2598 412.631C84.6265 413.023 84.1968 412.978 85.4707 413.929C86.7582 414.89 87.4369 415.444 88.9007 415.961L95.9297 413.061C96.0604 411.289 96.1881 409.654 95.1107 408.334C93.0021 408.061 86.4041 411.775 83.408 412.275Z" fill="#002057"/>
<path fill-rule="evenodd" clip-rule="evenodd" d="M94.4657 403.828C95.5024 404.931 96.0777 404.97 96.9356 406.672C97.7294 408.246 98.1407 409.262 97.9232 411.297C99.4855 411.65 101.49 410.853 102.955 410.181C101.37 408.962 99.738 408.611 98.0404 407.065C97.7254 403.616 101.23 401.466 103.986 400.748L104.803 400.118C105.148 399.845 104.938 400.117 105.37 399.658C105.914 399.08 105.858 399.318 105.775 398.577L104.122 397.665C104.075 397.632 103.98 397.558 103.913 397.498C100.679 398.661 101.313 397.978 98.7518 400.101C97.8698 400.832 97.5491 401.223 96.7675 402.004C95.9055 402.864 95.3803 403.012 94.4657 403.828Z" fill="#FFAC82"/>
<path fill-rule="evenodd" clip-rule="evenodd" d="M122.656 395.828L120.903 394.8C119.554 395.726 116.472 400.54 115.267 402.164C113.582 404.432 111.341 407.213 109.991 409.535C110.688 410.4 110.916 410.256 111.967 410.803L122.656 395.828Z" fill="#FF64AA"/>
<path fill-rule="evenodd" clip-rule="evenodd" d="M115.65 412.715C116.593 410.697 124.156 401.523 125.107 399.22L122.895 398.182L115.764 408.303C114.839 409.566 114.024 410.384 113.445 411.769L115.65 412.715Z" fill="#F90566"/>
<path fill-rule="evenodd" clip-rule="evenodd" d="M84.2436 537.689L80.961 538.771C80.0402 539.026 79.7851 539.121 78.8469 539.257C78.4591 539.313 77.9205 539.364 77.5691 539.437C76.781 539.601 77.2265 539.432 76.7526 539.698C77.19 540.713 77.4696 541.096 78.875 541.284C80.213 541.463 84.0761 540.847 85.229 540.396C87.1683 539.639 85.9309 540.178 86.6616 538.319C90.1989 537.023 99.1849 538.309 98.5793 532.803C97.5031 530.779 99.3097 533.35 96.4159 534.998C94.0918 536.322 89.9661 535.852 84.2436 537.689Z" fill="#060809"/>
<path fill-rule="evenodd" clip-rule="evenodd" d="M136.641 487.79L136.341 488.348L129.989 511.821L131.184 511.344C132.595 509.495 137.225 491.033 138.33 487.171L136.641 487.79Z" fill="#FC8A05"/>
<path fill-rule="evenodd" clip-rule="evenodd" d="M106.579 407.771C107.345 408.464 107.637 408.515 108.534 408.809L117.356 396.476L115.304 395.491C113.79 397.465 112.321 399.532 110.859 401.634C109.733 403.253 107.27 406.184 106.579 407.771Z" fill="#F90566"/>
<path fill-rule="evenodd" clip-rule="evenodd" d="M50.2914 425.124C50.7961 424.237 49.8321 422 49.4812 420.642C49.087 419.116 48.4531 417.494 47.8782 415.903C46.8318 413.008 45.7678 409.174 43.814 407.147C44.464 413.151 46.5382 423.012 50.2914 425.124Z" fill="#002057"/>
<path fill-rule="evenodd" clip-rule="evenodd" d="M164.818 423.181C165.988 423.259 165.677 423.107 166.585 423.721C167.151 422.775 166.896 423.285 167.63 422.713C169.432 421.308 176.284 416.015 177.028 414.608L174.662 413.483C173.23 416.031 165.332 420.36 164.027 423.039C164.414 423.519 164.142 423.101 164.818 423.181Z" fill="#FF64AA"/>
<path fill-rule="evenodd" clip-rule="evenodd" d="M114.769 386.538C116.769 387.052 121.053 389.741 123.04 390.806C125.084 391.901 129.488 394.737 131.499 395.25L132.214 394.392C132.113 394.308 132.012 394.141 131.982 394.203L124.138 389.702C121.614 388.309 118.355 386.202 115.942 385.224C115.37 385.773 115.247 385.817 114.769 386.538Z" fill="#CECED2"/>
<path fill-rule="evenodd" clip-rule="evenodd" d="M103.055 406.156L105.012 406.937C105.894 406.311 110.517 399.771 111.033 398.585L108.97 397.6C107.782 399.247 103.554 404.764 103.055 406.156Z" fill="#F90566"/>
<path fill-rule="evenodd" clip-rule="evenodd" d="M63.2214 398.077L68.1344 398.606C68.1506 396.968 68.539 395.994 67.9695 395.01C67.9346 395.396 68.7128 396.36 65.7206 396.66C61.2521 397.108 60.1106 394.097 58.8248 392.251C58.7886 394.283 57.8966 394.581 57.7493 396.389C59.3187 397.298 61.0089 398.22 63.2214 398.077Z" fill="#E67D53"/>
<path fill-rule="evenodd" clip-rule="evenodd" d="M91.3104 404.454C92.0023 405.216 92.3968 405.232 93.34 406.03C94.4809 406.994 94.4478 407.009 95.1107 408.333C96.1881 409.654 96.0604 411.289 95.9297 413.06C96.7627 412.431 97.4654 412.112 97.9232 411.296C98.1407 409.262 97.7294 408.245 96.9356 406.671C96.0777 404.97 95.5024 404.931 94.4657 403.827C93.0664 403.92 92.4516 403.808 91.3104 404.454Z" fill="#D7E9F9"/>
<path fill-rule="evenodd" clip-rule="evenodd" d="M118.572 432.114C118.276 435.002 117.649 435.253 116.564 437.004C118.131 437.004 118.666 437.156 119.747 436.321C120.74 432.555 121.316 432.583 120.18 428.438C119.004 427.618 118.982 427.504 117.207 427.602C118.282 429.281 118.394 429.906 118.572 432.114Z" fill="#D7E9F9"/>
<path fill-rule="evenodd" clip-rule="evenodd" d="M61.5347 521.085L61.8834 519.662C61.8184 517.612 60.0172 517.233 58.2868 517.155C58.7097 519.782 58.7302 521.341 58.3386 524.016C59.9272 523.181 60.9078 522.324 61.4005 520.238L61.5347 521.085Z" fill="#262626"/>
<path fill-rule="evenodd" clip-rule="evenodd" d="M49.486 531.672L48.6482 531.121C48.6177 531.01 48.5317 530.988 48.4269 530.909L48.1997 531.576C49.7175 535.484 56.5244 533.191 56.8013 527.832C56.184 527.308 56.7985 526.836 55.5181 529.016C54.3232 531.049 51.1874 532.542 49.486 531.672Z" fill="#060809"/>
<path fill-rule="evenodd" clip-rule="evenodd" d="M166.585 423.721C166.545 424.758 166.465 423.9 167.041 424.338C169.662 422.681 176.536 416.463 178.053 415.756C177.736 415.269 177.988 415.54 177.586 415.107C177.389 414.894 177.263 414.82 177.028 414.608C176.284 416.015 169.432 421.308 167.63 422.713C166.896 423.286 167.151 422.775 166.585 423.721Z" fill="#FFACD2"/>
<path fill-rule="evenodd" clip-rule="evenodd" d="M136.641 487.79L138.33 487.171L138.79 484.843C138.165 484.692 138.325 484.754 137.505 484.476L136.641 487.79Z" fill="#FFCB02"/>
</svg>
