<svg width="215" height="319" viewBox="0 0 215 319" fill="none" xmlns="http://www.w3.org/2000/svg">
<path d="M97.4689 214.703L21.3445 257.984C15.8044 261.134 15.8044 266.241 21.3445 269.391L97.4689 312.672C103.009 315.822 111.991 315.822 117.531 312.672L193.656 269.391C199.196 266.241 199.196 261.134 193.656 257.984L117.531 214.703C111.991 211.553 103.009 211.553 97.4689 214.703Z" fill="#F9F9F9"/>
<path fill-rule="evenodd" clip-rule="evenodd" d="M208.921 188.419C208.736 194.236 209.036 200.129 208.915 202.54C208.823 204.373 207.654 206.107 205.366 207.408L117.134 257.573C111.835 260.586 102.455 260.182 96.2894 256.677L11.211 208.305C7.78532 206.357 6.0443 203.845 6.08101 201.481C6.11035 199.59 6.08977 191.897 6.08148 187.637C6.12111 185.755 7.28946 183.968 9.63386 182.635L97.8664 132.47C103.165 129.457 112.545 129.86 118.711 133.366L203.789 181.738C207.104 183.623 208.845 186.123 208.921 188.419Z" fill="#D8EAFF"/>
<path fill-rule="evenodd" clip-rule="evenodd" d="M106.948 130.286C111.037 130.303 115.351 131.293 118.711 133.203L203.789 181.575C207.104 183.459 208.845 185.96 208.921 188.256C208.736 194.073 209.036 199.965 208.915 202.377C208.823 204.209 207.654 205.944 205.366 207.245L117.134 257.41C114.798 258.738 112.371 259.272 108.372 259.429L106.948 130.286Z" fill="#C4E0FF"/>
<path d="M96.289 132.554L11.211 180.925C5.01933 184.446 5.01933 190.153 11.211 193.674L96.289 242.045C102.481 245.566 112.519 245.566 118.711 242.045L203.789 193.674C209.981 190.153 209.981 184.446 203.789 180.925L118.711 132.554C112.519 129.033 102.481 129.033 96.289 132.554Z" fill="#F5F8FF"/>
<path fill-rule="evenodd" clip-rule="evenodd" d="M204.32 178.325C204.395 181.542 204.366 185.77 204.32 186.858C204.245 188.623 203.127 190.295 200.924 191.548L116.509 239.542C111.44 242.425 102.465 242.039 96.5663 238.685L15.1689 192.406C11.9181 190.557 10.2139 188.177 10.2605 185.932C10.271 185.414 10.3208 180.139 10.2655 177.575C10.2276 175.817 11.4667 174.156 13.6601 172.909L98.075 124.914C103.144 122.032 112.119 122.418 118.018 125.772L199.415 172.051C202.57 173.845 204.232 176.139 204.32 178.325Z" fill="#FFBB00"/>
<path d="M97.0271 124.583L15.6301 170.862C9.70633 174.23 9.70633 179.691 15.6301 183.059L97.0271 229.338C102.951 232.706 112.555 232.706 118.479 229.338L199.876 183.059C205.8 179.691 205.8 174.23 199.876 170.862L118.479 124.583C112.555 121.215 102.951 121.215 97.0271 124.583Z" fill="#EEDE20"/>
<path fill-rule="evenodd" clip-rule="evenodd" d="M208.921 149.239C208.736 155.056 209.036 160.949 208.915 163.36C208.823 165.192 207.654 166.927 205.366 168.228L117.134 218.393C111.835 221.406 102.455 221.002 96.2894 217.496L11.211 169.124C7.78532 167.177 6.0443 164.664 6.08101 162.3C6.11035 160.41 6.08977 152.717 6.08148 148.457C6.12111 146.575 7.28946 144.787 9.63386 143.455L97.8664 93.2895C103.165 90.2767 112.545 90.6803 118.711 94.1861L203.789 142.558C207.104 144.442 208.845 146.943 208.921 149.239Z" fill="#D8EAFF"/>
<path fill-rule="evenodd" clip-rule="evenodd" d="M106.948 91.2695C111.037 91.2866 115.351 92.2761 118.711 94.1864L203.789 142.558C207.104 144.443 208.845 146.943 208.921 149.239C208.736 155.056 209.036 160.949 208.915 163.36C208.823 165.193 207.654 166.928 205.366 168.228L117.134 218.393C114.798 219.721 112.371 220.255 108.372 220.413L106.948 91.2695Z" fill="#C4E0FF"/>
<path d="M96.289 93.3741L11.211 141.746C5.01933 145.266 5.01933 150.974 11.211 154.494L96.289 202.866C102.481 206.386 112.519 206.386 118.711 202.866L203.789 154.494C209.981 150.974 209.981 145.266 203.789 141.746L118.711 93.3741C112.519 89.8538 102.481 89.8538 96.289 93.3741Z" fill="#F5F8FF"/>
<path fill-rule="evenodd" clip-rule="evenodd" d="M43.8141 32.147C45.7679 34.1737 46.8319 38.0085 47.8783 40.9033C48.4532 42.4937 49.0871 44.116 49.4813 45.6419C49.8322 47.0005 50.7962 49.2366 50.2915 50.1242C51.8961 52.979 52.5718 62.2654 52.7119 66.2719C52.9457 72.9594 51.297 78.064 51.2282 83.9234L54.5627 85.7945C56.1168 86.4733 57.6114 87.7368 59.0685 87.6189L60.4513 76.7967C61.3169 78.8696 60.9685 85.7455 60.9922 88.5532L66.2813 90.0045L76.4668 90.3815L84.6448 88.9842C85.9295 82.1129 79.5975 64.5313 76.9654 59.0495C75.0861 55.1353 71.5762 50.1846 72.6891 44.8486C73.657 40.2085 78.1977 37.344 83.3266 36.4312L83.4081 37.2746C86.4042 36.7747 93.0022 33.0613 95.1108 33.3335C94.4479 32.0097 94.481 31.9942 93.3401 31.0299C92.3969 30.2325 92.0024 30.2164 91.3105 29.4548L80.3364 32.9791C80.6664 33.5576 80.0933 33.3264 80.8698 33.7166C77.9782 33.4744 62.8683 28.8054 59.1101 27.1621C56.6068 26.0676 54.788 25.3646 53.2756 23.5984L54.3863 21.6816C46.1604 21.8122 41.7727 23.1718 43.8141 32.147Z" fill="#003592"/>
<path fill-rule="evenodd" clip-rule="evenodd" d="M76.4667 90.3815C83.8927 116.691 78.1877 121.52 79.1839 145.66C79.5268 153.968 80.5283 157.855 80.961 163.771L84.2436 162.688C85.118 161.38 88.419 159.471 90.0135 156.402C90.6765 155.126 90.4553 154.791 89.7435 153.67C89.697 153.597 89.6089 153.489 89.5428 153.397C89.2192 152.623 88.987 152.325 88.6626 151.258C85.8564 145.115 86.4205 127.011 86.8951 119.562C87.3907 111.781 89.7238 92.4212 89.5748 87.4566L93.8274 86.007L86.0111 54.1415C84.3747 52.4933 81.1621 51.8549 78.1129 49.4171C77.0535 48.5701 75.8355 47.2511 75.5612 45.7021C75.1168 43.1916 76.6592 41.1277 76.6644 41.0975C76.6846 40.9792 76.7594 40.955 76.8133 40.8886C78.8539 39.083 79.5237 38.0844 83.2598 37.6313L83.408 37.2746L83.3265 36.4312C78.1976 37.344 73.6569 40.2085 72.689 44.8486C71.5761 50.1846 75.086 55.1353 76.9653 59.0495C79.5974 64.5313 85.9294 82.1129 84.6447 88.9841L76.4667 90.3815Z" fill="#000629"/>
<path fill-rule="evenodd" clip-rule="evenodd" d="M58.2868 142.155C60.0172 142.232 61.8184 142.612 61.8834 144.662L61.5347 146.085C61.7556 148.051 60.543 149.035 59.3994 149.798C57.7919 150.87 57.7907 151.171 56.8013 152.832C56.5244 158.192 49.7175 160.484 48.1997 156.576C45.9517 151.244 46.0299 147.928 46.9689 141.51C43.303 141.978 38.5072 145.453 37.0916 147.953C32.3601 156.306 44.0148 162.209 52.7808 163.026C59.2161 163.625 61.6799 162.566 67.1707 161.281C66.9223 176.795 98.8477 177.527 105.674 166.424C111.606 156.774 94.4233 149.73 88.6626 151.258C88.987 152.325 89.2192 152.623 89.5428 153.397C91.4221 153.429 93.2867 153.193 95.145 153.217C97.7539 153.251 97.366 153.58 99.0068 154.727C99.022 155.356 99.0773 155.969 98.9814 156.6C98.6246 158.947 99.4472 154.771 98.8205 157.231L98.5793 157.803C99.1849 163.309 90.1989 162.023 86.6616 163.319C85.9309 165.178 87.1683 164.639 85.229 165.396C84.0761 165.847 80.213 166.463 78.875 166.284C77.4696 166.096 77.19 165.713 76.7526 164.698C72.3382 159.294 76.5369 149.428 73.8373 145.708L73.7919 146.618C71.5278 143.094 64.717 140.747 59.144 140.293L59.2214 139.159L58.2868 142.155Z" fill="#D7E9F9"/>
<path fill-rule="evenodd" clip-rule="evenodd" d="M166.585 48.7207C165.677 48.1069 165.988 48.2589 164.818 48.1812C165.517 49.181 165.465 48.8257 166.311 49.6128C167.064 50.3122 167.044 50.5381 167.599 51.3273L169.795 52.1196C170.247 52.283 170.35 52.3147 170.567 52.4541C170.622 55.0874 166.136 69.5547 165.103 73.2474C164.104 76.8177 163.127 80.1622 162.168 83.73C161.691 85.5074 160.133 92.6942 158.711 93.9909C158.229 91.3474 158.717 91.807 156.631 90.4195C155.916 89.5738 155.784 89.3897 154.99 88.8013C154.043 88.0998 154.222 88.3145 153.464 87.5011C152.485 86.4494 151.566 85.6086 150.868 84.4178L149.872 83.6898C150.391 87.0183 143.739 108.242 142.433 113.083C141.111 117.978 139.808 122.598 138.463 127.452C137.301 131.645 135.173 137.549 134.579 141.614C135.361 140.978 137.614 139.795 138.753 139.119C139.472 138.692 140.131 138.369 141.023 137.856C142.359 137.087 142.008 137.548 142.59 136.124L145.34 126.001L152.963 98.815L158.252 103.895C159.164 104.633 159.504 104.603 160.363 105.233C161.265 104.333 164.341 92.3248 164.879 90.0761L166.948 82.5574L170.092 71.5782L172.544 62.9582L174.097 57.7845C174.904 58.2591 174.945 58.5123 175.83 59.1447C176.555 59.6622 177.158 59.9012 177.99 60.2184L178.053 40.7559C176.536 41.4624 169.662 47.6807 167.041 49.3376C166.465 48.8991 166.545 49.7577 166.585 48.7207Z" fill="#FE277D"/>
<path fill-rule="evenodd" clip-rule="evenodd" d="M59.0684 87.6191C58.0739 91.2938 57.5031 100.453 56.9634 104.968C54.8239 122.866 49.7268 138.38 51.3662 156.781L49.486 156.672C51.1874 157.542 54.3232 156.05 55.5181 154.016C56.7985 151.837 56.184 152.308 56.8013 152.832C57.7907 151.171 57.7919 150.87 59.3994 149.798C60.543 149.035 61.7556 148.051 61.5347 146.085L61.4005 145.238C60.9078 147.324 59.9272 148.181 58.3386 149.016C58.7302 146.341 58.7097 144.782 58.2868 142.155L59.2214 139.159C58.5825 136.124 62.4177 122.15 63.3961 118.527C64.2841 115.239 65.3746 111.957 66.1767 108.593C66.6655 106.542 68.5241 99.8552 68.4853 98.5349C68.7493 97.1295 66.9925 91.5081 66.2812 90.0047L60.9921 88.5534C60.9684 85.7457 61.3168 78.8698 60.4512 76.7969L59.0684 87.6191Z" fill="#000629"/>
<path fill-rule="evenodd" clip-rule="evenodd" d="M68.4854 98.5346C69.3246 99.2224 69.3172 99.3173 69.5743 101.042L71.4828 108.951C72.2971 112.695 72.8395 116.36 73.1906 120.26C73.9127 128.28 73.2746 132.519 73.4137 139.31C73.4574 141.446 74.0474 143.726 73.8374 145.708C76.537 149.428 72.3383 159.294 76.7527 164.698C77.2266 164.432 76.781 164.601 77.5691 164.437C77.9206 164.364 78.4592 164.313 78.847 164.257C79.7852 164.121 80.0402 164.026 80.961 163.771C80.5283 157.855 79.5268 153.968 79.1839 145.66C78.1877 121.52 83.8928 116.691 76.4668 90.3814L66.2812 90.0044C66.9925 91.5078 68.7494 97.1292 68.4854 98.5346Z" fill="#002057"/>
<path fill-rule="evenodd" clip-rule="evenodd" d="M170.092 71.5786L166.948 82.5578L167.272 83.1537C168.144 85.8806 166.708 109.742 167.719 113.929L178.389 107.843L178.381 66.9595C177.634 67.5559 171.422 71.1047 170.092 71.5786Z" fill="#71C2FF"/>
<path fill-rule="evenodd" clip-rule="evenodd" d="M59.2214 139.159L59.144 140.293C64.717 140.747 71.5278 143.094 73.7919 146.618L73.8373 145.708C74.0473 143.727 73.4573 141.446 73.4136 139.31C73.2745 132.519 73.9127 128.281 73.1906 120.26C72.8395 116.36 72.297 112.695 71.4827 108.951L69.5742 101.042C69.3171 99.3174 69.3245 99.2225 68.4853 98.5347C68.5241 99.855 66.6655 106.542 66.1767 108.593C65.3746 111.957 64.2841 115.239 63.3961 118.527C62.4177 122.15 58.5825 136.123 59.2214 139.159Z" fill="white"/>
<path fill-rule="evenodd" clip-rule="evenodd" d="M170.092 71.5785C171.422 71.1046 177.634 67.5558 178.381 66.9594L178.389 107.843L167.719 113.929C166.895 114.258 166.957 114.372 166.02 114.21C165.025 114.038 165.352 114.122 164.705 113.48L160.364 111.078L160.363 105.233C159.504 104.603 159.164 104.634 158.252 103.895L152.963 98.8153L145.34 126.001C147.339 126.748 148.214 127.551 150.327 126.355C152.713 125.006 162.09 119.743 162.868 118.722C162.286 117.39 161.563 117.402 160.35 116.705L160.398 113.113C166.654 115.529 163.887 117.723 171.071 113.571C172.775 112.586 180.139 108.59 180.827 107.434C180.225 106.404 179.524 106.206 178.56 105.837L178.513 66.6224C177.751 65.6771 174.126 63.603 172.544 62.9585L170.092 71.5785Z" fill="#C6C7FD"/>
<path fill-rule="evenodd" clip-rule="evenodd" d="M115.65 37.7152L113.445 36.7691C114.024 35.384 114.839 34.566 115.764 33.3032L122.895 23.1819L125.107 24.2195C124.156 26.5231 116.593 35.6963 115.65 37.7152ZM103.055 31.1557C103.554 29.7633 107.782 24.2465 108.97 22.5998L111.033 23.5846C110.518 24.7709 105.894 31.3106 105.012 31.9372L103.055 31.1557ZM106.579 32.7703C107.27 31.1836 109.733 28.2527 110.859 26.6331C112.321 24.531 113.79 22.4649 115.304 20.4907L117.356 21.4753L108.534 33.8088C107.637 33.5143 107.345 33.4636 106.579 32.7703ZM111.967 35.8022C110.916 35.2551 110.688 35.3999 109.991 34.5342C111.341 32.2127 113.582 29.4313 115.267 27.1632C116.472 25.5395 119.554 20.7255 120.903 19.7993L122.656 20.8271L111.967 35.8022ZM105.775 23.577C105.859 24.3176 105.914 24.08 105.37 24.658C104.938 25.1167 105.148 24.8444 104.803 25.118L103.986 25.7476C102.804 27.8144 101.257 29.166 99.9796 31.524L116.267 40.3664C116.874 39.787 116.81 39.8281 117.367 39.1298L131.499 20.2505C129.488 19.7374 125.084 16.9013 123.04 15.806C121.053 14.7409 116.769 12.0521 114.769 11.5381C114.225 12.4974 113.237 13.6257 112.539 14.5476C111.723 15.6252 111.055 16.5064 110.259 17.5578C108.636 19.702 107.131 21.5645 105.775 23.577Z" fill="white"/>
<path fill-rule="evenodd" clip-rule="evenodd" d="M46.969 141.51C46.03 147.927 45.9518 151.244 48.1998 156.576L48.427 155.909C48.5318 155.988 48.6178 156.01 48.6483 156.121L49.4861 156.672L51.3663 156.781C49.7269 138.38 54.824 122.866 56.9635 104.968C57.5032 100.453 58.074 91.2935 59.0685 87.6188C57.6114 87.7367 56.1168 86.4732 54.5627 85.7944C54.6548 92.6312 53.4759 108.457 51.6822 114.558C50.2792 119.331 49.0555 121.53 48.3515 127.065C47.7392 131.878 47.5986 136.644 46.969 141.51Z" fill="#002057"/>
<path fill-rule="evenodd" clip-rule="evenodd" d="M86.0111 54.1416C86.1581 54.1163 97.9775 58.154 100.255 58.7014C104.579 59.7403 112.308 61.7048 116.564 62.0038C117.649 60.2535 118.276 60.0016 118.572 57.1142C114.538 57.2742 99.5006 53.0048 95.2009 51.3499C91.6241 49.9732 88.676 48.2777 85.6374 46.4675C84.6168 45.8596 77.2999 42.0255 76.8133 40.8887C76.7594 40.9551 76.6846 40.9794 76.6644 41.0977C76.6592 41.1279 75.1168 43.1918 75.5612 45.7023C75.8355 47.2513 77.0535 48.5702 78.1129 49.4172C81.1621 51.8551 84.3747 52.4934 86.0111 54.1416Z" fill="#002057"/>
<path fill-rule="evenodd" clip-rule="evenodd" d="M146.001 84.3413L143.275 94.5156L138.79 109.844L138.33 112.172C137.225 116.033 132.595 134.495 131.184 136.344L131.07 138.074C130.874 138.888 130.678 139.489 130.508 140.396C132.284 140.979 132.282 141.724 134.579 141.614C135.173 137.549 137.301 131.645 138.463 127.453C139.808 122.599 141.111 117.979 142.433 113.084C143.739 108.243 150.391 87.0188 149.872 83.6903C149.809 83.6331 149.718 83.5587 149.677 83.5267L146.775 81.8262L146.001 84.3413Z" fill="#FF84BB"/>
<path fill-rule="evenodd" clip-rule="evenodd" d="M76.8134 40.8886C77.3 42.0254 84.6169 45.8595 85.6375 46.4674C88.6761 48.2776 91.6242 49.9731 95.201 51.3498C99.5007 53.0047 114.538 57.2741 118.572 57.1141C118.394 54.9061 118.282 54.2812 117.207 52.6017C115.812 51.7891 111.622 50.9664 109.629 50.3875C106.977 49.6173 104.429 48.8129 101.884 47.8841C98.2424 46.5552 91.217 43.0627 88.9008 40.9612C87.437 40.4444 86.7583 39.8898 85.4708 38.9286C84.1969 37.9775 84.6266 38.023 83.2599 37.6313C79.5238 38.0844 78.854 39.083 76.8134 40.8886Z" fill="#003592"/>
<path fill-rule="evenodd" clip-rule="evenodd" d="M116.002 131.311C116.689 132.235 123.887 136.278 125.211 136.695C125.351 132.769 124.388 119.505 125.747 117.292C122.479 115.532 119.115 113.214 115.783 111.604L116.002 131.311Z" fill="#FFA700"/>
<path fill-rule="evenodd" clip-rule="evenodd" d="M115.555 129.14C115.584 130.422 115.311 130.662 116.002 131.311L115.783 111.604C119.115 113.214 122.479 115.532 125.747 117.292C128.157 118.436 129.244 117.379 131.098 116.298C132.861 115.27 134.488 114.216 136.341 113.348L136.641 112.79L137.505 109.476L136.539 109.14L136.284 108.792C125.953 103.593 130.38 102.236 119.615 108.33C114.595 111.172 115.501 110.401 115.502 116.958C115.502 120.837 115.293 125.341 115.555 129.14Z" fill="#FFDF5A"/>
<path fill-rule="evenodd" clip-rule="evenodd" d="M103.913 22.4983C103.98 22.5578 104.075 22.632 104.122 22.6656L105.775 23.5776C107.131 21.5651 108.636 19.7026 110.259 17.5584C111.055 16.507 111.723 15.6258 112.539 14.5482C113.237 13.6263 114.225 12.498 114.769 11.5387C115.247 10.8173 115.37 10.7735 115.942 10.2243C118.355 11.203 121.614 13.3099 124.138 14.7025L131.982 19.2033C132.012 19.1416 132.113 19.3087 132.214 19.3925L131.499 20.2511L117.367 39.1304C116.81 39.8287 116.874 39.7876 116.267 40.367L99.9795 31.5246C101.257 29.1666 102.804 27.815 103.986 25.7482C101.23 26.4659 97.7254 28.6161 98.0404 32.0654C99.738 33.6109 101.37 33.9624 102.955 35.1812C106.025 36.6243 109.876 38.7982 112.769 40.5384C117.235 43.225 117.387 42.1581 121.583 36.6469L131.412 23.5414C132.414 22.2184 134.071 20.6654 133.791 18.4332C132.903 17.6283 118.117 9.29754 116.64 8.77284C113.975 7.82634 112.201 11.462 109.8 14.6401L103.913 22.4983Z" fill="#41413E"/>
<path fill-rule="evenodd" clip-rule="evenodd" d="M125.747 117.292C124.388 119.505 125.351 132.769 125.211 136.695C126.877 138.335 128.393 138.226 129.989 136.821L136.341 113.348C134.488 114.216 132.861 115.27 131.098 116.298C129.244 117.379 128.157 118.436 125.747 117.292Z" fill="#FFCB02"/>
<path fill-rule="evenodd" clip-rule="evenodd" d="M165.251 60.0962L162.108 71.0664L157.462 87.8457L156.631 90.4198C158.717 91.8073 158.229 91.3477 158.711 93.9912C160.133 92.6945 161.691 85.5077 162.168 83.7303C163.127 80.1625 164.104 76.818 165.103 73.2477C166.136 69.555 170.622 55.0877 170.567 52.4544C170.35 52.315 170.247 52.2833 169.795 52.1199L167.599 51.3276L165.251 60.0962Z" fill="#FF64AA"/>
<path fill-rule="evenodd" clip-rule="evenodd" d="M58.1835 7.72159C60.0736 7.34279 65.6254 9.91599 75.9116 7.19099C77.7612 6.70099 79.6207 5.7984 81.3889 5.5932C79.7656 2.2508 74.4033 -0.324807 69.0584 0.0332935C63.4399 0.409693 59.496 3.67529 58.1835 7.72159Z" fill="#8B3615"/>
<path fill-rule="evenodd" clip-rule="evenodd" d="M157.462 87.8458L162.108 71.0665C160.669 70.5254 155.922 67.8304 154.844 66.979L154.729 86.2669L157.462 87.8458Z" fill="#0199FD"/>
<path fill-rule="evenodd" clip-rule="evenodd" d="M120.18 53.4384C121.316 57.5827 120.74 57.5547 119.747 61.321C124.043 62.4808 127.563 62.4317 128.983 58.1525C130.155 54.6203 129.367 55.553 129.701 54.6573C132.757 54.3389 135.061 55.8346 137.396 54.0231C136.406 52.9798 130.151 52.6669 128.721 52.4643C125.051 51.9442 122.789 51.4446 120.18 53.4384Z" fill="#FFAC82"/>
<path fill-rule="evenodd" clip-rule="evenodd" d="M136.539 109.14L137.505 109.476C138.325 109.754 138.165 109.692 138.79 109.843L143.275 94.5152C142.451 93.4376 137.462 90.8592 136.484 90.4736L136.539 109.14Z" fill="#9F9FF1"/>
<path fill-rule="evenodd" clip-rule="evenodd" d="M57.8992 13.5352C57.8449 15.4403 58.4513 15.5377 58.8248 17.2515C60.1106 19.098 61.2521 22.1087 65.7206 21.6607C68.7128 21.3607 67.9346 20.3966 67.9695 20.0109C67.5916 17.0183 68.8926 16.1912 71.5542 16.4665L71.2364 20.1491C72.601 19.6075 72.9574 18.7599 73.6763 17.3061C74.5993 15.4399 75.139 15.3085 75.9203 14.0082C74.6377 13.3644 69.0358 14.6364 66.9197 14.6954C61.684 14.8414 62.4554 14.4728 58.053 13.2832L57.8992 13.5352Z" fill="#4C1E08"/>
<path fill-rule="evenodd" clip-rule="evenodd" d="M75.9203 14.0081C75.139 15.3084 74.5993 15.4398 73.6763 17.306C72.9574 18.7598 72.601 19.6074 71.2364 20.149L71.5542 16.4664C68.8926 16.1911 67.5916 17.0182 67.9695 20.0108C68.539 20.9942 68.1506 21.9689 68.1344 23.6069L63.2214 23.0773C63.7486 23.5387 73.5842 24.2214 74.5751 23.8938C76.165 23.3682 76.1951 21.706 76.7747 20.0525C77.6322 17.6059 78.2376 17.9713 79.5924 16.5431L79.6936 9.77539C77.1094 11.0836 77.9243 12.869 75.9203 14.0081Z" fill="#FFAC82"/>
<path fill-rule="evenodd" clip-rule="evenodd" d="M54.3862 21.6817L53.2755 23.5985C54.7879 25.3647 56.6067 26.0677 59.11 27.1622C62.8682 28.8055 77.9781 33.4745 80.8697 33.7167C80.0932 33.3265 80.6663 33.5577 80.3363 32.9792C78.9783 32.3961 72.2641 26.835 70.5846 25.5219L70.8191 27.0378C70.8174 27.0756 70.8141 27.185 70.7866 27.2515C65.6886 27.0698 60.2101 25.8696 56.727 23.6164L57.4033 21.2295L54.3862 21.6817Z" fill="#0051BF"/>
<path fill-rule="evenodd" clip-rule="evenodd" d="M58.1835 7.72166L57.8058 9.15296L57.5912 10.5628C63.3606 11.6 68.5928 12.0733 74.5528 10.7671C76.3404 10.3753 78.0361 9.64276 79.7033 9.36016C81.4507 9.13666 82.5442 7.54616 81.3889 5.59326C79.6207 5.79846 77.7612 6.70106 75.9116 7.19106C65.6254 9.91606 60.0736 7.34286 58.1835 7.72166Z" fill="#4C1E08"/>
<path fill-rule="evenodd" clip-rule="evenodd" d="M160.363 105.233L160.364 111.077L164.705 113.479C165.381 113.124 165.389 113.884 165.366 110.979C165.358 109.917 165.329 108.855 165.329 107.786L165.346 92.9594C165.375 91.5781 165.602 90.9801 164.879 90.0762C164.341 92.3249 161.265 104.333 160.363 105.233Z" fill="#0199FD"/>
<path fill-rule="evenodd" clip-rule="evenodd" d="M84.2437 162.689C89.9662 160.852 94.0918 161.322 96.4159 159.999C99.3097 158.351 97.5032 155.779 98.5794 157.803L98.8205 157.231C99.4472 154.771 98.6247 158.948 98.9815 156.6C99.0774 155.969 99.0221 155.356 99.0069 154.727C97.3661 153.58 97.7539 153.251 95.145 153.218C93.2867 153.193 91.4222 153.429 89.5429 153.397C89.609 153.489 89.6971 153.598 89.7436 153.671C90.4554 154.791 90.6766 155.127 90.0136 156.403C88.4191 159.471 85.1181 161.381 84.2437 162.689Z" fill="#262626"/>
<path fill-rule="evenodd" clip-rule="evenodd" d="M150.868 84.4181C151.566 85.6089 152.485 86.4497 153.464 87.5014C154.222 88.3148 154.043 88.1001 154.99 88.8016C155.784 89.39 155.916 89.5741 156.631 90.4198L157.462 87.8457L154.729 86.2668L154.844 66.9789C155.922 67.8303 160.669 70.5253 162.108 71.0664L165.251 60.0962L156.209 65.1903C154.806 66.0283 154.503 65.9842 154.433 67.9099C154.219 73.8565 154.854 80.4531 154.346 86.3611L150.868 84.4181Z" fill="#C2DCFD"/>
<path fill-rule="evenodd" clip-rule="evenodd" d="M142.59 136.125C142.008 137.549 142.359 137.088 141.023 137.856C140.131 138.369 139.472 138.693 138.753 139.12C137.614 139.796 135.361 140.978 134.579 141.614C132.282 141.724 132.284 140.979 130.508 140.396C130.678 139.489 130.874 138.889 131.07 138.074L131.184 136.344L129.989 136.821C128.393 138.226 126.877 138.335 125.211 136.695C123.887 136.278 116.689 132.236 116.002 131.311C115.311 130.663 115.584 130.422 115.555 129.141C114.524 129.643 113.641 130.055 113.114 130.625C113.564 132.176 115.424 132.789 116.894 133.604C118.423 134.452 119.444 135.076 120.91 135.936C123.596 137.511 126.249 138.915 129.025 140.519C133.706 143.225 134.611 144.446 137.446 142.764C138.894 141.904 144.52 138.9 145.249 137.773C144.394 136.802 143.865 136.502 142.59 136.125Z" fill="#C2DCFD"/>
<path fill-rule="evenodd" clip-rule="evenodd" d="M57.8992 13.5348L58.053 13.2828C62.4554 14.4724 61.684 14.841 66.9197 14.695C69.0358 14.636 74.6377 13.364 75.9203 14.0078C77.9243 12.8687 77.1094 11.0833 79.6936 9.77513L79.7033 9.36003C78.0361 9.64263 76.3403 10.3751 74.5527 10.7669C68.5927 12.0731 63.3606 11.5998 57.5912 10.5626L57.8058 9.15283C57.1754 10.1126 57.1054 12.6545 57.8992 13.5348Z" fill="#8B3615"/>
<path fill-rule="evenodd" clip-rule="evenodd" d="M164.879 90.0763C165.602 90.9802 165.375 91.5782 165.346 92.9595L165.329 107.786C165.329 108.855 165.358 109.917 165.366 110.979C165.389 113.884 165.381 113.124 164.705 113.48C165.352 114.122 165.025 114.038 166.02 114.21C166.957 114.372 166.895 114.258 167.719 113.929C166.708 109.742 168.144 85.8804 167.272 83.1535L166.948 82.5576L164.879 90.0763Z" fill="#51B5FE"/>
<path fill-rule="evenodd" clip-rule="evenodd" d="M83.408 37.2747L83.2598 37.6315C84.6265 38.0232 84.1968 37.9776 85.4707 38.9287C86.7582 39.8899 87.4369 40.4445 88.9007 40.9614L95.9297 38.0606C96.0604 36.2894 96.1881 34.6542 95.1107 33.3336C93.0021 33.0614 86.4041 36.7748 83.408 37.2747Z" fill="#002057"/>
<path fill-rule="evenodd" clip-rule="evenodd" d="M94.4657 28.8275C95.5024 29.931 96.0777 29.9703 96.9356 31.6715C97.7294 33.2456 98.1407 34.2624 97.9232 36.2967C99.4855 36.6498 101.49 35.8526 102.955 35.1809C101.37 33.9621 99.738 33.6106 98.0404 32.0651C97.7254 28.6158 101.23 26.4656 103.986 25.7479L104.803 25.1183C105.148 24.8447 104.938 25.117 105.37 24.6583C105.914 24.0803 105.858 24.3179 105.775 23.5773L104.122 22.6653C104.075 22.6317 103.98 22.5575 103.913 22.498C100.679 23.6613 101.313 22.9777 98.7518 25.1008C97.8698 25.8319 97.5491 26.2233 96.7675 27.0037C95.9055 27.8644 95.3803 28.0123 94.4657 28.8275Z" fill="#FFAC82"/>
<path fill-rule="evenodd" clip-rule="evenodd" d="M122.656 20.8276L120.903 19.7998C119.554 20.726 116.472 25.54 115.267 27.1637C113.582 29.4318 111.341 32.2132 109.991 34.5347C110.688 35.4004 110.916 35.2556 111.967 35.8027L122.656 20.8276Z" fill="#FF64AA"/>
<path fill-rule="evenodd" clip-rule="evenodd" d="M115.65 37.7154C116.593 35.6965 124.156 26.5233 125.107 24.2197L122.895 23.1821L115.764 33.3034C114.839 34.5662 114.024 35.3842 113.445 36.7693L115.65 37.7154Z" fill="#F90566"/>
<path fill-rule="evenodd" clip-rule="evenodd" d="M84.2436 162.689L80.961 163.771C80.0402 164.026 79.7851 164.121 78.8469 164.257C78.4591 164.313 77.9205 164.364 77.5691 164.437C76.781 164.601 77.2265 164.432 76.7526 164.698C77.19 165.713 77.4696 166.096 78.875 166.284C80.213 166.463 84.0761 165.847 85.229 165.396C87.1683 164.639 85.9309 165.178 86.6616 163.319C90.1989 162.023 99.1849 163.309 98.5793 157.803C97.5031 155.779 99.3097 158.35 96.4159 159.998C94.0918 161.322 89.9661 160.852 84.2436 162.689Z" fill="#060809"/>
<path fill-rule="evenodd" clip-rule="evenodd" d="M136.641 112.79L136.341 113.348L129.989 136.821L131.184 136.344C132.595 134.495 137.225 116.033 138.33 112.171L136.641 112.79Z" fill="#FC8A05"/>
<path fill-rule="evenodd" clip-rule="evenodd" d="M106.579 32.7708C107.345 33.4641 107.637 33.5148 108.534 33.8093L117.356 21.4758L115.304 20.4912C113.79 22.4654 112.321 24.5315 110.859 26.6336C109.733 28.2532 107.27 31.1841 106.579 32.7708Z" fill="#F90566"/>
<path fill-rule="evenodd" clip-rule="evenodd" d="M50.2914 50.1242C50.7961 49.2366 49.8321 47.0005 49.4812 45.6419C49.087 44.116 48.4531 42.4937 47.8782 40.9033C46.8318 38.0085 45.7678 34.1737 43.814 32.147C44.464 38.1511 46.5382 48.0116 50.2914 50.1242Z" fill="#002057"/>
<path fill-rule="evenodd" clip-rule="evenodd" d="M164.818 48.1814C165.988 48.2591 165.677 48.1071 166.585 48.7209C167.151 47.7752 166.896 48.2854 167.63 47.7126C169.432 46.3079 176.284 41.0151 177.028 39.6077L174.662 38.4834C173.23 41.031 165.332 45.36 164.027 48.0391C164.414 48.5193 164.142 48.1005 164.818 48.1814Z" fill="#FF64AA"/>
<path fill-rule="evenodd" clip-rule="evenodd" d="M114.769 11.538C116.769 12.052 121.053 14.7408 123.04 15.8059C125.084 16.9012 129.488 19.7373 131.499 20.2504L132.214 19.3918C132.113 19.308 132.012 19.1409 131.982 19.2026L124.138 14.7018C121.614 13.3092 118.355 11.2023 115.942 10.2236C115.37 10.7728 115.247 10.8166 114.769 11.538Z" fill="#CECED2"/>
<path fill-rule="evenodd" clip-rule="evenodd" d="M103.055 31.156L105.012 31.9375C105.894 31.3109 110.517 24.7712 111.033 23.5849L108.97 22.6001C107.782 24.2468 103.554 29.7636 103.055 31.156Z" fill="#F90566"/>
<path fill-rule="evenodd" clip-rule="evenodd" d="M63.2214 23.0769L68.1344 23.6065C68.1506 21.9685 68.539 20.9938 67.9695 20.0104C67.9346 20.3961 68.7128 21.3602 65.7206 21.6602C61.2521 22.1082 60.1106 19.0975 58.8248 17.251C58.7886 19.2828 57.8966 19.5809 57.7493 21.3888C59.3187 22.2982 61.0089 23.2197 63.2214 23.0769Z" fill="#E67D53"/>
<path fill-rule="evenodd" clip-rule="evenodd" d="M91.3104 29.4544C92.0023 30.216 92.3968 30.2322 93.34 31.0296C94.4809 31.9939 94.4478 32.0093 95.1107 33.3331C96.1881 34.6537 96.0604 36.2889 95.9297 38.0601C96.7627 37.4308 97.4654 37.1117 97.9232 36.2963C98.1407 34.262 97.7294 33.2453 96.9356 31.6712C96.0777 29.97 95.5024 29.9306 94.4657 28.8271C93.0664 28.9201 92.4516 28.8081 91.3104 29.4544Z" fill="#D7E9F9"/>
<path fill-rule="evenodd" clip-rule="evenodd" d="M118.572 57.1142C118.276 60.0016 117.649 60.2534 116.564 62.0037C118.131 62.0043 118.666 62.1558 119.747 61.3208C120.74 57.5545 121.316 57.5826 120.18 53.4383C119.004 52.6181 118.982 52.5037 117.207 52.6017C118.282 54.2813 118.394 54.9062 118.572 57.1142Z" fill="#D7E9F9"/>
<path fill-rule="evenodd" clip-rule="evenodd" d="M61.5347 146.085L61.8834 144.662C61.8184 142.612 60.0172 142.233 58.2868 142.155C58.7097 144.782 58.7302 146.341 58.3386 149.016C59.9272 148.181 60.9078 147.324 61.4005 145.238L61.5347 146.085Z" fill="#262626"/>
<path fill-rule="evenodd" clip-rule="evenodd" d="M49.486 156.672L48.6482 156.121C48.6177 156.01 48.5317 155.988 48.4269 155.909L48.1997 156.576C49.7175 160.484 56.5244 158.191 56.8013 152.832C56.184 152.308 56.7985 151.836 55.5181 154.016C54.3232 156.049 51.1874 157.542 49.486 156.672Z" fill="#060809"/>
<path fill-rule="evenodd" clip-rule="evenodd" d="M166.585 48.7211C166.545 49.7581 166.465 48.8995 167.041 49.338C169.662 47.6811 176.536 41.4628 178.053 40.7563C177.736 40.2694 177.988 40.5399 177.586 40.1069C177.389 39.8941 177.263 39.8202 177.028 39.6079C176.284 41.0153 169.432 46.3081 167.63 47.7128C166.896 48.2856 167.151 47.7754 166.585 48.7211Z" fill="#FFACD2"/>
<path fill-rule="evenodd" clip-rule="evenodd" d="M136.641 112.79L138.33 112.171L138.79 109.843C138.165 109.692 138.325 109.754 137.505 109.476L136.641 112.79Z" fill="#FFCB02"/>
</svg>
