<svg width="47" height="50" viewBox="0 0 47 50" fill="none" xmlns="http://www.w3.org/2000/svg">
<path fill-rule="evenodd" clip-rule="evenodd" d="M3.31697 14.5372H43.6946C42.6975 16.0613 34.1851 24.4284 31.7441 26.9277C26.8813 31.908 29.7869 30.9573 19.6462 30.9573C18.6818 30.9573 16.1729 27.8558 15.4156 27.0802L3.31697 14.5372ZM20.5367 10.5843C21.4482 10.5843 22.3183 10.8651 22.3183 11.8005V12.7124H20.2404C18.3618 12.7124 20.0941 10.5843 20.5367 10.5843ZM0.0516287 7.54334C0.0516287 15.5286 -0.801737 12.9029 4.43038 18.2616L13.4858 27.8405C18.5161 32.9924 17.8646 30.7785 17.8646 37.0383H19.6462C19.6462 31.6218 18.2234 32.7812 27.3653 32.7812V37.0383H29.1469C29.1469 30.895 28.2874 33.2055 34.268 27.0802L40.9873 19.9744C41.0305 19.9302 41.0948 19.8688 41.1372 19.8236L41.4289 19.5139C43.6284 17.0987 46.9203 14.5507 46.9943 12.7232C47.0402 11.6054 46.795 11.0321 46.7069 10.2358C46.6081 9.35093 46.6628 8.43541 46.6628 7.54334C43.5244 7.27608 45.0337 7.20385 41.3831 7.36096L37.0502 7.40972C35.339 7.52258 37.1066 7.23906 35.6785 7.23906C34.2406 7.23906 36.0249 7.52799 34.3102 7.4061C33.7698 7.36728 33.2083 7.23906 32.4123 7.23906V9.3681C33.1528 9.3681 33.4481 9.29765 34.0732 9.23354C35.8786 9.04935 34.4099 9.3681 35.6785 9.3681C37.1216 9.3681 35.362 9.15589 36.8193 9.17936C38.2739 9.20284 36.8298 9.48363 39.9674 9.19651L45.1783 9.3681V12.7124H24.1V11.1919C24.1 9.93509 21.1723 7.31941 18.569 9.78432C17.8611 10.4552 17.5949 11.47 17.5684 12.7124H1.83328V9.3681L8.02097 9.19832C9.13086 9.26965 14.1911 9.82585 14.7059 8.83447C15.0303 8.20876 14.8329 8.62408 14.8963 7.84759C13.1288 6.979 9.59018 7.45486 8.06771 7.45486L3.31697 7.23906C1.66931 7.23906 1.55735 7.54334 0.0516287 7.54334Z" fill="#FFBB00"/>
<path fill-rule="evenodd" clip-rule="evenodd" d="M23.5061 40.3845C27.1928 40.3845 28.926 45.8931 25.1361 47.8407C22.2587 49.3187 18.6795 46.3698 19.9904 42.8801C20.4365 41.6946 21.8241 40.3845 23.5061 40.3845ZM17.8649 44.3374C17.8649 51.938 29.1473 51.8369 29.1473 44.3374C29.1473 36.8388 17.8649 36.7368 17.8649 44.3374Z" fill="#FFBB00"/>
<path fill-rule="evenodd" clip-rule="evenodd" d="M14.0048 18.4902C14.0048 19.1909 14.2119 19.4022 14.896 19.4022H33.3023V17.5774H14.0048V18.4902Z" fill="#FFBB00"/>
<path fill-rule="evenodd" clip-rule="evenodd" d="M18.1612 4.80744C16.4439 4.80744 15.5253 2.46621 18.4583 1.76647C18.8911 2.152 19.2693 2.53937 19.6457 2.98269C19.4483 3.84947 19.1865 4.80744 18.1612 4.80744ZM14.8959 2.98269C14.8959 8.29715 21.4459 7.30125 21.3392 3.32308C21.2149 -1.34039 14.8959 -0.759824 14.8959 2.98269Z" fill="#FFBB00"/>
<path fill-rule="evenodd" clip-rule="evenodd" d="M27.6625 6.9364C25.5026 6.9364 25.8808 6.82355 25.8808 4.504C30.2728 3.45664 28.9884 6.9364 27.6625 6.9364ZM24.1 5.11253C24.1 10.1742 29.4485 9.45818 30.3706 6.64746C31.9416 1.85849 24.1 0.501432 24.1 5.11253Z" fill="#FFBB00"/>
</svg>
