<svg width="125" height="74" viewBox="0 0 125 74" fill="none" xmlns="http://www.w3.org/2000/svg">
<path fill-rule="evenodd" clip-rule="evenodd" d="M121.007 36.1243C121.052 38.0516 121.035 40.5851 121.007 41.2368C120.961 42.2946 120.282 43.2965 118.942 44.0469L67.6253 72.8046C64.5435 74.5316 59.088 74.3003 55.5018 72.2906L6.01916 44.561C4.04292 43.4536 3.00694 42.0275 3.03523 40.6821C3.04168 40.3719 3.07193 37.2109 3.03831 35.6746C3.01525 34.621 3.76856 33.6258 5.10196 32.8786L56.419 4.12095C59.5008 2.39399 64.9563 2.6252 68.5426 4.63491L118.025 32.3646C119.943 33.4394 120.953 34.8141 121.007 36.1243Z" fill="#D8EAFF"/>
<path d="M55.7023 3.68734L6.48544 31.67C2.90363 33.7064 2.90363 37.0082 6.48544 39.0446L55.7023 67.0273C59.2841 69.0637 65.0913 69.0637 68.6731 67.0273L117.89 39.0446C121.472 37.0082 121.472 33.7064 117.89 31.67L68.6731 3.68734C65.0913 1.65088 59.2841 1.65087 55.7023 3.68734Z" fill="#F5F8FF"/>
</svg>
