<svg width="70" height="76" viewBox="0 0 70 76" fill="none" xmlns="http://www.w3.org/2000/svg">
<path d="M6.60205 27.7542L6.6021 27.7543L20.0889 42.3141L6.60205 27.7542ZM6.60205 27.7542C5.15607 26.2428 4.02211 25.1492 3.13427 24.2929C2.8259 23.9956 2.54723 23.7268 2.29549 23.4791C1.31879 22.5182 0.747801 21.8747 0.420071 21.1069C0.0923436 20.3392 0.0076672 19.4465 0.00506274 17.9866C0.00396746 17.3726 0.017382 16.6585 0.0332968 15.8112C0.0363026 15.6512 0.0393975 15.4865 0.0425008 15.3167C0.0620129 14.2495 0.0818503 12.9859 0.0818938 11.4709M6.60205 27.7542L0.0818938 11.4709M0.0818938 11.4709C1.17521 11.4705 1.77485 11.3602 2.38774 11.2473C2.40187 11.2447 2.41601 11.2421 2.43016 11.2395C3.05875 11.1239 3.7136 11.0084 4.94016 11.0084L12.0155 11.3364H12.0157C12.5301 11.3364 13.1988 11.2992 13.9559 11.2571C14.0336 11.2527 14.1121 11.2484 14.1915 11.244C15.0456 11.1968 15.9992 11.1477 16.9641 11.1398C18.8927 11.124 20.8657 11.273 22.1808 11.9313C22.145 12.3805 22.1656 12.5671 22.1779 12.678C22.1817 12.7121 22.1847 12.7391 22.185 12.7644C22.1856 12.8176 22.1745 12.864 22.1327 12.9567C22.0996 13.0304 22.0473 13.1329 21.9668 13.2909C21.9458 13.332 21.9229 13.377 21.898 13.4261C21.8029 13.613 21.6026 13.764 21.3203 13.8847C21.0382 14.0053 20.6749 14.0954 20.255 14.1608C19.4152 14.2917 18.3499 14.3239 17.2567 14.3057C15.5986 14.278 13.877 14.1341 12.7812 14.0426C12.4319 14.0134 12.1463 13.9896 11.9464 13.9764L11.946 13.9764L2.73027 14.2345L2.72541 14.0609V14.2395V19.3229H2.73041V19.3279H26.1658V19.5627L26.1707 19.323C26.2101 17.435 26.6065 15.8941 27.6594 14.8758C28.628 13.9398 29.6266 13.4863 30.5794 13.3622C31.5323 13.238 32.4399 13.4432 33.2265 13.825C34.0132 14.2069 34.6788 14.7654 35.1478 15.3477C35.6168 15.9302 35.8886 16.5358 35.8886 17.0117V19.3229H35.8936V19.3279H67.2868V19.3229H67.2918V14.2395H67.4356L67.2869 14.2345L59.526 13.9737L59.5254 13.9737C58.3572 14.0828 57.6155 14.138 57.1263 14.1588C56.6371 14.1796 56.4005 14.166 56.2425 14.1378C56.1635 14.1237 56.104 14.1059 56.0421 14.0869L56.0306 14.0833C55.9722 14.0653 55.9105 14.0462 55.8277 14.0282C55.6512 13.9899 55.379 13.9566 54.8373 13.9476C54.566 13.9432 54.3694 13.9443 54.229 13.9497C54.0888 13.9551 54.0042 13.9648 53.9571 13.9776C53.9337 13.9839 53.9185 13.9913 53.9106 14C53.9066 14.0045 53.9043 14.0095 53.9041 14.0149C53.9038 14.0202 53.9055 14.0254 53.9082 14.0302C53.9137 14.0397 53.924 14.0492 53.936 14.0585C53.9482 14.0678 53.9627 14.0774 53.9771 14.0869C53.9915 14.0964 54.0058 14.1059 54.0177 14.1152C54.0298 14.1247 54.039 14.1336 54.0437 14.1418C54.046 14.1459 54.0471 14.1495 54.0471 14.1528C54.0471 14.156 54.0461 14.1593 54.0435 14.1628C54.0381 14.1699 54.0261 14.1776 54.0036 14.1849C53.9591 14.1995 53.8772 14.212 53.7389 14.2207C53.6008 14.2295 53.4068 14.2345 53.1382 14.2345C52.9021 14.2345 52.7298 14.2269 52.6038 14.2143C52.4777 14.2016 52.3982 14.1838 52.3475 14.1635C52.297 14.1433 52.2755 14.1208 52.2649 14.0988C52.2595 14.0876 52.2567 14.0764 52.2545 14.0649C52.254 14.0621 52.2534 14.0592 52.2529 14.0563C52.2514 14.0478 52.2498 14.0391 52.2474 14.0308C52.244 14.0196 52.239 14.0086 52.2299 13.9985C52.2207 13.9885 52.2078 13.9796 52.1891 13.972C52.1519 13.957 52.0911 13.9469 51.9897 13.9438C51.7867 13.9378 51.4189 13.96 50.7467 14.03C50.4929 14.0566 50.2756 14.0839 50.0715 14.1095C49.5278 14.1777 49.0775 14.2343 48.2786 14.2345V11.0084C48.869 11.0086 49.3727 11.0572 49.8292 11.1132C49.963 11.1295 50.0928 11.1466 50.2196 11.1632C50.5263 11.2035 50.8151 11.2414 51.1 11.2623C51.7383 11.3086 52.0515 11.3159 52.1955 11.3007C52.2315 11.2969 52.2573 11.2917 52.275 11.2852C52.2926 11.2787 52.3033 11.2706 52.3074 11.2602C52.3116 11.2497 52.3083 11.2388 52.3024 11.2285C52.2965 11.2181 52.2873 11.2073 52.2776 11.1965C52.2754 11.1941 52.2733 11.1916 52.2711 11.1892C52.2634 11.1807 52.2556 11.1721 52.2488 11.1634C52.2401 11.1523 52.2333 11.1415 52.2305 11.1312C52.2277 11.1212 52.2286 11.1117 52.2351 11.1024C52.2418 11.0929 52.2548 11.0831 52.2774 11.0737C52.3226 11.0549 52.4037 11.0385 52.5409 11.0269C52.678 11.0152 52.8705 11.0084 53.1382 11.0084C53.404 11.0084 53.5953 11.0151 53.7317 11.0265C53.8682 11.038 53.9491 11.0541 53.9944 11.0726C54.0171 11.0819 54.0303 11.0916 54.0372 11.101C54.0439 11.1102 54.045 11.1196 54.0425 11.1295C54.0399 11.1396 54.0336 11.1502 54.0253 11.1613C54.017 11.1723 54.0071 11.1832 53.9978 11.1941C53.9886 11.2049 53.9798 11.2158 53.9744 11.2262C53.969 11.2366 53.9663 11.2476 53.971 11.2581C53.9757 11.2684 53.9867 11.2766 54.0047 11.2833C54.0228 11.29 54.0489 11.2955 54.0853 11.2996C54.2306 11.3159 54.5444 11.3106 55.1813 11.2678C55.1813 11.2678 55.1814 11.2678 55.1814 11.2678L61.6345 11.1937L61.6347 11.1936C64.3533 11.0742 65.1503 11.042 65.8518 11.0904C66.1344 11.1098 66.4016 11.1424 66.7727 11.1876C66.8622 11.1985 66.9579 11.2102 67.0612 11.2226C67.5921 11.2862 68.3268 11.3691 69.4928 11.4705C69.4928 11.824 69.4872 12.1801 69.4816 12.5372C69.4658 13.5476 69.4499 14.566 69.5585 15.5589C69.6025 15.9651 69.673 16.3334 69.7444 16.7073C69.7795 16.8906 69.8148 17.0753 69.8474 17.2665C69.9465 17.8478 70.0207 18.49 69.9866 19.3391C69.9591 20.0322 69.6325 20.7942 69.1064 21.605C68.5803 22.4157 67.855 23.2747 67.0305 24.1618C66.2993 24.9487 65.4901 25.7576 64.6731 26.5743C64.5691 26.6783 64.4649 26.7825 64.3608 26.8867C63.4387 27.8094 62.518 28.7399 61.6989 29.6578L61.699 29.6578L61.7026 29.6612L61.6989 29.6578L0.0818938 11.4709ZM4.94016 22.1015V22.1038L22.9558 41.1654L22.9559 41.1654C23.1904 41.4105 23.5377 41.8086 23.9539 42.2855C24.0379 42.3818 24.1248 42.4813 24.214 42.5834C24.7454 43.1911 25.3632 43.891 25.9906 44.554C26.618 45.217 27.2551 45.8433 27.8253 46.3039C28.1104 46.5342 28.3789 46.7232 28.6211 46.8546C28.8632 46.9859 29.0796 47.0601 29.2603 47.0601C31.7627 47.0601 33.7315 47.0997 35.3081 47.1315C36.1104 47.1477 36.8111 47.1618 37.4288 47.1676C39.26 47.1848 40.3622 47.1289 41.2188 46.8361C42.0757 46.5432 42.6864 46.0133 43.5353 45.0841C43.8116 44.7816 44.1132 44.4368 44.4567 44.044C45.1686 43.23 46.0607 42.21 47.282 40.9335C48.1544 40.0219 49.5475 38.5967 51.1817 36.9249C52.9526 35.1133 55.0065 33.0121 56.9878 30.9609C58.8926 28.9889 60.7302 27.0633 62.1844 25.4858C63.6385 23.9084 64.7097 22.6788 65.0812 22.0992L65.077 22.0965L65.0728 22.0938L65.0692 22.0915H4.94016V22.0965V22.1015ZM20.0853 42.3175L20.089 42.3141L20.0853 42.3175ZM26.6118 56.2932H26.6068C26.6068 56.2949 26.6068 56.2966 26.6068 56.2982H26.6118C26.6118 56.2966 26.6118 56.2949 26.6118 56.2932ZM29.2553 56.2932C29.2553 56.2949 29.2553 56.2966 29.2553 56.2982L29.2603 56.2932H29.2553ZM40.7618 56.2932H40.7568L40.7618 56.2982V56.2932ZM43.4053 56.2932C43.4053 56.2949 43.4053 56.2966 43.4053 56.2982L43.4104 56.2932H43.4053ZM51.0374 41.162L51.0338 41.1585L51.0337 41.1586L51.0374 41.162ZM27.4944 2.68133L27.4971 2.67842L27.4899 2.68017C26.3972 2.94623 25.6627 3.36845 25.2157 3.85258C24.7687 4.33679 24.6096 4.88276 24.6676 5.39559C24.7837 6.42103 25.7675 7.31231 27.0486 7.31231C27.8141 7.31231 28.2948 6.9471 28.6207 6.41718C28.9463 5.88765 29.1175 5.19343 29.2645 4.53478L29.2676 4.53547L29.2635 4.53049C28.7027 3.85646 28.1393 3.2675 27.4944 2.68133ZM38.5447 6.84122L38.5409 6.82554V6.84608C38.5409 7.28673 38.5321 7.67498 38.523 8.01708C38.5213 8.07992 38.5196 8.1412 38.518 8.20097C38.5107 8.46655 38.5042 8.70218 38.5032 8.91116C38.5006 9.4229 38.5306 9.77614 38.662 10.0192C38.7937 10.2629 39.0266 10.3951 39.4269 10.4664C39.8269 10.5376 40.3954 10.5483 41.1994 10.5483C41.6953 10.5483 42.1864 10.2164 42.5418 9.74477C42.8972 9.27303 43.1175 8.66044 43.0711 8.0973C43.0247 7.53376 42.7111 7.02018 41.9996 6.74749C41.2885 6.47496 40.1804 6.44313 38.5447 6.84122ZM33.245 17.9368C33.245 17.224 32.92 16.7602 32.4249 16.4749C31.9301 16.1898 31.2657 16.0831 30.5865 16.0831C30.5025 16.0831 30.389 16.1345 30.2607 16.223C30.1322 16.3117 29.988 16.4383 29.8425 16.5901C29.5513 16.8937 29.2541 17.2984 29.065 17.7034C28.876 18.108 28.7944 18.5142 28.9367 18.8196C29.0792 19.1255 29.4451 19.3279 30.1453 19.3279H33.24V19.3229H33.245V17.9368ZM37.4391 72.7223C40.2638 71.2409 41.0301 68.405 40.4035 65.9398C39.777 63.4749 37.7574 61.3795 35.0091 61.3795C32.5014 61.3795 30.4332 63.3726 29.7683 65.176C27.8144 70.4842 33.1491 74.9712 37.4391 72.7223ZM43.4058 67.3929C43.4058 70.2413 42.3562 72.3869 40.7819 73.8228C39.2076 75.2588 37.1084 75.9853 35.0091 75.9949C32.9097 76.0045 30.8105 75.2972 29.2362 73.8661C27.662 72.435 26.6123 70.2798 26.6123 67.3929C26.6123 64.5059 27.662 62.3508 29.2362 60.9199C30.8105 59.4888 32.9097 58.7817 35.0091 58.7913C37.1084 58.801 39.2076 59.5276 40.7819 60.9635C42.3562 62.3993 43.4058 64.5447 43.4058 67.3929ZM20.8632 26.7227H49.5942V29.4863H22.1856C21.6763 29.4863 21.3464 29.406 21.1434 29.1941C20.9404 28.9822 20.8632 28.6375 20.8632 28.1052V26.7227ZM31.7768 5.05122C31.8562 8.07143 29.4597 9.95976 27.0429 10.0842C25.8346 10.1464 24.6216 9.76765 23.7106 8.8692C22.7997 7.97077 22.1903 6.55216 22.1903 4.53369C22.1903 1.6928 24.5402 0.0515699 26.9142 0.00597583C28.1012 -0.0168192 29.2936 0.359306 30.2009 1.18353C31.1081 2.00769 31.7306 3.28027 31.7768 5.05122ZM45.2281 10.1026C44.5422 12.2363 42.2098 13.5753 40.0486 13.4199C38.9682 13.3421 37.9309 12.8909 37.1636 11.9789C36.3963 11.0669 35.8987 9.69363 35.8987 7.77105C35.8987 6.0204 36.6278 4.83681 37.6846 4.15929C38.7417 3.48163 40.127 3.30992 41.4396 3.58445C42.7522 3.85897 43.9915 4.57961 44.7566 5.68589C45.5215 6.792 45.8126 8.28414 45.2281 10.1026Z" fill="white" stroke="white" stroke-width="0.01"/>
</svg>
