<svg width="115" height="43" viewBox="0 0 115 43" fill="none" xmlns="http://www.w3.org/2000/svg">
<path d="M1.76942 1.20807C2.62813 0.577963 3.48815 0.263569 4.33181 0.263569C5.69814 0.263569 6.99082 0.959932 8.15362 2.40413L12.4163 7.69945L16.7293 2.40413C17.8964 0.971546 19.1724 0.263569 20.5512 0.263569C21.4012 0.263569 22.2549 0.575323 23.1138 1.20807C23.5689 1.54332 23.962 2.00025 24.2785 2.56806C24.6842 3.29531 24.883 4.05397 24.883 4.84088C24.883 5.79805 24.6058 6.61821 24.0206 7.25861L16.8048 15.1543V23.9251C16.8048 25.1384 16.3788 26.1774 15.552 27.0606C14.7184 27.951 13.6944 28.4082 12.454 28.4082C11.2453 28.4082 10.2021 27.9571 9.31221 27.0606C8.49151 26.2336 8.07813 25.1906 8.07813 23.9251V15.1543L0.862665 7.25861C0.276379 6.61716 0 5.79805 0 4.84088C0 4.06638 0.181348 3.30191 0.591827 2.56806C0.916515 1.98758 1.32885 1.53117 1.76942 1.20807ZM32.7285 26.6578C31.3498 25.9651 30.2039 25.0898 29.2908 24.0384C28.3843 22.987 27.6917 21.7529 27.2194 20.3361C26.7472 18.926 26.508 17.377 26.508 15.7084V4.70863C26.508 3.46848 26.9235 2.41047 27.7608 1.53539C28.6362 0.660056 29.6812 0.225555 30.8966 0.225555C32.0926 0.225555 33.1002 0.634979 33.9249 1.45963C34.8002 2.33497 35.2344 3.39272 35.2344 4.63313V15.9793C35.2344 16.8417 35.3794 17.5972 35.6753 18.2584C35.9712 18.9133 36.3994 19.4547 36.9598 19.8829C37.5202 20.3047 38.2065 20.588 39.0188 20.7392C39.4343 20.7894 39.7489 20.8147 39.9569 20.8147C40.152 20.8147 40.4606 20.7894 40.8761 20.7392C41.6883 20.588 42.3747 20.3047 42.9288 19.8892C43.4765 19.4737 43.9047 18.9321 44.2006 18.2647C44.4965 17.6035 44.6414 16.8417 44.6414 15.9793V4.63313C44.6414 3.40539 45.082 2.34764 45.9697 1.45963C46.7883 0.634979 47.7959 0.225555 48.9856 0.225555C50.2136 0.225555 51.2461 0.660056 52.0773 1.53539C52.4741 1.91948 52.7826 2.39173 53.0155 2.96455C53.2486 3.53764 53.3681 4.1168 53.3681 4.70863V15.7084C53.3681 17.4021 53.135 18.9571 52.6691 20.3552C52.2032 21.7592 51.5042 22.987 50.5724 24.0384C49.6469 25.0898 48.4946 25.9651 47.1096 26.6578C42.6619 28.8818 37.1773 28.8818 32.7285 26.6578Z" fill="#FEFEFE"/>
<path d="M72.1375 20.501C73.4407 20.2552 74.3599 19.7516 74.9015 19.0024H72.6348C71.5517 19.0024 70.6389 18.6181 69.8958 17.8562C69.153 17.0944 68.7752 16.1816 68.7752 15.1112C68.8003 14.3998 68.983 13.7575 69.3103 13.1844C69.644 12.6116 70.1035 12.1581 70.6893 11.812C71.2685 11.4657 71.9107 11.2954 72.597 11.2954H79.9197C82.6143 11.2954 83.9619 12.7816 83.9619 15.7471C83.9619 16.6034 83.8737 17.4912 83.7037 18.404C83.5274 19.5502 83.1056 20.7275 82.4256 21.9489C81.6764 23.2901 80.7193 24.4424 79.5607 25.4056C78.396 26.3755 77.0611 27.112 75.5562 27.6156C74.0515 28.1193 72.3956 28.3711 70.5885 28.3711C69.5558 28.3711 68.4099 28.2705 67.1568 28.0755C65.4317 27.7793 63.8767 27.2693 62.4789 26.5325C61.0809 25.8024 59.8595 24.8579 58.8142 23.6993C57.7691 22.5471 56.9381 21.2311 56.3083 19.7516C55.5844 18.0075 55.2191 16.232 55.2191 14.4375C55.2191 12.0763 55.8173 9.8412 57.0199 7.73179C58.2163 5.62263 59.9099 3.87856 62.1009 2.49956C64.4872 1.00731 67.2012 0.264492 70.2548 0.264492C70.6452 0.264492 71.2117 0.289569 71.9485 0.339988C73.2644 0.453232 74.5489 0.705063 75.8083 1.09548C77.0107 1.49223 78.1442 2.00857 79.2019 2.65082C81.3552 4.0673 82.4256 5.57855 82.4256 7.19037C82.4256 8.15361 81.9847 9.02262 81.097 9.79712C80.4738 10.3512 79.7183 10.6218 78.8305 10.6218C78.1819 10.6218 77.4829 10.4708 76.7462 10.1622H76.7084L75.1219 9.3312C74.7819 9.13586 74.5174 9.00361 74.3284 8.92811C72.7921 8.2167 71.363 7.8577 70.0344 7.8577C68.964 7.8577 68.0007 8.07178 67.1568 8.49361C66.3071 8.91544 65.6017 9.53895 65.035 10.3636C64.4685 11.1885 64.0907 12.1394 63.9081 13.2222C63.8326 13.5622 63.7948 13.9022 63.7948 14.2358C63.7948 14.664 63.8326 15.0798 63.9081 15.4889C64.1285 16.5781 64.5253 17.5162 65.0917 18.2971C65.6522 19.0779 66.3699 19.6824 67.2389 20.104C68.1076 20.5261 69.0836 20.7402 70.1793 20.7402C70.8466 20.7402 71.4952 20.6581 72.1375 20.501ZM87.9978 22.1503C87.4437 21.3634 86.9841 20.5324 86.6064 19.6507C86.2347 18.7693 85.9515 17.8879 85.7561 16.9938C85.5674 16.0998 85.4729 15.1993 85.4729 14.2863C85.4729 13.4049 85.5674 12.5108 85.7561 11.6104C85.9515 10.7163 86.2347 9.82219 86.6188 8.92811C86.9966 8.03403 87.4561 7.20305 87.9978 6.42855C88.8855 5.13771 89.956 4.02348 91.2091 3.08505C92.4619 2.15322 93.8345 1.43548 95.3331 0.938153C96.8251 0.440563 98.3617 0.188995 99.9358 0.188995C101.113 0.188995 102.278 0.327317 103.43 0.610825C104.576 0.894069 105.678 1.30956 106.729 1.85731C107.781 2.40506 108.738 3.05998 109.607 3.8218C110.476 4.58997 111.231 5.45263 111.886 6.42855C113.567 8.86529 114.411 11.4844 114.411 14.2863C114.411 15.6779 114.197 17.044 113.762 18.3789C113.334 19.7138 112.711 20.973 111.886 22.1503C111.231 23.1011 110.457 23.9701 109.563 24.7634C108.662 25.5569 107.718 26.2115 106.729 26.7279C105.741 27.2442 104.652 27.6534 103.474 27.9556C102.29 28.2579 101.113 28.4091 99.9358 28.4091C98.3617 28.4091 96.8251 28.1634 95.3331 27.6724C93.8345 27.1811 92.4619 26.457 91.2027 25.5125C89.937 24.562 88.8731 23.4411 87.9978 22.1503ZM94.1241 14.2863C94.1241 15.5079 94.3886 16.6098 94.911 17.6044C95.4337 18.5993 96.1327 19.3738 97.0078 19.9216C97.8894 20.4693 98.8527 20.7402 99.8978 20.7402C100.263 20.7402 100.647 20.7024 101.038 20.6269C101.743 20.482 102.372 20.2238 102.939 19.8585C103.506 19.4871 104.003 19.0212 104.444 18.4544C104.878 17.8879 105.212 17.2581 105.445 16.5657C105.678 15.873 105.798 15.1238 105.798 14.324C105.798 13.9463 105.76 13.5371 105.684 13.1089C105.502 12.0385 105.143 11.1194 104.608 10.3449C104.072 9.57036 103.399 8.96586 102.586 8.51895C101.774 8.07812 100.893 7.8577 99.9294 7.8577C98.8653 7.8577 97.8831 8.12854 97.0017 8.67628C96.1137 9.22403 95.4149 9.99853 94.8986 10.9934C94.3823 11.9881 94.1241 13.0839 94.1241 14.2863Z" fill="#FFBB00"/>
<path d="M8 36.0958H10.8352C11.5128 36.0958 12.0788 36.3083 12.5367 36.7344C12.9929 37.1607 13.221 37.6779 13.221 38.2872C13.221 38.8965 12.9929 39.4136 12.5367 39.8365C12.0788 40.2612 11.5128 40.4734 10.8352 40.4734H9.11338V42.9046H8V36.0958ZM10.8352 37.0683H9.11338V39.4995H10.8352C11.185 39.4995 11.4841 39.3844 11.7324 39.1511C11.979 38.9192 12.1025 38.6307 12.1025 38.2872C12.1025 37.9434 11.979 37.6552 11.7324 37.42C11.4841 37.1867 11.185 37.0683 10.8352 37.0683Z" fill="#FEFEFE"/>
<path d="M25.473 42.9046H20.9143V36.0958H22.0277V41.9305H25.473V42.9046Z" fill="#FEFEFE"/>
<path d="M32.051 42.9046L34.9911 36.0958H36.1062L39.0462 42.9046H37.8821L37.12 41.1057H33.9772L33.2151 42.9046H32.051ZM35.5504 37.3114L34.3829 40.1315H36.7146L35.5504 37.3114Z" fill="#FEFEFE"/>
<path d="M45.5244 36.0958H50.8959V37.0683H48.767V42.9046H47.6534V37.0683H45.5244V36.0958Z" fill="#FEFEFE"/>
<path d="M58.187 36.0958H63.1511V37.0683H59.3004V38.9679H62.3402V39.9371H59.3004V42.9046H58.187V36.0958Z" fill="#FEFEFE"/>
<path d="M72.117 37.7065C71.6066 38.1961 71.3532 38.7942 71.3532 39.4992C71.3532 40.2059 71.6066 40.8037 72.117 41.2949C72.6271 41.786 73.2506 42.0308 73.989 42.0308C74.7257 42.0308 75.3493 41.786 75.8594 41.2949C76.3697 40.8037 76.6249 40.2059 76.6249 39.4992C76.6249 38.7942 76.3697 38.1961 75.8594 37.7065C75.3493 37.2187 74.7257 36.9741 73.989 36.9741C73.2506 36.9741 72.6271 37.2187 72.117 37.7065ZM71.3176 41.9838C70.5979 41.3063 70.2378 40.478 70.2378 39.4992C70.2378 38.5218 70.5979 37.6937 71.3176 37.0162C72.0374 36.3386 72.9279 36 73.989 36C75.0502 36 75.9389 36.3386 76.6588 37.0162C77.3784 37.6937 77.7382 38.5218 77.7382 39.4992C77.7382 40.478 77.3784 41.3063 76.6588 41.9838C75.9389 42.6612 75.0502 43 73.989 43C72.9279 43 72.0374 42.6612 71.3176 41.9838Z" fill="#FEFEFE"/>
<path d="M85.4351 42.9046V36.0958H88.4239C89.0813 36.0958 89.6253 36.2968 90.0579 36.6988C90.4904 37.1008 90.7068 37.5983 90.7068 38.1898C90.7068 38.4688 90.656 38.728 90.5579 38.9712C90.4584 39.2126 90.3401 39.4038 90.2015 39.5433C90.063 39.6825 89.9244 39.8042 89.7859 39.9078C89.6473 40.0131 89.5273 40.0845 89.4295 40.1217L89.2858 40.1835L90.9095 42.9046H89.6912L88.1721 40.279H86.5484V42.9046H85.4351ZM89.2536 38.9857C89.4768 38.7718 89.5883 38.506 89.5883 38.1866C89.5883 37.869 89.4768 37.6032 89.2536 37.3893C89.0306 37.1752 88.7535 37.0683 88.4239 37.0683H86.5484V39.3051H88.4239C88.7535 39.3051 89.0306 39.1979 89.2536 38.9857Z" fill="#FEFEFE"/>
<path d="M102.298 39.4055L105.035 36.0958H106V42.9046H104.887V37.9467L102.298 41.057L99.7145 37.9467V42.9046H98.6011V36.0958H99.5608L102.298 39.4055Z" fill="#FEFEFE"/>
</svg>
