<svg width="131" height="195" viewBox="0 0 131 195" fill="none" xmlns="http://www.w3.org/2000/svg">
<path d="M85.2892 194.733C100.486 194.733 112.806 188.336 112.806 180.446C112.806 172.555 100.486 166.158 85.2892 166.158C70.0921 166.158 57.7725 172.555 57.7725 180.446C57.7725 188.336 70.0921 194.733 85.2892 194.733Z" fill="#D7E9F9"/>
<path d="M44.808 174.096C60.005 174.096 72.3247 167.699 72.3247 159.808C72.3247 151.918 60.005 145.521 44.808 145.521C29.6109 145.521 17.2913 151.918 17.2913 159.808C17.2913 167.699 29.6109 174.096 44.808 174.096Z" fill="#D7E9F9"/>
<path fill-rule="evenodd" clip-rule="evenodd" d="M18.3315 40.7995C20.9533 40.2285 23.5172 41.3489 25.2118 42.6325C27.2069 44.1439 27.5895 45.2665 28.549 48.4631C28.4601 51.175 28.7335 50.2178 27.4028 52.0336C26.8347 52.8086 26.369 53.9842 25.5482 54.6137L24.8515 56.636C24.8951 56.6899 24.95 56.7119 24.9665 56.8089C24.9827 56.9055 25.0573 56.9436 25.0793 56.9824C27.6484 61.5082 28.6081 69.4092 26.9937 74.8744C26.1806 77.6267 25.1623 84.4333 26.2659 86.7322C27.513 88.5839 26.9151 88.5541 28.6808 90.3379C29.363 91.0272 28.9187 90.7273 29.6745 91.2586C31.2816 92.388 33.4005 93.1894 35.6047 93.4638L34.2468 93.8461L34.2497 105.337C34.2006 105.375 34.1386 105.452 34.1195 105.471L33.7763 105.795C34.9898 109.177 34.4365 118.72 34.4365 122.848C34.4365 124.224 34.9791 127.187 33.8891 127.999L34.2879 128.492C34.4766 128.868 34.359 128.31 34.4889 129.142L34.4863 153.218L34.474 153.611C37.9828 155.26 39.3297 155.434 43.7601 154.943L43.6641 154.884C43.5236 149.927 41.6528 143.18 40.8181 138.1C40.2688 134.756 40.1053 132.557 40.4801 129.11C40.7635 126.505 41.4547 123.028 41.4874 120.549C41.9427 117.502 42.3547 114.5 42.5276 111.367C42.6924 108.381 41.9159 103.869 42.2523 101.452C41.6396 100.444 41.1138 93.5029 41.0033 91.6971C39.4098 92.218 38.631 92.9063 36.6798 93.109C36.2245 90.3399 35.2095 88.2113 35.4357 85.141C35.5756 83.2405 36.9862 79.6739 38.0972 78.4608C38.2277 77.1006 39.3565 75.1652 38.9458 73.9062C36.2274 73.9208 34.2643 73.6555 31.6092 73.1081L31.6994 68.7461C34.4372 69.0512 36.1321 70.1008 39.3122 69.492C39.1529 67.459 38.9442 65.3172 38.431 63.3411C37.8374 61.0567 36.6895 60.5442 35.8762 59.1091C34.8482 58.3248 32.2989 55.4387 31.9751 53.7092C31.4461 50.8858 31.9298 48.7191 30.7054 45.9105C29.1026 42.2347 24.2863 39.5939 19.1523 39.0542C18.6612 39.726 18.5261 39.9164 18.3315 40.7995Z" fill="#000611"/>
<path fill-rule="evenodd" clip-rule="evenodd" d="M77.4282 170.455L76.7852 176.746C76.9917 178.181 79.6906 180.653 81.2243 181.42C83.1093 182.361 86.6665 183.305 88.7551 182.292L88.1834 178.837C87.1335 170.214 86.0613 168.274 87.7614 159.909C88.9855 153.886 88.0412 154.804 88.0047 152.182C86.9587 151.508 85.2339 145.426 84.9454 143.793C84.3318 140.316 85.0918 136.238 85.4056 132.741C85.7675 130.278 86.5189 123.04 85.9953 120.659C84.7657 120.197 81.568 120.112 79.4995 119.373C78.6241 119.061 74.5525 117.136 75.3006 116.906C74.399 116.215 73.0492 115.756 70.907 114.047C69.903 113.246 70.4171 113.445 69.6655 112.573C69.331 112.184 69.3875 112.239 68.9481 111.899C67.5966 114.743 68.2177 123.447 69.0133 127.16C69.8616 131.12 71.8225 136.315 73.3229 140.087C74.1198 142.091 74.876 144.086 75.4017 146.49C76.0283 149.354 77.1762 162.773 77.1581 166.075C77.15 167.506 76.9467 169.208 77.4282 170.455Z" fill="#000D24"/>
<path fill-rule="evenodd" clip-rule="evenodd" d="M49.7785 25.4048C50.2872 25.6985 49.8157 25.3547 50.2468 25.7926C53.2624 28.8564 50.5269 29.6184 51.1419 32.2466C51.5775 34.1086 52.7202 32.8373 53.3141 35.017C54.0412 37.6856 54.7305 54.2194 53.0789 56.9151L50.6278 52.804C48.9629 49.9072 49.4492 49.7282 47.339 47.3262L45.9469 45.9825C45.2767 45.4706 45.6027 45.6629 45.098 45.186L41.1823 42.4081C41.0576 40.5836 41.5653 40.434 40.2691 39.2083C38.1279 38.889 36.5254 39.8462 35.1552 38.4417C34.6828 37.9577 34.2627 37.3744 33.7498 36.8337C32.9914 36.0346 32.7774 36.2466 32.1082 35.4807C31.575 34.8712 31.3714 34.3448 30.8259 33.7444C29.0667 31.8081 28.0216 30.4612 28.3186 27.6336C25.8151 30.1092 19.9114 36.202 19.1523 39.0538C24.2863 39.5935 29.1026 42.2343 30.7054 45.9101C31.9298 48.7187 31.4461 50.8854 31.9751 53.7088C32.2989 55.4383 34.8482 58.3244 35.8762 59.1087C36.3344 58.0852 35.3255 53.7996 35.1594 52.0846C35.0266 50.7122 35.7986 50.9529 35.2948 50.5361C34.0374 50.792 34.1722 50.9494 33.1258 50.6104L32.696 49.067L34.8679 48.484C34.1017 48.0097 34.1172 48.3868 34.229 47.5731C34.4375 46.0514 34.2284 45.0505 33.8952 43.0176L33.2373 38.5125C33.0563 37.8239 32.8456 37.8814 32.5968 37.3618C33.3346 38.1706 34.7361 39.3543 35.8778 39.9124C38.5881 41.237 38.6989 39.5624 40.5241 40.4931C40.6908 41.6377 40.3063 41.8491 40.2268 43.238L41.2932 43.8361C44.8301 45.3882 45.9866 46.8382 47.4227 49.1549C47.9818 50.0562 48.4546 50.5186 48.9723 51.4367C52.1728 57.1135 53.0534 56.7713 53.6903 61.8293C54.6152 69.1726 54.2038 75.0534 50.5809 81.2388C49.7207 82.7079 48.4494 84.5156 47.5232 85.5953C46.8197 86.5288 47.1781 86.6145 46.2284 87.5523L41.0405 91.2821C40.844 91.0514 40.8007 90.9809 40.6915 90.5389L38.8957 77.6589C38.156 78.4785 38.6149 78.8168 38.0972 78.4604C36.9862 79.6735 35.5756 83.2401 35.4357 85.1406C35.2095 88.2109 36.2245 90.3395 36.6798 93.1086C38.631 92.9059 39.4098 92.2176 41.0033 91.6967C41.1138 93.5025 41.6396 100.444 42.2523 101.451L42.2455 99.7881C42.8592 101.132 41.924 100.597 43.1959 100.7C43.6325 100.735 44.1195 100.456 45.1248 100.456L45.2237 95.4789C45.0534 96.4632 44.9516 99.7038 45.7019 100.789C45.5895 98.1045 45.4079 91.4931 46.2284 88.8976C46.9125 86.7328 49.7824 87.327 52.5647 82.9418C53.4589 81.5329 54.989 78.9225 55.4373 77.3384L56.123 79.0605C56.9535 84.5828 56.5108 87.7594 55.7701 93.3635C56.1291 93.8218 56.0247 93.1393 56.0448 94.3365C56.0554 94.9606 55.8926 94.8743 55.8874 95.805H60.1928C60.2138 94.8012 60.5602 93.2427 60.6688 92.4064C60.8384 91.0982 60.7399 89.7051 60.7399 88.3737C60.7399 85.2892 60.4662 83.2647 60.4662 80.2568C56.0635 79.4667 57.224 78.6501 56.822 74.7412C56.6329 72.9021 56.2054 68.3105 56.4969 66.5851C54.5845 67.9492 54.5182 66.0843 54.5977 65.6806C54.8853 64.2213 56.3228 64.8605 56.3237 64.8601C55.8486 64.0251 55.9262 60.9174 56.0532 59.9789C54.8061 61.4383 53.5252 59.829 54.8604 58.3761L55.3426 57.913C54.8795 57.2829 54.9005 54.6876 54.9777 53.8148C55.1122 52.2963 55.1364 50.7865 55.1577 49.2483C55.202 46.0261 55.0026 42.8838 54.9254 39.671C54.7451 32.1832 53.4634 36.1409 53.4453 31.7505C53.4337 28.9675 53.5378 24.9491 52.8679 22.7976C54.2994 24.7459 55.1063 25.8637 55.8027 28.9821C56.8239 33.5521 57.8997 40.9814 57.806 45.6914C57.7394 49.0418 58.1446 51.3982 58.3886 54.4275C59.8829 53.2586 60.7053 54.3522 61.753 53.0305C61.8903 54.7309 62.2807 60.3344 62.5977 61.2751C65.2724 61.8173 64.6568 61.7217 65.6647 63.6703C66.6348 60.082 65.6999 56.8857 65.1328 52.7901C64.7134 49.7618 63.9633 45.2525 62.1078 42.9206L60.4587 42.9213L60.3479 43.9929C59.9746 41.6982 58.8242 39.7851 58.491 37.2926C57.7084 31.4364 56.7909 25.9784 53.222 21.208C52.4613 20.1914 52.4342 19.8479 51.1542 19.3369L49.7785 25.4048Z" fill="#002541"/>
<path fill-rule="evenodd" clip-rule="evenodd" d="M84.7217 98.1841C86.1187 101.621 87.5619 103.544 87.6155 107.804C87.6566 111.057 86.4312 115.24 85.7102 118.228C80.8552 118.559 79.4624 117.548 75.3005 116.906C74.5524 117.136 78.6241 119.061 79.4995 119.373C81.568 120.112 84.7656 120.197 85.9952 120.659C86.5188 123.04 85.7674 130.278 85.4055 132.741L85.8085 134.13C88.975 132.592 87.4323 134.203 88.224 130.809L88.2512 132.898C89.5703 130.643 88.2641 123.663 88.7999 120.653C89.1069 118.928 90.0285 119.419 91.8311 117.009C92.795 115.721 92.12 116.336 93.7105 115.587C94.6073 115.166 95.1059 114.599 95.7238 114.968C96.6822 116.649 95.6892 125.748 95.4927 128.319C95.2817 131.076 95.3961 139.756 96.7045 141.337L96.3494 140.099C97.2086 140.362 97.146 140.34 98.0773 140.103C98.4932 139.998 99.4129 139.76 99.865 139.585C99.8259 138.406 99.1098 136.208 98.8684 134.776C98.6754 133.632 99.0296 130.822 99.0548 129.14L99.3153 127.235L100.945 116.392C101.797 116.991 102.571 118.402 103.206 119.254C105.555 122.405 102.253 122.782 105.268 124.514C105.894 124.872 106.376 125.114 106.875 125.384C108.059 126.025 109.044 126.734 110.262 127.182C111.357 125.787 110.97 126.15 111.03 123.889L121.772 123.877L121.763 122.805L110.627 122.901C110.32 125.154 111.013 124.64 109.858 126.272L104.394 123.211L104.363 119.78C101.291 114.651 100.481 116.751 102.218 110.698C102.925 108.235 103.821 108.477 103.916 105.886C103.995 103.705 103.536 101.86 103.513 99.8651C103.114 96.7774 102.08 93.4848 102.043 90.2998C101.995 86.2404 102.415 83.3789 103.148 80.1509C103.085 80.2452 102.848 80.6049 102.686 80.8036C100.296 83.7366 99.1249 87.0657 99.2319 91.0702L98.6396 90.3987C98.6053 90.3531 98.5581 90.2766 98.532 90.2387C98.4948 90.1848 98.4977 90.0445 98.4489 89.9673L85.0891 96.2604C85.2588 97.2786 85.633 95.8739 85.1887 97.3681C85.1622 97.458 85.0978 97.5559 85.0691 97.6318L84.7217 98.1841Z" fill="#002541"/>
<path fill-rule="evenodd" clip-rule="evenodd" d="M72.2312 68.0691C73.3667 67.2816 77.2879 66.9478 78.4028 68.2831C79.2226 68.3144 78.9912 68.1974 79.8427 68.7164C80.5543 69.1501 80.5559 69.2793 80.9809 69.8985C81.9484 70.3693 84.7459 73.7712 85.4187 75.7573C86.3717 78.571 83.8628 80.5962 82.5469 82.8178C79.8282 87.4085 79.2743 89.7191 77.3987 93.2618C76.6442 94.6879 76.6099 94.8433 75.6867 95.6457L74.8636 96.4853C75.4944 96.8372 75.8899 97.0036 76.4962 97.6764L76.0221 100.679C71.138 98.0467 73.315 96.8676 69.7688 96.5961C69.7688 100.763 66.9431 108.149 68.948 111.899C69.3874 112.24 69.3309 112.185 69.6654 112.573C70.417 113.446 69.9029 113.247 70.9069 114.048C73.0491 115.757 74.3989 116.215 75.3005 116.906C79.4624 117.548 80.8552 118.559 85.7102 118.228C86.4312 115.241 87.6566 111.057 87.6155 107.804C87.5619 103.544 86.1187 101.621 84.7217 98.1844C84.4095 93.5358 83.3916 92.5825 85.3606 87.839C86.4968 85.1016 87.7209 80.7138 86.8652 77.6981C86.8018 72.9206 80.5411 65.9186 73.3257 66.4385C72.8513 66.7672 72.4189 67.44 72.2312 68.0691Z" fill="#000611"/>
<path fill-rule="evenodd" clip-rule="evenodd" d="M88.2512 132.899C88.5566 135.561 87.7167 138.146 88.2357 141.646C88.6047 144.133 89.5137 146.352 90.1028 148.767C91.3803 160.564 90.9023 153.359 90.0741 164.433C89.6417 170.208 90.4997 172.378 90.6267 177.015C90.6648 178.399 90.3119 179.619 90.3281 180.729C90.9359 181.838 91.1476 184.161 90.4467 185.339C89.2607 187.332 84.163 186.619 82.204 186.257L77.7212 185.488C75.2162 185.73 70.3462 185.23 68.3918 184.575C67.0643 184.378 66.6487 184.059 65.5813 183.413C64.5877 182.813 64.4613 182.56 63.7494 181.638C63.7494 183.455 63.8467 183.936 66.2949 185.146C70.0021 186.979 74.7052 186.859 79.3454 187.144C82.3556 187.329 79.3981 189.266 86.1836 189.354C90.6932 189.412 90.309 187.64 91.3854 187.147C94.891 185.54 94.1193 187.881 94.1193 179.704C93.4724 179.952 92.8664 180.308 91.9904 180.537C94.3827 170.407 95.9102 159.593 97.6817 149.195C97.8727 146.03 96.6431 143.954 96.7045 141.337C95.3961 139.756 95.2817 131.076 95.4927 128.319C95.6892 125.748 96.6822 116.649 95.7238 114.968C95.1059 114.599 94.6073 115.166 93.7105 115.588C92.12 116.336 92.795 115.721 91.8311 117.009C90.0285 119.42 89.1069 118.928 88.7999 120.653C88.2641 123.663 89.5703 130.643 88.2512 132.899Z" fill="#000611"/>
<path fill-rule="evenodd" clip-rule="evenodd" d="M45.7019 100.789C45.7443 104.248 46.5127 108.311 46.3576 111.632C46.2665 113.58 45.2796 120.544 44.4704 121.664C44.6039 123.781 43.975 126.9 43.9372 129.232C43.8555 134.311 43.8351 139.96 44.7163 144.966C45.1057 147.177 46.0306 149.759 46.2342 151.798L50.4281 151.201C49.4719 148.002 48.9768 137.137 48.7609 133.242C48.5512 129.452 48.6126 127.575 49.2175 123.835C49.6056 121.438 50.651 117.788 50.8184 115.651C51.6641 112.08 52.5554 108.407 53.4583 104.619C54.2109 101.46 55.5765 96.3298 55.7701 93.3635C56.5108 87.7594 56.9535 84.5828 56.123 79.0605L55.4373 77.3384C54.989 78.9225 53.4589 81.5329 52.5647 82.9418C49.7824 87.327 46.9125 86.7328 46.2284 88.8976C45.4079 91.4931 45.5895 98.1045 45.7019 100.789Z" fill="#000611"/>
<path fill-rule="evenodd" clip-rule="evenodd" d="M97.6763 50.6151C99.5192 50.1097 101.062 50.3566 101.694 52.0267C103.009 52.7037 102.693 54.4073 102.183 55.665C101.815 56.5737 101.584 56.6616 100.607 57.6518C100.568 57.6915 100.513 57.7503 100.471 57.7885L100.165 58.0312C94.9689 61.8744 78.1142 63.2966 76.3776 62.3814C76.3301 62.4296 76.2616 62.4415 76.2409 62.5314C76.2131 62.6529 76.0163 62.7763 75.9691 62.8277C74.9256 63.9652 73.9436 65.0206 73.3257 66.4383C80.5411 65.9184 86.8018 72.9204 86.8652 77.6979C88.9411 76.0754 102.622 70.2764 105.409 69.0633C106.157 68.7375 106.878 68.3258 107.582 67.9423C107.322 68.5495 107.588 68.5349 107.924 68.9466C108.395 64.9269 109.972 62.2386 108.623 55.772C108.389 54.6477 108.172 54.1969 107.72 53.148C106.387 50.0538 103.748 48.9632 100.412 49.106C99.8608 49.1079 99.577 49.1244 98.9556 49.4081C98.553 49.5923 98.542 49.6014 98.2718 49.8557C97.8055 50.2946 98.0679 49.9921 97.6763 50.6151Z" fill="#024A72"/>
<path fill-rule="evenodd" clip-rule="evenodd" d="M123.683 126.165L123.655 123.942L126.95 121.847L126.994 124.112C129.095 124.15 127.799 128.377 127.593 128.694C127.088 129.47 124.79 131.258 123.564 130.882C122.933 129.677 123.151 127.561 123.683 126.165ZM130.235 116.969V133.956C130.148 135.611 130.013 136.887 129.806 137.467C128.938 139.9 125.934 143.632 123.303 142.658L122.356 142C122.099 141.373 121.827 140.844 121.827 139.966L121.772 123.877L121.763 122.805L110.627 122.902C110.948 120.257 110.615 120.76 108.084 119.265C105.463 117.716 105.834 117.563 104.498 117.998L104.363 119.781C101.291 114.651 100.481 116.752 102.218 110.698C102.925 108.235 103.821 108.477 103.916 105.886C103.995 103.705 103.536 101.86 103.513 99.8652C104.114 100.378 105.066 101.023 105.952 101.233C105.869 102.842 105.53 103.42 106.003 105.084C105.063 106.018 104.383 105.908 104.486 107.8C105.325 109.272 107.252 110.105 109.129 111.116C110.009 111.589 110.777 111.917 111.731 112.344C113.873 113.302 112.868 113.127 114.727 112.482C113.545 110.701 113.216 110.403 115.519 109.59L115.423 109.94C112.229 112.066 119.155 114 119.271 110.471L118.444 109.99L118.312 108.62C120.67 109.77 124.677 112.465 127.041 113.729C128.765 114.651 130.067 114.701 130.235 116.969ZM122.805 120.532C123.642 117.554 123.606 118.042 124.838 116.91C125.587 116.222 125.364 116.064 126.279 115.571C130.21 113.455 129.45 119.535 129.449 120.112C129.442 123.401 129.703 135.098 129.135 136.784C128.256 139.395 126.124 142.426 123.07 141.727C123.421 141.351 123.136 141.601 123.582 141.357C127.426 139.248 128.265 137.173 128.257 132.425L128.257 121.479C128.259 120.868 128.307 120.112 128.292 119.53C128.249 117.951 128.472 118.501 127.774 118.177C127.708 117.692 126.253 118.823 125.668 119.141C124.457 119.8 124.058 120.204 122.805 120.532Z" fill="#D9443B"/>
<path fill-rule="evenodd" clip-rule="evenodd" d="M35.8762 59.1087C36.6895 60.5438 37.8374 61.0563 38.431 63.3407C38.9442 65.3168 39.1529 67.4586 39.3122 69.4916L43.129 68.7063L43.098 73.1212L38.9458 73.9058C39.3565 75.1648 38.2277 77.1002 38.0972 78.4604C38.6149 78.8168 38.156 78.4785 38.8957 77.6589L40.6915 90.5389C40.8007 90.9809 40.844 91.0514 41.0405 91.2821L46.2284 87.5523C47.1781 86.6145 46.8197 86.5288 47.5232 85.5953L41.731 45.2028C41.6451 44.2566 41.5924 44.7041 41.3446 44.157C41.044 43.4942 40.9736 44.4207 41.2932 43.8361L40.2268 43.238C40.3063 41.8491 40.6908 41.6377 40.5241 40.4931C38.6989 39.5624 38.5881 41.237 35.8778 39.9124C34.7361 39.3543 33.3346 38.1706 32.5968 37.3618C32.8456 37.8814 33.0563 37.8239 33.2373 38.5125L33.8952 43.0176C34.2284 45.0505 34.4375 46.0514 34.229 47.5731C34.1172 48.3868 34.1017 48.0097 34.8679 48.484L32.696 49.067L33.1258 50.6104C34.1722 50.9494 34.0374 50.792 35.2948 50.5361C35.7986 50.9529 35.0266 50.7122 35.1594 52.0846C35.3255 53.7996 36.3344 58.0852 35.8762 59.1087Z" fill="#003456"/>
<path fill-rule="evenodd" clip-rule="evenodd" d="M0 114.421C1.1463 117.132 1.8847 117.41 5.4759 119.298C7.8068 120.524 10.0549 121.904 12.3005 123.142C15.8643 125.106 23.0906 129.504 26.0119 130.836C26.0061 127.57 25.5986 117.125 26.1609 114.692C26.1509 112.732 26.3961 114.278 25.7188 113.547H14.7759C14.7759 115.023 15.1291 116.065 14.2611 116.815C13.586 116.926 9.864 114.572 8.8024 113.992C8.4489 111.238 9.3766 110.917 7.81 108.772L5.3434 105.235C4.499 103.924 3.8187 103.067 2.8745 101.684C2.0715 100.508 1.3877 98.7053 0 98.293V114.421Z" fill="#7C3412"/>
<path fill-rule="evenodd" clip-rule="evenodd" d="M86.8652 77.698C87.7209 80.7137 86.4968 85.1015 85.3606 87.8389C83.3916 92.5824 84.4095 93.5357 84.7217 98.1843L85.0691 97.632C85.0978 97.5561 85.1622 97.4582 85.1887 97.3683C85.633 95.8741 85.2588 97.2788 85.0891 96.2606L98.4489 89.9675C98.4977 90.0447 98.4948 90.185 98.532 90.2389C98.5581 90.2768 98.6053 90.3533 98.6396 90.3989L99.2319 91.0704C99.1249 87.0659 100.296 83.7368 102.686 80.8038C102.848 80.6051 103.086 80.2454 103.148 80.1511L106.138 73.0521L107.924 68.9467C107.588 68.535 107.322 68.5496 107.583 67.9424C106.878 68.3259 106.157 68.7376 105.409 69.0634C102.622 70.2765 88.9411 76.0755 86.8652 77.698Z" fill="#003456"/>
<path fill-rule="evenodd" clip-rule="evenodd" d="M0 98.2927C1.3877 98.705 2.0715 100.508 2.8745 101.684C3.8187 103.067 4.499 103.924 5.3434 105.235L7.81 108.772C9.3766 110.917 8.4489 111.238 8.8024 113.992L8.6515 108.626C10.1474 108.288 11.671 109.562 12.8454 110.257C14.2954 111.115 15.7075 111.092 14.7759 113.546H25.7188C26.3961 114.277 26.1509 112.732 26.1609 114.691L26.7206 114.334L26.7494 113.241L25.9932 113.58C26.1451 111.373 26.4753 110.371 27.4745 108.727C28.5545 106.95 28.9507 106.523 30.9335 105.559C30.7264 104.908 30.4549 104.857 29.46 104.304L24.3942 101.351C23.6183 100.977 25.4399 101.665 23.574 101.008C23.4374 102.775 21.3491 103.449 19.5857 102.764L18.337 103.746C16.5426 104.551 10.2372 100.082 8.7843 98.8514C8.8001 97.6729 8.8483 96.845 10.0104 96.3913L10.5061 97.299C11.8966 97.9317 13.5728 98.3773 14.9782 97.3562C14.9349 96.578 15.6371 97.2941 14.2582 96.567C13.9018 96.3793 14.0078 96.6362 13.4067 96.1864C13.2319 96.5638 13.3511 96.5031 13.2041 96.8262C12.8951 97.5039 13.3795 96.8566 12.8596 97.3862C11.6487 96.9009 11.7499 96.3828 11.4662 95.001C11.2493 93.9453 10.6596 93.2644 10.4272 92.2042C7.4607 90.7312 6.6321 89.0502 3.3883 91.4881C1.842 92.6501 0 95.7 0 98.2927Z" fill="#AA4A11"/>
<path fill-rule="evenodd" clip-rule="evenodd" d="M47.5232 85.5956C48.4494 84.5159 49.7207 82.7082 50.5809 81.2391C54.2038 75.0537 54.6152 69.1729 53.6903 61.8296C53.0534 56.7716 52.1728 57.1138 48.9723 51.437C48.4546 50.5189 47.9818 50.0565 47.4227 49.1552C45.9866 46.8385 44.8301 45.3885 41.2932 43.8364C40.9736 44.421 41.044 43.4945 41.3446 44.1573C41.5924 44.7044 41.6451 44.2569 41.731 45.2031L47.5232 85.5956Z" fill="#024A72"/>
<path fill-rule="evenodd" clip-rule="evenodd" d="M99.3153 127.235C102.964 129.623 106.88 131.351 110.455 133.623C112.27 134.777 114.242 135.777 116.046 136.784C117.85 137.79 120.053 139.273 121.827 139.966L121.772 123.877L111.03 123.889C110.97 126.15 111.357 125.787 110.262 127.182C109.044 126.734 108.06 126.025 106.875 125.384C106.376 125.114 105.894 124.872 105.268 124.513C102.253 122.782 105.555 122.405 103.206 119.254C102.571 118.402 101.797 116.991 100.945 116.392L99.3153 127.235Z" fill="#760020"/>
<path fill-rule="evenodd" clip-rule="evenodd" d="M28.3186 27.634C28.0216 30.4616 29.0667 31.8085 30.8259 33.7448C31.3714 34.3452 31.575 34.8716 32.1082 35.4811C32.7774 36.247 32.9914 36.035 33.7498 36.8341C34.2627 37.3748 34.6828 37.9581 35.1552 38.4421C36.5254 39.8466 38.1279 38.8894 40.2691 39.2087C41.5653 40.4344 41.0576 40.584 41.1823 42.4085L45.098 45.1864C45.6027 45.6633 45.2767 45.471 45.9469 45.9829L47.339 47.3266C49.4492 49.7286 48.9629 49.9076 50.6278 52.8044L53.0789 56.9155C54.7305 54.2198 54.0412 37.686 53.3141 35.0174C52.7202 32.8377 51.5775 34.109 51.1419 32.247C50.5269 29.6188 53.2624 28.8568 50.2468 25.793C49.8157 25.3551 50.2872 25.6989 49.7785 25.4052C48.9034 26.7986 48.5796 26.776 46.9157 27.3916C48.1938 31.6443 50.7027 35.9212 51.2153 40.7879C52.3366 45.4197 52.7871 50.6667 52.8317 55.5819C52.2203 54.4418 51.4964 48.0692 47.6742 43.6956C46.9387 42.8542 47.1206 43.5211 46.8107 42.4366C45.182 41.411 44.6727 40.3497 43.1959 39.166C42.43 38.552 41.976 38.2512 41.2922 37.5073C40.6045 36.7595 40.1573 36.5656 39.6273 35.8682L32.8699 29.7833C32.1395 28.9072 30.4889 27.4107 31.1258 25.6786C31.5695 24.4722 33.3359 22.9379 34.3981 22.45L34.6798 21.1108C34.4323 19.8011 34.7303 20.7974 34.2003 20.375C33.4221 21.0323 33.2095 21.0888 32.486 21.8169C31.8981 22.4083 31.3908 22.8552 30.8502 23.463C29.9185 24.5117 28.7771 26.0667 28.3186 27.634Z" fill="#00729E"/>
<path fill-rule="evenodd" clip-rule="evenodd" d="M60.4662 80.2571C60.7683 80.2855 60.6348 80.3708 60.9651 80.25C61.4159 80.0848 61.2986 80.1 61.4977 79.8922C60.8527 78.5133 60.3944 79.3382 59.825 76.9385C59.2262 73.1516 60.3689 73.4411 60.3534 70.5896L60.1928 69.2217C59.8732 69.0278 59.7959 69.4793 60.0671 68.6746L59.1632 62.0373C60.0974 61.338 61.1066 61.2053 62.5977 61.2754C62.2807 60.3347 61.8903 54.7312 61.753 53.0308C60.7053 54.3525 59.8829 53.2588 58.3886 54.4277C58.1446 51.3984 57.7394 49.0421 57.806 45.6917C57.8997 40.9817 56.8239 33.5524 55.8027 28.9824C55.1063 25.864 54.2994 24.7462 52.8679 22.7979C53.5378 24.9494 53.4337 28.9678 53.4453 31.7508C53.4634 36.1412 54.7451 32.1835 54.9254 39.6713C55.0026 42.8841 55.202 46.0264 55.1577 49.2485C55.1364 50.7867 55.1122 52.2966 54.9777 53.8151C54.9005 54.6879 54.8795 57.2832 55.3426 57.9133L54.8604 58.3764C53.5252 59.8293 54.8061 61.4386 56.0532 59.9792C55.9262 60.9177 55.8486 64.0254 56.3237 64.8604C56.3227 64.8608 54.8853 64.2216 54.5977 65.6809C54.5182 66.0846 54.5845 67.9495 56.4969 66.5854C56.2054 68.3108 56.6329 72.9023 56.822 74.7414C57.224 78.6503 56.0635 79.467 60.4662 80.2571Z" fill="#024A72"/>
<path fill-rule="evenodd" clip-rule="evenodd" d="M9.30261 65.9027L13.6804 68.0831L14.0242 66.9795C14.0885 69.1407 13.9654 71.3879 14.4556 73.3155C14.5539 71.459 14.3939 72.8069 14.9349 72.285C15.1663 73.4154 15.185 72.8509 16.9022 73.0283C17.6519 73.1055 18.5464 73.2096 19.6994 73.2096C19.6994 71.292 19.6949 69.5605 19.8917 68.0459C20.2268 65.4697 19.9341 65.5405 21.0486 63.7305C22.4029 61.5314 23.8264 59.0283 24.8515 56.6357L25.5482 54.6134C25.4787 54.6725 25.4845 54.6887 25.2774 54.7213L24.9817 54.7478C24.857 54.752 24.2785 54.721 24.0869 54.7165C20.252 54.6283 19.1966 53.7238 18.8773 55.2665C18.0074 54.7078 17.9754 56.0999 18.2466 54.307L17.0696 56.6279C16.2343 55.9018 13.3269 54.5071 12.0388 54.1904C11.8669 54.3788 11.9001 54.3167 11.6901 54.6489C9.10651 58.7352 8.19581 61.4478 9.30261 65.9027Z" fill="#003456"/>
<path fill-rule="evenodd" clip-rule="evenodd" d="M49.8677 157.406C49.3885 158.098 49.2864 158.587 47.9727 158.361C47.2725 158.241 46.7034 157.78 46.3689 157.474C45.5171 156.694 44.5703 155.79 43.8461 154.806L43.6641 154.884L43.7601 154.943C43.8781 157.428 42.9758 159.8 42.1508 161.907C41.0262 161.807 40.1321 161.372 39.4806 160.837C39.8868 162.557 39.806 161.301 41.0233 163.09C43.1141 166.163 41.9679 164.964 44.8437 166.119C47.2676 167.093 51.3187 168.141 52.7254 165.429L48.63 161.692C50.7286 161.465 51.2062 161.057 51.6108 159.232L53.7772 160.936C54.0241 161.104 54.1123 161.059 54.5211 161.271C54.8637 161.448 55.0029 161.559 55.4408 161.752C57.8622 162.814 57.8176 162.454 59.5122 161.026C61.3367 159.488 61.4508 157.97 64.5702 158.195C64.3217 157.176 64.6142 158.023 64.1113 157.232C63.9837 157.031 63.5636 156.477 63.4007 156.302C62.936 155.803 62.9974 155.945 62.5007 155.561C61.2324 154.581 59.5659 152.921 57.5045 152.397C57.8338 153.173 58.1559 153.816 58.1941 154.869C54.8139 155.282 52.7632 152.588 50.8162 151.62C51.4993 153.286 51.6758 155.939 51.4909 157.792C50.8314 157.925 50.4394 157.634 49.8677 157.406Z" fill="#7C3412"/>
<path fill-rule="evenodd" clip-rule="evenodd" d="M78.6319 75.3138C78.1307 78.5993 78.9502 78.2257 77.0749 81.1664C75.9849 82.8756 75.3099 83.9245 74.9428 86.4448C74.3753 90.3414 72.5582 94.8856 68.1452 93.9739C66.7188 93.6715 66.0619 93.1512 65.391 92.354C65.5613 93.9281 68.2787 96.2124 69.7688 96.596C73.315 96.8675 71.138 98.0466 76.0221 100.679L76.4962 97.6763C75.8899 97.0035 75.4944 96.8371 74.8636 96.4852L75.6867 95.6456C76.6099 94.8432 76.6442 94.6878 77.3987 93.2617C79.2743 89.719 79.8282 87.4084 82.5469 82.8177C83.8628 80.5961 86.3717 78.5709 85.4187 75.7572C84.7459 73.7711 81.9484 70.3692 80.9809 69.8984C81.0103 69.9385 81.7723 70.788 82.0899 71.0899C81.7888 72.0968 81.3011 72.949 80.7863 73.9103C80.2787 74.8585 79.7164 75.6534 79.474 76.7383C79.3596 76.6332 78.4687 76.153 78.7291 74.8898L78.6319 75.3138Z" fill="#024A72"/>
<path fill-rule="evenodd" clip-rule="evenodd" d="M38.4497 14.831C38.9015 15.5154 38.4152 17.2672 37.2114 18.0402C37.1801 18.3692 37.8797 18.2335 36.8295 18.481C35.7582 18.7337 35.7194 16.0754 33.3123 16.1582L32.9465 17.5109C32.7962 19.1441 33.8073 19.2873 34.2003 20.375C34.7303 20.7974 34.4323 19.8011 34.6798 21.1108C35.449 21.3348 35.7685 21.411 36.3321 21.6188C38.3228 22.3524 37.0117 22.6548 38.6039 23.7665C40.8792 25.3554 43.9821 26.2043 45.4156 27.1909L46.9157 27.3916C48.5796 26.776 48.9034 26.7986 49.7785 25.4052L51.1542 19.3373L51.4373 18.6061C51.4373 17.2314 51.711 16.555 51.711 14.8403C43.9611 17.7164 43.3775 13.7093 37.8913 13.6069L38.4497 14.831Z" fill="#FFD6C4"/>
<path fill-rule="evenodd" clip-rule="evenodd" d="M81.3903 27.9076C81.9526 28.7054 82.4377 29.523 82.5604 30.6967C82.9867 30.2475 82.9741 31.428 83.0087 29.6675C83.8605 30.8641 98.0304 40.485 100.314 42.2388L100.932 42.8075C101.815 43.5391 100.092 42.5613 101.176 42.9814L101.78 42.8292C102.065 42.5118 101.84 43.1213 102.006 42.3228C102.055 42.0866 102.086 41.5824 102.077 41.3407C101.938 37.2645 98.2922 31.6823 95.1608 29.6022C94.1503 28.931 93.663 28.2026 92.9204 27.7386C92.3051 27.3543 92.2828 27.4432 91.4918 27.2519C90.2538 26.9523 90.8031 27.2286 89.9238 26.6311C88.8994 25.9351 88.669 25.4885 87.5528 24.8981L85.9623 26.3193C85.2911 25.3398 84.6193 24.4709 83.1754 24.3506C82.7501 26.1758 82.628 24.5571 82.628 27.9076H81.3903Z" fill="#FFA305"/>
<path fill-rule="evenodd" clip-rule="evenodd" d="M71.3771 70.8633L70.3643 77.8661C70.331 77.8774 70.1323 77.9268 70.0425 77.9407L68.5695 77.9818L70.3682 78.4461C70.344 80.7622 70.8772 84.787 69.2217 86.0871C68.0687 85.8386 68.1359 85.6353 67.3933 83.2931C67.03 82.1465 66.6917 80.6465 66.4917 79.6172C65.8557 79.6783 66.1814 79.6234 65.6172 80.3686C65.1987 80.9211 65.127 80.9939 64.8236 81.5132C64.29 82.4267 64.1947 83.5358 63.7494 84.2344C63.7494 86.4471 64.3566 86.5605 64.5366 88.1339C64.7728 90.2005 64.5295 90.6678 65.391 92.354C66.0619 93.1512 66.7188 93.6715 68.1452 93.9739C68.1931 93.9151 68.2819 93.7655 68.3075 93.8146C68.3378 93.8734 68.416 93.7274 68.6141 93.4999C69.3086 92.7023 77.3212 75.0117 77.3968 74.3537C77.4734 73.69 77.3599 73.9149 77.3748 73.4444L77.4026 73.0879C77.4075 73.0543 77.4404 72.9654 77.4456 72.9393C77.4504 72.9144 77.4685 72.8397 77.4989 72.8003C77.0791 72.0761 76.9114 71.8115 76.5143 71.1328C75.4246 70.5198 74.3595 69.6635 72.7783 69.5879C72.5382 69.9944 72.4832 70.5971 72.2629 71.1422C71.9549 71.9036 71.8101 71.7543 71.7248 72.8194C71.6831 72.7573 71.6453 72.6685 71.6272 72.6181L71.3771 70.8633Z" fill="#000D24"/>
<path fill-rule="evenodd" clip-rule="evenodd" d="M81.5338 34.2265C82.5081 35.6862 80.8994 34.9798 83.9952 38.3041L83.3473 39.0292C81.6243 40.9937 83.4514 42.9985 83.6004 45.2506C84.9689 44.3907 83.6172 44.6389 84.8051 43.8588C85.3438 44.4133 85.9235 45.0767 86.1423 46.2805C87.3434 47.3679 87.1308 48.7587 89.0704 49.2709C90.8277 49.735 93.5011 48.7839 94.9198 49.6141L97.1288 48.7571C99.1217 48.1758 101.609 45.2835 101.78 42.8289L101.176 42.9811C99.4313 43.9589 96.044 43.4597 94.1112 42.9581C91.0684 42.1687 88.6435 40.4934 86.6257 38.411C86.0418 37.8084 85.3027 37.1236 84.7728 36.4395C83.3157 34.5587 83.0568 33.5256 82.5604 30.6964C82.4377 29.5227 81.9526 28.7051 81.3903 27.9073C81.2391 27.6581 81.8282 27.4345 80.9864 27.9073C80.9864 29.4949 80.9363 29.6223 81.295 30.8822C81.6178 32.0168 81.5338 32.7433 81.5338 34.2265Z" fill="#AA4A11"/>
<path fill-rule="evenodd" clip-rule="evenodd" d="M100.412 49.1058C103.748 48.963 106.388 50.0536 107.721 53.1478C108.172 54.1967 108.389 54.6475 108.623 55.7718C109.972 62.2384 108.395 64.9267 107.924 68.9464L106.138 73.0518L108.396 77.1064C109.486 78.8937 109.988 79.3464 109.988 82.2047C111.077 81.6412 110.27 82.102 110.942 81.372L116.45 76.029C117.047 75.4916 116.809 76.3793 117.014 75.2644C116.767 74.2791 114.539 71.7006 113.278 69.2421C109.515 61.8985 111.021 56.9804 109.352 53.7285C107.885 50.8702 106.771 50.4653 104.575 48.7012C103.82 48.4194 103.744 48.3755 102.614 48.4065C101.969 48.4243 101.944 48.3923 101.38 48.5677C100.275 48.9122 100.955 48.5968 100.412 49.1058Z" fill="#000D24"/>
<path fill-rule="evenodd" clip-rule="evenodd" d="M109.988 82.205C109.988 84.2306 110.057 86.373 109.997 88.3827C109.955 89.7796 109.649 89.9525 109.699 91.3776C109.736 92.4427 110.04 93.1983 110.262 94.0737C110.911 94.7666 111.591 95.3732 113.041 95.7312C114.429 96.0735 116.102 96.1901 117.159 95.4608L115.735 95.1902C115.733 91.9793 115.565 88.985 116.155 86.2269C116.928 82.6115 118.12 83.0471 118.278 78.4043C118.242 77.6485 118.212 77.3732 117.956 76.6609C117.65 75.8097 117.628 75.7406 117.014 75.2646C116.809 76.3795 117.047 75.4918 116.449 76.0292L110.942 81.3722C110.269 82.1022 111.077 81.6415 109.988 82.205Z" fill="#002541"/>
<path fill-rule="evenodd" clip-rule="evenodd" d="M18.3315 40.7994C17.1701 42.8398 16.3542 45.2884 15.2312 47.5165C14.6175 48.7338 14.1528 49.5857 13.6439 50.854C13.1333 52.1263 12.3406 52.8553 12.0388 54.1906C13.3269 54.5073 16.2343 55.902 17.0696 56.6281L18.2466 54.3072C18.7235 53.2172 19.0295 52.2035 19.5705 51.0531C20.2682 49.5692 20.8483 49.0996 21.744 48.2737C25.3049 44.9891 27.6054 48.0219 28.549 48.463C27.5895 45.2664 27.2069 44.1438 25.2118 42.6324C23.5172 41.3488 20.9533 40.2284 18.3315 40.7994Z" fill="#024A72"/>
<path fill-rule="evenodd" clip-rule="evenodd" d="M31.2577 114.854L32.2184 115.049C32.5157 116.5 32.5955 119.047 31.6849 120.056C31.131 120.669 29.0205 121.832 27.9075 121.803C27.0344 120.392 27.4225 117.783 28.125 116.652L28.157 114.621C28.6518 114.225 30.5632 113.078 31.1439 112.8L31.2577 114.854ZM27.2402 110.537C27.0828 110.841 27.2173 110.271 26.9746 111.261C26.7487 112.181 26.962 111.17 26.8738 111.975C26.8175 112.491 26.8673 112.623 26.7494 113.241L26.7206 114.334C27.3168 117.691 26.4844 127.332 26.6867 131.123C27.7611 130.871 32.5823 127.976 33.7307 127.286C34.1479 123.145 34.0823 109.75 33.3313 106.199L32.3053 106.047L32.6243 108.347L29.8933 109.822C26.3645 111.84 27.7463 111.319 27.2402 110.537Z" fill="#D06E30"/>
<path fill-rule="evenodd" clip-rule="evenodd" d="M117.014 75.2644C117.628 75.7404 117.65 75.8095 117.956 76.6607C118.212 77.373 118.242 77.6483 118.278 78.4041C118.712 76.9745 118.225 78.2322 118.873 77.574C119.54 78.2471 120.389 78.4781 121.206 78.937C121.206 75.106 119.883 72.8488 118.561 70.2251C116.501 66.1389 114.645 62.0681 113.607 57.6681C112.569 53.2687 109.484 49.0082 104.575 48.7012C106.771 50.4653 107.885 50.8702 109.352 53.7285C111.021 56.9804 109.515 61.8985 113.278 69.2421C114.539 71.7006 116.767 74.2791 117.014 75.2644Z" fill="#024A72"/>
<path fill-rule="evenodd" clip-rule="evenodd" d="M50.4281 151.201L50.6591 151.041C51.8648 150.596 52.2102 150.302 52.8055 149.462C52.4937 147.949 52.1657 147.727 51.9572 145.857L52.3641 123.5C52.7758 120.757 53.425 118.286 54.4471 116.258C53.2511 116.53 52.9655 116.532 51.4373 116.532C51.0828 115.562 51.2582 116.103 50.8184 115.651C50.651 117.788 49.6056 121.438 49.2175 123.835C48.6126 127.575 48.5512 129.452 48.7609 133.242C48.9768 137.137 49.4719 148.002 50.4281 151.201Z" fill="#024A72"/>
<path fill-rule="evenodd" clip-rule="evenodd" d="M41.4873 120.549C41.4546 123.027 40.7634 126.505 40.48 129.11C40.1052 132.556 40.2687 134.756 40.818 138.1C41.6527 143.18 43.5235 149.926 43.664 154.884L43.846 154.805L45.6569 153.919C46.1345 153.22 46.4819 153.06 46.2341 151.798C46.0305 149.76 45.1056 147.178 44.7162 144.966C43.835 139.96 43.8554 134.311 43.9371 129.232C43.9749 126.9 44.6038 123.781 44.4703 121.664L43.7765 122.824H41.8903C41.9045 122.482 41.9788 121.771 41.9242 121.481C41.7646 120.635 41.9413 121.053 41.4873 120.549Z" fill="#024A72"/>
<path fill-rule="evenodd" clip-rule="evenodd" d="M55.815 164.095C54.4271 164.428 53.7378 165.031 52.7254 165.429C51.3187 168.14 47.2676 167.093 44.8437 166.119C41.9679 164.964 43.1141 166.163 41.0233 163.09C39.806 161.301 39.8868 162.557 39.4806 160.836C40.1321 161.372 41.0262 161.807 42.1508 161.906C42.9758 159.8 43.8781 157.428 43.7601 154.942C39.3297 155.434 37.9828 155.259 34.474 153.61C34.474 163.297 36.3467 157.744 40.5477 164.107C41.4958 165.544 41.6932 165.957 43.1057 167.022C45.2453 168.635 47.838 169.618 51.4318 169.647C53.5536 169.664 54.6636 169.598 55.6373 168.362C56.3201 167.495 56.451 165.158 55.815 164.095Z" fill="#3C1301"/>
<path fill-rule="evenodd" clip-rule="evenodd" d="M97.6818 149.196C95.9103 159.593 94.3828 170.407 91.9905 180.537C92.8665 180.308 93.4725 179.952 94.1194 179.704C95.4333 177.506 97.4191 167.268 98.0648 164.003C98.6688 160.95 99.1583 158.824 99.9604 156.049C100.731 153.382 101.507 151.043 101.507 147.729C100.82 148.044 99.3448 148.34 98.4972 148.543C98.2826 148.041 98.428 148.197 98.2845 147.74L98.1385 147.317C98.121 147.268 98.0641 147.22 98.0509 147.109C98.0376 146.998 98.0008 146.965 97.9588 146.902L97.8816 148.766C97.866 148.825 97.7998 149.022 97.7869 148.984C97.7743 148.946 97.7251 149.13 97.6818 149.196Z" fill="#024A72"/>
<path fill-rule="evenodd" clip-rule="evenodd" d="M30.6437 5.72185C39.4981 13.548 38.5396 8.65385 42.6782 8.58145C47.4515 8.49775 45.3675 12.0282 48.9994 8.51945C50.2623 7.29955 50.0988 7.93485 51.8302 7.86765L52.1757 6.29295C52.2325 4.98805 51.5368 4.86195 50.6165 4.38045L31.7379 4.35205C30.8586 4.99445 31.1452 4.82325 30.6437 5.72185Z" fill="#AA4A11"/>
<path fill-rule="evenodd" clip-rule="evenodd" d="M50.8184 115.652C51.2582 116.103 51.0828 115.562 51.4373 116.532C52.9655 116.532 53.2511 116.53 54.4471 116.258C55.1438 115.007 55.6812 112.918 56.09 111.358C56.5596 109.568 57.0062 108.033 57.5161 106.218C58.4487 102.896 59.2963 99.3557 60.1928 95.8053H55.8874C55.8926 94.8746 56.0554 94.9609 56.0448 94.3368C56.0247 93.1396 56.1291 93.8221 55.7701 93.3638C55.5765 96.3301 54.2109 101.46 53.4583 104.619C52.5554 108.407 51.6641 112.081 50.8184 115.652Z" fill="#003456"/>
<path fill-rule="evenodd" clip-rule="evenodd" d="M29.0709 103.148C29.7443 103.999 31.3827 104.615 32.3034 105.259L33.7763 105.794L34.1195 105.471C34.1386 105.452 34.2006 105.375 34.2497 105.337L34.2468 93.8458L35.6047 93.4635C33.4005 93.1891 31.2816 92.3877 29.6745 91.2583C28.9187 90.727 29.363 91.0269 28.6808 90.3376C26.9151 88.5538 27.513 88.5836 26.2659 86.7319C26.2659 89.8258 26.8427 92.612 27.3827 95.1914C27.6409 96.4239 27.936 97.6629 28.2388 98.9865C28.5241 100.234 28.6194 101.87 29.0709 103.148Z" fill="#002541"/>
<path fill-rule="evenodd" clip-rule="evenodd" d="M82.5604 30.6967C83.0568 33.5259 83.3157 34.559 84.7728 36.4398C85.3027 37.1239 86.0418 37.8087 86.6257 38.4113C88.6435 40.4937 91.0684 42.169 94.1112 42.9584C96.044 43.46 99.4313 43.9592 101.176 42.9814C100.092 42.5613 101.815 43.5391 100.932 42.8075L100.315 42.2388C98.0304 40.485 83.8605 30.8641 83.0087 29.6675C82.9741 31.428 82.9867 30.2475 82.5604 30.6967Z" fill="#FC9027"/>
<path fill-rule="evenodd" clip-rule="evenodd" d="M10.3972 91.3371C11.2141 92.0532 11.6271 92.4814 12.4666 93.16C13.1204 93.6881 13.9341 94.1444 14.9876 94.0736C19.4484 93.7753 17.5078 93.6196 19.1523 96.5499C19.5162 96.2258 19.6368 96.3353 19.7179 95.1823L19.9715 93.2987L19.9735 92.2042C20.233 92.578 19.9366 91.9686 20.2701 92.7296C20.4304 93.0954 20.4081 93.0673 20.5661 93.5721L21.0114 95.0149L22.1619 95.3714C23.5159 94.5874 23.6099 90.4853 21.2761 87.8917C21.005 87.5905 20.7416 87.2867 20.4989 87.0347C20.4595 86.9936 20.4046 86.9358 20.3642 86.8954C20.3231 86.8547 20.2663 86.7991 20.2236 86.759L19.4261 86.0859C17.5983 87.3142 13.4532 87.2441 12.0388 85.6206C12.0016 85.681 11.9677 85.7127 11.9564 85.8167L11.6403 86.8822C11.5036 87.4525 11.3702 88.0678 11.2765 88.4326C11.081 89.1933 10.6667 90.8295 10.3972 91.3371Z" fill="#FFD6C4"/>
<path fill-rule="evenodd" clip-rule="evenodd" d="M28.9307 131.056C29.3618 135.311 30.2731 138.878 31.1909 142.547C31.6468 144.37 32.0782 146.279 32.5019 148.076C32.9155 149.833 33.2768 152.357 34.4864 153.218L34.489 129.142C34.3591 128.309 34.4767 128.868 34.288 128.492L33.8892 127.999C32.8819 128.489 32.2314 128.931 31.261 129.475C30.7792 129.746 30.5006 129.881 30.0236 130.155C29.1518 130.655 29.4433 130.329 28.9307 131.056Z" fill="#002541"/>
<path fill-rule="evenodd" clip-rule="evenodd" d="M74.543 179.122L73.1525 182.22C73.2068 182.275 73.2827 182.341 73.3238 182.377L73.8295 182.81C77.2859 185.556 79.03 185.189 77.7212 185.488L82.204 186.257C84.163 186.618 89.2607 187.332 90.4467 185.339C91.1476 184.161 90.9359 181.838 90.3281 180.729C90.2828 180.788 90.226 180.867 90.1949 180.907L88.755 182.292C86.6664 183.305 83.1092 182.361 81.2242 181.42C79.6905 180.653 76.9916 178.181 76.7851 176.746C75.5015 177.653 75.0908 178.662 74.543 179.122Z" fill="#3C1301"/>
<path fill-rule="evenodd" clip-rule="evenodd" d="M88.0047 152.182C88.0412 154.804 88.9855 153.886 87.7614 159.909C86.0613 168.274 87.1335 170.214 88.1834 178.837L88.7551 182.292L90.1949 180.907C90.226 180.867 90.2828 180.788 90.3281 180.729C90.3119 179.619 90.6649 178.399 90.6268 177.015C90.4998 172.379 89.6418 170.208 90.0742 164.433C90.9024 153.359 91.3803 160.564 90.1028 148.767C89.5247 149.353 89.9529 151.484 90.161 152.1C89.61 152.26 89.1218 152.413 88.5356 152.7L88.2009 151.743C87.9126 152.111 87.6748 151.28 88.0047 152.182Z" fill="#024A72"/>
<path fill-rule="evenodd" clip-rule="evenodd" d="M39.6273 35.8679L42.9503 36.9518C43.446 35.9468 43.2221 35.4362 43.9414 34.4751C43.9379 33.9823 44.0342 33.6236 44.2245 33.0352C44.2891 32.8351 44.4471 32.4186 44.5399 32.2315C44.9493 31.4062 44.59 32.0722 44.8621 31.74L46.8659 33.2582L46.8915 34.7611C47.8865 35.2488 48.7683 36.3339 49.4127 37.3312C50.0681 38.3446 50.5098 39.8246 51.2153 40.7876C50.7027 35.9209 48.1938 31.644 46.9157 27.3913L45.4156 27.1906C45.6128 28.3634 45.596 28.3462 45.4379 29.5348L45.1503 30.9075C45.1309 30.9621 45.0831 31.0565 45.0663 31.0995L44.8695 31.463C42.8052 31.8434 39.5494 30.8681 37.4848 29.8741C36.3354 29.3205 35.5879 28.8015 34.7526 28.2053C34.3018 27.8835 33.9783 27.6094 33.4819 27.2785C30.4178 25.2346 33.638 24.6374 34.3981 22.4497C33.3359 22.9376 31.5695 24.4719 31.1258 25.6783C30.4889 27.4104 32.1395 28.9069 32.8699 29.783L39.6273 35.8679Z" fill="#E7F2FE"/>
<path fill-rule="evenodd" clip-rule="evenodd" d="M42.2523 101.452C41.9159 103.868 42.6924 108.381 42.5276 111.367C42.3547 114.499 41.9427 117.502 41.4874 120.549C41.9414 121.053 41.7647 120.635 41.9243 121.481C41.9789 121.771 41.9046 122.482 41.8904 122.824H43.7766L44.4704 121.664C45.2796 120.544 46.2665 113.58 46.3576 111.632C46.5127 108.311 45.7443 104.248 45.7019 100.789C44.9516 99.7039 45.0534 96.4633 45.2237 95.479L45.1248 100.457C44.1195 100.457 43.6325 100.735 43.1959 100.7C41.924 100.597 42.8592 101.132 42.2455 99.7882L42.2523 101.452Z" fill="#003456"/>
<path fill-rule="evenodd" clip-rule="evenodd" d="M34.3982 22.45C33.6381 24.6377 30.4179 25.2349 33.482 27.2788C33.9784 27.6097 34.3019 27.8838 34.7527 28.2056C35.588 28.8018 36.3355 29.3208 37.4849 29.8744C39.5495 30.8684 42.8053 31.8437 44.8696 31.4633L45.0664 31.0998C45.0832 31.0568 45.131 30.9624 45.1504 30.9078L45.438 29.5351C45.5961 28.3465 45.6129 28.3637 45.4157 27.1909C43.9822 26.2043 40.8793 25.3554 38.604 23.7665C37.0118 22.6548 38.3229 22.3524 36.3322 21.6188C35.7686 21.411 35.4491 21.3348 34.6799 21.1108L34.3982 22.45Z" fill="#F3B095"/>
<path fill-rule="evenodd" clip-rule="evenodd" d="M96.6089 50.8915C97.8091 51.0554 98.3016 51.2438 98.9905 51.7508C99.0619 54.4979 95.3828 56.2417 92.7656 56.9128C89.8162 57.6687 85.5024 57.3064 82.0809 57.7246C81.1405 57.8109 80.1946 58.3105 79.5681 58.7736C78.6474 59.4541 78.3662 59.8619 77.9768 60.9768C86.7708 60.25 91.7832 61.4386 98.7145 57.1265C100.403 56.0762 101.598 53.9941 101.694 52.0265C101.062 50.3564 99.5192 50.1095 97.6763 50.6149L96.5611 50.3428L96.6089 50.8915Z" fill="#00729E"/>
<path fill-rule="evenodd" clip-rule="evenodd" d="M30.0967 8.03448C31.2187 8.59098 31.3806 9.22438 32.668 10.2853L37.0609 14.0921C38.148 15.132 36.891 14.8072 38.4498 14.8308L37.8914 13.6067C37.8142 13.5385 37.5941 13.5792 37.4872 12.5858C41.271 9.85128 45.1646 13.9967 48.5309 12.9895C50.5115 12.3968 50.1376 11.7443 51.4374 11.0538C51.872 10.2362 53.1116 9.20438 52.8098 7.41858C52.6679 6.57908 52.4511 6.54578 52.1758 6.29278L51.8303 7.86748C50.0989 7.93468 50.2624 7.29938 48.9995 8.51928C45.3676 12.0281 47.4516 8.49758 42.6783 8.58128C38.5397 8.65368 39.4982 13.5479 30.6438 5.72168L30.0967 8.03448Z" fill="#3C1301"/>
<path fill-rule="evenodd" clip-rule="evenodd" d="M11.4914 83.991C12.613 84.5604 13.5007 84.9495 15.2176 85.0955C15.5647 82.3636 14.284 76.7175 14.4556 73.3156C13.9654 71.388 14.0885 69.1408 14.0242 66.9796L13.6804 68.0832L9.30261 65.9028C11.2018 74.5624 10.2262 75.7832 10.7859 79.5031C11.1091 81.6494 10.603 82.3303 11.4914 83.991Z" fill="#002541"/>
<path fill-rule="evenodd" clip-rule="evenodd" d="M85.4055 132.742C85.0917 136.238 84.3317 140.317 84.9453 143.793C85.2339 145.427 86.9586 151.508 88.0046 152.182C87.6747 151.28 87.9125 152.111 88.2008 151.743L88.5355 152.7C89.1217 152.413 89.61 152.26 90.161 152.1C89.9529 151.484 89.5247 149.353 90.1028 148.767C89.5137 146.352 88.6047 144.133 88.2357 141.646C87.7167 138.146 88.5566 135.561 88.2512 132.899L88.224 130.81C87.4323 134.204 88.975 132.592 85.8085 134.13L85.4055 132.742Z" fill="#003456"/>
<path fill-rule="evenodd" clip-rule="evenodd" d="M14.4556 73.3157C14.284 76.7176 15.5647 82.3637 15.2176 85.0956C17.3521 84.9392 17.6613 84.9257 19.6994 84.4332C20.8311 84.1042 20.1687 80.1527 20.0478 79.2702L19.6994 73.2098C18.5464 73.2098 17.6519 73.1057 16.9022 73.0285C15.185 72.8511 15.1663 73.4156 14.9349 72.2852C14.3939 72.8071 14.5539 71.4592 14.4556 73.3157Z" fill="#024A72"/>
<path fill-rule="evenodd" clip-rule="evenodd" d="M44.3206 35.1674L46.8108 42.4364C47.1207 43.5209 46.9388 42.854 47.6743 43.6954C51.4965 48.069 52.2204 54.4416 52.8318 55.5817C52.7872 50.6665 52.3367 45.4195 51.2154 40.7877C50.5099 39.8247 50.0682 38.3447 49.4128 37.3313C48.7684 36.334 47.8866 35.2489 46.8916 34.7612C45.8795 35.3882 45.6041 35.6008 44.3206 35.1674Z" fill="#D9443B"/>
<path fill-rule="evenodd" clip-rule="evenodd" d="M18.2467 54.3073C17.9755 56.1002 18.0075 54.7081 18.8774 55.2668C19.1967 53.7241 20.2521 54.6286 24.087 54.7168C24.2786 54.7213 24.8571 54.7523 24.9818 54.7481L25.2775 54.7216C25.4846 54.689 25.4788 54.6728 25.5483 54.6137C26.3691 53.9842 26.8348 52.8086 27.4029 52.0336C28.7336 50.2178 28.4602 51.175 28.5491 48.4631C27.6055 48.022 25.305 44.9892 21.7441 48.2738C20.8484 49.0997 20.2683 49.5693 19.5706 51.0532C19.0296 52.2036 18.7236 53.2173 18.2467 54.3073Z" fill="#002541"/>
<path fill-rule="evenodd" clip-rule="evenodd" d="M31.7379 4.3519L50.6165 4.3803C48.9487 1.8733 44.0047 0.220699 41.297 0.00419922L41.2324 0H40.4236C37.131 0.2042 32.8905 2.7358 31.7379 4.3519Z" fill="#BA6226"/>
<path fill-rule="evenodd" clip-rule="evenodd" d="M68.1453 93.9739C72.5583 94.8856 74.3754 90.3414 74.9429 86.4448C75.31 83.9245 75.985 82.8756 77.075 81.1664C78.9503 78.2257 78.1308 78.5993 78.632 75.3138C77.8293 74.3363 78.2196 74.3298 77.499 72.8003C77.4686 72.8397 77.4505 72.9144 77.4457 72.9393C77.4405 72.9654 77.4076 73.0543 77.4027 73.0879L77.3749 73.4444C77.36 73.9149 77.4735 73.69 77.3969 74.3537C77.3213 75.0117 69.3087 92.7023 68.6142 93.4999C68.4161 93.7274 68.3379 93.8734 68.3076 93.8146C68.282 93.7655 68.1932 93.9151 68.1453 93.9739Z" fill="#000611"/>
<path fill-rule="evenodd" clip-rule="evenodd" d="M105.952 101.233C105.869 102.842 105.53 103.42 106.003 105.084C106.913 104.92 107.115 104.793 107.673 104.45C109.13 101.696 106.929 97.5801 113.649 101.95L116.748 103.764C117.579 104.373 116.959 104.146 117.923 104.665C118.439 103.254 118.101 102.357 117.686 101.197C117.153 99.7068 117.102 99.6997 117.102 97.7132C115.345 98.2006 115.186 98.9205 112.885 98.356C111.013 97.8965 110.937 97.3756 109.988 96.146C107.527 97.1994 105.877 97.7469 105.952 101.233Z" fill="#FFD6C4"/>
<path fill-rule="evenodd" clip-rule="evenodd" d="M118.278 78.4043C118.12 83.0471 116.928 82.6115 116.155 86.2269C115.565 88.985 115.733 91.9793 115.735 95.1902L117.159 95.4607L118.196 95.092C119.15 93.767 119.294 89.0619 119.518 86.9595C119.7 85.2494 119.728 84.1952 120.047 82.8377C120.398 81.3441 120.929 80.4072 121.206 78.9372C120.389 78.4783 119.54 78.2473 118.873 77.5742C118.225 78.2324 118.712 76.9747 118.278 78.4043Z" fill="#003456"/>
<path fill-rule="evenodd" clip-rule="evenodd" d="M60.4663 69.667L60.3535 70.5893C60.369 73.4408 59.2263 73.1513 59.8251 76.9383C63.1688 77.5759 59.8532 78.5541 66.5616 75.8609C70.4966 74.281 69.5821 73.2544 69.8238 71.3504C69.9821 70.1027 69.3691 72.6252 69.9153 70.8466C70.1227 70.1715 69.9272 70.4924 70.316 70.059C70.316 68.9723 70.231 68.9361 70.0426 68.1269C69.6244 67.8923 69.7194 67.9753 69.0825 67.8535C68.5845 69.0838 68.0765 70.2694 67.7779 71.6968C66.6679 77.0039 62.9597 71.9711 61.9938 69.6192L61.8335 68.5276C61.8335 68.4914 61.8455 68.4669 61.8345 68.4397C60.4844 68.9251 61.756 68.3075 60.7829 69.3381C60.748 69.3749 60.6521 69.5507 60.6269 69.5022C60.601 69.4531 60.526 69.6189 60.4663 69.667Z" fill="#FFD6C4"/>
<path fill-rule="evenodd" clip-rule="evenodd" d="M51.1542 19.3372C52.4342 19.8482 52.4613 20.1917 53.222 21.2083C56.7909 25.9787 57.7084 31.4367 58.491 37.2929C58.8242 39.7854 59.9746 41.6985 60.3479 43.9932L60.4587 42.9216L62.1078 42.9209C61.8544 41.8998 61.2844 40.8492 60.8552 39.8306C56.9829 30.6447 61.4818 28.0598 56.7987 21.9991C55.8942 20.8289 53.1555 18.7468 51.4373 18.606L51.1542 19.3372Z" fill="#024A72"/>
<path fill-rule="evenodd" clip-rule="evenodd" d="M38.9457 73.906L43.0979 73.1214L43.1289 68.7065L39.3121 69.4918C36.132 70.1006 34.4371 69.051 31.6993 68.7459L31.6091 73.1079C34.2642 73.6553 36.2273 73.9206 38.9457 73.906Z" fill="#024A72"/>
<path fill-rule="evenodd" clip-rule="evenodd" d="M122.805 120.532C124.058 120.204 124.457 119.8 125.668 119.141C126.253 118.823 127.708 117.692 127.774 118.177C128.472 118.501 128.249 117.951 128.292 119.53C128.307 120.112 128.259 120.868 128.257 121.479L128.257 132.425C128.265 137.173 127.426 139.248 123.582 141.357C123.136 141.601 123.421 141.351 123.07 141.727C126.124 142.426 128.256 139.395 129.135 136.784C129.703 135.098 129.442 123.401 129.449 120.112C129.45 119.535 130.21 113.455 126.279 115.571C125.364 116.064 125.587 116.222 124.838 116.91C123.606 118.042 123.642 117.554 122.805 120.532Z" fill="#760020"/>
<path fill-rule="evenodd" clip-rule="evenodd" d="M66.9185 177.842C66.4838 179.122 65.949 180.408 66.4328 181.724C66.9479 183.125 67.8062 183.2 68.3917 184.575C70.3461 185.23 75.2161 185.73 77.7211 185.489C79.0299 185.19 77.2858 185.556 73.8294 182.811L73.3237 182.377C73.2826 182.341 73.2067 182.275 73.1524 182.22L74.5429 179.122C72.4214 179.285 70.6628 180.185 68.6625 178.925L68.8642 177.568C68.2712 177.772 67.7971 177.842 66.9185 177.842Z" fill="#AA4A11"/>
<path fill-rule="evenodd" clip-rule="evenodd" d="M19.5857 102.765L17.9661 102.184C17.7205 100.923 17.6969 101.019 18.2349 100.072C18.9921 100.922 18.1409 100.553 18.7193 101.431C18.9116 101.722 19.3172 101.993 19.8416 102.12C21.2703 102.466 22.1321 102.036 23.0134 101.47L22.6922 100.12C22.2368 100.55 22.7439 100.031 22.3406 100.589C21.5605 101.668 21.9302 101.446 20.7872 101.694C18.8147 100.995 19.3139 99.7032 19.2263 97.403L18.8786 97.4528C17.385 97.9036 17.3159 97.3048 16.0491 97.288C15.0842 97.2751 15.323 97.8441 13.9922 98.2161C12.3516 98.6743 10.1134 98.2561 10.0104 96.3916C8.8483 96.8453 8.8001 97.6732 8.7843 98.8517C10.2372 100.083 16.5426 104.552 18.337 103.746L19.5857 102.765Z" fill="#7C3412"/>
<path fill-rule="evenodd" clip-rule="evenodd" d="M106.003 105.084C105.063 106.018 104.383 105.908 104.486 107.8C105.325 109.272 107.252 110.105 109.129 111.115C110.009 111.589 110.777 111.917 111.731 112.344C113.873 113.302 112.868 113.127 114.727 112.482C113.545 110.701 113.216 110.403 115.519 109.59L115.62 107.684C115.236 107.538 115.24 107.551 114.774 107.363L114.132 107.086C112.175 106.539 113.134 106.09 111.074 105.584L111.37 106.705C110.114 107.748 108.331 108.284 106.88 106.979C106.72 105.908 106.847 106.192 107.485 105.333L107.706 106.298L107.673 104.45C107.115 104.793 106.913 104.919 106.003 105.084Z" fill="#760020"/>
<path fill-rule="evenodd" clip-rule="evenodd" d="M94.9199 49.6143C93.6447 51.221 87.8383 49.8131 86.1802 54.5867L89.9142 55.3774L87.139 55.4951C88.185 56.0728 92.6403 55.5144 93.9365 55.1557C94.6416 54.9606 96.1427 54.2163 96.5498 53.8867C98.0231 52.6936 96.9412 52.3091 96.609 50.8917L96.5612 50.343C96.8807 49.7323 96.9079 49.4285 97.1289 48.7573L94.9199 49.6143Z" fill="#F6BDA9"/>
<path fill-rule="evenodd" clip-rule="evenodd" d="M107.673 104.45L107.706 106.298C108.148 107.286 107.983 107.086 109.319 107.359L109.227 105.885C109.392 104.854 108.98 105.644 109.9 105.203C108.233 104.573 108.166 102.979 109.441 102.184C110.536 101.994 109.338 102.857 111.161 103.147C112.658 103.385 111.679 103.608 112.932 103.898C114.209 104.193 113.463 103.454 114.483 104.926C115.144 105.879 115.553 105.908 115.565 107.083L114.132 107.086L114.774 107.364C115.24 107.552 115.236 107.539 115.62 107.684L115.519 109.59L115.423 109.94C115.851 111.32 115.895 111.479 117.454 111.584C118.074 111.079 118.329 110.906 118.444 109.99L118.313 108.621C118.661 107.062 118.623 105.562 117.923 104.665C116.959 104.146 117.579 104.373 116.748 103.764L113.649 101.95C106.929 97.58 109.13 101.696 107.673 104.45Z" fill="#AA4A11"/>
<path fill-rule="evenodd" clip-rule="evenodd" d="M77.9768 60.9772C77.3202 61.048 78.1333 60.4676 77.0736 61.4642C76.6442 61.8682 76.6005 61.9903 76.3776 62.3816C78.1142 63.2968 94.9689 61.8746 100.165 58.0314L100.471 57.7887C100.513 57.7505 100.568 57.6917 100.607 57.652C101.584 56.6618 101.815 56.5739 102.183 55.6652C102.693 54.4075 103.009 52.7039 101.694 52.0269C101.598 53.9945 100.403 56.0766 98.7145 57.1269C91.7832 61.439 86.7708 60.2504 77.9768 60.9772Z" fill="#002541"/>
<path fill-rule="evenodd" clip-rule="evenodd" d="M30.9335 105.559C28.9507 106.523 28.5545 106.95 27.4745 108.727C26.4753 110.371 26.1451 111.373 25.9932 113.58L26.7494 113.241C26.8673 112.622 26.8175 112.491 26.8738 111.975C26.962 111.17 26.7487 112.181 26.9746 111.261C27.2173 110.271 27.0828 110.841 27.2402 110.537C27.8264 109.672 28.3716 108.416 28.9384 107.733C29.5259 107.025 30.8941 106.195 32.3053 106.047L33.3313 106.199C34.0823 109.75 34.1479 123.145 33.7307 127.286C32.5823 127.975 27.7611 130.871 26.6867 131.123C26.4844 127.332 27.3168 117.691 26.7206 114.334L26.1609 114.691C25.5986 117.125 26.0061 127.57 26.0119 130.836L26.01 132.424C27.4635 132.074 27.6574 131.395 28.9306 131.056C29.4432 130.329 29.1517 130.655 30.0235 130.155C30.5005 129.881 30.7791 129.745 31.2609 129.475C32.2313 128.931 32.8818 128.489 33.8891 127.998C34.9791 127.186 34.4365 124.224 34.4365 122.848C34.4365 118.72 34.9898 109.177 33.7763 105.794L32.3034 105.259L30.9335 105.559Z" fill="#FFAE6D"/>
<path fill-rule="evenodd" clip-rule="evenodd" d="M26.01 132.424L26.0119 130.836C23.0906 129.504 15.8643 125.105 12.3005 123.142C10.0549 121.904 7.8068 120.523 5.4759 119.298C1.8847 117.41 1.1463 117.132 0 114.421V117.923C0.8402 118.119 2.4363 119.139 3.2309 119.617L13.0176 125.152C15.2173 126.461 17.3175 127.631 19.44 128.853L26.01 132.424Z" fill="#3C1301"/>
<path fill-rule="evenodd" clip-rule="evenodd" d="M99.0548 129.141C100.185 129.409 103.651 131.537 104.972 132.241C106.925 133.282 121.181 141.715 122.356 142C122.099 141.373 121.827 140.844 121.827 139.966C120.053 139.273 117.85 137.79 116.046 136.784C114.242 135.777 112.27 134.777 110.455 133.624C106.88 131.351 102.964 129.623 99.3153 127.235L99.0548 129.141Z" fill="#000611"/>
<path fill-rule="evenodd" clip-rule="evenodd" d="M37.8913 13.6066C43.3775 13.709 43.9611 17.7161 51.711 14.84C52.1059 13.7614 51.9808 11.9255 51.4373 11.0537C50.1375 11.7442 50.5114 12.3967 48.5308 12.9894C45.1645 13.9966 41.2709 9.85121 37.4871 12.5857C37.594 13.5791 37.8141 13.5384 37.8913 13.6066Z" fill="#F6BDA9"/>
<path fill-rule="evenodd" clip-rule="evenodd" d="M85.0904 49.7108C85.58 48.6683 84.8151 49.3273 85.314 48.1122C85.5897 47.4404 86.0272 47.2646 86.1423 46.2806C85.9235 45.0768 85.3438 44.4134 84.8051 43.8589C83.6172 44.639 84.9689 44.3908 83.6004 45.2507C83.4514 42.9986 81.6243 40.9938 83.3473 39.0293L83.9952 38.3042C80.8994 34.9799 82.5081 35.6863 81.5338 34.2266C81.2921 37.0125 79.9959 38.5802 81.0497 43.4394C81.6747 46.3219 82.4154 49.9807 85.0904 49.7108Z" fill="#FFD6C4"/>
<path fill-rule="evenodd" clip-rule="evenodd" d="M104.363 119.781L104.394 123.211L109.859 126.272C111.013 124.64 110.32 125.154 110.627 122.902C110.948 120.257 110.615 120.76 108.084 119.265C105.463 117.716 105.834 117.563 104.498 117.998L104.363 119.781Z" fill="#FFA334"/>
<path fill-rule="evenodd" clip-rule="evenodd" d="M8.80239 113.992C9.86399 114.572 13.586 116.926 14.2611 116.815C15.1291 116.065 14.7759 115.023 14.7759 113.547C15.7075 111.092 14.2954 111.115 12.8454 110.257C11.671 109.562 10.1474 108.289 8.65149 108.626L8.80239 113.992Z" fill="#FFA334"/>
<path fill-rule="evenodd" clip-rule="evenodd" d="M10.4272 92.2045C10.6596 93.2647 11.2493 93.9456 11.4662 95.0013C11.7499 96.3831 11.6487 96.9012 12.8596 97.3865C13.3795 96.8569 12.8951 97.5042 13.2041 96.8265C13.3511 96.5034 13.2319 96.5641 13.4067 96.1867C14.0078 96.6365 13.9018 96.3796 14.2582 96.5673C15.6371 97.2944 14.9349 96.5783 14.9782 97.3565C13.5728 98.3776 11.8966 97.932 10.5061 97.2993L10.0104 96.3916C10.1134 98.2561 12.3516 98.6743 13.9922 98.2161C15.323 97.8441 15.0842 97.2751 16.0491 97.288C17.3159 97.3048 17.385 97.9036 18.8786 97.4528C19.239 97.0582 18.5005 97.0679 19.112 97.2498C20.2317 97.5827 18.9591 96.6404 19.2263 97.403C19.3139 99.7032 18.8147 100.995 20.7872 101.694C20.6534 99.72 21.0951 96.4478 19.7179 95.1826C19.6368 96.3356 19.5162 96.2261 19.1523 96.5502C17.5078 93.6199 19.4484 93.7756 14.9876 94.0739C13.9341 94.1447 13.1204 93.6884 12.4666 93.1603C11.6271 92.4817 11.2141 92.0535 10.3972 91.3374L10.4272 92.2045Z" fill="#F6BDA9"/>
<path fill-rule="evenodd" clip-rule="evenodd" d="M68.8643 177.568L68.6626 178.925C70.6629 180.185 72.4215 179.285 74.543 179.122C75.0908 178.662 75.5015 177.653 76.7851 176.746L77.4281 170.455C73.0992 169.133 72.9328 174.526 74.4199 176.747C72.7673 177.133 70.8953 177.568 68.8643 177.568Z" fill="#7C3412"/>
<path fill-rule="evenodd" clip-rule="evenodd" d="M87.1389 55.495L85.1845 55.0897L85.2287 53.8999C84.3617 54.4806 83.9368 54.1875 83.0917 55.1838C82.6351 55.7221 82.1517 56.8819 82.0809 57.7247C85.5024 57.3065 89.8162 57.6688 92.7656 56.9129C95.3828 56.2418 99.0619 54.498 98.9905 51.7509C98.3016 51.2439 97.8091 51.0555 96.6089 50.8916C96.9411 52.309 98.023 52.6935 96.5497 53.8866C96.1426 54.2162 94.6415 54.9605 93.9364 55.1556C92.6402 55.5143 88.1849 56.0727 87.1389 55.495Z" fill="#E7F2FE"/>
<path fill-rule="evenodd" clip-rule="evenodd" d="M53.7772 160.936C54.1191 161.746 54.2619 162.117 54.9942 162.546L55.2679 162.794C57.7885 163.381 59.5587 164.279 62.5951 163.555C63.5755 163.322 64.9602 162.962 65.2944 161.873C65.5203 161.136 65.6715 158.861 64.5702 158.195C61.4508 157.97 61.3367 159.488 59.5122 161.026C57.8176 162.454 57.8622 162.814 55.4408 161.752C55.0029 161.559 54.8637 161.448 54.5211 161.271C54.1123 161.059 54.0241 161.104 53.7772 160.936Z" fill="#3C1301"/>
<path fill-rule="evenodd" clip-rule="evenodd" d="M62.627 67.2244C64.0068 67.2962 66.2082 67.5298 67.1809 66.9976C66.7682 70.043 68.784 74.2634 64.6305 73.5143C64.3264 72.6221 64.276 71.2849 63.9328 70.1803C63.3544 68.3202 63.3134 68.6266 62.627 67.2244ZM60.3329 68.6744L60.1927 69.2215C60.626 69.2215 60.4661 69.1369 60.4661 69.6671C60.5258 69.619 60.6008 69.4532 60.6267 69.5023C60.6519 69.5508 60.7478 69.375 60.7827 69.3382C61.7558 68.3076 60.4842 68.9252 61.8343 68.4398C61.8453 68.467 61.8333 68.4915 61.8333 68.5277L61.9936 69.6193C62.9595 71.9712 66.6677 77.004 67.7777 71.6969C68.0763 70.2695 68.5843 69.0839 69.0823 67.8536C68.17 66.942 67.2355 65.6213 65.6646 65.3207C62.6835 65.0005 62.7827 64.4524 60.0715 65.8368L60.3329 68.6744Z" fill="#F3B095"/>
<path fill-rule="evenodd" clip-rule="evenodd" d="M96.7045 141.337C96.6431 143.954 97.8727 146.029 97.6817 149.195C97.725 149.129 97.7742 148.946 97.7868 148.984C97.7997 149.022 97.8659 148.824 97.8815 148.766L97.9587 146.902C98.0007 146.964 98.0375 146.998 98.0508 147.109C98.064 147.22 98.1209 147.267 98.1384 147.317L98.2844 147.74C98.4279 148.197 98.2825 148.041 98.4971 148.543C99.3447 148.34 100.82 148.043 101.507 147.729C101.283 145.116 100.768 141.753 99.865 139.585C99.4129 139.76 98.4932 139.998 98.0773 140.103C97.146 140.34 97.2086 140.362 96.3494 140.099L96.7045 141.337Z" fill="#003456"/>
<path fill-rule="evenodd" clip-rule="evenodd" d="M85.0903 49.711C85.7657 51.3691 85.6193 52.1114 85.2286 53.9001L85.1844 55.0899L87.1388 55.4952L89.914 55.3775L86.18 54.5868C87.8381 49.8132 93.6445 51.2211 94.9197 49.6144C93.501 48.7842 90.8276 49.7353 89.0703 49.2712C87.1307 48.759 87.3433 47.3682 86.1422 46.2808C86.0271 47.2648 85.5896 47.4406 85.3139 48.1124C84.815 49.3275 85.5799 48.6685 85.0903 49.711Z" fill="#D89378"/>
<path fill-rule="evenodd" clip-rule="evenodd" d="M19.7179 95.1824C21.0951 96.4476 20.6534 99.7198 20.7872 101.693C21.9302 101.446 21.5605 101.668 22.3406 100.589C22.7439 100.031 22.2368 100.55 22.6922 100.12L23.0134 101.469C22.1321 102.036 21.2703 102.466 19.8416 102.12C19.3172 101.993 18.9116 101.722 18.7193 101.431C18.1409 100.553 18.9921 100.922 18.2349 100.072C17.6969 101.019 17.7205 100.923 17.9661 102.184L19.5857 102.765C21.3491 103.449 23.4374 102.776 23.574 101.008C25.4399 101.666 23.6183 100.978 24.3942 101.351L29.46 104.304C30.4549 104.857 30.7264 104.908 30.9335 105.56L32.3034 105.259C31.3827 104.615 29.7443 103.999 29.0709 103.149C26.8541 101.872 24.6935 100.513 22.4356 99.3178C22.4356 98.6279 22.4753 97.809 22.4214 97.134C22.3351 96.0537 22.1935 96.4692 22.1619 95.3715L21.0114 95.015L20.5661 93.5722L19.9715 93.2988L19.7179 95.1824Z" fill="#FC9027"/>
<path fill-rule="evenodd" clip-rule="evenodd" d="M76.5143 71.1325C76.9114 71.8112 77.0791 72.0758 77.4989 72.8C78.2195 74.3295 77.8292 74.336 78.6319 75.3135L78.7291 74.8895C78.4687 76.1527 79.3596 76.6329 79.474 76.738C79.7164 75.6531 80.2787 74.8582 80.7863 73.91C81.3011 72.9487 81.7888 72.0965 82.0899 71.0896C81.7723 70.7877 81.0103 69.9382 80.9809 69.8981C80.5559 69.2789 80.5543 69.1497 79.8427 68.716C78.9912 68.197 79.2226 68.314 78.4028 68.2827C77.6521 68.4381 78.3514 68.2222 78.1724 68.4459L77.5836 69.6144C77.0882 70.5641 77.0139 70.5318 76.5143 71.1325Z" fill="#003456"/>
<path fill-rule="evenodd" clip-rule="evenodd" d="M50.4281 151.201L46.2342 151.798C46.482 153.06 46.1346 153.22 45.657 153.919C46.6113 154.239 45.6948 153.826 46.2959 154.222C46.9425 154.648 46.4339 154.298 46.9002 154.74L49.8677 157.406C50.4394 157.633 50.8314 157.925 51.4909 157.792C51.6758 155.938 51.4993 153.285 50.8162 151.619L50.6591 151.042L50.4281 151.201Z" fill="#3C1301"/>
<path fill-rule="evenodd" clip-rule="evenodd" d="M60.0671 68.6746H60.333L60.0716 65.837C62.7828 64.4526 62.6836 65.0007 65.6647 65.3209V63.6706C64.6568 61.722 65.2724 61.8176 62.5977 61.2754C61.1066 61.2053 60.0974 61.3381 59.1632 62.0374L60.0671 68.6746Z" fill="#9ED7E1"/>
<path fill-rule="evenodd" clip-rule="evenodd" d="M66.4917 79.6173C66.6917 80.6466 67.03 82.1466 67.3933 83.2932C68.1359 85.6354 68.0687 85.8387 69.2217 86.0872C70.8772 84.7871 70.344 80.7623 70.3682 78.4462L68.5695 77.9819C67.2281 78.4165 67.3147 78.7648 66.4917 79.6173Z" fill="#003456"/>
<path fill-rule="evenodd" clip-rule="evenodd" d="M59.825 76.9384C60.3944 79.3381 60.8526 78.5131 61.4976 79.892C62.1067 80.2469 62.647 80.6405 63.2022 80.9041C63.897 79.407 64.4299 78.0863 65.3767 77.4057C67.3004 76.0223 67.8239 76.5535 69.7688 77.269C69.8598 75.9832 70.2327 75.1543 70.4773 74.0336C70.8034 72.5409 70.5051 71.2367 70.3158 70.0591C69.927 70.4925 70.1225 70.1716 69.9151 70.8467C69.3689 72.6253 69.982 70.1028 69.8237 71.3505C69.582 73.2545 70.4964 74.2811 66.5614 75.861C59.853 78.5542 63.1687 77.576 59.825 76.9384Z" fill="#F6BDA9"/>
<path fill-rule="evenodd" clip-rule="evenodd" d="M30.9315 116.737L30.7738 118.776L29.126 119.707L28.9926 117.612L30.9315 116.737ZM28.1249 116.652C27.4224 117.783 27.0343 120.392 27.9074 121.803C29.0204 121.833 31.1309 120.669 31.6848 120.056C32.5954 119.048 32.5156 116.5 32.2183 115.049L31.2576 114.854C30.8365 115.024 30.0535 115.446 29.5494 115.736C29.1406 115.972 29.0255 116.086 28.7376 116.285C28.3592 116.547 28.6132 116.484 28.1249 116.652Z" fill="#FFD497"/>
<path fill-rule="evenodd" clip-rule="evenodd" d="M62.6271 67.2244C63.3135 68.6266 63.3545 68.3202 63.9329 70.1803C64.2761 71.2849 64.3265 72.6221 64.6306 73.5143C68.7841 74.2634 66.7683 70.043 67.181 66.9976C66.2083 67.5298 64.0069 67.2962 62.6271 67.2244Z" fill="#FFD6C4"/>
<path fill-rule="evenodd" clip-rule="evenodd" d="M52.7254 165.429C53.7378 165.031 54.4271 164.428 55.815 164.095C55.5361 163.177 55.531 163.78 55.2679 162.794L54.9942 162.546C54.2619 162.117 54.1191 161.746 53.7772 160.936L51.6108 159.232C51.2062 161.057 50.7286 161.465 48.63 161.691L52.7254 165.429Z" fill="#BA6226"/>
<path fill-rule="evenodd" clip-rule="evenodd" d="M124.876 129.014L124.696 126.87L126.584 126.012L126.535 127.987L124.876 129.014ZM123.683 126.166C123.151 127.561 122.933 129.678 123.564 130.883C124.79 131.258 127.088 129.47 127.593 128.694C127.799 128.377 129.095 124.15 126.994 124.112C125.677 124.676 124.535 125.504 123.683 126.166Z" fill="#FFD497"/>
<path fill-rule="evenodd" clip-rule="evenodd" d="M29.8229 8.71007C30.9982 9.55707 30.4288 10.027 32.5493 12.3243C33.0347 12.8497 32.9471 12.9499 33.5226 13.5351C34.2284 14.2529 34.8582 14.8601 35.5957 15.571C36.9736 16.8998 36.3486 16.3427 37.2114 18.0402C38.4152 17.2672 38.9015 15.5154 38.4497 14.831C36.8909 14.8074 38.1479 15.1322 37.0608 14.0923L32.6679 10.2855C31.3805 9.22457 31.2186 8.59117 30.0966 8.03467C29.8933 8.58177 30.0788 8.35817 29.8229 8.71007Z" fill="#7C3412"/>
<path fill-rule="evenodd" clip-rule="evenodd" d="M50.6592 151.042L50.8163 151.619C52.7633 152.588 54.814 155.282 58.1942 154.869C58.156 153.816 57.8339 153.173 57.5046 152.397C56.5054 151.774 56.6834 152.222 55.0321 150.991C54.4181 150.533 53.3404 149.726 52.8056 149.462C52.2103 150.303 51.8649 150.596 50.6592 151.042Z" fill="#AA4A11"/>
<path fill-rule="evenodd" clip-rule="evenodd" d="M109.988 96.1458C110.937 97.3754 111.013 97.8963 112.885 98.3558C115.186 98.9203 115.345 98.2004 117.102 97.713C118.293 96.2088 117.572 96.7261 118.196 95.092L117.159 95.4607C116.102 96.19 114.429 96.0734 113.041 95.7311C111.591 95.3731 110.911 94.7665 110.262 94.0737C110.077 94.932 109.988 95.0099 109.988 96.1458Z" fill="#9ED7E1"/>
<path fill-rule="evenodd" clip-rule="evenodd" d="M32.9465 17.5108L33.3123 16.1581C35.7194 16.0753 35.7582 18.7336 36.8295 18.4809C37.8797 18.2334 37.1801 18.3691 37.2114 18.0401C36.3486 16.3426 36.9736 16.8997 35.5957 15.5709C34.8582 14.86 34.2284 14.2528 33.5226 13.535C32.9471 12.9498 33.0347 12.8496 32.5493 12.3242C30.4288 10.0269 30.9982 9.55696 29.8229 8.70996L31.0851 13.2387C31.5514 14.5717 32.2165 16.8877 32.9465 17.5108Z" fill="#3C1301"/>
<path fill-rule="evenodd" clip-rule="evenodd" d="M72.2312 68.0691C71.6754 68.8072 71.4601 69.6875 71.3771 70.8634L71.6272 72.6182C71.6453 72.6686 71.6831 72.7574 71.7248 72.8195C71.8101 71.7544 71.9549 71.9037 72.2629 71.1423C72.4832 70.5972 72.5382 69.9945 72.7783 69.588C74.3595 69.6636 75.4246 70.5199 76.5143 71.1329C77.0139 70.5322 77.0882 70.5645 77.5836 69.6148L78.1724 68.4463C78.3514 68.2226 77.6521 68.4385 78.4028 68.2831C77.2879 66.9478 73.3667 67.2816 72.2312 68.0691Z" fill="#002541"/>
<path fill-rule="evenodd" clip-rule="evenodd" d="M63.2023 80.9041C63.2023 82.5755 63.4301 82.9481 63.7494 84.2342C64.1947 83.5356 64.29 82.4265 64.8236 81.513C65.127 80.9937 65.1987 80.9209 65.6172 80.3684C66.1814 79.6232 65.8557 79.6781 66.4917 79.617C67.3147 78.7645 67.2281 78.4162 68.5695 77.9816L70.0425 77.9405C69.8263 77.2751 70.0932 77.5828 69.7688 77.269C67.824 76.5535 67.3005 76.0223 65.3768 77.4057C64.43 78.0863 63.8971 79.407 63.2023 80.9041Z" fill="#9ED7E1"/>
<path fill-rule="evenodd" clip-rule="evenodd" d="M109.899 105.203L111.074 105.584C113.134 106.09 112.175 106.539 114.132 107.086L115.565 107.083C115.553 105.908 115.144 105.879 114.483 104.926C113.463 103.454 114.209 104.193 112.932 103.898C111.679 103.608 112.658 103.385 111.161 103.147C109.338 102.857 110.536 101.994 109.441 102.184C108.165 102.979 108.233 104.573 109.899 105.203Z" fill="#FFD6C4"/>
<path fill-rule="evenodd" clip-rule="evenodd" d="M39.6273 35.8679C40.1573 36.5653 40.6045 36.7592 41.2922 37.507C41.976 38.2509 42.43 38.5517 43.1959 39.1657C44.6727 40.3494 45.182 41.4107 46.8107 42.4363L44.3205 35.1673L43.9414 34.4751C43.2221 35.4362 43.446 35.9468 42.9503 36.9518L39.6273 35.8679Z" fill="#AEEEF7"/>
<path fill-rule="evenodd" clip-rule="evenodd" d="M63.7495 181.639C64.4614 182.56 64.5878 182.813 65.5814 183.414C66.6488 184.059 67.0644 184.378 68.3919 184.575C67.8064 183.2 66.9481 183.125 66.433 181.724C65.9492 180.408 66.484 179.122 66.9187 177.842C65.8619 178.035 65.1937 178.193 64.4737 178.84C63.5016 179.714 63.7495 180.02 63.7495 181.639Z" fill="#3C1301"/>
<path fill-rule="evenodd" clip-rule="evenodd" d="M12.0389 85.6209C13.4533 87.2444 17.5984 87.3145 19.4262 86.0862C19.644 85.3123 19.6789 85.5081 19.6995 84.4333C17.6614 84.9258 17.3522 84.9393 15.2177 85.0957C13.5008 84.9497 12.6131 84.5606 11.4915 83.9912C11.6463 84.6605 11.7694 85.0793 12.0389 85.6209Z" fill="#9ED7E1"/>
<path fill-rule="evenodd" clip-rule="evenodd" d="M43.8461 154.805C44.5703 155.79 45.5171 156.694 46.3689 157.473C46.7034 157.779 47.2725 158.241 47.9727 158.361C49.2864 158.587 49.3885 158.097 49.8677 157.406L46.9002 154.74C46.4339 154.298 46.9425 154.648 46.2959 154.222C45.6948 153.826 46.6113 154.24 45.657 153.919L43.8461 154.805Z" fill="#AA4A11"/>
<path fill-rule="evenodd" clip-rule="evenodd" d="M27.2402 110.537C27.7463 111.319 26.3645 111.84 29.8933 109.822L32.6243 108.347L32.3053 106.047C30.8941 106.195 29.5259 107.025 28.9384 107.733C28.3716 108.416 27.8264 109.672 27.2402 110.537Z" fill="#3C1301"/>
<path fill-rule="evenodd" clip-rule="evenodd" d="M43.9414 34.4753L44.3205 35.1675C45.604 35.6009 45.8794 35.3883 46.8915 34.7613L46.8659 33.2584L44.8621 31.7402C44.59 32.0724 44.9493 31.4064 44.5399 32.2317C44.4471 32.4188 44.2891 32.8353 44.2245 33.0354C44.0342 33.6238 43.9379 33.9825 43.9414 34.4753Z" fill="#DF0E4E"/>
<path fill-rule="evenodd" clip-rule="evenodd" d="M123.683 126.165C124.535 125.504 125.677 124.676 126.994 124.112L126.95 121.847L123.655 123.942L123.683 126.165Z" fill="#F20151"/>
<path fill-rule="evenodd" clip-rule="evenodd" d="M28.125 116.652C28.6133 116.484 28.3593 116.547 28.7377 116.285C29.0256 116.086 29.1407 115.972 29.5495 115.736C30.0536 115.446 30.8366 115.024 31.2577 114.854L31.1439 112.8C30.5632 113.078 28.6518 114.225 28.157 114.621L28.125 116.652Z" fill="#7C3412"/>
<path fill-rule="evenodd" clip-rule="evenodd" d="M111.074 105.584L109.899 105.202C108.98 105.643 109.392 104.854 109.227 105.885L109.319 107.358C107.983 107.085 108.148 107.286 107.706 106.297L107.485 105.333C106.847 106.191 106.72 105.908 106.88 106.979C108.331 108.284 110.114 107.748 111.37 106.705L111.074 105.584Z" fill="#181214"/>
<path fill-rule="evenodd" clip-rule="evenodd" d="M118.444 109.99C118.329 110.906 118.074 111.08 117.453 111.584C115.895 111.479 115.851 111.32 115.423 109.94C112.229 112.066 119.155 114.001 119.271 110.471L118.444 109.99Z" fill="#002541"/>
<path fill-rule="evenodd" clip-rule="evenodd" d="M126.535 127.987L126.584 126.012L124.696 126.87L124.876 129.014L126.535 127.987Z" fill="#DF0E4E"/>
<path fill-rule="evenodd" clip-rule="evenodd" d="M28.9927 117.612L29.1261 119.707L30.7739 118.776L30.9316 116.737L28.9927 117.612Z" fill="#BA6226"/>
</svg>
