<svg width="224" height="330" viewBox="0 0 224 330" fill="none" xmlns="http://www.w3.org/2000/svg">
<path d="M106.469 226.079L30.3446 269.36C24.8046 272.51 24.8046 277.617 30.3446 280.766L106.469 324.048C112.009 327.197 120.991 327.197 126.531 324.048L202.656 280.766C208.196 277.617 208.196 272.51 202.656 269.36L126.531 226.079C120.991 222.929 112.009 222.929 106.469 226.079Z" fill="#F9F9F9"/>
<path fill-rule="evenodd" clip-rule="evenodd" d="M217.921 219.419C217.736 225.236 218.036 231.129 217.915 233.541C217.823 235.373 216.654 237.108 214.367 238.408L126.134 288.573C120.835 291.586 111.456 291.183 105.29 287.677L20.2111 239.305C16.7854 237.357 15.0444 234.845 15.0811 232.481C15.1105 230.59 15.0899 222.898 15.0816 218.637C15.1212 216.755 16.2896 214.968 18.634 213.635L106.867 163.47C112.165 160.457 121.545 160.861 127.711 164.367L212.79 212.738C216.104 214.623 217.845 217.123 217.921 219.419Z" fill="#D8EAFF"/>
<path fill-rule="evenodd" clip-rule="evenodd" d="M115.948 161.286C120.037 161.303 124.351 162.293 127.711 164.203L212.789 212.575C216.104 214.46 217.845 216.96 217.921 219.256C217.736 225.073 218.036 230.966 217.915 233.377C217.823 235.21 216.654 236.944 214.366 238.245L126.134 288.41C123.798 289.738 121.371 290.272 117.372 290.43L115.948 161.286Z" fill="#C4E0FF"/>
<path d="M105.289 163.554L20.211 211.926C14.0193 215.446 14.0193 221.153 20.211 224.674L105.289 273.045C111.481 276.566 121.519 276.566 127.711 273.045L212.789 224.674C218.981 221.153 218.981 215.446 212.789 211.926L127.711 163.554C121.519 160.034 111.481 160.034 105.289 163.554Z" fill="#F5F8FF"/>
<path fill-rule="evenodd" clip-rule="evenodd" d="M213.32 209.325C213.395 212.542 213.366 216.77 213.32 217.858C213.245 219.623 212.127 221.296 209.924 222.548L125.509 270.543C120.44 273.425 111.465 273.039 105.566 269.685L24.1689 223.406C20.9181 221.558 19.2139 219.178 19.2605 216.932C19.271 216.415 19.3208 211.139 19.2655 208.575C19.2276 206.817 20.4667 205.156 22.6601 203.909L107.075 155.914C112.144 153.032 121.119 153.418 127.018 156.772L208.415 203.051C211.57 204.845 213.232 207.139 213.32 209.325Z" fill="#E3F0FF"/>
<path d="M106.027 155.583L24.6302 201.862C18.7065 205.23 18.7065 210.69 24.6302 214.058L106.027 260.337C111.951 263.705 121.555 263.705 127.479 260.337L208.876 214.058C214.8 210.69 214.8 205.23 208.876 201.862L127.479 155.583C121.555 152.215 111.951 152.215 106.027 155.583Z" fill="#F5F8FF"/>
<path fill-rule="evenodd" clip-rule="evenodd" d="M217.921 180.239C217.736 186.056 218.036 191.949 217.915 194.36C217.823 196.193 216.654 197.927 214.367 199.228L126.134 249.393C120.835 252.406 111.456 252.002 105.29 248.497L20.2111 200.125C16.7854 198.177 15.0444 195.665 15.0811 193.301C15.1105 191.41 15.0899 183.717 15.0816 179.457C15.1212 177.575 16.2896 175.788 18.634 174.455L106.867 124.29C112.165 121.277 121.545 121.681 127.711 125.186L212.79 173.558C216.104 175.443 217.845 177.943 217.921 180.239Z" fill="#D8EAFF"/>
<path fill-rule="evenodd" clip-rule="evenodd" d="M115.948 122.269C120.037 122.286 124.351 123.276 127.711 125.186L212.789 173.558C216.104 175.443 217.845 177.943 217.921 180.239C217.736 186.056 218.036 191.949 217.915 194.36C217.823 196.193 216.654 197.927 214.366 199.228L126.134 249.393C123.798 250.721 121.371 251.255 117.372 251.413L115.948 122.269Z" fill="#C4E0FF"/>
<path d="M105.289 124.374L20.211 172.746C14.0193 176.266 14.0193 181.974 20.211 185.494L105.289 233.866C111.481 237.386 121.519 237.386 127.711 233.866L212.789 185.494C218.981 181.974 218.981 176.266 212.789 172.746L127.711 124.374C121.519 120.854 111.481 120.854 105.289 124.374Z" fill="#F5F8FF"/>
<path fill-rule="evenodd" clip-rule="evenodd" d="M53.4073 41.0082L87.7753 21.538V91.8962L53.4073 111.514V41.0082Z" fill="#FEFEFE"/>
<path fill-rule="evenodd" clip-rule="evenodd" d="M29.4164 121.749L45.9447 112.377C46.9929 111.814 47.8986 111.153 49.0206 110.583C49.5641 110.027 50.2639 109.838 50.8692 109.311L50.8732 49.7823C50.0962 49.9495 50.1863 50.2603 49.4766 50.2933L49.479 39.1758L86.9627 17.5698C87.1203 16.5684 86.9926 14.3218 87.0229 13.0259C87.0582 11.5205 87.0806 11.9268 86.8125 11.7977C84.9115 12.7362 78.3445 16.7206 76.0707 17.9926C72.6078 19.9296 68.8962 22.2438 65.3052 24.219C60.03 27.1204 54.4477 30.5539 49.1527 33.5439C47.5393 34.455 45.449 35.8008 43.7852 36.5894L43.7832 53.7319L42.6764 54.2624L42.7037 28.9166C42.3564 29.4057 42.4622 29.9421 42.4685 30.5599C42.5074 34.3565 42.6251 53.9643 42.367 54.2743C42.1673 54.9403 40.8543 55.4382 39.9579 55.9762C39.5709 55.0207 39.8702 34.5622 39.8941 30.2855C39.9012 29.0118 40.0121 28.0235 40.0423 26.8709L39.9461 27.0616C39.7038 27.6845 40.1079 26.414 39.8723 27.2675C39.6609 28.0335 39.7707 55.2119 39.7625 56.034L37.2365 57.5161C35.9484 58.1603 32.3906 60.4237 31.0634 61.0746L20.0801 67.4057C19.6812 67.9715 19.15 67.7412 19.0492 68.3992L18.9736 112.324C18.9736 117.376 18.8271 122.67 18.9891 127.686C19.4964 127.521 21.2753 126.495 21.7063 126.213C24.1772 124.596 26.8436 123.316 29.4164 121.749ZM25.1669 118.822C24.7062 117.803 24.8526 116.444 24.853 115.201C24.8539 111.489 24.8458 112.179 26.7102 110.958C27.1588 110.664 27.5772 110.478 28.0314 110.221C29.0852 109.624 29.6379 108.876 30.9935 109.035C31.3687 110.166 31.1986 111.521 31.1986 112.735C31.1986 113.904 31.4429 115.347 30.5851 116.049C29.7814 116.707 27.7862 117.61 26.7703 118.282C26.0662 118.747 26.0691 118.72 25.1669 118.822ZM35.161 112.392L35.2669 111.247C36.375 110.739 39.5273 108.573 40.5966 108.42L40.5907 109.586L37.8593 111.138C37.0313 111.595 35.6131 112.646 35.161 112.392ZM32.8193 111.219C32.6701 109.394 33.1324 109.623 34.4025 108.917C34.8147 108.688 35.2092 108.406 35.5977 108.192C35.7576 108.104 35.7171 108.136 35.8658 108.048L36.1976 107.823C36.5164 107.605 36.423 107.559 36.9396 107.585L36.952 108.9C36.5571 109.24 33.532 111.073 32.8193 111.219ZM44.0108 106.413C44.0707 107.179 44.2053 107.38 43.6948 107.815C43.3459 108.112 43.0762 108.238 42.6713 108.162L42.7769 106.967L44.0108 106.413ZM39.2534 106.057C39.9669 105.669 40.8316 105.105 41.5609 104.732C42.4062 104.3 43.1733 103.585 44.0399 103.501C44.0399 105.287 44.4076 104.641 42.0584 106.012C40.9822 106.641 40.2019 107.219 39.2431 107.59L39.2534 106.057ZM29.9049 98.7654C31.5504 97.8452 31.1989 100.302 31.1979 101.231C31.1929 106.219 31.5897 104.997 28.6225 106.85C24.7727 109.254 24.8547 109.07 24.853 105.887C24.8503 101.096 24.4896 102.037 27.3809 100.239C28.0848 99.8019 29.0257 99.2572 29.9049 98.7654ZM35.5899 100.231C36.6321 99.7442 40.596 97.3599 40.8994 97.3424L40.9322 98.6067L37.0053 100.833C36.4868 101.114 36.2802 101.403 35.5899 101.438V100.231ZM33.1538 100.235C33.2305 98.109 33.1417 98.9527 34.6889 97.9726C35.3859 97.5313 36.3211 96.7807 37.3246 96.6067L37.3118 97.9437C37.0132 98.2022 33.6188 100.215 33.1538 100.235ZM43.0743 97.2062C43.1016 96.4661 42.7828 95.7121 44.4113 95.4265L44.3706 96.574C44.2078 96.7056 43.9978 96.873 43.826 96.9609C43.3737 97.193 43.5678 97.1185 43.0743 97.2062ZM31.1477 88.5664C31.2686 89.8919 31.1957 91.2621 31.1983 92.6023C31.2047 95.788 31.0562 95.0583 27.5712 97.1654C24.3116 99.1364 24.8675 98.2143 24.853 93.6971C24.8427 90.5356 25.3201 91.2277 28.545 89.2317C29.4097 88.6964 30.2275 87.9403 31.1477 88.5664ZM43.3326 92.9256C43.8218 92.6404 44.1641 92.3541 44.4332 92.5194L44.3251 93.9719C44.0054 94.1735 43.4859 94.4302 43.1345 94.6265C42.7486 94.8419 42.3789 95.0383 41.9843 95.2722C41.2748 95.6929 40.3026 96.2928 39.5952 96.5956L39.6258 95.0675L43.3326 92.9256ZM35.2948 91.8373C35.2181 90.5916 35.091 90.6471 36.0642 90.1657C37.0549 89.6759 39.7259 87.8907 40.5436 87.6876C40.7632 89.3812 40.6264 88.8032 38.3975 90.1829C37.7636 90.5754 35.921 91.7646 35.2948 91.8373ZM32.8226 90.6126C32.7653 89.7145 32.5714 89.3103 33.2783 88.8894C33.7139 88.6302 34.1101 88.4555 34.5145 88.2181C35.1184 87.8639 36.307 86.9382 36.953 86.8996L36.9339 88.3247C36.385 88.7099 33.3434 90.4917 32.8226 90.6126ZM37.588 86.439C37.8715 86.1956 38.0269 86.0103 38.5948 86.0515L38.5669 87.3978C38.2375 87.6025 37.9656 87.8362 37.5888 87.8761L37.588 86.439ZM39.2687 85.4049C40.4428 84.8431 43.2129 82.9755 44.0428 82.7484L43.9781 84.2575C43.4347 84.6362 39.7489 86.7802 39.2347 86.9177L39.2687 85.4049ZM28.0921 85.454C27.6044 84.7137 27.5984 84.5914 27.5958 83.4315L27.5979 75.8932C27.5979 72.4449 26.972 69.3713 29.3774 67.7341L38.9041 62.2005C39.5639 61.8349 41.3424 60.4832 42.2498 60.7853C43.2483 61.1179 42.9115 64.1445 42.9115 65.2103C42.9115 66.8995 42.9115 68.5887 42.9115 70.2777C42.9115 73.6473 43.5546 76.8224 41.1629 78.5541L31.6203 84.0722C30.6917 84.6112 29.4596 85.6657 28.0921 85.454Z" fill="#D1E6F6"/>
<path fill-rule="evenodd" clip-rule="evenodd" d="M109.596 67.923C109.71 69.2402 109.737 69.0759 108.784 69.615C107.94 70.0915 104.764 72.0198 104.273 72.0205L104.286 70.8257L109.596 67.923ZM101.849 70.7618C101.865 69.913 101.654 69.5142 102.268 69.121C102.778 68.7941 105.619 67.1666 106.022 67.1421L105.995 68.516C105.505 68.8988 102.43 70.6887 101.849 70.7618ZM100.083 70.2786C100.274 71.3337 100.226 72.6524 100.212 73.8419C100.184 76.4049 99.2031 76.1548 98.0081 76.9226L96.865 77.6836C96.8396 77.6981 96.8065 77.7199 96.7813 77.7345C96.7558 77.749 96.7221 77.7701 96.6966 77.7846C96.6395 77.8169 96.5577 77.8616 96.4361 77.9255C95.6367 78.3456 95.2269 78.8057 94.3766 78.7444C93.6987 77.8617 93.9646 76.9051 93.9646 74.9345C93.9646 73.4551 93.7383 72.9786 94.3146 72.1208C94.5305 71.7992 94.518 71.7802 94.8323 71.575C94.9723 71.4837 94.8722 71.5681 95.0921 71.4191C95.9012 70.8705 96.7631 70.5811 97.5418 70.0195C98.4311 69.3781 98.9524 69.5882 99.3791 68.689C99.5331 68.3646 99.5102 68.2249 99.7222 67.9469C99.9795 67.3883 100.253 66.7116 100.96 67.1108C101.32 67.4594 100.762 68.5214 100.669 68.7596C100.503 69.1816 100.15 69.8795 100.083 70.2786ZM108.288 65.6212C109.01 65.2089 112.562 63.0391 113.085 63.0842C113.146 64.0618 113.248 64.3629 112.565 64.7688L108.294 67.155L108.288 65.6212ZM104.645 59.869C105.27 59.3021 106.457 58.776 107.217 58.3486C107.769 58.0383 109.393 56.9715 109.948 57.0213C109.949 58.446 110.398 57.9182 107.651 59.4549C106.89 59.8803 105.073 61.0811 104.599 61.0341L104.645 59.869ZM102.211 58.376C102.846 58.0154 105.587 56.2424 106.32 56.1076C106.434 57.9005 106.611 57.4048 104.76 58.4535C104.115 58.8188 102.803 59.7423 102.246 59.7003L102.211 58.376ZM100.18 59.2837C100.279 60.5508 100.229 61.8724 100.231 63.156C100.233 64.6168 100.4 65.2149 99.2662 65.9774L96.7915 67.3677C95.5983 68.0312 95.6775 68.3543 94.321 68.4895C94.1797 68.0617 94.489 68.4253 93.9782 68.1053C93.8581 66.9282 93.9223 65.5862 93.9202 64.3886C93.9181 63.2257 93.7677 62.0596 94.5428 61.4091C95.0508 60.9831 97.7291 59.6299 98.6228 59.0469C98.873 58.8836 98.883 59.0272 99.0108 58.6867C99.6405 57.8522 99.7531 55.9539 101 56.2678C101.306 57.4198 100.385 58.2982 100.18 59.2837ZM93.8925 52.3361C93.8925 51.1133 96.2357 50.0871 97.1054 49.5966L97.6337 49.3016C97.805 49.208 97.9213 49.156 98.0852 49.0662C98.377 48.9062 98.7018 48.6109 99.0817 48.5089C100.52 48.1223 100.224 49.2596 100.224 50.2818C100.222 51.453 100.427 54.5396 99.8461 55.2106L95.4513 57.9077C95.1563 58.0595 94.8699 58.1728 94.3766 58.1975C93.96 57.7887 93.8925 57.833 93.8925 57.1297V52.3361ZM108.654 54.6644C109.391 54.1509 112.814 52.1057 113.426 52.0321L113.414 53.4521L111.002 54.8682C110.352 55.2578 109.282 55.9216 108.635 56.1646L108.654 54.6644ZM104.329 50.1447C105.008 49.6526 106.113 49.1602 106.912 48.712C107.683 48.2793 108.741 47.6327 109.584 47.2668L109.649 48.3643C109.62 48.3904 109.578 48.4208 109.557 48.4372L108.099 49.368C104.594 51.2353 104.062 52.2467 104.329 50.1447ZM101.867 48.7107C102.896 48.3055 104.984 46.6073 105.986 46.5406L106.029 47.8437C105.276 48.326 102.722 49.918 101.856 50.1768L101.867 48.7107ZM111.83 45.899C112.25 45.683 112.519 45.4652 113.076 45.4012V46.4468L111.762 47.1382L111.83 45.899ZM108.296 45.018C108.862 44.5838 112.845 42.3244 112.997 42.338C113.48 43.998 112.658 44.0815 111.192 44.91C110.62 45.2336 110.218 45.4286 109.714 45.754C109.16 46.1107 108.674 46.5104 108.263 46.4921L108.296 45.018ZM95.071 32.7509C95.071 31.5403 94.9945 30.8206 95.584 29.8669C96.3899 28.563 98.3647 27.7731 99.6467 27.0778L105.997 23.4129C107.248 22.7516 110.134 20.4976 110.134 22.7527V36.3118C110.134 38.8864 107.919 39.7542 105.449 41.075C103.478 42.1285 101.632 43.4647 99.6067 44.4177C97.8514 45.2434 96.8819 46.5824 95.3352 46.2177C94.8309 45.2618 95.071 34.432 95.071 32.7509ZM117.253 11.084C116.799 11.1519 111.6 14.2749 110.846 14.7073C110.226 15.0621 109.904 15.2724 109.286 15.609C108.722 15.9162 108.253 16.2647 107.655 16.5599L91.5352 25.9389C91.0916 26.5791 91.3026 39.9118 91.3026 40.5576C91.3026 55.4663 91.196 70.5541 91.3024 85.4204C92.3083 85.3917 96.6758 82.5682 97.9959 81.8366L107.615 76.2731C108.405 75.8861 108.528 75.7506 109.258 75.4038L109.739 75.0908C111.111 74.1605 113.178 73.1605 114.831 72.1114L117.235 70.7092C117.592 70.3111 117.612 70.3435 118.142 70.2406C118.256 69.193 118.095 57.2177 118.322 56.7188C119.078 55.9034 119.303 56.9415 119.303 55.076C118.466 55.1839 119.017 55.1196 118.574 55.2626C118.345 55.3365 118.691 55.3555 118.161 55.3906C118.161 55.2776 118.21 55.0147 118.326 54.8557C118.531 54.5732 118.365 54.7909 118.554 54.6241C118.675 54.518 118.61 54.9275 118.758 54.4751C118.777 54.4158 118.834 54.4289 118.868 54.4004C118.317 54.4581 117.991 54.6191 118.292 53.7513C118.466 53.2483 118.238 53.7511 118.577 53.3881C118.737 53.2163 118.58 53.5492 118.856 53.0946L118.251 53.3651C118.151 52.2858 118.227 50.5001 118.277 49.1861C118.724 48.9012 119.154 48.7411 119.576 48.5006V47.4062C118.912 47.492 119.138 47.4457 118.655 47.6847C118.472 47.7753 118.37 47.8714 118.083 47.9384C118.346 47.1757 118.087 46.5756 118.159 45.7651L118.37 44.3639C118.363 44.3475 118.29 44.2887 118.258 44.2556V42.338C119.083 41.7953 119.296 42.2416 119.303 40.8321C118.527 40.8464 118.548 40.8789 117.96 41.1823C118.267 40.6212 118.128 40.7015 118.316 40.1738L118.164 40.0861C118.381 39.378 118.262 39.4676 118.648 38.8992C118.258 38.8599 118.502 38.9688 118.279 38.7771C118.265 38.0449 118.271 37.3159 118.262 36.5781C118.25 35.6289 117.873 35.4415 118.649 34.9713C118.051 34.9237 118.253 35.1637 118.174 34.4161L118.206 31.7922C118.375 31.6408 117.947 31.6255 118.589 31.6462C118.018 31.445 118.176 31.5171 118.187 30.0119C118.197 28.6533 117.986 24.5445 118.361 23.9952C118.232 23.8072 118.307 23.9919 118.238 23.6874C118.204 23.5331 118.205 23.4718 118.199 23.312C118.188 23.0642 118.212 22.7125 118.212 22.4494C117.851 21.6826 118.36 12.5371 118.086 10.6625C117.521 10.8096 117.746 10.7772 117.253 11.084Z" fill="#D1E6F6"/>
<path fill-rule="evenodd" clip-rule="evenodd" d="M13.1705 115.201C13.1705 112.849 13.2318 113.101 14.706 112.224C15.3648 111.833 16.828 110.706 17.674 111.115L17.8331 114.105C17.8139 116.34 17.5383 115.94 15.2542 117.302C12.7988 118.767 13.1705 117.861 13.1705 115.201ZM17.7243 108.49C17.4545 109.12 14.9054 110.565 14.255 110.843C13.0164 111.372 13.1584 110.199 13.1671 109.312C13.1986 106.127 12.7926 106.272 14.8456 105.11C17.0945 103.838 17.8498 102.962 17.8358 105.612C17.8327 106.215 17.9074 108.062 17.7243 108.49ZM13.2829 103.545C13.1472 102.577 13.1624 101.839 13.1708 100.82C13.1915 98.2554 13.1193 98.8785 15.4979 97.4119C18.213 95.7379 17.8363 96.8248 17.8346 99.3133C17.8328 101.777 17.8201 101.532 15.5208 102.788C14.8819 103.136 14.3069 103.732 13.2829 103.545ZM16.3359 81.7823C17.9837 80.9531 17.6641 82.3059 17.6623 83.9737L17.6303 92.9177C17.5319 93.4441 17.3941 93.6474 17.0583 94.0159C16.5085 94.6195 13.3824 96.1994 12.3095 96.8485L8.85902 98.8547C6.37386 100.454 6.60777 99.3508 6.60432 97.1219L6.60622 89.8629C6.6255 88.5783 6.51066 87.7383 7.28958 87.0098C7.84294 86.492 11.0177 84.8194 12.0574 84.2006C12.6829 83.8283 13.5729 83.2301 14.1806 83.0279C14.5825 82.8942 14.858 82.5737 15.2412 82.3432L16.3359 81.7823ZM18.9892 127.686C18.8272 122.67 18.9737 117.376 18.9737 112.324L19.0493 68.3992C19.1501 67.7411 19.6813 67.9715 20.0802 67.4056C19.3788 67.5688 19.3421 67.8563 18.7641 67.9494C18.6981 69.786 19.1433 74.4129 18.6777 76.0301L14.5972 78.2761C14.3452 78.4286 14.4757 78.3345 14.2936 78.4177C13.8332 78.628 14.2572 78.3019 13.7881 78.7195C12.6151 79.7633 12.7444 79.051 12.0182 79.8303C11.701 80.1706 12.2112 79.8554 11.5685 80.1539C11.2316 80.3105 11.1595 80.3352 10.8993 80.4669C10.4109 80.7137 10.5864 80.6434 10.2874 80.83L4.35609 84.2008C4.34583 84.2075 4.03241 84.4023 4.01613 84.4139C3.77374 84.5849 4.03531 84.3924 3.78578 84.5994C3.28493 85.0149 2.07385 85.4984 1.42549 85.9534C1.40052 85.9708 1.36718 85.9938 1.34231 86.011L1.09803 86.176C0.624942 86.4827 0.663407 86.3665 0.35233 86.7899C0.0201794 87.242 0.411869 86.7405 0.187648 87.0316L0 130.067C0.620483 129.981 1.0212 129.87 1.46898 129.527C3.23398 128.174 2.53366 129.018 4.16587 127.989L10.4496 124.266C11.8002 123.502 11.2312 123.71 12.5196 123.166C12.9021 123.005 14.9356 121.631 16.2417 121.006C16.5592 120.854 16.2776 120.991 16.5014 120.859L18.8066 119.506C18.8592 120.153 18.6403 127.349 18.9892 127.686Z" fill="#E5F1FD"/>
<path fill-rule="evenodd" clip-rule="evenodd" d="M42.704 28.9167L42.6766 54.2625L43.7835 53.732L43.7855 36.5895C45.4492 35.8009 47.5396 34.4551 49.153 33.5441C54.448 30.554 60.0303 27.1205 65.3055 24.2191C68.8965 22.2439 72.6081 19.9297 76.071 17.9928C78.3447 16.7207 84.9118 12.7363 86.8127 11.7979C87.4722 11.4326 87.0814 11.7552 87.1486 11.7961L87.1199 21.3767C87.2296 21.6268 86.6186 21.7952 87.4971 21.6857C88.2265 21.1389 88.0201 21.3799 88.0238 20.2876L88.0112 5.63295C88.0113 3.90964 88.3399 2.33586 87.0094 1.74236C85.6605 1.6448 82.2981 3.92035 80.985 4.70763L47.0263 24.4418C44.6107 25.8737 43.764 25.9304 42.704 28.9167Z" fill="#2D4281"/>
<path fill-rule="evenodd" clip-rule="evenodd" d="M122.742 54.7631C122.312 53.9984 122.358 50.7655 122.557 50.2525C122.891 49.3913 124.711 48.7053 125.548 48.1806C125.981 47.9094 126.151 47.8242 126.718 47.8262C127.24 48.7974 127.036 48.5814 127.044 50.2817C127.058 53.2008 127.186 52.3474 125.017 53.7957L124.858 53.907C124.316 54.2486 123.347 54.777 122.742 54.7631ZM118.508 46.8785L118.499 45.8741C119.277 45.4595 121.003 44.2627 121.836 44.1613C121.796 45.4943 121.786 45.1157 120.499 45.8623C120.029 46.135 119.113 46.8093 118.508 46.8785ZM122.648 47.5426C122.346 46.8997 122.443 45.6593 122.445 44.8032C122.448 43.6609 122.292 43.0535 123.034 42.5088L125.707 40.9336C126.215 40.6593 126.334 40.563 126.973 40.7758C127.113 41.2792 127.038 42.8152 127.041 43.4341C127.05 45.806 127.019 45.3826 124.617 46.8314C123.925 47.2487 123.382 47.7622 122.648 47.5426ZM126.986 33.4434L127.047 37.6834C126.945 38.6151 125.879 38.9942 124.702 39.6567C122.573 40.8552 122.366 41.1715 122.41 37.8185C122.446 35.1251 122.19 35.7852 124.876 34.2052C126.145 33.4591 125.572 33.9493 126.386 32.6791C126.577 32.1156 126.661 32.0215 127.247 32.0443C127.499 32.5964 127.202 32.8583 126.986 33.4434ZM118.262 36.578C118.272 37.3158 118.265 38.0449 118.28 38.7771C118.502 38.9688 118.258 38.8598 118.649 38.8992C119.515 38.5859 120.74 37.5303 121.611 37.3921L121.587 38.3665C121.246 38.6171 118.626 40.1325 118.317 40.1737C118.129 40.7014 118.267 40.6212 117.96 41.1822C118.548 40.8788 118.527 40.8464 119.303 40.8321C119.296 42.2415 119.084 41.7952 118.259 42.338V44.2555C118.29 44.2886 118.364 44.3475 118.37 44.3639L118.159 45.7651C118.087 46.5756 118.346 47.1756 118.083 47.9384C118.37 47.8714 118.472 47.7753 118.655 47.6846C119.138 47.4457 118.912 47.492 119.577 47.4062V48.5006C119.154 48.7411 118.724 48.9012 118.277 49.186C118.227 50.5 118.151 52.2858 118.251 53.3651L118.856 53.0946C119.797 52.9302 120.736 51.8767 121.598 51.7905L121.556 52.8853C121.077 53.0429 119.123 54.0924 118.868 54.4003C118.834 54.4289 118.777 54.4157 118.758 54.475C118.611 54.9275 118.675 54.518 118.555 54.6241C118.365 54.7909 118.531 54.5731 118.326 54.8557C118.21 55.0147 118.161 55.2776 118.161 55.3905C118.691 55.3554 118.345 55.3365 118.574 55.2625C119.017 55.1196 118.466 55.1838 119.303 55.076C119.303 56.9415 119.078 55.9033 118.322 56.7188C118.096 57.2176 118.256 69.193 118.142 70.2405C117.612 70.3434 117.593 70.3111 117.235 70.7092L118.225 70.3089L118.298 61.5123L120.279 60.55C120.765 60.2756 120.205 60.5896 120.45 60.4456L123.154 58.7983C123.295 58.7204 123.389 58.6824 123.532 58.6057C124.678 57.993 126.09 56.8733 127.225 56.4282L128.856 55.4624C128.892 55.4409 129.004 55.3806 129.041 55.3582C129.07 55.3405 129.104 55.3205 129.132 55.3025C130.166 54.6425 130.518 54.5697 131.409 54.1166L131.444 10.4969L129.651 11.4598C129.023 11.7981 130.291 11.2289 129.438 11.5479C129.177 11.6452 129.198 11.5753 128.908 11.7135C128.883 11.7255 128.849 11.7457 128.825 11.7592C128.802 11.7723 128.77 11.7965 128.747 11.8109L128.109 12.2635C127.002 13.0587 127.729 12.2346 126.48 13.2168C126.354 13.3156 126.286 13.3592 126.167 13.4449L124.875 14.2031C124.492 14.3895 124.417 14.5124 124.113 14.6854L119.932 17.0632C119.547 17.3594 119.382 17.3019 119.03 17.5646C118.641 17.8544 118.846 18.0099 118.294 17.9918C118.294 16.5559 118.461 11.5074 118.185 10.4877C117.61 10.5258 117.539 10.623 117.253 11.084C117.747 10.7771 117.521 10.8096 118.086 10.6625C118.36 12.5371 117.901 35.8113 118.262 36.578Z" fill="#E5F1FD"/>
<path fill-rule="evenodd" clip-rule="evenodd" d="M49.0208 110.583C49.8776 110.357 49.5881 110.569 50.373 110.087L52.6333 108.785C52.7966 108.695 53.0037 108.609 53.1757 108.485C53.8281 108.012 53.4328 108.019 53.4319 108.017C53.704 108.697 53.6511 109.004 53.6379 109.722L53.7624 111.382L53.6925 42.2011C53.6968 41.0445 53.316 41.3884 55.1348 40.3692L70.2552 31.6416C75.0752 28.8577 80.5417 25.5915 85.2801 22.9751C85.6607 22.7651 85.9339 22.5937 86.325 22.3629L87.1196 21.9456C87.149 21.9285 87.1841 21.9087 87.2125 21.8908L87.497 21.6856C86.6185 21.7951 87.2295 21.6267 87.1198 21.3766L87.1485 11.796C87.0814 11.7551 87.4722 11.4325 86.8127 11.7978C87.0808 11.9269 87.0584 11.5206 87.0231 13.0259C86.9928 14.3218 87.1205 16.5684 86.9629 17.5699L49.4792 39.1758L49.4768 50.2933C50.1865 50.2603 50.0964 49.9496 50.8734 49.7823L50.8694 109.311C50.2641 109.838 49.5643 110.027 49.0208 110.583Z" fill="#8196D5"/>
<path fill-rule="evenodd" clip-rule="evenodd" d="M53.7624 111.382L53.6379 109.722C53.6511 109.004 53.704 108.697 53.4319 108.017C53.4328 108.019 53.8281 108.012 53.1757 108.485C53.0037 108.609 52.7966 108.695 52.6333 108.785L50.373 110.087C49.5881 110.569 49.8776 110.357 49.0208 110.583C47.8988 111.153 46.9931 111.814 45.9449 112.377L42.7548 114.105C42.6048 115.679 42.7196 117.811 42.72 119.446C42.7217 124.872 43.7502 123.687 51.3235 119.115C53.3544 117.889 55.8658 116.456 58.0821 115.203C67.0407 110.138 76.1951 104.662 85.1144 99.4948C88.8465 97.3327 87.9121 94.629 88.0851 91.7106L87.5818 91.7991C87.2476 92.1907 80.54 95.9189 79.1871 96.7136L70.6725 101.633C65.3646 104.501 59.2504 108.325 53.7624 111.382Z" fill="#2D4281"/>
<path fill-rule="evenodd" clip-rule="evenodd" d="M79.9592 33.6455C78.5877 33.9634 70.6835 38.8989 68.6467 40.0166C65.0629 41.9833 63.4299 42.5875 63.4383 46.7206L63.4388 58.6363C63.4388 60.2334 62.9309 63.3314 65.1436 62.8362C65.7199 62.7072 66.5825 62.1231 67.0725 61.8625C68.8261 60.93 79.4366 54.815 80.1514 54.1363C81.2659 53.0783 81.6011 51.7764 81.5966 49.7342L81.5963 37.8184C81.5963 36.1332 82.0883 33.1517 79.9592 33.6455Z" fill="#8DC1FC"/>
<path fill-rule="evenodd" clip-rule="evenodd" d="M99.0334 36.7155C98.7774 36.3216 98.3259 34.5351 98.1506 33.936C97.678 32.3193 97.8498 32.2399 99.0644 31.5603C105.192 28.1311 104.929 27.643 104.602 31.0713C104.503 32.1058 104.591 33.6013 104.028 34.1896C103.678 34.5557 101.23 35.8239 100.462 36.2361C99.8412 36.569 99.7834 36.7966 99.0334 36.7155ZM104.179 36.7033C104.297 37.3017 104.435 37.8898 104.14 38.4173C103.791 39.0419 103.534 39.2382 102.809 38.9627C102.743 38.4205 102.813 37.9895 102.938 37.6065C102.246 37.6993 102.467 37.7417 101.891 38.0674C101.561 38.2543 101.251 38.4118 101 38.5562C101.752 40.1138 100.467 40.8719 100.129 40.844C99.2238 40.7694 99.9683 39.8422 99.7035 39.3136C99.5785 39.064 99.1322 38.8429 99.6759 38.3351C100.044 37.9911 103.965 35.907 104.547 35.6156C104.585 33.7901 104.909 31.9576 105.057 30.1484C105.215 28.2191 105.299 28.6347 106.394 26.9686C106.675 26.541 106.731 26.3019 107.251 26.3371C107.446 26.9614 106.612 27.8457 106.227 28.4408C105.692 29.2689 105.788 30.15 105.665 31.3042C105.55 32.3796 105.471 33.3221 105.343 34.3657C105.161 35.8489 105.528 36.2159 104.179 36.7033ZM95.0713 32.7509C95.0713 34.4319 94.8312 45.2618 95.3355 46.2176C96.8822 46.5823 97.8517 45.2434 99.607 44.4176C101.633 43.4647 103.478 42.1285 105.449 41.0749C107.92 39.7541 110.134 38.8863 110.134 36.3118V22.7527C110.134 20.4975 107.248 22.7516 105.997 23.4129L99.647 27.0778C98.365 27.7731 96.3902 28.5629 95.5843 29.8669C94.9948 30.8205 95.0713 31.5402 95.0713 32.7509Z" fill="#C7C7FC"/>
<path fill-rule="evenodd" clip-rule="evenodd" d="M29.653 82.5649C29.5525 81.7167 30.4308 79.2559 30.7159 78.3946C31.1242 77.1612 32.1546 76.1173 32.9175 75.2372C33.7443 74.2834 34.4568 75.6328 36.494 73.4784C37.1171 72.8195 36.9667 72.4836 38.221 72.4984C39.4049 72.5122 39.553 72.5548 40.0036 73.4375C41.731 76.8208 41.0965 76.1699 36.6755 78.872C35.7772 79.421 30.4532 82.6747 29.653 82.5649ZM36.112 66.2382C38.2472 65.6662 37.9584 69.0821 37.4806 70.5075C37.0929 71.6647 35.9102 73.6284 34.4996 73.7785C31.5748 74.0898 32.3096 67.2572 36.112 66.2382ZM28.0922 85.454C29.4597 85.6657 30.6918 84.6112 31.6204 84.0722L41.163 78.5541C43.5547 76.8225 42.9116 73.6473 42.9116 70.2778C42.9116 68.5887 42.9116 66.8995 42.9116 65.2103C42.9116 64.1445 43.2484 61.1179 42.2499 60.7853C41.3425 60.4833 39.564 61.835 38.9042 62.2006L29.3775 67.7342C26.9721 69.3713 27.598 72.445 27.598 75.8932L27.5959 83.4316C27.5984 84.5915 27.6045 84.7138 28.0922 85.454Z" fill="#FFBB00"/>
<path fill-rule="evenodd" clip-rule="evenodd" d="M61.011 13.8504C61.2076 13.1595 64.0529 11.7374 64.7708 11.3499C66.4109 10.4644 68.134 8.94444 68.9506 10.2895C68.6958 10.8988 67.7373 11.2443 67.0916 11.6413C66.4114 12.0599 65.8254 12.3753 65.1823 12.7367C64.1067 13.3412 61.9701 15.1023 61.011 13.8504ZM40.1415 26.3304C40.735 26.0995 40.3213 26.1799 40.5628 26.3138C40.398 27.0461 40.2844 26.8563 40.2463 27.9543C40.5166 27.9585 40.8595 27.9371 41.1137 27.9514C41.2909 27.9612 41.3139 27.9625 41.484 27.9971L42.4584 28.3682C42.0329 29.5084 42.3802 44.3258 42.3974 47.6794C42.4054 49.2787 42.5876 52.9403 42.3672 54.2743C42.6253 53.9644 42.5077 34.3566 42.4688 30.56C42.4624 29.9422 42.3566 29.4058 42.7039 28.9166C43.7639 25.9303 44.6106 25.8736 47.0262 24.4417L80.985 4.70754C82.2981 3.92026 85.6605 1.64471 87.0094 1.74227C87.027 1.22771 86.8889 1.32794 86.4316 1.10395C86.0787 0.931013 85.947 0.838024 85.6616 0.671335C83.4538 -0.617127 83.3082 0.0971231 80.8632 1.56209C80.2859 1.90784 79.8659 2.03774 79.3472 2.36955L74.8277 4.99843C74.1943 5.30605 73.8875 5.53975 73.3502 5.8302C73.1625 5.93156 72.8507 6.04049 72.5678 6.17941L66.7641 9.65456C65.2188 10.3494 66.896 9.30747 65.941 10.0797L58.8183 14.168C58.3247 14.4475 57.9492 14.7745 57.4289 15.1109L48.4331 20.2139C47.9712 20.5366 47.3519 20.7803 46.9033 21.0353C46.1144 21.4835 42.4037 23.5269 41.7635 24.1068C41.0888 24.7182 40.4318 25.3157 40.1415 26.3304Z" fill="#E8E7EB"/>
<path fill-rule="evenodd" clip-rule="evenodd" d="M103.857 103.675C103.015 101.324 105.779 102.11 105.931 102.176C106.548 102.445 108.201 107.513 108.193 108.121C107.458 108.626 107.325 108.749 106.189 108.614C104.466 108.408 100.793 108.037 99.8167 107.443C99.8349 105.364 102.56 106.733 104.901 106.694C104.777 105.904 104.149 104.489 103.857 103.675ZM93.6913 105.905L93.6807 106.254C94.0251 106.37 101.137 110.537 101.357 110.75C102.098 110.946 103.105 111.872 103.638 111.823C105.815 112.423 107.529 110.23 109.055 109.659C110.144 109.252 109.396 109.306 110.349 108.892C111.679 108.315 112.105 107.895 113.182 107.312L114.373 106.643C114.805 106.373 114.314 106.498 115.089 106.263L115.03 105.494C114.715 105.421 110.536 102.873 109.756 102.436C108.516 101.742 105.379 99.5821 104.102 99.7393C103.302 99.8377 97.423 103.405 95.9674 104.224C95.3455 104.575 93.8528 105.218 93.6913 105.905Z" fill="#04F4D1"/>
<path fill-rule="evenodd" clip-rule="evenodd" d="M16.3357 81.7824L15.241 82.3432C14.8578 82.5738 14.5823 82.8942 14.1803 83.0279C13.5727 83.2302 12.6827 83.8284 12.0572 84.2007C11.0175 84.8195 7.84273 86.492 7.28937 87.0098C6.51045 87.7384 6.62529 88.5784 6.606 89.8629L6.6041 97.122C6.60756 99.3509 6.37364 100.454 8.85881 98.8547L12.3093 96.8486C13.3821 96.1994 16.5083 94.6195 17.0581 94.016C17.3939 93.6475 17.5317 93.4441 17.6301 92.9177L17.6621 83.9738C17.6639 82.306 17.9835 80.9532 16.3357 81.7824Z" fill="#D1E6F6"/>
<path fill-rule="evenodd" clip-rule="evenodd" d="M85.6863 116.128C85.6863 114.587 85.3006 113.313 87.2517 113.367C89.0286 113.416 88.6053 114.664 88.6053 116.178C89.9479 116.199 93.0492 115.659 93.5132 116.998C93.2078 118.458 89.9012 117.85 88.6042 117.903C88.606 119.52 88.8526 120.444 87.6379 120.681C86.705 120.863 86.2338 120.582 85.6905 120.148L85.7024 117.897C84.2604 117.858 80.8268 118.456 80.815 116.861C81.4204 115.69 84.3501 116.37 85.6863 116.128ZM76.1552 117.023C76.8128 117.556 83.3099 121.342 83.9745 121.57C86.4885 122.574 85.8857 123.893 89.5468 121.761L97.0308 117.428C97.2497 117.326 97.0322 117.676 97.2323 117.266C97.309 117.108 97.341 116.969 97.3854 116.855L97.4556 119.987C97.6741 119.685 97.5581 120.01 97.5996 119.468C97.6147 119.273 97.5893 118.867 97.5893 118.644C97.5896 118.096 97.6086 117.556 97.6046 117.004C97.4927 116.009 96.0571 115.574 95.2996 115.112C94.4728 114.607 93.4751 114.061 92.6128 113.557C86.7515 110.132 87.3731 109.894 83.9756 111.951C83.0895 112.487 82.1168 113 81.2627 113.488C80.4341 113.962 79.3901 114.589 78.5033 115.104C77.1659 115.88 76.229 116.076 76.1552 117.023Z" fill="#EEDE20"/>
<path fill-rule="evenodd" clip-rule="evenodd" d="M40.1415 26.3305L40.0426 26.871C40.0124 28.0235 39.9014 29.0119 39.8943 30.2856C39.8704 34.5623 39.5712 55.0207 39.9582 55.9763C40.8545 55.4383 42.1675 54.9403 42.3672 54.2744C42.5876 52.9403 42.4054 49.2787 42.3974 47.6794C42.3802 44.3258 42.0329 29.5085 42.4584 28.3682L41.484 27.9971C41.3139 27.9626 41.2909 27.9612 41.1137 27.9514C40.8595 27.9371 40.5166 27.9585 40.2463 27.9543C40.2844 26.8563 40.398 27.0462 40.5628 26.3139C40.3213 26.1799 40.735 26.0996 40.1415 26.3305Z" fill="#CACAD7"/>
<path fill-rule="evenodd" clip-rule="evenodd" d="M29.653 82.5649C30.4532 82.6748 35.7772 79.421 36.6755 78.872C41.0965 76.1699 41.7309 76.8208 40.0036 73.4375C39.5529 72.5548 39.4049 72.5122 38.221 72.4984C36.9666 72.4837 37.1171 72.8195 36.494 73.4785C34.4567 75.6328 33.7443 74.2835 32.9175 75.2372C32.1545 76.1174 31.1242 77.1612 30.7159 78.3946C30.4308 79.2559 29.5525 81.7168 29.653 82.5649Z" fill="#FDFDFD"/>
<path fill-rule="evenodd" clip-rule="evenodd" d="M83.9744 121.57L84.2033 121.798C85.4555 122.88 85.2452 122.072 85.1358 123.171C84.9134 125.407 85.4631 124.709 85.6386 125.481L85.0679 125.288C85.9699 126.525 87.3812 126.059 88.5517 125.421L94.6507 121.935C95.2677 121.583 97.3584 120.603 97.4555 119.987L97.3853 116.855C97.3409 116.969 97.3089 117.108 97.2322 117.266C97.0322 117.676 97.2496 117.326 97.0307 117.429L89.5467 121.761C85.8856 123.893 86.4884 122.574 83.9744 121.57Z" fill="#FFBB00"/>
<path fill-rule="evenodd" clip-rule="evenodd" d="M85.6865 116.128C84.3503 116.37 81.4206 115.69 80.8152 116.861C80.827 118.456 84.2607 117.858 85.7027 117.897L85.6907 120.148C86.2341 120.582 86.7053 120.863 87.6382 120.681C88.8528 120.444 88.6063 119.521 88.6044 117.903C89.9014 117.85 93.208 118.458 93.5134 116.998C93.0494 115.659 89.9482 116.199 88.6055 116.178C88.6055 114.664 89.0289 113.417 87.2519 113.367C85.3008 113.313 85.6865 114.587 85.6865 116.128Z" fill="#FDFDFD"/>
<path fill-rule="evenodd" clip-rule="evenodd" d="M99.0334 36.7155C99.7833 36.7966 99.8412 36.569 100.462 36.2361C101.23 35.8239 103.677 34.5557 104.028 34.1897C104.591 33.6013 104.503 32.1058 104.602 31.0713C104.929 27.643 105.192 28.1311 99.0644 31.5604C97.8497 32.2399 97.6779 32.3193 98.1505 33.936C98.3258 34.5351 98.7774 36.3216 99.0334 36.7155Z" fill="#FDFDFD"/>
<path fill-rule="evenodd" clip-rule="evenodd" d="M58.1012 56.7188L59.6412 53.3439C59.9117 52.7914 60.1288 52.3253 60.4273 51.6839C61.5647 49.2395 59.4359 49.0756 58.7593 49.5858C58.4545 49.8158 55.7172 55.6709 55.4806 56.2961C55.0447 57.4477 55.7363 58.0136 57.0871 59.3573C57.9911 60.2565 58.8074 61.8356 60.1075 61.0677C60.6325 60.7575 60.8335 59.9519 60.492 59.3817C60.215 58.9192 58.6131 57.4215 58.1012 56.7188Z" fill="#C7C7FC"/>
<path fill-rule="evenodd" clip-rule="evenodd" d="M85.1111 34.5452C83.6426 35.3714 85.3482 36.9057 85.8563 37.4352C87.3947 39.0384 87.2488 38.5986 86.3361 40.5884C85.8175 41.7188 85.3469 42.7153 84.7619 43.9445C83.7267 46.1196 85.7778 46.8 86.6242 45.815L89.756 39.2367C90.1012 38.2721 89.7184 37.9176 89.2851 37.4306C88.8285 36.9175 88.4695 36.5511 88.0831 36.167C87.3888 35.4766 86.5263 33.749 85.1111 34.5452Z" fill="#C7C7FC"/>
<path fill-rule="evenodd" clip-rule="evenodd" d="M103.638 111.823C104.122 112.389 104.207 111.936 105.416 112.615C105.294 112.95 105.568 112.6 105.085 112.914L104.883 113.848L105.383 114.122C105.076 114.351 105.123 114.382 104.727 114.49C104.759 114.519 104.817 114.505 104.838 114.56C104.99 114.962 104.771 114.444 105.426 114.822C106.181 114.583 110.193 112.124 111.231 111.541C112.155 111.022 113.211 110.412 114.114 109.904C114.712 109.568 115.04 109.508 115.11 108.655C115.164 107.986 115.127 106.945 115.088 106.263C114.313 106.498 114.804 106.373 114.372 106.643L113.182 107.312C112.104 107.895 111.679 108.315 110.349 108.892C109.396 109.306 110.144 109.252 109.055 109.659C107.529 110.23 105.814 112.423 103.638 111.823Z" fill="#03DFC3"/>
<path fill-rule="evenodd" clip-rule="evenodd" d="M76.1545 117.332C76.1384 119.832 75.8208 120.102 76.9447 120.724C77.9492 121.28 84.3932 125.195 85.0681 125.288L85.6388 125.481C85.4633 124.709 84.9136 125.407 85.136 123.171C85.2454 122.072 85.4557 122.88 84.2035 121.798L83.9746 121.57C83.31 121.342 76.8129 117.556 76.1553 117.023L76.1545 117.332Z" fill="#FFBB00"/>
<path fill-rule="evenodd" clip-rule="evenodd" d="M36.1121 66.2382C32.3097 67.2572 31.5748 74.0897 34.4996 73.7784C35.9103 73.6283 37.093 71.6647 37.4806 70.5074C37.9585 69.082 38.2473 65.6662 36.1121 66.2382Z" fill="#FDFDFD"/>
<path fill-rule="evenodd" clip-rule="evenodd" d="M25.5866 118.105L29.8006 115.674C30.757 115.088 30.4888 114.421 30.487 113.146C30.4855 112.093 30.5609 110.786 30.469 109.769C30.1106 109.777 26.8152 111.667 26.2856 112.012C25.3395 112.629 25.5476 113.409 25.55 114.653C25.5519 115.657 25.4668 117.168 25.5866 118.105Z" fill="#E5F1FD"/>
<path fill-rule="evenodd" clip-rule="evenodd" d="M25.5934 107.708L29.8543 105.33C30.6986 104.746 30.4835 103.983 30.4876 102.737C30.5015 98.4838 31.4334 98.7646 26.3347 101.659C25.277 102.259 25.5479 102.874 25.5506 104.244C25.5528 105.393 25.4863 106.569 25.5934 107.708Z" fill="#E5F1FD"/>
<path fill-rule="evenodd" clip-rule="evenodd" d="M25.5707 97.341C26.151 97.2011 27.3139 96.5182 27.8432 96.2095C29.5134 95.2361 30.401 95.0073 30.4725 93.9631L30.4519 89.1188C30.0068 89.0943 26.8012 91.063 26.2924 91.3599C25.835 91.6268 25.6665 91.7115 25.5735 92.322L25.5707 97.341Z" fill="#E5F1FD"/>
<path fill-rule="evenodd" clip-rule="evenodd" d="M101.906 113.985L102.544 113.904C102.545 113.566 102.543 113.229 102.54 112.889L102.573 112.089C102.63 111.817 102.598 111.919 102.688 111.772C101.829 111.29 101.605 111.258 101.357 110.749C101.137 110.537 94.0249 106.369 93.6805 106.254C93.6997 110.243 93.0118 108.882 96.7874 111.155C97.45 111.554 101.483 113.968 101.906 113.985Z" fill="#02AB91"/>
<path fill-rule="evenodd" clip-rule="evenodd" d="M104.9 106.694C102.56 106.733 99.8347 105.364 99.8165 107.443C100.792 108.037 104.466 108.408 106.189 108.614C107.325 108.749 107.458 108.626 108.193 108.121C108.201 107.513 106.548 102.445 105.931 102.176C105.779 102.11 103.015 101.324 103.857 103.676C104.148 104.489 104.777 105.904 104.9 106.694Z" fill="#FDFDFD"/>
<path fill-rule="evenodd" clip-rule="evenodd" d="M67.5027 69.1947C66.3607 71.4389 66.1413 73.9791 64.4725 73.9678C64.0448 73.3205 63.2984 72.4536 62.7437 71.7779C62.0198 70.896 62.5184 69.4592 63.9073 69.405C64.2168 69.8343 64.8069 70.7787 65.2043 70.896C65.5062 70.3114 66.7535 67.3865 66.7843 66.96C66.726 66.7331 66.8235 66.8142 66.6397 66.7991C65.9333 67.4972 62.7255 68.9034 62.0575 69.6032C61.4365 70.254 61.7034 71.8687 61.701 72.8801L61.6834 75.7701C61.7055 76.8863 61.8564 76.5995 62.7015 76.126L66.1053 74.1956C66.93 73.7298 67.6559 73.4923 67.7551 72.4641C67.8296 71.6928 67.85 69.7457 67.7637 68.9954C67.6437 69.3153 67.683 69.0853 67.5027 69.1947Z" fill="#FDFDFD"/>
<path fill-rule="evenodd" clip-rule="evenodd" d="M67.5188 94.4284C66.7721 95.8827 65.8564 99.5267 64.6566 99.2297C64.2319 98.9771 63.1027 97.4848 62.7127 97.0068C61.9212 96.0366 62.7281 94.7124 63.8793 94.6549C64.4983 95.2556 64.7411 96.0084 65.2045 96.1211C65.5235 95.5675 66.7817 92.5792 66.8195 92.1627L67.0493 91.543C66.2073 91.902 65.3695 92.4715 64.5575 92.9217C63.893 93.2902 62.6776 93.9275 62.1645 94.3617C61.0456 95.3089 62.0508 99.8678 61.6102 101.47C63.5487 100.698 64.0676 100.119 65.8797 99.1437C66.6134 98.7489 67.5267 98.397 67.7157 97.5962L67.81 95.0453C67.7784 94.2312 67.9309 94.4465 67.5188 94.4284Z" fill="#FDFDFD"/>
<path fill-rule="evenodd" clip-rule="evenodd" d="M64.9302 82.4526C65.3143 82.0963 65.6055 81.4206 65.9414 80.8658C66.2694 80.3238 66.4289 79.6753 67.3794 79.8761C67.6098 81.2662 66.3556 82.0179 66.1316 83.1814L67.3809 83.9736C67.5525 84.9032 67.1456 85.3201 66.5737 85.6541C65.7728 85.5721 65.672 85.1597 64.888 85.0018C63.5927 88.3038 62.0906 88.0159 62.6682 86.5262C62.9417 85.8209 63.7652 84.9527 63.8258 84.2544L62.5538 83.4955C62.4577 80.6233 64.7498 82.3846 64.9302 82.4526ZM61.7253 88.9807C62.2478 88.9452 66.2741 86.5053 66.9273 86.1017C68.081 85.3884 67.7681 84.4347 67.7825 82.8781C67.7939 81.644 67.8575 80.0115 67.753 78.83C67.1808 78.8112 63.5461 81.0547 62.6614 81.5723C62.0393 81.9363 61.6863 82.2904 61.6863 83.1519L61.7253 88.9807Z" fill="#FDFDFD"/>
<path fill-rule="evenodd" clip-rule="evenodd" d="M61.7256 88.9807L61.6865 83.152C61.6865 82.2904 62.0395 81.9363 62.6617 81.5724C63.5463 81.0547 67.181 78.8113 67.7532 78.83C67.8578 80.0115 67.7941 81.6441 67.7828 82.8781C67.7684 84.4347 68.0812 85.3885 66.9276 86.1017C66.2743 86.5054 62.248 88.9452 61.7256 88.9807ZM67.3945 78.0427C66.9173 78.1539 64.7863 79.4434 64.2792 79.7567C60.4859 82.0995 60.9533 80.9404 60.9533 86.0281C60.9534 91.0071 60.7873 90.4653 65.2353 87.9769C69.0801 85.8258 68.5361 86.33 68.5361 81.6455C68.5361 79.7433 68.9082 77.6904 67.3945 78.0427Z" fill="#C7C7FC"/>
<path fill-rule="evenodd" clip-rule="evenodd" d="M67.6949 90.3375L67.7465 90.9579C67.1575 91.3307 67.2566 91.7973 66.8194 92.1626C66.7816 92.5792 65.5233 95.5674 65.2043 96.121C64.741 96.0084 64.4982 95.2556 63.8792 94.6548C62.728 94.7124 61.9211 96.0366 62.7126 97.0067C63.1026 97.4847 64.2317 98.977 64.6564 99.2297C65.8563 99.5267 66.772 95.8826 67.5187 94.4284C67.8118 93.5713 67.7497 93.7295 67.84 92.7394C68.2489 92.4841 68.1673 92.6808 68.4851 92.2877C68.6899 91.4032 69.9956 89.5322 69.443 88.6306C68.5254 88.1731 67.8318 89.6914 67.6949 90.3375Z" fill="#04F4D1"/>
<path fill-rule="evenodd" clip-rule="evenodd" d="M67.4987 65.4849C67.5498 66.1589 67.5748 66.1631 67.3688 66.4322L66.7846 66.9601C66.7538 67.3866 65.5065 70.3115 65.2046 70.8961C64.8072 70.7788 64.2171 69.8344 63.9076 69.4052C62.5187 69.4594 62.0201 70.8961 62.744 71.7781C63.2987 72.4537 64.0451 73.3206 64.4728 73.968C66.1416 73.9792 66.361 71.439 67.503 69.1949C67.7972 68.4433 67.8095 68.4553 67.8217 67.5387L68.5087 66.9634C68.7568 65.8554 69.8045 64.6935 69.5222 63.3581C68.2174 63.0446 67.8585 64.6107 67.4987 65.4849Z" fill="#04F4D1"/>
<path fill-rule="evenodd" clip-rule="evenodd" d="M68.4851 92.2877C68.1672 92.6808 68.2488 92.4841 67.84 92.7394C67.7497 93.7295 67.8118 93.5713 67.5186 94.4284C67.9307 94.4464 67.7782 94.2311 67.8099 95.0453L67.7155 97.5961C67.5266 98.397 66.6133 98.7489 65.8795 99.1437C64.0675 100.119 63.5486 100.698 61.6101 101.47C62.0506 99.8678 61.0454 95.3089 62.1643 94.3617C62.6774 93.9274 63.8929 93.2902 64.5574 92.9217C65.3693 92.4715 66.2071 91.9019 67.0491 91.5429L66.8193 92.1626C67.2565 91.7973 67.1575 91.3307 67.7464 90.9579L67.6948 90.3375C66.4916 90.7724 65.7561 91.3541 64.6878 91.9561C60.7341 94.1841 60.9545 93.7014 60.9533 97.2591C60.9532 98.1349 60.8372 100.968 60.9818 101.626C61.3702 103.391 64.6297 100.575 66.7935 99.5312C68.0093 98.9446 68.5251 98.3879 68.5393 96.7152C68.5513 95.2601 68.4469 93.7108 68.4851 92.2877Z" fill="#C7C7FC"/>
<path fill-rule="evenodd" clip-rule="evenodd" d="M68.5084 66.9632L67.8214 67.5385C67.8092 68.4551 67.7969 68.4431 67.5027 69.1947C67.683 69.0852 67.6437 69.3152 67.7637 68.9953C67.85 69.7456 67.8296 71.6928 67.7551 72.464C67.6559 73.4923 66.93 73.7297 66.1053 74.1956L62.7015 76.1259C61.8564 76.5995 61.7055 76.8862 61.6834 75.77L61.701 72.88C61.7034 71.8686 61.4366 70.2539 62.0575 69.6031C62.7255 68.9034 65.9333 67.4972 66.6397 66.7991C66.8235 66.8141 66.726 66.7331 66.7843 66.96L67.3685 66.432C67.5745 66.1629 67.5495 66.1587 67.4984 65.4847L61.7227 68.8521C60.6756 69.7444 60.9533 71.1592 60.9532 72.743C60.9532 78.3176 60.007 78.7299 67.1941 74.4567C68.4676 73.6994 68.5303 73.2043 68.5369 71.3735C68.5416 70.0548 68.3938 68.1688 68.5084 66.9632Z" fill="#C7C7FC"/>
<path fill-rule="evenodd" clip-rule="evenodd" d="M64.9303 82.4527C64.7499 82.3847 62.4578 80.6234 62.5539 83.4957L63.8259 84.2545C63.7652 84.9528 62.9418 85.8211 62.6683 86.5263C62.0906 88.016 63.5927 88.3039 64.8881 85.0019C65.672 85.1598 65.7728 85.5722 66.5737 85.6543C67.1457 85.3202 67.5526 84.9033 67.381 83.9738L66.1316 83.1815C66.3556 82.018 67.6099 81.2663 67.3795 79.8762C66.429 79.6754 66.2695 80.3239 65.9414 80.8659C65.6056 81.4207 65.3144 82.0964 64.9303 82.4527Z" fill="#EEDE20"/>
<path fill-rule="evenodd" clip-rule="evenodd" d="M39.8191 115.748C39.9943 120.195 39.098 120.707 41.2424 122.008C41.4866 122.156 42.643 122.782 42.7956 122.836C41.6557 121.237 43.0612 116.485 42.2591 114.255C42.0105 114.508 41.9338 114.481 41.6541 114.654C41.4095 114.806 41.2904 114.868 41.0593 114.994L39.8191 115.748Z" fill="#CACAD7"/>
<path fill-rule="evenodd" clip-rule="evenodd" d="M25.5706 97.341L25.5734 92.3219C25.6664 91.7115 25.835 91.6267 26.2923 91.3598C26.8011 91.063 30.0067 89.0943 30.4518 89.1187L30.4725 93.9631C30.4009 95.0072 29.5134 95.236 27.8431 96.2095C27.3139 96.5181 26.1509 97.2011 25.5706 97.341ZM31.1478 88.5665C30.2276 87.9404 29.4099 88.6965 28.5451 89.2318C25.3203 91.2278 24.8429 90.5356 24.8531 93.6971C24.8676 98.2143 24.3118 99.1364 27.5713 97.1655C31.0564 95.0584 31.2049 95.7881 31.1984 92.6024C31.1959 91.2622 31.2688 89.892 31.1478 88.5665Z" fill="#ABCAF3"/>
<path fill-rule="evenodd" clip-rule="evenodd" d="M25.5866 118.105C25.4669 117.168 25.5519 115.657 25.55 114.653C25.5476 113.409 25.3395 112.629 26.2856 112.012C26.8152 111.667 30.1106 109.777 30.4691 109.769C30.5609 110.786 30.4856 112.093 30.487 113.146C30.4888 114.421 30.7571 115.088 29.8006 115.674L25.5866 118.105ZM25.1672 118.821C26.0693 118.72 26.0664 118.747 26.7705 118.281C27.7864 117.61 29.7816 116.707 30.5854 116.049C31.4431 115.346 31.1988 113.904 31.1988 112.735C31.1988 111.521 31.369 110.165 30.9937 109.035C29.6381 108.876 29.0854 109.624 28.0316 110.221C27.5774 110.478 27.159 110.664 26.7104 110.958C24.846 112.179 24.8541 111.489 24.8532 115.201C24.8528 116.444 24.7064 117.803 25.1672 118.821Z" fill="#ABCAF3"/>
<path fill-rule="evenodd" clip-rule="evenodd" d="M25.5933 107.708C25.4863 106.569 25.5527 105.393 25.5505 104.244C25.5478 102.875 25.2769 102.26 26.3347 101.659C31.4333 98.7646 30.5014 98.4839 30.4875 102.737C30.4835 103.983 30.6986 104.746 29.8542 105.33L25.5933 107.708ZM29.9049 98.7655C29.0258 99.2574 28.0848 99.802 27.381 100.24C24.4896 102.037 24.8503 101.097 24.853 105.888C24.8548 109.07 24.7727 109.254 28.6225 106.85C31.5898 104.997 31.1929 106.219 31.1979 101.231C31.199 100.302 31.5504 97.8454 29.9049 98.7655Z" fill="#ABCAF3"/>
<path fill-rule="evenodd" clip-rule="evenodd" d="M104.179 36.7034C105.527 36.2159 105.161 35.849 105.343 34.3657C105.471 33.3221 105.55 32.3796 105.665 31.3043C105.788 30.15 105.692 29.269 106.227 28.4409C106.611 27.8457 107.446 26.9614 107.251 26.3372C106.73 26.3019 106.675 26.5411 106.394 26.9687C105.299 28.6348 105.215 28.2191 105.057 30.1485C104.909 31.9576 104.585 33.7902 104.547 35.6156C103.965 35.9071 100.044 37.9912 99.6758 38.3352C99.1321 38.8429 99.5784 39.064 99.7034 39.3137C99.9682 39.8423 99.2237 40.7695 100.129 40.8441C100.466 40.8719 101.752 40.1139 101 38.5563C101.251 38.4119 101.561 38.2543 101.891 38.0675C102.467 37.7418 102.245 37.6994 102.938 37.6065C102.813 37.9895 102.743 38.4206 102.809 38.9628C103.534 39.2383 103.791 39.0419 104.14 38.4173C104.435 37.8898 104.297 37.3018 104.179 36.7034Z" fill="#FDFDFD"/>
<path fill-rule="evenodd" clip-rule="evenodd" d="M99.3711 71.7557C99.078 72.4166 98.7525 73.1969 98.4633 73.9419C97.4548 76.5405 97.0159 75.9635 96.2303 74.9885C95.9351 74.6221 95.7722 74.4407 95.4971 74.0868C94.8821 73.2953 95.2076 72.2304 96.1572 72.0564C96.8683 72.3198 96.7303 72.7947 97.3898 73.2113L98.5935 70.4837C98.702 69.8924 98.6596 70.4081 98.3905 70.1875C98.0432 70.6467 95.2189 71.8996 94.832 72.3729C94.3962 72.9059 94.5347 77.1456 94.5949 78.1344C95.52 77.843 97.3535 76.639 98.2627 76.0894C99.3643 75.4235 99.7739 75.7382 99.6003 72.4603C99.5915 72.2959 99.5954 72.2326 99.5477 72.0776C99.4102 71.6311 99.7349 72.0804 99.3711 71.7557Z" fill="#E5F1FD"/>
<path fill-rule="evenodd" clip-rule="evenodd" d="M94.5907 53.2948C94.5907 51.3285 94.7442 51.9359 96.5926 50.72C97.3779 50.2036 98.6133 49.5132 99.4441 49.1049C99.5469 49.3051 99.883 54.4318 99.0886 54.9876L94.5984 57.4542L94.5907 53.2948ZM93.8926 52.3361V57.1297C93.8926 57.833 93.9601 57.7886 94.3767 58.1975C94.87 58.1727 95.1564 58.0594 95.4514 57.9077L99.8462 55.2106C100.427 54.5396 100.222 51.453 100.225 50.2817C100.225 49.2595 100.52 48.1222 99.0818 48.5088C98.7019 48.6108 98.3771 48.9062 98.0853 49.0662C97.9214 49.1559 97.8051 49.208 97.6338 49.3016L97.1055 49.5966C96.2358 50.0871 93.8926 51.1133 93.8926 52.3361Z" fill="#C7C7FC"/>
<path fill-rule="evenodd" clip-rule="evenodd" d="M100.18 59.2837C99.8898 59.5651 99.9609 59.4395 99.5766 59.5985C99.5791 59.8722 99.6007 60.2647 99.5508 60.526C99.4389 61.1133 99.4506 60.5338 99.2938 61.2285C99.6688 61.0398 99.3743 61.0842 99.5805 61.2385C99.4059 64.6162 100.098 64.6599 98.3844 65.6706C97.6023 66.1321 95.2475 67.5849 94.57 67.6697C94.7033 65.5866 94.3129 63.3738 94.9077 61.9376C95.353 61.992 95.1434 61.7879 95.204 62.1849C95.4789 61.7448 95.2541 61.7083 95.6785 61.4349C95.9634 61.2515 96.1205 61.2684 96.3989 61.3756C96.5414 60.7947 96.1009 61.3028 97.3172 60.6017C97.8041 60.3211 97.8262 60.2249 98.3804 60.0354C98.3908 60.6874 98.3797 60.2936 98.1935 60.8262C98.4263 60.4599 98.4456 60.1518 98.7028 59.826C99.1422 59.269 99.1196 59.7305 99.0109 58.6866C98.8831 59.0272 98.8731 58.8836 98.6229 59.0469C97.7292 59.6299 95.0509 60.9831 94.543 61.4091C93.7678 62.0596 93.9182 63.2257 93.9204 64.3886C93.9224 65.5862 93.8582 66.9282 93.9783 68.1053C94.4891 68.4253 94.1798 68.0617 94.3211 68.4895C95.6777 68.3542 95.5984 68.0312 96.7916 67.3677L99.2663 65.9774C100.4 65.2149 100.233 64.6167 100.231 63.156C100.229 61.8724 100.28 60.5508 100.18 59.2837Z" fill="#C7C7FC"/>
<path fill-rule="evenodd" clip-rule="evenodd" d="M97.2532 52.0225C98.0924 51.4107 97.9094 49.8828 99.2677 49.9214C99.4362 51.3134 98.3343 51.6115 98.2629 52.7469C98.4471 52.8597 98.6419 52.9401 98.7569 53.0081C99.3523 53.361 98.9413 52.9318 99.2185 53.4113C99.4237 54.08 99.0696 54.4055 98.7348 54.7547C97.9049 54.7414 97.9666 54.3819 97.2532 54.2735C96.5919 55.0921 96.509 56.3571 95.3171 56.4354C95.0741 54.9349 96.2033 54.7173 96.3125 53.5404C95.7816 53.2678 95.4215 53.2485 95.3034 52.8839C95.2308 52.1296 95.391 51.9162 95.8835 51.6007C96.7706 51.5825 96.5259 51.9067 97.2532 52.0225ZM94.5909 53.2948L94.5986 57.4542L99.0888 54.9875C99.8833 54.4317 99.5472 49.305 99.4444 49.1048C98.6135 49.5131 97.3781 50.2035 96.5929 50.7199C94.7445 51.9358 94.5909 51.3284 94.5909 53.2948Z" fill="#E5F1FD"/>
<path fill-rule="evenodd" clip-rule="evenodd" d="M99.0108 58.6865C99.1195 59.7304 99.1421 59.2689 98.7027 59.8259C98.4455 60.1517 98.4262 60.4598 98.1934 60.8261C98.0317 61.1215 97.9636 61.4064 97.8528 61.6905L97.3572 62.51L96.3989 61.3755C96.1204 61.2683 95.9633 61.2514 95.6785 61.4348C95.254 61.7082 95.4788 61.7447 95.2039 62.1848C95.0325 63.4164 96.978 65.0215 96.9788 65.0217C97.9008 64.8913 98.0789 64.1401 98.3952 63.364C98.6694 62.6905 98.969 61.7825 99.2938 61.2284C99.4505 60.5337 99.4388 61.1132 99.5508 60.5259C99.6006 60.2646 99.579 59.8721 99.5765 59.5984C99.9609 59.4394 99.8897 59.565 100.18 59.2836C100.385 58.2981 101.306 57.4197 101 56.2677C99.7531 55.9537 99.6405 57.8521 99.0108 58.6865Z" fill="#71E6D5"/>
<path fill-rule="evenodd" clip-rule="evenodd" d="M99.7224 67.9469C99.3618 68.7794 99.4828 68.8776 99.3786 69.7301C99.1034 69.9348 99.1873 69.8247 98.9542 70.0703C98.741 70.2948 98.8566 70.2641 98.5935 70.4837L97.3897 73.2114C96.7302 72.7947 96.8683 72.3199 96.1571 72.0565C95.2075 72.2305 94.8821 73.2954 95.4971 74.0869C95.7721 74.4408 95.935 74.6222 96.2303 74.9886C97.0159 75.9636 97.4547 76.5406 98.4632 73.9419C98.7525 73.197 99.0779 72.4167 99.371 71.7558L99.5613 70.3664L100.083 70.2786C100.15 69.8795 100.504 69.1816 100.669 68.7596C100.762 68.5214 101.32 67.4594 100.96 67.1108C100.253 66.7116 99.9796 67.3883 99.7224 67.9469Z" fill="#71E6D5"/>
<path fill-rule="evenodd" clip-rule="evenodd" d="M100.083 70.2785L99.5612 70.3664L99.371 71.7558C99.7348 72.0804 99.4101 71.6311 99.5476 72.0777C99.5953 72.2326 99.5914 72.296 99.6002 72.4603C99.7739 75.7382 99.3642 75.4236 98.2626 76.0894C97.3535 76.639 95.5199 77.8431 94.5948 78.1344C94.5346 77.1457 94.3961 72.906 94.832 72.3729C95.2189 71.8996 98.0431 70.6467 98.3904 70.1875C98.6595 70.4081 98.7019 69.8924 98.5934 70.4837C98.8566 70.264 98.7409 70.2947 98.9541 70.0703C99.1873 69.8246 99.1033 69.9348 99.3786 69.7301C99.4827 68.8776 99.3618 68.7793 99.7223 67.9469C99.5103 68.2249 99.5332 68.3646 99.3793 68.6889C98.9526 69.5881 98.4312 69.3781 97.5419 70.0194C96.7632 70.581 95.9013 70.8705 95.0922 71.419C94.8723 71.568 94.9724 71.4836 94.8324 71.5749C94.5181 71.7802 94.5306 71.7991 94.3147 72.1207C93.7384 72.9786 93.9647 73.4551 93.9647 74.9344C93.9647 76.905 93.6988 77.8617 94.3767 78.7443C95.227 78.8056 95.6369 78.3456 96.4362 77.9255C96.5578 77.8616 96.6397 77.8169 96.6967 77.7845C96.7222 77.77 96.756 77.749 96.7814 77.7345C96.8066 77.7199 96.8397 77.698 96.8651 77.6835L98.0082 76.9226C99.2032 76.1548 100.184 76.4049 100.212 73.8419C100.226 72.6523 100.274 71.3336 100.083 70.2785Z" fill="#C7C7FC"/>
<path fill-rule="evenodd" clip-rule="evenodd" d="M99.2939 61.2283C98.9691 61.7825 98.6695 62.6905 98.3953 63.364C98.079 64.1401 97.901 64.8912 96.9789 65.0217C96.9781 65.0215 95.0326 63.4164 95.2041 62.1848C95.1434 61.7878 95.353 61.9919 94.9077 61.9375C94.313 63.3737 94.7033 65.5864 94.5701 67.6695C95.2475 67.5848 97.6024 66.132 98.3844 65.6705C100.098 64.6598 99.406 64.6161 99.5806 61.2384C99.3744 61.0841 99.6689 61.0397 99.2939 61.2283Z" fill="#E5F1FD"/>
<path fill-rule="evenodd" clip-rule="evenodd" d="M126.986 33.4435C126.567 33.9825 126.995 33.4777 126.489 33.7488C126.38 34.2204 126.423 34.4083 126.303 34.811C126.208 35.1332 126.117 35.2047 126.033 35.6221C126.275 34.9907 125.997 35.5674 126.366 35.2898L126.352 37.881C125.457 38.2119 124.053 39.44 123.142 39.595L123.286 36.6714C123.079 34.4628 124.781 36.3335 124.782 36.334C124.805 36.3058 124.829 36.2638 124.842 36.2433C124.854 36.223 124.885 36.1784 124.9 36.1533C124.915 36.1285 124.94 36.0904 124.955 36.0629C124.975 36.0274 125.031 35.9163 125.05 35.879C125.103 35.7722 125.207 35.5272 125.251 35.423C125.39 35.0972 125.464 34.8681 125.681 34.6035C126.471 33.6377 125.666 34.6743 126.386 32.6791C125.572 33.9493 126.145 33.4592 124.876 34.2052C122.189 35.7852 122.446 35.1252 122.41 37.8185C122.366 41.1716 122.572 40.8552 124.702 39.6567C125.879 38.9942 126.945 38.6151 127.047 37.6835L126.986 33.4435Z" fill="#C7C7FC"/>
<path fill-rule="evenodd" clip-rule="evenodd" d="M97.2532 52.0225C96.5259 51.9068 96.7706 51.5825 95.8835 51.6007C95.3911 51.9162 95.2308 52.1296 95.3034 52.8839C95.4215 53.2485 95.7816 53.2678 96.3125 53.5404C96.2033 54.7174 95.0741 54.9349 95.3171 56.4354C96.509 56.3572 96.5919 55.0921 97.2532 54.2735C97.9666 54.3819 97.9049 54.7415 98.7349 54.7547C99.0696 54.4055 99.4237 54.0801 99.2185 53.4113C98.9413 52.9319 99.3523 53.361 98.7569 53.0081C98.6419 52.9401 98.4471 52.8597 98.2629 52.7469C98.3344 51.6115 99.4362 51.3135 99.2677 49.9214C97.9094 49.8829 98.0924 51.4107 97.2532 52.0225Z" fill="#EEDE20"/>
<path fill-rule="evenodd" clip-rule="evenodd" d="M13.8915 100.683C13.8915 98.5679 13.9273 99.1866 16.0543 97.9633C16.4806 97.718 16.6363 97.5232 17.0764 97.3899C17.0989 98.9006 17.3798 100.767 16.6565 101.303C16.3736 101.512 14.071 102.774 13.8818 102.796L13.8915 100.683ZM13.2829 103.545C14.3069 103.732 14.8819 103.136 15.5208 102.788C17.8201 101.532 17.8328 101.777 17.8346 99.3133C17.8364 96.8248 18.213 95.7379 15.4979 97.4119C13.1194 98.8786 13.1915 98.2554 13.1709 100.82C13.1624 101.839 13.1472 102.577 13.2829 103.545Z" fill="#ABCAF3"/>
<path fill-rule="evenodd" clip-rule="evenodd" d="M13.8942 110.101C13.8729 109.38 13.8959 108.662 13.8903 107.94C13.8835 107.036 13.7365 106.647 14.3219 106.24C14.5112 106.108 16.8967 104.747 17.056 104.707C17.1487 105.317 17.099 106.199 17.1023 106.847C17.1063 107.629 17.271 108.181 16.6948 108.61C16.2189 108.964 14.3122 110.079 13.8942 110.101ZM17.7241 108.49C17.9072 108.062 17.8325 106.215 17.8356 105.612C17.8497 102.962 17.0944 103.838 14.8455 105.111C12.7925 106.272 13.1984 106.127 13.1669 109.312C13.1582 110.199 13.0163 111.372 14.2549 110.843C14.9053 110.565 17.4543 109.12 17.7241 108.49Z" fill="#ABCAF3"/>
<path fill-rule="evenodd" clip-rule="evenodd" d="M13.8914 114.927C13.8914 113.231 13.8429 113.611 15.0712 112.867C15.4472 112.639 16.613 111.893 17.086 111.802C17.1484 112.514 17.0987 113.251 17.1024 113.969C17.1064 114.757 17.2781 115.26 16.6551 115.679C16.2256 115.967 14.384 117.045 13.8754 117.096L13.8914 114.927ZM13.1705 115.201C13.1705 117.861 12.7987 118.767 15.2541 117.302C17.5383 115.94 17.8139 116.34 17.8331 114.105L17.674 111.115C16.8279 110.706 15.3647 111.833 14.706 112.224C13.2318 113.101 13.1705 112.849 13.1705 115.201Z" fill="#ABCAF3"/>
<path fill-rule="evenodd" clip-rule="evenodd" d="M76.7294 43.0232C75.9871 42.2172 74.629 41.1586 74.1104 43.5558C73.7272 45.3283 74.7323 45.8043 75.3196 46.5753C74.9676 49.0029 73.9882 51.0393 72.9055 51.9044C71.8424 51.7693 70.601 50.571 69.8732 52.5302C69.262 54.175 70.3194 55.0642 71.1758 55.4214C74.5216 56.8167 79.3613 45.8822 76.7294 43.0232Z" fill="#FDFDFD"/>
<path fill-rule="evenodd" clip-rule="evenodd" d="M13.8943 110.101C14.3123 110.079 16.219 108.964 16.6949 108.61C17.2711 108.181 17.1064 107.629 17.1024 106.847C17.0991 106.199 17.1488 105.317 17.0561 104.707C16.8968 104.747 14.5113 106.108 14.322 106.24C13.7366 106.647 13.8836 107.036 13.8904 107.94C13.896 108.661 13.873 109.38 13.8943 110.101Z" fill="#E5F1FD"/>
<path fill-rule="evenodd" clip-rule="evenodd" d="M13.8913 114.927L13.8752 117.096C14.3839 117.045 16.2255 115.967 16.655 115.679C17.278 115.26 17.1063 114.757 17.1023 113.969C17.0986 113.251 17.1483 112.514 17.0859 111.802C16.6128 111.893 15.4471 112.639 15.0711 112.867C13.8428 113.611 13.8913 113.231 13.8913 114.927Z" fill="#E5F1FD"/>
<path fill-rule="evenodd" clip-rule="evenodd" d="M13.8913 100.683L13.8816 102.796C14.0708 102.774 16.3734 101.512 16.6563 101.303C17.3796 100.767 17.0987 98.9006 17.0762 97.3898C16.6361 97.5232 16.4804 97.718 16.0541 97.9633C13.9271 99.1866 13.8913 98.5679 13.8913 100.683Z" fill="#E5F1FD"/>
<path fill-rule="evenodd" clip-rule="evenodd" d="M61.0107 13.8504C61.9698 15.1022 64.1065 13.3412 65.1821 12.7366C65.8252 12.3753 66.4111 12.0598 67.0914 11.6413C67.737 11.2442 68.6956 10.8987 68.9504 10.2895C68.1337 8.94437 66.4107 10.4643 64.7705 11.3498C64.0526 11.7374 61.2073 13.1594 61.0107 13.8504Z" fill="#2D4281"/>
<path fill-rule="evenodd" clip-rule="evenodd" d="M78.5997 63.0408C79.341 63.0164 80.541 62.1189 81.5518 61.5492C82.2349 61.164 83.8629 60.2982 84.3523 59.8689L84.4037 58.0755C83.4573 58.1976 80.2084 60.561 79.0353 60.9207C78.4236 61.1082 78.5997 62.1679 78.5997 63.0408Z" fill="#C7C7FC"/>
<path fill-rule="evenodd" clip-rule="evenodd" d="M78.6589 88.0577C78.9439 87.9631 79.7964 87.4316 80.1146 87.2496C80.7181 86.9045 80.9525 86.7897 81.4983 86.439C82.4729 85.8126 83.4674 85.4116 84.3982 84.796L84.4119 82.9503C83.883 83.0548 79.242 85.6952 78.595 86.1656L78.6589 88.0577Z" fill="#C7C7FC"/>
<path fill-rule="evenodd" clip-rule="evenodd" d="M79.0521 74.8082L84.8141 71.5375L84.7917 69.6288C84.2059 69.7568 81.9564 71.2126 81.3026 71.5817C80.7308 71.9042 80.2302 72.2384 79.5405 72.567C78.8586 72.8917 78.8939 73.4074 79.0521 74.8082Z" fill="#C7C7FC"/>
<path fill-rule="evenodd" clip-rule="evenodd" d="M74.1559 79.2155L74.152 80.6621C74.8193 80.6941 75.3942 80.1253 76.0662 79.7702C76.7631 79.402 77.3541 79.0651 77.9302 78.7425C81.1179 76.958 80.7515 77.3491 80.6468 75.6456C80.0958 75.6596 78.0885 76.9285 77.3407 77.3407C76.2263 77.9546 75.0525 78.6295 74.1559 79.2155Z" fill="#C7C7FC"/>
<path fill-rule="evenodd" clip-rule="evenodd" d="M73.8087 67.5386L73.781 69.0872C74.3957 68.9757 79.5745 66.0096 80.2404 65.4843L80.2551 64.1208C79.626 64.0704 75.3541 66.5464 74.2166 67.2304L73.8087 67.5386Z" fill="#C7C7FC"/>
<path fill-rule="evenodd" clip-rule="evenodd" d="M123.1 53.9292C123.082 52.756 122.742 50.617 123.579 50.0388C124.053 49.7118 125.895 48.6367 126.419 48.6308L126.409 51.7691C126.453 52.0289 126.442 51.9561 126.528 52.0913C125.773 52.5421 123.922 53.8227 123.1 53.9292ZM122.742 54.7632C123.347 54.7771 124.316 54.2487 124.858 53.9071L125.016 53.7958C127.186 52.3476 127.058 53.2009 127.044 50.2818C127.036 48.5815 127.24 48.7975 126.718 47.8263C126.151 47.8243 125.981 47.9095 125.548 48.1807C124.71 48.7054 122.891 49.3914 122.557 50.2526C122.358 50.7656 122.312 53.9985 122.742 54.7632Z" fill="#C7C7FC"/>
<path fill-rule="evenodd" clip-rule="evenodd" d="M123.822 42.8789C124.022 42.5193 124.669 42.2434 125.029 42.0289C125.941 41.4835 125.747 41.4231 126.385 41.4024C126.386 42.0318 126.368 42.6581 126.391 43.2969C126.403 43.6545 126.493 44.6424 126.313 44.9578C126.163 45.2211 123.562 46.7432 123.125 46.8646C123.058 45.828 122.939 43.9015 123.191 43.0733L123.822 42.8789ZM122.648 47.5426C123.382 47.7623 123.925 47.2487 124.617 46.8315C127.019 45.3827 127.05 45.8061 127.041 43.4342C127.039 42.8152 127.113 41.2793 126.973 40.7759C126.334 40.563 126.215 40.6593 125.707 40.9336L123.034 42.5089C122.292 43.0535 122.449 43.661 122.445 44.8032C122.443 45.6593 122.346 46.8997 122.648 47.5426Z" fill="#C7C7FC"/>
<path fill-rule="evenodd" clip-rule="evenodd" d="M73.7397 93.9315C74.3651 93.9697 76.3488 92.6368 77.0193 92.2336L80.2823 90.4099L80.1989 88.8254L73.7397 92.4918V93.9315Z" fill="#C7C7FC"/>
<path fill-rule="evenodd" clip-rule="evenodd" d="M70.865 92.4301C71.4688 92.4248 74.953 90.1632 75.882 89.715L75.8445 87.8351C75.2053 88.0186 73.9124 88.86 73.3376 89.2173C70.9475 90.7022 70.5973 90.1283 70.865 92.4301Z" fill="#C7C7FC"/>
<path fill-rule="evenodd" clip-rule="evenodd" d="M70.8578 65.7581L70.8364 67.5648C71.445 67.482 75.3067 65.1898 75.8431 64.7758L75.8903 63.0391C75.2253 63.0432 74.31 63.7653 73.3548 64.3157C72.6197 64.739 71.5235 65.3134 70.8578 65.7581Z" fill="#C7C7FC"/>
<path fill-rule="evenodd" clip-rule="evenodd" d="M71.2746 77.3998L71.2297 79.18C71.7963 79.119 75.5307 76.8947 76.2725 76.4182L76.2894 74.5638C75.9239 74.6097 71.6646 77.1372 71.2746 77.3998Z" fill="#C7C7FC"/>
<path fill-rule="evenodd" clip-rule="evenodd" d="M101.906 113.985C102.448 114.629 104.427 115.741 105.426 114.822C104.772 114.444 104.991 114.962 104.838 114.56C104.817 114.505 104.76 114.519 104.727 114.49C105.123 114.381 105.077 114.351 105.383 114.122L104.883 113.848L105.085 112.914C105.569 112.6 105.294 112.95 105.416 112.615C104.207 111.936 104.122 112.389 103.638 111.823C103.105 111.872 102.098 110.946 101.357 110.75C101.605 111.258 101.829 111.29 102.688 111.772C102.598 111.919 102.63 111.817 102.573 112.089L102.539 112.889C102.543 113.229 102.545 113.566 102.544 113.904L101.906 113.985Z" fill="#03C5A6"/>
<path fill-rule="evenodd" clip-rule="evenodd" d="M108.296 45.018L108.263 46.4921C108.674 46.5104 109.16 46.1106 109.714 45.754C110.219 45.4286 110.62 45.2336 111.193 44.91C112.659 44.0815 113.481 43.998 112.998 42.338C112.845 42.3244 108.862 44.5838 108.296 45.018Z" fill="#ABCAF3"/>
<path fill-rule="evenodd" clip-rule="evenodd" d="M108.654 54.6644L108.635 56.1646C109.283 55.9216 110.353 55.2578 111.002 54.8682L113.414 53.4521L113.426 52.032C112.814 52.1057 109.392 54.1509 108.654 54.6644Z" fill="#ABCAF3"/>
<path fill-rule="evenodd" clip-rule="evenodd" d="M39.2534 106.057L39.2432 107.59C40.2019 107.219 40.9822 106.641 42.0585 106.013C44.4076 104.641 44.0399 105.287 44.0399 103.501C43.1733 103.585 42.4062 104.3 41.561 104.732C40.8317 105.105 39.9669 105.669 39.2534 106.057Z" fill="#ABCAF3"/>
<path fill-rule="evenodd" clip-rule="evenodd" d="M39.2686 85.4049L39.2346 86.9177C39.7488 86.7802 43.4346 84.6362 43.978 84.2575L44.0427 82.7484C43.2128 82.9755 40.4428 84.843 39.2686 85.4049Z" fill="#ABCAF3"/>
<path fill-rule="evenodd" clip-rule="evenodd" d="M39.626 95.0675L39.5955 96.5956C40.3028 96.2929 41.2751 95.6929 41.9845 95.2722C42.3791 95.0383 42.7488 94.842 43.1347 94.6266C43.4862 94.4302 44.0056 94.1735 44.3253 93.972L44.4334 92.5195C44.1643 92.3541 43.822 92.6405 43.3329 92.9257L39.626 95.0675Z" fill="#ABCAF3"/>
<path fill-rule="evenodd" clip-rule="evenodd" d="M108.288 65.6212L108.295 67.155L112.566 64.7688C113.248 64.3628 113.146 64.0618 113.085 63.0842C112.562 63.039 109.01 65.2089 108.288 65.6212Z" fill="#ABCAF3"/>
<path fill-rule="evenodd" clip-rule="evenodd" d="M35.295 91.8373C35.9212 91.7646 37.7638 90.5754 38.3978 90.1829C40.6266 88.8033 40.7634 89.3813 40.5439 87.6876C39.7261 87.8908 37.0551 89.676 36.0645 90.1658C35.0912 90.6471 35.2183 90.5917 35.295 91.8373Z" fill="#ABCAF3"/>
<path fill-rule="evenodd" clip-rule="evenodd" d="M104.646 59.8689L104.6 61.034C105.073 61.0809 106.891 59.8802 107.651 59.4548C110.398 57.9181 109.949 58.4459 109.948 57.0212C109.393 56.9714 107.77 58.0382 107.218 58.3485C106.457 58.7759 105.271 59.302 104.646 59.8689Z" fill="#ABCAF3"/>
<path fill-rule="evenodd" clip-rule="evenodd" d="M35.161 112.392C35.6131 112.646 37.0313 111.595 37.8594 111.138L40.5907 109.586L40.5966 108.42C39.5274 108.573 36.375 110.739 35.2669 111.247L35.161 112.392Z" fill="#ABCAF3"/>
<path fill-rule="evenodd" clip-rule="evenodd" d="M35.5902 100.231V101.438C36.2805 101.402 36.4871 101.114 37.0056 100.833L40.9325 98.6067L40.8997 97.3423C40.5963 97.3598 36.6324 99.7442 35.5902 100.231Z" fill="#ABCAF3"/>
<path fill-rule="evenodd" clip-rule="evenodd" d="M104.329 50.1448C104.062 52.2467 104.594 51.2353 108.1 49.3681L109.557 48.4372C109.579 48.4208 109.62 48.3905 109.649 48.3644L109.585 47.2668C108.741 47.6327 107.683 48.2793 106.912 48.712C106.113 49.1602 105.008 49.6526 104.329 50.1448Z" fill="#ABCAF3"/>
<path fill-rule="evenodd" clip-rule="evenodd" d="M104.286 70.8257L104.273 72.0205C104.764 72.0198 107.941 70.0915 108.784 69.6149C109.737 69.0759 109.71 69.2402 109.597 67.923L104.286 70.8257Z" fill="#ABCAF3"/>
<path fill-rule="evenodd" clip-rule="evenodd" d="M126.386 32.6792C125.666 34.6743 126.471 33.6377 125.681 34.6035C125.464 34.8681 125.39 35.0972 125.251 35.423C125.207 35.5272 125.103 35.7722 125.05 35.879C125.032 35.9164 124.975 36.0274 124.955 36.0629C124.94 36.0904 124.915 36.1285 124.9 36.1533C124.886 36.1784 124.854 36.223 124.842 36.2433C124.829 36.2638 124.805 36.3058 124.782 36.334C124.781 36.3335 123.079 34.4628 123.286 36.6714C123.538 36.9892 124.223 37.9355 124.508 38.0961C125.127 37.9455 125.096 37.7669 125.401 37.0697C125.617 36.5756 125.777 36.0978 126.033 35.6221C126.117 35.2047 126.208 35.1332 126.304 34.811C126.423 34.4084 126.38 34.2204 126.489 33.7489C126.995 33.4777 126.567 33.9826 126.986 33.4435C127.202 32.8583 127.499 32.5964 127.247 32.0444C126.661 32.0215 126.577 32.1156 126.386 32.6792Z" fill="#71E6D5"/>
<path fill-rule="evenodd" clip-rule="evenodd" d="M123.822 42.8789C124.598 42.9768 124.3 43.1222 124.919 43.2434C125.388 42.6453 125.472 41.6471 126.199 41.8803L126.026 42.7566C125.88 43.0314 125.757 43.2416 125.632 43.5706C126.008 44.3547 126.709 43.8176 126.002 45.0791C125.462 45.1034 125.32 44.9376 124.919 44.8194C124.4 45.3948 124.311 46.1307 123.585 46.2419C123.319 45.4407 124.028 45.0877 124.199 44.3924C123.611 43.718 123.074 44.0721 123.822 42.8789ZM123.822 42.8789L123.191 43.0732C122.939 43.9014 123.058 45.828 123.125 46.8646C123.562 46.7432 126.163 45.2211 126.314 44.9578C126.493 44.6423 126.403 43.6545 126.391 43.2969C126.368 42.6581 126.386 42.0317 126.385 41.4023C125.747 41.4231 125.942 41.4835 125.029 42.0288C124.669 42.2434 124.022 42.5193 123.822 42.8789Z" fill="#E5F1FD"/>
<path fill-rule="evenodd" clip-rule="evenodd" d="M102.211 58.376L102.246 59.7003C102.803 59.7423 104.116 58.8188 104.76 58.4535C106.612 57.4048 106.434 57.9005 106.32 56.1076C105.587 56.2424 102.846 58.0154 102.211 58.376Z" fill="#ABCAF3"/>
<path fill-rule="evenodd" clip-rule="evenodd" d="M32.8227 90.6126C33.3435 90.4918 36.3852 88.7099 36.9341 88.3247L36.9531 86.8997C36.3071 86.9382 35.1185 87.8639 34.5147 88.2181C34.1103 88.4555 33.714 88.6302 33.2784 88.8894C32.5715 89.3103 32.7654 89.7145 32.8227 90.6126Z" fill="#ABCAF3"/>
<path fill-rule="evenodd" clip-rule="evenodd" d="M101.867 48.7107L101.856 50.1768C102.722 49.918 105.276 48.326 106.029 47.8437L105.986 46.5406C104.984 46.6073 102.896 48.3055 101.867 48.7107Z" fill="#ABCAF3"/>
<path fill-rule="evenodd" clip-rule="evenodd" d="M101.849 70.7617C102.43 70.6886 105.505 68.8987 105.995 68.5159L106.022 67.142C105.619 67.1665 102.778 68.794 102.268 69.1209C101.655 69.5141 101.865 69.9129 101.849 70.7617Z" fill="#ABCAF3"/>
<path fill-rule="evenodd" clip-rule="evenodd" d="M33.1538 100.235C33.6188 100.215 37.0132 98.2022 37.3118 97.9437L37.3246 96.6067C36.3211 96.7807 35.3859 97.5313 34.6889 97.9726C33.1417 98.9527 33.2305 98.109 33.1538 100.235Z" fill="#ABCAF3"/>
<path fill-rule="evenodd" clip-rule="evenodd" d="M32.8197 111.219C33.5324 111.073 36.5574 109.24 36.9523 108.9L36.9399 107.585C36.4234 107.559 36.5167 107.605 36.1979 107.823L35.8661 108.048C35.7175 108.136 35.758 108.104 35.5981 108.192C35.2095 108.406 34.815 108.688 34.4028 108.917C33.1328 109.623 32.6705 109.394 32.8197 111.219Z" fill="#ABCAF3"/>
<path fill-rule="evenodd" clip-rule="evenodd" d="M124.919 50.4202C125.458 49.7348 125.383 49.1486 126.151 48.9897C126.263 49.1897 126.357 48.9479 126.253 49.5394L125.557 50.8295L126.127 51.2817C126.415 51.6189 126.359 51.4866 126.269 52.0542C125.177 52.7174 125.818 52.0969 124.782 52.1289C124.259 53.1399 124.244 53.3276 123.686 53.4916C123.543 53.2904 123.453 53.6129 123.546 52.9185C123.588 52.5992 124.014 52.2027 124.199 51.6512C123.837 51.2695 123.231 51.2395 123.595 50.4804C123.925 49.7929 124.409 50.367 124.919 50.4202ZM123.1 53.929C123.922 53.8224 125.773 52.5419 126.528 52.0911C126.443 51.9559 126.454 52.0287 126.409 51.7689L126.419 48.6306C125.895 48.6365 124.053 49.7115 123.579 50.0385C122.742 50.6168 123.082 52.7557 123.1 53.929Z" fill="#E5F1FD"/>
<path fill-rule="evenodd" clip-rule="evenodd" d="M124.919 50.4204C124.409 50.3672 123.925 49.7931 123.595 50.4806C123.231 51.2397 123.837 51.2697 124.198 51.6514C124.014 52.2029 123.588 52.5994 123.545 52.9187C123.453 53.6131 123.543 53.2905 123.686 53.4918C124.244 53.3278 124.259 53.1401 124.782 52.1291C125.818 52.0971 125.177 52.7176 126.269 52.0544C126.359 51.4867 126.415 51.6191 126.127 51.2819L125.557 50.8297L126.253 49.5395C126.357 48.9481 126.263 49.1899 126.151 48.9899C125.383 49.1488 125.458 49.735 124.919 50.4204Z" fill="#EEDE20"/>
<path fill-rule="evenodd" clip-rule="evenodd" d="M123.822 42.8789C123.074 44.0721 123.611 43.718 124.199 44.3923C124.028 45.0876 123.319 45.4406 123.585 46.2419C124.311 46.1307 124.4 45.3948 124.919 44.8194C125.32 44.9376 125.462 45.1034 126.002 45.0791C126.709 43.8176 126.008 44.3547 125.632 43.5706C125.757 43.2416 125.88 43.0314 126.026 42.7566L126.199 41.8803C125.472 41.6471 125.388 42.6453 124.919 43.2434C124.3 43.1222 124.598 42.9768 123.822 42.8789Z" fill="#EEDE20"/>
<path fill-rule="evenodd" clip-rule="evenodd" d="M126.033 35.622C125.777 36.0976 125.617 36.5755 125.401 37.0696C125.096 37.7668 125.127 37.9454 124.508 38.096C124.223 37.9353 123.537 36.9891 123.286 36.6713L123.142 39.5949C124.053 39.4399 125.457 38.2117 126.352 37.8809L126.366 35.2897C125.997 35.5673 126.275 34.9906 126.033 35.622Z" fill="#E5F1FD"/>
<path fill-rule="evenodd" clip-rule="evenodd" d="M68.47 50.5145C68.6544 48.4261 67.636 47.7836 68.9408 45.055C70.2536 42.3098 71.5879 43.2404 72.1509 42.2066C71.1988 39.2068 65.8345 44.705 67.409 49.551C67.6772 50.3769 67.6933 50.3427 68.47 50.5145Z" fill="#FDFDFD"/>
<path fill-rule="evenodd" clip-rule="evenodd" d="M118.508 46.8786C119.113 46.8093 120.029 46.1351 120.499 45.8624C121.786 45.1158 121.796 45.4943 121.836 44.1614C121.003 44.2627 119.277 45.4595 118.499 45.8742L118.508 46.8786Z" fill="#ABCAF3"/>
<path fill-rule="evenodd" clip-rule="evenodd" d="M118.856 53.0945C118.58 53.5491 118.737 53.2161 118.577 53.3879C118.238 53.751 118.467 53.2481 118.292 53.7512C117.991 54.619 118.317 54.458 118.868 54.4002C119.123 54.0923 121.077 53.0427 121.555 52.8852L121.598 51.7904C120.736 51.8766 119.797 52.9301 118.856 53.0945Z" fill="#ABCAF3"/>
<path fill-rule="evenodd" clip-rule="evenodd" d="M118.649 38.8991C118.262 39.4675 118.381 39.3778 118.164 40.086L118.316 40.1736C118.626 40.1323 121.246 38.617 121.587 38.3663L121.611 37.392C120.74 37.5302 119.515 38.5858 118.649 38.8991Z" fill="#ABCAF3"/>
<path fill-rule="evenodd" clip-rule="evenodd" d="M82.7998 87.2608C82.5838 89.7714 83.0375 88.6734 84.403 88.0821L84.3453 86.4779C84.1057 86.541 83.0843 87.0663 82.7998 87.2608Z" fill="#C7C7FC"/>
<path fill-rule="evenodd" clip-rule="evenodd" d="M82.7869 62.3808L82.787 64.0455C83.0824 64.0289 84.15 63.3203 84.365 63.179L84.3754 61.5468L82.7869 62.3808Z" fill="#C7C7FC"/>
<path fill-rule="evenodd" clip-rule="evenodd" d="M83.2831 75.6143L84.7883 74.811L84.8213 73.3857C83.1974 73.3837 83.0627 74.3269 83.2831 75.6143Z" fill="#C7C7FC"/>
<path fill-rule="evenodd" clip-rule="evenodd" d="M76.645 89.2575C76.7744 89.1986 77.6657 88.6698 77.7378 88.5514C77.9393 88.2209 77.8645 87.2165 77.853 86.7775C76.4756 86.963 76.373 87.6339 76.645 89.2575Z" fill="#C7C7FC"/>
<path fill-rule="evenodd" clip-rule="evenodd" d="M77.0145 74.1127C77.0145 76.8704 76.8292 76.0801 78.2525 75.2541L78.2725 73.4973C77.629 73.5861 77.4022 73.7829 77.0145 74.1127Z" fill="#C7C7FC"/>
<path fill-rule="evenodd" clip-rule="evenodd" d="M76.5691 64.2697L77.7673 63.7958L77.8746 61.8714C76.3098 62.0847 76.5803 62.7574 76.5691 64.2697Z" fill="#C7C7FC"/>
<path fill-rule="evenodd" clip-rule="evenodd" d="M96.3988 61.3756L97.3571 62.5101L97.8527 61.6906C97.9636 61.4065 98.0317 61.1216 98.1934 60.8261C98.3796 60.2935 98.3907 60.6873 98.3802 60.0354C97.8261 60.2248 97.804 60.3211 97.3171 60.6017C96.1008 61.3028 96.5413 60.7947 96.3988 61.3756Z" fill="#E5F1FD"/>
<path fill-rule="evenodd" clip-rule="evenodd" d="M70.3174 49.4094C70.5055 48.5524 70.6388 47.1387 70.9786 46.4704C71.5451 45.3563 71.7775 46.3251 72.3093 44.7561C71.7295 43.6513 70.5939 44.535 70.0188 45.4713C69.7663 45.8823 68.3956 48.9688 70.3174 49.4094Z" fill="#FDFDFD"/>
<path fill-rule="evenodd" clip-rule="evenodd" d="M81.0016 89.9546C81.3393 89.9113 81.6516 89.6267 82.0495 89.4441L82.0558 87.8122C81.5863 87.894 81.293 88.0823 80.9851 88.3565L81.0016 89.9546Z" fill="#C7C7FC"/>
<path fill-rule="evenodd" clip-rule="evenodd" d="M81.3758 75.0661L81.3698 76.5704C81.9217 76.5446 81.9865 76.3601 82.4552 76.1713L82.4713 74.5377C82.0773 74.6402 81.7177 74.9061 81.3758 75.0661Z" fill="#C7C7FC"/>
<path fill-rule="evenodd" clip-rule="evenodd" d="M80.9822 63.451L80.9985 65.1416C81.2803 64.9117 81.6367 64.7086 82.0338 64.5192L82.0701 63.0021C81.5202 63.0351 81.3282 63.2332 80.9822 63.451Z" fill="#C7C7FC"/>
<path fill-rule="evenodd" clip-rule="evenodd" d="M43.0744 97.2062C43.5679 97.1185 43.3738 97.193 43.8261 96.9609C43.9979 96.873 44.2079 96.7056 44.3707 96.574L44.4114 95.4265C42.7829 95.7121 43.1017 96.4661 43.0744 97.2062Z" fill="#ABCAF3"/>
<path fill-rule="evenodd" clip-rule="evenodd" d="M42.777 106.967L42.6714 108.162C43.0762 108.238 43.3459 108.112 43.6948 107.815C44.2054 107.38 44.0708 107.179 44.0108 106.413L42.777 106.967Z" fill="#ABCAF3"/>
<path fill-rule="evenodd" clip-rule="evenodd" d="M37.5881 86.4391L37.589 87.8762C37.9658 87.8363 38.2377 87.6026 38.5671 87.3979L38.595 86.0516C38.0271 86.0104 37.8717 86.1957 37.5881 86.4391Z" fill="#ABCAF3"/>
<path fill-rule="evenodd" clip-rule="evenodd" d="M111.831 45.899L111.762 47.1381L113.076 46.4467V45.4011C112.519 45.4651 112.251 45.6829 111.831 45.899Z" fill="#ABCAF3"/>
<path fill-rule="evenodd" clip-rule="evenodd" d="M120.529 26.8314C120.396 26.6273 120.162 25.7022 120.071 25.3919C119.827 24.5547 119.916 24.5135 120.545 24.1617C123.718 22.3857 123.582 22.133 123.412 23.9083C123.361 24.4441 123.407 25.2185 123.115 25.5233C122.934 25.7128 121.666 26.3696 121.268 26.5831C120.947 26.7554 120.917 26.8733 120.529 26.8314ZM123.193 26.8251C123.254 27.135 123.326 27.4395 123.173 27.7126C122.992 28.0361 122.859 28.1378 122.484 27.9952C122.45 27.7143 122.486 27.4911 122.551 27.2927C122.192 27.3409 122.307 27.3627 122.009 27.5314C121.837 27.6282 121.677 27.7097 121.547 27.7845C121.936 28.5912 121.271 28.9838 121.096 28.9694C120.627 28.9307 121.013 28.4506 120.876 28.1768C120.811 28.0476 120.58 27.9331 120.861 27.67C121.052 27.492 123.082 26.4127 123.384 26.2617C123.404 25.3164 123.571 24.3674 123.648 23.4305C123.73 22.4313 123.773 22.6466 124.34 21.7838C124.486 21.5623 124.515 21.4385 124.784 21.4567C124.885 21.78 124.453 22.238 124.254 22.5462C123.977 22.975 124.026 23.4312 123.963 24.029C123.903 24.5859 123.862 25.0739 123.796 25.6145C123.702 26.3826 123.892 26.5726 123.193 26.8251ZM118.477 24.7781C118.477 25.6487 118.352 31.2572 118.614 31.7522C119.415 31.9411 119.917 31.2477 120.826 30.82C121.875 30.3265 122.83 29.6345 123.851 29.089C125.13 28.4049 126.277 27.9556 126.277 26.6223V19.6005C126.277 18.4326 124.783 19.5999 124.135 19.9424L120.846 21.8403C120.182 22.2003 119.16 22.6094 118.742 23.2847C118.437 23.7786 118.477 24.1512 118.477 24.7781Z" fill="#C7C7FC"/>
<path fill-rule="evenodd" clip-rule="evenodd" d="M120.529 26.8313C120.917 26.8732 120.947 26.7554 121.268 26.583C121.666 26.3696 122.934 25.7128 123.115 25.5232C123.407 25.2185 123.361 24.444 123.412 23.9083C123.582 22.1329 123.718 22.3857 120.545 24.1616C119.916 24.5135 119.827 24.5546 120.072 25.3919C120.162 25.7022 120.396 26.6273 120.529 26.8313Z" fill="#FDFDFD"/>
<path fill-rule="evenodd" clip-rule="evenodd" d="M123.193 26.825C123.892 26.5725 123.702 26.3825 123.796 25.6144C123.862 25.0739 123.903 24.5858 123.963 24.0289C124.026 23.4312 123.977 22.9749 124.254 22.5461C124.453 22.2379 124.885 21.7799 124.784 21.4567C124.515 21.4384 124.486 21.5623 124.34 21.7837C123.773 22.6466 123.73 22.4313 123.648 23.4304C123.571 24.3673 123.404 25.3164 123.384 26.2616C123.082 26.4126 121.052 27.4919 120.861 27.67C120.58 27.933 120.811 28.0475 120.876 28.1767C121.013 28.4506 120.627 28.9307 121.096 28.9694C121.271 28.9837 121.936 28.5912 121.547 27.7845C121.677 27.7097 121.837 27.6282 122.009 27.5314C122.307 27.3627 122.192 27.3408 122.551 27.2927C122.486 27.491 122.45 27.7142 122.484 27.9951C122.859 28.1377 122.992 28.036 123.173 27.7126C123.326 27.4394 123.254 27.1349 123.193 26.825Z" fill="#FDFDFD"/>
<path fill-rule="evenodd" clip-rule="evenodd" d="M9.31854 95.2496C9.6925 95.3009 12.1801 93.7806 12.5998 93.524C14.6655 92.2614 14.962 92.5656 14.1548 90.9848C13.9442 90.5724 13.8751 90.5524 13.322 90.5459C12.7358 90.539 12.8062 90.696 12.5149 91.004C11.5631 92.0106 11.2302 91.38 10.8439 91.8257C10.4874 92.2369 10.006 92.7247 9.81515 93.3009C9.68191 93.7034 9.2716 94.8532 9.31854 95.2496Z" fill="#FDFDFD"/>
<path fill-rule="evenodd" clip-rule="evenodd" d="M12.3368 87.6211C10.5601 88.0972 10.2167 91.2897 11.5834 91.1443C12.2425 91.0741 12.795 90.1566 12.9762 89.6159C13.1994 88.9499 13.3344 87.3538 12.3368 87.6211Z" fill="#FDFDFD"/>
<path d="M137.346 212.479C148.425 212.479 157.406 207.923 157.406 202.302C157.406 196.681 148.425 192.124 137.346 192.124C126.267 192.124 117.285 196.681 117.285 202.302C117.285 207.923 126.267 212.479 137.346 212.479Z" fill="#DADFFE"/>
<path fill-rule="evenodd" clip-rule="evenodd" d="M149.867 71.9408L150.075 73.6987C149.954 75.01 149.981 74.6081 149.551 75.7568C152.024 74.8257 150.688 74.2346 152.238 73.4975C153.197 75.5455 150.732 76.9371 149.08 78.0551C147.393 79.1961 144.543 79.3886 142.31 79.3721C139.427 79.3507 138.073 79.2989 135.597 79.9368C132.39 80.7637 132.609 81.4369 131.169 83.3843C131.745 83.6632 131.31 83.4841 132.109 83.6692C134.225 84.1589 136.5 84.3294 138.382 87.0052L140.542 90.8832C142.092 95.151 141.496 101.006 139.926 105.448C139.555 106.497 139.082 107.817 138.859 108.841C136.073 121.622 139.521 122.7 140.373 126.332C140.861 128.412 140.964 131.956 140.95 134.359C137.654 134.671 133.875 134.997 130.706 133.805C124.816 131.588 128.766 133.679 122.851 130.369C122.712 131.918 122.188 133.436 121.926 134.882C119.269 149.54 127.443 161.162 127.273 164.343C127.715 164.818 127.413 164.308 127.85 165.204C127.944 165.397 128.115 165.94 128.179 166.162C128.427 167.027 128.542 167.655 128.678 168.54L129.463 173.988L129.915 178.599L130.145 182.745L130.184 186.649C130.894 188.358 130.607 195.526 129.936 197.384C129.944 201.637 137.01 205.278 141.475 204.011C141.733 202.487 139.576 188.043 140.51 181.685C142.898 165.428 137.022 178.823 137.999 152.014C138.117 148.772 138.901 137.184 139.892 135.176C140.709 134.54 145.135 133.978 146.571 133.8C145.882 140.563 142.32 140.409 142 142.81C141.863 143.841 142.009 145.801 142.014 146.934C142.039 152.506 140.895 160.042 141.363 163.429C142.4 170.918 145.052 170.198 143.512 182.23C143.082 185.592 143.322 193.924 143.263 194.134C144.471 194.417 146.047 195.846 147.06 196.442C148.821 197.48 149.269 197.719 151.584 197.413C151.943 194.62 152.205 192.135 152.59 189.32C152.952 186.665 152.948 183.63 153.293 181.145C156.375 158.945 152.556 164.28 150.757 149.522C150.288 145.672 149.955 136.611 150.712 132.636C151.827 131.917 152.88 131.704 154.187 130.845L154.978 130.373C155.713 129.891 155.979 129.115 156.884 128.507C158.977 127.57 158.032 125.36 157.619 123.402C157.192 121.371 156.78 119.393 156.343 117.361C155.04 111.3 154.849 111.31 155.706 105.003C156.92 96.0604 162.726 92.4932 162.122 82.5309C161.954 79.2816 161.568 76.0886 159.755 73.8545C158.959 72.8731 157.651 71.9749 156.582 71.6586C154.996 71.1888 153.462 71.8826 152.557 71.3025L149.867 71.9408Z" fill="#2D4281"/>
<path fill-rule="evenodd" clip-rule="evenodd" d="M103.541 91.9333L103.2 92.6279C103.195 92.6497 103.228 92.7315 103.225 92.784C105.13 91.746 107.36 91.1834 109.313 90.5097L115.939 88.4952C121.305 87.0687 132.915 82.2056 135.977 87.1445C136.725 88.3514 140.198 100.756 128.474 98.8507C125.687 98.3977 125.72 99.0084 124.99 97.7679L124.98 98.6391C124.407 101.84 125.823 104.513 126.029 107.243C126.268 110.426 124.523 112.567 124.478 115.388C124.466 117.038 124.228 116.97 126.677 118.417C127.136 118.688 127.426 118.891 127.89 119.106C128.447 119.364 128.578 119.277 129.137 119.608C129.085 120.218 128.86 121.673 128.645 122.107C125.306 122.257 124.931 121.83 123.088 120.183C122.553 121.953 122.071 123.854 121.52 125.798C120.792 128.368 121.199 128.719 122.851 130.369C128.766 133.679 124.816 131.588 130.706 133.805C133.875 134.997 137.654 134.671 140.95 134.359C140.964 131.956 140.861 128.412 140.373 126.332C139.521 122.7 136.073 121.622 138.859 108.841C139.082 107.817 139.555 106.497 139.926 105.448C141.496 101.006 142.092 95.151 140.542 90.8832L138.382 87.0052C136.5 84.3294 134.225 84.1589 132.109 83.6692C131.31 83.4841 131.745 83.6632 131.169 83.3843C132.609 81.4369 132.39 80.7637 135.597 79.9368C138.073 79.2989 139.426 79.3507 142.31 79.3721C144.543 79.3886 147.393 79.1961 149.08 78.0551C150.732 76.9371 153.197 75.5455 152.238 73.4975C150.688 74.2347 152.024 74.8257 149.551 75.7568C148.763 75.8555 144.659 78.7318 140.538 77.5346C139.936 77.3597 139.694 77.1897 139.234 76.9278C138.205 76.3426 139.559 76.7217 138.177 76.3716C135.889 77.4111 133.033 78.7108 130.406 79.0981C130.861 78.2852 130.586 79.0993 131.044 77.8232C129.762 77.5166 129.286 77.0932 128.493 75.9365C126.707 73.3302 128.176 72.9958 126.422 73.2269C126.21 74.0894 123.47 75.9178 122.409 76.8223C119.761 79.079 119.829 77.7605 116.089 78.1688C114.796 79.8753 114.679 81.8671 114.043 82.7648C113.681 83.2752 111.154 85.0743 110.302 85.6985C108.533 86.9947 103.889 90.4692 103.541 91.9333Z" fill="#132146"/>
<path fill-rule="evenodd" clip-rule="evenodd" d="M103.541 91.9333C100.829 92.9882 100.169 96.6083 101.513 99.0458C102.956 101.664 105.335 101.963 108.637 101.832C114.671 101.592 119.469 98.9186 124.98 98.6391L124.99 97.768C125.72 99.0084 125.687 98.3977 128.474 98.8507C140.198 100.756 136.725 88.3515 135.977 87.1445C132.915 82.2056 121.305 87.0687 115.939 88.4952L109.313 90.5097C107.36 91.1834 105.13 91.746 103.225 92.784C103.228 92.7315 103.196 92.6497 103.2 92.6279L103.541 91.9333Z" fill="#2D4281"/>
<path fill-rule="evenodd" clip-rule="evenodd" d="M141.475 204.011C142.856 203.497 142.8 202.88 143.619 201.955L143.778 199.445C143.934 198.381 143.477 198.611 144.42 198.805C143.126 197.273 143.263 196.456 143.263 194.134C143.322 193.924 143.082 185.592 143.512 182.23C145.052 170.198 142.4 170.918 141.364 163.429C140.895 160.042 142.039 152.506 142.014 146.934C142.009 145.801 141.863 143.841 142 142.81C142.32 140.409 145.882 140.563 146.571 133.8C145.135 133.978 140.709 134.54 139.892 135.176C138.902 137.184 138.117 148.772 137.999 152.014C137.022 178.823 142.898 165.428 140.51 181.685C139.576 188.043 141.733 202.487 141.475 204.011Z" fill="#465B9B"/>
<path fill-rule="evenodd" clip-rule="evenodd" d="M129.734 52.8645L130.098 51.8328C131.313 52.7166 131.395 53.7107 131.684 54.5619L132.069 54.7867C133.324 58.1201 137.324 60.4721 140.462 61.5867C145.973 63.5447 149.044 61.8825 153.559 60.597C152.261 53.2623 146.257 50.8064 141.448 48.3436C139.909 47.5552 139.556 48.0547 137.866 47.8381C136.555 47.6704 136.241 47.0969 134.682 46.767L133.508 48.3759C132.341 47.7278 132.009 47.357 130.551 47.3949C129.908 48.7779 130.304 49.4845 130.47 50.9737C129.398 51.5682 128.616 51.6012 129.734 52.8645Z" fill="#723D24"/>
<path fill-rule="evenodd" clip-rule="evenodd" d="M151.584 197.413C152.263 197.273 152.515 197.175 152.856 196.928L153.666 196.05C153.728 195.974 153.807 195.871 153.859 195.807C153.913 195.74 153.986 195.632 154.059 195.552C155.039 193.249 154.357 190.412 155.279 188.271C155.165 185.688 156.019 181.193 156.365 178.446C156.769 175.238 157.425 172.291 157.822 168.991C158.203 165.689 157.901 164.409 157.515 161.285C157.005 160.281 155.591 155.631 155.172 154.059C153.462 147.643 153.545 142.974 155.171 136.523C155.616 134.758 156.437 129.545 156.884 128.507C155.979 129.115 155.713 129.891 154.978 130.373L154.187 130.845C152.88 131.704 151.827 131.917 150.712 132.636C149.955 136.611 150.288 145.672 150.757 149.522C152.556 164.28 156.375 158.945 153.293 181.145C152.948 183.63 152.952 186.665 152.59 189.32C152.205 192.135 151.943 194.62 151.584 197.413Z" fill="#465B9B"/>
<path fill-rule="evenodd" clip-rule="evenodd" d="M118.528 199.793C117.721 200.92 118.178 199.671 117.646 201.167C117.363 201.967 117.37 202.217 117.372 203.248C119.133 204.183 119.317 205.071 122.019 205.961C123.752 206.533 126.901 206.788 128.973 206.798C134.217 206.822 137.524 208.465 142.754 207.543C144.213 206.759 144.568 203.493 143.619 201.956C142.8 202.88 142.856 203.497 141.475 204.011C137.01 205.278 129.944 201.637 129.936 197.384C128.624 197.593 128.367 198.027 127.401 198.382C126.643 198.661 125.482 198.758 124.506 198.886C122.816 199.107 120.224 199.365 118.528 199.793Z" fill="#EEDE20"/>
<path fill-rule="evenodd" clip-rule="evenodd" d="M129.734 52.8646C129.781 53.7904 131.204 55.903 131.45 57.6488C132.104 58.4159 131.953 58.6749 132.922 59.4011C133.921 60.1506 134.086 59.9978 134.851 60.8243C134.218 63.0475 133.438 63.666 136.589 67.4024L137.224 65.7808C138.457 66.0712 139.1 66.9531 139.264 67.8647C142.638 70.2382 144.363 72.6288 149.515 68.3477C150.243 67.7428 149.592 68.1631 150.372 67.7424C152.09 65.6074 153.417 64.6046 153.558 60.5971C149.044 61.8826 145.973 63.5448 140.462 61.5868C137.324 60.4721 133.324 58.1202 132.069 54.7868L131.684 54.562C131.395 53.7108 131.313 52.7167 130.098 51.8329L129.734 52.8646Z" fill="#4B2614"/>
<path fill-rule="evenodd" clip-rule="evenodd" d="M129.031 71.5644C129.319 76.5154 131.697 76.9931 135.469 74.9886C137.264 74.0347 137.199 73.3482 137.673 72.7091C138.232 71.9566 137.613 72.234 138.534 72.0557C138.066 70.8427 138.406 71.3029 136.779 70.8484C138.958 70.3229 140.175 70.2212 139.264 67.8647C139.1 66.9531 138.457 66.0712 137.224 65.7807L136.589 67.4024C133.438 63.666 134.218 63.0475 134.851 60.8242C134.086 59.9978 133.92 60.1506 132.921 59.4011C131.953 58.6749 132.104 58.4159 131.45 57.6488C131.766 62.8335 133.056 64.1771 133.149 65.9816C131.696 66.7798 131.772 66.841 130.811 68.4037C130.224 69.3577 129.465 70.3286 129.031 71.5644Z" fill="#EC9971"/>
<path fill-rule="evenodd" clip-rule="evenodd" d="M126.422 73.227C128.176 72.9959 126.707 73.3302 128.493 75.9366C129.286 77.0933 129.761 77.5166 131.044 77.8232C130.586 79.0993 130.861 78.2853 130.405 79.0981C133.033 78.7109 135.889 77.4112 138.177 76.3717C139.559 76.7218 138.205 76.3427 139.233 76.9278C139.694 77.1897 139.936 77.3597 140.538 77.5347C144.659 78.7318 148.763 75.8555 149.55 75.7569C149.981 74.6081 149.954 75.0101 150.074 73.6987C148.695 74.3112 147.984 75.2507 144.803 75.7539C142.409 76.1326 140.516 76.0057 138.832 75.1395L138.705 73.4825L138.534 72.0557C137.613 72.234 138.231 71.9566 137.673 72.7091C137.199 73.3482 137.264 74.0347 135.469 74.9887C131.697 76.9931 129.319 76.5154 129.031 71.5645L127.438 72.2989C126.342 72.9737 127.021 72.1788 126.422 73.227Z" fill="#D1E6F6"/>
<path fill-rule="evenodd" clip-rule="evenodd" d="M144.42 198.805C146.903 201.36 148.643 202.496 151.9 201.65C153.523 201.228 153.239 200.878 154.372 200.245L154.305 202.834C154.943 201.71 154.739 200.773 154.426 199.665C154.076 198.43 154.002 197.623 153.99 196.063L154.059 195.552C153.986 195.632 153.913 195.74 153.859 195.807C153.807 195.872 153.728 195.974 153.666 196.05L152.856 196.928C152.515 197.175 152.263 197.273 151.584 197.413C149.27 197.719 148.821 197.48 147.06 196.442C146.047 195.846 144.471 194.417 143.263 194.134C143.263 196.456 143.126 197.273 144.42 198.805Z" fill="#FFBB00"/>
<path fill-rule="evenodd" clip-rule="evenodd" d="M105.765 84.1762C107.674 82.4394 109.88 82.0592 112.075 83.2692C112.576 77.7925 115.418 80.1778 113.423 75.9385C111.696 75.2453 111.383 74.4373 108.857 74.4606C109.2 75.6826 109.256 75.1215 109.345 76.4538C107.304 76.6077 107.443 75.8 105.161 75.8162C104.986 77.8131 105.526 77.4874 106.954 78.3952C107.76 78.9079 108.844 79.6242 109.785 79.9778C109.055 81.1971 108.273 81.3499 106.957 81.9801C105.893 82.4904 105.115 82.9651 104.179 83.3859C104.962 84.4517 102.906 84.5407 105.765 84.1762Z" fill="#EC9971"/>
<path fill-rule="evenodd" clip-rule="evenodd" d="M118.897 206.059C127.872 209.36 125.485 207.347 133.053 208.35C136.743 208.839 132.471 210.224 139.119 210.413C140.327 210.447 141.868 210.433 142.854 210.057C144.506 209.427 144.108 208.776 144.057 206.829C142.798 207.261 143.767 206.725 142.753 207.543C137.524 208.465 134.217 206.822 128.973 206.798C126.901 206.788 123.752 206.533 122.019 205.961C119.317 205.071 119.133 204.183 117.372 203.248C117.435 205.324 118.059 204.824 118.897 206.059Z" fill="#132146"/>
<path fill-rule="evenodd" clip-rule="evenodd" d="M138.535 72.0557L138.706 73.4825C138.765 73.555 138.812 73.5948 138.832 73.7336C138.952 74.5488 139.538 75.6063 140.541 75.3038C140.863 75.2074 142.226 74.0377 143.069 73.6312C144.889 72.7538 147.248 72.5901 149.298 71.8939C149.315 70.9557 149.37 70.2757 149.924 69.4646L150.372 67.7424C149.592 68.1631 150.243 67.7428 149.515 68.3478C144.363 72.6288 142.638 70.2382 139.264 67.8648C140.175 70.2212 138.959 70.3229 136.779 70.8484C138.406 71.3029 138.066 70.8427 138.535 72.0557Z" fill="#B96D51"/>
<path fill-rule="evenodd" clip-rule="evenodd" d="M152.557 71.3024C153.462 71.8826 154.996 71.1887 156.582 71.6586C157.651 71.9749 158.959 72.873 159.755 73.8544C161.568 76.0886 161.954 79.2815 162.122 82.5309C164.372 80.3834 163.208 75.0179 161.845 73.064C159.266 69.3685 157.188 70.7244 152.557 71.3024Z" fill="#071235"/>
<path fill-rule="evenodd" clip-rule="evenodd" d="M138.706 73.4826L138.832 75.1395C140.516 76.0058 142.409 76.1326 144.803 75.7539C147.984 75.2507 148.695 74.3112 150.075 73.6988L149.867 71.9409L149.924 69.4647C149.37 70.2757 149.315 70.9557 149.298 71.894C147.248 72.5902 144.889 72.7538 143.069 73.6312C142.226 74.0377 140.862 75.2074 140.541 75.3039C139.538 75.6064 138.952 74.5488 138.832 73.7337C138.811 73.5949 138.765 73.5551 138.706 73.4826Z" fill="#EDA697"/>
<path fill-rule="evenodd" clip-rule="evenodd" d="M143.778 199.445C145.683 200.155 144.918 202.344 148.007 203.835C150.161 204.873 152.79 204.063 154.304 202.834L154.372 200.245C153.238 200.878 153.523 201.228 151.899 201.65C148.643 202.496 146.902 201.36 144.42 198.805C143.477 198.611 143.934 198.381 143.778 199.445Z" fill="#132146"/>
<path fill-rule="evenodd" clip-rule="evenodd" d="M123.088 120.183C124.932 121.83 125.306 122.257 128.645 122.107C128.86 121.673 129.085 120.218 129.137 119.608C128.578 119.277 128.447 119.364 127.89 119.106C127.427 118.891 127.136 118.688 126.677 118.417C124.229 116.97 124.467 117.038 124.478 115.388L123.088 120.183Z" fill="#2D4281"/>
</svg>
