<svg width="215" height="327" viewBox="0 0 215 327" fill="none" xmlns="http://www.w3.org/2000/svg">
<path d="M97.469 223.079L21.3445 266.36C15.8045 269.51 15.8045 274.617 21.3445 277.766L97.469 321.048C103.009 324.197 111.991 324.197 117.531 321.048L193.656 277.766C199.196 274.617 199.196 269.51 193.656 266.36L117.531 223.079C111.991 219.929 103.009 219.929 97.469 223.079Z" fill="#F9F9F9"/>
<path fill-rule="evenodd" clip-rule="evenodd" d="M208.921 216.419C208.736 222.236 209.036 228.129 208.915 230.541C208.823 232.373 207.654 234.108 205.366 235.408L117.134 285.573C111.835 288.586 102.455 288.183 96.2894 284.677L11.211 236.305C7.78532 234.357 6.0443 231.845 6.08101 229.481C6.11035 227.59 6.08977 219.898 6.08148 215.637C6.12111 213.755 7.28946 211.968 9.63386 210.635L97.8664 160.47C103.165 157.457 112.545 157.861 118.711 161.367L203.789 209.738C207.104 211.623 208.845 214.123 208.921 216.419Z" fill="#D8EAFF"/>
<path fill-rule="evenodd" clip-rule="evenodd" d="M106.948 158.286C111.037 158.303 115.351 159.293 118.711 161.203L203.789 209.575C207.104 211.46 208.845 213.96 208.921 216.256C208.736 222.073 209.036 227.966 208.915 230.377C208.823 232.21 207.654 233.944 205.366 235.245L117.134 285.41C114.798 286.738 112.371 287.272 108.372 287.43L106.948 158.286Z" fill="#C4E0FF"/>
<path d="M96.289 160.554L11.211 208.926C5.01933 212.446 5.01933 218.153 11.211 221.674L96.289 270.045C102.481 273.566 112.519 273.566 118.711 270.045L203.789 221.674C209.981 218.153 209.981 212.446 203.789 208.926L118.711 160.554C112.519 157.034 102.481 157.034 96.289 160.554Z" fill="#F5F8FF"/>
<path fill-rule="evenodd" clip-rule="evenodd" d="M204.32 206.325C204.395 209.542 204.366 213.77 204.32 214.858C204.245 216.623 203.127 218.296 200.924 219.548L116.509 267.543C111.44 270.425 102.465 270.039 96.5663 266.685L15.1689 220.406C11.9181 218.558 10.2139 216.178 10.2605 213.932C10.271 213.415 10.3208 208.139 10.2655 205.575C10.2276 203.817 11.4667 202.156 13.6601 200.909L98.075 152.914C103.144 150.032 112.119 150.418 118.018 153.772L199.415 200.051C202.57 201.845 204.232 204.139 204.32 206.325Z" fill="#E3F0FF"/>
<path d="M97.0271 152.583L15.6301 198.862C9.70633 202.23 9.70633 207.69 15.6301 211.058L97.0271 257.337C102.951 260.705 112.555 260.705 118.479 257.337L199.876 211.058C205.8 207.69 205.8 202.23 199.876 198.862L118.479 152.583C112.555 149.215 102.951 149.215 97.0271 152.583Z" fill="#F5F8FF"/>
<path fill-rule="evenodd" clip-rule="evenodd" d="M208.921 177.239C208.736 183.056 209.036 188.949 208.915 191.36C208.823 193.193 207.654 194.927 205.366 196.228L117.134 246.393C111.835 249.406 102.455 249.002 96.2894 245.497L11.211 197.125C7.78532 195.177 6.0443 192.665 6.08101 190.301C6.11035 188.41 6.08977 180.717 6.08148 176.457C6.12111 174.575 7.28946 172.788 9.63386 171.455L97.8664 121.29C103.165 118.277 112.545 118.681 118.711 122.186L203.789 170.558C207.104 172.443 208.845 174.943 208.921 177.239Z" fill="#D8EAFF"/>
<path fill-rule="evenodd" clip-rule="evenodd" d="M106.948 119.269C111.037 119.286 115.351 120.276 118.711 122.186L203.789 170.558C207.104 172.443 208.845 174.943 208.921 177.239C208.736 183.056 209.036 188.949 208.915 191.36C208.823 193.193 207.654 194.927 205.366 196.228L117.134 246.393C114.798 247.721 112.371 248.255 108.372 248.413L106.948 119.269Z" fill="#C4E0FF"/>
<path d="M96.289 121.374L11.211 169.746C5.01933 173.266 5.01933 178.974 11.211 182.494L96.289 230.866C102.481 234.386 112.519 234.386 118.711 230.866L203.789 182.494C209.981 178.974 209.981 173.266 203.789 169.746L118.711 121.374C112.519 117.854 102.481 117.854 96.289 121.374Z" fill="#F5F8FF"/>
<path fill-rule="evenodd" clip-rule="evenodd" d="M103.654 132.594C102.379 133.828 99.198 137.346 98.8968 139.192C103.882 139.501 108.124 138.306 116.904 139.348C134.928 141.487 161.963 152.018 156.764 172.756C155.655 177.18 152.07 181.363 149.205 183.811C146.809 185.857 141.254 189.201 137.565 190.789C132.836 192.825 128.459 194.176 123.019 195.225C112.574 197.239 99.2212 196.912 88.8215 194.617C79.1026 192.472 69.0866 187.579 63.8663 181.988C56.2648 173.848 55.4971 164.422 62.3856 155.601C69.7131 146.218 84.3503 142.736 85.936 141.495C86.4563 140.677 88.8989 134.939 89.0244 134.284C85.3658 134.242 77.6745 136.959 74.3561 138.217C69.8244 139.936 65.8032 141.977 61.9365 144.459C55.3755 148.671 47.1255 155.467 46.6115 166.576L46.9013 181.482L46.8281 172.713C46.9442 172.798 47.0118 172.829 47.0374 172.988L47.3142 173.538C48.2066 175.666 48.6934 178.097 50.6004 180.626C53.6181 184.629 52.7694 183.523 55.9309 186.604L62.4781 191.386C68.2993 194.868 70.9449 196.408 77.8642 198.664C78.9877 199.031 80.9297 199.692 82.1701 200.047C83.2166 200.346 85.4487 200.714 86.8237 201.002C106.101 205.035 128.196 203.186 145.637 195.211C150.417 193.025 156.643 189.201 159.965 185.58C164.644 180.48 165.16 180.967 167.622 173.326C167.755 172.913 167.395 173.753 167.812 172.804C168.306 171.681 167.888 172.53 168.254 172.034L168.432 169.155C168.868 165.308 167.782 161.47 166.514 158.293C163.476 150.684 153.943 143.984 146.09 140.356C139.917 137.504 134.163 135.577 126.755 134.077C121.285 132.97 108.926 131.575 103.654 132.594Z" fill="#EEDE20"/>
<path fill-rule="evenodd" clip-rule="evenodd" d="M98.8968 139.192C97.6359 139.818 95.8599 143.781 95.2964 145.318C96.1418 145.55 99.4288 144.711 100.998 144.56C103.758 144.293 105.538 144.294 108.294 144.411C116.286 144.748 124.922 145.79 132.1 149.357C136.412 151.5 137.151 151.828 141.022 154.77C146.23 158.728 150.489 166.76 145.824 175.081C132.525 198.805 71.6347 195.046 67.4526 170.434C66.6613 165.778 68.1294 161.967 70.1669 159.077C71.7208 156.874 75.3668 153.129 78.0958 152.286L78.1126 149.31C78.3742 147.895 78.9252 146.838 79.4117 146.066C80.4621 145.752 83.3687 145.479 84.729 145.632L85.3245 145.694C84.9702 143.443 85.6848 143.341 85.936 141.495C84.3503 142.736 69.7131 146.219 62.3856 155.601C55.4971 164.422 56.2648 173.848 63.8663 181.988C69.0866 187.579 79.1026 192.472 88.8215 194.617C99.2212 196.912 112.574 197.239 123.019 195.225C128.459 194.176 132.836 192.825 137.565 190.789C141.254 189.201 146.809 185.857 149.205 183.811C152.07 181.363 155.655 177.181 156.764 172.756C161.963 152.018 134.928 141.487 116.904 139.348C108.124 138.306 103.882 139.502 98.8968 139.192Z" fill="white"/>
<path fill-rule="evenodd" clip-rule="evenodd" d="M95.2965 145.318L91.9878 152.92C94.633 152.61 97.5118 151.424 100.638 150.934C109.53 149.541 119.281 151.151 127.036 154.835C131.353 156.886 136.045 160.58 137.172 165.594C140.394 179.933 113.97 188.368 96.048 183.739C89.629 182.081 79.9631 177.795 78.0137 170.572C77.0781 167.105 78.0357 164.609 79.2891 162.146C79.3236 159.449 79.4822 158.289 78.8808 155.611C78.3838 153.4 77.8501 151.969 78.1127 149.31L78.0959 152.286C75.3669 153.129 71.7209 156.873 70.167 159.077C68.1295 161.967 66.6614 165.778 67.4527 170.434C71.6348 195.046 132.525 198.805 145.824 175.081C150.489 166.76 146.23 158.728 141.022 154.77C137.151 151.828 136.412 151.5 132.1 149.357C124.922 145.79 116.286 144.748 108.294 144.411C105.538 144.294 103.758 144.293 100.998 144.56C99.4289 144.711 96.1419 145.55 95.2965 145.318Z" fill="#EEDE20"/>
<path fill-rule="evenodd" clip-rule="evenodd" d="M46.9013 181.482C48.5133 192.784 61.1968 201.79 70.8729 205.639C84.6705 211.127 95.9704 213.071 112.295 212.507C129.182 211.923 145.134 207.356 157.377 197.654C159.587 195.902 161.558 194.036 163.385 191.662C168.69 184.769 168.005 181.833 168.254 172.034C167.888 172.53 168.306 171.681 167.812 172.804C167.395 173.753 167.755 172.913 167.622 173.326C165.16 180.967 164.644 180.48 159.965 185.58C156.643 189.201 150.417 193.025 145.637 195.211C128.196 203.187 106.101 205.035 86.8237 201.002C85.4488 200.714 83.2166 200.346 82.1701 200.047C80.9297 199.692 78.9877 199.031 77.8642 198.664C70.9449 196.408 68.2993 194.868 62.4781 191.386L55.9309 186.604C52.7694 183.523 53.6181 184.63 50.6004 180.626C48.6934 178.097 48.2066 175.666 47.3142 173.539L47.0374 172.988C47.0119 172.829 46.9442 172.798 46.8281 172.713L46.9013 181.482Z" fill="#FFBB00"/>
<path fill-rule="evenodd" clip-rule="evenodd" d="M103.657 158.371C111.241 157.011 120.145 160.145 122.977 164.542C127.39 171.395 117.751 176.505 111.584 177.194C93.0008 179.268 84.6174 166.829 96.2453 160.798C97.0201 160.396 97.6914 160.131 98.5601 159.761C100.197 159.064 101.804 158.704 103.657 158.371ZM91.9878 152.92L91.2732 153.15C90.3927 154.346 90.7734 155.394 90.2476 157.141C89.9447 158.148 89.4552 159.475 89.2604 160.809C88.8278 163.77 89.5703 166.741 89.1303 169.609C88.7516 171.449 87.6028 172.261 85.8991 172.418C84.1624 172.577 82.9429 171.685 82.0702 170.792C79.8436 168.512 79.149 166.166 79.289 162.146C78.0356 164.609 77.078 167.105 78.0136 170.572C79.963 177.795 89.6289 182.081 96.0479 183.739C113.97 188.368 140.394 179.934 137.172 165.594C136.045 160.58 131.353 156.886 127.036 154.835C119.281 151.151 109.53 149.541 100.638 150.934C97.5117 151.424 94.633 152.61 91.9878 152.92Z" fill="white"/>
<path fill-rule="evenodd" clip-rule="evenodd" d="M39.4142 61.7947C39.0702 61.3785 39.0296 61.456 38.7029 61.2216C34.1235 64.2738 37.3122 62.7298 36.0451 64.319L33.7083 65.502C32.3518 63.0821 29.888 55.9998 28.4439 54.8219C28.7751 54.4801 28.5571 54.5773 29.2084 54.167C32.3947 52.161 30.2797 55.4365 34.7032 52.5499C33.7401 48.1708 30.7166 50.2352 28.6111 51.0607C28.3079 49.4357 26.5279 46.1931 25.7177 44.4646L3.07508 42.5096C2.11192 43.7363 0.651738 45.5474 0 47.0072L14.1563 76.966C14.1814 76.9125 14.2628 77.1165 14.3214 77.2019L37.1419 79.3224C36.5067 77.2384 27.7195 59.1015 25.9718 55.1208C23.5885 49.6916 22.3278 49.3751 23.9736 47.4397C24.3374 48.6464 24.8623 49.6346 25.4669 50.8365C26.7972 53.482 25.9022 53.6896 26.6396 54.3775L32.4329 65.8417C33.387 68.4123 32.1348 66.1561 33.831 68.8311C34.2801 69.5393 34.8444 70.8415 35.2519 71.6917C35.2598 71.7079 37.8994 77.9668 38.3363 77.4072C38.3929 77.3344 38.5286 77.57 38.634 77.6385C39.5736 73.8433 40.5996 76.3713 38.7894 72.5082C37.9387 70.6932 36.9433 69.1312 36.5197 67.2874C38.5369 66.8993 38.6874 66.3193 40.1068 65.5461C40.2421 63.6316 39.9699 63.407 39.4142 61.7947Z" fill="#733D25"/>
<path fill-rule="evenodd" clip-rule="evenodd" d="M170.559 173.105C169.306 170.306 168.608 166.31 168.254 172.034C168.005 181.833 168.69 184.769 163.385 191.662C161.558 194.036 159.587 195.902 157.377 197.654C145.134 207.356 129.182 211.923 112.295 212.507C95.9704 213.071 84.6705 211.127 70.8729 205.639C61.1968 201.79 48.5133 192.784 46.9013 181.482L46.6115 166.576L45.7947 169.275C44.7749 173.013 43.4677 173.938 43.2636 179.855C42.6771 196.836 60.2242 207.315 74.373 212.449C87.9595 217.38 105.429 218.597 119.823 217.021C130.276 215.876 131.695 215.082 140.534 212.435C146.222 210.731 156.441 205.177 160.884 201.173C163.074 199.199 165.345 197.186 166.978 194.597C172.309 188.313 171.819 175.921 170.559 173.105Z" fill="#D9E8F9"/>
<path fill-rule="evenodd" clip-rule="evenodd" d="M101.812 87.2948C102.088 89.1172 101.756 93.763 101.951 96.2969C102.567 104.339 105.15 113.864 103.122 121.377C101.617 126.949 99.1582 129.237 96.4243 133.376L92.7303 139.026C91.329 141.05 90.148 142.451 88.7365 143.902L87.0155 150.021C87.5641 151.668 88.558 152.33 90.3477 153.099L91.2731 153.15L91.9877 152.92L95.2964 145.318C95.8599 143.782 97.6359 139.818 98.8968 139.192C99.198 137.346 102.379 133.829 103.654 132.594C104.175 131.64 105.625 130.588 106.709 129.687C107.845 128.742 108.51 128.05 109.455 126.713C111.041 124.468 111.231 120.744 111.634 117.643C111.122 116.192 111.688 114.224 111.95 112.88C112.28 111.19 112.043 109.345 111.99 107.608C111.88 103.971 112.385 100.514 112.47 97.3064C112.663 90.0033 111.657 94.4241 114.186 88.479C114.973 86.6299 116.801 82.449 116.678 80.1498L112.782 80.4066C112.679 82.2338 112.552 84.568 112.108 87.064C108.34 87.578 104.613 86.9255 101.812 87.2948Z" fill="#1561DD"/>
<path fill-rule="evenodd" clip-rule="evenodd" d="M103.657 158.371C101.803 158.704 100.197 159.064 98.5601 159.761C97.6913 160.131 97.0201 160.396 96.2453 160.798C84.6174 166.829 93.0008 179.268 111.584 177.193C117.751 176.505 127.39 171.395 122.977 164.542C120.145 160.145 111.241 157.011 103.657 158.371Z" fill="#EEDE20"/>
<path fill-rule="evenodd" clip-rule="evenodd" d="M97.0927 85.2305C96.0953 84.8694 96.4763 84.8046 95.2116 84.3015L96.3065 99.1598C94.7354 100.369 94.6182 103.205 95.0598 105.587C96.1878 111.67 96.8874 107.204 97.2752 111.552C97.2704 114.177 97.937 116.482 97.8556 119.248C97.7215 123.794 95.8601 124.191 93.6909 126.978C89.9842 131.74 90.5238 132.364 89.0247 134.284C88.8992 134.939 86.4566 140.677 85.9363 141.495C85.685 143.341 84.9704 143.443 85.3248 145.694L85.6319 146.467C85.8592 147.607 86.2297 149.108 87.0158 150.021L88.7368 143.902C90.1482 142.451 91.3292 141.05 92.7305 139.026L96.4245 133.376C99.1585 129.237 101.618 126.949 103.122 121.377C105.15 113.864 102.567 104.339 101.951 96.2968C101.756 93.7629 102.088 89.1171 101.813 87.2947L102.802 80.37C101.779 80.9438 98.5871 84.965 97.7116 85.3154C97.0144 85.595 97.403 86.0206 97.0927 85.2305Z" fill="#003897"/>
<path fill-rule="evenodd" clip-rule="evenodd" d="M105.904 25.7046C104.875 26.28 105.62 25.6358 109.846 28.1366L114.032 31.2407C113.686 32.8334 112.837 33.7797 112.157 35.402C114.608 35.4794 116.456 35.5313 117.239 37.6747C117.881 39.4303 118.122 41.8008 119.111 43.0239C120.583 43.3543 120.63 43.6658 122.357 43.7759C122.049 42.2716 121.531 40.949 120.899 39.4377C120.259 37.9075 119.275 36.4391 118.854 35.2151L116.303 32.0068C125.787 30.6414 132.36 33.1108 143.66 29.4313C145.705 28.7658 149.84 27.3858 151.64 27.1573C151.1 28.931 151.014 28.9499 152.252 30.3719L152.948 31.1569C155.382 30.5713 158.148 29.8741 160.24 29.036C160.76 24.7761 159.371 23.319 157.679 21.0585C152.053 21.7349 147.179 25.7486 134.266 26.3275C124.739 26.7546 114.881 24.8052 105.904 25.7046Z" fill="#397BEC"/>
<path fill-rule="evenodd" clip-rule="evenodd" d="M91.5167 25.9378L92.2132 25.8085L93.9762 24.2814C96.4239 25.2732 96.6438 26.2099 100.09 25.4517C102.109 25.0074 103.962 23.8024 105.789 23.3041C107.873 22.3422 107.087 20.2688 106.473 18.5592C105.049 14.5907 101.536 6.00477 97.4335 5.20758C95.8721 5.35709 93.2282 7.32459 90.9374 8.67586C89.1492 9.73031 87.6603 12.3545 86.7313 14.376C88.3772 16.4823 89.712 14.857 90.6956 21.1808C89.0571 20.5708 88.8396 20.246 87.0299 20.8186C86.5413 22.7933 87.1049 23.3776 88.3296 24.0159C88.9105 24.3187 89.3985 24.5055 89.8606 24.7643C89.9986 24.8417 90.4002 25.0789 90.5154 25.1576L91.2551 25.7215C91.3279 25.7786 91.4345 25.86 91.5167 25.9378Z" fill="#FEAA83"/>
<path fill-rule="evenodd" clip-rule="evenodd" d="M122.984 83.1852C122.798 84.1664 122.561 84.2101 121.858 85.196C118.555 89.8245 116.252 93.0909 117.606 99.3173C120.738 113.711 122.76 109.589 117.917 114.885C119.566 113.971 118.996 112.878 121.453 112.368C122.309 118.358 121.457 114.448 121.642 117.373C124.441 118.9 127.599 115.165 128.5 112.806C129.298 110.719 129.238 104.15 129.058 101.606C128.524 94.0544 127.103 89.1342 124.405 82.968C124.889 82.3279 124.415 82.9527 125.016 82.3692L125.786 81.6058C125.224 81.8481 125.268 81.751 124.726 82.143C123.639 82.9304 124.957 83.7621 122.984 83.1852Z" fill="#1561DD"/>
<path fill-rule="evenodd" clip-rule="evenodd" d="M107.052 39.3344C108.795 40.5012 107.767 38.6548 109.488 41.1505C110.866 43.1491 111.911 44.0639 113.776 45.5186C114.738 46.2686 115.553 46.5718 116.39 47.446C118.168 47.5396 117.26 47.5491 118.036 47.9372C118.972 48.4057 118.642 48.231 119.765 48.5751C120.7 48.8619 122.516 49.2527 123.286 49.7042C130.025 50.4066 133.869 50.4923 140.619 49.0938C144.633 48.2621 146.434 48.3187 147.681 46.4086C148.769 44.7431 150.95 41.9886 151.325 40.6806C150.538 40.3404 144.211 39.054 143.613 39.1134C142.614 39.2124 141.848 40.2727 140.788 40.8674C139.771 41.4384 138.841 41.9281 137.733 42.5022C134.781 44.0333 125.542 45.9358 122.357 43.776C120.63 43.6659 120.583 43.3544 119.111 43.024C117.569 42.4236 116.01 41.3421 114.545 40.4265C112.801 39.336 111.644 37.9627 110.275 37.3032C109.706 38.8239 109.003 39.6105 107.052 39.3344Z" fill="#EEDE20"/>
<path fill-rule="evenodd" clip-rule="evenodd" d="M116.678 80.1497C116.801 82.4489 114.973 86.6298 114.187 88.4789C111.657 94.424 112.663 90.0032 112.47 97.3063C112.385 100.514 111.88 103.971 111.991 107.608C112.043 109.345 112.28 111.19 111.95 112.88C111.688 114.224 111.122 116.192 111.635 117.643L111.982 113.314C113.535 113.945 115.439 114.468 116.889 115.352C118.762 116.494 119.15 116.856 121.642 117.373C121.457 114.448 122.309 118.358 121.453 112.368C118.996 112.878 119.566 113.971 117.917 114.884C122.76 109.589 120.738 113.711 117.606 99.3172C116.252 93.0908 118.555 89.8243 121.858 85.1958C122.561 84.2099 122.798 84.1663 122.984 83.185L120.997 77.0449C120.46 77.984 120.931 77.3268 119.981 78.0457C119.445 78.4509 119.361 78.4894 118.778 78.7898C117.792 79.2976 117.35 79.3152 116.678 80.1497Z" fill="#003897"/>
<path fill-rule="evenodd" clip-rule="evenodd" d="M117.791 54.9669C117.437 52.1211 116.705 49.7667 116.39 47.446C115.553 46.5718 114.738 46.2686 113.776 45.5185C111.911 44.0637 110.866 43.149 109.488 41.1504C107.767 38.6547 108.795 40.5012 107.053 39.3341C105.692 38.9269 105.494 38.3755 104.497 37.8296C103.637 37.358 102.604 37.2594 101.609 37.0403C101.487 37.2897 101.121 37.8726 101.118 37.8763C100.85 38.2202 101.285 38.0529 100.775 38.1321C101.807 40.7229 103.114 41.6861 103.757 42.9269L107.233 49.773C108.73 53.6047 110.597 60.4062 111.116 64.2872L112.797 73.3403L112.796 78.4303C116.193 77.9128 118.315 76.626 120.711 75.2292C120.528 73.7162 119.629 71.0655 119.921 69.8319C119.803 69.8653 117.998 56.6369 117.791 54.9669Z" fill="#D9E8F9"/>
<path fill-rule="evenodd" clip-rule="evenodd" d="M34.4967 48.5047C35.1857 49.7436 35.9169 50.7055 36.9094 51.5601L34.7032 52.55C30.2796 55.4366 32.3946 52.161 29.2083 54.1671C28.5571 54.5773 28.775 54.4801 28.4438 54.8219C29.8879 55.9998 32.3517 63.0822 33.7082 65.502L36.045 64.3191C37.3121 62.7298 34.1235 64.2738 38.7028 61.2216C39.0295 61.456 39.0701 61.3785 39.4141 61.7947C41.2948 61.1351 43.7393 59.7437 44.9212 58.5363C46.0845 57.3483 46.0491 57.3585 45.6864 55.7527C45.3089 54.081 45.4502 53.178 45.438 51.5145C41.6468 51.1637 38.1027 50.0126 36.303 47.0523C35.3482 46.4889 35.6726 46.2186 34.5262 46.1428C34.0181 47.2585 33.8053 47.3521 34.4967 48.5047Z" fill="#FEAA83"/>
<path fill-rule="evenodd" clip-rule="evenodd" d="M79.6551 48.0061C74.0325 49.1912 74.5734 51.3592 63.6119 52.8808L50.1769 54.6104C48.6266 54.8636 47.824 54.1813 48.46 52.333C48.2055 55.3415 48.4899 56.5665 50.0238 58.744C51.7199 58.9101 67.9615 56.8001 70.0402 56.0626C71.6501 55.4919 73.8681 54.2367 75.3503 53.9664C75.4667 53.8533 75.4632 53.8147 75.8774 53.5663C76.0836 53.4427 76.3021 53.3298 76.5249 53.2264C77.1847 52.9209 77.659 52.763 78.3068 52.5467C79.94 51.3303 82.9937 50.6492 84.9945 49.0754L86.9838 48.4171C87.6932 49.4662 88.0462 50.2108 88.8767 51.1039C89.6793 51.9671 90.1929 52.5378 91.0011 53.4137C91.7628 53.9787 93.0446 55.239 93.2427 56.3594C96.0913 58.3697 97.4338 63.2107 97.2022 67.9451C96.48 71.1981 95.1981 74.3568 90.7136 78.6306C91.5132 79.849 91.7535 80.6891 92.7181 81.8642C93.4198 82.7189 94.3412 83.68 95.2115 84.3015C96.4762 84.8046 96.0951 84.8697 97.0926 85.2305C97.8546 84.7957 100.183 82.2582 101.216 81.2074C104.576 78.9172 104.76 71.94 104.014 67.8528C102.691 60.354 101.345 53.3439 95.969 47.3477C94.6342 45.8593 93.0026 43.7579 90.9795 42.9385L90.4647 42.6812C89.0124 42.8283 88.8077 43.3872 87.6851 44.0934C86.2401 45.0024 81.7387 46.7312 79.6551 48.0061Z" fill="#084FCB"/>
<path fill-rule="evenodd" clip-rule="evenodd" d="M167.813 10.9319L167.617 11.7625C166.954 15.6705 165.328 19.399 161.978 21.5769C162.698 22.423 163.228 24.2327 163.55 25.339C166.773 25.8546 167.924 26.1574 171.402 25.8287C173.671 25.6139 177.756 26.6011 178.824 26.0301C178.615 23.3959 175.997 25.4102 174.707 23.6991L177.57 23.4411C179.128 23.4454 178.864 23.5441 180 22.8721C179.687 22.2243 180.49 21.8291 177.021 21.5294C174.862 21.343 174.956 21.7528 174.016 20.3696C174.802 20.0845 175.503 19.9976 176.567 19.8721C179.853 19.4852 178.888 19.1549 179.055 18.1524C176.891 17.4964 174.923 18.4367 173.507 17.7056C174.862 15.521 179.133 15.5427 178.666 12.6001C176.408 11.9834 175.028 14.9103 169.207 16.2981C169.367 14.3903 170.359 10.2475 167.813 10.9319Z" fill="#FEAA83"/>
<path fill-rule="evenodd" clip-rule="evenodd" d="M78.1126 149.31C77.85 151.969 78.3837 153.4 78.8807 155.611C79.4821 158.289 79.3235 159.449 79.289 162.146C79.149 166.166 79.8435 168.512 82.0701 170.792C82.9428 171.685 84.1623 172.577 85.899 172.418C87.6028 172.261 88.7515 171.449 89.1302 169.609C84.1868 170.931 83.8662 163.609 84.313 159.564C85.1161 152.295 83.6433 151.209 83.7923 148.55C83.8686 147.188 84.503 146.583 84.729 145.632C83.3687 145.479 80.4621 145.752 79.4117 146.066C78.9252 146.838 78.3742 147.895 78.1126 149.31Z" fill="#35568D"/>
<path fill-rule="evenodd" clip-rule="evenodd" d="M118.854 35.2153C122.948 36.0239 133.034 35.3537 137.591 35.1072C141.726 34.8838 149.094 32.4431 152.948 31.1571L152.252 30.3721C151.014 28.9501 151.1 28.9312 151.64 27.1575C149.84 27.386 145.705 28.766 143.66 29.4314C132.36 33.1109 125.787 30.6415 116.303 32.0069L118.854 35.2153Z" fill="#084FCB"/>
<path fill-rule="evenodd" clip-rule="evenodd" d="M91.5167 25.9379C91.4346 25.8601 91.328 25.7786 91.2551 25.7216L90.5155 25.1576C90.4002 25.079 89.9986 24.8418 89.8606 24.7643C89.3985 24.5056 88.9106 24.3188 88.3297 24.016C87.105 23.3777 86.5414 22.7933 87.0299 20.8186C88.8397 20.2461 89.0572 20.5709 90.6956 21.1809C89.712 14.8571 88.3772 16.4824 86.7314 14.3761C87.6603 12.3546 89.1493 9.73038 90.9375 8.67593C93.2282 7.32466 95.8722 5.35716 97.4335 5.20765C96.9781 3.05061 95.9714 1.35358 95.0499 0C94.1084 0.306325 94.7895 0.00197678 94.1194 0.556053C94.0856 0.584006 93.5354 1.19979 93.5036 1.23052C92.809 0.637012 92.3697 0.268982 91.1584 0.0251742C89.0757 6.69578 83.8553 6.22742 82.6189 13.013C81.4678 19.3305 85.5119 25.1089 91.5167 25.9379Z" fill="#442314"/>
<path fill-rule="evenodd" clip-rule="evenodd" d="M90.4647 42.6812C92.6219 43.5006 94.6342 45.8593 95.969 47.3476C101.345 53.3439 102.691 60.354 104.014 67.8527C104.428 70.5448 103.955 72.6208 103.655 75.252C103.02 79.2241 103.655 78.7255 101.216 81.2074C100.183 82.2581 97.8546 84.7956 97.0926 85.2305C97.4027 86.0206 97.0144 85.595 97.7116 85.3154C98.587 84.965 101.778 80.9439 102.802 80.3702L101.813 87.2949C104.613 86.9256 108.34 87.5781 112.108 87.0639C112.553 84.5679 112.68 82.2339 112.782 80.4067L112.796 78.4304L112.846 73.1321L111.116 64.2873C110.21 63.4481 110.133 62.7117 109.641 61.3093C107.834 56.1531 102.38 46.9044 98.2027 43.9785L99.1065 40.3021C94.3409 40.9191 94.0891 40.3263 92.3358 37.339C90.2437 33.7755 92.1379 31.581 92.295 30.0037C91.2107 30.7098 90.4111 31.5755 89.5314 32.5817C88.2595 34.0361 88.422 34.131 87.593 35.6632C86.906 36.9327 86.045 36.8064 84.5985 37.5923C81.4237 39.3179 79.8452 41.5532 75.5902 43.5794C73.7663 44.448 70.7354 46.0243 68.8501 46.5537C68.0218 47.111 67.5302 47.4782 66.3428 47.657C62.7809 50.3 51.4245 49.2859 48.5924 50.9981L48.46 52.3329C47.824 54.1813 48.6266 54.8636 50.1769 54.6103L63.6119 52.8807C74.5734 51.3592 74.0325 49.1911 79.6551 48.0061C81.7387 46.7311 86.2401 45.0023 87.6851 44.0933C88.8077 43.3872 89.0124 42.8283 90.4647 42.6812Z" fill="#397BEC"/>
<path fill-rule="evenodd" clip-rule="evenodd" d="M111.116 64.2872C110.597 60.4065 108.729 53.6048 107.233 49.7731L103.756 42.9271C103.114 41.6862 101.807 40.7232 100.775 38.1322C98.4701 37.8216 92.5993 33.2242 92.8113 30.0257C92.3964 29.7064 92.5454 29.7759 92.2949 30.0036C92.1379 31.5811 90.2436 33.7756 92.3358 37.339C94.089 40.3264 94.3407 40.919 99.1064 40.3024L98.2026 43.9786C102.38 46.9046 107.834 56.1532 109.641 61.3094C110.133 62.7118 110.21 63.4481 111.116 64.2872Z" fill="#8BB0ED"/>
<path fill-rule="evenodd" clip-rule="evenodd" d="M93.9549 116.789L93.2368 116.647C91.8646 116.313 91.0887 115.938 90.6565 113.857C90.1063 111.209 90.922 110.305 91.7679 108.383C92.9501 105.698 90.3777 102.619 92.9917 98.9688L93.3024 98.5613C93.656 98.0732 93.3929 98.5345 93.7823 97.8695C89.3021 97.3696 87.2594 95.2346 86.1964 98.5684C84.906 102.615 87.1839 103.843 87.6692 106.954C88.1733 110.186 85.8429 112.401 87.5831 116.265C89.1105 119.657 93.1467 119.077 93.9549 116.789Z" fill="#35568D"/>
<path fill-rule="evenodd" clip-rule="evenodd" d="M105.714 33.9426C107.015 33.5088 106.929 33.4046 107.434 32.1449L107.628 31.6317C109.122 32.2011 108.904 32.5418 109.277 34.0224C109.61 35.3422 110.087 36.0379 110.275 37.3031C111.644 37.9626 112.801 39.3359 114.545 40.4264C116.01 41.3421 117.569 42.4235 119.111 43.024C118.122 41.8009 117.881 39.4303 117.239 37.6747C116.456 35.5314 114.608 35.4794 112.157 35.4021C112.836 33.7797 113.685 32.8335 114.032 31.2407L109.846 28.1367C105.619 25.6358 104.875 26.28 105.904 25.7046L104.929 25.5026C105.098 26.9368 104.908 28.6023 104.933 30.0448C104.969 32.1374 105.726 31.846 105.714 33.9426Z" fill="#8BB0ED"/>
<path fill-rule="evenodd" clip-rule="evenodd" d="M92.2131 25.8086C96.223 27.9283 93.4933 29.5977 97.1 31.5614C100.823 33.5883 100.522 30.3697 104.375 34.9613C105.413 34.5793 105.015 34.9341 105.714 33.9427C105.726 31.846 104.969 32.1375 104.933 30.0449C104.908 28.6024 105.098 26.9368 104.929 25.5026L105.789 23.3042C103.962 23.8025 102.109 25.0075 100.09 25.4518C96.6438 26.2101 96.4239 25.2733 93.9762 24.2815L92.2131 25.8086Z" fill="#D46C60"/>
<path fill-rule="evenodd" clip-rule="evenodd" d="M89.1303 169.609C89.5704 166.741 88.8278 163.77 89.2605 160.809C89.4552 159.475 89.9448 158.148 90.2476 157.141C90.7734 155.394 90.3927 154.346 91.2732 153.15L90.3478 153.099C90.2464 153.972 89.4528 156.925 88.9816 157.57C85.0002 157.681 84.7166 148.16 84.7859 147.571C84.9137 146.481 84.1703 146.072 85.6318 146.468L85.3246 145.694L84.7291 145.632C84.5031 146.584 83.8687 147.188 83.7924 148.55C83.6434 151.209 85.1162 152.295 84.3131 159.564C83.8663 163.609 84.1869 170.931 89.1303 169.609Z" fill="#8EA9D1"/>
<path fill-rule="evenodd" clip-rule="evenodd" d="M93.955 116.789C95.3712 115.568 94.6255 114.276 95.1733 112.766C95.6433 111.472 96.9521 111.643 96.6537 109.587L97.275 111.552C96.8873 107.204 96.1876 111.67 95.0596 105.587C94.6181 103.205 94.7352 100.369 96.3064 99.1598C95.372 98.0452 95.6744 98.0964 93.7824 97.8695C93.393 98.5345 93.6561 98.0732 93.3025 98.5613L92.9918 98.9687C90.3778 102.619 92.9502 105.698 91.768 108.383C90.9221 110.305 90.1063 111.209 90.6566 113.857C91.0888 115.938 91.8647 116.313 93.2369 116.647L93.955 116.789Z" fill="#8EA9D1"/>
<path fill-rule="evenodd" clip-rule="evenodd" d="M122.952 59.921C123.36 57.4385 123.919 52.2147 123.287 49.7043C122.516 49.2527 120.7 48.8616 119.766 48.575C118.643 48.231 118.972 48.4056 118.036 47.9371C117.26 47.5489 118.169 47.5395 116.39 47.446C116.705 49.7667 117.437 52.1211 117.791 54.9669C118.025 56.8523 119.416 66.6187 119.921 69.832C119.63 71.0655 120.529 73.7162 120.711 75.229C120.75 75.2928 120.924 75.4395 121.03 75.9816C121.179 76.7388 121.054 76.4024 120.997 77.0447L122.984 83.185C124.957 83.7621 123.639 82.9302 124.726 82.1427C125.268 81.7507 125.224 81.8479 125.786 81.6056C128.689 80.6304 126.402 77.2159 125.527 74.7748C123.556 69.2727 123.28 65.6183 122.952 59.921Z" fill="#397BEC"/>
<path fill-rule="evenodd" clip-rule="evenodd" d="M105.714 33.9426C105.015 34.9341 105.413 34.5793 104.375 34.9612L102.546 34.5683L101.609 37.0404C102.604 37.2594 103.637 37.3582 104.497 37.8297C105.494 38.3756 105.693 38.927 107.053 39.3343C109.003 39.6105 109.706 38.8239 110.275 37.3031C110.087 36.0379 109.61 35.3422 109.277 34.0224C108.904 32.5418 109.122 32.2012 107.628 31.6318L107.434 32.1449C106.929 33.4047 107.015 33.5088 105.714 33.9426Z" fill="#FFBB00"/>
<path fill-rule="evenodd" clip-rule="evenodd" d="M90.3478 153.098C88.5581 152.33 87.5642 151.668 87.0156 150.021C86.2295 149.108 85.8591 147.607 85.6317 146.467C84.1703 146.072 84.9136 146.48 84.7858 147.571C84.7166 148.16 85.0002 157.68 88.9816 157.57C89.4527 156.925 90.2463 153.971 90.3478 153.098Z" fill="#D9E8F9"/>
<path fill-rule="evenodd" clip-rule="evenodd" d="M112.796 78.4304L112.782 80.4066L116.678 80.1498C117.35 79.3153 117.792 79.2976 118.778 78.7899C119.361 78.4894 119.445 78.4509 119.981 78.0458C120.931 77.3269 120.46 77.9841 120.997 77.0449C121.054 76.4024 121.179 76.7389 121.03 75.9815C120.924 75.4396 120.749 75.2929 120.711 75.2292C118.316 76.6261 116.193 77.9129 112.796 78.4304Z" fill="#655E5E"/>
<path fill-rule="evenodd" clip-rule="evenodd" d="M93.915 27.2798L92.6707 29.9053C93.0136 31.7738 93.4714 35.4403 100.853 38.175C101.696 38.2604 101.511 35.8964 102.948 34.7311C103.671 34.8538 103.952 34.8724 104.521 34.9627C102.025 30.7283 97.8001 32.635 93.915 27.2798Z" fill="#F5FAFF"/>
<path fill-rule="evenodd" clip-rule="evenodd" d="M49.2583 50.0969L46.2454 50.5824C44.8833 51.7438 42.0732 53.8798 44.4583 60.1482C44.9228 60.7507 46.8045 59.4466 48.7046 59.8183C49.0609 60.3596 49.2242 60.5556 49.5101 60.979C51.5034 57.2058 47.2013 55.3526 49.2583 50.0969Z" fill="#F5FAFF"/>
<path fill-rule="evenodd" clip-rule="evenodd" d="M158.93 29.858L161.863 29.0124C163.075 27.6952 165.606 25.2356 162.483 19.3009C161.949 18.7587 160.238 20.2805 158.307 20.1407C157.888 19.6464 157.702 19.4715 157.367 19.0858C155.844 23.0719 160.338 24.3924 158.93 29.858Z" fill="#F5FAFF"/>
</svg>
