<svg width="35" height="49" viewBox="0 0 35 49" fill="none" xmlns="http://www.w3.org/2000/svg">
<path fill-rule="evenodd" clip-rule="evenodd" d="M17.0821 25.0987C17.0821 29.1435 20.399 33.1653 24.3707 33.1653C26.6487 33.1653 26.9671 33.3649 28.7924 32.436C31.7783 30.9171 33.1788 28.4488 33.1788 25.0987C30.8647 25.0987 31.6069 25.2309 31.1551 26.992C29.4164 33.781 18.7054 32.3074 18.9471 25.1183C19.0526 21.998 21.9312 19.1225 25.2815 19.1225C26.5882 19.1225 26.9283 19.4711 28.015 19.7205C28.391 19.0213 28.5371 18.9424 28.6227 17.9274C27.2051 17.8112 23.4472 15.8895 19.6857 19.5927C18.4655 20.7922 17.0821 22.8976 17.0821 25.0987Z" fill="#FFBB00"/>
<path fill-rule="evenodd" clip-rule="evenodd" d="M24.978 25.694C23.8877 24.9754 23.3366 23.6703 21.9406 23.3039L21.0298 24.2C21.3084 25.2274 23.7551 27.4791 24.6741 28.0842C26.043 27.7248 31.6659 22.0733 33.7203 20.2519C34.742 19.3469 34.3417 20.0469 35 18.8217L34.0368 17.6727L24.978 25.694Z" fill="#FFBB00"/>
<path fill-rule="evenodd" clip-rule="evenodd" d="M10.7037 4.18108V5.07806H16.4744C16.4744 4.24754 16.5349 3.78791 16.3305 3.53774C15.9906 3.12167 14.918 3.28498 11.6154 3.28498C10.9155 3.28498 10.7037 3.4926 10.7037 4.18108Z" fill="#FFBB00"/>
<path fill-rule="evenodd" clip-rule="evenodd" d="M11.6152 45.1158C11.6152 46.116 12.3592 46.0916 13.9143 46.0405C14.3098 46.0275 14.7579 46.0128 15.2595 46.0128C15.3479 45.8017 15.503 45.0555 15.4877 44.9695C15.3511 44.175 15.321 44.1755 13.8353 44.2045C13.4861 44.2114 13.0564 44.2197 12.5261 44.2197C11.8263 44.2197 11.6152 44.4274 11.6152 45.1158Z" fill="#FFBB00"/>
<path fill-rule="evenodd" clip-rule="evenodd" d="M0.0737313 3.28621L0.0257273 13.3082C0.0257273 14.7987 -0.114851 46.2505 0.261211 47.3223C0.522741 48.0649 1.36685 49 2.20014 49H24.9785C26.8435 49 26.9742 46.5593 27.0238 45.4706C27.1564 42.5783 27.362 37.9249 26.8001 35.5543C25.7441 35.5543 24.9785 35.3716 24.9785 36.4513V40.9326H2.20025V8.6645H24.9786C24.9786 15.3443 24.4717 14.9389 26.8002 14.9389C27.0609 11.8629 27.4244 5.34988 26.9329 2.39547C26.7083 1.04868 26.2763 0 24.6747 0H2.50321C0.778009 0 0.0737313 1.58898 0.0737313 3.28621ZM24.9786 1.79216H2.20025C1.73581 3.56747 2.20025 2.32004 2.20025 3.88419V6.87145H24.9786V1.79216ZM24.9785 42.7256H2.20014C2.20465 42.8862 2.11172 43.352 2.11172 43.352C2.10901 43.4132 2.10899 43.501 2.10899 43.5667C2.10809 43.6341 2.11626 43.7184 2.11806 43.7894L2.20014 47.2078H24.9785V42.7256Z" fill="#FFBB00"/>
<path fill-rule="evenodd" clip-rule="evenodd" d="M10.7037 4.18108V5.07806H16.4744C16.4744 4.24754 16.5349 3.78791 16.3305 3.53774C15.9906 3.12167 14.918 3.28498 11.6154 3.28498C10.9155 3.28498 10.7037 3.4926 10.7037 4.18108Z" fill="#FFBB00"/>
<path fill-rule="evenodd" clip-rule="evenodd" d="M13.9143 46.0405C14.3098 46.0275 14.7579 46.0128 15.2595 46.0128C15.3479 45.8017 15.503 45.0555 15.4877 44.9695C15.3511 44.175 15.321 44.1755 13.8353 44.2045C13.4861 44.2114 13.0564 44.2197 12.5261 44.2197C11.8263 44.2197 11.6152 44.4274 11.6152 45.1158C11.6152 46.116 12.3592 46.0916 13.9143 46.0405Z" fill="#FFBB00"/>
</svg>
