<svg width="53" height="74" viewBox="0 0 53 74" fill="none" xmlns="http://www.w3.org/2000/svg">
<mask id="path-1-inside-1" fill="white">
<path fill-rule="evenodd" clip-rule="evenodd" d="M25.8671 37.9042C25.8671 44.0127 30.89 50.0863 36.9042 50.0863C40.3537 50.0863 40.8358 50.3878 43.5999 48.985C48.1214 46.6911 50.2422 42.9636 50.2422 37.9042C46.738 37.9042 47.8619 38.1038 47.1777 40.7635C44.5448 51.0162 28.3254 48.7907 28.6913 37.9337C28.8511 33.2214 33.2101 28.8788 38.2834 28.8788C40.2622 28.8788 40.7771 29.4054 42.4227 29.7819C42.9921 28.7261 43.2133 28.6068 43.343 27.074C41.1962 26.8985 35.5057 23.9964 29.8097 29.589C27.962 31.4005 25.8671 34.58 25.8671 37.9042Z"/>
<path fill-rule="evenodd" clip-rule="evenodd" d="M37.8238 38.8032C36.1728 37.7179 35.3383 35.747 33.2243 35.1936L31.8451 36.5469C32.2671 38.0985 35.972 41.499 37.3636 42.4128C39.4366 41.8702 47.9512 33.3352 51.0621 30.5844C52.6094 29.2178 52.0031 30.2749 53 28.4246L51.5414 26.6895L37.8238 38.8032Z"/>
<path fill-rule="evenodd" clip-rule="evenodd" d="M16.2084 6.31428V7.6689H24.947C24.947 6.41465 25.0386 5.72052 24.7291 5.34271C24.2144 4.71436 22.5901 4.961 17.589 4.961C16.5293 4.961 16.2084 5.27454 16.2084 6.31428Z"/>
<path fill-rule="evenodd" clip-rule="evenodd" d="M17.5887 68.1341C17.5887 69.6445 18.7153 69.6076 21.0702 69.5306C21.6691 69.511 22.3476 69.4888 23.1072 69.4888C23.2411 69.1699 23.476 68.043 23.4528 67.9131C23.246 66.7132 23.2004 66.7141 20.9506 66.7579C20.4218 66.7682 19.7712 66.7808 18.9681 66.7808C17.9083 66.7808 17.5887 67.0944 17.5887 68.1341Z"/>
<path fill-rule="evenodd" clip-rule="evenodd" d="M0.11165 4.96285L0.0389585 20.0981C0.0389585 22.349 -0.173917 69.8477 0.395548 71.4663C0.79158 72.5878 2.0698 74 3.33164 74H37.8246C40.6487 74 40.8467 70.314 40.9218 68.67C41.1225 64.302 41.4338 57.2744 40.5831 53.6942C38.9839 53.6942 37.8246 53.4183 37.8246 55.0489V61.8165H3.3318V13.0852H37.8248C37.8248 23.173 37.0572 22.5607 40.5832 22.5607C40.9779 17.9154 41.5283 8.07942 40.7841 3.61765C40.444 1.58373 39.7899 0 37.3645 0H3.79057C1.17813 0 0.11165 2.39968 0.11165 4.96285ZM37.8248 2.70653H3.3318C2.62851 5.38761 3.3318 3.50373 3.3318 5.86592V10.3773H37.8248V2.70653ZM37.8246 64.5244H3.33164C3.33847 64.7669 3.19775 65.4704 3.19775 65.4704C3.19365 65.5628 3.19361 65.6954 3.19361 65.7946C3.19225 65.8964 3.20462 66.0238 3.20735 66.1309L3.33164 71.2934H37.8246V64.5244Z"/>
<path fill-rule="evenodd" clip-rule="evenodd" d="M16.2084 6.31428V7.6689H24.947C24.947 6.41465 25.0386 5.72052 24.7291 5.34271C24.2144 4.71436 22.5901 4.961 17.589 4.961C16.5293 4.961 16.2084 5.27454 16.2084 6.31428Z"/>
<path fill-rule="evenodd" clip-rule="evenodd" d="M21.0702 69.5306C21.6691 69.511 22.3476 69.4888 23.1072 69.4888C23.2411 69.1699 23.476 68.043 23.4528 67.9131C23.246 66.7132 23.2004 66.7141 20.9506 66.7579C20.4218 66.7682 19.7712 66.7808 18.9681 66.7808C17.9083 66.7808 17.5887 67.0944 17.5887 68.1341C17.5887 69.6445 18.7153 69.6076 21.0702 69.5306Z"/>
</mask>
<path fill-rule="evenodd" clip-rule="evenodd" d="M25.8671 37.9042C25.8671 44.0127 30.89 50.0863 36.9042 50.0863C40.3537 50.0863 40.8358 50.3878 43.5999 48.985C48.1214 46.6911 50.2422 42.9636 50.2422 37.9042C46.738 37.9042 47.8619 38.1038 47.1777 40.7635C44.5448 51.0162 28.3254 48.7907 28.6913 37.9337C28.8511 33.2214 33.2101 28.8788 38.2834 28.8788C40.2622 28.8788 40.7771 29.4054 42.4227 29.7819C42.9921 28.7261 43.2133 28.6068 43.343 27.074C41.1962 26.8985 35.5057 23.9964 29.8097 29.589C27.962 31.4005 25.8671 34.58 25.8671 37.9042Z" fill="white"/>
<path fill-rule="evenodd" clip-rule="evenodd" d="M37.8238 38.8032C36.1728 37.7179 35.3383 35.747 33.2243 35.1936L31.8451 36.5469C32.2671 38.0985 35.972 41.499 37.3636 42.4128C39.4366 41.8702 47.9512 33.3352 51.0621 30.5844C52.6094 29.2178 52.0031 30.2749 53 28.4246L51.5414 26.6895L37.8238 38.8032Z" fill="white"/>
<path fill-rule="evenodd" clip-rule="evenodd" d="M16.2084 6.31428V7.6689H24.947C24.947 6.41465 25.0386 5.72052 24.7291 5.34271C24.2144 4.71436 22.5901 4.961 17.589 4.961C16.5293 4.961 16.2084 5.27454 16.2084 6.31428Z" fill="white"/>
<path fill-rule="evenodd" clip-rule="evenodd" d="M17.5887 68.1341C17.5887 69.6445 18.7153 69.6076 21.0702 69.5306C21.6691 69.511 22.3476 69.4888 23.1072 69.4888C23.2411 69.1699 23.476 68.043 23.4528 67.9131C23.246 66.7132 23.2004 66.7141 20.9506 66.7579C20.4218 66.7682 19.7712 66.7808 18.9681 66.7808C17.9083 66.7808 17.5887 67.0944 17.5887 68.1341Z" fill="white"/>
<path fill-rule="evenodd" clip-rule="evenodd" d="M0.11165 4.96285L0.0389585 20.0981C0.0389585 22.349 -0.173917 69.8477 0.395548 71.4663C0.79158 72.5878 2.0698 74 3.33164 74H37.8246C40.6487 74 40.8467 70.314 40.9218 68.67C41.1225 64.302 41.4338 57.2744 40.5831 53.6942C38.9839 53.6942 37.8246 53.4183 37.8246 55.0489V61.8165H3.3318V13.0852H37.8248C37.8248 23.173 37.0572 22.5607 40.5832 22.5607C40.9779 17.9154 41.5283 8.07942 40.7841 3.61765C40.444 1.58373 39.7899 0 37.3645 0H3.79057C1.17813 0 0.11165 2.39968 0.11165 4.96285ZM37.8248 2.70653H3.3318C2.62851 5.38761 3.3318 3.50373 3.3318 5.86592V10.3773H37.8248V2.70653ZM37.8246 64.5244H3.33164C3.33847 64.7669 3.19775 65.4704 3.19775 65.4704C3.19365 65.5628 3.19361 65.6954 3.19361 65.7946C3.19225 65.8964 3.20462 66.0238 3.20735 66.1309L3.33164 71.2934H37.8246V64.5244Z" fill="white"/>
<path fill-rule="evenodd" clip-rule="evenodd" d="M16.2084 6.31428V7.6689H24.947C24.947 6.41465 25.0386 5.72052 24.7291 5.34271C24.2144 4.71436 22.5901 4.961 17.589 4.961C16.5293 4.961 16.2084 5.27454 16.2084 6.31428Z" fill="white"/>
<path fill-rule="evenodd" clip-rule="evenodd" d="M21.0702 69.5306C21.6691 69.511 22.3476 69.4888 23.1072 69.4888C23.2411 69.1699 23.476 68.043 23.4528 67.9131C23.246 66.7132 23.2004 66.7141 20.9506 66.7579C20.4218 66.7682 19.7712 66.7808 18.9681 66.7808C17.9083 66.7808 17.5887 67.0944 17.5887 68.1341C17.5887 69.6445 18.7153 69.6076 21.0702 69.5306Z" fill="white"/>
<path d="M23.1072 69.4888V69.5017L23.1118 69.4907L23.1072 69.4888ZM23.4528 67.9131L23.4478 67.9139L23.4478 67.9139L23.4528 67.9131ZM24.7291 5.34271L24.7253 5.34588L24.7291 5.34271ZM21.0702 69.5306L21.07 69.5256L21.0702 69.5306ZM20.9506 66.7579L20.9507 66.7629L20.9506 66.7579ZM16.2034 6.31428V7.6689H16.2134V6.31428H16.2034ZM16.2084 7.6739H24.947V7.6639H16.2084V7.6739ZM17.589 4.956C17.059 4.956 16.712 5.03432 16.4978 5.24416C16.2836 5.45404 16.2034 5.79422 16.2034 6.31428H16.2134C16.2134 5.79459 16.2937 5.45814 16.5048 5.25131C16.716 5.04444 17.0593 4.966 17.589 4.966V4.956ZM23.1118 69.4907C23.179 69.3308 23.2712 68.9689 23.3438 68.6311C23.3801 68.4622 23.4115 68.2991 23.4323 68.1701C23.4428 68.1056 23.4506 68.0495 23.455 68.0055C23.4595 67.9617 23.4607 67.9292 23.4577 67.9122L23.4478 67.9139C23.4506 67.9294 23.4496 67.9605 23.4451 68.0045C23.4406 68.0482 23.4329 68.104 23.4225 68.1684C23.4016 68.2972 23.3703 68.4602 23.334 68.629C23.2614 68.9669 23.1693 69.3279 23.1026 69.4868L23.1118 69.4907ZM18.9681 66.7758C18.4381 66.7758 18.0914 66.8542 17.8775 67.064C17.6636 67.2739 17.5837 67.6141 17.5837 68.1341H17.5937C17.5937 67.6144 17.6737 67.278 17.8845 67.0712C18.0954 66.8643 18.4384 66.7858 18.9681 66.7858V66.7758ZM24.952 7.6689C24.952 7.04215 24.9749 6.55457 24.9591 6.17693C24.9433 5.79926 24.8888 5.5298 24.733 5.33954L24.7253 5.34588C24.8789 5.53343 24.9333 5.79994 24.9491 6.17735C24.9649 6.55478 24.9419 7.04139 24.9419 7.6689H24.952ZM24.733 5.33954C24.6033 5.18123 24.404 5.07845 24.1006 5.01309C23.7973 4.94774 23.3893 4.91966 22.8415 4.91122C21.746 4.89434 20.0892 4.956 17.589 4.956V4.966C20.0899 4.966 21.7457 4.90433 22.8414 4.92122C23.3891 4.92966 23.7962 4.95774 24.0985 5.02287C24.4008 5.08799 24.5976 5.19002 24.7253 5.34588L24.733 5.33954ZM21.0703 69.5356C21.6693 69.516 22.3477 69.4938 23.1072 69.4938V69.4838C22.3475 69.4838 21.669 69.506 21.07 69.5256L21.0703 69.5356ZM23.4577 67.9122C23.406 67.6124 23.3643 67.3869 23.2956 67.2183C23.2267 67.0494 23.1305 66.9373 22.9699 66.8645C22.8097 66.792 22.5858 66.7587 22.2618 66.7462C21.9377 66.7337 21.5129 66.7419 20.9505 66.7529L20.9507 66.7629C21.5132 66.7519 21.9377 66.7437 22.2614 66.7562C22.5852 66.7687 22.8075 66.8019 22.9657 66.8736C23.1236 66.9452 23.2182 67.0551 23.2863 67.2221C23.3546 67.3895 23.3961 67.6138 23.4478 67.9139L23.4577 67.9122ZM20.9505 66.7529C20.4217 66.7632 19.7711 66.7758 18.9681 66.7758V66.7858C19.7712 66.7858 20.4219 66.7732 20.9507 66.7629L20.9505 66.7529ZM17.5837 68.1341C17.5837 68.5123 17.6542 68.7943 17.7974 69.0032C17.9407 69.2121 18.1562 69.3472 18.4449 69.4324C18.7336 69.5176 19.0957 69.553 19.5326 69.5623C19.9695 69.5716 20.4816 69.5548 21.0703 69.5356L21.07 69.5256C20.4812 69.5449 19.9694 69.5616 19.5328 69.5523C19.0962 69.543 18.7351 69.5076 18.4478 69.4229C18.1605 69.3381 17.9472 69.204 17.8057 68.9975C17.664 68.7909 17.5937 68.5112 17.5937 68.1341H17.5837ZM3.3318 2.70653V2.66712L3.32213 2.70399L3.3318 2.70653ZM0.11165 4.96285L0.12165 4.9629V4.96285H0.11165ZM0.0389585 20.0981L0.0289585 20.098V20.0981H0.0389585ZM40.5832 22.5607V22.6788L40.5932 22.5616L40.5832 22.5607ZM40.7841 3.61765L40.7939 3.616V3.616L40.7841 3.61765ZM3.33164 64.5244V64.5144H3.32136L3.32165 64.5247L3.33164 64.5244ZM3.33164 71.2934L2.91629 71.3034H3.33164V71.2934ZM3.20735 66.1309L3.21735 66.1307L3.21735 66.1307L3.20735 66.1309ZM3.19361 65.7946L3.20361 65.7947V65.7946H3.19361ZM3.19775 65.4704L3.18782 65.4684L3.18776 65.4699L3.19775 65.4704ZM0.395548 71.4663L0.386115 71.4696L0.386119 71.4696L0.395548 71.4663ZM40.9218 68.67L40.9118 68.6695L40.9218 68.67ZM40.5831 53.6942L40.6251 53.6842H40.5831V53.6942ZM43.5999 48.985L43.5953 48.9761H43.5953L43.5999 48.985ZM47.1777 40.7635L47.168 40.761L47.168 40.761L47.1777 40.7635ZM28.6913 37.9337L28.6814 37.9334L28.6913 37.9337ZM42.4227 29.7819L42.4143 29.8185L42.4315 29.7867L42.4227 29.7819ZM43.343 27.074L43.353 27.0749L43.3538 27.0649L43.3438 27.0641L43.343 27.074ZM29.8097 29.589L29.8167 29.5961L29.8167 29.5961L29.8097 29.589ZM37.8238 38.8032L37.8029 38.835L37.8304 38.8107L37.8238 38.8032ZM33.2243 35.1936L33.2292 35.1748L33.2173 35.1865L33.2243 35.1936ZM31.8451 36.5469L31.8307 36.5323L31.8354 36.5495L31.8451 36.5469ZM37.3636 42.4128L37.3554 42.4253L37.3661 42.4225L37.3636 42.4128ZM51.0621 30.5844L51.0555 30.5769L51.0555 30.5769L51.0621 30.5844ZM53 28.4246L53.0239 28.4374L53.0077 28.4181L53 28.4246ZM51.5414 26.6895L51.5491 26.683L51.5425 26.6752L51.5348 26.682L51.5414 26.6895ZM3.3318 2.71653H37.8248V2.69653H3.3318V2.71653ZM37.8148 2.70653V10.3773H37.8348V2.70653H37.8148ZM37.8248 10.3673H3.3318V10.3873H37.8248V10.3673ZM3.3418 10.3773V5.86592H3.3218V10.3773H3.3418ZM3.3418 5.86592C3.3418 5.27503 3.29784 4.94881 3.24254 4.75006C3.18717 4.5511 3.12 4.47929 3.07682 4.40098C3.03435 4.32395 3.01218 4.23677 3.04501 4.00046C3.07788 3.76381 3.16563 3.37941 3.34148 2.70907L3.32213 2.70399C3.14632 3.3742 3.05826 3.75971 3.0252 3.99771C2.99209 4.23605 3.01387 4.32823 3.05931 4.41064C3.10404 4.49177 3.16874 4.55946 3.22327 4.75543C3.27786 4.9516 3.3218 5.27572 3.3218 5.86592H3.3418ZM0.10165 4.9628L0.0289586 20.098L0.0489584 20.0981L0.12165 4.9629L0.10165 4.9628ZM3.3418 61.8165V13.0852H3.3218V61.8165H3.3418ZM3.3318 13.0952H37.8248V13.0752H3.3318V13.0952ZM37.8148 13.0852C37.8148 15.6071 37.7668 17.4601 37.7499 18.8214C37.7331 20.1822 37.7472 21.0527 37.872 21.6081C37.9344 21.886 38.0247 22.086 38.1535 22.2292C38.2824 22.3725 38.449 22.4581 38.6624 22.5085C38.8755 22.5589 39.1357 22.5744 39.4522 22.5773C39.7686 22.5803 40.143 22.5707 40.5832 22.5707V22.5507C40.1419 22.5507 39.769 22.5603 39.4524 22.5573C39.1361 22.5544 38.8777 22.5389 38.667 22.489C38.4564 22.4393 38.2938 22.3553 38.1683 22.2158C38.0427 22.0761 37.9535 21.8798 37.8915 21.6037C37.7674 21.0511 37.753 20.1832 37.7699 18.8217C37.7868 17.4606 37.8348 15.6072 37.8348 13.0852H37.8148ZM40.5932 22.5616C40.7905 20.2387 41.0268 16.6182 41.1207 13.0206C41.2146 9.42325 41.1662 5.84794 40.7939 3.616L40.7742 3.61929C41.1462 5.84912 41.1947 9.42268 41.1007 13.0201C41.0068 16.6172 40.7706 20.2374 40.5733 22.5599L40.5932 22.5616ZM40.7939 3.616C40.6239 2.5988 40.375 1.69222 39.8642 1.03994C39.3527 0.386931 38.5797 -0.01 37.3645 -0.01V0.01C38.5747 0.01 39.3414 0.404932 39.8484 1.05227C40.356 1.70033 40.6042 2.60257 40.7742 3.6193L40.7939 3.616ZM37.3645 -0.01H3.79057V0.01H37.3645V-0.01ZM3.79057 -0.01C2.4807 -0.01 1.55791 0.591862 0.963039 1.51482C0.368478 2.43729 0.10165 3.6801 0.10165 4.96285H0.12165C0.12165 3.68243 0.388062 2.44382 0.97985 1.52565C1.57132 0.607978 2.488 0.01 3.79057 0.01V-0.01ZM3.33164 64.5344H37.8246V64.5144H3.33164V64.5344ZM37.8146 64.5244V71.2934H37.8346V64.5244H37.8146ZM37.8246 71.2834H3.33164V71.3034H37.8246V71.2834ZM3.34164 71.2932L3.21735 66.1307L3.19735 66.1312L3.32164 71.2937L3.34164 71.2932ZM3.21735 66.1307C3.21597 66.0769 3.21218 66.018 3.20893 65.9602C3.20566 65.9022 3.20293 65.8453 3.20361 65.7947L3.18361 65.7945C3.18293 65.8458 3.1857 65.9034 3.18896 65.9613C3.19223 66.0194 3.19599 66.0778 3.19735 66.1312L3.21735 66.1307ZM3.20361 65.7946C3.20361 65.6954 3.20365 65.563 3.20774 65.4708L3.18776 65.4699C3.18365 65.5626 3.18361 65.6955 3.18361 65.7946H3.20361ZM3.19775 65.4704C3.20755 65.4723 3.20755 65.4723 3.20755 65.4723C3.20756 65.4723 3.20756 65.4723 3.20756 65.4723C3.20756 65.4723 3.20757 65.4722 3.20758 65.4722C3.2076 65.4721 3.20762 65.472 3.20766 65.4718C3.20772 65.4715 3.20782 65.471 3.20796 65.4703C3.20823 65.4689 3.20862 65.467 3.20914 65.4643C3.21017 65.4591 3.21168 65.4514 3.2136 65.4416C3.21743 65.4219 3.22291 65.3934 3.22946 65.3585C3.24255 65.2887 3.25994 65.1931 3.27712 65.09C3.3114 64.8841 3.34508 64.6465 3.34164 64.5241L3.32165 64.5247C3.32503 64.6448 3.29176 64.8803 3.25739 65.0867C3.24024 65.1897 3.22288 65.2851 3.2098 65.3548C3.20326 65.3897 3.19779 65.4181 3.19396 65.4378C3.19205 65.4476 3.19054 65.4553 3.18951 65.4605C3.189 65.4631 3.18861 65.4651 3.18834 65.4664C3.18821 65.4671 3.18811 65.4676 3.18804 65.4679C3.18801 65.4681 3.18798 65.4682 3.18797 65.4683C3.18796 65.4683 3.18795 65.4684 3.18795 65.4684C3.18794 65.4684 3.18794 65.4684 3.18794 65.4684C3.18794 65.4684 3.18794 65.4684 3.19775 65.4704ZM37.8146 55.0489V61.8165H37.8346V55.0489H37.8146ZM37.8246 61.8065H3.3318V61.8265H37.8246V61.8065ZM0.0289585 20.0981C0.0289585 21.2234 -0.0242603 33.661 -0.00629609 46.0193C0.00268607 52.1985 0.0294641 58.358 0.0895888 63.0738C0.119651 65.4317 0.158051 67.4288 0.206733 68.887C0.231074 69.6161 0.257988 70.2105 0.287722 70.6481C0.302588 70.8668 0.318166 71.0464 0.334492 71.1841C0.35078 71.3214 0.367903 71.4178 0.386115 71.4696L0.404982 71.463C0.387602 71.4136 0.370662 71.3192 0.354353 71.1817C0.338083 71.0446 0.322532 70.8653 0.307676 70.6467C0.277965 70.2095 0.25106 69.6153 0.226722 68.8863C0.178046 67.4284 0.139649 65.4314 0.109587 63.0736C0.0494639 58.3579 0.022686 52.1985 0.0137039 46.0193C-0.00426047 33.6609 0.0489585 21.2237 0.0489585 20.0981H0.0289585ZM0.386119 71.4696C0.584729 72.032 1.00426 72.6668 1.53208 73.161C2.05977 73.6551 2.69713 74.01 3.33164 74.01V73.99C2.70432 73.99 2.07164 73.6388 1.54575 73.1464C1.01999 72.6541 0.602399 72.022 0.404978 71.463L0.386119 71.4696ZM3.33164 74.01H37.8246V73.99H3.33164V74.01ZM37.8246 74.01C38.533 74.01 39.0773 73.7788 39.496 73.4058C39.9146 73.0331 40.2072 72.5193 40.4135 71.9549C40.826 70.8263 40.8942 69.4922 40.9318 68.6704L40.9118 68.6695C40.8742 69.4917 40.806 70.8227 40.3947 71.9481C40.1891 72.5106 39.898 73.0211 39.4827 73.3909C39.0677 73.7605 38.5282 73.99 37.8246 73.99V74.01ZM40.9318 68.6704C41.0322 66.4865 41.1602 63.6373 41.1567 60.8866C41.1533 58.1362 41.0185 55.4832 40.5928 53.6919L40.5733 53.6965C40.9984 55.4854 41.1333 58.1363 41.1367 60.8867C41.1402 63.6368 41.0122 66.4855 40.9118 68.6695L40.9318 68.6704ZM40.5831 53.6842C40.3833 53.6842 40.1904 53.6799 40.0056 53.6756C39.8209 53.6712 39.6443 53.6668 39.4774 53.6666C39.1437 53.6662 38.8477 53.6826 38.6015 53.7504C38.3549 53.8183 38.1577 53.9378 38.0224 54.1438C37.8872 54.3495 37.8146 54.6402 37.8146 55.0489H37.8346C37.8346 54.6423 37.9069 54.356 38.0391 54.1548C38.1711 53.9539 38.3636 53.8367 38.6068 53.7697C38.8503 53.7027 39.144 53.6862 39.4774 53.6866C39.644 53.6868 39.8204 53.6912 40.0052 53.6956C40.1899 53.6999 40.383 53.7042 40.5831 53.7042V53.6842ZM25.8571 37.9042C25.8571 40.9611 27.1139 44.0089 29.1228 46.2925C31.1318 48.5762 33.8936 50.0963 36.9042 50.0963V50.0763C33.9005 50.0763 31.1439 48.5596 29.1378 46.2793C27.1318 43.999 25.8771 40.9558 25.8771 37.9042H25.8571ZM36.9042 50.0963C38.6279 50.0963 39.6123 50.1717 40.5102 50.0716C41.4091 49.9715 42.2219 49.6956 43.6044 48.9939L43.5953 48.9761C42.2138 49.6772 41.4035 49.952 40.508 50.0518C39.6115 50.1517 38.63 50.0763 36.9042 50.0763V50.0963ZM43.6044 48.9939C45.8666 47.8462 47.5287 46.3397 48.6252 44.4867C49.7217 42.6339 50.2522 40.4353 50.2522 37.9042H50.2322C50.2322 40.4325 49.7023 42.6274 48.608 44.4766C47.5137 46.3257 45.8547 47.8298 43.5953 48.9761L43.6044 48.9939ZM50.2422 37.8942C49.3663 37.8942 48.7788 37.9067 48.3798 37.9671C47.9807 38.0275 47.7676 38.1363 47.644 38.3311C47.5824 38.4282 47.5435 38.5459 47.5142 38.688C47.485 38.8301 47.4652 38.9973 47.4424 39.1935C47.3969 39.5862 47.3389 40.0968 47.168 40.761L47.1874 40.766C47.3586 40.1004 47.4167 39.5886 47.4623 39.1958C47.4851 38.9994 47.5048 38.8331 47.5338 38.692C47.5629 38.551 47.6012 38.436 47.6609 38.3418C47.7798 38.1543 47.9856 38.047 48.3828 37.9869C48.78 37.9267 49.366 37.9142 50.2422 37.9142V37.8942ZM47.168 40.761C45.8531 45.8812 41.1459 47.8862 36.8114 47.2548C32.4769 46.6235 28.5186 43.3563 28.7013 37.9341L28.6814 37.9334C28.4981 43.3681 32.4665 46.6422 36.8085 47.2746C41.1504 47.9071 45.8693 45.8985 47.1874 40.766L47.168 40.761ZM28.7013 37.9341C28.8609 33.2272 33.2154 28.8888 38.2834 28.8888V28.8688C33.2048 28.8688 28.8413 33.2156 28.6814 37.9334L28.7013 37.9341ZM38.2834 28.8888C39.2717 28.8888 39.8941 29.0203 40.4751 29.1987C41.0558 29.3771 41.5973 29.6033 42.4204 29.7917L42.4249 29.7722C41.6025 29.584 41.0638 29.3587 40.4809 29.1796C39.8983 29.0007 39.2739 28.8688 38.2834 28.8688V28.8888ZM42.4315 29.7867C42.7156 29.2598 42.9141 28.9646 43.057 28.6106C43.2002 28.2558 43.2881 27.8417 43.353 27.0749L43.333 27.0732C43.2682 27.8392 43.1806 28.2511 43.0385 28.6031C42.896 28.9558 42.6992 29.2482 42.4139 29.7772L42.4315 29.7867ZM43.3438 27.0641C41.2015 26.8889 35.503 23.985 29.8027 29.5818L29.8167 29.5961C35.5084 24.0077 41.1909 26.9081 43.3422 27.084L43.3438 27.0641ZM29.8027 29.5818C27.9541 31.3943 25.8571 34.5762 25.8571 37.9042H25.8771C25.8771 34.5838 27.97 31.4067 29.8167 29.5961L29.8027 29.5818ZM37.8293 38.7948C37.005 38.253 36.3849 37.4904 35.7048 36.792C35.0252 36.094 34.2865 35.4613 33.2268 35.1839L33.2218 35.2033C34.2761 35.4793 35.0116 36.1087 35.6905 36.8059C36.3689 37.5026 36.9916 38.2681 37.8183 38.8116L37.8293 38.7948ZM33.2173 35.1865L31.8381 36.5397L31.8521 36.554L33.2313 35.2007L33.2173 35.1865ZM31.8354 36.5495C31.9415 36.9395 32.2533 37.4442 32.6818 37.9956C33.1105 38.5473 33.657 39.1467 34.2337 39.7261C35.3868 40.8846 36.6615 41.9637 37.3581 42.4212L37.3691 42.4044C36.6741 41.9481 35.4005 40.87 34.2478 39.712C33.6715 39.133 33.1257 38.5342 32.6976 37.9834C32.2693 37.4322 31.9597 36.9301 31.8547 36.5443L31.8354 36.5495ZM37.3661 42.4225C37.627 42.3542 37.9879 42.1606 38.4253 41.8699C38.863 41.579 39.3781 41.1901 39.9474 40.7303C41.086 39.8107 42.4421 38.6068 43.8304 37.334C46.6075 34.7882 49.5133 31.9673 51.0687 30.5919L51.0555 30.5769C49.5001 31.9523 46.5931 34.7743 43.8169 37.3193C42.4286 38.592 41.0729 39.7955 39.9348 40.7147C39.3657 41.1744 38.8512 41.5628 38.4143 41.8533C37.9771 42.1439 37.6185 42.3358 37.3611 42.4031L37.3661 42.4225ZM51.0687 30.5919C51.4553 30.2505 51.7072 30.0606 51.8832 29.9388C51.9712 29.8779 52.0402 29.8341 52.0978 29.7967C52.1553 29.7594 52.2017 29.7285 52.2438 29.6936C52.3284 29.6236 52.3951 29.5383 52.5028 29.3556C52.6105 29.1729 52.7597 28.8918 53.0088 28.4293L52.9912 28.4198C52.7419 28.8826 52.593 29.1632 52.4856 29.3454C52.3783 29.5275 52.313 29.6104 52.2311 29.6782C52.1899 29.7122 52.1445 29.7426 52.0869 29.78C52.0294 29.8172 51.9601 29.8613 51.8718 29.9224C51.6951 30.0446 51.4426 30.2351 51.0555 30.5769L51.0687 30.5919ZM53.0077 28.4181L51.5491 26.683L51.5338 26.6959L52.9923 28.431L53.0077 28.4181ZM51.5348 26.682L37.8172 38.7957L37.8304 38.8107L51.548 26.6969L51.5348 26.682Z" fill="white" mask="url(#path-1-inside-1)"/>
</svg>
