<svg width="42" height="42" viewBox="0 0 42 42" fill="none" xmlns="http://www.w3.org/2000/svg">
<path fill-rule="evenodd" clip-rule="evenodd" d="M30.7188 26.1454L26.1825 23.4399L23.3748 26.1536C20.0582 25.0792 17.7639 22.3992 16.1726 19.7058C17.996 16.4257 18.6068 15.7338 15.787 11.8084C9.9249 11.4663 8.88645 18.4243 16.3365 25.5832C19.9119 29.0189 29.961 34.7726 30.7188 26.1454Z" fill="white"/>
<path fill-rule="evenodd" clip-rule="evenodd" d="M21 42C32.598 42 42 32.598 42 21C42 9.40202 32.598 0 21 0C9.40202 0 0 9.40202 0 21C0 32.598 9.40202 42 21 42ZM21 37.8C30.2784 37.8 37.8 30.2784 37.8 21C37.8 11.7216 30.2784 4.2 21 4.2C11.7216 4.2 4.2 11.7216 4.2 21C4.2 30.2784 11.7216 37.8 21 37.8Z" fill="white"/>
</svg>
