<svg width="158" height="118" viewBox="0 0 158 118" fill="none" xmlns="http://www.w3.org/2000/svg">
<path fill-rule="evenodd" clip-rule="evenodd" d="M43 35.0156C43 39.5825 43.1108 40.3191 44.0188 44.6843C44.6576 47.7552 46.2415 51.2889 47.7883 53.9929C49.159 56.3891 51.6386 59.6177 53.5105 61.4895C53.947 61.9261 54.2185 62.0818 54.6384 62.4709C60.8767 68.2504 69.4784 72 78.0156 72C82.5825 72 83.3191 71.8893 87.6843 70.9812C88.7061 70.7686 89.9914 70.3375 91.0425 69.98C93.011 69.3106 95.216 68.2281 96.9929 67.2117C99.0988 66.0072 101.592 64.1799 103.29 62.5401C103.721 62.1242 104.036 61.9433 104.49 61.4895C104.926 61.053 105.082 60.7815 105.471 60.3616C105.912 59.8852 106.122 59.7047 106.543 59.1834C107.501 57.9958 108.486 56.793 109.295 55.4667C111.063 52.5682 112.53 49.9163 113.453 46.5469C114.349 43.2791 114.869 40.2257 115 37.245V34.2724C114.814 30.1085 113.838 25.9951 112.029 21.5336C111.467 20.1493 110.078 17.6786 109.152 16.2542L104.207 10.2303C103.672 9.69219 103.247 9.407 102.731 8.89381C102.038 8.20445 100.4 6.75003 99.3906 6.75003C98.5552 6.75003 96.9422 8.20298 98.9653 9.70655C103.223 12.8704 107.391 18.0912 109.357 22.9399C109.873 24.2133 110.381 25.5605 110.752 26.8888C113.213 35.7114 112.068 44.7236 107.695 52.3198C106.786 53.8988 105.55 55.7814 104.349 57.13C103.953 57.5739 103.805 57.82 103.364 58.2545C101.891 59.7057 101.966 59.745 100.203 61.2812C90.1868 70.0106 74.3139 71.5927 62.7682 64.7474C61.8262 64.1889 61.0183 63.741 60.176 63.1208C58.6074 61.9656 57.0323 60.7332 55.6496 59.3504C55.3373 59.0382 55.0728 58.685 54.7069 58.3244C53.8953 57.5246 52.6121 55.8306 51.9395 54.9043C45.072 45.4473 44.0434 32.0691 49.375 21.4218C51.5444 17.0895 54.5843 13.1915 58.4074 10.2043C63.2638 6.40998 69.9276 3.39081 76.0494 3.09627C77.0257 3.04929 79.4848 3.02367 80.0167 2.56344C80.9192 1.78254 80.4413 0 79.1406 0C69.5206 0 60.2892 3.73163 53.5105 10.5105L51.4572 12.8166C51.1147 13.2408 50.8723 13.508 50.5147 13.9834C50.1259 14.5003 49.9248 14.7093 49.5536 15.2724C49.2178 15.7819 49.0352 15.9923 48.7052 16.5333C46.7094 19.8052 44.8604 23.4046 44.0427 27.1989C43.5078 29.6813 43 32.0554 43 35.0156Z" fill="#FFBB00"/>
<path fill-rule="evenodd" clip-rule="evenodd" d="M69.0156 20.5313V52.7343C69.0156 54.3294 71.2853 54.6904 71.8612 53.3299C72.157 52.6312 71.9688 24.2286 71.9688 23.2031C72.8999 23.6958 73.7346 24.2203 74.6328 24.7579L92.1743 35.2007C92.6035 35.4568 93.1821 35.8817 93.625 36L85.1808 41.4777C83.224 42.6461 80.7497 44.4356 78.7636 45.6074C77.7336 46.215 76.2237 47.3155 77.4102 48.5586C78.4967 49.6971 79.6797 48.6302 81.1093 47.6718L84.7942 45.3098C85.2461 45.0065 85.6025 44.7567 86.0582 44.4645L95.9871 38.0809C96.9696 37.4217 99.4579 36.129 96.8337 34.4787C96.2279 34.0977 95.7044 33.7994 95.0757 33.4244L77.7953 23.1422C77.0904 22.7183 71.3773 19.125 70.7031 19.125C69.8116 19.125 69.0156 19.4578 69.0156 20.5313Z" fill="#FFBB00"/>
<path d="M8.07617 99.002C6.50716 99.002 5.26693 99.526 4.35547 100.574C3.45052 101.616 2.99805 103.045 2.99805 104.861C2.99805 106.73 3.43424 108.175 4.30664 109.197C5.18555 110.213 6.43555 110.721 8.05664 110.721C9.05273 110.721 10.1888 110.542 11.4648 110.184V111.639C10.4753 112.01 9.25456 112.195 7.80273 112.195C5.69987 112.195 4.07552 111.557 2.92969 110.281C1.79036 109.005 1.2207 107.192 1.2207 104.842C1.2207 103.37 1.49414 102.081 2.04102 100.975C2.5944 99.8678 3.38867 99.015 4.42383 98.416C5.46549 97.8171 6.68945 97.5176 8.0957 97.5176C9.5931 97.5176 10.9017 97.791 12.0215 98.3379L11.3184 99.7637C10.2376 99.2559 9.1569 99.002 8.07617 99.002ZM19.8926 110.438L20.1953 109.529L20.6152 108.377L23.5156 101.316H25.5762V112H24.1406V103.162L23.9453 103.729L23.3789 105.223L20.6152 112H19.2578L16.4941 105.203C16.1491 104.331 15.9115 103.65 15.7812 103.162V112H14.3359V101.316H16.3184L19.1211 108.104C19.401 108.82 19.6582 109.598 19.8926 110.438ZM38.2812 106.639C38.2812 108.383 37.8418 109.747 36.9629 110.73C36.084 111.707 34.8698 112.195 33.3203 112.195C32.3633 112.195 31.5137 111.971 30.7715 111.521C30.0293 111.072 29.4564 110.428 29.0527 109.588C28.6491 108.748 28.4473 107.765 28.4473 106.639C28.4473 104.894 28.8835 103.536 29.7559 102.566C30.6283 101.59 31.8392 101.102 33.3887 101.102C34.8861 101.102 36.0742 101.6 36.9531 102.596C37.8385 103.592 38.2812 104.939 38.2812 106.639ZM30.127 106.639C30.127 108.006 30.4004 109.048 30.9473 109.764C31.4941 110.48 32.2982 110.838 33.3594 110.838C34.4206 110.838 35.2246 110.483 35.7715 109.773C36.3249 109.057 36.6016 108.012 36.6016 106.639C36.6016 105.278 36.3249 104.246 35.7715 103.543C35.2246 102.833 34.4141 102.479 33.3398 102.479C32.2786 102.479 31.4779 102.827 30.9375 103.523C30.3971 104.22 30.127 105.258 30.127 106.639ZM48.3496 102.684H44.873V112H43.252V102.684H39.8145V101.297H48.3496V102.684ZM55.4492 112.195C54.7526 112.195 54.1146 112.068 53.5352 111.814C52.9622 111.554 52.4805 111.157 52.0898 110.623H51.9727C52.0508 111.248 52.0898 111.84 52.0898 112.4V116.805H50.4688V101.297H51.7871L52.0117 102.762H52.0898C52.5065 102.176 52.9915 101.753 53.5449 101.492C54.0983 101.232 54.7331 101.102 55.4492 101.102C56.8685 101.102 57.9622 101.587 58.7305 102.557C59.5052 103.527 59.8926 104.887 59.8926 106.639C59.8926 108.396 59.4987 109.764 58.7109 110.74C57.9297 111.71 56.8424 112.195 55.4492 112.195ZM55.2148 102.479C54.1211 102.479 53.3301 102.781 52.8418 103.387C52.3535 103.992 52.1029 104.956 52.0898 106.277V106.639C52.0898 108.143 52.3405 109.22 52.8418 109.871C53.3431 110.516 54.1471 110.838 55.2539 110.838C56.1784 110.838 56.901 110.464 57.4219 109.715C57.9492 108.966 58.2129 107.934 58.2129 106.619C58.2129 105.285 57.9492 104.262 57.4219 103.553C56.901 102.837 56.1654 102.479 55.2148 102.479ZM67.2559 112.195C65.6738 112.195 64.4238 111.714 63.5059 110.75C62.5944 109.786 62.1387 108.449 62.1387 106.736C62.1387 105.011 62.5618 103.641 63.4082 102.625C64.2611 101.609 65.4036 101.102 66.8359 101.102C68.1771 101.102 69.2383 101.544 70.0195 102.43C70.8008 103.309 71.1914 104.471 71.1914 105.916V106.941H63.8184C63.8509 108.198 64.1667 109.152 64.7656 109.803C65.3711 110.454 66.2207 110.779 67.3145 110.779C68.4668 110.779 69.6061 110.538 70.7324 110.057V111.502C70.1595 111.749 69.6159 111.925 69.1016 112.029C68.5938 112.14 67.9785 112.195 67.2559 112.195ZM66.8164 102.459C65.957 102.459 65.2702 102.739 64.7559 103.299C64.248 103.859 63.9486 104.633 63.8574 105.623H69.4531C69.4531 104.601 69.2253 103.82 68.7695 103.279C68.3138 102.732 67.6628 102.459 66.8164 102.459ZM81.1816 102.684H77.7051V112H76.084V102.684H72.6465V101.297H81.1816V102.684ZM84.9219 105.721H88.2227C90.957 105.721 92.3242 106.727 92.3242 108.738C92.3242 109.793 91.9661 110.6 91.25 111.16C90.5404 111.72 89.4987 112 88.125 112H83.3008V101.297H84.9219V105.721ZM84.9219 107.117V110.643H88.0469C88.9062 110.643 89.5638 110.493 90.0195 110.193C90.4753 109.894 90.7031 109.441 90.7031 108.836C90.7031 108.243 90.4915 107.811 90.0684 107.537C89.6517 107.257 88.9616 107.117 87.998 107.117H84.9219ZM109.014 103.982C109.014 104.679 108.812 105.21 108.408 105.574C108.011 105.932 107.451 106.173 106.729 106.297V106.385C107.64 106.508 108.304 106.775 108.721 107.186C109.144 107.596 109.355 108.162 109.355 108.885C109.355 109.881 108.988 110.649 108.252 111.189C107.523 111.73 106.455 112 105.049 112H100.332V101.297H105.029C107.686 101.297 109.014 102.192 109.014 103.982ZM107.734 108.777C107.734 108.198 107.513 107.778 107.07 107.518C106.634 107.251 105.908 107.117 104.893 107.117H101.953V110.643H104.932C106.8 110.643 107.734 110.021 107.734 108.777ZM107.432 104.139C107.432 103.618 107.23 103.25 106.826 103.035C106.429 102.814 105.824 102.703 105.01 102.703H101.953V105.721H104.697C105.7 105.721 106.406 105.597 106.816 105.35C107.227 105.102 107.432 104.699 107.432 104.139ZM113.242 101.297V108.084L113.174 109.861L113.145 110.418L118.936 101.297H120.957V112H119.443V105.457L119.473 104.168L119.521 102.898L113.74 112H111.719V101.297H113.242ZM133.691 115.701H132.119V112H124.639V115.701H123.076V110.604H123.916C124.788 109.419 125.472 108.029 125.967 106.434C126.462 104.839 126.719 103.126 126.738 101.297H132.158V110.604H133.691V115.701ZM130.596 110.604V102.576H128.193C128.109 104.021 127.829 105.486 127.354 106.971C126.885 108.449 126.299 109.66 125.596 110.604H130.596ZM140.361 112.195C138.779 112.195 137.529 111.714 136.611 110.75C135.7 109.786 135.244 108.449 135.244 106.736C135.244 105.011 135.667 103.641 136.514 102.625C137.367 101.609 138.509 101.102 139.941 101.102C141.283 101.102 142.344 101.544 143.125 102.43C143.906 103.309 144.297 104.471 144.297 105.916V106.941H136.924C136.956 108.198 137.272 109.152 137.871 109.803C138.477 110.454 139.326 110.779 140.42 110.779C141.572 110.779 142.712 110.538 143.838 110.057V111.502C143.265 111.749 142.721 111.925 142.207 112.029C141.699 112.14 141.084 112.195 140.361 112.195ZM139.922 102.459C139.062 102.459 138.376 102.739 137.861 103.299C137.354 103.859 137.054 104.633 136.963 105.623H142.559C142.559 104.601 142.331 103.82 141.875 103.279C141.419 102.732 140.768 102.459 139.922 102.459ZM156.309 106.639C156.309 108.383 155.869 109.747 154.99 110.73C154.111 111.707 152.897 112.195 151.348 112.195C150.391 112.195 149.541 111.971 148.799 111.521C148.057 111.072 147.484 110.428 147.08 109.588C146.676 108.748 146.475 107.765 146.475 106.639C146.475 104.894 146.911 103.536 147.783 102.566C148.656 101.59 149.867 101.102 151.416 101.102C152.913 101.102 154.102 101.6 154.98 102.596C155.866 103.592 156.309 104.939 156.309 106.639ZM148.154 106.639C148.154 108.006 148.428 109.048 148.975 109.764C149.521 110.48 150.326 110.838 151.387 110.838C152.448 110.838 153.252 110.483 153.799 109.773C154.352 109.057 154.629 108.012 154.629 106.639C154.629 105.278 154.352 104.246 153.799 103.543C153.252 102.833 152.441 102.479 151.367 102.479C150.306 102.479 149.505 102.827 148.965 103.523C148.424 104.22 148.154 105.258 148.154 106.639Z" fill="#FFBB00"/>
</svg>
