<svg width="179" height="228" viewBox="0 0 179 228" fill="none" xmlns="http://www.w3.org/2000/svg">
<path fill-rule="evenodd" clip-rule="evenodd" d="M64.5151 192.778C65.4895 193.259 65.1247 194.981 65.0774 196.2C67.0266 196.197 67.0624 196.268 67.0235 198.088C67.0743 198.003 67.1304 197.882 67.1578 197.824C67.1842 197.767 67.2551 197.634 67.2847 197.569L67.6327 196.68C70.4589 198.943 82.8243 201.756 80.3745 206.872L80.6991 207.525C79.9078 208.918 79.8463 209.412 77.9344 209.514C73.0326 209.774 70.2002 207.634 66.8531 205.875C64.6213 204.702 61.3469 204.666 59.0261 203.831C56.8883 203.062 54.6114 201.766 54.5192 199.248C55.0968 198.079 54.3105 198.406 55.8739 196.737C56.7338 195.819 56.9157 195.678 57.8657 194.91L57.9651 193.481C54.2993 195.25 49.4205 196.857 45.5042 198.338C42.3807 199.519 36.1555 202.392 33.3938 202.822C33.3124 204.748 33.7042 204.433 33.6401 205.626C33.6084 206.218 33.2895 207.298 33.2298 208.363C33.1275 210.188 33.3585 213.183 32.6553 214.578C32.5383 217.895 31.1614 221.755 27.4775 220.573C26.3694 220.217 24.0766 218.858 23.6709 218.39C23.1094 217.741 22.1114 215.615 21.9051 214.15C22.0758 213.363 21.9923 213.108 22.1028 212.566C22.2922 211.636 22.0403 212.602 22.2272 212.055C22.4387 211.436 22.2266 211.838 22.5721 211.424C22.214 210.325 22.8295 208.721 23.6071 207.237C21.1364 207.732 16.8337 209.484 14.5449 210.425C11.7141 211.587 7.78705 212.518 6.76025 214.567C7.59255 216.766 12.3963 218.788 15.4789 220.587C24.1914 225.674 28.5496 229.865 36.4784 226.741L58.1146 218.391C61.8302 216.94 65.4409 215.454 69.0637 214.15C73.2908 212.628 88.6573 207.323 90.2807 205.457C90.0862 203.697 89.4082 203.524 88.042 202.689L78.6936 197.225C77.0704 196.175 70.9995 192.631 69.0117 192.071C67.953 191.773 65.777 191.841 65.3536 191.157C64.971 191.583 65.2659 191.19 64.8908 191.927L64.5151 192.778Z" fill="#EEF0FF"/>
<path fill-rule="evenodd" clip-rule="evenodd" d="M92.1677 166.412L94.8212 181.336C95.1096 182.367 95.0842 183.396 95.3154 184.503C95.5675 185.711 96.0069 186.286 96.211 187.338L96.8679 187.836C101.16 191.812 100.077 190.171 105.813 189.653C103.32 183.462 103.519 179.275 103.182 172.234C102.91 166.57 103.866 159.913 104.943 154.475C108.236 137.864 110.045 140.691 110.253 121.139C106.396 121.316 102.711 121.757 98.973 120.886C97.3215 120.501 95.977 120.014 94.4411 119.378C91.1024 117.998 92.8776 118.77 91.5693 116.827C91.6688 117.304 91.5432 121.392 91.6315 122.567C92.0959 128.749 93.2856 134.105 93.8117 140.823C94.1242 144.811 93.8144 149.816 92.9563 153.7C91.8016 158.926 92.3276 161.354 92.1677 166.412Z" fill="#162F5E"/>
<path fill-rule="evenodd" clip-rule="evenodd" d="M69.2507 81.2107C74.4059 78.8596 76.2751 86.746 71.9253 88.6393C67.3543 90.6289 64.1673 83.5291 69.2507 81.2107ZM61.9597 71.6077C60.6627 71.7411 60.8718 71.6051 60.1148 72.1948C58.4373 73.0343 58.7465 74.8902 56.4149 74.962C54.096 75.0335 54.5388 73.2853 51.2957 74.2958C48.3486 75.2141 46.4551 76.9307 43.0872 78.0495C48.9562 88.3948 45.7702 92.7205 51.0211 100.025C54.6385 105.058 58.9633 101.506 61.8014 101.171C63.9408 100.919 66.489 101.111 68.5774 101.548C71.2369 102.105 72.4255 103.141 74.1997 103.642C75.348 102.293 75.6064 97.4779 75.8839 95.335C76.0745 93.8629 76.2781 92.2449 76.29 90.748C76.304 88.9915 75.8042 87.3465 76.0426 85.5701L75.7719 82.4362C74.5367 79.1771 73.5098 73.8689 69.8226 70.3596C67.3985 70.6141 64.6907 71.6631 61.9597 71.6077Z" fill="#FEFEFF"/>
<path fill-rule="evenodd" clip-rule="evenodd" d="M150.564 101.88C150.286 102.103 148.556 103.01 147.598 103.625C146.496 104.332 145.991 105.142 145.106 106.354C145.356 107.047 145.368 106.194 144.959 107.004C144.944 107.033 144.5 107.704 144.428 107.821L137.484 120.566C137.455 122.174 137.862 120.606 137.006 122.283L135.409 124.924C134.625 126.278 134.807 125.329 134.828 126.63L161.594 112.321C163.871 111.042 166.189 110.5 167.4 107.876L178.068 87.4912C177.235 87.6909 172.342 90.3414 171.278 90.9436L150.564 101.88Z" fill="#555B91"/>
<path fill-rule="evenodd" clip-rule="evenodd" d="M87.4194 98.262C87.021 100.333 87.4711 105.755 88.0501 107.827C89.2009 111.944 91.2633 111.782 92.1581 114.377C92.8891 113.454 92.8381 115.864 92.7115 113.48C93.5128 114.625 94.5506 114.786 96.1467 115.207C100.567 116.373 106.27 116.597 109.686 117.564L110.253 121.14C110.045 140.691 108.235 137.864 104.943 154.475C103.865 159.914 102.91 166.57 103.181 172.234C103.519 179.275 103.32 183.462 105.813 189.653C107.212 189.245 107.245 189.04 108.211 188.402C108.654 186.568 108.472 186.726 107.836 184.961L105.838 176.884C104.94 166.716 107.246 157.295 110.478 147.995C114.325 136.931 115.217 130.963 116.235 119.158C117.347 118.299 117.568 118.195 118.879 118.43L118.847 117.844C118.438 116.859 118.052 115.478 118.568 114.149C116.65 114.688 119.139 115.423 115.51 114.626C96.1479 110.376 97.0495 111.248 97.7964 100.152C95.3113 99.9242 89.8152 98.6101 89.0543 96.2928C88.0567 96.0288 88.1883 96.1217 87.4543 95.7263L87.4194 98.262Z" fill="#1D4C87"/>
<path fill-rule="evenodd" clip-rule="evenodd" d="M105.838 176.884C109.136 178.553 109.848 179.067 114.28 178.458C112.596 168.289 113.849 157.968 116.26 148.125C118.1 140.613 121.222 127.106 121.322 119.67L118.879 118.43C117.568 118.195 117.347 118.299 116.235 119.157C115.217 130.963 114.325 136.931 110.478 147.995C107.246 157.295 104.94 166.716 105.838 176.884Z" fill="#162F5E"/>
<path fill-rule="evenodd" clip-rule="evenodd" d="M100.512 22.3033C100.01 21.255 100.288 20.4253 100.923 19.5321C102.103 17.8729 102.734 18.367 103.345 18.4133C103.833 20.5402 102.582 23.2089 100.512 22.3033ZM106.343 18.9312C105.487 16.7043 107.882 14.1946 108.983 15.2362C110.119 16.3103 108.562 18.5668 107.683 18.947L106.623 19.0195C106.577 18.9204 106.435 18.9651 106.343 18.9312ZM112.156 15.5967C111.561 14.3904 111.87 13.7108 112.537 12.7941C113.206 11.8748 113.591 11.5968 114.978 11.7107C115.31 13.8061 114.119 16.5558 112.156 15.5967ZM93.9909 27.7975C94.619 28.5133 95.5241 28.99 96.7967 28.7851C97.8451 28.6163 97.5678 28.5457 98.2831 28.1964C99.7283 27.4905 98.1514 27.6736 99.7357 27.737C100.21 26.9709 99.1826 27.2254 100.194 27.0632C101.082 27.7157 103.102 29.6431 103.465 30.6075L103.711 30.6903C104.589 31.4751 105.612 27.9528 106.434 26.1091C107.754 23.1504 107.21 22.765 110.003 21.5654C114.304 17.684 124.303 15.7409 126.983 8.85395C128.359 5.31735 127.871 3.15446 125.031 1.88306C124.373 2.27616 123.14 2.49786 122.382 2.88816L106.087 12.3476C100.452 15.6603 95.8774 16.9402 93.887 22.4093C92.6852 25.7117 94.0465 27.0602 93.9909 27.7975Z" fill="#EEDE20"/>
<path fill-rule="evenodd" clip-rule="evenodd" d="M38.4181 157.616C40.1801 156.469 40.4106 154.973 43.7868 154.308C48.1568 153.448 48.1701 155.139 50.1058 156.992C51.5161 153.453 53.4484 146.537 54.1238 142.453C54.6411 139.326 54.2197 137.24 52.843 134.883C50.6865 131.19 49.4867 131.685 48.7933 129.197C47.1496 128.556 46.9881 127.769 44.6041 127.98C43.8758 127.36 43.8579 126.919 44.1272 127.954C40.2894 128.918 40.3042 137.336 39.7731 141.519C39.4147 144.342 37.7496 156.016 38.4181 157.616Z" fill="#FEFEFF"/>
<path fill-rule="evenodd" clip-rule="evenodd" d="M4.37891 111.707C6.04561 112.547 7.5848 111.457 9.1498 110.462C12.735 108.527 15.5652 106.458 19.134 104.813C19.6595 104.202 21.0797 103.435 21.9208 103.15C22.3057 102.554 22.7486 101.961 23.0193 100.879C23.368 98.1548 23.1318 93.9791 23.1349 91.0948C23.1367 89.4493 23.1245 87.8006 23.1389 86.1548C23.1574 84.0292 23.6051 82.7935 22.0809 81.8733C20.4127 83.1199 16.9394 84.8708 14.7616 86.1295C12.157 87.635 9.73641 88.9996 7.13581 90.497C3.85851 92.384 4.74431 94.3842 4.74141 99.9142C4.74041 101.913 4.7388 103.913 4.7445 105.911L4.77631 110.162C4.75441 110.427 4.7405 110.588 4.6923 110.824C4.5151 111.694 4.65701 111.253 4.37891 111.707Z" fill="#EEDE20"/>
<path fill-rule="evenodd" clip-rule="evenodd" d="M33.9962 79.3338L32.8185 80.5548C32.0344 81.3214 32.4175 80.8187 31.8578 81.6638C28.7793 86.3121 27.4099 100.905 27.2802 106.069C26.2033 106.225 27.1881 106.233 25.9445 106.005C27.6927 108.904 26.8645 108.891 26.2439 111.674C27.214 112.15 27.6595 112.562 28.4439 113.061C29.5664 113.774 30.1822 113.818 31.2389 114.503C33.6258 116.049 32.9161 116.425 36.7578 117.22C36.7166 116.614 36.5502 116.803 36.7782 116.106C37.0001 115.428 37.1204 115.414 37.3525 115.099C36.8931 113.245 36.5183 110.867 35.5878 109.447C34.7798 108.214 32.3733 107.963 30.8477 107.121C32.5331 106.946 33.0508 107.24 34.4856 107.758C34.0773 102.276 33.3738 98.9021 35.5438 93.8633C38.0064 88.1449 42.0742 84.7473 42.1252 84.6393C41.921 82.5563 40.5442 81.2581 39.3061 79.9891C37.415 78.0509 36.6687 78.3523 33.9962 79.3338Z" fill="#FEFEFF"/>
<path fill-rule="evenodd" clip-rule="evenodd" d="M107.836 184.961C108.472 186.726 108.654 186.568 108.211 188.402C108.796 189.126 108.947 189.463 109.381 190.154C111.55 193.035 113.949 195.637 115.655 199.398C116.523 201.062 116.323 201.06 115.962 202.821C122.264 202.38 132.702 197.485 132.941 190.566C133.02 188.258 131.556 185.199 130.571 184.174C129.734 183.304 130.301 183.854 129.667 183.537L129.668 184.226C129.898 190.928 123.604 189.277 119.641 187.306C106.522 180.778 115.205 185.658 107.836 184.961Z" fill="#EEF0FF"/>
<path fill-rule="evenodd" clip-rule="evenodd" d="M57.4041 187.573L58.3151 192.734C58.6373 194.267 58.5146 194.865 59.6455 195.526C60.6543 196.116 61.8774 196.097 62.7418 195.491L61.3673 195.602C60.923 190.388 57.7936 184.49 57.4489 179.245C57.2653 176.452 58.7502 172.756 60.7594 172.288C62.1986 171.952 63.4516 172.644 64.8344 172.95C66.5867 173.338 67.6962 173.136 69.4799 172.911C69.687 171.388 69.9492 171.745 69.164 170.756C66.7345 171.099 66.2566 170.46 64.7076 169.583C63.7162 169.021 62.0263 168.283 60.9553 167.901C60.5377 168.757 60.6226 168.132 59.9342 167.339C59.5396 166.885 59.3 166.433 59.0117 165.965C52.5775 168.864 55.9207 181.208 57.4041 187.573Z" fill="#A0B3C1"/>
<path fill-rule="evenodd" clip-rule="evenodd" d="M44.4667 85.2288C45.7848 88.2478 46.6394 101.651 46.2419 105.927C46.123 107.206 45.7714 109.404 45.0298 110.416C44.3375 111.36 45.1365 111.933 44.313 110.852C44.8603 112.616 44.4457 111.229 45.0953 111.856C45.1548 111.914 45.2368 111.966 45.2996 112.026L46.1897 112.965C46.0806 112.103 45.8749 112.348 46.6097 112.111C48.3562 112.489 48.1708 112.886 49.9331 112.122L52.9056 111.434C53.7526 112.366 53.8157 113.917 54.9764 114.757C56.517 115.872 58.2277 114.998 59.641 114.772L59.9354 120.021L60.3686 127.583L55.5486 127.446C55.64 127.512 55.7776 127.481 55.8386 127.619C55.8995 127.758 56.0487 127.747 56.1348 127.78C56.1553 127.788 56.3392 128.185 58.5261 128.176C58.8506 128.175 59.6569 128.141 59.9626 128.09L61.7071 127.514C59.6298 127.578 61.0143 127.649 60.561 127.078C60.9631 123.313 60.0526 119.28 60.4388 116.474L60.1348 115.968C59.9671 115.581 59.9638 115.626 59.8164 115.125C59.6499 114.56 59.644 114.207 59.5255 113.759C55.8861 113.697 54.0518 114.589 54.3331 110.498C55.4108 109.659 54.6927 110.191 55.4008 109.942L56.7013 108.668C59.0315 105.814 64.2908 102.491 68.4109 105.434L69.6411 105.977L71.585 106.292L71.8742 107.25L72.2416 106.689C72.6005 106.534 72.1944 106.641 73.0079 106.441C73.1812 106.398 73.5311 106.354 73.8905 106.262L74.1998 103.641C72.4256 103.141 71.237 102.105 68.5775 101.548C66.4891 101.111 63.9409 100.919 61.8015 101.171C58.9634 101.506 54.6386 105.057 51.0212 100.025C45.7703 92.7203 48.9563 88.3946 43.0873 78.0493L40.2727 78.7476C41.151 80.1132 42.0297 80.4645 42.8524 81.7086C43.5431 82.7529 43.943 83.844 44.4667 85.2288Z" fill="#AEB2D1"/>
<path fill-rule="evenodd" clip-rule="evenodd" d="M95.1879 63.7896C94.615 66.5877 98.3011 68.9172 98.5766 73.375L103.005 72.7965C103.039 73.0355 103.035 73.0796 103.032 73.1715L103.008 73.587C102.997 73.6369 102.972 73.7508 102.956 73.8076L101.471 77.3365C104.18 81.6346 106.721 85.7126 108.896 90.4546C109.613 92.0187 109.128 91.8348 110.39 92.21C109.858 92.6289 110.434 92.4439 109.424 92.7047C109.954 93.225 109.173 92.8913 110.559 93.3953C111.515 93.7426 111.5 93.6599 112.352 93.6969L113.364 94.904C113.808 94.4707 113.601 94.836 113.999 93.9816C113.389 87.548 112.166 82.1872 110.647 75.9882L109.674 73.3203C108.686 71.9358 107.826 70.0456 106.867 68.8721C102.758 63.8444 94.2941 59.6335 100.428 58.1421L100.249 56.9553C98.4555 57.8392 97.7007 58.0925 96.9161 59.6315C95.8735 61.6766 96.5276 62.3444 95.1879 63.7896Z" fill="#355E99"/>
<path fill-rule="evenodd" clip-rule="evenodd" d="M52.72 50.8829C52.7819 56.2444 51.7413 58.5866 53.9064 63.9764C55.3693 67.618 57.8245 70.6964 61.9597 71.3148C62.3701 70.6583 62.0393 71.3384 62.632 70.5049C62.9336 70.0808 62.9893 70.022 63.1216 69.5494L66.0574 61.5749C64.7204 61.4157 63.6159 61.8015 62.5615 61.0954C60.1867 60.964 56.9064 60.7325 55.8652 58.9921C56.7957 58.2979 54.4328 59.2815 56.6107 58.5739C58.3356 58.0134 63.3204 58.7887 65.9531 58.6166C66.5675 57.695 66.4556 57.6365 66.1856 55.1697C65.371 47.7275 61.8754 48.4548 61.1286 48.0443C58.3438 47.7871 53.5105 49.0341 52.72 50.8829Z" fill="#FEFEFF"/>
<path fill-rule="evenodd" clip-rule="evenodd" d="M30.8115 200.025C32.51 200.524 32.7448 200.273 34.1454 199.675C35.4984 198.765 36.2862 197.481 37.0448 195.628C37.3525 194.541 37.8126 193.833 38.3434 192.642L46.3341 173.438C39.3678 173.765 39.778 171.382 36.8358 172.075C32.9083 173.001 32.3665 186.469 32.0534 190.231C31.7996 193.28 30.9252 197.819 30.8115 200.025Z" fill="#FEFEFF"/>
<path fill-rule="evenodd" clip-rule="evenodd" d="M62.8702 139.959C62.6552 140.089 61.888 140.514 61.7976 140.573C60.0747 141.688 60.9923 141.657 59.0277 141.683C58.981 141.791 58.752 142.122 58.5767 142.335C59.9325 143.897 60.0748 151.053 59.8812 152.756C59.4822 156.266 57.8842 159.73 58.5284 163.079C59.7048 162.422 58.0241 164.533 63.0264 165.095C63.6116 161.131 64.3021 155.985 69.0633 156.208C71.2621 156.311 71.367 157.166 72.6292 157.818C73.325 156.721 73.7766 156.194 73.1543 155.057C71.4247 153.492 69.7215 153.065 66.7549 153.771C66.2067 149.248 67.2911 142.932 69.1567 139.465C71.1538 135.753 74.2774 133.143 74.3943 127.725C74.536 126.063 74.9297 125.242 73.6401 124.381C73.8255 128.112 72.5042 131.651 70.5216 134.502C69.1374 136.493 69.4586 136.7 67.4572 138.105C66.0358 139.104 65.3596 139.812 62.8702 139.959Z" fill="#AEB2D1"/>
<path fill-rule="evenodd" clip-rule="evenodd" d="M114.28 178.458L117.799 177.433L117.632 174.635C117.402 165.607 117.989 155.8 119.652 146.909C120.432 142.739 121.7 138.84 122.751 134.84C123.951 130.276 124.328 125.79 125.176 121.788L121.322 119.67C121.222 127.106 118.1 140.613 116.26 148.125C113.849 157.967 112.596 168.289 114.28 178.458Z" fill="#1D4C87"/>
<path fill-rule="evenodd" clip-rule="evenodd" d="M134.413 102.932C135.641 102.445 137.623 101.629 138.182 100.753C136.262 99.5961 135.649 99.5393 134.452 98.0793C133.516 96.938 132.546 95.685 132.07 93.978C127.606 88.9949 127.761 66.7424 125.135 61.8821C124.556 60.8111 123.168 58.5912 122.614 58.058C121.874 57.3458 119.849 56.1082 118.225 55.8059L116.225 56.5226C116.35 58.5278 115.622 56.9294 118.279 58.8786C125.054 63.8469 124.89 83.1105 127.537 93.7087C128.824 98.8634 129.969 101.03 134.413 102.932Z" fill="#355E99"/>
<path fill-rule="evenodd" clip-rule="evenodd" d="M62.7418 195.491C63.5467 195.194 63.2556 195.597 63.9833 194.609C64.5455 193.846 64.4584 193.674 64.5151 192.778L64.8908 191.927C65.266 191.19 64.971 191.582 65.3537 191.157C65.5433 189.18 66.9164 183.217 67.6273 181.857L69.4799 172.911C67.6962 173.136 66.5867 173.338 64.8344 172.95C63.4516 172.644 62.1986 171.952 60.7594 172.288C58.7502 172.756 57.2653 176.452 57.4489 179.245C57.7936 184.49 60.923 190.388 61.3673 195.602L62.7418 195.491Z" fill="#FEFEFF"/>
<path fill-rule="evenodd" clip-rule="evenodd" d="M4.37894 111.707C4.65704 111.253 4.51514 111.694 4.69234 110.824C4.74054 110.588 4.75444 110.427 4.77634 110.163L4.74454 105.912C4.73884 103.913 4.74044 101.913 4.74144 99.9144C4.74434 94.3844 3.85854 92.3842 7.13584 90.4972C9.73644 88.9998 12.157 87.6352 14.7616 86.1297C16.9394 84.871 20.4127 83.1201 22.0809 81.8735C16.6398 77.9104 16.2832 80.3139 4.87274 86.8095C-0.195157 89.6945 0.420543 88.6619 0.425143 95.6811C0.426943 98.4625 -0.485457 108.304 1.13734 109.668L2.43164 110.517C3.26584 110.996 3.66744 111.11 4.37894 111.707Z" fill="#FFBB00"/>
<path fill-rule="evenodd" clip-rule="evenodd" d="M110.519 48.5975C109.806 49.1399 107.924 48.9484 106.859 49.0611L105.365 51.1524L104.199 55.1163C101.098 54.5874 102.64 52.3702 99.7733 51.2856L98.9497 52.6678C99.2282 54.1118 99.6373 54.7191 100.413 55.3856C101.91 56.2293 101.2 57.074 102.182 58.3786C102.697 59.0627 103.927 60.1525 104.873 60.634C106.924 61.6793 109.858 63.1855 112.163 62.514L113.435 61.7432C113.444 60.3408 113.293 60.8897 114.4 59.973C115.122 58.9477 115.059 58.8911 116.135 58.1669L115.989 55.6084C116.771 51.8666 117.85 51.6576 117.209 47.01C114.962 47.6644 113.424 48.8358 110.519 48.5975Z" fill="#E8957A"/>
<path fill-rule="evenodd" clip-rule="evenodd" d="M46.2668 59.3448C45.6866 55.0394 49.5149 55.2427 49.986 59.0603C50.4873 63.1218 46.7736 63.1061 46.2668 59.3448ZM45.9624 61.6104C46.7271 62.0007 46.8046 61.9694 47.4079 62.3089C47.5356 65.0672 46.5941 67.561 46.2607 70.2751C47.3883 70.7029 47.3752 71.0172 48.073 71.341L50.3744 72.7973C51.455 73.2682 52.0258 73.5303 53.0436 73.5933C55.6562 73.755 57.0256 73.2233 57.8677 71.2819C57.0092 70.9487 56.032 70.5049 55.264 70.0535C53.7259 69.1494 54.7057 69.4468 53.0534 67.987C48.8891 64.3078 50.9387 60.4029 50.7697 59.0225C50.5533 57.2561 47.6563 55.2165 51.4933 51.9793C52.069 51.4936 52.1641 51.4082 52.7201 50.8829C53.5106 49.0341 58.3439 47.7871 61.1287 48.0443C61.5639 47.8483 62.8272 48.3511 59.293 46.2573C57.9707 45.4738 56.7362 45.5061 55.6553 44.7788C52.657 45.5439 48.8576 44.7183 45.5825 49.9312C42.2247 55.2757 45.6975 59.9016 45.9624 61.6104Z" fill="#36437D"/>
<path fill-rule="evenodd" clip-rule="evenodd" d="M74.3943 127.725C74.2774 133.143 71.1538 135.753 69.1567 139.465C67.2911 142.932 66.2067 149.248 66.7549 153.771C69.7215 153.065 71.4247 153.492 73.1543 155.057C74.0812 154.48 73.5333 155.224 74.1354 153.955C74.2822 153.645 74.4626 152.647 74.543 152.261C74.8101 150.979 75.0612 149.995 75.2888 148.76C76.2158 143.729 76.6778 138.498 76.1682 133.415C75.8845 130.584 75.3381 128.394 75.043 125.875C74.694 127.039 75.0581 126.842 74.3943 127.725Z" fill="#FEFEFF"/>
<path fill-rule="evenodd" clip-rule="evenodd" d="M114.399 59.9729C116.753 60.6382 119.232 66.8255 119.303 68.9954C118.571 69.5953 118.212 69.8703 116.856 70.004C117.488 70.9468 118.308 72.0374 118.777 72.8737C119.734 74.5788 118.56 81.8753 118.271 84.056L117.967 84.2182L119.085 96.7548C119.835 97.1396 121.192 97.5574 122.385 97.7333L123.259 97.6227C121.872 89.182 124.187 82.6134 123.432 74.5C123.074 70.6503 122.555 68.3848 121.019 64.9692C119.031 60.5507 118.43 60.4038 116.135 58.1667C115.059 58.8909 115.121 58.9476 114.399 59.9729Z" fill="#1D4C87"/>
<path fill-rule="evenodd" clip-rule="evenodd" d="M104.559 202.877C103.468 201.677 103.594 202.719 101.613 199.713C100.767 198.429 100.216 196.95 99.4343 195.647C97.2445 195.883 96.2326 195.781 95.8838 193.425C95.6095 191.572 95.8441 189.109 96.2109 187.338C96.0068 186.286 95.5674 185.71 95.3153 184.503C95.0841 183.396 95.1095 182.367 94.8211 181.336L93.8609 180.622C91.0738 182.994 83.2983 187.305 88.8549 195.179C91.7445 199.273 99.9277 203.022 104.559 202.877Z" fill="#EEF0FF"/>
<path fill-rule="evenodd" clip-rule="evenodd" d="M100.256 35.9548C100.093 37.1515 99.5403 38.444 99.5663 39.5843C99.6532 43.3857 108.326 46.164 114.891 43.713C118.03 42.5413 118.658 41.174 120.275 40.5375C118.875 38.0981 116.93 39.9497 115.115 38.403C114.224 37.644 114.147 37.0051 113.359 36.2707C113.015 35.9501 111.772 35.0457 111.128 34.6229C108.181 32.6885 105.397 32.7802 102.321 34.3511C101.55 34.7453 100.722 35.211 100.256 35.9548Z" fill="#723B1C"/>
<path fill-rule="evenodd" clip-rule="evenodd" d="M71.8741 107.25C71.9119 108.541 72.0019 110.282 71.451 111.118C71.5953 112.136 71.6416 111.449 71.4893 112.597C71.2806 114.171 71.4882 112.882 71.1582 113.503C71.7699 115.296 71.3004 119.6 71.1604 121.781C70.9943 124.368 69.162 125.537 66.8785 125.925C66.3155 126.531 66.9733 126.223 65.6228 126.651L61.707 127.514L59.9626 128.09C59.6569 128.141 58.8505 128.175 58.526 128.176C56.3391 128.185 56.1553 127.788 56.1348 127.78C56.0487 127.747 55.8994 127.758 55.8385 127.62C55.7775 127.481 55.6399 127.512 55.5485 127.447C53.7013 127.175 51.0153 126.147 49.2261 125.447C44.7115 123.679 49.0992 118.846 46.6221 113.892C45.7266 114.121 47.3377 116.349 46.9181 120.029C46.6134 122.702 44.642 121.483 45.6575 125.19C48.0759 125.646 47.3368 125.357 48.3015 126.338L45.3354 126.546C46.1109 126.532 47.0681 126.401 48.0996 126.473C48.1853 126.425 48.3285 126.279 48.3746 126.369L53.2246 127.771C55.6053 128.938 56.8209 132.731 60.8369 134.999C65.0205 137.361 64.7854 135.492 66.7754 136.702C68.4159 135.287 72.892 127.985 72.5127 124.528C71.836 120.902 73.7099 123.089 72.8186 120.592C72.3177 119.189 72.1744 119.674 71.9607 118.575C71.8358 117.932 71.9101 116.52 71.9152 115.789L72.3564 108.066C72.6707 106.546 72.2379 106.415 73.5801 106.968L72.2415 106.689L71.8741 107.25Z" fill="#FEFEFF"/>
<path fill-rule="evenodd" clip-rule="evenodd" d="M138.182 100.753C137.623 101.629 135.641 102.446 134.413 102.933C133.2 103.684 133.486 103.09 132.543 104.21C133.478 105.32 132.791 104.685 133.658 104.917C134.912 104.993 135.007 105.287 136.166 105.907L138.232 107.261C138.291 107.317 138.388 107.414 138.455 107.499C136.301 107.916 134.966 109.372 132.974 110.148C131.719 110.636 128.956 109.316 127.865 108.139C128.912 107.654 130.118 107.109 130.804 106.12L129.548 105.018C129.089 106.233 129.486 105.669 128.091 106.284C127.46 106.561 127.126 106.742 126.532 107.069L126.463 106.184C126.42 106.517 126.409 106.731 126.284 107.015C126.237 107.122 126.168 107.259 126.118 107.363C126.071 107.464 125.984 107.571 125.914 107.674C125.826 107.751 123.861 108.26 123.694 108.344C123.506 108.793 124.153 108.507 122.899 109.238C122.438 109.506 122.104 109.519 121.4 109.854C120.558 110.253 119.597 110.767 119.041 111.319L120.55 111.988L121.97 112.194C128.151 110.987 127.155 111.206 133.823 112.307C134.929 111.501 144.055 106.585 145.106 106.354C145.991 105.142 146.496 104.332 147.598 103.625C148.556 103.01 150.286 102.102 150.564 101.88C149.89 100.714 146.107 98.9311 144.641 98.4099C143.192 97.8945 142.687 98.6073 141.517 99.252C140.474 99.8266 139.465 100.438 138.182 100.753Z" fill="#999BC3"/>
<path fill-rule="evenodd" clip-rule="evenodd" d="M29.1784 197.438C28.3946 199.445 29.4119 199.62 30.8115 200.025C30.9252 197.819 31.7996 193.28 32.0534 190.231C32.3665 186.469 32.9083 173.001 36.8358 172.075C39.778 171.382 39.3678 173.765 46.3341 173.438L46.5376 170.56C40.8017 172.471 37.0209 170.609 37.424 164.287L37.1448 165.191C35.6766 165.754 34.8131 165.697 33.7683 166.872C33.272 167.43 33.1385 167.585 32.5943 168.146C32.0161 168.742 31.9422 168.737 31.5088 169.531C29.886 172.503 29.9404 174.532 29.5785 177.876C28.9519 183.666 28.9148 191.473 29.1784 197.438Z" fill="#AEB2D1"/>
<path fill-rule="evenodd" clip-rule="evenodd" d="M104.559 202.877C106.6 203.602 107.541 204.749 110.427 204.851C112.707 204.931 115.376 204.486 115.962 202.821C116.323 201.06 116.523 201.062 115.655 199.398C111.993 200.409 110.927 201.596 107 198.921C105.222 197.709 102.481 194.861 101.986 192.564C105.688 193.692 107.882 193.093 109.381 190.154C108.947 189.463 108.796 189.126 108.211 188.402C107.245 189.04 107.212 189.245 105.813 189.653C100.077 190.171 101.16 191.812 96.8678 187.836L96.2109 187.338C95.8441 189.109 95.6095 191.572 95.8838 193.425C96.2326 195.781 97.2445 195.883 99.4343 195.648C100.216 196.95 100.767 198.429 101.613 199.713C103.594 202.719 103.468 201.677 104.559 202.877Z" fill="#36363B"/>
<path fill-rule="evenodd" clip-rule="evenodd" d="M114.28 178.458C109.848 179.066 109.136 178.553 105.838 176.884L107.836 184.961C115.205 185.658 106.522 180.778 119.641 187.305C123.604 189.277 129.898 190.928 129.668 184.226C128.399 183.628 129.136 183.912 127.965 184.499C127.308 184.828 126.933 185.094 126.14 185.195C124.564 185.394 119.035 181.925 116.539 180.583C117.629 179.546 118.401 179.682 119.812 177.797L120.728 176.395C119.91 175.796 118.641 175.176 117.632 174.635L117.799 177.433L114.28 178.458Z" fill="#36363B"/>
<path fill-rule="evenodd" clip-rule="evenodd" d="M38.4182 157.616L38.4642 159.658C40.0594 157.7 42.456 155.306 46.4159 156.869C47.4436 157.275 49.0338 158.756 49.473 159.427C50.407 160.856 50.0451 162.908 49.6634 164.444C53.0057 162.777 53.2368 156.635 54.3316 153.583C54.8741 152.07 58.107 142.894 58.5767 142.335C57.5304 140.671 58.5963 142.944 58.2035 141.176C56.8799 135.219 54.1409 132.443 48.7934 129.197C49.4868 131.685 50.6866 131.19 52.8431 134.883C54.2198 137.24 54.6412 139.326 54.1239 142.453C53.4485 146.537 51.5162 153.453 50.1059 156.992C48.1702 155.139 48.1569 153.448 43.7869 154.308C40.4107 154.973 40.1802 156.469 38.4182 157.616Z" fill="#AEB2D1"/>
<path fill-rule="evenodd" clip-rule="evenodd" d="M91.7172 67.8099L93.4595 70.2578C95.9797 73.4146 99.5851 80.076 101.018 84.2191C101.438 85.4333 101.708 86.2365 102.033 87.457C102.876 90.6246 103.028 89.9375 102.007 90.2325C102.717 90.9205 102.596 90.7183 103.681 91.1001C104.212 91.2868 104.895 91.5033 105.545 91.7144C106.85 92.1382 108.061 92.7063 109.424 92.7049C110.434 92.4441 109.858 92.6291 110.39 92.2102C109.128 91.835 109.613 92.0189 108.896 90.4548C106.721 85.7128 104.18 81.6348 101.471 77.3367L102.956 73.8078C102.972 73.751 102.997 73.6371 103.008 73.5872L103.032 73.1717C103.035 73.0798 103.039 73.0357 103.005 72.7967L98.5767 73.3752C98.3012 68.9174 94.6151 66.5879 95.188 63.7898C94.1537 64.5502 92.7532 66.5795 91.7172 67.8099Z" fill="#1D4C87"/>
<path fill-rule="evenodd" clip-rule="evenodd" d="M101.619 11.8056C99.8831 12.7771 98.6988 13.5636 96.9798 14.5403C89.7339 18.6575 88.3591 26.1447 93.9909 27.7975C94.0465 27.0602 92.6852 25.7117 93.887 22.4093C95.8774 16.9402 100.452 15.6603 106.087 12.3476L122.382 2.8882C123.14 2.4979 124.373 2.2762 125.031 1.8831C121.279 -0.771598 119.547 1.4811 113.283 5.0757L101.619 11.8056Z" fill="#FFBB00"/>
<path fill-rule="evenodd" clip-rule="evenodd" d="M121.97 112.194C119.595 113.293 119.558 115.504 120.668 118.067C122.676 119.288 127.032 122.181 130.001 122.307C129.46 119.567 129.015 120.971 128.177 119.048C129.873 119.546 129.639 120.301 131.558 120.248C132.014 119.059 132.543 119.292 131.519 118.341C130.614 117.5 129.886 117.722 129.589 116.612C132.161 114.849 132.395 118.069 134.063 118.039C135.522 116.399 134.139 116.248 134.128 114.55C136.145 114.967 136.857 115.835 138.626 115.142C138.45 113.75 138.296 113.827 136.586 113.21C135.733 112.902 134.577 112.661 133.823 112.307C127.155 111.207 128.151 110.987 121.97 112.194Z" fill="#E8957A"/>
<path fill-rule="evenodd" clip-rule="evenodd" d="M116.135 58.1669C118.43 60.404 119.031 60.5509 121.019 64.9694C122.555 68.385 123.074 70.6505 123.432 74.5002C124.187 82.6136 121.872 89.1821 123.259 97.6228L122.385 97.7335C124.399 98.8306 126.512 99.4259 127.581 101.131C129.629 101.229 131.104 103.13 132.543 104.21C133.486 103.09 133.2 103.684 134.413 102.933C129.969 101.03 128.824 98.8636 127.537 93.7089C124.891 83.1107 125.054 63.8471 118.28 58.8788C115.622 56.9296 116.35 58.528 116.225 56.5228L118.226 55.8061L115.989 55.6084L116.135 58.1669Z" fill="#013B7A"/>
<path fill-rule="evenodd" clip-rule="evenodd" d="M46.6222 113.892C49.0993 118.846 44.7116 123.679 49.2262 125.446C51.0154 126.147 53.7014 127.175 55.5486 127.446L60.3686 127.583L59.9354 120.021C59.8658 119.912 59.8008 119.787 59.7548 119.679C59.2295 118.442 59.2882 119.499 59.2411 117.205C59.1501 118.128 60.0477 118.267 55.7055 118.402C53.3621 118.475 53.9631 119.08 51.4783 119.084C51.4222 118.997 51.3649 118.881 51.3366 118.808L51.0294 117.919C50.9589 117.619 50.9681 117.231 51.0671 116.945L50.8999 117.624C50.3716 119.931 51.2789 121.252 50.4199 122.439C49.8132 121.213 49.4871 118.326 49.0456 116.737C47.5414 111.324 47.9272 113.425 46.6097 112.111C45.8749 112.348 46.0806 112.103 46.1897 112.965L46.6222 113.892Z" fill="#162F5E"/>
<path fill-rule="evenodd" clip-rule="evenodd" d="M70.5979 69.7895C71.6867 71.3908 73.2998 72.8457 74.4463 75.5181C75.2254 77.3343 76.5782 80.806 75.7719 82.436L76.0426 85.5699C76.5577 86.5015 76.3643 87.9401 76.3126 89.2248C78.2745 89.9533 82.6237 93.7809 84.992 95.3406C85.1147 95.066 85.6702 94.8836 85.685 94.8732C85.2029 93.7659 86.099 91.9482 86.7625 90.7273C85.1184 90.2004 84.0699 88.6806 83.0656 87.3807C82.0675 86.0887 81.2944 84.9261 80.4789 83.2815C79.3736 81.0527 76.9971 75.5285 77.0101 73.0019C75.7008 72.0358 72.6336 69.6536 70.5979 69.7895Z" fill="#AEB2D1"/>
<path fill-rule="evenodd" clip-rule="evenodd" d="M34.4856 107.758C35.3842 108.291 37.0025 110.248 37.5901 111.126C38.0157 110.24 37.6408 106.693 37.9603 104.83L39.2855 98.0207C38.9247 97.0616 38.9327 96.7825 39.4838 95.5969C41.441 94.9244 41.4419 95.5959 42.2014 93.4519C42.6283 92.2467 42.8016 91.0951 42.9475 90.1765C43.3299 88.5323 43.2939 85.7241 42.1252 84.6392C42.0742 84.7472 38.0064 88.1448 35.5438 93.8632C33.3738 98.902 34.0773 102.276 34.4856 107.758Z" fill="#AEB2D1"/>
<path fill-rule="evenodd" clip-rule="evenodd" d="M89.0545 96.2928C89.8154 98.6101 95.3115 99.9242 97.7966 100.152L99.6079 100.802L106.094 101.258L111.45 101.388C110.577 99.824 109.682 99.9173 110.011 97.0367L109.147 97.9393C107.311 96.1269 91.691 94.3934 89.2297 91.7314C88.4074 93.1293 88.6144 94.532 89.0545 96.2928Z" fill="#AEB2D1"/>
<path fill-rule="evenodd" clip-rule="evenodd" d="M89.2297 91.7314C91.691 94.3934 107.311 96.1269 109.147 97.9393L110.012 97.0367C110.475 95.0611 111.182 95.1415 112.352 93.697C111.5 93.66 111.515 93.7427 110.559 93.3954C109.173 92.8914 109.954 93.2251 109.424 92.7048C108.061 92.7062 106.85 92.1381 105.545 91.7143C104.895 91.5032 104.212 91.2867 103.681 91.1C102.596 90.7182 102.717 90.9204 102.007 90.2324C100.826 90.2175 99.9287 89.9001 98.9126 89.3814C97.6987 89.1219 97.4715 89.1915 96.7454 88.4638C95.4516 88.4816 94.4263 88.0348 93.2493 87.5803C91.2522 87.7549 89.8198 89.7386 89.2297 91.7314Z" fill="#FEFEFF"/>
<path fill-rule="evenodd" clip-rule="evenodd" d="M96.802 41.5222L96.5574 43.0313C97.3612 43.6352 97.2195 43.3042 98.0197 44.177C99.4529 45.7402 99.7552 46.229 102.281 47.3507C108.58 50.1477 106.949 47.6207 110.519 48.5973C113.423 48.8356 114.962 47.6642 117.209 47.0098C118.415 45.6016 118.52 46.5957 119.513 44.8409C120.161 43.6947 120.57 42.1771 120.275 40.5373C118.658 41.1738 118.03 42.5411 114.891 43.7128C108.326 46.1638 99.6533 43.3855 99.5664 39.5841C99.5404 38.4438 100.093 37.1513 100.256 35.9546C99.5224 36.3228 99.7331 36.0321 98.8925 36.9138C98.4188 37.4108 98.4434 37.5114 98.0356 38.1711C97.1899 39.5393 96.8575 39.8696 96.802 41.5222Z" fill="#452819"/>
<path fill-rule="evenodd" clip-rule="evenodd" d="M118.568 114.149C119.535 112.254 118.957 113.18 120.55 111.988L119.04 111.319C118.11 111.174 118.982 111.55 117.938 111.155C116.925 110.772 117.595 111.24 116.942 110.487L116.201 110.408C116.133 110.446 116.019 110.462 115.975 110.466L111.742 109.454C110.271 109.048 108.487 108.762 107.348 107.953C105.362 107.55 103.118 106.553 101.263 105.851C99.4796 105.176 99.4265 105.544 99.2573 103.785C98.9268 100.347 99.0858 100.973 99.6079 100.802L97.7965 100.152C97.0496 111.248 96.1479 110.376 115.51 114.626C119.139 115.423 116.651 114.688 118.568 114.149Z" fill="#355E99"/>
<path fill-rule="evenodd" clip-rule="evenodd" d="M77.0101 73.0019C76.9971 75.5285 79.3736 81.0527 80.4789 83.2815C81.2944 84.9261 82.0675 86.0887 83.0656 87.3807C84.0699 88.6806 85.1184 90.2004 86.7625 90.7273C87.6109 89.1571 89.5499 87.5406 91.5698 86.8332C91.3279 85.7248 91.8873 86.6344 90.7934 85.6615C88.645 83.7508 84.2291 81.6975 86.7061 74.3447L87.2446 72.4231L86.6661 72.9774C85.6733 74.4086 85.6702 78.9958 85.8039 80.7507C84.2072 79.779 77.9553 72.7372 77.0101 73.0019Z" fill="#FEFEFF"/>
<path fill-rule="evenodd" clip-rule="evenodd" d="M42.9474 90.1766C42.8015 91.0952 42.6282 92.2468 42.2013 93.452C41.4418 95.596 41.4409 94.9245 39.4837 95.597C38.9326 96.7826 38.9246 97.0617 39.2854 98.0208C41.3707 101.465 43.6836 106.191 44.3129 110.852C45.1364 111.933 44.3374 111.36 45.0297 110.416C45.7713 109.404 46.1229 107.207 46.2418 105.928C46.6393 101.651 45.7847 88.248 44.4666 85.229C44.6699 86.7059 44.8516 87.4387 44.372 88.911C44.2749 89.2089 43.9652 89.9008 43.7471 90.1125C42.6735 91.1545 43.3421 90.8418 42.9474 90.1766Z" fill="#999BC3"/>
<path fill-rule="evenodd" clip-rule="evenodd" d="M67.0234 198.088C66.2149 199.655 65.7923 200.044 64.0389 200.667C64.5656 201.321 64.0707 200.856 64.9098 201.463C64.9328 201.48 65.6824 201.909 65.8195 201.988C71.9988 205.518 72.5837 206.998 80.3744 206.872C82.8243 201.756 70.4588 198.943 67.6326 196.68L67.2846 197.569C67.255 197.634 67.1842 197.767 67.1578 197.823C67.1303 197.882 67.0742 198.003 67.0234 198.088Z" fill="#FEFEFF"/>
<path fill-rule="evenodd" clip-rule="evenodd" d="M92.1583 114.376L91.5693 116.827C92.8776 118.77 91.1024 117.998 94.4411 119.378C95.977 120.013 97.3215 120.501 98.973 120.886C102.711 121.757 106.396 121.316 110.253 121.139L109.687 117.564C106.27 116.597 100.567 116.373 96.1469 115.207C94.5508 114.786 93.513 114.624 92.7117 113.479C92.8383 115.864 92.8893 113.453 92.1583 114.376Z" fill="#013B7A"/>
<path fill-rule="evenodd" clip-rule="evenodd" d="M54.5192 199.248C56.0269 199.546 53.7364 201.269 59.5202 203.036C61.8686 203.753 64.6718 203.944 66.8635 204.84C68.1214 205.355 75.7902 210.555 79.9371 208.091C79.9999 208.054 80.0847 207.987 80.1415 207.949L80.6991 207.525L80.3745 206.872C72.5838 206.998 71.9989 205.518 65.8196 201.988C65.6825 201.909 64.9329 201.48 64.9099 201.463C64.0708 200.856 64.5657 201.321 64.039 200.667C65.7924 200.044 66.215 199.655 67.0235 198.088C67.0624 196.268 67.0266 196.197 65.0775 196.2C64.3707 198.333 63.9946 199.869 61.0366 199.688C58.5669 199.537 58.1549 197.306 57.8657 194.91C56.9157 195.678 56.7338 195.819 55.8739 196.737C54.3105 198.406 55.0968 198.078 54.5192 199.248Z" fill="#AEB2D1"/>
<path fill-rule="evenodd" clip-rule="evenodd" d="M87.2446 72.4231L86.7061 74.3447C87.329 74.9585 87.0558 75.3229 87.4615 76.0604C90.7271 75.9751 92.9109 78.562 93.9874 80.6938C94.6479 82.0019 95.1457 83.4096 95.5486 84.7779C96.916 89.422 95.5401 88.1093 97.5951 88.241L96.7453 88.4637C97.4714 89.1914 97.6986 89.1218 98.9125 89.3813C100.574 87.2047 97.663 79.7277 96.5137 77.4935C94.2402 73.0741 93.5892 72.1513 89.0213 70.7109L87.2446 72.4231Z" fill="#355E99"/>
<path fill-rule="evenodd" clip-rule="evenodd" d="M48.4461 165.178C50.3564 158.596 40.8419 156.405 39.7105 164.221C39.2213 167.601 40.0594 169.926 43.389 170.12C46.7227 170.314 47.6582 167.893 48.4461 165.178Z" fill="#FEFEFF"/>
<path fill-rule="evenodd" clip-rule="evenodd" d="M48.0729 71.3411C47.8309 73.0172 47.9084 72.363 44.3452 74.1064C42.7409 74.8914 41.5251 75.1279 39.9028 75.6452C38.767 75.934 36.9804 76.5037 36.2994 76.9805C35.9108 77.2527 34.0439 79.2471 33.9961 79.3337C36.6686 78.3522 37.4149 78.0508 39.306 79.989C40.5441 81.258 41.9209 82.5562 42.1251 84.6392C43.2938 85.7241 43.3298 88.5323 42.9474 90.1765C43.3421 90.8417 42.6735 91.1544 43.7471 90.1124C43.9652 89.9007 44.2749 89.2088 44.372 88.9109C44.8516 87.4386 44.6699 86.7058 44.4666 85.2289C43.9429 83.8441 43.543 82.753 42.8523 81.7087C42.0296 80.4646 41.1509 80.1133 40.2726 78.7477L43.0872 78.0494C46.4551 76.9306 48.3486 75.214 51.2957 74.2957C54.5388 73.2852 54.096 75.0334 56.4149 74.9619C58.7465 74.8901 58.4373 73.0342 60.1148 72.1947C59.4309 71.4837 60.0645 71.896 59.0372 71.4719C58.8196 71.3821 58.1365 71.3216 57.8676 71.282C57.0255 73.2234 55.6561 73.7551 53.0435 73.5934C52.0257 73.5304 51.4549 73.2683 50.3743 72.7974L48.0729 71.3411Z" fill="#555B91"/>
<path fill-rule="evenodd" clip-rule="evenodd" d="M23.6071 207.237C22.8295 208.72 22.214 210.325 22.5721 211.423C24.348 217.452 31.4345 222.03 31.0481 206.723C28.0436 206.34 27.2278 205.667 25.2591 204.505L23.6071 207.237Z" fill="#FEFEFF"/>
<path fill-rule="evenodd" clip-rule="evenodd" d="M133.823 112.307C134.577 112.661 135.733 112.902 136.586 113.21C138.296 113.827 138.45 113.75 138.626 115.142C136.857 115.834 136.145 114.967 134.128 114.55C134.139 116.248 135.522 116.398 134.063 118.039C132.395 118.069 132.161 114.849 129.589 116.612C129.886 117.722 130.614 117.5 131.519 118.341C132.543 119.291 132.014 119.058 131.558 120.247C134.845 121.715 134.208 122.499 137.484 120.566L144.428 107.821C144.5 107.704 144.944 107.033 144.959 107.003C145.368 106.194 145.356 107.047 145.106 106.354C144.055 106.585 134.929 111.501 133.823 112.307Z" fill="#36437D"/>
<path fill-rule="evenodd" clip-rule="evenodd" d="M9.1499 110.462C9.2161 110.529 9.3479 110.499 9.3869 110.616C9.4515 110.81 10.7305 111.125 10.9613 111.768C11.2854 112.67 10.6 112.179 10.3065 113.547L11.9851 114.043C12.9332 114.144 12.8275 113.888 14.0838 114.098C14.4586 115.412 13.5004 114.082 14.1621 115.252L15.846 115.605C16.0228 114.558 16.7417 114.436 17.9571 113.693C18.8782 113.129 19.9097 112.714 20.8561 112.118C21.4385 111.713 21.7498 111.394 22.2189 111.138C20.6103 109.674 22.4346 109.665 19.9084 106.085C19.5963 105.642 19.4644 105.342 19.1341 104.813C15.5653 106.458 12.7351 108.527 9.1499 110.462Z" fill="#ECF3FB"/>
<path fill-rule="evenodd" clip-rule="evenodd" d="M110.995 72.8563C111.81 73.5835 111.352 72.8581 111.778 74.0777C111.881 76.114 113.479 79.6992 114.04 82.2019C114.658 84.9583 115.507 88.5917 115.355 91.5049L115.582 95.682C116.917 96.4252 117.596 96.6469 119.085 96.7547L117.967 84.2181C117.241 83.4344 115.86 78.7883 115.794 77.3506C114.683 76.3003 114.567 75.5925 114.073 74.365C113.297 72.4346 112.968 73.6432 113.241 71.092C113.274 69.6903 113.432 68.8457 112.783 67.8408C112.896 69.4414 113.228 71.0214 112.666 72.583L110.995 72.8563Z" fill="#EEDE20"/>
<path fill-rule="evenodd" clip-rule="evenodd" d="M91.5698 86.8332C94.0785 89.1667 90.2383 86.4751 92.3835 87.3472L93.2492 87.5802C94.4262 88.0347 95.4515 88.4815 96.7453 88.4637L97.5951 88.241C95.5401 88.1093 96.916 89.422 95.5486 84.7779C95.1457 83.4096 94.6479 82.0019 93.9874 80.6938C92.9109 78.562 90.7271 75.9751 87.4615 76.0604C87.0558 75.3229 87.329 74.9585 86.7061 74.3447C84.2291 81.6975 88.645 83.7508 90.7934 85.6615C91.8873 86.6344 91.3279 85.7248 91.5698 86.8332Z" fill="#1D4C87"/>
<path fill-rule="evenodd" clip-rule="evenodd" d="M115.655 199.398C113.949 195.637 111.55 193.035 109.381 190.154C107.882 193.093 105.688 193.692 101.986 192.564C102.481 194.861 105.222 197.709 107 198.921C110.927 201.596 111.993 200.409 115.655 199.398Z" fill="#4E4F57"/>
<path fill-rule="evenodd" clip-rule="evenodd" d="M72.2296 164.825C70.183 171.786 63.5653 169.903 65.1369 162.628C66.6442 155.652 74.3871 157.488 72.2296 164.825ZM58.5283 163.079C58.9096 165.421 59.4958 167.038 60.9552 167.901C62.0262 168.283 63.7161 169.021 64.7075 169.582C66.2565 170.46 66.7344 171.099 69.1639 170.756C70.9896 169.97 72.16 168.101 72.9909 165.558C74.2433 161.726 74.3728 160.873 72.6291 157.818C71.3669 157.166 71.262 156.311 69.0632 156.208C64.302 155.985 63.6115 161.131 63.0263 165.095C58.024 164.533 59.7047 162.422 58.5283 163.079Z" fill="#555B91"/>
<path fill-rule="evenodd" clip-rule="evenodd" d="M48.446 165.178C47.6581 167.893 46.7226 170.314 43.3889 170.12C40.0593 169.926 39.2212 167.601 39.7104 164.221C40.8418 156.405 50.3563 158.596 48.446 165.178ZM38.4641 159.658C37.9313 161.668 37.5392 161.944 37.4239 164.287C37.0208 170.609 40.8016 172.471 46.5375 170.56C46.8177 169.606 47.6177 169.178 48.3109 168.025C48.8613 167.109 49.3365 165.548 49.6633 164.444C50.045 162.908 50.4069 160.856 49.4729 159.427C49.0337 158.756 47.4435 157.275 46.4158 156.869C42.4559 155.306 40.0593 157.7 38.4641 159.658Z" fill="#555B91"/>
<path fill-rule="evenodd" clip-rule="evenodd" d="M21.4312 112.448C21.6696 113.675 25.7365 118.806 27.5681 119.927C30.4719 121.704 35.4928 120.074 36.7577 117.22C32.916 116.425 33.6256 116.049 31.2387 114.502C30.182 113.818 29.5662 113.774 28.4437 113.061C27.6593 112.562 27.2139 112.15 26.2438 111.674C25.0353 112.22 23.33 113.384 21.4312 112.448Z" fill="#AEB2D1"/>
<path fill-rule="evenodd" clip-rule="evenodd" d="M113.435 61.7431C113.492 61.8006 113.591 61.8781 113.823 62.2902C115.462 65.1905 115.603 68.9596 114.992 72.0775L115.794 77.3507C115.86 78.7884 117.241 83.4345 117.967 84.2182L118.271 84.056C118.56 81.8753 119.734 74.5788 118.777 72.8737C118.308 72.0374 117.488 70.9468 116.856 70.004C118.212 69.8703 118.572 69.5954 119.303 68.9955C119.232 66.8256 116.753 60.6382 114.4 59.9729C113.293 60.8896 113.444 60.3407 113.435 61.7431Z" fill="#355E99"/>
<path fill-rule="evenodd" clip-rule="evenodd" d="M107.348 107.953C108.487 108.762 110.271 109.047 111.742 109.454L115.975 110.466C116.019 110.462 116.133 110.446 116.201 110.408C114.764 108.51 115.305 106.658 115.251 104.147L114.958 103.925C113.194 102.976 113.879 103.198 112.764 101.484C111.662 101.014 112.732 101.064 111.45 101.388L106.094 101.258C104.978 101.866 105.815 101.59 105.372 102.031C105.745 103.121 106.059 104.227 106.479 105.206C106.679 105.673 106.992 106.257 107.16 106.69L107.348 107.953Z" fill="#1D4C87"/>
<path fill-rule="evenodd" clip-rule="evenodd" d="M72.2296 164.825C74.3871 157.488 66.6442 155.652 65.1369 162.628C63.5653 169.903 70.183 171.786 72.2296 164.825Z" fill="#FEFEFF"/>
<path fill-rule="evenodd" clip-rule="evenodd" d="M109.674 73.3203L109.936 72.1872C109.738 70.6128 109.958 68.5818 111.514 67.8219C113.069 67.0626 112.783 67.8408 112.783 67.8408C113.432 68.8457 113.274 69.6903 113.241 71.092L114.992 72.0774C115.603 68.9595 115.462 65.1904 113.823 62.2901C113.591 61.878 113.492 61.8005 113.435 61.743L112.163 62.5138C110.971 67.6527 108.905 66.7878 105.329 64.7717C104.462 64.2828 102.133 62.9305 101.674 62.4144C101.109 61.778 100.08 59.2423 100.428 58.1421C94.2942 59.6335 102.758 63.8444 106.867 68.8721C107.826 70.0456 108.686 71.9358 109.674 73.3203Z" fill="#ECF3FB"/>
<path fill-rule="evenodd" clip-rule="evenodd" d="M55.4007 109.942C55.3982 110.227 53.9289 111.001 55.7012 111.393C56.2362 111.511 57.7204 110.864 58.5712 110.838C60.5819 110.777 62.9954 110.888 64.8837 109.916C65.2314 110.734 64.3616 108.808 64.9477 110.258C65.1741 110.818 64.8264 110.272 65.2243 110.793C66.8456 109.125 66.8441 110.103 66.8632 110.116C68.9344 109.363 68.6178 107.947 68.4108 105.434C64.2907 102.491 59.0314 105.814 56.7012 108.668L55.4007 109.942Z" fill="#555B91"/>
<path fill-rule="evenodd" clip-rule="evenodd" d="M129.668 184.226L129.668 183.537C129.332 182.988 129.1 181.996 128.212 181.231C127.758 180.841 126.375 180.04 125.641 179.573C124.002 178.53 122.102 177.474 120.728 176.395L119.812 177.797C118.402 179.682 117.629 179.546 116.539 180.583C119.036 181.925 124.564 185.394 126.14 185.195C126.933 185.095 127.308 184.828 127.965 184.499C129.136 183.912 128.399 183.628 129.668 184.226Z" fill="#4E4F57"/>
<path fill-rule="evenodd" clip-rule="evenodd" d="M57.8676 71.2821C58.1365 71.3217 58.8196 71.3822 59.0372 71.472C60.0645 71.8961 59.4309 71.4838 60.1148 72.1948C60.8718 71.6051 60.6627 71.7411 61.9597 71.6077V71.315C57.8245 70.6966 55.3693 67.6182 53.9064 63.9766C51.7413 58.5868 52.7819 56.2446 52.72 50.8831C52.164 51.4084 52.0689 51.4938 51.4932 51.9795C47.6562 55.2167 50.5532 57.2563 50.7696 59.0227C50.9386 60.4031 48.889 64.308 53.0533 67.9872C54.7056 69.447 53.7258 69.1496 55.2639 70.0537C56.0319 70.5051 57.0091 70.9489 57.8676 71.2821Z" fill="#AEB2D1"/>
<path fill-rule="evenodd" clip-rule="evenodd" d="M117.179 104.567C118.318 105.292 118.402 104.998 118.866 106.348C119.83 107.628 118.982 107.358 120.691 108C122.178 108.558 122.159 108.45 123.694 108.344C123.861 108.26 125.826 107.751 125.914 107.674L125.39 106.503C124.958 106.765 123.431 107.523 123.027 107.749C123.356 105.552 123.783 106.842 125.121 105.144C124.624 104.251 123.527 103.779 123.689 102.346C125.951 102.809 123.799 103.548 126.586 102.932C125.706 103.096 125.943 103.411 125.669 103.641C127.144 104.143 128.316 105.004 129.548 105.018L130.804 106.12C131.933 106.835 133.496 108.354 135.087 107.382C135.653 105.463 134.521 106.476 133.658 104.917C132.791 104.685 133.478 105.32 132.543 104.21C131.104 103.13 129.629 101.229 127.581 101.131C128.935 102.443 132.46 104.457 134.11 106.642C131.668 105.82 123.924 100.953 122.633 101.201C121.847 103.114 122.875 105.133 122.222 107.153C119.972 106.591 121.069 104.046 119.982 102.334C119.322 101.293 119.009 101.738 117.862 100.912C116.693 100.071 117.019 99.7442 115.608 99.2395C115.648 101.541 116.826 102.376 117.179 104.567Z" fill="#AEB2D1"/>
<path fill-rule="evenodd" clip-rule="evenodd" d="M114.958 103.925L115.252 104.147L117.179 104.567C116.826 102.376 115.648 101.541 115.608 99.2395C117.019 99.7442 116.693 100.071 117.862 100.912C119.009 101.738 119.322 101.293 119.982 102.334C121.069 104.046 119.972 106.591 122.222 107.153C122.875 105.133 121.847 103.114 122.633 101.201C123.924 100.953 131.668 105.82 134.11 106.642C132.46 104.457 128.935 102.443 127.581 101.131C126.613 101.004 127.766 101.269 126.912 100.89C121.227 98.3628 124.286 99.4494 121.172 100.121C118.698 100.655 117.84 97.5435 114.868 96.7478C112.975 100.279 114.757 100.598 114.958 103.925Z" fill="#FEFEFF"/>
<path fill-rule="evenodd" clip-rule="evenodd" d="M60.4388 116.474C60.0526 119.28 60.9631 123.313 60.561 127.078C61.0143 127.649 59.6298 127.579 61.7071 127.514L65.6229 126.651L65.0281 115.541L64.1702 116.663L61.0033 117.067C59.737 115.315 60.6525 115.379 60.6807 115.34L60.4388 116.474Z" fill="#162F5E"/>
<path fill-rule="evenodd" clip-rule="evenodd" d="M89.0214 70.711C93.5893 72.1514 94.2403 73.0742 96.5138 77.4936C97.6631 79.7278 100.574 87.2048 98.9126 89.3814C99.9287 89.9001 100.826 90.2175 102.007 90.2324C103.028 89.9374 102.876 90.6245 102.033 87.4569C101.708 86.2364 101.438 85.4332 101.018 84.219C99.5851 80.0759 95.9797 73.4145 93.4595 70.2577L91.7172 67.8098C91.0958 67.9865 90.9173 68.3661 90.3325 68.9046C89.2067 69.9413 89.2713 69.395 89.0214 70.711Z" fill="#013B7A"/>
<path fill-rule="evenodd" clip-rule="evenodd" d="M60.4388 116.474L60.6807 115.339C60.6525 115.379 59.737 115.315 61.0033 117.067L64.1702 116.663L65.0281 115.541C65.0382 111.548 64.0714 112.096 66.8633 110.116C66.8442 110.103 66.8457 109.125 65.2244 110.792C64.8265 110.272 65.1742 110.818 64.9478 110.258C64.3617 108.808 65.2315 110.734 64.8838 109.916C62.9955 110.888 60.582 110.776 58.5713 110.838C57.7205 110.864 56.2363 111.511 55.7013 111.393C53.929 111.001 55.3983 110.227 55.4008 109.942C54.6927 110.191 55.4108 109.659 54.3331 110.498C54.0518 114.589 55.8861 113.697 59.5255 113.759C59.644 114.207 59.6499 114.56 59.8164 115.125C59.9638 115.626 59.9671 115.581 60.1348 115.968L60.4388 116.474Z" fill="#36437D"/>
<path fill-rule="evenodd" clip-rule="evenodd" d="M59.0276 141.683C60.9922 141.657 60.0746 141.688 61.7975 140.573C61.8879 140.514 62.6551 140.089 62.8701 139.959C63.6227 139.184 66.1224 137.776 66.7754 136.702C64.7854 135.492 65.0204 137.361 60.8368 134.999C56.8208 132.731 55.6053 128.938 53.2246 127.771L48.3746 126.369C48.3285 126.279 48.1853 126.425 48.0996 126.473C51.4157 128.326 54.1975 129.439 55.7863 131.933C57.282 134.281 60.4737 137.527 59.0276 141.683Z" fill="#C7C9E4"/>
<path fill-rule="evenodd" clip-rule="evenodd" d="M100.249 56.9554L100.428 58.1422C100.08 59.2424 101.109 61.7781 101.674 62.4145C102.133 62.9306 104.462 64.2829 105.329 64.7718C108.905 66.7879 110.971 67.6528 112.163 62.5139C109.858 63.1854 106.924 61.6792 104.872 60.6339C103.927 60.1524 102.697 59.0626 102.182 58.3785C101.2 57.0739 101.91 56.2292 100.413 55.3855L100.249 56.9554Z" fill="#C9754B"/>
<path fill-rule="evenodd" clip-rule="evenodd" d="M49.9331 112.122C49.9904 113.179 50.1433 114.101 50.288 115.147C50.452 116.334 50.4544 116.801 50.8999 117.624L51.0671 116.945C50.968 117.231 50.9589 117.619 51.0294 117.919L51.3366 118.808C51.3649 118.881 51.4222 118.997 51.4783 119.084C53.9631 119.08 53.3621 118.475 55.7055 118.402C60.0477 118.267 59.1501 118.128 59.2411 117.205C59.2882 119.499 59.2295 118.442 59.7548 119.679C59.8008 119.787 59.8658 119.912 59.9354 120.021L59.641 114.772C58.2277 114.998 56.517 115.872 54.9764 114.757C53.8157 113.917 53.7526 112.366 52.9056 111.434L49.9331 112.122Z" fill="#36437D"/>
<path fill-rule="evenodd" clip-rule="evenodd" d="M121.322 119.67L125.176 121.788L134.829 126.629C134.807 125.329 134.625 126.278 135.409 124.924L137.006 122.283C137.862 120.606 137.455 122.174 137.484 120.566C134.208 122.499 134.845 121.715 131.558 120.247C129.639 120.301 129.873 119.546 128.177 119.047C129.015 120.971 129.46 119.566 130.001 122.307C127.032 122.181 122.676 119.288 120.668 118.067L118.847 117.844L118.879 118.43L121.322 119.67Z" fill="#999BC3"/>
<path fill-rule="evenodd" clip-rule="evenodd" d="M45.3355 126.546L44.6042 127.981C46.9882 127.769 47.1497 128.556 48.7934 129.197C54.1409 132.443 56.8799 135.219 58.2035 141.176C58.5963 142.944 57.5304 140.672 58.5767 142.335C58.752 142.122 58.981 141.791 59.0277 141.683C60.4738 137.527 57.2821 134.281 55.7864 131.933C54.1976 129.44 51.4158 128.327 48.0997 126.473C47.0682 126.401 46.111 126.532 45.3355 126.546Z" fill="#555B91"/>
<path fill-rule="evenodd" clip-rule="evenodd" d="M66.6525 113.66L66.2914 125.667C66.6399 126.104 65.6399 126.328 66.8784 125.925C69.1619 125.537 70.9943 124.368 71.1604 121.781C71.3004 119.6 71.7699 115.296 71.1582 113.503C70.8253 112.092 70.698 112.91 71.2234 112.509C71.012 114.278 70.7955 115.523 70.5897 116.983L66.943 116.999L66.6525 113.66Z" fill="#162F5E"/>
<path fill-rule="evenodd" clip-rule="evenodd" d="M107.348 107.953L107.16 106.69C106.991 106.257 106.679 105.673 106.479 105.206C106.059 104.227 105.745 103.121 105.372 102.031C105.815 101.59 104.978 101.866 106.094 101.258L99.6079 100.802C99.0858 100.973 98.9268 100.347 99.2573 103.785C99.4265 105.544 99.4796 105.176 101.263 105.851C103.118 106.553 105.361 107.55 107.348 107.953Z" fill="#013B7A"/>
<path fill-rule="evenodd" clip-rule="evenodd" d="M110.647 75.9884C112.166 82.1874 113.39 87.5482 113.999 93.9818L114.565 95.7042C115.8 95.6765 115.377 95.4283 115.412 93.9578C115.43 93.1572 115.308 92.4203 115.356 91.5051C115.508 88.5919 114.658 84.9585 114.04 82.2021C113.479 79.6994 111.881 76.1142 111.778 74.0779C111.016 74.6969 111.624 73.6566 110.845 75.0335C110.436 75.7572 110.73 75.36 110.647 75.9884Z" fill="#DEDFF3"/>
<path fill-rule="evenodd" clip-rule="evenodd" d="M114.565 95.704C113.859 95.9853 112.511 97.0737 112.233 97.9498C111.797 99.3234 112.4 100.189 112.764 101.483C113.879 103.198 113.194 102.976 114.958 103.925C114.757 100.598 112.975 100.279 114.868 96.7477C117.84 97.5434 118.698 100.655 121.172 100.121C124.286 99.4493 121.227 98.3627 126.912 100.89C127.766 101.269 126.613 101.004 127.581 101.131C126.512 99.4257 124.399 98.8304 122.385 97.7333C121.193 97.5574 119.835 97.1395 119.085 96.7547C117.596 96.6469 116.917 96.4252 115.582 95.682L115.356 91.5049C115.308 92.4201 115.43 93.157 115.412 93.9576C115.377 95.4281 115.8 95.6763 114.565 95.704Z" fill="#AEB2D1"/>
<path fill-rule="evenodd" clip-rule="evenodd" d="M98.9497 52.6677L99.7733 51.2854C102.64 52.37 101.098 54.5873 104.199 55.1162L105.365 51.1523C104.249 50.1404 101.574 49.7046 100.026 48.8943C96.799 47.2047 98.1565 48.0112 97.1042 46.2032L96.3388 45.2255C96.2978 45.0627 96.1791 45.062 96.0944 44.9854C96.339 46.6027 96.3664 48.0843 96.9158 49.5524C97.3871 50.8116 98.194 52.2864 98.9497 52.6677Z" fill="#452819"/>
<path fill-rule="evenodd" clip-rule="evenodd" d="M27.5516 199.134C26.7006 201.227 26.9551 203.725 28.5857 204.626C29.5588 205.165 30.3415 205.23 31.4989 204.814C32.7642 204.36 32.5579 204.093 33.3938 202.821L34.1454 199.675C32.7448 200.273 32.51 200.524 30.8115 200.025C29.4119 199.62 28.3946 199.445 29.1784 197.438C28.3319 197.935 28.1032 198.02 27.5516 199.134Z" fill="#555B91"/>
<path fill-rule="evenodd" clip-rule="evenodd" d="M19.134 104.813C19.4643 105.342 19.5962 105.642 19.9083 106.085C22.4345 109.665 20.6102 109.674 22.2188 111.138C24.229 109.942 25.6803 108.767 25.1204 105.603C23.7524 103.558 24.8158 104.076 21.9208 103.15C21.0797 103.435 19.6595 104.202 19.134 104.813Z" fill="#AEB2D1"/>
<path fill-rule="evenodd" clip-rule="evenodd" d="M68.1116 82.3242C67.7852 84.1411 67.0533 85.782 68.5558 87.0735C69.9927 88.3087 72.041 87.8592 73.0312 86.5061C74.209 84.8966 73.9098 80.1904 68.1116 82.3242Z" fill="#DEDFF3"/>
<path fill-rule="evenodd" clip-rule="evenodd" d="M96.0943 44.9853C96.179 45.0619 96.2977 45.0626 96.3387 45.2254L97.1041 46.2031C98.1564 48.0111 96.7989 47.2046 100.026 48.8942C101.574 49.7045 104.249 50.1403 105.365 51.1522L106.859 49.0609C107.923 48.9482 109.806 49.1397 110.519 48.5973C106.949 47.6207 108.58 50.1477 102.281 47.3507C99.7551 46.229 99.4528 45.7402 98.0196 44.177C97.2194 43.3042 97.3611 43.6352 96.5573 43.0313L96.8019 41.5222C96.1252 42.2766 96.0646 43.7814 96.0943 44.9853Z" fill="#723B1C"/>
<path fill-rule="evenodd" clip-rule="evenodd" d="M66.8633 110.116C64.0714 112.096 65.0382 111.548 65.0281 115.541L65.6229 126.651C66.9734 126.223 66.3155 126.531 66.8785 125.925C65.64 126.328 66.64 126.104 66.2915 125.667L66.6526 113.66C67.1949 112.281 67.0871 112.323 68.161 111.696C70.1456 108.936 68.9367 108.831 69.6411 105.977L68.4109 105.434C68.6179 107.947 68.9345 109.363 66.8633 110.116Z" fill="#888AB5"/>
<path fill-rule="evenodd" clip-rule="evenodd" d="M72.5127 124.528C72.892 127.985 68.4159 135.287 66.7754 136.702C66.1224 137.776 63.6227 139.184 62.8701 139.959C65.3595 139.812 66.0357 139.104 67.4571 138.105C69.4585 136.7 69.1373 136.493 70.5215 134.502C72.5041 131.651 73.8254 128.112 73.64 124.381L73.2827 122.485L72.5127 124.528Z" fill="#555B91"/>
<path fill-rule="evenodd" clip-rule="evenodd" d="M57.9651 193.481L57.8657 194.91C58.1549 197.306 58.5669 199.537 61.0366 199.688C63.9946 199.869 64.3707 198.333 65.0775 196.2C65.1248 194.981 65.4895 193.259 64.5151 192.778C64.4584 193.674 64.5455 193.846 63.9833 194.609C63.2556 195.597 63.5467 195.194 62.7418 195.491C61.8774 196.097 60.6543 196.116 59.6455 195.526C58.5146 194.865 58.6373 194.267 58.3151 192.734L57.9651 193.481Z" fill="#555B91"/>
<path fill-rule="evenodd" clip-rule="evenodd" d="M63.1216 69.5495C62.9893 70.0221 62.9336 70.0809 62.632 70.505C62.0393 71.3385 62.3701 70.6584 61.9597 71.3149V71.6076C64.6907 71.663 67.3985 70.614 69.8226 70.3595C73.5098 73.8688 74.5367 79.177 75.7719 82.4361C76.5782 80.8061 75.2254 77.3344 74.4463 75.5182C73.2998 72.8458 71.6867 71.3909 70.5979 69.7896C69.0542 69.454 69.1515 68.6742 67.3978 68.7795C66.4792 68.8346 64.5079 69.3989 63.1216 69.5495Z" fill="#555B91"/>
<path fill-rule="evenodd" clip-rule="evenodd" d="M86.7626 90.7274C86.0991 91.9483 85.203 93.766 85.6851 94.8733C88.1395 95.6996 86.8744 95.734 87.4196 98.2619L87.4545 95.7262C88.1885 96.1216 88.0569 96.0287 89.0545 96.2927C88.6144 94.5319 88.4074 93.1292 89.2297 91.7313C89.8198 89.7385 91.2522 87.7549 93.2493 87.5803L92.3836 87.3473C90.2384 86.4752 94.0786 89.1668 91.5699 86.8333C89.55 87.5407 87.611 89.1572 86.7626 90.7274Z" fill="#555B91"/>
<path fill-rule="evenodd" clip-rule="evenodd" d="M80.6991 207.525L80.1415 207.949C80.0847 207.987 79.9999 208.054 79.9371 208.091C75.7902 210.555 68.1214 205.355 66.8635 204.84C64.6718 203.944 61.8686 203.753 59.5202 203.036C53.7364 201.269 56.0269 199.546 54.5192 199.248C54.6114 201.766 56.8883 203.062 59.0262 203.831C61.3469 204.665 64.6213 204.702 66.8531 205.875C70.2002 207.634 73.0326 209.774 77.9344 209.514C79.8463 209.412 79.9078 208.918 80.6991 207.525Z" fill="#555B91"/>
<path fill-rule="evenodd" clip-rule="evenodd" d="M130.804 106.12C130.118 107.109 128.912 107.654 127.865 108.139C128.956 109.316 131.719 110.636 132.974 110.148C134.966 109.372 136.301 107.916 138.455 107.499C138.388 107.414 138.291 107.317 138.232 107.261L136.166 105.907C135.007 105.287 134.912 104.993 133.658 104.917C134.521 106.476 135.653 105.463 135.087 107.382C133.496 108.354 131.933 106.835 130.804 106.12Z" fill="#36437D"/>
<path fill-rule="evenodd" clip-rule="evenodd" d="M68.161 111.696C67.0871 112.323 67.1949 112.281 66.6526 113.66L66.9431 116.999L70.5898 116.983C70.7956 115.523 71.0121 114.278 71.2235 112.509C70.6981 112.91 70.8254 112.092 71.1583 113.503C71.4883 112.882 71.2807 114.171 71.4894 112.597C71.6417 111.449 71.5953 112.136 71.451 111.118L71.2492 107.973C71.1257 112.519 70.852 110.637 68.3785 112.16L68.161 111.696Z" fill="#36437D"/>
<path fill-rule="evenodd" clip-rule="evenodd" d="M62.5616 61.0955L66.1948 61.1638L65.9532 58.6167C63.3205 58.7888 58.3357 58.0135 56.6108 58.574C54.4329 59.2816 56.7958 58.298 55.8653 58.9922C56.9065 60.7326 60.1868 60.9641 62.5616 61.0955Z" fill="#EEDE20"/>
<path fill-rule="evenodd" clip-rule="evenodd" d="M68.1114 82.3241C73.9096 80.1903 74.2088 84.8965 73.031 86.506C72.0408 87.8591 69.9925 88.3086 68.5556 87.0734C67.0531 85.7819 67.785 84.141 68.1114 82.3241ZM69.2506 81.2105C64.1672 83.5289 67.3543 90.6287 71.9253 88.6391C76.2751 86.7458 74.4058 78.8594 69.2506 81.2105Z" fill="#AEB2D1"/>
<path fill-rule="evenodd" clip-rule="evenodd" d="M46.2667 59.3449C46.7735 63.1062 50.4872 63.1219 49.9859 59.0604C49.5148 55.2428 45.6865 55.0395 46.2667 59.3449Z" fill="#FEFEFF"/>
<path fill-rule="evenodd" clip-rule="evenodd" d="M22.2188 111.138C21.7497 111.394 21.4384 111.713 20.856 112.118L21.4312 112.448C23.33 113.384 25.0354 112.221 26.2438 111.674C26.8644 108.891 27.6926 108.904 25.9444 106.005C25.2153 105.758 25.947 106.245 25.1204 105.603C25.6803 108.767 24.229 109.943 22.2188 111.138Z" fill="#555B91"/>
<path fill-rule="evenodd" clip-rule="evenodd" d="M110.011 97.0367C109.682 99.9173 110.577 99.8239 111.45 101.388C112.732 101.064 111.662 101.014 112.764 101.484C112.4 100.189 111.797 99.3235 112.233 97.9499C112.511 97.0738 113.858 95.9854 114.565 95.7041L113.999 93.9817C113.601 94.8361 113.808 94.4708 113.364 94.9041L112.352 93.697C111.182 95.1415 110.475 95.0611 110.011 97.0367Z" fill="#555B91"/>
<path fill-rule="evenodd" clip-rule="evenodd" d="M116.201 110.408L116.942 110.488L118.866 106.348C118.402 104.998 118.318 105.293 117.179 104.567L115.251 104.147C115.305 106.658 114.764 108.51 116.201 110.408Z" fill="#EEDE20"/>
<path fill-rule="evenodd" clip-rule="evenodd" d="M116.942 110.487C117.595 111.24 116.925 110.772 117.938 111.155C118.982 111.55 118.11 111.174 119.04 111.319C119.596 110.767 120.558 110.253 121.4 109.854C122.104 109.519 122.438 109.506 122.899 109.238C124.153 108.507 123.505 108.793 123.694 108.344C122.159 108.45 122.177 108.558 120.691 108C118.982 107.358 119.83 107.628 118.866 106.348L116.942 110.487Z" fill="#1D4C87"/>
<path fill-rule="evenodd" clip-rule="evenodd" d="M21.905 214.15C22.1113 215.615 23.1093 217.74 23.6708 218.389C24.0765 218.858 26.3693 220.217 27.4774 220.573C31.1613 221.755 32.5382 217.895 32.6552 214.578L32.6382 213.637C32.5055 215.771 31.5484 219.083 29.2532 219.504C27.8532 219.761 24.4155 218.255 22.608 215.16C21.9737 214.075 22.6098 214.815 21.905 214.15Z" fill="#555B91"/>
<path fill-rule="evenodd" clip-rule="evenodd" d="M39.9028 75.6451C41.5251 75.1278 42.7409 74.8913 44.3452 74.1063C47.9084 72.3629 47.8309 73.0171 48.0729 71.341C47.3751 71.0172 47.3882 70.7029 46.2606 70.2751C44.966 71.4042 44.3976 71.1856 43.0838 72.8306L39.9028 75.6451Z" fill="#AEB2D1"/>
<path fill-rule="evenodd" clip-rule="evenodd" d="M50.8998 117.624C50.4543 116.801 50.4519 116.334 50.2879 115.147C50.1432 114.101 49.9903 113.179 49.933 112.122C48.1707 112.886 48.3561 112.489 46.6096 112.111C47.9271 113.425 47.5413 111.324 49.0455 116.737C49.487 118.326 49.8131 121.213 50.4198 122.439C51.2788 121.252 50.3715 119.931 50.8998 117.624Z" fill="#888AB5"/>
<path fill-rule="evenodd" clip-rule="evenodd" d="M109.936 72.1872L110.995 72.8563L112.666 72.583C113.228 71.0214 112.896 69.4414 112.783 67.8408C112.783 67.8408 113.069 67.0626 111.514 67.8219C109.958 68.5818 109.738 70.6128 109.936 72.1872Z" fill="#FFBB00"/>
<path fill-rule="evenodd" clip-rule="evenodd" d="M68.1609 111.695L68.3784 112.16C70.8519 110.637 71.1256 112.519 71.2491 107.973L71.4509 111.118C72.0018 110.282 71.9119 108.541 71.8741 107.249L71.5849 106.292L69.641 105.977C68.9366 108.831 70.1455 108.936 68.1609 111.695Z" fill="#555B91"/>
<path fill-rule="evenodd" clip-rule="evenodd" d="M100.512 22.3033C102.582 23.2089 103.833 20.5402 103.345 18.4133C102.734 18.367 102.103 17.8729 100.923 19.5321C100.288 20.4253 100.01 21.255 100.512 22.3033Z" fill="#FEFEFF"/>
<path fill-rule="evenodd" clip-rule="evenodd" d="M118.568 114.149C118.053 115.478 118.438 116.859 118.847 117.844L120.668 118.067C119.558 115.504 119.595 113.293 121.97 112.194L120.55 111.988C118.957 113.18 119.535 112.254 118.568 114.149Z" fill="#ECF3FB"/>
<path fill-rule="evenodd" clip-rule="evenodd" d="M112.156 15.5966C114.119 16.5557 115.31 13.806 114.978 11.7106C113.591 11.5967 113.206 11.8747 112.537 12.794C111.87 13.7107 111.561 14.3903 112.156 15.5966Z" fill="#FEFEFF"/>
<path fill-rule="evenodd" clip-rule="evenodd" d="M106.344 18.9311C106.435 18.965 106.577 18.9203 106.623 19.0194L107.683 18.9469C108.562 18.5667 110.119 16.3102 108.983 15.2361C107.882 14.1945 105.487 16.7042 106.344 18.9311Z" fill="#FEFEFF"/>
<path fill-rule="evenodd" clip-rule="evenodd" d="M37.3525 115.099L37.4356 116.222C38.112 113.808 37.9495 113.509 37.5901 111.126C37.0025 110.248 35.3842 108.291 34.4856 107.758C33.0508 107.24 32.5331 106.946 30.8477 107.121C32.3733 107.963 34.7798 108.214 35.5878 109.447C36.5183 110.867 36.8931 113.245 37.3525 115.099Z" fill="#555B91"/>
<path fill-rule="evenodd" clip-rule="evenodd" d="M125.914 107.674C125.984 107.571 126.071 107.464 126.118 107.363C126.167 107.259 126.237 107.122 126.284 107.015C126.408 106.731 126.42 106.517 126.463 106.184L125.668 103.641C125.943 103.411 125.706 103.096 126.586 102.932C123.798 103.547 125.951 102.808 123.689 102.346C123.527 103.779 124.624 104.251 125.121 105.144C123.783 106.841 123.356 105.552 123.027 107.749C123.431 107.523 124.958 106.765 125.39 106.503L125.914 107.674Z" fill="#C7C9E4"/>
<path fill-rule="evenodd" clip-rule="evenodd" d="M115.794 77.3506L114.992 72.0774L113.241 71.092C112.968 73.6432 113.297 72.4346 114.073 74.365C114.567 75.5925 114.683 76.3003 115.794 77.3506Z" fill="#A0B3C1"/>
<path fill-rule="evenodd" clip-rule="evenodd" d="M126.463 106.184L126.532 107.069C127.126 106.742 127.46 106.561 128.09 106.284C129.486 105.669 129.089 106.233 129.548 105.018C128.316 105.004 127.144 104.143 125.668 103.641L126.463 106.184Z" fill="#013B7A"/>
<path fill-rule="evenodd" clip-rule="evenodd" d="M99.7358 27.737C100.823 29.0453 101.463 30.0805 103.711 30.6903L103.465 30.6075C103.102 29.6431 101.082 27.7157 100.194 27.0632C99.1827 27.2254 100.21 26.9709 99.7358 27.737Z" fill="#FFBB00"/>
<path fill-rule="evenodd" clip-rule="evenodd" d="M109.674 73.3204L110.647 75.9883C110.73 75.3599 110.436 75.757 110.845 75.0333C111.623 73.6564 111.016 74.6968 111.778 74.0778C111.352 72.8582 111.81 73.5835 110.995 72.8563L109.936 72.1873L109.674 73.3204Z" fill="#999BC3"/>
</svg>
