<svg width="49" height="39" viewBox="0 0 49 39" fill="none" xmlns="http://www.w3.org/2000/svg">
<path fill-rule="evenodd" clip-rule="evenodd" d="M19.5703 33.688C20.4651 33.9316 20.7852 34.214 20.8726 35.2817C19.4543 35.6682 20.1495 36.389 18.5286 35.2817C18.7235 34.5381 19.0452 34.0807 19.5703 33.688ZM17.2263 33.423C16.6424 33.423 16.6548 33.2124 16.1846 32.8914C16.4692 31.6454 16.6571 31.8994 17.2263 31.0327L18.5882 32.3C18.2316 32.8133 17.9617 33.423 17.2263 33.423ZM14.3618 31.0327C13.6202 29.9034 13.7099 29.4436 14.8823 28.6424L16.2441 29.9097C15.7716 30.5453 15.2821 30.9546 14.3618 31.0327ZM11.4966 28.3766C11.4966 26.8286 11.5948 26.8964 12.5383 26.2521L13.9001 27.5194C12.6728 28.3774 13.1113 28.7599 11.4966 28.3766ZM18.0081 18.019C18.0081 19.7808 19.2532 21.4716 20.8726 21.4716C22.847 21.4716 24.6388 19.1404 26.2744 17.4197C26.9619 16.6965 27.0695 16.2525 28.1653 16.1602C28.4885 20.1246 30.7382 20.4093 33.3738 20.4093C36.4292 20.4093 37.0201 18.0033 37.0201 15.6288C33.25 15.6288 38.0417 18.8155 32.0715 18.8155C29.5797 18.8155 29.7274 16.2249 29.7274 14.5664C26.136 14.5664 27.006 14.2589 25.2312 16.0893C24.8244 16.5088 24.7533 16.6042 24.3697 17.0703C23.8755 17.672 22.1177 19.5237 21.4905 19.713C20.5757 19.9906 19.5703 19.3652 19.5703 18.2848C19.5703 17.4244 21.3768 16.0057 22.2012 15.1248C22.2383 15.0854 22.2917 15.0286 22.3296 14.9899C22.3675 14.9513 22.4232 14.8969 22.4619 14.859L24.0263 13.2676C27.2558 9.67392 26.433 11.718 30.4041 10.7417C31.2099 10.5437 31.6113 10.2843 31.8116 9.52017C33.0652 9.62664 33.4905 10.5666 34.2206 11.3126L40.4058 17.7532C39.5807 19.0103 39.1445 18.534 38.8382 20.4038C38.4539 22.746 38.2551 21.847 37.2807 23.3311L34.9908 21.1498L33.837 22.2097C34.7418 23.5449 37.2807 25.1402 37.2807 26.5179C37.2807 26.5739 36.7533 29.1715 34.3281 26.8719L30.7691 23.3311L29.6694 24.3342C30.4575 25.5037 31.6701 26.5218 32.6592 27.5123C35.1695 30.0272 33.8161 31.0327 32.5927 31.0327C32.0916 31.0327 31.5409 30.453 31.1806 30.0824L29.4869 28.3569C29.4498 28.3175 29.3972 28.2599 29.3601 28.2205L28.8744 27.6535C28.1831 26.872 28.2511 26.9856 27.3834 26.5179L26.5583 27.5391C27.5613 29.0296 31.0298 31.4356 31.0298 32.8914C31.0298 33.5105 30.3353 34.2194 29.7274 34.2194C27.9209 34.2194 25.679 30.6746 24.2583 29.7046L23.4324 30.7259C24.8515 32.837 27.4669 34.3172 27.7678 35.6981C27.866 36.1492 27.5969 39.377 23.9328 35.6145C23.0906 34.7494 22.434 34.0846 21.5887 33.2234L12.4733 23.928C11.0055 22.4313 10.7155 22.563 10.4162 21.246C9.94061 19.1562 10.2492 19.4227 9.15256 17.7532L17.425 9.45702C18.8805 11.6423 19.6848 11.6446 22.956 11.6446C22.4278 13.6619 18.0081 15.8022 18.0081 18.019ZM29.7274 6.59915L31.0808 8.14241C29.2348 10.8994 26.1523 7.96502 24.2583 10.8482C22.7511 9.81905 23.3628 10.1652 21.1201 10.0643C19.4736 9.99093 19.6863 9.24884 18.5286 8.45786L19.3545 7.43667C16.9417 5.76718 13.9527 1.16399 12.2784 1.02204C11.4417 2.06379 11.7348 2.25234 12.7262 3.22075L16.9665 7.66139L6.61288 18.3502L4.87518 16.8037C4.83883 16.7635 4.78703 16.7052 4.74991 16.6657L2.9248 14.8093C1.98364 13.8015 1.631 13.2282 0.558373 12.9727L0 13.7376C0.359606 15.001 2.20017 16.3732 3.09803 17.2888C4.13586 18.3479 5.5217 19.5087 6.28808 20.675C6.85495 20.2878 6.76446 20.2752 7.27487 19.7824C7.30194 19.7563 7.64377 19.444 7.6546 19.4377C9.01646 18.5947 8.50836 21.2366 9.15411 22.533C9.5315 23.2909 10.6644 24.0535 11.2359 24.9241C10.7611 26.7395 9.93442 25.3105 9.93442 27.8459C9.93442 30.2181 11.5917 29.1913 12.512 31.0595C13.0734 32.1991 12.8298 31.8962 13.9535 32.5114C15.2473 33.2195 14.6603 33.4301 15.354 34.2699C16.0779 35.1477 16.4499 34.6406 17.0291 35.4836C17.5612 36.2596 17.084 36.4655 18.2688 37.1539C20.2006 38.2753 20.9167 36.9378 22.1749 36.0782C23.6474 37.0837 24.1617 39 26.6024 39C28.4135 39 29.3237 37.5719 29.4668 35.8133C30.5085 35.7896 31.1504 35.5278 31.7087 34.9118C32.2942 34.266 32.5687 33.7124 32.5927 32.6256C34.6482 32.5791 35.5569 31.4112 35.7178 29.4389C40.4375 29.0383 38.4168 24.8074 38.3224 24.3934C40.7059 22.7657 40.1011 21.4093 40.5496 20.291C40.743 19.81 41.1304 19.5639 41.4475 19.0812C42.4134 19.3438 41.7839 19.3494 42.7498 19.6128L49 12.9727L48.1748 11.9515L42.5503 17.5498L32.0088 6.663L37.341 1.08357L36.4548 0C36.1516 0.196364 35.9707 0.301317 35.6049 0.641209C35.3705 0.859654 35.12 1.15142 34.83 1.44399L29.7274 6.59915Z" fill="#FFBB00"/>
</svg>
