<svg width="45" height="30" viewBox="0 0 45 30" fill="none" xmlns="http://www.w3.org/2000/svg">
<path fill-rule="evenodd" clip-rule="evenodd" d="M42.0667 3.03875C41.5629 3.81227 40.715 4.1789 39.9238 4.8576C36.261 7.9965 26.7628 14.443 23.4876 17.3714C21.45 15.9677 18.6408 11.3362 16.6431 11.3362L7.87954 17.661C7.1326 18.2315 6.47564 18.6108 5.7091 19.2006C4.92224 19.8062 4.42212 20.1989 3.58807 20.7903C2.7954 21.3532 2.2096 21.799 1.44741 22.3605C-1.39299 24.4503 0.423883 25.1515 2.81568 23.2647L16.8878 12.8452C19.1983 14.4363 20.7437 17.5192 23.2429 18.8803C24.2751 18.5966 27.2564 16.0931 28.3416 15.3233L38.2609 7.9241C39.2111 7.21553 39.913 6.71226 40.8109 6.02161C41.6812 5.35187 42.4165 4.64558 43.2891 4.04453C43.2891 5.38327 43.2651 5.69756 44.5114 5.80433C44.812 4.4753 45 3.90787 45 2.28466C45 1.44693 44.571 1.56716 43.7965 1.50893C43.2339 1.46711 42.1254 1.3379 41.9832 1.33342C40.7194 1.29385 40.0828 2.56313 42.0667 3.03875Z" fill="#FFBB00"/>
<path fill-rule="evenodd" clip-rule="evenodd" d="M36.1998 27.6801C36.1998 28.4096 36.4778 28.2857 34.7328 28.435V14.3532H33.2657V29.1891C33.2657 30.3061 34.4069 29.9432 36.933 29.9432C37.4963 29.9432 37.6661 29.7685 37.6661 29.1891L37.653 20.1502C37.2727 15.4232 37.6661 17.5466 37.6661 13.0966V12.0902H36.1998V27.6801Z" fill="#FFBB00"/>
<path fill-rule="evenodd" clip-rule="evenodd" d="M17.1316 28.4355C16.0755 28.2056 16.8492 28.334 15.6653 28.4355V17.3717H14.4429C14.4429 19.1808 14.1293 19.9857 14.1845 21.6485C14.2774 24.4678 14.6904 25.0935 14.244 28.2743C13.9551 30.3275 14.2861 29.9437 17.8654 29.9437C18.4287 29.9437 18.5986 29.769 18.5986 29.1896V17.6233C18.5986 16.7288 18.1225 16.8685 17.1316 16.8685V28.4355Z" fill="#FFBB00"/>
<path fill-rule="evenodd" clip-rule="evenodd" d="M29.8426 27.6807C29.8426 28.2593 29.6306 28.39 29.1465 28.4012C28.5723 28.4139 28.3763 28.3213 28.3763 27.6807V18.8807C26.1696 18.8807 26.9093 18.6395 26.9093 29.1896C26.9093 30.3066 28.0504 29.9437 30.5765 29.9437C31.1398 29.9437 31.3097 29.769 31.3097 29.1896V17.6233C31.3097 16.7288 30.8335 16.8685 29.8426 16.8685V27.6807Z" fill="#FFBB00"/>
<path fill-rule="evenodd" clip-rule="evenodd" d="M20.5538 3.54157V11.085C20.5538 11.9794 21.03 11.8398 22.0209 11.8398V3.7932H23.4872V12.8455C23.4872 13.9109 24.9542 13.9109 24.9542 12.8455C24.9542 10.1426 25.238 4.61748 24.7095 2.28496H20.7985C20.6707 2.84868 20.5538 2.86287 20.5538 3.54157Z" fill="#FFBB00"/>
<path fill-rule="evenodd" clip-rule="evenodd" d="M10.7753 27.6808C10.7753 28.2602 10.6055 28.4356 10.0422 28.4356C9.15878 28.4356 9.52316 28.7709 9.38379 26.3614C9.34967 25.7626 9.43462 25.4632 9.44333 25.1429L9.30829 21.898C7.02755 21.898 8.08662 22.3198 8.08662 23.4062L8.07577 26.1882C8.30152 30.2425 6.05925 29.9438 11.5085 29.9438C12.0718 29.9438 12.2423 29.7691 12.2423 29.1897V19.8866H10.7753V27.6808Z" fill="#FFBB00"/>
<path fill-rule="evenodd" clip-rule="evenodd" d="M20.5538 21.3944V29.1894C20.5538 30.3064 21.695 29.9435 24.2211 29.9435C24.7836 29.9435 24.9542 29.7688 24.9542 29.1894V22.1493H23.4872C23.4872 25.7727 24.0294 28.4353 22.754 28.4353C20.7063 28.4353 23.3355 20.6403 21.287 20.6403C20.7237 20.6403 20.5538 20.815 20.5538 21.3944Z" fill="#FFBB00"/>
<path fill-rule="evenodd" clip-rule="evenodd" d="M1.73015 14.354L1.58788 16.585C1.59587 16.9068 1.73015 17.4713 1.73015 18.1261H2.95254L3.09552 13.3812C3.08608 13.0355 2.95254 12.2917 2.95254 11.5884H4.41955C4.41955 14.7878 3.96657 16.6171 5.15267 16.6171C6.39467 16.6171 5.88657 14.3077 5.88657 10.8343C5.88657 9.73899 4.8507 10.0794 2.46398 10.0794C1.12835 10.0794 1.73015 13.5043 1.73015 14.354Z" fill="#FFBB00"/>
<path fill-rule="evenodd" clip-rule="evenodd" d="M7.84193 13.5994C7.84193 14.2206 8.78487 14.1027 9.30824 14.1027V8.57073H10.7753C10.7753 11.0257 10.4443 12.0905 11.5084 12.0905C12.6162 12.0905 12.2423 10.801 12.2423 8.06755C12.2423 6.76017 10.1445 7.06177 8.81975 7.06177C7.43113 7.06177 8.08874 8.73351 8.0989 9.82436C8.10979 11.0347 7.84193 11.9904 7.84193 13.5994Z" fill="#FFBB00"/>
<path fill-rule="evenodd" clip-rule="evenodd" d="M33.2657 1.02762V6.05625H34.7328V1.53008C36.4313 1.53008 36.1998 1.34048 36.1998 4.04483C37.4469 4.04483 38.3056 4.17545 37.4215 0.272736C36.7391 0.214497 33.2657 -0.646359 33.2657 1.02762Z" fill="#FFBB00"/>
<path fill-rule="evenodd" clip-rule="evenodd" d="M26.9098 6.5595C26.9098 11.2133 26.552 10.834 28.3769 10.834V7.06196H29.8432V8.82182C31.5171 8.82182 31.3102 8.98237 31.3102 6.5595C31.3102 5.19613 29.6 5.55379 27.8876 5.55379C27.3156 5.55379 26.9098 5.9704 26.9098 6.5595Z" fill="#FFBB00"/>
<path fill-rule="evenodd" clip-rule="evenodd" d="M4.41941 28.4355C4.14647 28.4287 3.51202 28.3563 3.40749 28.3548C3.12657 28.3503 2.86524 28.4205 2.2192 28.4355C2.2192 29.5383 1.81053 30.1938 4.78086 29.9071C6.25805 29.7645 5.88643 30.5395 5.88643 24.6634H4.41941V28.4355Z" fill="#FFBB00"/>
<path fill-rule="evenodd" clip-rule="evenodd" d="M14.1979 6.55985C14.1979 8.66316 14.3438 8.10691 14.4425 9.32543H15.6649V7.06231H17.1312V8.06809H18.5982C18.5982 5.21367 18.7891 5.55414 15.1756 5.55414C14.6036 5.55414 14.1979 5.97075 14.1979 6.55985Z" fill="#FFBB00"/>
</svg>
