<svg width="42" height="37" viewBox="0 0 42 37" fill="none" xmlns="http://www.w3.org/2000/svg">
<path fill-rule="evenodd" clip-rule="evenodd" d="M1.48262 1.44182H28.9063V35.5582H1.48262V1.44182ZM0 0.72055V36.2794C0 36.8331 0.172387 37 0.741666 37H30.3882V0H0.741666C0.172387 0 0 0.167651 0 0.72055Z" fill="white"/>
<path fill-rule="evenodd" clip-rule="evenodd" d="M34.0939 5.76655C35.0293 5.95918 35.2479 5.70877 36.5647 6.00698C36.5647 9.68393 36.8765 26.9765 36.2522 30.2097C36.0864 31.0694 35.6594 32.1816 35.5765 33.1561C33.8049 31.8941 34.0939 21.9497 34.0939 20.1819C34.0939 15.377 34.0939 10.5714 34.0939 5.76655ZM34.0939 3.84461C34.0939 0.80545 35.2831 1.44752 36.3175 1.68224C36.6894 3.23321 36.5647 2.70528 36.5647 4.56516C34.7938 4.56516 34.0939 4.80202 34.0939 3.84461ZM32.6113 4.80558C32.6113 5.80437 32.7793 5.18655 32.7595 5.97416C32.6054 12.0803 32.0046 26.3137 33.397 31.9119C33.4711 32.2108 33.6053 32.8265 33.7719 33.2289C33.9567 33.6762 34.3676 34.2148 34.4571 34.4845C34.9317 35.9106 33.9039 36.8452 35.8238 37C36.305 36.0248 35.845 35.5482 36.272 34.5537C36.5897 33.8139 36.8868 33.6783 37.2088 32.5811C37.6512 31.0722 38.0466 29.4292 38.0466 27.63V5.76655C39.2013 5.76655 39.4272 5.93992 40.2701 5.76655L40.268 15.6189C40.2518 17.2883 39.8711 18.2599 41.2583 18.2599C41.8276 18.2599 42 18.0923 42 17.5394V7.20766C42 5.87428 41.7528 5.78297 41.7528 4.56516H38.0466C38.0466 2.68459 38.2857 0 35.3293 0C32.6861 0 32.6113 2.81301 32.6113 4.80558Z" fill="white"/>
<path fill-rule="evenodd" clip-rule="evenodd" d="M14.082 23.3052H24.7053V21.8641H14.082V23.3052Z" fill="white"/>
<path fill-rule="evenodd" clip-rule="evenodd" d="M14.082 30.0325H24.7053V28.5907H14.082V30.0325Z" fill="white"/>
<path fill-rule="evenodd" clip-rule="evenodd" d="M14.082 16.8181H24.7053V15.377H14.082V16.8181Z" fill="white"/>
<path fill-rule="evenodd" clip-rule="evenodd" d="M14.082 10.0913H24.7053V9.37005C24.7053 8.81643 24.5337 8.6495 23.9644 8.6495H14.082V10.0913Z" fill="white"/>
<path fill-rule="evenodd" clip-rule="evenodd" d="M7.65845 28.591C7.1596 28.2664 6.67544 27.9553 6.17658 27.63L5.43488 28.591C5.99829 29.4086 7.10973 30.4288 8.15292 30.5129C8.58648 28.9349 10.9721 28.1287 11.1174 26.4286C10.3273 25.9142 10.9443 26.0341 9.88201 25.9485C9.86147 26.0041 9.81231 26.0248 9.79837 26.1069L7.65845 28.591Z" fill="white"/>
<path fill-rule="evenodd" clip-rule="evenodd" d="M7.65845 22.3442C7.00994 21.9219 6.96741 21.7899 6.17658 21.3833L5.43488 22.3442C5.97702 23.1311 6.92192 24.167 8.15292 24.2662C8.50138 22.9977 10.7447 21.7785 11.1174 20.4223L10.3765 19.7017C9.59446 19.9764 8.1529 21.6265 7.65845 22.3442Z" fill="white"/>
<path fill-rule="evenodd" clip-rule="evenodd" d="M7.65845 9.85083C7.00994 9.42849 6.96741 9.29651 6.17658 8.88986C6.05554 9.06464 6.07239 9.06679 5.87798 9.32076C5.66964 9.59258 5.61388 9.65107 5.43488 9.85083C5.99829 10.6684 7.10973 11.6886 8.15292 11.7728C8.5542 10.3124 10.9846 9.24158 11.1174 7.68846L10.4058 7.17337C9.69055 7.37669 8.13603 9.1581 7.65845 9.85083Z" fill="white"/>
<path fill-rule="evenodd" clip-rule="evenodd" d="M7.65845 16.0973C7.00994 15.675 6.96741 15.543 6.17658 15.1363C6.05554 15.3118 6.07239 15.3133 5.87798 15.5672C5.66964 15.8391 5.61388 15.8976 5.43488 16.0973C5.97628 16.8828 6.84708 17.4913 7.65845 18.0193C9.01709 17.1346 9.51668 16.2136 10.452 15.2098C11.0132 14.607 11.0345 14.9052 11.1174 13.9349C10.3273 13.4206 10.9443 13.5404 9.88201 13.4541C9.55482 14.6455 8.30475 15.1585 7.65845 16.0973Z" fill="white"/>
</svg>
