<svg width="42" height="42" viewBox="0 0 42 42" fill="none" xmlns="http://www.w3.org/2000/svg">
<path fill-rule="evenodd" clip-rule="evenodd" d="M1.53973 39.6809V34.2701H23.1028C23.1028 37.9097 23.6547 40.4537 22.333 40.4537H2.31036C1.7181 40.4537 1.53973 40.2746 1.53973 39.6809ZM1.53973 2.31909C1.53973 1.72537 1.7181 1.54629 2.31036 1.54629H22.333C23.6364 1.54629 23.1028 3.91279 23.1028 7.47208H1.53973V2.31909ZM0 1.80339V40.1966C0 41.1339 1.25161 42 2.31036 42H22.5898C23.5274 42 24.6433 41.2892 24.6433 40.4537V27.8278C22.4016 27.8278 23.3597 27.6029 23.3597 32.7238L18.5202 32.9197C17.2762 32.9396 17.5949 32.7238 16.4286 32.7238C15.7982 32.7238 15.4392 32.8707 15.1107 32.8784C14.2692 32.899 14.9293 32.7238 13.8614 32.7238C12.7942 32.7238 13.4543 32.899 12.6128 32.8784L3.85009 32.7238C2.56037 32.7238 2.70062 32.9556 1.53973 32.9816V9.01836H23.1028C23.1951 10.1316 23.1447 10.0489 24.6433 10.0489V1.54629C24.6433 0.71155 23.5274 0 22.5898 0H2.31036C1.25161 0 0 0.866129 0 1.80339Z" fill="#FFBB00"/>
<path fill-rule="evenodd" clip-rule="evenodd" d="M18.2257 21.128C18.2257 14.522 17.4772 15.9834 21.2336 14.3567C22.6978 13.7225 30.7547 10.1172 31.5741 10.0483C31.9461 10.6069 32.344 10.906 32.344 11.8525V26.0239C32.344 26.6437 31.9278 26.7814 31.5741 27.3123C30.2135 27.1983 29.1944 26.4692 28.016 25.9879L24.5653 24.5556C23.4555 24.0836 22.3007 23.5625 21.2214 23.0162C20.3189 22.5595 18.2257 22.0683 18.2257 21.128ZM9.49729 15.975H16.9421V21.3858H9.49729V15.975ZM13.8611 14.4286C14.2971 13.3689 13.8611 14.812 13.8611 12.6253C12.1758 12.6253 12.3214 12.5166 12.3214 14.4286C7.14502 14.4286 7.9568 13.6849 7.9568 17.779C5.48333 17.779 5.64646 17.561 5.64646 19.3246C7.55435 19.3246 7.28755 19.6023 7.9568 19.3246V22.9321C12.8451 22.9321 12.5737 22.548 12.5973 24.4585C12.6408 27.9757 13.6561 28.4416 13.8611 30.9198L15.3932 30.6229C15.1783 29.7002 15.0403 28.9604 14.7278 27.9887C13.8337 25.2121 13.8611 25.9198 13.8611 23.7048C13.8611 22.6528 14.6661 22.9321 16.6852 22.9321C18.1678 22.9321 19.2342 23.7424 20.3151 24.1846C25.2026 26.1815 33.8845 32.47 33.8845 25.7661V11.3369C33.8845 9.98797 32.7373 8.50289 31.3173 8.50289C30.6663 8.50289 21.0399 12.8441 19.033 13.6934C18.2814 14.0109 17.9209 14.3422 16.9421 14.4294C16.0739 14.5067 14.7766 14.4286 13.8611 14.4286Z" fill="#FFBB00"/>
<path fill-rule="evenodd" clip-rule="evenodd" d="M39.0491 13.6934C39.1497 15.2435 41.7993 17.5005 39.896 22.0185C39.4203 23.1478 38.8898 23.8418 40.3015 24.2205C43.2315 22.0652 41.9121 13.7102 39.7877 13.141L39.0491 13.6934Z" fill="#FFBB00"/>
<path fill-rule="evenodd" clip-rule="evenodd" d="M36.9644 17.7783C36.9644 22.0453 36.0924 20.5472 35.9376 22.4156C37.0017 22.6651 37.1549 22.848 37.7441 21.923C39.6132 18.9903 37.6885 15.8525 37.4781 14.9436C35.1175 15.1402 36.9644 16.4271 36.9644 17.7783Z" fill="#FFBB00"/>
<path fill-rule="evenodd" clip-rule="evenodd" d="M9.75414 5.15254H14.3749C14.9664 5.15254 15.1447 4.97346 15.1447 4.37973C15.1447 3.78601 14.9664 3.607 14.3749 3.607H9.75414V5.15254Z" fill="#FFBB00"/>
<path fill-rule="evenodd" clip-rule="evenodd" d="M10.7805 38.1348H14.1176V37.362C14.1176 36.7683 13.9392 36.5893 13.3477 36.5893H11.2942C10.2606 36.5893 10.7569 37.0537 10.7805 38.1348Z" fill="#FFBB00"/>
</svg>
