<svg width="36" height="41" viewBox="0 0 36 41" fill="none" xmlns="http://www.w3.org/2000/svg">
<path fill-rule="evenodd" clip-rule="evenodd" d="M18.6307 30.3619C16.072 30.3619 16.3366 29.555 16.7687 27.7026H19.6948C19.9586 28.6888 19.9641 28.0461 20.2272 29.0323C19.9159 29.4958 19.3661 30.3619 18.6307 30.3619ZM30.8687 21.055H30.0708V14.4066C31.6666 14.4421 32.9968 14.8874 32.9968 16.5345V19.4592C32.9968 20.3206 31.8411 21.055 30.8687 21.055ZM2.66881 17.332C2.66881 15.3138 3.85217 14.4516 5.86103 14.4066V21.055C3.41533 21.055 2.66881 20.248 2.66881 17.332ZM5.86103 10.1522V12.8116C2.45711 12.8116 1.07231 14.615 1.07231 17.8642C1.07231 23.0598 4.46518 22.65 7.45753 22.65V10.4183C7.45753 5.85683 11.4279 1.64276 15.9701 1.64276C19.7113 1.64276 23.0402 1.19821 26.0231 4.35897C29.4223 7.95873 28.4743 13.9163 28.4743 19.9914C28.4743 24.6326 25.5847 27.3583 21.8237 28.234C19.5771 26.5892 21.9564 26.1068 17.035 26.1068C14.8421 26.1068 13.0575 31.9569 18.6307 31.9569C20.8347 31.9569 21.3197 30.058 21.5575 29.5637C22.9044 29.5637 22.9257 29.3836 23.9518 29.2983V33.8188H25.5476V28.234C27.5762 27.6931 29.3259 24.7029 29.8046 22.65C33.9582 22.65 34.5673 21.1126 34.8051 17.9787C35.0602 14.6127 33.3207 12.8116 30.0708 12.8116V10.4183C30.0708 5.07829 25.4496 0.0477837 20.2272 0.0477837C16.4694 0.0477837 14.9898 -0.32807 11.8971 1.02846C10.6055 1.59539 9.90483 2.24997 8.98453 3.16985C7.38565 4.76799 5.86103 7.0894 5.86103 10.1522Z" fill="#FFBB00"/>
<path fill-rule="evenodd" clip-rule="evenodd" d="M11.3894 7.43527C13.1249 9.78274 21.3531 13.8768 25.0161 13.8768C25.2626 16.8378 25.7919 18.9381 24.46 22.0957C23.8778 23.4751 23.358 23.4143 22.6218 24.5134L23.1684 25.5691C27.4413 24.5829 27.2746 16.5306 26.3464 12.5471C22.4156 12.4595 17.3156 9.91302 13.997 7.60582C13.2671 7.0989 13.1439 6.85411 12.5119 6.43089L11.3894 7.43527Z" fill="#FFBB00"/>
<path fill-rule="evenodd" clip-rule="evenodd" d="M8.52155 14.1426V21.8538C8.52155 22.4002 9.66461 23.8806 10.0169 24.3481C10.9135 25.5372 10.6663 25.8191 10.6521 27.7015C10.5952 35.0977 10.1749 33.9922 12.2462 33.8201V26.3742C12.7944 26.664 12.8766 26.743 13.5757 26.9064C13.7392 26.2068 13.8182 26.1247 14.1081 25.5767C9.77679 22.6773 9.85184 22.2486 9.85184 15.4722C9.85184 12.5965 12.3434 12.4497 12.5116 10.4196L11.7462 9.84874C10.6078 10.1867 8.52155 12.9684 8.52155 14.1426Z" fill="#FFBB00"/>
<path fill-rule="evenodd" clip-rule="evenodd" d="M0.00836026 39.4042C0.00836026 40.482 -0.139353 41 0.807015 41C2.01328 41 1.50691 39.7137 1.70519 38.4409C2.02907 36.3524 3.55449 35.1167 5.60521 34.8933C6.89521 34.7527 7.61881 34.6177 9.05416 34.6177V33.0219C8.05407 33.0448 6.79647 33.2698 5.46934 33.3512C2.24711 33.5478 0.00836026 36.0658 0.00836026 39.4042Z" fill="#FFBB00"/>
<path fill-rule="evenodd" clip-rule="evenodd" d="M26.878 33.8197V34.6172C29.9249 34.6172 33.6835 34.9347 34.2665 38.1349C34.5019 39.4267 33.8028 40.9995 35.1252 40.9995C37.0811 40.9995 35.4862 35.3579 33.0089 34.0732C31.4345 33.256 26.878 32.4814 26.878 33.8197Z" fill="#FFBB00"/>
</svg>
