<svg width="44" height="41" viewBox="0 0 44 41" fill="none" xmlns="http://www.w3.org/2000/svg">
<path fill-rule="evenodd" clip-rule="evenodd" d="M17.8592 35.0322H26.1408C26.1408 36.7544 26.6589 37.4386 26.6589 39.4435H17.3411C17.3411 37.659 17.8592 36.685 17.8592 35.0322ZM1.5532 32.1774C1.5532 30.1363 1.27343 29.3234 2.32939 29.3234H41.6706C42.775 29.3234 42.4468 30.3189 42.4468 32.6967C42.4468 33.935 40.3487 33.475 38.0469 33.475H1.81221C1.67694 32.8932 1.5532 32.8786 1.5532 32.1774ZM1.5532 3.89273C1.5532 2.84095 1.83217 1.55724 2.8474 1.55724H41.1526C41.9895 1.55724 42.4468 2.49884 42.4468 3.37339V27.7661H1.5532V3.89273ZM0 3.37339V32.6967C0 34.3064 0.934512 35.0322 2.58839 35.0322H16.306C16.306 36.3753 15.8041 38.2631 15.5298 39.4435H10.8709V41H32.6119C33.2083 41 33.3881 40.8197 33.3881 40.2218C33.3881 38.6106 30.0389 39.8735 28.7754 39.3965C27.9085 39.0698 27.7156 36.0023 27.694 35.0322H41.4116C43.0663 35.0322 44 34.3064 44 32.6967V3.37339C44 1.60117 42.8111 0 41.1526 0H2.8474C1.18891 0 0 1.60117 0 3.37339Z" fill="#FFBB00"/>
<path fill-rule="evenodd" clip-rule="evenodd" d="M27.8952 9.54324L33.1896 14.9901L27.8921 20.4393L28.9304 21.5951L30.1893 20.407C30.2255 20.3669 30.2746 20.3091 30.3107 20.2691C30.3468 20.2298 30.3983 20.1727 30.4345 20.1334L31.0777 19.4808C31.1162 19.4438 31.1715 19.3906 31.2106 19.3544C31.2491 19.3182 31.3059 19.2658 31.3451 19.2296C31.7056 18.8983 31.9124 18.7342 32.2905 18.362C33.2888 17.3811 34.739 16.1274 35.4584 15.0502L29.0511 8.49918L27.8952 9.54324Z" fill="#FFBB00"/>
<path fill-rule="evenodd" clip-rule="evenodd" d="M8.47713 14.9877C8.80375 15.4115 8.56398 15.0971 8.90905 15.4615L15.0112 21.5387L16.1041 20.5586L10.8097 15.1117L16.1071 9.6625L15.0689 8.50671L8.47713 14.9877Z" fill="#FFBB00"/>
<path fill-rule="evenodd" clip-rule="evenodd" d="M18.8943 22.3179C19.4085 22.5653 19.8197 22.6901 20.4468 22.8365L22.9806 14.2189C24.8097 7.58537 26.1677 6.7478 23.5532 6.7478C23.2166 8.1964 22.837 9.14183 22.4243 10.5473C21.9962 12.0036 21.6611 13.2503 21.2553 14.5648C20.8603 15.847 20.529 17.0082 20.0886 18.325C19.6713 19.5725 19.1656 21.149 18.8943 22.3179Z" fill="#FFBB00"/>
</svg>
