<svg width="43" height="39" viewBox="0 0 43 39" fill="none" xmlns="http://www.w3.org/2000/svg">
<path fill-rule="evenodd" clip-rule="evenodd" d="M19.1511 4.24253C16.2166 3.56518 13.645 4.70034 12.3766 6.84298C11.661 8.05177 12.3254 7.85198 10.9183 8.24288C4.29569 10.0837 4.6849 16.1362 7.59071 18.7972C10.2717 21.2517 15.4297 20.5366 19.9342 20.5366V18.9846C16.3454 18.9846 10.8849 19.5805 8.85594 17.8034C6.59285 15.8205 6.77507 12.4476 8.80325 10.8042C9.88246 9.92947 11.012 9.67443 12.8844 9.67443C13.4519 8.50327 14.1404 5.53578 17.5842 5.53578C18.4526 5.53578 19.2077 5.97201 20.1954 6.05341C20.3063 4.73711 21.215 3.69653 22.0414 2.96773C24.1844 1.07698 27.7445 1.00246 30.2254 3.35936C30.5077 3.62739 30.4108 3.51921 30.6061 3.75805C31.6218 4.99525 31.9451 6.4013 31.9451 8.63916C33.312 9.28887 33.6577 9.08078 34.7633 10.2443C37.5621 13.1902 36.2232 18.9846 30.3782 18.9846H23.068V20.5366C27.1142 20.5366 32.8933 21.1901 35.4866 18.8716C38.839 15.8742 38.304 10.4178 34.9261 8.27288C32.0164 6.42514 34.4315 8.00646 32.9119 4.57747C29.6704 -2.73746 20.3195 -0.0903624 19.1511 4.24253Z" fill="#FFBB00"/>
<path fill-rule="evenodd" clip-rule="evenodd" d="M1.65711 35.5368H9.22943V36.5721C9.22943 37.6626 8.82237 37.089 8.1843 37.089H1.65711V35.5368ZM1.65711 24.4158H8.96815V33.9856H1.65711V24.4158ZM0.352283 23.1233C-0.236943 25.6277 0.0909986 34.4387 0.0909986 37.6066C0.0909986 40.1225 10.2714 38.3845 10.2737 38.3822C10.8978 37.764 10.5226 28.5729 10.5358 26.2259C10.5583 22.0536 11.6522 22.8646 1.65711 22.8646C1.24621 22.8646 0.667829 23.0012 0.352283 23.1233Z" fill="#FFBB00"/>
<path fill-rule="evenodd" clip-rule="evenodd" d="M34.0334 35.5375H41.3444V37.0896H34.0334V35.5375ZM34.0334 24.4164H41.3444V33.9862H34.0334V24.4164ZM32.4665 23.8997V37.8652C32.4665 39.3351 34.8886 38.3144 38.0603 38.7905C40.3273 39.1315 42.9105 39.3344 42.9105 37.0896C42.9105 33.9809 43.2346 25.6083 42.6492 23.1239C40.2637 22.5733 36.1313 22.8652 33.5108 22.8652C32.8999 22.8652 32.4665 23.2945 32.4665 23.8997Z" fill="#FFBB00"/>
<path fill-rule="evenodd" clip-rule="evenodd" d="M24.3283 32.6526L25.9921 34.4521L16.2792 34.5028V36.0548H25.9394C25.6518 36.4803 25.4843 36.6561 25.1206 37.0547C25.085 37.0938 25.0268 37.1454 24.9919 37.1853C24.9415 37.2414 24.7912 37.3987 24.7454 37.4586C24.443 37.861 24.5268 37.5539 24.3725 38.1237L24.933 38.8687C26.0564 38.8034 28.1971 36.4465 28.8111 35.5372C28.57 34.6425 25.9572 32.1896 25.1563 31.6582L24.3283 32.6526Z" fill="#FFBB00"/>
<path fill-rule="evenodd" clip-rule="evenodd" d="M14.1895 29.5883C14.4267 30.4668 16.9581 32.9743 17.845 33.2093L18.5971 32.654C18.3513 31.6649 17.6629 31.512 17.062 30.6226L25.698 30.6357C27.1098 30.499 26.9687 30.1166 26.7222 29.0707H17.062C17.7342 28.0761 18.5204 28.0285 18.6289 26.7429C17.421 25.7645 17.1426 26.521 15.9518 27.7129C15.2904 28.3741 14.6865 28.8533 14.1895 29.5883Z" fill="#FFBB00"/>
<path fill-rule="evenodd" clip-rule="evenodd" d="M16.0179 12.7777C16.2242 13.5426 16.1242 13.1963 16.5398 13.8123C17.8942 13.7001 19.5789 11.7348 24.0066 12.8814C25.3618 13.2324 25.337 13.7193 26.4612 13.8123C26.8775 13.1963 26.7775 13.5426 26.9838 12.7777C25.182 10.3417 17.7399 10.4493 16.0179 12.7777Z" fill="#FFBB00"/>
<path fill-rule="evenodd" clip-rule="evenodd" d="M20.7178 26.4854H22.2839V16.3981H20.7178V26.4854Z" fill="#FFBB00"/>
<path fill-rule="evenodd" clip-rule="evenodd" d="M18.1067 14.3299C18.3276 14.7861 18.4075 15.167 18.6292 15.6232L22.0234 15.3644C23.3352 15.3644 23.1919 15.5971 24.3726 15.6232C24.6579 15.0902 24.7354 15.0103 24.8951 14.3299C23.0957 13.4752 19.9061 13.4752 18.1067 14.3299Z" fill="#FFBB00"/>
<path fill-rule="evenodd" clip-rule="evenodd" d="M25.6779 3.46668C25.6779 4.87744 27.9263 3.32233 28.8109 7.08769H30.3778C30.2731 5.8382 29.8621 4.93885 29.169 4.1463C28.5736 3.46588 28.852 3.63021 28.0488 3.18709C27.0463 2.63338 26.8362 2.6903 25.6779 2.6903V3.46668Z" fill="#FFBB00"/>
</svg>
