<svg width="47" height="38" viewBox="0 0 47 38" fill="none" xmlns="http://www.w3.org/2000/svg">
<path fill-rule="evenodd" clip-rule="evenodd" d="M17.9167 31.5812H28.8217C28.8634 33.4225 29.8226 34.7758 29.8603 36.4599H16.8781C17.0077 34.9145 17.8874 32.885 17.9167 31.5812ZM1.5582 26.1895H45.1802V29.7843H1.5582V26.1895ZM22.5905 20.0269C24.7185 20.0269 26.7115 20.2145 27.7886 22.8456C28.0816 23.5607 27.9775 23.9785 28.3021 24.6487H18.4355C18.5542 24.4039 19.2389 20.0269 22.5905 20.0269ZM14.7416 14.5765C15.7038 15.2329 16.4941 15.8344 17.397 16.4322L21.1526 15.0103C23.2882 14.2997 21.2528 11.5543 23.1094 11.5543H24.4077C24.4077 15.977 25.2111 14.5017 27.5296 15.6568C28.1957 15.9884 28.5234 16.2438 29.3414 16.4322C30.2443 15.8344 31.0345 15.2329 31.9374 14.6352L33.191 15.7094C32.2489 17.5865 31.3121 17.7946 31.5233 18.8871C31.7261 19.9393 32.8248 21.0501 32.9759 22.8517C33.7701 23.0339 35.4555 23.345 36.3522 23.3648V24.6487H29.6005C29.6005 20.4089 26.097 18.0759 22.9351 18.3374C18.7455 18.6851 17.5905 21.625 16.8781 24.6487H10.3862V23.3648C11.2821 23.345 12.9683 23.0339 13.7617 22.8517C13.9128 21.0623 14.7848 19.6595 15.5797 18.4861C15.0246 18.0843 14.9282 17.7641 14.5388 17.2053C14.2173 16.7448 13.8673 16.3346 13.5019 15.9191L14.7416 14.5765ZM20.5134 13.6082C19.0438 13.7294 18.1125 14.7213 17.3099 14.4652C16.4695 14.1968 16.0261 13.1797 14.5412 12.8382C9.69153 16.0487 13.0045 17.0147 13.3731 18.352C13.6529 19.3682 12.5743 20.2557 12.4633 21.5678C8.09322 21.6638 8.82803 22.7122 8.82803 24.6487H1.5582V2.31083C1.5582 1.7192 1.73859 1.54001 2.33689 1.54001H44.4008C44.9998 1.54001 45.1802 1.7192 45.1802 2.31083V24.6487H37.9096L37.6498 22.0809C36.5542 21.9909 35.4301 21.5929 34.2744 21.5678C34.1572 21.0692 34.0546 20.7024 33.8572 20.1832C33.5612 19.4071 33.2358 19.2188 33.2358 18.7431C33.2358 17.389 37.2936 16.2126 32.1972 12.8382C30.7069 13.1813 30.2975 14.177 29.4301 14.4637C28.4494 14.7877 27.7632 13.7347 26.225 13.6082C26.1124 12.2702 25.71 11.1319 25.4463 10.0135H21.2921C21.0393 11.0854 20.6113 12.4379 20.5134 13.6082ZM0 1.54001V29.7843C0 30.4018 0.932916 31.3243 1.5582 31.3243H16.3585C16.3376 32.2598 15.3862 35.7875 15.0601 36.4599C9.45178 36.4599 8.82803 35.7974 8.82803 38H37.9096C37.9096 35.9674 38.4432 36.4599 31.4185 36.4599C31.4185 34.5089 30.4239 33.2753 30.3799 31.3243H45.1802C46.2997 31.3243 46.7747 29.9077 46.9111 28.9067L46.9982 4.87786C47.0083 2.48313 47.0507 0 44.6606 0H2.0778C1.12869 0 0 0.708219 0 1.54001Z" fill="#FFBB00"/>
<path fill-rule="evenodd" clip-rule="evenodd" d="M8.04889 6.67443H38.6887V5.13361H8.04889V6.67443Z" fill="#FFBB00"/>
</svg>
