<svg width="34" height="42" viewBox="0 0 34 42" fill="none" xmlns="http://www.w3.org/2000/svg">
<path fill-rule="evenodd" clip-rule="evenodd" d="M1.6576 19.1628V8.66288C5.22393 8.58182 10.8932 6.18661 13.932 4.15302C15.166 3.32758 15.961 2.57064 17.3155 1.83795L20.4466 4.1483C23.3193 6.12187 28.939 8.5826 32.4604 8.66288C32.4604 18.7778 33.5221 24.2574 27.365 32.0652C25.5769 34.3334 19.6592 38.3818 17.0594 40.162L13.1378 37.3475C8.91449 34.2484 5.51661 31.7745 3.42513 26.5428C2.72467 24.7929 1.6576 21.6165 1.6576 19.1628ZM0.11794 7.3503C0.11794 14.5524 -0.709793 20.4965 2.02041 27.1912C3.9099 31.8227 7.21479 35.1417 11.1043 37.8519L16.8025 42C18.0007 41.7147 21.3208 38.9976 22.8612 37.9586C29.3247 33.5975 34 26.9099 34 18.6376V7.3503C31.5282 7.3503 26.9878 5.80767 24.6852 4.8014C21.8559 3.56441 19.6828 1.62126 17.3155 0C15.4001 0.523792 12.8322 4.16941 5.28489 6.33473C4.30394 6.61533 1.24752 7.32457 0.11794 7.3503Z" fill="#FFBB00"/>
<path fill-rule="evenodd" clip-rule="evenodd" d="M6.02041 18.3746V12.3378C7.85503 12.2957 10.7224 11.1203 12.099 10.4157C13.807 9.54112 15.5753 8.66812 17.0586 7.35007C17.9999 7.99546 18.3657 8.36563 19.5365 9.01569C22.1173 10.4475 22.0975 10.6198 25.1714 11.6526C28.6547 12.8233 28.096 11.1437 28.096 18.1128C28.096 22.4122 26.0541 27.336 23.1066 30.0726C22.4336 30.697 22.0274 31.0766 21.2728 31.6098C16.3543 35.0877 17.7827 35.2895 13.0212 31.6908C10.4396 29.7398 8.35502 27.1778 7.14769 24.0476C6.66217 22.7887 6.02041 19.9849 6.02041 18.3746ZM4.48076 11.8124C4.48076 18.8384 3.94493 23.7458 8.50594 29.4833C10.8215 32.3954 13.9336 34.348 17.0586 36.4876C23.9428 31.7727 29.6356 27.9478 29.6356 17.85C29.6356 7.95718 30.8734 12.7042 23.0083 9.14053C19.7949 7.68529 18.7987 6.45445 17.0586 5.51288C13.5227 7.93307 10.6637 9.90899 6.11416 10.8584C5.15303 11.0587 4.48076 10.8358 4.48076 11.8124Z" fill="#FFBB00"/>
<path fill-rule="evenodd" clip-rule="evenodd" d="M12.9511 18.9007H21.1653V25.7256H12.9511V18.9007ZM19.1119 17.3255H14.4915V16.5381C14.4915 15.2403 15.5326 14.1757 16.8017 14.1757H17.3147C19.2087 14.1757 20.6752 17.3255 19.1119 17.3255ZM12.9511 16.5381V17.3255C11.7445 17.3535 11.4107 17.7003 11.4107 18.9007V26.251C11.4107 26.8652 11.8367 27.3008 12.4381 27.3008H21.679C23.3551 27.3008 22.7057 22.0045 22.7057 18.9007C22.7057 17.8266 22.445 17.4128 21.4221 17.3255C21.2789 10.7594 12.9511 11.1887 12.9511 16.5381Z" fill="#FFBB00"/>
</svg>
