<svg width="35" height="41" viewBox="0 0 35 41" fill="none" xmlns="http://www.w3.org/2000/svg">
<path fill-rule="evenodd" clip-rule="evenodd" d="M22.7251 25.4306C24.2923 25.466 25.9451 27.3877 26.8102 23.6137C29.2516 23.8202 26.8944 26.9987 30.5784 25.5886C33.5679 24.4451 30.8779 26.9524 31.4488 28.2183C32.3177 30.1439 33.3974 28.2546 33.4489 30.6201C29.5844 30.9468 32.1191 33.3872 31.6619 34.5129C30.6876 34.9213 30.354 33.8085 29.2205 34.1137C28.2629 34.3718 28.0127 35.5392 27.8315 36.3289H26.8102C26.4865 34.9181 26.1407 34.5954 25.0232 33.9936C23.1982 34.4258 24.1187 35.3758 22.4696 34.2532C22.7069 33.3509 23.5425 32.6143 23.0049 31.6588C22.3612 30.5153 21.3157 31.2797 20.9373 29.8419C21.647 28.8579 23.2354 29.1099 23.2354 27.7661C23.2354 26.5726 22.7676 26.9863 22.7251 25.4306ZM25.0232 24.3928C24.4583 24.0884 23.7775 23.6137 22.9799 23.6137C22.3597 23.6137 20.9373 25.0593 20.9373 25.6903C20.9373 26.9163 21.4309 26.7274 21.7039 27.7661C20.0927 28.1475 19.4058 28.3139 19.4058 30.3612C19.4058 31.7598 20.3581 32.1466 21.7039 32.1774C21.3604 33.6753 19.6818 34.3441 22.9799 36.5887C24.0755 36.2913 23.6084 35.9299 25.0232 35.8105C25.5979 38.3178 25.977 37.837 26.5547 37.8863V39.4427H1.53229V4.15154H6.38317C6.38317 6.01161 6.13144 6.74667 7.14969 6.74667H20.9373C21.9556 6.74667 21.7039 6.01161 21.7039 4.15154H26.5547V22.0572C25.6275 22.2768 25.535 22.1582 25.0232 24.3928ZM19.4058 5.19026H7.91546V1.55717H20.1715V4.4113C20.1715 5.00923 19.9941 5.19026 19.4058 5.19026ZM6.38317 2.59513H0V41H27.3212C28.4919 41 28.087 39.1607 28.087 37.8863C28.8816 37.6705 28.6958 37.7946 29.034 37.0318C29.2053 36.6457 29.3266 36.0023 29.3638 35.5507C30.8377 35.8998 31.4958 37.6058 33.7044 34.2532C33.3382 33.5505 33.0175 33.1444 32.9387 32.1774C35.3383 31.974 34.9812 30.8489 34.9812 29.3225C34.9812 28.2831 33.5588 27.9734 32.6831 27.7661L33.7128 25.6941C31.7938 22.8477 31.2456 23.5174 29.6193 24.3928C29.3646 23.8542 29.3479 23.4797 29.0234 22.9226C28.9839 22.8556 28.8581 22.6775 28.8134 22.6166L28.576 22.3393C28.2652 21.9293 28.087 22.3523 28.087 21.5379V2.59513H21.7039C21.7039 0.735064 21.9556 0 20.9373 0H6.38317V2.59513Z" fill="#FFBB00"/>
<path fill-rule="evenodd" clip-rule="evenodd" d="M27.3209 28.284C29.0655 28.284 30.2407 32.3917 26.0442 31.3985C25.123 29.4468 26.2132 28.284 27.3209 28.284ZM26.8099 32.9549H28.3422C29.2755 32.9549 30.3848 31.1597 30.3848 30.101C30.3848 25.3761 23.1555 26.3723 24.2275 30.6248C24.5551 31.9224 25.2716 32.9549 26.8099 32.9549Z" fill="#FFBB00"/>
<path fill-rule="evenodd" clip-rule="evenodd" d="M11.4903 19.7225C11.4903 20.3204 11.6678 20.5007 12.2561 20.5007H23.7464V18.9435H12.2561C11.6678 18.9435 11.4903 19.1245 11.4903 19.7225Z" fill="#FFBB00"/>
<path fill-rule="evenodd" clip-rule="evenodd" d="M11.4903 12.7143C11.4903 13.3122 11.6678 13.4925 12.2561 13.4925H23.7464V11.9361H12.2561C11.6678 11.9361 11.4903 12.1164 11.4903 12.7143Z" fill="#FFBB00"/>
<path fill-rule="evenodd" clip-rule="evenodd" d="M5.87277 12.9747C4.92731 12.3313 5.08122 11.7827 3.83022 11.6771C2.97043 12.7443 3.36469 12.9339 4.39962 13.9526C4.96143 14.5058 5.2556 14.8902 5.87277 15.3102C6.84021 14.6522 9.60532 12.0824 9.70237 10.8989C8.08743 9.55508 7.98963 11.5338 5.87277 12.9747Z" fill="#FFBB00"/>
<path fill-rule="evenodd" clip-rule="evenodd" d="M5.87249 33.7345C4.88078 33.0595 5.33266 32.8523 4.34019 32.1773C3.73289 32.5903 4.07483 32.491 3.31892 32.6967C3.42506 33.9966 4.82695 34.9882 5.87249 35.5507L7.42905 34.2778C8.4253 33.4171 9.60049 32.6397 9.70209 31.3991L8.96741 30.842C7.86273 31.171 8.166 31.4021 7.46468 32.2381C6.95745 32.843 6.48207 33.3192 5.87249 33.7345Z" fill="#FFBB00"/>
<path fill-rule="evenodd" clip-rule="evenodd" d="M5.87287 26.7283C5.03735 26.1596 5.07753 25.6996 4.08506 25.4307L3.35039 25.9871C3.55282 26.8447 5.13819 28.3041 5.87287 28.8042C6.61817 28.2964 9.50535 25.6634 9.70248 24.9114L8.89348 23.9136C8.18912 24.3829 8.13683 24.6278 7.50829 25.2766C6.98287 25.8175 6.42483 26.3523 5.87287 26.7283Z" fill="#FFBB00"/>
<path fill-rule="evenodd" clip-rule="evenodd" d="M5.92755 20.0375L4.13443 18.371L3.27542 19.4211L5.81155 22.118L9.76397 18.2268L8.89281 17.1658L5.92755 20.0375Z" fill="#FFBB00"/>
<path fill-rule="evenodd" clip-rule="evenodd" d="M11.7455 27.2458H18.3842V25.6894H12.2558C11.1299 25.6894 11.6788 26.4376 11.7455 27.2458Z" fill="#FFBB00"/>
<path fill-rule="evenodd" clip-rule="evenodd" d="M10.724 4.15057H16.5962C17.1845 4.15057 17.3627 3.97029 17.3627 3.37236V2.59415H10.724V4.15057Z" fill="#FFBB00"/>
<path fill-rule="evenodd" clip-rule="evenodd" d="M11.4903 33.2156C11.4903 33.8135 11.6678 33.9938 12.2561 33.9938H18.3845V32.4372C16.7097 32.4372 15.8295 32.579 14.5345 32.6884C12.959 32.8217 11.4903 31.908 11.4903 33.2156Z" fill="#FFBB00"/>
</svg>
