<svg width="40" height="40" viewBox="0 0 40 40" fill="none" xmlns="http://www.w3.org/2000/svg">
<path fill-rule="evenodd" clip-rule="evenodd" d="M14.2697 37.6614L16.5669 33.9878C17.0908 33.1849 16.6601 33.2736 17.9019 33.2458C17.8141 34.2986 17.3712 35.8203 17.1847 36.9503C16.8265 39.1191 16.241 37.8256 14.2697 37.6614ZM12.7127 36.8824C11.8222 36.6749 11.1142 36.2337 10.3777 35.8435C10.6242 34.9187 10.9069 34.8647 11.7736 34.1236L13.3383 32.5548C13.9315 32.1244 13.2296 31.9817 15.3073 32.4669C15.2141 33.5883 13.2281 36.5045 12.7127 36.8824ZM8.82077 34.8046L8.39481 34.4521C8.12133 34.2192 8.21834 34.3241 7.97645 34.0919C7.55582 33.6901 7.55665 33.6832 7.26468 33.2458C7.85941 32.3573 10.1382 31.0146 11.1558 30.1291C11.91 30.6343 11.504 30.6544 12.4531 30.9081C12.2135 31.8074 9.61734 34.2709 8.82077 34.8046ZM5.96731 31.947C5.44422 31.5637 5.12377 31.1164 4.92964 30.389C6.24389 29.6926 7.88478 28.8527 9.0804 28.0513L10.078 28.8751C9.68593 29.4219 6.74307 31.5367 5.96731 31.947ZM3.89196 29.0902L3.10308 27.5369C4.10765 27.0055 6.6337 25.5493 7.7831 25.4537C8.04041 26.417 8.04582 25.7892 8.30235 26.7525L3.89196 29.0902ZM2.33504 25.9728L2.03615 24.4233C2.7888 24.3554 3.67314 23.797 4.48434 23.4492C5.30479 23.0975 6.02744 22.7172 6.74543 22.337L7.04433 23.8865L2.33504 25.9728ZM1.55692 22.0771C2.35657 21.693 2.50837 21.8172 3.63234 21.8172C3.3604 22.1889 3.09619 22.4596 2.58775 22.6517C1.77654 22.9579 1.81731 23.0535 1.55692 22.0771ZM0 21.0382C0 30.5148 8.36781 39.1831 18.1608 39.9991L18.8287 36.5122C19.0822 35.1224 19.341 34.4537 19.5691 33.0376C19.8872 31.0631 19.0305 31.9432 17.2818 31.529C14.198 30.7986 11.4563 28.8056 9.86777 26.2242C6.26397 20.3656 11.6442 19.6838 1.0069 20.4119C0.385211 20.4551 0 20.0656 0 21.0382Z" fill="#FFBB00"/>
<path fill-rule="evenodd" clip-rule="evenodd" d="M31.9106 14.0259L35.744 10.3308C38.6868 15.779 39.4788 21.9014 36.7602 27.7121C35.9798 29.3804 34.5792 31.3934 33.4059 32.666C31.1796 35.0793 26.5589 38.1821 22.0522 38.1821C22.2602 37.2882 22.2471 36.7499 22.4165 35.6901C22.5829 34.6551 22.8302 34.1144 22.8302 32.9868C24.8032 32.8226 27.5511 31.2839 29.0333 29.8462L29.4146 29.449C33.3712 25.1646 34.8211 19.532 31.9106 14.0259ZM30.0948 13.766C31.0709 15.6124 31.5994 17.0909 31.8552 19.5544C32.2204 23.0775 29.9416 27.3735 26.9125 29.5416C25.5489 30.518 23.5852 31.5176 21.5337 31.6888C20.9266 34.2965 20.8365 37.4201 20.2364 40C25.9996 40 30.0995 37.7448 33.946 34.2455L34.3512 33.8723C35.9597 32.2711 36.9397 30.6992 37.9666 28.66C41.1652 22.3078 40.4194 15.3394 36.9242 9.2664C36.5221 8.56763 36.4458 8.62624 36.0622 8.05165L33.8843 10.0276C32.6525 11.1683 31.054 12.3322 30.0948 13.766Z" fill="#FFBB00"/>
<path fill-rule="evenodd" clip-rule="evenodd" d="M7.00505 17.143H1.81655C1.81655 15.1794 2.93519 12.746 3.62775 11.4241C6.11914 6.67073 12.0425 1.81866 17.1231 1.81866V7.01318C14.9915 7.19057 12.4523 8.65598 10.9131 10.1468L9.41398 11.7627C8.40941 12.9936 7.13833 15.5427 7.00505 17.143ZM0 18.7018H8.30235C8.30235 13.8998 13.4369 8.42922 18.68 8.31199V0C13.6156 0 8.31932 3.15836 5.76554 5.7722C2.6332 8.9776 0 14.0896 0 18.7018Z" fill="#FFBB00"/>
<path fill-rule="evenodd" clip-rule="evenodd" d="M28.7397 9.55297C26.2306 7.88934 25.3462 7.46128 22.3124 6.75325V1.81866C25.531 1.81866 30.8266 4.13711 32.1709 5.97428L28.7397 9.55297ZM20.7555 8.31199C23.6082 8.31199 25.1783 9.06089 27.1951 10.4361C27.9208 10.9312 28.1704 11.2683 28.7982 11.6886L34.5691 6.03751C32.4182 2.90229 25.5187 0 20.7555 0V8.31199Z" fill="#FFBB00"/>
</svg>
