<svg width="100" height="101" viewBox="0 0 100 101" fill="none" xmlns="http://www.w3.org/2000/svg">
<path d="M50 84.2587C68.7777 84.2587 84 69.0086 84 50.1967C84 31.3848 68.7777 16.1348 50 16.1348C31.2223 16.1348 16 31.3848 16 50.1967C16 69.0086 31.2223 84.2587 50 84.2587Z" stroke="#D27927" stroke-width="2"/>
<path d="M51 15.133V84.2586" stroke="#D27927" stroke-width="2"/>
<path d="M73 50.1967C73 59.7033 70.3608 68.2659 66.1458 74.424C61.9277 80.5867 56.2021 84.2587 50 84.2587C43.7979 84.2587 38.0723 80.5867 33.8542 74.424C29.6392 68.2659 27 59.7033 27 50.1967C27 40.6901 29.6392 32.1276 33.8542 25.9695C38.0723 19.8068 43.7979 16.1348 50 16.1348C56.2021 16.1348 61.9277 19.8068 66.1458 25.9695C70.3608 32.1276 73 40.6901 73 50.1967Z" stroke="#D27927" stroke-width="2"/>
<path d="M63 50.1967C63 59.7845 61.4465 68.4185 58.971 74.6184C57.7322 77.7213 56.282 80.165 54.7229 81.8166C53.1657 83.4661 51.5694 84.2587 50 84.2587C48.4306 84.2587 46.8343 83.4661 45.2771 81.8166C43.718 80.165 42.2678 77.7213 41.029 74.6184C38.5535 68.4185 37 59.7845 37 50.1967C37 40.609 38.5535 31.975 41.029 25.775C42.2678 22.6722 43.718 20.2284 45.2771 18.5768C46.8343 16.9273 48.4306 16.1348 50 16.1348C51.5694 16.1348 53.1657 16.9273 54.7229 18.5768C56.282 20.2284 57.7322 22.6722 58.971 25.775C61.4465 31.975 63 40.609 63 50.1967Z" stroke="#D27927" stroke-width="2"/>
<path d="M22.5 29.1585C22.5 29.1585 39.041 35.8702 50.5 35.6703C61.2022 35.4837 77 28.6576 77 28.6576" stroke="#D27927" stroke-width="2"/>
<path d="M22.5 71.235C22.5 71.235 38.708 63.946 50.5 64.2222C61.5582 64.4813 77 71.7359 77 71.7359" stroke="#D27927" stroke-width="2"/>
<path d="M16 49.1949H84" stroke="#D27927" stroke-width="2"/>
<path d="M79 40.1785H20V60.215H79V40.1785Z" fill="white"/>
<path d="M39.4199 43.5812L37.3105 55.4152C37.2637 55.65 37.1582 55.8525 36.9941 56.0227C36.8301 56.193 36.6309 56.3016 36.3965 56.3485C36.1562 56.3896 35.9277 56.3632 35.7109 56.2693C35.5 56.1754 35.333 56.0286 35.21 55.8291L31.0264 48.9435L26.834 55.8291C26.7344 55.9993 26.5967 56.1313 26.4209 56.2253C26.251 56.3192 26.0664 56.3661 25.8672 56.3661C25.5918 56.3661 25.3486 56.2781 25.1377 56.102C24.9268 55.926 24.7979 55.6969 24.751 55.4152L22.624 43.5812H24.9443L26.4561 51.9196L30.0596 46.1611C30.1592 45.9909 30.2939 45.8587 30.4639 45.7649C30.6396 45.6709 30.8271 45.6239 31.0264 45.6239C31.2256 45.6239 31.4102 45.6709 31.5801 45.7649C31.75 45.8587 31.8906 45.9909 32.002 46.1611L35.5879 51.9196L37.0996 43.5812H39.4199ZM57.4727 43.5812L55.3633 55.4152C55.3164 55.65 55.2109 55.8525 55.0469 56.0227C54.8828 56.193 54.6836 56.3016 54.4492 56.3485C54.209 56.3896 53.9805 56.3632 53.7637 56.2693C53.5527 56.1754 53.3857 56.0286 53.2627 55.8291L49.0791 48.9435L44.8867 55.8291C44.7871 55.9993 44.6494 56.1313 44.4736 56.2253C44.3037 56.3192 44.1191 56.3661 43.9199 56.3661C43.6445 56.3661 43.4014 56.2781 43.1904 56.102C42.9795 55.926 42.8506 55.6969 42.8037 55.4152L40.6768 43.5812H42.9971L44.5088 51.9196L48.1123 46.1611C48.2119 45.9909 48.3467 45.8587 48.5166 45.7649C48.6924 45.6709 48.8799 45.6239 49.0791 45.6239C49.2783 45.6239 49.4629 45.6709 49.6328 45.7649C49.8027 45.8587 49.9434 45.9909 50.0547 46.1611L53.6406 51.9196L55.1523 43.5812H57.4727ZM75.5254 43.5812L73.416 55.4152C73.3691 55.65 73.2637 55.8525 73.0996 56.0227C72.9355 56.193 72.7363 56.3016 72.502 56.3485C72.2617 56.3896 72.0332 56.3632 71.8164 56.2693C71.6055 56.1754 71.4385 56.0286 71.3154 55.8291L67.1318 48.9435L62.9395 55.8291C62.8398 55.9993 62.7021 56.1313 62.5264 56.2253C62.3564 56.3192 62.1719 56.3661 61.9727 56.3661C61.6973 56.3661 61.4541 56.2781 61.2432 56.102C61.0322 55.926 60.9033 55.6969 60.8564 55.4152L58.7295 43.5812H61.0498L62.5615 51.9196L66.165 46.1611C66.2646 45.9909 66.3994 45.8587 66.5693 45.7649C66.7451 45.6709 66.9326 45.6239 67.1318 45.6239C67.3311 45.6239 67.5156 45.6709 67.6855 45.7649C67.8555 45.8587 67.9961 45.9909 68.1074 46.1611L71.6934 51.9196L73.2051 43.5812H75.5254Z" fill="#D27927"/>
</svg>
