<svg width="100" height="101" viewBox="0 0 100 101" fill="none" xmlns="http://www.w3.org/2000/svg">
<path d="M22 25.1512C23.6569 25.1512 25 23.8056 25 22.1457C25 20.4859 23.6569 19.1403 22 19.1403C20.3431 19.1403 19 20.4859 19 22.1457C19 23.8056 20.3431 25.1512 22 25.1512Z" stroke="#D27927" stroke-width="2"/>
<path d="M78 25.1512C79.6569 25.1512 81 23.8056 81 22.1457C81 20.4859 79.6569 19.1403 78 19.1403C76.3431 19.1403 75 20.4859 75 22.1457C75 23.8056 76.3431 25.1512 78 25.1512Z" stroke="#D27927" stroke-width="2"/>
<path d="M50 55.2058C51.6569 55.2058 53 53.8603 53 52.2004C53 50.5405 51.6569 49.1949 50 49.1949C48.3431 49.1949 47 50.5405 47 52.2004C47 53.8603 48.3431 55.2058 50 55.2058Z" stroke="#D27927" stroke-width="2"/>
<path d="M25 22.1457H45" stroke="#D27927" stroke-width="2"/>
<path d="M54 22.1457H75" stroke="#D27927" stroke-width="2"/>
<path d="M26 46.1895H20V52.2004H26V46.1895Z" stroke="#D27927" stroke-width="2"/>
<path d="M59 74.2404H40V82.255H59V74.2404Z" stroke="#D27927" stroke-width="2"/>
<path d="M57 71.235H42V74.2405H57V71.235Z" stroke="#D27927" stroke-width="2"/>
<path d="M81 46.1895H75V52.2004H81V46.1895Z" stroke="#D27927" stroke-width="2"/>
<path d="M23 45.6885C23 45.6885 25.5 22.1457 49.5 22.1456C74 22.1456 78 45.6885 78 45.6885" stroke="#D27927" stroke-width="2"/>
<path d="M37.4208 57.9817C36.7914 57.5161 36.2159 57.1243 35.787 56.8421L48.628 30.1603H51.372L64.2157 56.8477C63.7898 57.1316 63.2172 57.526 62.5897 57.9933C61.3057 58.9496 59.7066 60.273 58.7 61.6175C57.5868 63.1045 56.7336 65.2378 56.1686 66.9198C55.8811 67.7757 55.6589 68.5437 55.5085 69.0981C55.496 69.144 55.4841 69.1885 55.4726 69.2313H44.3043C44.2966 69.1984 44.2887 69.1645 44.2805 69.1299C44.1491 68.5747 43.953 67.8056 43.6934 66.9484C43.1837 65.2656 42.3951 63.1242 41.3084 61.6289C40.3155 60.2625 38.7097 58.935 37.4208 57.9817Z" stroke="#D27927" stroke-width="2"/>
<path d="M50 30.1603V49.1949" stroke="#D27927" stroke-width="2"/>
<path d="M55 17.1366H45V27.1548H55V17.1366Z" fill="white" stroke="#D27927" stroke-width="2"/>
</svg>
