<svg width="101" height="101" viewBox="0 0 101 101" fill="none" xmlns="http://www.w3.org/2000/svg">
<path d="M47.4181 66.5525C46.7058 66.5525 46.1284 67.1292 46.1284 67.8406V68.4173C46.1284 69.1287 46.7058 69.7053 47.4181 69.7053C48.1303 69.7053 48.7078 69.1287 48.7078 68.4173V67.8406C48.7078 67.1292 48.1304 66.5525 47.4181 66.5525Z" fill="#D27927"/>
<path d="M79.2465 56.7663L75.3717 53.5791C75.5667 52.297 75.6655 50.9944 75.6655 49.6958C75.6655 48.3972 75.5667 47.0943 75.3716 45.8122L79.2465 42.625C80.4848 41.6065 80.8012 39.8612 79.9994 38.4757L74.7292 29.3596C74.1486 28.3522 73.0655 27.7264 71.9023 27.7264C71.5086 27.7264 71.1215 27.797 70.7542 27.9352L66.0504 29.6948C64.0081 28.0571 61.7491 26.7525 59.3172 25.8069L58.4924 20.8659C58.2299 19.2856 56.8752 18.1384 55.271 18.1384H44.729C43.125 18.1384 41.7701 19.2857 41.508 20.8651L40.683 25.8068C38.251 26.7526 35.9918 28.0571 33.9496 29.6949L29.2512 27.9374C28.881 27.7972 28.4933 27.7261 28.0986 27.7261C26.9366 27.7261 25.8532 28.3516 25.2716 29.3583L20.0009 38.4754C19.1987 39.8615 19.5152 41.6069 20.7535 42.6252L24.6284 45.8124C24.4334 47.0944 24.3347 48.3972 24.3347 49.6958C24.3347 50.9944 24.4334 52.2972 24.6284 53.5792L20.7535 56.7665C19.5152 57.785 19.1988 59.5303 20.0006 60.9158L25.2715 70.0333C25.8536 71.0405 26.9368 71.6662 28.0986 71.6662C28.4941 71.6662 28.8826 71.5946 29.2457 71.4564L33.9493 69.6967C35.9917 71.3345 38.2508 72.6391 40.6825 73.5847L41.5072 78.5248C41.7691 80.1058 43.124 81.2532 44.7291 81.2532H55.2711C56.8746 81.2532 58.2294 80.1063 58.4922 78.5266L59.317 73.5848C61.7492 72.639 64.0083 71.3345 66.0507 69.6967L70.7496 71.4546C71.1198 71.5948 71.5076 71.6658 71.9019 71.6658C73.0635 71.6658 74.1465 71.0403 74.7285 70.0336L79.9994 60.9162C80.8012 59.5299 80.4847 57.7847 79.2465 56.7663ZM55.271 78.6771H48.7077V72.5841C48.7077 71.8727 48.1303 71.2961 47.418 71.2961C46.7057 71.2961 46.1283 71.8727 46.1283 72.5841V78.6771H44.7801V64.5504C46.4595 65.1476 48.2437 65.4596 50.071 65.4605C50.0713 65.4605 50.0791 65.4605 50.0796 65.4605C51.9128 65.4605 53.6992 65.1488 55.3782 64.5512V78.6676H55.3783C55.3432 78.673 55.3075 78.6771 55.271 78.6771ZM50.0792 62.8843H50.0722C42.7942 62.8808 36.8734 56.9641 36.8735 49.6956C36.8737 45.4656 38.87 41.5826 42.2006 39.1257V48.5225C42.2006 48.975 42.4383 49.3943 42.8267 49.627L49.4156 53.5751C49.824 53.8196 50.3342 53.8196 50.7427 53.5751L57.3315 49.627C57.72 49.3942 57.9577 48.9749 57.9577 48.5225V39.1257C61.2882 41.5826 63.2848 45.4657 63.2846 49.6958C63.2846 53.2125 61.9092 56.5228 59.412 59.0169C56.9148 61.5109 53.6004 62.8843 50.0792 62.8843ZM77.7655 59.6278L72.4945 68.7454C72.3308 69.0286 71.9857 69.1674 71.659 69.0438L66.2561 67.0225C65.8171 66.8584 65.3236 66.9449 64.967 67.2486C62.878 69.0271 60.5204 70.403 57.9574 71.3427V63.3573C59.1405 62.673 60.2425 61.8305 61.2357 60.8384C64.2202 57.8577 65.8638 53.9006 65.8638 49.6958C65.8639 43.749 62.5646 38.3757 57.2532 35.6732C56.8535 35.4697 56.3765 35.4886 55.9939 35.7227C55.6114 35.9569 55.3781 36.3728 55.3781 36.8209V47.7933L50.079 50.9687L44.7799 47.7933V36.8209C44.7799 36.3728 44.5466 35.9569 44.1641 35.7227C43.7816 35.4886 43.3046 35.4699 42.9048 35.6732C37.5936 38.3756 34.2942 43.7487 34.294 49.6956C34.2939 53.9784 35.9705 57.9737 39.0149 60.9453C39.9848 61.892 41.0551 62.6995 42.2005 63.3596V71.4011C39.5765 70.4606 37.1651 69.0641 35.0327 67.2488C34.7955 67.047 34.498 66.9411 34.1959 66.9411C34.0438 66.9411 33.8907 66.9678 33.7437 67.0229L28.3338 69.0469C28.2582 69.0757 28.1789 69.0904 28.0987 69.0904C27.8556 69.0904 27.6284 68.9583 27.5055 68.7457L22.2344 59.6277C22.0658 59.3366 22.133 58.9698 22.3934 58.7554L26.8432 55.0951C27.2043 54.7979 27.3761 54.3288 27.2918 53.8693C27.0412 52.4985 26.914 51.0945 26.914 49.6958C26.914 48.2972 27.0411 46.8931 27.2921 45.5226C27.3761 45.0629 27.2045 44.5937 26.8433 44.2968L22.3935 40.6367C22.1328 40.4222 22.0658 40.0554 22.2347 39.7639L27.5057 30.6462C27.6691 30.3634 28.0129 30.2234 28.3412 30.3479L33.744 32.3691C34.1828 32.533 34.6764 32.4467 35.0331 32.1431C37.1829 30.313 39.616 28.908 42.2648 27.9672C42.7061 27.8104 43.0278 27.427 43.1047 26.9655L44.0525 21.2878C44.1076 20.9557 44.3922 20.7147 44.7291 20.7147H55.2711C55.608 20.7147 55.8927 20.9557 55.9481 21.2887L56.8959 26.9656C56.973 27.4271 57.2946 27.8108 57.736 27.9673C60.3847 28.908 62.8176 30.3128 64.9673 32.143C65.324 32.4466 65.8174 32.5332 66.2564 32.369L71.6619 30.3467C71.7397 30.3174 71.8208 30.3025 71.9025 30.3025C72.1458 30.3025 72.3722 30.4337 72.4948 30.6464L77.766 39.7643C77.9345 40.0554 77.8675 40.4222 77.607 40.6366L73.1571 44.2968C72.796 44.594 72.6242 45.0629 72.7084 45.5226C72.959 46.8931 73.0863 48.2973 73.0863 49.6959C73.0863 51.0945 72.9591 52.4985 72.7082 53.869C72.6242 54.3285 72.7957 54.7979 73.157 55.0948L77.6067 58.7549C77.8674 58.9691 77.9343 59.3362 77.7655 59.6278Z" fill="#D27927"/>
</svg>
