<?xml version="1.0" encoding="utf-8"?>
<svg xmlns="http://www.w3.org/2000/svg" xml:space="preserve" viewBox="0 0 600 120">
  <path fill="#455A64" fill-rule="evenodd" d="M28.8 0h63.4c15.6 0 28.3 12.7 28.3 28.3v63.4c0 15.6-12.7 28.3-28.3 28.3H28.8C13.2 120 .5 107.3.5 91.7V28.3C.5 12.7 13.2 0 28.8 0z" clip-rule="evenodd"/>
  <path fill="#FFF" fill-rule="evenodd" d="m.5 96.6 32.7-27.8c3.3-2.8 7.2-4 11.5-3.1l30.2 6.8c2.8.6 5.7-.7 7-3.4l26.7-52-35.8 26.6c-3.1 2.2-6.7 3.1-10.4 2.1L35 39.3c-3.5-.8-6.7-.3-9.7 1.5L.5 56.3v40.3z" clip-rule="evenodd"/>
  <path fill="#455A64" d="m184.1 67.6-10.9 11.2v17.5h-12.7V27.8h12.7v35.1l33.9-35.1h14.3l-28.8 30.6 30.5 37.9h-14.9l-24.1-28.7zm93.2 6.5h-41c.7 3.9 2.6 6.9 5.6 9.1 3 2.3 6.8 3.4 11.3 3.4 5.7 0 10.5-1.9 14.2-5.7l6.6 7.5c-2.4 2.8-5.3 4.9-8.9 6.4-3.6 1.4-7.6 2.1-12.1 2.1-5.7 0-10.8-1.1-15.2-3.4-4.4-2.3-7.7-5.5-10.1-9.5-2.4-4.1-3.6-8.7-3.6-13.8 0-5.1 1.2-9.7 3.5-13.8 2.3-4.1 5.5-7.3 9.6-9.5 4.1-2.3 8.7-3.4 13.9-3.4 5.1 0 9.6 1.1 13.7 3.4 4 2.3 7.1 5.4 9.4 9.5 2.3 4.1 3.4 8.8 3.4 14.1-.1.8-.1 2-.3 3.6zm-36.1-17.4c-2.7 2.3-4.4 5.4-4.9 9.3H266c-.5-3.8-2.1-6.8-4.8-9.2-2.7-2.3-6-3.5-10-3.5-4-.1-7.3 1.1-10 3.4zM293 95.3c-4-1.1-7.3-2.5-9.7-4.2l4.7-9.3c2.4 1.6 5.2 2.8 8.5 3.8s6.5 1.4 9.7 1.4c7.3 0 11-1.9 11-5.8 0-1.8-.9-3.1-2.8-3.8-1.9-.7-4.8-1.4-9-2.1-4.3-.6-7.8-1.4-10.5-2.3-2.7-.8-5-2.3-7-4.4-2-2.1-3-5.1-3-8.8 0-5 2.1-8.9 6.2-11.9s9.8-4.4 16.8-4.4c3.6 0 7.2.4 10.8 1.2 3.6.8 6.5 1.9 8.8 3.3l-4.7 9.3c-4.4-2.6-9.4-3.9-15-3.9-3.6 0-6.3.6-8.2 1.6-1.9 1.1-2.8 2.5-2.8 4.3 0 1.9 1 3.3 3 4.2 2 .8 5.1 1.6 9.3 2.3 4.2.7 7.6 1.4 10.3 2.3 2.7.8 5 2.3 6.9 4.3 1.9 2 2.9 4.9 2.9 8.6 0 4.9-2.1 8.8-6.4 11.8-4.2 2.9-10 4.4-17.3 4.4-4.3-.2-8.5-.8-12.5-1.9zm87.5-8.8v9.8h-45.1v-7.7L364 53.8h-28.1V44h43.8v7.7l-28.8 34.7 29.6.1zm24.9-45.2v3.1h14.4v9.8h-14v42.1h-12.2V54.2H385v-9.8h8.6v-3.3c0-5.6 1.6-10 4.9-13.3 3.2-3.2 7.8-4.8 13.8-4.8 4.7 0 8.4 1 11.1 2.8L420 35c-2.1-1.4-4.4-2.1-6.8-2.1-5.2 0-7.8 2.8-7.8 8.4zM428 23.7h12.2v72.6H428V23.7zm37.5 69.9c-4.2-2.3-7.5-5.5-9.9-9.5-2.4-4.1-3.6-8.7-3.6-13.8 0-5.2 1.2-9.8 3.6-13.8 2.4-4 5.7-7.2 9.9-9.5s9-3.4 14.3-3.4c5.3 0 10.2 1.1 14.4 3.4 4.2 2.3 7.5 5.5 9.9 9.5 2.4 4 3.6 8.6 3.6 13.8 0 5.2-1.2 9.8-3.6 13.8-2.4 4.1-5.7 7.3-9.9 9.5s-9 3.4-14.4 3.4c-5.3 0-10-1.1-14.3-3.4zM491 82c2.9-3 4.4-6.9 4.4-11.8s-1.5-8.8-4.4-11.8c-2.9-3-6.6-4.5-11.2-4.5-4.5 0-8.2 1.5-11.1 4.5-2.9 3-4.4 7-4.4 11.8 0 4.9 1.5 8.8 4.4 11.8 2.9 3 6.6 4.5 11.1 4.5S488 85 491 82zm108.5-38-19.3 52.3h-11.8l-13.5-36-13.7 36h-11.8l-19-52.3h11.5l13.8 38.6L550.1 44h10.3l14.1 38.8L588.7 44h10.8z"/>
</svg>