<svg width="86" height="55" viewBox="0 0 86 55" fill="none" xmlns="http://www.w3.org/2000/svg">
<path d="M5.21039 42.7388H0.0503907L18.1104 0.498766H22.4904L40.5504 42.7388H35.0904L29.6904 30.0188H10.5504L5.21039 42.7388ZM27.7104 25.2188L20.1504 7.27877L12.5904 25.2188H27.7104ZM50.5751 54.7388H45.7751V15.7388H50.5751V18.9188C51.5351 17.7988 52.8551 16.8988 54.5351 16.2188C56.2151 15.4988 57.9551 15.1388 59.7551 15.1388C63.5951 15.1388 66.6151 16.4188 68.8151 18.9788C71.0951 21.4988 72.2351 24.7788 72.2351 28.8188C72.2351 32.9388 70.9351 36.3988 68.3351 39.1988C65.7751 41.9588 62.3951 43.3388 58.1951 43.3388C54.9551 43.3388 52.4151 42.7188 50.5751 41.4788V54.7388ZM58.3751 19.6388C55.1751 19.6388 52.5751 20.8788 50.5751 23.3588V36.7388C52.6951 38.1388 55.0951 38.8388 57.7751 38.8388C60.6151 38.8388 62.8751 37.9388 64.5551 36.1388C66.2751 34.2988 67.1351 31.9188 67.1351 28.9988C67.1351 26.1588 66.3551 23.8988 64.7951 22.2188C63.2351 20.4988 61.0951 19.6388 58.3751 19.6388ZM85.2349 42.7388H80.4349V15.7388H85.2349V42.7388ZM79.8349 5.59877C79.8349 4.75877 80.1349 4.07877 80.7349 3.55877C81.3349 2.99877 82.0749 2.71877 82.9549 2.71877C83.7949 2.71877 84.4949 2.99877 85.0549 3.55877C85.6149 4.07877 85.8949 4.75877 85.8949 5.59877C85.8949 6.51877 85.6149 7.27877 85.0549 7.87877C84.4949 8.43877 83.7949 8.71877 82.9549 8.71877C82.0749 8.71877 81.3349 8.43877 80.7349 7.87877C80.1349 7.27877 79.8349 6.51877 79.8349 5.59877Z" fill="#39383D"/>
</svg>
