<svg width="73" height="84" viewBox="0 0 73 84" fill="none" xmlns="http://www.w3.org/2000/svg">
<path fill-rule="evenodd" clip-rule="evenodd" d="M37.0792 2.57027C37.1344 5.05917 37.6459 4.70592 37.4177 7.03926L37.0792 23.2227C38.8181 23.635 41.2472 25.2712 42.8444 26.2026L59.6745 36.2041L67.623 25.4164C68.6498 24.0435 69.6702 23.1055 70.1035 21.4525C67.4786 20.7384 39.4327 3.2103 37.0792 2.57027ZM35.3412 24.4034V2.57027C33.5792 3.05006 33.1615 3.94966 31.2983 4.94391C29.8759 5.70295 28.5519 6.22488 27.1055 7.1629L19.0061 11.8971C15.7858 13.8893 4.08057 20.3973 2.89735 22.0428C3.23134 23.3173 13.9834 39.155 17.3812 39.155C19.2674 39.155 28.7654 33.4678 31.1815 31.9675C37.6662 27.939 34.8802 28.0927 49.4957 36.5415C56.5738 40.6337 53.0601 39.1316 57.9365 37.9743C56.7422 36.3128 37.3424 25.4811 35.3412 24.4034ZM37.0792 32.0734V52.1364L48.088 58.6266C49.5352 55.8407 57.3844 46.5729 57.9365 44.4654C56.7229 42.7768 50.8316 39.84 47.9821 38.082L37.0792 32.0734ZM35.3412 53.9065V32.0734C32.3077 32.899 17.521 43.0495 14.4848 43.876C15.0433 46.3161 19.5637 51.8993 21.3026 54.0433C25.2378 58.8927 24.2736 59.0127 30.1271 62.167C32.063 61.124 34.1395 59.842 35.9208 58.6266C37.6828 59.1064 39.0684 60.3509 40.9435 61.2533C43.3238 62.3994 43.3293 61.7124 45.7702 60.3967C44.5935 58.7625 42.895 58.1327 40.9564 57.0392C39.1392 56.014 37.2209 54.4172 35.3412 53.9065ZM37.0792 79.28C38.8172 78.0946 45.1501 69.1969 46.3499 66.888C44.7131 65.7719 43.3652 65.1497 41.5977 64.0524C36.0791 60.6245 37.0792 57.639 37.0792 79.28ZM35.3412 79.28V61.5775C32.1457 63.2999 29.2024 65.2012 26.0714 66.888L35.3412 79.28ZM23.7546 65.7072C25.949 65.1112 25.2157 64.5537 27.8094 63.9371V62.7573C23.0986 61.6394 18.9012 54.1904 15.1472 49.1011C13.7855 47.2532 12.1322 45.6649 11.5875 43.2856C12.9603 42.5463 13.9502 41.9175 15.6431 41.5155V40.3347C11.2654 39.1446 4.78349 28.7927 1.72146 24.4202C0.642211 22.8787 0.506963 23.3848 0 21.4525C1.00381 20.0591 2.5063 19.3347 4.05572 18.5016L26.8368 5.12099C28.7902 4.06865 34.0033 0.155396 36.033 0.00170898C37.3 -0.0948105 43.609 3.91876 45.29 4.82961C48.6198 6.63537 51.4545 8.35393 54.4926 10.2084C57.5408 12.0685 60.5633 13.8837 63.7339 15.5489C66.1574 16.8214 70.7072 20.239 73 20.8631C72.3762 23.2433 70.8083 24.4531 69.5174 26.167C65.5482 31.4372 61.4318 39.2309 56.778 40.3347C58.5418 43.0176 59.2227 41.6373 60.8329 43.876C60.3093 45.8738 60.4961 44.8768 59.3598 46.5055L49.9814 59.3754C48.0989 61.555 46.4033 61.6609 45.1906 63.3476C46.1834 64.727 47.7346 65.2668 49.2463 66.2976C48.7973 68.0106 47.2957 69.5436 46.2661 70.9343C43.885 74.1503 38.7243 82.0874 35.9208 84L29.5548 75.1418C27.791 72.8085 24.0039 68.7658 23.7546 65.7072Z" fill="#24ADED"/>
<path fill-rule="evenodd" clip-rule="evenodd" d="M46.9272 12.6014C49.9275 13.4176 53.6741 22.2657 55.4388 25.1753C56.5567 27.0157 57.2955 27.5339 57.3553 30.303C54.5647 29.544 53.7882 26.0205 51.5432 22.0622C49.8595 19.0926 47.0054 16.1849 46.9272 12.6014Z" fill="#24ADED"/>
<path fill-rule="evenodd" clip-rule="evenodd" d="M41.1342 13.1915C43.3342 13.7894 43.636 15.582 45.005 18.1C46.2186 20.3302 47.4773 21.7396 48.0864 24.4028C46.0604 24.2303 46.0925 23.8817 45.2525 22.5679C44.5486 21.4641 44.3113 20.7416 43.636 19.4943C41.7452 16.0074 40.204 15.2381 41.1342 13.1915Z" fill="#24ADED"/>
<path fill-rule="evenodd" clip-rule="evenodd" d="M41.1349 43.8758C42.9023 44.3565 42.2123 43.8945 43.7139 46.5587C44.1564 47.3439 44.1969 47.3749 44.5815 48.0346C45.0213 48.7842 45.4731 49.473 45.9101 50.2227C46.7952 51.7417 46.763 51.3022 46.9277 53.316C44.6763 53.1258 45.4923 53.4753 44.3174 51.8438C42.9538 49.9528 40.2663 45.7865 41.1349 43.8758Z" fill="#24ADED"/>
<path fill-rule="evenodd" clip-rule="evenodd" d="M60.8329 26.7628C58.9247 25.48 60.4023 26.7591 59.2642 24.8212C58.7085 23.8757 54.0897 16.6508 58.0055 18.911L62.2011 26.0057C62.2986 26.5389 63.3972 25.6337 62.0585 26.9091C60.4833 28.4075 60.9019 26.8087 60.8329 26.7628Z" fill="#24ADED"/>
<path fill-rule="evenodd" clip-rule="evenodd" d="M45.7703 41.5148C48.2674 41.7922 46.6168 41.1952 47.7817 42.4162C49.1406 43.8425 50.8363 47.3762 50.9844 49.1857C49.3918 49.0499 49.5942 49.9701 47.5157 46.2274C46.6812 44.7243 45.9424 43.6251 45.7703 41.5148Z" fill="#24ADED"/>
</svg>
