<svg width="66" height="67" viewBox="0 0 66 67" fill="none" xmlns="http://www.w3.org/2000/svg">
<path fill-rule="evenodd" clip-rule="evenodd" d="M32.9998 41.7126C36.3736 43.9438 60.6362 62.7581 61.8769 64.6542H4.12311C5.32908 62.796 29.6321 43.9397 32.9998 41.7126ZM3.60727 25.0276C5.3952 23.8317 9.23105 20.2503 10.8268 19.8133C10.8268 22.8323 9.77504 27.4738 12.3735 29.1987C15.4772 24.4379 11.8417 12.8831 13.7439 7.12123C15.8702 6.40362 50.1298 6.40362 52.2561 7.12123C54.1583 12.8831 50.5228 24.4379 53.6261 29.1987C56.2249 27.4738 55.1732 22.8323 55.1732 19.8133C56.5873 20.2004 61.4948 24.1772 62.3927 25.5488C59.5061 27.4797 44.2938 38.9292 43.9612 41.0569C46.0401 42.5833 49.4544 38.5042 53.8322 35.1427C55.7548 33.6666 62.3458 28.0705 63.9394 27.6344V62.5686C58.7622 59.1448 53.6563 54.7137 48.6757 50.8896C29.3423 36.0439 36.6577 36.0439 17.3243 50.8896C12.4106 54.6622 7.13537 59.2125 2.06052 62.5686V27.6344C3.76601 28.1015 9.89134 33.457 11.8621 34.9302C16.2048 38.1774 19.9105 42.6196 22.0384 41.0569C21.5498 37.9298 6.10246 28.8059 3.60727 25.0276ZM35.4897 4.08199L30.5095 4.1497C33.1071 1.32671 34.1829 2.92738 35.4897 4.08199ZM10.8268 16.1638L0.0199671 25.021L0 65.5629C3.19836 67.8251 11.8164 66.7398 15.9832 66.7398C27.3275 66.7398 38.6721 66.7398 50.0167 66.7398C54.1831 66.7398 62.8016 67.8251 65.8694 65.5629L66 25.1617L55.0749 16.2892C55.1732 8.5193 57.2468 4.11507 48.4757 4.16541C46.1679 4.17862 41.2877 4.63166 39.4059 3.95119C37.3678 3.21418 36.261 0.759701 33.5156 0C30.2593 0.0883085 29.9451 1.79633 27.5682 3.37185C25.3298 4.85618 21.3907 4.18187 18.5608 4.17073C8.72865 4.13235 10.8268 7.20957 10.8268 16.1638Z" fill="#24ADED"/>
<path fill-rule="evenodd" clip-rule="evenodd" d="M19.9245 13.3956C21.8534 15.7282 28.9507 14.6312 32.3772 14.6312C35.8041 14.6312 42.9014 15.7282 44.8302 13.3956C41.8525 11.8373 31.2495 12.5943 25.6314 12.5712C22.4439 12.5581 22.4919 12.1623 19.9245 13.3956Z" fill="#24ADED"/>
<path fill-rule="evenodd" clip-rule="evenodd" d="M19.9245 20.0933C21.8534 23.5919 28.9507 21.947 32.3772 21.947C35.8041 21.947 42.9014 23.5919 44.8302 20.0933C41.8525 17.756 31.2495 18.8914 25.6314 18.8567C22.4439 18.8372 22.4919 18.244 19.9245 20.0933Z" fill="#24ADED"/>
<path fill-rule="evenodd" clip-rule="evenodd" d="M32.3774 27.0502C32.7964 27.9264 32.4993 28.1595 34.4896 28.3588C37.2352 28.6338 43.3191 28.822 44.8302 27.0867C43.184 25.6856 33.4106 25.7503 32.3774 27.0502Z" fill="#24ADED"/>
</svg>
