<svg width="256" height="256" viewBox="0 0 105 52" fill="none" xmlns="http://www.w3.org/2000/svg">
<path d="M0 28.6243C0 18.1565 0 10.4687 0 0.00101084C2.38122 -0.0363812 5.1143 0.960988 5.32182 3.42931V10.4284C6.83332 9.19311 8.6691 8.57569 10.8287 8.57569C13.8827 8.57569 16.2892 9.58905 18.0477 11.6162C19.8369 13.5797 20.7317 16.1928 20.7317 19.4551C20.7317 22.9707 19.6518 25.7738 17.4924 27.8641C15.3636 29.9546 12.4791 30.9997 8.83872 30.9997C7.23441 30.9997 5.62259 30.778 4.003 30.3347C2.38326 29.8912 1.04903 29.321 0 28.6243ZM9.5792 13.7065C7.88236 13.7065 6.46323 14.3874 5.32182 15.7495V24.8236C6.46323 25.5521 7.72815 25.9164 9.11628 25.9164C10.8748 25.9164 12.3016 25.3698 13.3969 24.2773C14.492 23.1845 15.0397 21.7039 15.0397 19.8352C15.0397 17.9032 14.5306 16.3988 13.5126 15.3218C12.4946 14.2449 11.1834 13.7065 9.5792 13.7065ZM50.9034 22.3531C50.9034 13.8609 50.9034 8.58504 50.9034 0.09283C53.1144 0.018046 56.0784 0.865709 56.2253 3.33403V8.44995C58.4618 8.44995 57.3958 8.44995 59.6323 8.44995C62.3523 8.73898 62.9352 11.8706 62.9352 13.5808H56.2253V22.0205C56.2253 24.5859 57.0581 25.8687 58.7241 25.8687C62.6333 25.8687 62.8686 27.9092 63.5368 28.8618C61.8399 30.2554 59.7884 30.9522 57.3821 30.9522C55.13 30.9522 53.4872 30.2475 52.4537 28.8381C51.4202 27.4286 50.9034 25.267 50.9034 22.3531ZM27.164 27.8641C25.0969 25.7421 24.0634 23.05 24.0634 19.7877C24.0634 16.5254 25.0969 13.849 27.164 11.7587C29.2309 9.63669 31.9766 8.57569 35.4012 8.57569C38.7946 8.57569 41.5249 9.63669 43.5919 11.7587C45.6898 13.849 46.7387 16.5254 46.7387 19.7877C46.7387 23.0182 45.6898 25.7104 43.5919 27.8641C41.4942 29.9546 38.7639 30.9997 35.4012 30.9997C31.9766 30.9997 29.2309 29.9546 27.164 27.8641ZM31.3751 15.4169C30.2954 16.5569 29.7553 18.014 29.7553 19.7877C29.7553 21.5613 30.2876 23.0262 31.352 24.1822C32.4162 25.3383 33.766 25.9164 35.4012 25.9164C37.067 25.9164 38.4321 25.3462 39.4965 24.206C40.5608 23.0657 41.0931 21.5931 41.0931 19.7877C41.0931 18.014 40.5531 16.5569 39.4734 15.4169C38.3936 14.2766 37.0362 13.7065 35.4012 13.7065C33.797 13.7065 32.4548 14.2766 31.3751 15.4169Z" fill="#15203D"/>
<path d="M67.3315 22.3526C67.3315 13.8604 67.3315 8.58448 67.3315 0.0922749C69.5669 -0.0821709 72.5795 0.989694 72.6534 3.33348V8.44939C74.8899 8.44939 73.8239 8.44939 76.0604 8.44939C78.9505 8.76331 79.3633 11.87 79.3633 13.5802H72.6534V22.02C72.6534 24.5854 73.4862 25.8682 75.1522 25.8682C79.0614 25.8682 79.2726 27.9584 79.9649 28.8612C78.268 30.2548 76.2165 30.9517 73.8102 30.9517C71.5581 30.9517 69.9153 30.247 68.8818 28.8375C67.8483 27.4281 67.3315 25.2665 67.3315 22.3526ZM85.4255 27.8635C83.3584 25.7415 82.3249 23.0495 82.3249 19.7872C82.3249 16.5249 83.3584 13.8485 85.4255 11.7581C87.4924 9.63614 90.238 8.57514 93.6625 8.57514C97.0561 8.57514 99.7864 9.63614 101.853 11.7581C103.951 13.8485 105 16.5249 105 19.7872C105 23.0177 103.951 25.7099 101.853 27.8635C99.7555 29.954 97.0252 30.9992 93.6625 30.9992C90.238 30.9992 87.4924 29.954 85.4255 27.8635ZM89.6365 15.4164C88.5567 16.5564 88.0169 18.0135 88.0169 19.7872C88.0169 21.5607 88.5491 23.0256 89.6134 24.1816C90.6777 25.3378 92.0275 25.9158 93.6625 25.9158C95.3284 25.9158 96.6936 25.3456 97.7579 24.2055C98.8222 23.0651 99.3544 21.5925 99.3544 19.7872C99.3544 18.0135 98.8146 16.5564 97.7347 15.4164C96.655 14.2761 95.2975 13.706 93.6625 13.706C92.0583 13.706 90.7163 14.2761 89.6365 15.4164Z" fill="#24ADED"/>
<path d="M16.7498 40.5374V41.9391H16V38.0609C16.1788 38.0609 16.3718 38.0591 16.5791 38.0554C16.7904 38.0517 17.0017 38.0499 17.2131 38.0499C17.5138 38.0499 17.7739 38.0849 17.9933 38.1551C18.2168 38.2216 18.3895 38.3158 18.5114 38.4377C18.6334 38.5559 18.7228 38.687 18.7797 38.831C18.8366 38.9714 18.865 39.1265 18.865 39.2964C18.865 39.6473 18.7268 39.9446 18.4505 40.1884C18.1782 40.4321 17.7962 40.554 17.3045 40.554C17.0566 40.554 16.8717 40.5485 16.7498 40.5374ZM17.2862 38.687L16.7498 38.6981V39.8892C16.9652 39.9077 17.1419 39.9169 17.2801 39.9169C17.5199 39.9169 17.7109 39.8633 17.8531 39.7562C17.9994 39.6491 18.0726 39.494 18.0726 39.2909C18.0726 38.8883 17.8104 38.687 17.2862 38.687Z" fill="#15203D"/>
<path d="M28.4981 41.9391H25.8282V38.0609H26.578V41.3019H28.4981V41.9391Z" fill="#15203D"/>
<path d="M35.4648 41.9391H34.7089L36.5133 38.0499H37.1716L38.976 41.9391H38.1774L37.7324 40.9474H35.9098L35.4648 41.9391ZM37.4459 40.3102L36.8242 38.9307L36.1963 40.3102H37.4459Z" fill="#15203D"/>
<path d="M46.1892 38.6981H44.8054V38.0609H48.3227V38.6981H46.939V41.9391H46.1892V38.6981Z" fill="#15203D"/>
<path d="M55.8185 41.9391H55.0687V38.0609H57.507V38.6981H55.8185V39.795H57.3241V40.4321H55.8185V41.9391Z" fill="#15203D"/>
<path d="M64.1751 40C64.1751 39.4349 64.3824 38.9603 64.7969 38.5762C65.2195 38.1921 65.7519 38 66.394 38C67.0361 38 67.5664 38.1847 67.985 38.554C68.4076 38.9271 68.6189 39.409 68.6189 40C68.6189 40.5799 68.4076 41.0582 67.985 41.4349C67.5623 41.8116 67.032 42 66.394 42C65.7519 42 65.2216 41.8153 64.803 41.446C64.3844 41.0766 64.1751 40.5946 64.1751 40ZM64.9676 40C64.9676 40.3915 65.1037 40.7165 65.376 40.9751C65.6483 41.2336 65.9876 41.3629 66.394 41.3629C66.8329 41.3629 67.1803 41.2336 67.4364 40.9751C67.6965 40.7165 67.8265 40.3915 67.8265 40C67.8265 39.6048 67.6883 39.2779 67.412 39.0194C67.1356 38.7645 66.7963 38.6371 66.394 38.6371C65.9836 38.6371 65.6422 38.7645 65.3699 39.0194C65.1017 39.2742 64.9676 39.6011 64.9676 40Z" fill="#15203D"/>
<path d="M76.3321 40.4875V41.9391H75.5823V38.0609C75.7937 38.0609 76.0233 38.0591 76.2711 38.0554C76.519 38.0517 76.7222 38.0499 76.8807 38.0499C77.9129 38.0499 78.429 38.4488 78.429 39.2465C78.429 39.542 78.3457 39.7858 78.1791 39.9778C78.0125 40.1625 77.8215 40.2881 77.6061 40.3546L78.9411 41.9391H78.0328L76.8563 40.4875H76.3321ZM76.8441 38.687C76.8238 38.687 76.7913 38.6888 76.7466 38.6925C76.7019 38.6925 76.6389 38.6944 76.5576 38.6981C76.4764 38.6981 76.4012 38.6981 76.3321 38.6981V39.8504H76.8198C77.0595 39.8504 77.2546 39.7969 77.405 39.6898C77.5594 39.5826 77.6366 39.4367 77.6366 39.2521C77.6366 38.8753 77.3724 38.687 76.8441 38.687Z" fill="#15203D"/>
<path d="M86.4401 41.9391H85.6903V38.0609H86.4462L87.9031 39.8726L89.2929 38.0609H90V41.9391H89.2563V39.1357L87.9092 40.8587H87.7994L86.4401 39.1524V41.9391Z" fill="#15203D"/>
</svg>
