<svg width="89" height="81" viewBox="0 0 89 81" fill="none" xmlns="http://www.w3.org/2000/svg">
<path fill-rule="evenodd" clip-rule="evenodd" d="M14.003 28.6291V53.069C4.28094 53.069 2.10256 45.4005 2.10256 37.0084C2.10256 29.1925 6.86116 23.7415 14.7028 23.7415C14.5206 25.9259 14.003 26.2219 14.003 28.6291ZM74.2046 23.7415C89.2599 23.7415 89.1318 43.7942 83.3663 49.6387C80.5603 52.4839 78.2794 53.069 74.2046 53.069C75.3338 48.2347 75.4225 26.4602 74.2046 23.7415ZM14.7028 21.6468C-0.554032 21.6468 0.00257396 33.6862 0.00257396 42.5954C0.00257396 50.0101 6.82299 55.8623 16.1026 55.8623C16.1026 33.461 12.873 16.4619 30.9145 5.69749C38.028 1.45274 49.2421 1.0478 56.6798 4.91258C71.7479 12.7425 72.8049 24.6664 72.8049 41.8968C72.8049 50.7249 71.5882 57.3474 67.621 62.5617C64.4045 66.7876 58.5028 73.1701 51.8043 73.3192C50.0433 68.4672 39.4753 70.3134 37.7841 71.9024C36.863 72.7676 32.1869 81 45.5039 81C47.4754 81 46.8002 80.6982 47.6035 79.6038C44.5516 75.4483 37.1553 82.0908 39.2036 73.3192C43.0119 72.4343 49.9818 71.0537 50.4037 76.1124C60.739 75.8823 71.4864 64.5037 73.5043 55.8623C81.5767 55.8623 88.9053 50.2742 88.9053 42.5954C88.9053 34.9194 90.0751 30.1547 84.1934 24.9498C81.1453 22.2523 79.8215 21.6468 74.2046 21.6468C66.7053 7.50809 61.0596 0 42.0034 0C26.9251 0 19.649 12.3228 14.7028 21.6468Z" fill="#24ADED"/>
<path fill-rule="evenodd" clip-rule="evenodd" d="M39.2035 25.1384C41.0556 26.4921 41.0839 28.6294 44.1042 28.6294C47.8928 28.6294 47.6272 26.6563 49.7042 25.1384C55.5674 28.233 49.4699 26.4597 51.7381 31.4145C53.6998 35.6985 57.4839 34.2454 58.8044 34.2155C58.9616 36.1014 59.1328 36.1153 59.5043 37.7073C55.4513 38.0438 54.604 39.6428 54.604 43.2934C54.604 45.0303 56.3543 45.9196 57.4043 47.4833L55.1545 49.4282C52.1782 48.7452 52.3678 46.7962 48.7671 48.565C43.8098 51.0004 48.2885 51.9196 44.8036 54.4656C40.4423 53.3044 44.662 51.7374 40.618 48.8082C37.8301 46.7888 36.3146 48.1466 33.6034 49.578L31.6533 47.3338C31.6718 47.3039 39.412 38.538 29.4035 37.7073C29.775 36.1153 29.9461 36.1014 30.1029 34.2155C33.3506 34.2884 32.5284 35.0078 34.3743 34.2139C35.224 33.8482 36.7559 32.3328 37.1503 31.4341C39.0049 27.2053 33.6822 28.0525 39.2035 25.1384ZM33.6034 25.1384C33.8764 28.4111 35.7789 28.8313 34.4823 30.9039C33.0862 33.1354 31.8417 31.4927 28.7032 31.4227C27.7004 35.7149 27.3031 31.5717 27.3031 39.8024C29.9338 39.8606 30.1776 39.6362 31.6968 41.7043L28.8621 46.2455C30.4547 49.3888 30.4182 50.2434 33.6034 52.3709C38.2804 51.1257 33.8624 49.571 39.9038 50.9746C39.9038 57.1237 40.4805 56.5612 46.2037 56.5612C48.316 56.5612 48.1917 55.3938 48.5783 53.7245C49.0339 51.7604 48.3365 52.2329 50.4037 50.2765C53.0562 50.9824 52.1691 51.6429 55.3043 52.3709C63.6045 46.8269 57.2089 44.5533 57.096 42.6268C56.9454 40.0596 59.125 39.8573 61.6047 39.8024C61.6047 31.5717 61.2069 35.7149 60.2041 31.4227C57.0661 31.4927 55.8211 33.1354 54.4255 30.9039C53.1284 28.8313 55.0309 28.4111 55.3043 25.1384C52.9613 23.9015 50.9788 22.4201 47.6034 22.3456C46.4656 27.218 42.4422 27.218 41.3039 22.3456C37.929 22.4201 35.9464 23.9015 33.6034 25.1384Z" fill="#24ADED"/>
<path fill-rule="evenodd" clip-rule="evenodd" d="M39.2036 39.1034C39.2036 32.5911 49.7043 32.5911 49.7043 39.1034C49.7043 45.4948 39.2036 45.4306 39.2036 39.1034ZM37.1036 38.4053C37.1036 49.5279 51.8043 49.4469 51.8043 38.4053C51.8043 29.3433 37.1036 29.2778 37.1036 38.4053Z" fill="#24ADED"/>
</svg>
