<svg width="69" height="67" viewBox="0 0 69 67" fill="none" xmlns="http://www.w3.org/2000/svg">
<path fill-rule="evenodd" clip-rule="evenodd" d="M6.74019 56.0567C11.8607 63.7092 17.8176 66.2445 26.9439 64.1847C28.9865 63.723 30.3427 63.6577 30.9044 61.5526C27.5004 59.9179 18.3941 67.5206 9.94366 56.6981C8.85258 55.2999 8.67638 54.325 7.28964 53.3091C5.19382 53.797 4.99149 54.4691 2.89568 54.9578L6.82217 42.8943C10.2925 43.1622 14.5653 46.9483 18.2728 47.8123V48.9122C16.3567 49.359 15.4069 49.7525 13.8797 50.5607C14.8234 54.6139 17.8838 59.7965 22.6668 59.9039C22.3223 55.7582 20.9713 59.8785 16.6253 51.6604C18.7935 51.1542 20.4986 49.9672 22.6668 49.4619C22.4339 46.6577 20.2771 46.6175 14.9778 43.9651C12.6988 42.8253 7.99612 40.118 5.64215 39.569C4.11935 42.7433 2.5006 48.7551 1.31794 52.2793C-1.76604 61.4706 0.772833 57.4479 6.74019 56.0567Z" fill="#24ADED"/>
<path fill-rule="evenodd" clip-rule="evenodd" d="M61.6597 17.5854C64.0407 17.5854 63.3543 16.7118 66.0528 16.4866C65.2844 18.0899 62.367 26.6676 62.2091 28.5782C60.7561 28.2386 57.359 26.6824 56.0621 25.9353C53.1552 24.2595 52.7888 24.8488 50.1261 22.5325C52.0257 22.0891 53.6619 21.2773 55.0696 20.3338C53.4779 17.0155 51.1047 11.3932 46.2816 10.9908C46.3497 14.0482 45.6223 11.806 49.1772 15.2386C50.7942 16.8 51.1483 17.479 52.3231 19.235C50.1262 20.3975 47.6579 20.6534 46.2816 22.5325C46.9584 25.0679 49.7843 25.0311 54.0474 27.4016C55.7473 28.3477 61.3187 31.1599 63.3072 31.3257L68.0535 17.3708C69.2056 14.0865 70.8915 10.79 62.2091 15.3878C56.615 7.02834 53.136 6.59457 45.1836 6.59457C43.7166 6.59457 34.8092 8.15156 38.658 10.0001C39.6096 10.4566 43.12 8.42216 47.7094 8.61679C57.3616 9.02699 59.9459 17.5854 61.6597 17.5854Z" fill="#24ADED"/>
<path fill-rule="evenodd" clip-rule="evenodd" d="M18.2729 2.19848C30.6445 2.19848 29.7009 23.6321 17.7234 23.6321C8.50725 23.6321 5.95353 2.19848 18.2729 2.19848ZM17.7234 25.8298C21.813 25.8298 23.7876 25.4631 26.7538 21.1263C32.4796 12.752 29.1706 0 18.2729 0C2.98555 0 5.3125 25.8298 17.7234 25.8298Z" fill="#24ADED"/>
<path fill-rule="evenodd" clip-rule="evenodd" d="M41.339 42.3167C41.339 30.0114 58.9141 28.7354 58.9141 42.3167C58.9141 52.1922 49.588 58.731 43.8361 50.2607C42.649 48.5134 41.339 44.887 41.339 42.3167ZM39.1429 41.2179C39.1429 61.5012 61.1102 60.6467 61.1102 42.3167C61.1102 28.0223 43.9599 27.0221 40.2881 36.8688C40.0979 37.3776 39.1429 40.8495 39.1429 41.2179Z" fill="#24ADED"/>
<path fill-rule="evenodd" clip-rule="evenodd" d="M33.6509 63.2012C33.6509 68.5618 59.1775 67.0414 63.7485 65.8413C66.5325 65.1108 67.4412 63.7196 66.3999 60.719C65.014 56.7287 63.1833 54.4079 58.9141 54.4079C59.1905 57.7454 59.8202 55.4797 62.1838 57.7306C62.7681 58.2874 64.4052 61.0114 64.4052 62.1015C64.4052 64.8342 52.8255 64.8499 50.1261 64.8499C44.7658 64.8499 40.1677 64.2075 35.8479 63.2012C36.9363 58.5213 38.2429 56.9059 41.8885 56.0567V54.4079C38.5246 54.4079 37.5216 54.6253 36.0537 56.8125C35.2025 58.0815 33.6509 61.4032 33.6509 63.2012Z" fill="#24ADED"/>
<path fill-rule="evenodd" clip-rule="evenodd" d="M1.79767 32.4245C1.79767 38.2642 22.9189 36.5945 27.0128 36.2244C30.1195 35.9434 32.1508 35.2286 34.749 34.6229C34.9321 32.4209 35.308 33.0537 34.6713 30.891C34.3879 29.9231 33.6221 28.3678 33.1224 27.4575L30.8547 24.7519C29.4715 23.8424 28.3743 23.5735 27.0599 24.181C27.4376 27.6337 32.3871 25.5565 32.552 32.9742C21.9778 35.4398 19.5541 34.3995 11.1359 34.0713C8.02143 33.95 6.62685 33.1933 3.99465 32.9742C6.22042 28.3319 3.67019 28.6504 10.0353 25.2806C9.02877 23.776 9.32008 23.701 7.74756 24.0397C6.54833 24.298 5.34389 25.1725 4.66883 25.9545C3.89522 26.85 1.79767 31.0751 1.79767 32.4245Z" fill="#24ADED"/>
</svg>
