<svg width="109" height="81" viewBox="0 0 109 81" fill="none" xmlns="http://www.w3.org/2000/svg">
<path d="M54.1295 0C37.4332 0 21.7546 1.26562 13.4064 3.03552C7.84429 4.30115 3.03299 8.09802 2.02529 13.9219C1.01758 19.9929 0 29.1094 0 40.5C0 51.8906 1.00771 60.75 2.27228 67.0781C3.28986 72.6449 8.09127 76.6989 13.6534 77.9645C22.5153 79.7344 37.6802 81 54.3765 81C71.0728 81 86.2377 79.7344 95.0897 77.9645C100.662 76.6989 105.463 72.902 106.471 67.0781C107.488 60.75 108.753 51.6434 109 40.2528C109 28.8622 107.735 19.7457 106.471 13.4176C105.463 7.85083 100.662 3.79688 95.0897 2.53125C86.2377 1.26562 70.8159 0 54.1295 0ZM54.1295 5.0625C72.3373 5.0625 86.9985 6.57532 94.082 7.84094C97.8757 8.85938 100.909 11.3906 101.413 14.6832C102.934 22.7812 103.942 31.3934 103.942 40.2528C103.695 51.1293 102.43 59.9886 101.413 66.3168C100.662 71.1222 95.6035 72.6449 94.082 73.1591C84.9732 74.929 69.7983 76.1847 54.6235 76.1847C39.4487 76.1847 24.0268 75.1761 15.1748 73.1591C11.3811 72.1406 8.34814 69.6094 7.84429 66.3168C5.819 59.2273 5.05828 49.8636 5.05828 40.5C5.05828 28.8523 6.07586 20.25 7.08357 14.9403C7.84429 10.125 13.1496 8.6023 14.4141 8.09802C22.7623 6.32812 38.194 5.0625 54.1295 5.0625ZM40.4662 20.25V60.75L75.8742 40.5L40.4662 20.25ZM45.5245 28.8622L65.7576 40.5L45.5245 52.1378V28.8622Z" fill="#24ADED"/>
</svg>
