<svg width="57" height="64" viewBox="0 0 57 64" fill="none" xmlns="http://www.w3.org/2000/svg">
<path d="M11.8086 16.7904C11.2631 16.8768 10.8909 17.389 10.9773 17.9345C11.0637 18.48 11.576 18.8521 12.1215 18.7657L11.8086 16.7904ZM21.2576 17.3187C21.8031 17.2323 22.1752 16.7201 22.0888 16.1746C22.0024 15.6291 21.4902 15.2569 20.9447 15.3433L21.2576 17.3187ZM13.9791 30.4945C13.4336 30.5809 13.0615 31.0932 13.1479 31.6387C13.2343 32.1841 13.7465 32.5563 14.292 32.4699L13.9791 30.4945ZM37.1323 28.8524C37.6778 28.766 38.0499 28.2537 37.9635 27.7082C37.8771 27.1628 37.3649 26.7906 36.8194 26.877L37.1323 28.8524ZM15.4261 39.6307C14.8807 39.7171 14.5085 40.2293 14.5949 40.7748C14.6813 41.3203 15.1935 41.6924 15.739 41.606L15.4261 39.6307ZM34.0112 38.712C34.5567 38.6256 34.9289 38.1134 34.8425 37.5679C34.7561 37.0224 34.2439 36.6502 33.6984 36.7366L34.0112 38.712ZM13.185 55.046L13.3415 56.0337H13.3415L13.185 55.046ZM7.89348 51.2015L8.88117 51.045L7.89348 51.2015ZM49.006 44.6899L49.9937 44.5335L49.006 44.6899ZM45.1615 49.9815L45.005 48.9938L45.1615 49.9815ZM37.5646 2.01685L37.721 3.00453L37.5646 2.01685ZM42.8562 5.8614L41.8685 6.01783L42.8562 5.8614ZM5.5882 7.08141L5.43177 6.09372L5.5882 7.08141ZM1.74365 12.373L0.755965 12.5294L1.74365 12.373ZM54.4373 18.1251V57.4376H56.4373V18.1251H54.4373ZM50.8123 61.0626H18.4373V63.0626H50.8123V61.0626ZM18.4373 61.0626C16.4353 61.0626 14.8123 59.4396 14.8123 57.4376H12.8123C12.8123 60.5442 15.3307 63.0626 18.4373 63.0626V61.0626ZM54.4373 57.4376C54.4373 59.4396 52.8144 61.0626 50.8123 61.0626V63.0626C53.9189 63.0626 56.4373 60.5442 56.4373 57.4376H54.4373ZM50.8123 14.5001C52.8144 14.5001 54.4373 16.1231 54.4373 18.1251H56.4373C56.4373 15.0185 53.9189 12.5001 50.8123 12.5001V14.5001ZM50.8123 12.5001H43.8748V14.5001H50.8123V12.5001ZM12.1215 18.7657L21.2576 17.3187L20.9447 15.3433L11.8086 16.7904L12.1215 18.7657ZM14.292 32.4699L37.1323 28.8524L36.8194 26.877L13.9791 30.4945L14.292 32.4699ZM15.739 41.606L34.0112 38.712L33.6984 36.7366L15.4261 39.6307L15.739 41.606ZM5.74464 8.0691L37.721 3.00453L37.4082 1.02916L5.43177 6.09372L5.74464 8.0691ZM41.8685 6.01783L48.0183 44.8463L49.9937 44.5335L43.8439 5.70496L41.8685 6.01783ZM45.005 48.9938L13.0286 54.0583L13.3415 56.0337L45.3179 50.9692L45.005 48.9938ZM8.88117 51.045L2.73134 12.2165L0.755965 12.5294L6.90579 51.3579L8.88117 51.045ZM13.0286 54.0583C11.0512 54.3715 9.19436 53.0224 8.88117 51.045L6.90579 51.3579C7.39177 54.4263 10.2731 56.5197 13.3415 56.0337L13.0286 54.0583ZM48.0183 44.8463C48.3315 46.8237 46.9824 48.6806 45.005 48.9938L45.3179 50.9692C48.3862 50.4832 50.4797 47.6018 49.9937 44.5335L48.0183 44.8463ZM37.721 3.00453C39.6984 2.69135 41.5553 4.04045 41.8685 6.01783L43.8439 5.70496C43.3579 2.63661 40.4765 0.543178 37.4082 1.02916L37.721 3.00453ZM5.43177 6.09372C2.36341 6.5797 0.269985 9.46106 0.755965 12.5294L2.73134 12.2165C2.41815 10.2392 3.76725 8.38229 5.74464 8.0691L5.43177 6.09372Z" fill="#24ADED"/>
</svg>
