<?xml version="1.0" encoding="UTF-8"?> <svg xmlns="http://www.w3.org/2000/svg" id="Layer_1" data-name="Layer 1" viewBox="0 0 678.82 122.3"> <defs> <style>.cls-1{fill:#0068ff;}</style> </defs> <title>RetailCRM horiz</title> <path class="cls-1" d="M139,102.44c7.49,0,13.66-2.77,17.57-6.8a3,3,0,0,1,3.6-.47L173.8,103a2,2,0,0,1,.58,3c-8,10.41-20.28,16.33-35.7,16.33-28.56,0-46.58-19.55-46.58-44.88S110.29,32.57,137,32.57c25.16,0,43,19.89,43,44.88a48.38,48.38,0,0,1-.57,7.3,2,2,0,0,1-2,1.71h-61a1,1,0,0,0-.95,1.34C118.87,98.06,127.93,102.44,139,102.44Zm17.76-33a1,1,0,0,0,1-1.24c-3-11.33-11.91-15.93-20.78-15.93-11.27,0-19.09,5.81-21.95,15.92a1,1,0,0,0,1,1.25Z"></path> <path class="cls-1" d="M217.1,56V93c0,8.66,5.89,9.3,17.11,8.78a2,2,0,0,1,2.1,2v16a2,2,0,0,1-1.8,2c-29.38,2.85-39.34-6.25-39.34-28.75V56H182.38a2,2,0,0,1-2-2V37a2,2,0,0,1,2-2h12.79V20a3,3,0,0,1,2.13-2.87l17.22-5.21a2,2,0,0,1,2.58,1.91V35h17.21a2,2,0,0,1,2,2V54a2,2,0,0,1-2,2Z"></path> <path class="cls-1" d="M327.62,37v81a2,2,0,0,1-2,2H307.69a2,2,0,0,1-2-2v-8c-6.12,7.65-15.3,12.41-27.71,12.41-22.61,0-41.31-19.55-41.31-44.88S255.37,32.57,278,32.57c12.41,0,21.59,4.76,27.71,12.41V37a2,2,0,0,1,2-2h17.93A2,2,0,0,1,327.62,37Zm-21.93,40.5c0-14.28-10-24-23.63-24-13.43,0-23.46,9.69-23.46,24s10,24,23.46,24C295.66,101.42,305.69,91.73,305.69,77.45Z"></path> <path class="cls-1" d="M335.25,13.8a13.72,13.72,0,1,1,27.43,0,13.72,13.72,0,0,1-27.43,0ZM340,35h17.94a2,2,0,0,1,2,2v81a2,2,0,0,1-2,2H340a2,2,0,0,1-2-2v-81A2,2,0,0,1,340,35Z"></path> <path class="cls-1" d="M372.13,0h17.92a2,2,0,0,1,2,1.94V118a2,2,0,0,1-2,1.94H372.13a2,2,0,0,1-2-1.94V1.94A2,2,0,0,1,372.13,0Z"></path> <path d="M402.25,77.45c0-25.33,19-44.88,44.88-44.88,15.89,0,29.78,8,37.07,20.15a2,2,0,0,1-.7,2.78L468.92,64a3,3,0,0,1-4-.89c-3.79-5.56-10.36-9-18-9-13.09,0-22.78,9.69-22.78,23.29,0,13.43,9.69,23.12,22.78,23.12,7.79,0,14.39-3.3,18.17-8.85a3,3,0,0,1,3.95-.9l14.71,8.41a2,2,0,0,1,.7,2.81,43.66,43.66,0,0,1-37.37,20.3C421.29,122.33,402.25,102.78,402.25,77.45Z"></path> <path d="M542.48,35.32V55.56a2,2,0,0,1-2.11,2c-11-.52-23.73,5-23.73,21.76V118a2,2,0,0,1-2,2H496.71a2,2,0,0,1-2-2V37a2,2,0,0,1,2-2h17.93a2,2,0,0,1,2,2V49.57c4.13-10.8,13.75-15.66,23.73-16.26A2,2,0,0,1,542.48,35.32Z"></path> <path d="M678.82,67.59V118a2,2,0,0,1-2,2H658.89a2,2,0,0,1-2-2V69.12c0-10-5.1-16.15-14.28-16.15-9.69,0-15.81,6.46-15.81,19.21V118a2,2,0,0,1-2,2H606.87a2,2,0,0,1-2-2V69.12c0-10-5.1-16.15-14.28-16.15-9.35,0-16,6.46-16,19.21V118a2,2,0,0,1-2,2H554.68a2,2,0,0,1-2-2V37a2,2,0,0,1,2-2h17.93a2,2,0,0,1,2,2v7c4.76-7.14,12.75-11.39,23.63-11.39,10.54,0,18.36,4.42,23.12,12.24,5.27-7.65,13.77-12.24,25.33-12.24C666.07,32.57,678.82,46.34,678.82,67.59Z"></path> <path class="cls-1" d="M88.09,32.4H15.57A15.6,15.6,0,0,0,0,48H0v72.51a2,2,0,0,0,2,2H20.08a2,2,0,0,0,2-2V81A20,20,0,0,0,18.4,69.45L11.07,59.09,71.19,119.2a2,2,0,0,0,2.85,0L86.8,106.43a2,2,0,0,0,0-2.85L26.74,43.53,37,50.8a20,20,0,0,0,11.55,3.68H88.09a2,2,0,0,0,2-2V34.4A2,2,0,0,0,88.09,32.4Z"></path> <rect class="cls-1" width="90.05" height="22.2" rx="2" ry="2"></rect> </svg> 