<svg width="62" height="75" viewBox="0 0 62 75" fill="none" xmlns="http://www.w3.org/2000/svg">
<path fill-rule="evenodd" clip-rule="evenodd" d="M29.6515 69.6435V23.0362C29.6515 19.7446 37.4565 20.8931 43.1305 20.8931C48.5219 20.8931 53.9125 20.8931 59.3039 20.8931C60.6019 26.4282 59.8433 62.1934 59.8433 70.7146C59.8433 71.9686 58.9494 72.8576 57.6865 72.8576C51.3542 72.8576 35.3597 73.5188 30.1909 72.3218C29.9101 71.1205 29.6515 71.0898 29.6515 69.6435ZM27.4956 23.0362V71.2507C27.4956 73.1998 30.1242 75 32.3477 75H57.6865C60.2953 75 62 73.306 62 70.7146V21.9642C62 20.6753 60.0634 18.7501 58.7654 18.7501H31.8082C29.2011 18.7501 27.4956 20.4447 27.4956 23.0362Z" fill="#24ADED"/>
<path fill-rule="evenodd" clip-rule="evenodd" d="M0 5.89319V58.929C0 62.9463 1.262 64.8221 5.3914 64.8221H23.1821C24.8123 64.8221 24.6728 64.1909 24.7995 62.6791C17.748 62.6791 8.80508 63.5579 2.69532 62.1431C2.55576 60.4671 2.15586 60.2399 2.15586 58.3937C2.15586 49.2948 1.37508 8.31027 2.69532 2.67907C8.16808 1.41229 35.9531 2.14303 43.6699 2.14303C46.9927 2.14303 45.6734 7.71892 45.7736 12.3734C45.8344 15.1376 45.384 14.4289 46.9046 15.5357C48.8464 14.1949 47.9825 12.2731 47.9825 5.35814C47.9825 2.16268 46.8832 0 43.6699 0H4.31263C1.03771 0 0 2.70454 0 5.89319Z" fill="#24ADED"/>
<path fill-rule="evenodd" clip-rule="evenodd" d="M9.16546 25.1784C9.16546 29.8329 8.86671 33.1237 12.0706 37.2924C16.8721 43.5405 22.1633 42.9875 17.8592 39.6389C8.7485 32.5486 9.3607 21.441 17.1982 15.4636C25.5572 9.0888 9.16546 13.6191 9.16546 25.1784Z" fill="#24ADED"/>
<path fill-rule="evenodd" clip-rule="evenodd" d="M49.5999 41.786C49.5999 45.5226 48.4337 47.9318 46.7735 50.2272C44.6399 53.1785 43.4618 53.1913 42.55 54.0667C41.1587 55.4033 41.7229 53.7443 41.5132 56.2506C49.6709 56.0703 57.3638 39.1171 46.2162 29.0756C45.4345 28.3711 43.3676 26.896 42.5174 27.0381C37.0738 27.9441 49.5999 29.826 49.5999 41.786Z" fill="#24ADED"/>
<path fill-rule="evenodd" clip-rule="evenodd" d="M32.3477 63.7502C32.9787 64.6529 32.4247 64.8221 33.965 64.8221H56.0692C57.5873 64.8221 57.0684 64.5899 57.6866 63.7502C57.0555 62.8475 57.6095 62.6791 56.0692 62.6791H33.965C32.9907 62.6791 32.4864 62.9471 32.3477 63.7502Z" fill="#24ADED"/>
<path fill-rule="evenodd" clip-rule="evenodd" d="M44.7478 42.3221C44.7478 38.7182 42.6664 33.578 38.2785 33.2147C38.3803 37.768 40.3847 34.3658 42.1031 39.6337C44.0791 45.6937 37.9034 47.607 38.0687 49.2762C38.4728 53.3437 44.7478 45.8323 44.7478 42.3221Z" fill="#24ADED"/>
<path fill-rule="evenodd" clip-rule="evenodd" d="M16.1743 26.2504C16.1743 30.4574 17.676 35.7832 22.6436 35.8938C22.2823 31.5863 18.3301 33.7591 18.3301 26.7863C18.3301 25.0354 19.3867 23.3364 20.3516 22.3572C21.2754 21.4205 24.0914 20.1291 21.9458 19.086C19.7197 18.0056 16.1743 23.8095 16.1743 26.2504Z" fill="#24ADED"/>
<path fill-rule="evenodd" clip-rule="evenodd" d="M5.39135 54.6427H24.7995C24.6728 53.1309 24.8123 52.4997 23.1821 52.4997H7.00875C5.4736 52.4997 5.39135 53.1207 5.39135 54.6427Z" fill="#24ADED"/>
<path fill-rule="evenodd" clip-rule="evenodd" d="M43.1305 71.2506C46.1365 71.2506 51.0759 71.5032 52.2951 66.9644C48.3387 65.0774 51.5579 69.1076 44.2084 69.1076C40.8753 69.1076 40.716 66.6752 37.7391 66.4294C37.8067 69.4368 40.0525 71.2506 43.1305 71.2506Z" fill="#24ADED"/>
<path fill-rule="evenodd" clip-rule="evenodd" d="M24.7995 61.072C24.576 59.0403 25.2387 59.9353 23.5272 59.122C21.1966 58.0152 23.8748 60.2008 19.081 57.0087C13.7393 53.4534 19.1992 63.6455 24.7995 61.072Z" fill="#24ADED"/>
</svg>
