<svg width="74" height="74" viewBox="0 0 74 74" fill="none" xmlns="http://www.w3.org/2000/svg">
<path fill-rule="evenodd" clip-rule="evenodd" d="M20.2399 10.12H52.496C58.3297 10.12 63.8809 15.6704 63.8809 21.5045V51.8637C63.8809 58.2527 58.1488 63.88 51.8634 63.88C45.9282 63.88 21.2647 64.8234 17.363 62.9612C6.41326 57.7358 10.6643 47.7899 9.7824 38.7837C9.13682 32.1907 8.53617 18.9752 13.1714 13.8033C14.3593 12.4781 17.8883 10.12 20.2399 10.12ZM24.0349 7.58949C14.1545 7.58949 7.58987 14.1546 7.58987 24.0338H0V25.9312H7.58987V31.6237C4.87278 31.8499 3.67027 32.2563 0 32.2563V33.5211C3.63142 33.5211 4.83271 34.0927 7.58987 34.1538V39.8462H0V41.7437H7.58987V47.4361C4.83271 47.4972 3.63142 48.0687 0 48.0687V49.3332C3.67027 49.3332 4.87278 49.7396 7.58987 49.9662C7.58987 58.6024 14.7762 65.7775 20.2399 65.7775H24.0349C24.0349 73.7243 23.3982 73.3241 25.9319 74C25.9319 65.5832 24.5218 65.7775 31.6243 65.7775C31.6243 73.2852 30.982 72.6024 32.8892 74C34.7963 72.6748 34.1536 73.3734 34.1536 65.7775C41.2557 65.7775 39.846 65.5832 39.846 74H41.7435V65.7775H47.4359C47.4359 73.2852 46.7935 72.6024 48.7011 74C50.6083 72.6748 49.966 73.3734 49.966 65.7775C54.5198 65.7775 57.9217 65.265 61.4613 62.0942C65.2874 58.6668 65.7779 54.6978 65.7779 49.9662C73.2848 49.9662 72.6028 50.6086 74 48.7006C72.6744 46.7934 73.373 47.4361 65.7779 47.4361C65.7779 40.3339 65.5832 41.7437 74 41.7437V39.8462C65.5832 39.8462 65.7779 41.256 65.7779 34.1538C73.2848 34.1538 72.6028 34.7961 74 32.8893C72.6744 30.9813 73.373 31.6237 65.7779 31.6237C65.7779 24.5219 65.5832 25.9312 74 25.9312C73.3237 23.3983 73.724 24.0338 65.7779 24.0338C65.7779 18.8218 65.5071 15.0037 60.8379 11.2642C58.2593 9.19879 54.4445 7.58949 49.966 7.58949C49.966 0.295864 50.5197 1.33244 48.7011 0C46.8814 1.26404 47.4359 0.218961 47.4359 7.58949H41.7435V0H39.846V7.58949H34.1536C34.1536 0.295864 34.7073 1.33244 32.8892 0C31.0702 1.26404 31.6243 0.218961 31.6243 7.58949C24.4946 7.58949 25.9319 10.2095 25.9319 0H24.0349V7.58949Z" fill="#24ADED"/>
<path fill-rule="evenodd" clip-rule="evenodd" d="M14.8 37.0112C14.8 40.2966 17.0735 40.7725 17.8863 44.0823C18.9481 48.4099 19.3591 52.9035 27.4561 52.9035C29.715 57.1925 29.7329 56.7177 34.4167 56.7177C37.695 56.7177 38.2137 52.4105 38.2137 49.7255C43.2119 49.7255 40.2042 49.9891 42.0107 49.0893C41.0526 47.7041 42.3598 47.8184 38.2137 47.8184V31.2898C41.3081 32.1201 39.8178 33.1969 44.5422 33.1969V31.2898C35.7778 31.0937 36.5412 17.9404 42.6437 17.9404C46.0908 17.9404 45.615 20.9532 47.9529 22.1435C48.9649 22.6586 52.4577 22.4796 54.1047 26.8113C54.9309 28.9832 54.0347 29.5141 54.0347 32.5619C58.5258 33.7661 57.0958 37.9025 56.5662 40.19C53.4791 39.3617 51.3813 34.299 47.0737 36.3757C49.2196 39.3182 54.6365 38.2491 54.4838 44.568C54.3838 48.6914 49.9469 52.3563 45.8077 50.3605C41.6803 58.1969 42.5303 52.3848 41.3786 56.7177C44.8196 56.7177 46.1783 56.0697 46.4407 52.9035C57.023 52.9035 55.5805 46.3039 57.025 42.5588C57.6134 41.0353 61.0066 37.8362 57.922 33.1062C56.4256 30.8114 57.0266 33.2112 56.5827 30.0023C55.0779 19.1243 52.9502 23.5422 48.5591 19.6266C47.8629 19.0058 46.5371 16.0333 42.6437 16.0333C40.7691 16.0333 38.3243 17.3083 37.4216 18.4156C35.1068 21.2551 37.844 26.9394 33.7388 29.973C31.0656 31.9492 30.1783 30.0991 29.3546 33.1969C35.0076 33.1969 32.875 32.2133 36.3152 31.2898V47.8184H32.5186V49.7255H36.3152C36.3152 51.8218 36.065 54.8106 33.1516 54.8106C29.3182 54.8106 29.9033 52.8339 28.7216 50.3605C22.1158 53.5446 16.5863 44.6054 21.8534 39.6473C23.6166 37.9871 24.2293 38.2544 26.8232 37.647C25.3819 32.2247 20.6733 39.4634 17.964 40.19C15.9943 36.0666 17.067 34.2314 20.4955 31.9256C18.8675 24.9086 21.2467 24.1813 25.5779 22.4108C29.0675 20.9842 26.1436 22.0744 28.46 19.5848C29.6656 18.2895 30.9696 17.9893 33.1516 17.9404V16.0333C28.6743 16.0333 28.6775 16.2562 26.4761 18.8631C23.2092 22.7314 23.7729 18.9847 20.3019 22.8319C17.7919 25.6136 18.6424 25.9012 17.8733 29.9286C17.357 32.6359 17.3687 31.0624 16.1028 33.2352C15.7318 33.871 14.8 36.1467 14.8 37.0112Z" fill="#24ADED"/>
<path fill-rule="evenodd" clip-rule="evenodd" d="M50.5667 46.8667V45.14C41.3983 43.2888 46.4467 39.2775 41.9337 38.2333C41.9337 40.8918 41.8513 42.3194 44.0819 44.4295C45.6419 45.9061 47.5367 46.8081 50.5667 46.8667Z" fill="#24ADED"/>
<path fill-rule="evenodd" clip-rule="evenodd" d="M49.95 33.3H51.8C51.6788 27.0699 48.7803 23.4333 43.1667 23.4333C43.9658 26.8526 44.6375 24.6843 47.349 27.1105C49.0751 28.6546 49.7278 30.2452 49.95 33.3Z" fill="#24ADED"/>
<path fill-rule="evenodd" clip-rule="evenodd" d="M23.4333 33.3H25.2833C25.3342 30.6804 25.9825 28.5117 27.3743 27.2332C29.4326 25.3437 30.5549 26.4963 32.0667 24.1387C29.725 21.9037 23.4333 24.9861 23.4333 33.3Z" fill="#24ADED"/>
<path fill-rule="evenodd" clip-rule="evenodd" d="M24.6667 46.8667C30.0587 45.5893 33.5329 41.9876 31.4591 38.2333C28.2387 40.6322 32.4694 41.0219 26.3254 44.5245C23.8911 45.9127 24.9572 44.1584 24.6667 46.8667Z" fill="#24ADED"/>
</svg>
