<?xml version="1.0" encoding="UTF-8"?> <svg xmlns="http://www.w3.org/2000/svg" viewBox="0 0 232.5 139.5"> <defs> <style>.cls-1{fill:#9300d0;}.cls-2{fill:#fff;}.cls-3{fill:#fdfa00;}</style> </defs> <title>Ресурс 28</title> <g id="Слой_2" data-name="Слой 2"> <g id="Слой_1-2" data-name="Слой 1"> <path class="cls-1" d="M232.5,3.63V135.87a3.64,3.64,0,0,1-3.63,3.63H3.63A3.64,3.64,0,0,1,0,135.87V3.63A3.64,3.64,0,0,1,3.63,0H228.87A3.64,3.64,0,0,1,232.5,3.63Z"></path> <path class="cls-2" d="M39.08,33.29H25.4V22.22h40V33.29H51.71V67.8H39.08Z"></path> <path class="cls-2" d="M70.92,22.22h36.65V33H83.42v6.9H105.3v10H83.42v7.23H107.9V67.8h-37Z"></path> <path class="cls-2" d="M112.78,45c0-13.28,10.23-23.7,24-23.7,9.31,0,15.1,4,19.14,9.64l-9.24,7.16c-2.61-3.25-5.67-5.27-10-5.27-6.38,0-10.87,5.4-10.87,12.17s4.49,12.18,10.87,12.18c4.75,0,7.55-2.22,10.29-5.54l9.5,6.78c-4.3,5.92-10.09,10.28-20.18,10.28A23.18,23.18,0,0,1,112.78,45Z"></path> <path class="cls-2" d="M161.88,22.22h12.63V39.28h16.21V22.22h12.63V67.8H190.72V50.48H174.51V67.8H161.88Z"></path> <path class="cls-3" d="M25.46,75.81H37.79l7.33,24.35,8.11-24.47h10l8.11,24.47,7.34-24.35H90.8L76.73,118.19H66.58L58.1,94l-8.41,24.22H39.53Z"></path> <path class="cls-3" d="M92.42,75.81h33.84v9.92H104V92.1h20.19v9.2H104V108h22.6v9.92H92.42Z"></path> <path class="cls-3" d="M129.5,75.81h33.84v9.92H141V92.1h20.2v9.2H141V108h22.6v9.92H129.5Z"></path> <path class="cls-3" d="M166.58,75.81h11.67V92.88l14.48-17.07h13.82l-15.92,18.1,16.47,24h-14l-10.58-15.63L178.25,107v10.88H166.58Z"></path> </g> </g> </svg> 