<svg width="73" height="73" viewBox="0 0 73 73" fill="none" xmlns="http://www.w3.org/2000/svg">
<path fill-rule="evenodd" clip-rule="evenodd" d="M6.12749 2.66674H66.7791V47.3129H6.12749V2.66674ZM4.28961 0.831962C2.84092 7.03932 3.67668 38.5589 3.67668 47.3129C3.67668 50.9319 10.3043 49.7585 15.9298 49.7585C21.0348 49.7585 26.1397 49.7585 31.2457 49.7585C30.732 55.9154 24.7932 56.5544 20.809 57.1013C14.9257 57.9074 17.7676 58.9332 17.7676 58.9332C18.2765 60.1347 17.3201 60.4909 22.5846 59.4905C27.5524 58.5455 33.5437 56.5972 33.6955 49.7585H38.5971C39.2227 57.2596 45.0146 58.3668 50.8142 59.6527C53.303 60.2054 54.8509 61.163 55.1389 57.7102C47.7894 57.0993 42.5083 56.0203 41.048 49.7585C49.5728 49.7585 61.2781 50.8552 68.6169 49.1477C70.0627 42.9549 69.2299 11.9684 69.2299 3.27853C69.2299 1.85174 67.5944 0.220179 66.1661 0.220179C58.1297 0.220179 7.8953 -0.56569 4.28961 0.831962Z" fill="#24ADED"/>
<path fill-rule="evenodd" clip-rule="evenodd" d="M6.7395 66.2721H65.5532C67.2909 66.2721 69.6668 69.3782 70.4548 70.5534H2.45081C2.90809 68.8469 4.71386 66.2721 6.7395 66.2721ZM0 69.9417V73H72.9057V69.9417C72.9057 68.442 68.2813 63.8265 66.7791 63.8265H6.12752C4.71385 63.8265 0 67.6767 0 69.9417Z" fill="#24ADED"/>
<path fill-rule="evenodd" clip-rule="evenodd" d="M30.0198 12.4524C31.6699 12.8914 32.2478 13.4683 33.5321 14.4513C35.3622 15.8499 42.4042 21.1714 44.1117 21.6259C42.2534 24.157 43.8374 22.0173 41.1842 23.0352C35.2571 25.308 46.2639 29.5515 38.5972 30.1886C38.0679 28.2092 37.0317 26.9077 35.5344 25.9073L31.9724 29.0844L30.0198 12.4524ZM35.5344 29.5768C36.4188 30.8958 36.9354 31.3756 37.3722 33.2462C40.652 33.1734 42.7 31.5416 44.7237 30.1886C44.1798 27.8556 43.4307 27.6294 42.8858 25.2955C45.685 23.9551 46.3874 25.5916 48.3994 22.8487C47.804 20.6216 46.977 21.0006 43.9395 18.7394C40.9623 16.524 30.4702 8.41192 27.5699 8.17105C27.5699 16.3948 28.8095 22.1563 29.3241 29.0533C29.904 36.8244 31.6747 32.1565 35.5344 29.5768Z" fill="#24ADED"/>
<path fill-rule="evenodd" clip-rule="evenodd" d="M9.80321 40.5851H61.2645C63.117 40.5851 62.9584 39.8652 63.1024 38.1393H9.80321V40.5851Z" fill="#24ADED"/>
<path fill-rule="evenodd" clip-rule="evenodd" d="M60.6525 60.7679C61.2081 54.0943 69.8983 54.0943 70.4548 60.7679C78.3103 60.1152 66.0698 47.9949 59.5512 56.0214C59.0326 56.6595 58.2688 58.3359 58.3136 59.0517C58.4245 60.7883 58.7942 60.6135 60.6525 60.7679Z" fill="#24ADED"/>
<path fill-rule="evenodd" clip-rule="evenodd" d="M32.4706 44.2545C34.3046 45.283 36.6192 44.8664 39.8231 44.8664C39.5886 42.0585 39.7851 42.4197 34.9214 42.4197C33.391 42.4197 32.9989 43.2812 32.4706 44.2545Z" fill="#24ADED"/>
</svg>
