<svg width="85" height="172" viewBox="0 0 85 172" fill="none" xmlns="http://www.w3.org/2000/svg">
<g clip-path="url(#clip0_201_145)">
<path d="M28.9897 63.5879C25.0096 51.0791 30.0323 18.2427 37.8503 0.52127C37.8503 -4.0654 62.521 -3.47469 74.8564 -2.606C75.6904 5.31642 55.3978 38.5698 45.1473 54.2061L49.317 70.8849L41.4988 94.3395C40.4564 87.0425 32.6382 75.0546 28.9897 63.5879Z" fill="#A08263"/>
<path d="M41.3955 -2.36439C41.6054 -2.80711 41.8139 -3.23514 42.0203 -3.64798L46.1898 -2.60556C45.6016 -2.09089 43.7191 -2.74 41.3955 -2.36439C37.4248 6.00768 32.9132 19.6322 31.4526 35.0455C33.7219 54.4674 39.4879 77.4891 42.0203 87.0429C31.8694 70.5477 29.87 51.7465 31.4526 35.0455C30.2967 25.1525 30.0479 16.1936 31.5959 10.4242C34.2416 0.563228 38.2283 -1.85243 41.3955 -2.36439Z" fill="#61472D"/>
<path d="M74.9109 14.7675C83.2911 13.2157 89.0718 7.65474 90.9147 5.06827C93.3072 2.22316 98.7516 -2.14798 101.39 3.12842C104.028 8.40482 99.7086 13.7329 97.2192 15.7375C87.9079 24.2728 74.3936 27.0533 68.8003 27.3766V32.8082L74.9109 41.5375L37.5687 49.1029L39.5085 38.9187C36.4371 39.7593 29.4407 43.555 26.0266 52.0127C21.759 62.5849 15.1634 71.7022 12.6416 73.0601C10.1198 74.418 4.3972 70.6353 1.29344 69.3744C-1.81033 68.1135 -10.9276 60.2571 -11.9946 57.7353C-12.6669 56.1461 -12.0594 54.7736 -11.4235 53.9781C-14.3759 56.7446 -17.3961 54.8452 -18.59 53.4676C-20.9178 54.2435 -24.4096 51.7217 -21.8878 50.5578C-19.366 49.3939 -12.3825 46.9691 -9.76368 49.1029C-7.14488 51.2368 -3.94412 52.8857 -0.549379 54.6315C2.16641 56.0282 7.50101 57.2826 9.82883 57.7353C11.4777 53.7586 22.0499 42.4104 26.0266 34.845C30.0033 27.2796 42.3214 21.945 42.7093 18.1623C43.0197 15.1361 43.7439 4.09835 44.0672 -1.04226C52.7319 -0.16933 74.3095 -2.83722 71.1281 1.04248C67.9468 4.92219 58.4221 20.2638 56.5793 24.7578C59.1981 22.0743 66.5307 16.3194 74.9109 14.7675Z" fill="#EAC7AC"/>
<path d="M48.5289 77.4248C52.0981 72.226 48.5935 62.1323 46.395 57.7353C52.9582 56.7007 66.6277 54.9225 68.8003 56.0864C70.9729 57.2503 69.7056 73.2541 68.8003 81.1105L48.5289 77.4248Z" fill="#EAC7AC"/>
<path d="M76.4627 159.093C75.9196 150.635 60.459 137.463 52.7965 131.935C47.7206 117.838 44.2806 94.5149 71.1281 113.991C97.9757 133.467 95.5057 160.644 90.9147 171.799L76.4627 175.484C76.689 173.544 77.0059 167.55 76.4627 159.093Z" fill="#EAC7AC"/>
<path d="M22.1469 173.157L28.7424 131.935C35.9845 132.42 50.4687 134.418 50.4687 138.53C50.4687 142.643 41.8687 163.328 37.5687 173.157H22.1469Z" fill="#EAC7AC"/>
<path d="M35.6292 20.0046C42.0696 17.7544 43.5503 11.1783 43.4856 8.17148C47.3653 16.9008 38.442 24.8542 36.5992 25.2422C34.7563 25.6302 23.0202 38.4332 21.7593 41.5369C20.9252 43.59 16.4972 49.4095 13.289 53.4468C12.5087 54.8023 11.8664 55.657 11.4781 55.6979C11.9987 55.0597 12.6171 54.2923 13.289 53.4468C16.2119 48.369 21.0703 36.263 21.7593 33.5835C22.6322 30.1888 27.5789 22.8174 35.6292 20.0046Z" fill="#F5D5BC"/>
<path d="M67.2488 81.4009C68.1024 76.5125 68.7684 62.2287 68.9947 55.6979L72.2925 57.0558C72.3248 58.931 72.3701 63.2051 72.2925 65.3001C72.2149 67.3952 70.8376 77.4889 70.1586 82.2739L67.2488 81.4009Z" fill="#F5D5BC"/>
<path d="M91.4 141.73C89.4602 138.239 80.5045 122.881 76.2692 115.639C74.0383 123.69 80.8278 128.442 87.1323 137.075C92.176 143.981 93.5015 154.954 93.5339 159.577C95.2409 150.111 92.8226 143.735 91.4 141.73Z" fill="#F5D5BC"/>
<path d="M23.7961 166.269L28.1608 125.921C28.4518 125.921 29.3635 126.968 30.6826 131.158C32.0017 135.348 26.6413 156.312 23.7961 166.269Z" fill="#F5D5BC"/>
<path d="M70.1586 15.4459C78.7716 15.2907 85.5805 10.5316 87.9083 8.17148C85.6774 13.7971 75.6872 16.7068 68.9947 18.5497C62.3022 20.3926 57.2929 26.6309 56.614 24.497C56.0708 22.79 57.8729 21.2332 58.3255 20.6835C58.6812 19.0023 61.5457 15.6011 70.1586 15.4459Z" fill="#F5D5BC"/>
<path d="M-23.7303 46.8715C-20.7041 46.018 -17.0378 47.4858 -15.5829 48.3264C-16.8114 48.7467 -19.579 49.7037 -20.8205 50.1693C-22.3723 50.7512 -24.1182 52.4971 -24.2152 54.243C-24.3122 55.9888 -28.0949 56.9588 -27.513 55.6979C-26.931 54.437 -29.3558 49.1024 -28.7739 49.1024C-28.1919 49.1024 -27.513 47.9385 -23.7303 46.8715Z" fill="#F5D5BC"/>
<path d="M-11.476 54.2881C-12.2573 54.8951 -12.0866 56.9525 -11.8976 57.9291C-11.8976 59.772 -16.9412 59.19 -18.4931 58.7051C-19.7347 58.3171 -21.9202 58.3494 -22.8577 58.4141L-22.6638 59.19C-22.4375 59.384 -21.8684 59.9854 -21.4029 60.8389C-20.8209 61.9058 -25.3795 61.0329 -26.5435 60.257C-27.4746 59.6362 -27.1254 58.9637 -26.8344 58.7051C-27.3194 58.3171 -28.3088 57.3278 -28.3864 56.4743C-28.464 55.6207 -27.8367 55.86 -27.5134 56.0863C-26.7375 56.0216 -25.0692 55.5625 -24.6037 54.2434C-24.1381 52.9243 -23.1164 52.1419 -22.6638 51.9156C-22.5086 53.4675 -19.8187 53.6615 -18.4931 53.5645C-15.6728 56.0799 -12.684 55.1197 -11.476 54.2881C-11.4556 54.2722 -11.4344 54.2573 -11.4126 54.2434C-11.4332 54.2583 -11.4543 54.2732 -11.476 54.2881Z" fill="#D6B49B"/>
<path d="M13.0295 72.866C13.3189 72.6259 13.6419 72.3537 13.9916 72.0543C17.3209 68.5082 22.5717 56.5298 25.3985 50.0808L25.4446 49.9757C28.5484 42.8953 31.4581 41.2464 36.9867 39.4035C42.5153 37.5607 39.7025 40.0825 39.0236 44.9321C38.4804 48.8118 36.9221 50.4284 36.2108 50.7517L33.495 46.387C31.9108 49.3291 28.0828 56.2221 25.4446 60.257C23.0576 63.9076 17.3147 69.2098 13.9916 72.0543C13.649 72.4193 13.3267 72.6949 13.0295 72.866Z" fill="#D6B49B"/>
<path d="M43.4852 79.1705C48.2185 70.7128 44.6168 63.0374 42.2243 60.257C41.6424 57.3472 41.817 52.9825 47.1709 58.8021C52.5249 64.6216 50.889 74.0946 49.4018 78.1036L43.4852 79.1705Z" fill="#D6B49B"/>
<path d="M91.6906 21.1689C85.7934 26.2901 70.0612 29.2193 68.8003 28.1524C60.8469 28.9283 90.2357 19.908 97.2191 12.9246C102.806 7.33777 104.655 8.13958 104.882 9.23883C103.562 14.0497 95.5379 19.1967 91.6906 21.1689Z" fill="#D6B49B"/>
<path d="M41.2544 164.136C41.6097 163.385 41.9968 162.56 42.4071 161.678C44.2586 155.97 47.1507 141.787 48.6258 133.971C49.7705 132.85 51.7159 131.41 52.7266 132.015C52.8095 131.081 53.9705 130.798 57.7431 132.904C65.2116 137.075 76.9477 152.012 76.9477 156.086C72.389 150.46 61.2931 138.161 53.3785 133.971C53.3078 137.436 46.6257 152.604 42.4071 161.678C41.9455 163.101 41.5486 163.997 41.2544 164.136Z" fill="#D6B49B"/>
<path d="M51.0507 13.7975C47.7917 11.392 44.8431 8.20422 43.7762 6.91099C44.5198 7.49295 47.1127 9.3746 51.5356 12.2456C55.9585 15.1166 63.2717 9.23881 66.3755 5.94106C64.6296 8.26889 55.1243 16.8042 51.0507 13.7975Z" fill="#D6B49B"/>
<path d="M50.8572 38.531C52.3315 30.694 42.3542 22.5918 37.1812 19.5204C41.5459 15.3497 47.7534 26.0189 57.0647 33.0994C66.376 40.1798 67.2489 39.8889 67.2489 35.1362C67.2489 30.3836 59.2808 22.2064 58.6989 20.8485C58.2333 19.7622 59.8745 19.876 60.2625 19.5204C62.461 22.1069 66.7058 29.2973 67.2489 30.3836C67.7921 31.4699 73.9414 39.9535 76.9482 44.0595C75.849 44.0919 72.6999 45.2429 68.8978 49.5881C64.1452 55.0197 57.4527 47.1633 52.894 47.1633C48.3354 47.1633 39.2181 56.0866 38.3451 54.5348C37.6468 53.2932 35.1444 49.5558 33.9805 47.8423C38.9918 48.0039 49.3829 46.368 50.8572 38.531Z" fill="#47BC67"/>
<path d="M71.3226 74.1272C65.3479 66.7558 52.0211 68.7926 46.1045 70.7325C46.1045 72.2844 45.07 75.3881 44.5527 76.746C62.3993 74.651 68.8655 82.5333 69.8677 86.7363C70.6437 83.0893 71.161 76.8107 71.3226 74.1272Z" fill="#47BC67"/>
<path d="M44.2616 64.0395C43.7185 62.798 40.0263 56.9914 38.2481 54.2433C39.024 54.9222 47.9474 48.4237 50.2752 47.2598C52.603 46.0959 54.6399 45.5139 58.7135 49.1027C62.7872 52.6914 67.7339 50.0726 69.0918 47.9388C70.1781 46.2317 74.588 43.9944 76.6572 43.0891C77.0128 43.5094 77.8211 44.932 78.2091 47.2598C78.694 50.1696 74.2324 54.7282 73.3594 55.6012C72.6658 56.2948 72.6165 58.896 72.6792 60.1349C72.6801 60.1435 72.6805 60.1518 72.6805 60.1598C72.6801 60.1516 72.6796 60.1433 72.6792 60.1349C72.6417 59.7608 71.7712 58.818 68.5098 57.832C65.1733 56.8233 50.9541 61.5501 44.2616 64.0395Z" fill="#34A853"/>
<path d="M28.9368 95.3682C36.2307 87.376 42.5804 79.2997 44.8436 76.2606C63.9318 75.1743 69.4797 82.7915 69.8677 86.7358C70.4884 90.4603 67.2812 96.0471 65.6 98.3749L76.6572 117.095C75.4157 128.889 63.1429 135.588 57.1616 137.463L53.088 133.874L50.2752 141.537C44.6108 136.027 32.3315 135.62 26.8999 136.105C28.8398 127.473 26.706 120.78 25.7361 117.095C24.7661 113.409 19.8195 105.358 28.9368 95.3682Z" fill="#34A853"/>
<path d="M72.486 61.5178C69.3822 58.2588 52.6995 62.6171 44.7461 65.2035L43.6792 62.6817C49.6281 60.9035 62.5539 57.2307 66.6664 56.7651C70.7789 56.2996 72.2597 58.2524 72.486 59.2869V61.5178Z" fill="#2C9A4A"/>
<path d="M36.9867 114.767C27.2098 106.309 30.2619 95.3359 33.01 90.9066C29.0333 104.777 36.9867 111.76 42.8063 117.58C46.3461 121.119 49.6242 126.678 51.6602 130.674C59.669 127.343 75.9002 119.907 76.7537 116.804C76.7214 121.718 72.777 132.769 57.2582 137.657L53.1845 133.874L50.5657 141.634C46.0652 137.366 33.107 135.976 27.1905 135.814V132.128L53.1845 133.874C51.8589 131.029 46.7635 123.225 36.9867 114.767Z" fill="#2C9A4A"/>
</g>
<defs>
<clipPath id="clip0_201_145">
<rect width="84.6769" height="172" fill="white" transform="translate(0.32309)"/>
</clipPath>
</defs>
</svg>
