<svg width="85" height="173" viewBox="0 0 85 173" fill="none" xmlns="http://www.w3.org/2000/svg">
<g clip-path="url(#clip0_201_212)">
<path d="M24.2064 25.6596L29.6374 26.1388C29.6374 29.8128 28.0401 28.8544 27.0816 28.8544C26.3149 28.8544 27.4011 31.3037 28.0401 32.5283L24.2064 38.1191L18.1364 51.5371C20.5324 49.9397 33.6309 49.9397 38.2633 50.0994C41.9692 50.2272 47.7942 47.9163 50.2435 46.7449L64.7796 47.5436L72.6068 52.3357C73.1392 55.0513 74.2041 61.7283 74.2041 66.7121C74.2041 71.6959 71.5418 73.4743 70.2107 73.7405L58.7096 65.4342L58.0707 58.246H25.0051L19.4143 57.4473C18.7318 57.4918 17.832 57.5537 16.8585 57.6253C12.5136 63.0071 17.3909 62.6243 20.3727 61.7602L36.5061 60.4823L40.1801 63.0381C32.8322 68.6289 10.3092 67.6705 9.03134 64.6355C8.00902 62.2075 9.45731 59.3642 10.3092 58.246C8.55213 58.5655 7.1145 57.2876 5.99632 56.1694C4.87814 55.0513 3.2808 57.6071 3.91975 58.7252C4.5587 59.8434 4.07947 62.2395 2.32236 62.2395C0.565252 62.2395 -0.0736971 59.6837 0.565252 56.8084C1.2042 53.9331 4.07947 53.7734 5.99632 53.7734C7.52979 53.7734 10.1495 53.3474 11.2676 53.1344C12.29 51.7287 19.0415 40.7282 22.2895 35.4036V28.8544L24.2064 25.6596Z" fill="#EAC7AC"/>
<path d="M55.9941 21.8259L61.1057 21.187L66.377 23.4233L73.4054 33.0075L71.9678 39.0776L65.2588 44.5086L58.0707 43.5502L52.7993 37.1607V28.3752L55.9941 21.8259Z" fill="#EAC7AC"/>
<path d="M40.6593 90.8324C41.8094 89.1712 45.1852 81.1949 46.7293 77.4145C54.5564 78.1599 70.2107 79.9383 70.2107 81.0884C70.2107 82.2386 69.2523 88.9156 68.7731 92.1103C58.9226 92.3765 39.5092 92.4937 40.6593 90.8324Z" fill="#EAC7AC"/>
<path d="M64.62 24.3819C64.3644 22.5928 61.7447 22.4651 60.4668 22.6248C55.5387 21.6392 54.9545 26.4869 55.4323 30.0568C56.6218 29.6925 58.7518 29.2565 59.3486 29.9727C60.1473 30.9311 58.5499 30.9311 58.0707 30.6117C57.6874 30.3561 56.2082 30.5052 55.5166 30.6117C55.564 30.8902 55.6172 31.1577 55.6747 31.4103C56.4734 34.9246 55.6747 37.0011 55.3552 38.5985C55.0996 39.8764 56.3136 42.1127 56.9526 43.0712C56.8248 45.7547 51.8942 47.1711 49.4449 47.5438L46.4099 44.5088C47.2618 43.3374 48.9977 39.1736 49.1254 31.8896C49.2852 22.7846 54.237 20.069 56.4734 18.7911C58.2624 17.7688 60.733 18.7911 61.7447 19.4301C64.9394 18.4717 67.016 18.9509 70.8497 21.5067C74.6834 24.0625 74.3639 31.7299 74.2042 33.487C74.0445 35.2441 74.5237 35.883 76.121 40.1959C77.3989 43.6463 75.5886 46.5322 74.5237 47.5438C74.5237 48.694 73.2458 49.6204 72.6068 49.9399C72.2234 48.5342 68.2939 46.5854 66.3771 45.7867C65.8659 44.2533 66.59 41.4206 67.016 40.1959C68.1661 39.557 68.9861 38.0129 69.2523 37.3207C69.3588 37.4272 69.8913 37.5762 71.1692 37.3207C72.4471 37.0651 72.2341 34.0194 71.9679 32.5286C71.2224 32.3688 69.5079 32.0174 68.6134 31.8896C68.2766 31.8415 67.8095 31.3442 67.3123 30.6117C66.5213 30.5052 64.7158 30.3561 63.8213 30.6117C62.9267 30.8672 62.8096 30.2922 62.8628 29.9727C63.6414 29.6532 65.5401 29.206 66.906 29.9727C65.868 28.2419 64.8173 25.7633 64.62 24.3819Z" fill="#A08263"/>
<path d="M71.808 22.4652C68.8688 18.5037 63.8744 18.8977 61.7446 19.5899L61.2653 20.7081C62.703 20.7081 65.738 22.7847 65.8977 24.382C66.0255 25.6599 70.6366 30.665 72.9262 33.0078C73.4373 37.0971 71.2223 42.1661 70.0509 44.1895C74.843 40.9947 75.482 27.4171 71.808 22.4652Z" fill="#61472D"/>
<path d="M60.9459 20.7081L61.4251 19.4302C54.2369 15.5965 51.3616 24.382 50.7227 26.4586C50.0837 28.5352 50.5629 35.2442 50.7227 39.2376C50.8504 42.4323 48.8591 44.9349 47.8474 45.7868C50.0837 46.1063 52.959 36.6818 52.4798 33.0078C52.0006 29.3339 54.8759 21.8262 56.1538 21.986C57.1761 22.1138 59.7745 21.1873 60.9459 20.7081Z" fill="#61472D"/>
<path d="M26.2831 27.0973C25.5164 26.4584 24.5793 26.8311 24.2066 27.0973C21.8105 27.4168 22.9287 33.6466 22.7689 35.8829C22.6418 37.663 17.0218 44.9676 14.1857 48.4499C14.1683 48.4737 14.1541 48.4912 14.1431 48.5021C14.1572 48.4848 14.1714 48.4674 14.1857 48.4499C14.9261 47.4363 21.3349 35.044 21.491 33.3271C21.6508 31.57 19.4144 26.2987 20.3729 26.2987C21.1396 26.2987 22.6092 23.104 23.2481 21.5066C23.5676 21.4534 24.6219 21.3788 26.2831 21.5066C28.3597 21.6663 29.6376 25.6598 29.6376 26.2987C29.6376 26.9377 27.2416 27.896 26.2831 27.0973Z" fill="#F5D5BC"/>
<path d="M0.884941 56.489C1.25766 54.9449 2.38647 51.8886 3.91995 52.0164C5.79795 52.1729 10.4358 53.556 12.2755 53.612C12.3129 53.6125 12.3497 53.6131 12.386 53.6137C12.3504 53.6137 12.3135 53.6132 12.2755 53.612C9.35168 53.5734 3.15612 54.0917 0.884941 56.489Z" fill="#F5D5BC"/>
<path d="M53.9177 45.1477C52.0009 45.9144 45.7711 48.4489 42.8958 49.6203C50.2437 47.2242 53.9177 48.5021 56.3138 48.1827C58.7098 47.8632 59.0293 50.419 63.8214 50.8982L64.0532 50.9214C68.6243 51.378 68.9592 51.4114 70.5304 53.454C72.1277 55.5306 68.4538 58.0864 68.933 60.8019C69.3164 62.9743 72.2875 65.7538 73.7251 66.8719C74.79 65.4875 76.5045 61.0894 74.8433 54.5722C72.7667 46.4256 67.1759 46.4256 64.4604 45.1477C61.7448 43.8698 56.3138 44.1892 53.9177 45.1477Z" fill="#F5D5BC"/>
<path d="M49.7645 63.8369C48.4866 63.198 49.2321 60.3759 49.7645 59.0448C52.4801 58.7253 51.5216 59.8435 51.6814 61.4409C51.8411 63.0382 51.3619 64.6356 49.7645 63.8369Z" fill="#F5D5BC"/>
<path d="M40.6595 90.6728C41.0429 88.5004 43.375 81.6742 44.4932 78.5327C45.3451 78.1068 47.0809 77.5104 47.2087 78.5327C47.3685 79.8106 45.6114 82.5262 44.4932 84.2833C43.5987 85.689 41.5647 89.1287 40.6595 90.6728Z" fill="#F5D5BC"/>
<path d="M52.3203 92.2701C51.0424 88.9476 51.3619 81.7275 51.6814 78.5327C57.2189 79.2249 68.1663 81.1205 67.6551 83.1651C67.0162 85.7209 53.9177 96.4233 52.3203 92.2701Z" fill="#F5D5BC"/>
<path d="M25.1648 34.6051C25.9316 32.3049 27.4011 32.5818 28.0401 33.0077C28.1998 34.126 24.3661 39.2374 23.0882 43.3906C22.0659 46.7131 21.1714 49.5671 20.8519 50.5788L17.7686 51.6579C17.7247 51.704 17.6859 51.7113 17.6572 51.6969L17.7686 51.6579C17.8873 51.5334 18.0431 51.1259 18.1364 50.0996C18.2961 48.3425 24.2064 37.4804 25.1648 34.6051Z" fill="#D6B49B"/>
<path d="M3.76002 58.4059C4.14339 58.5337 7.54047 58.3527 9.19109 58.2462C8.92486 58.1929 8.26462 58.0545 7.75346 57.9267C7.11451 57.767 5.67687 56.1696 4.0795 56.3293C2.48212 56.4891 3.28081 58.2462 3.76002 58.4059Z" fill="#D6B49B"/>
<path d="M45.132 63.0383C42.8318 62.5271 35.3348 64.8486 31.8738 66.0733C39.3814 60.4825 31.8738 61.4409 30.4361 61.4409C28.9985 61.4409 16.3793 63.6772 14.9416 62.2396C13.504 60.802 15.9001 58.8851 17.0182 57.6072C18.1364 56.3293 23.0882 57.9267 25.1648 58.2462C27.2414 58.5656 31.8738 56.0098 36.1867 54.4125C40.4996 52.8151 44.1736 53.7735 47.8475 56.0098C51.5215 58.2462 57.1123 56.8085 61.1057 55.6904C65.0991 54.5722 64.9394 57.2877 63.342 58.8851C62.0641 60.163 56.5266 59.737 53.9175 59.3643L51.6812 63.0383C51.9368 59.2046 50.2968 58.9916 49.4449 59.3643C48.9657 60.802 47.4322 63.5494 45.132 63.0383Z" fill="#D6B49B"/>
<path d="M66.6965 41.7932C66.4409 42.1766 66.2705 44.5088 66.2173 45.6269C62.8948 44.0934 58.1239 44.2425 56.1538 44.5088C57.0484 43.6142 56.5266 41.5802 56.1538 40.6751C56.7928 41.74 58.6777 43.8698 61.1057 43.8698C63.5337 43.8698 65.8446 42.4854 66.6965 41.7932Z" fill="#D6B49B"/>
<path d="M46.5696 83.4846C45.5473 85.1459 44.1203 88.8625 43.5346 90.5131C44.9722 90.7793 47.8475 91.0881 47.8475 90.1936C47.8475 89.2991 49.7644 81.834 50.7228 78.2133C50.2968 77.7341 49.4449 77.0632 49.4449 78.2133C49.4449 79.651 47.8475 81.4081 46.5696 83.4846Z" fill="#D6B49B"/>
<path d="M45.4514 62.3994C42.5123 65.8498 41.884 70.0136 41.9372 71.6642C43.9818 72.3032 47.6877 63.7306 49.2851 59.3644L45.4514 62.3994Z" fill="#2C9A4A"/>
<path d="M43.6943 79.3316C44.2055 78.6926 44.2268 77.1485 44.1735 76.4563L50.2436 71.6642C51.2552 72.7291 53.63 75.0506 55.0357 75.8174C56.7928 76.7758 61.2654 72.9421 63.981 71.6642C66.6965 70.3863 67.9744 72.7824 68.2939 74.5395C68.5494 75.9452 70.7432 77.468 71.8081 78.0537C71.3821 79.0654 70.4982 81.3443 70.3704 82.3666C70.2107 83.6445 61.2654 83.6445 54.5565 81.0887C49.1893 79.0441 45.0787 79.0654 43.6943 79.3316Z" fill="#2C9A4A"/>
<path d="M59.1888 133.802C58.1665 130.991 54.1837 125.602 52.3201 123.259C60.9459 123.259 68.2939 146.581 69.5718 151.213C70.5941 154.919 79.9014 168.838 84.4273 175.334C82.191 172.565 76.5363 165.43 71.8081 159.04C65.8978 151.054 60.4667 137.316 59.1888 133.802Z" fill="#2C9A4A"/>
<path d="M48.0072 62.08C48.3906 61.9522 49.1254 60.3229 49.4449 59.5242C48.6781 62.4634 49.5514 63.8371 50.0838 64.1566C49.7643 66.2332 51.202 67.0319 52.1604 70.3863C52.9271 73.0699 59.6148 72.8889 62.8628 72.4629C62.0109 73.3149 59.5403 75.2424 56.4733 76.1369C52.6396 77.255 50.0838 71.5045 50.0838 72.4629C50.0838 73.4213 47.6878 75.6577 47.6878 76.4564C47.6878 77.0953 45.3449 77.0421 44.1735 76.9356C42.2567 74.3798 41.884 72.037 41.9372 71.185C44.493 70.2266 47.528 62.2397 48.0072 62.08Z" fill="#34A853"/>
<path d="M68.4536 90.673C66.6646 89.9062 49.3916 89.9275 40.9788 90.034C32.5127 100.736 31.2348 126.454 33.3114 132.364C35.388 138.275 39.062 156.644 39.062 165.27C39.062 172.171 40.9788 183.054 41.9372 187.633H51.0422C49.9241 183.108 47.4961 173.225 46.7293 169.903C45.9626 166.58 47.0488 158.189 47.6878 154.408C48.4865 150.947 50.2755 141.406 51.0422 130.927C52.0007 117.828 53.4383 124.058 56.4733 126.454C59.5083 128.85 67.6549 150.574 74.3639 161.437C79.7311 170.126 90.3376 182.522 94.97 187.633C97.1531 185.663 101.136 181.595 99.6024 181.084C97.6855 180.445 81.8715 156.485 81.0728 150.574C80.2742 144.664 72.9263 136.518 69.7315 129.968C66.5368 123.419 68.4536 112.397 67.6549 106.008C66.8562 99.6183 62.0641 97.7014 61.9044 93.708C61.7766 90.5132 66.2173 90.3535 68.4536 90.673Z" fill="#34A853"/>
<path d="M58.7097 59.8437L53.9176 59.3644C53.6514 59.6307 52.9592 60.5784 52.3203 62.2397C51.6813 63.901 50.4567 64.2098 49.9242 64.1566C47.3684 74.5395 61.9045 73.1018 63.9811 71.9837C66.0577 70.8655 67.3356 72.6226 67.4953 74.22C67.6231 75.4979 70.3173 77.5212 71.6485 78.3732C72.2874 77.2231 73.0861 72.5694 73.4056 70.3863C70.5303 72.7824 64.62 67.9903 62.5434 66.3929C60.8822 65.115 59.2955 61.4943 58.7097 59.8437Z" fill="#47BC67"/>
<path d="M61.1058 94.9858C60.7224 89.8743 66.2706 89.8743 69.0927 90.5132C69.9446 95.5715 71.9999 106.806 73.4056 111.279C75.1627 116.87 79.7951 125.496 79.9548 133.163C80.0826 139.297 85.2261 153.077 87.7819 159.2C92.8935 163.954 99.3895 177.474 101.999 183.64C95.7155 177.464 83.0537 163.928 82.6703 159.2C82.1911 153.29 78.9964 146.262 73.4056 139.872C67.8148 133.483 67.4953 123.579 67.4953 111.279C67.4953 98.9793 61.585 101.375 61.1058 94.9858Z" fill="#47BC67"/>
<path d="M46.7295 147.539C46.7295 143.45 49.8177 134.547 51.3618 130.607C54.3968 142.747 51.3618 169.743 51.3618 172.299C51.3618 174.343 52.0008 185.291 52.3203 190.509C48.4866 186.515 45.6113 169.583 45.6113 168.146C45.6113 166.708 46.7295 152.651 46.7295 147.539Z" fill="#47BC67"/>
</g>
<defs>
<clipPath id="clip0_201_212">
<rect width="84.6769" height="172" fill="white" transform="translate(0.32309 0.63623)"/>
</clipPath>
</defs>
</svg>
