<svg width="85" height="172" viewBox="0 0 85 172" fill="none" xmlns="http://www.w3.org/2000/svg">
<g clip-path="url(#clip0_201_287)">
<path d="M27.4133 27.4509C26.4764 26.0455 27.0229 20.6974 27.4133 18.1991L39.4757 10.4697L50.7185 21.4782C51.1869 24.7964 52.1707 33.0957 52.358 39.7476C52.5923 48.0626 59.5019 53.801 61.4928 58.1342C63.0855 61.6007 63.4837 72.1486 63.4837 76.9892H58.3307C57.511 82.1031 55.6606 93.4785 54.8174 98.0693C53.7634 103.808 55.2858 104.042 54.8174 107.672C54.4426 110.577 48.2591 123.951 45.2142 130.275C51.7725 133.945 64.9827 142.548 65.3575 147.608C65.7322 152.667 61.6099 158.616 59.5019 160.958L63.4837 173.606L18.0443 172.67C20.0352 166.385 25.071 151.753 29.287 143.509C33.503 135.264 40.2565 113.762 43.1062 104.042C42.6378 100.575 42.1303 87.4512 41.9351 81.3223L29.287 82.2592C29.4041 79.4485 31.6058 71.5552 39.4757 62.4673C47.3457 53.3794 43.6918 47.1991 40.8811 45.245C39.2345 46.0248 37.7501 46.578 36.8993 46.8914C34.6742 47.7112 32.449 44.1979 31.8635 42.7925C31.2779 41.3872 28.4672 35.8829 27.9988 34.2434C27.5303 32.6038 27.8817 30.73 27.9988 30.3787C28.1159 30.0273 28.5844 29.2076 27.4133 27.4509Z" fill="#EAC7AC"/>
<path d="M49.4306 23.9379C46.1515 22.4155 39.8274 28.9737 35.3772 20.5413C33.9718 19.0188 29.7558 19.253 29.6387 21.4782C29.545 23.2583 26.3596 27.1 25.6569 27.6855C24.72 27.4981 25.2275 23.8204 24.72 23.1177C24.72 10.8214 31.0441 8.47876 35.3772 7.65897C39.7103 6.83919 43.6922 7.07413 52.1242 11.9925C59.7078 16.4161 62.3129 39.0454 59.9707 47.2427C58.6394 51.9018 60.0903 54.7045 61.2298 56.1759C61.4884 56.4747 61.7271 56.7507 61.9422 57.0003C62.1423 57.2131 62.2808 57.3543 62.3129 57.4315C62.1989 57.2984 62.075 57.1544 61.9422 57.0003C61.7489 56.7947 61.498 56.5222 61.2298 56.1759C57.7121 52.1121 50.5073 43.8498 48.7279 40.9191C47.1352 38.2958 49.0402 28.8566 49.4306 23.9379Z" fill="#A08263"/>
<path d="M51.4206 10.9389C47.2983 7.65974 40.4902 9.57257 37.6014 10.9389C48.6099 7.30844 54.1142 21.1276 54.3484 26.7489C54.5358 31.246 56.9249 38.9286 58.096 42.2077C57.1591 35.6494 58.7987 30.7307 59.0329 26.0463C59.2671 21.3618 56.5736 15.0378 51.4206 10.9389Z" fill="#61472D"/>
<path d="M23.7825 84.8356C24.1573 80.7133 32.2146 71.3288 36.1964 67.1518C32.2614 75.3964 38.1483 79.7998 41.5836 80.971C41.7397 80.2293 42.0286 79.2611 41.9349 81.3223C41.8412 83.3835 42.5205 97.6399 42.8718 104.51C41.4664 107.227 37.2114 119.696 35.2595 125.591L30.3408 140.815C26.7806 133.976 27.2178 105.877 27.8815 92.6821C26.359 91.7843 23.4078 88.958 23.7825 84.8356Z" fill="#34A853"/>
<path d="M58.6819 76.872C60.2262 76.5246 63.2978 75.5815 63.3652 74.5638C63.3656 74.5525 63.366 74.5411 63.3664 74.5298C63.3664 74.5412 63.366 74.5525 63.3652 74.5638C63.1273 81.686 61.603 97.8006 57.3937 105.564C52.1236 115.285 54.2316 119.267 56.8081 122.429C59.3846 125.591 71.4471 141.049 64.4204 154.517C65.1621 151.863 65.4978 145.546 60.907 141.518C56.3162 137.489 48.6103 132.5 45.3311 130.509C48.1418 124.498 53.9037 111.865 54.4659 109.429C55.1574 106.432 54.7944 104.317 54.4809 102.49L54.4659 102.402C53.7632 98.3035 55.2856 89.0517 58.6819 76.872Z" fill="#34A853"/>
<path d="M31.8633 93.506C24.7429 92.7565 23.5874 87.4942 23.8997 84.9568C23.8997 94.9816 37.9531 92.9204 40.7638 84.9568C40.7638 88.1188 38.9837 94.2555 31.8633 93.506Z" fill="#2C9A4A"/>
<path d="M45.5654 130.279L48.6103 123.721C54.9843 126.48 67.0775 136.259 64.687 153.358C64.6778 153.437 64.667 153.512 64.6546 153.584C64.6657 153.509 64.6765 153.433 64.687 153.358C65.0265 150.456 63.1335 143.159 52.8263 135.315L45.5654 130.279Z" fill="#2C9A4A"/>
<path d="M36.8992 46.8911C36.3136 47.0863 34.8849 47.1253 33.8543 45.7199C32.5661 43.9633 31.7463 42.9093 31.2778 41.2697C31.7853 42.1676 33.0579 44.1741 34.0885 45.0173C35.3767 46.0713 38.3045 45.7199 39.2414 45.0173C39.972 44.4694 44.4052 42.5686 46.7668 40.925C47.303 40.4451 47.7693 40.0028 48.1419 39.6301C47.9356 40.017 47.4338 40.4608 46.7668 40.925C45.6659 41.9103 44.2701 43.0543 42.7839 44.0804C45.702 47.2034 49.3599 54.9952 40.6468 61.1787C42.5206 58.9536 45.6357 53.2151 43.1061 48.0622C42.818 47.4766 41.9418 46.1181 40.7416 45.3686C39.4148 46.1198 38.0892 46.6879 36.8992 46.8911Z" fill="#D6B49B"/>
<path d="M58.4478 78.0428C59.0099 69.4234 53.3729 65.2386 50.4842 64.2236C59.1504 72.6557 55.8713 71.2503 56.9253 78.0428C57.9793 84.8353 52.5922 98.3032 52.5922 105.681C52.5922 113.059 48.1419 119.383 43.9259 127.113C40.5531 133.296 37.8361 142.884 36.8992 146.905C42.1302 135.779 52.8498 112.708 53.8804 109.429C55.1686 105.33 54.5831 107.204 54.466 99.8256C54.3488 92.4476 57.7451 88.8171 58.4478 78.0428Z" fill="#D6B49B"/>
<path d="M43.7901 177.733L64.9016 152.502C62.842 159.711 48.4244 174.644 45.8498 177.588L43.7901 177.733Z" fill="#D6B49B"/>
<path d="M49.6644 26.2794C49.7581 21.3138 47.2831 22.6489 46.0339 23.9371C50.2678 23.9371 49.2034 29.9489 48.1419 32.9547C48.6104 32.7986 49.5707 31.2449 49.6644 26.2794Z" fill="#D6B49B"/>
<path d="M42.0513 87.767C41.6766 79.8971 42.8321 76.7585 43.4567 76.1729C41.9342 80.0376 42.8711 87.767 44.0422 96.6675C45.2134 105.568 44.0422 108.964 41.2316 113.18C38.983 116.553 32.3311 135.588 29.2861 144.683C30.5041 138.968 38.8503 115.366 42.8711 104.28C42.754 102.055 42.4261 95.6369 42.0513 87.767Z" fill="#F5D5BC"/>
</g>
<defs>
<clipPath id="clip0_201_287">
<rect width="84.6769" height="172" fill="white" transform="translate(0.32309)"/>
</clipPath>
</defs>
</svg>
