<svg width="25" height="25" viewBox="0 0 25 25" fill="none" xmlns="http://www.w3.org/2000/svg">
<path fill-rule="evenodd" clip-rule="evenodd" d="M24.055 13.5116C23.7001 17.039 21.9705 19.651 20.1723 21.1878C18.1175 22.9439 15.2443 24.3973 11.4586 24.0573C5.45891 23.5186 0.32198 18.1823 0.962072 11.4085C1.52841 5.41525 6.8757 0.309425 13.5888 0.952049C15.2026 1.10658 16.7641 1.60454 17.9847 2.28332C21.9547 4.49096 24.5281 8.80989 24.055 13.5116ZM0.0814411 13.8617C0.808355 20.3362 6.52227 25.6587 13.831 24.9337C20.2269 24.2994 25.7059 18.4598 24.9257 11.1532C24.2403 4.73419 18.4751 -0.695656 11.1804 0.0727342C4.79864 0.745035 -0.741832 6.52904 0.0814411 13.8617Z" fill="#313143"/>
<path fill-rule="evenodd" clip-rule="evenodd" d="M13.3223 19.5909H10.4402V12.7946H9V10.4528H10.4402V9.04689C10.4402 7.13658 11.253 6 13.5636 6H15.4868V8.34264H14.2848C13.3853 8.34264 13.3258 8.66989 13.3258 9.28064L13.3219 10.4528H15.5L15.2451 12.7946H13.3219L13.3223 19.5909Z" fill="#313143"/>
</svg>
