<?xml version="1.0" standalone="no"?>
<!DOCTYPE svg PUBLIC "-//W3C//DTD SVG 20010904//EN"
 "http://www.w3.org/TR/2001/REC-SVG-20010904/DTD/svg10.dtd">
<svg version="1.0" xmlns="http://www.w3.org/2000/svg"
 width="1200.000000pt" height="1200.000000pt" viewBox="0 0 1200.000000 1200.000000"
 preserveAspectRatio="xMidYMid meet">
<metadata>
Created by potrace 1.14, written by Peter Selinger 2001-2017
</metadata>
<g transform="translate(0.000000,1200.000000) scale(0.100000,-0.100000)"
fill="#000000" stroke="none">
<path d="M4368 9673 c-3 -7 -2 -7298 1 -7345 1 -17 18 -18 206 -18 l205 0 0
1748 0 1747 210 1 210 0 0 -56 c0 -30 1 -406 1 -834 l0 -780 23 25 c18 19 185
212 302 349 12 14 86 99 165 191 79 91 169 194 199 229 30 35 60 68 65 74 6 6
80 92 164 191 85 99 159 185 165 190 6 6 36 39 66 75 30 36 57 67 60 70 3 3
34 39 70 80 36 41 77 88 91 105 15 16 38 44 52 60 l25 30 251 0 c138 1 251 -2
251 -5 0 -3 -12 -19 -28 -35 -15 -17 -56 -64 -92 -105 -35 -41 -71 -82 -80
-91 -8 -9 -28 -31 -44 -50 -48 -55 -161 -184 -166 -189 -3 -3 -50 -57 -105
-120 -55 -63 -104 -120 -110 -126 -16 -18 -112 -127 -135 -154 -25 -29 -130
-148 -145 -164 -6 -6 -55 -63 -109 -126 -55 -63 -104 -119 -110 -125 -6 -5
-38 -41 -71 -80 -33 -38 -62 -72 -65 -75 -3 -3 -37 -41 -75 -85 -39 -44 -82
-93 -97 -110 -94 -107 -89 -98 -69 -120 22 -25 182 -214 198 -235 19 -25 297
-355 303 -360 3 -3 21 -25 41 -50 20 -25 45 -55 55 -66 11 -12 37 -43 59 -70
22 -26 172 -206 334 -399 161 -192 310 -370 330 -394 20 -24 41 -49 46 -55 6
-6 28 -32 49 -59 l39 -47 266 2 266 3 0 3670 c1 2019 -1 3676 -3 3683 -3 9
-339 12 -1632 12 -896 0 -1630 -3 -1632 -7z"/>
<path d="M5201 3153 l0 -843 695 0 695 0 -18 23 c-10 12 -77 95 -150 182 -314
381 -396 482 -421 514 -15 19 -32 39 -38 45 -6 6 -64 77 -130 156 -65 80 -152
186 -194 236 -41 50 -111 135 -155 189 -44 54 -84 103 -90 109 -15 17 -108
128 -125 150 -8 10 -27 33 -42 50 l-27 31 0 -842z"/>
</g>
</svg>
