<svg width="18" height="18" viewBox="0 0 18 18" fill="none" xmlns="http://www.w3.org/2000/svg">
<path d="M18 6.18754C18 9.60479 15.2298 12.375 11.8125 12.375C11.418 12.375 11.0324 12.3377 10.6584 12.2671L9.81425 13.2168C9.73509 13.3059 9.63797 13.3772 9.52927 13.426C9.42058 13.4748 9.30277 13.5 9.18362 13.5H7.875V14.9062C7.875 15.3722 7.49725 15.75 7.03125 15.75H5.625V17.1562C5.625 17.6222 5.24725 18 4.78125 18H0.84375C0.377754 18 0 17.6222 0 17.1562V14.412C0 14.1882 0.0889101 13.9736 0.247113 13.8154L5.93546 8.127C5.73427 7.5169 5.625 6.865 5.625 6.1875C5.625 2.77024 8.39521 3.51566e-05 11.8125 3.35833e-10C15.2398 -3.51559e-05 18 2.76015 18 6.18754ZM11.8125 4.5C11.8125 5.43199 12.568 6.1875 13.5 6.1875C14.432 6.1875 15.1875 5.43199 15.1875 4.5C15.1875 3.56801 14.432 2.8125 13.5 2.8125C12.568 2.8125 11.8125 3.56801 11.8125 4.5Z" fill="white"/>
</svg>
