<svg width="16" height="28" viewBox="0 0 16 28" fill="none" xmlns="http://www.w3.org/2000/svg">
<path d="M7 27C7 27.5523 7.44772 28 8 28C8.55228 28 9 27.5523 9 27L7 27ZM8.7071 0.95956C8.31658 0.569036 7.68342 0.569037 7.29289 0.95956L0.928931 7.32352C0.538406 7.71405 0.538406 8.34721 0.928931 8.73774C1.31946 9.12826 1.95262 9.12826 2.34314 8.73774L8 3.08088L13.6569 8.73774C14.0474 9.12826 14.6805 9.12826 15.0711 8.73774C15.4616 8.34721 15.4616 7.71405 15.0711 7.32352L8.7071 0.95956ZM9 27L9 1.66667L7 1.66667L7 27L9 27Z" fill="white"/>
</svg>
