<svg width="25" height="25" viewBox="0 0 25 25" fill="none" xmlns="http://www.w3.org/2000/svg">
<path fill-rule="evenodd" clip-rule="evenodd" d="M24.055 13.5116C23.7001 17.039 21.9705 19.651 20.1723 21.1878C18.1175 22.9439 15.2443 24.3973 11.4586 24.0573C5.45891 23.5186 0.32198 18.1823 0.962072 11.4085C1.52841 5.41525 6.8757 0.309425 13.5888 0.952049C15.2026 1.10658 16.7641 1.60454 17.9847 2.28332C21.9547 4.49096 24.5281 8.80989 24.055 13.5116ZM0.0814411 13.8617C0.808355 20.3362 6.52227 25.6587 13.831 24.9337C20.2269 24.2994 25.7059 18.4598 24.9257 11.1532C24.2403 4.73419 18.4751 -0.695656 11.1804 0.0727342C4.79864 0.745035 -0.741832 6.52904 0.0814411 13.8617Z" fill="#313143"/>
<path fill-rule="evenodd" clip-rule="evenodd" d="M17.9473 9.68157C18.4731 9.34971 18.8767 8.8235 19.066 8.19666C18.5737 8.5047 18.0296 8.72748 17.4491 8.84808C16.9858 8.32571 16.3238 8 15.591 8C14.1853 8 13.0461 9.20222 13.0461 10.6848C13.0461 10.8953 13.0672 11.1004 13.111 11.2963C10.9958 11.1841 9.12026 10.1164 7.86384 8.49087C7.6446 8.8888 7.51932 9.34971 7.51932 9.84135C7.51932 10.7724 7.96872 11.5944 8.65192 12.0768C8.23457 12.063 7.84199 11.9408 7.4982 11.7411V11.7741C7.4982 13.0754 8.37515 14.1609 9.54125 14.4067C9.32711 14.4697 9.10278 14.5012 8.8697 14.5012C8.70582 14.5012 8.54558 14.4851 8.39117 14.4536C8.71456 15.5198 9.65488 16.2972 10.7693 16.318C9.89742 17.0385 8.79978 17.4672 7.60745 17.4672C7.40206 17.4672 7.19884 17.4557 7 17.4303C8.12677 18.1916 9.46478 18.6364 10.9026 18.6364C15.5859 18.6364 18.1454 14.545 18.1454 10.9967C18.1454 10.8799 18.1439 10.7639 18.1388 10.6495C18.6363 10.2708 19.0689 9.79757 19.4091 9.25906C18.9524 9.47262 18.4615 9.61704 17.9473 9.68157Z" fill="#313143"/>
</svg>
