<svg width="25" height="25" viewBox="0 0 25 25" fill="none" xmlns="http://www.w3.org/2000/svg">
<path fill-rule="evenodd" clip-rule="evenodd" d="M24.055 13.5116C23.7001 17.039 21.9705 19.651 20.1723 21.1878C18.1175 22.9439 15.2443 24.3973 11.4586 24.0573C5.45891 23.5186 0.32198 18.1823 0.962072 11.4085C1.52841 5.41525 6.8757 0.309425 13.5888 0.952049C15.2026 1.10658 16.7641 1.60454 17.9847 2.28332C21.9547 4.49096 24.5281 8.80989 24.055 13.5116ZM0.0814411 13.8617C0.808355 20.3362 6.52227 25.6587 13.831 24.9337C20.2269 24.2994 25.7059 18.4598 24.9257 11.1532C24.2403 4.73419 18.4751 -0.695656 11.1804 0.0727342C4.79864 0.745035 -0.741832 6.52904 0.0814411 13.8617Z" fill="#313143"/>
<path fill-rule="evenodd" clip-rule="evenodd" d="M15.4167 13.75C14.5833 14.5833 14.5833 15.4167 13.75 15.4167C12.9167 15.4167 12.0833 14.5833 11.25 13.75C10.4167 12.9167 9.58333 12.0833 9.58333 11.25C9.58333 10.4167 10.4167 10.4167 11.25 9.58333C12.0833 8.75 9.58333 6.25 8.75 6.25C7.91667 6.25 6.25 8.75 6.25 8.75C6.25 10.4167 7.9625 13.7958 9.58333 15.4167C11.2033 17.0375 14.5833 18.75 16.25 18.75C16.25 18.75 18.75 17.0833 18.75 16.25C18.75 15.4167 16.25 12.9167 15.4167 13.75Z" fill="#313143"/>
</svg>
