<svg width="25" height="25" viewBox="0 0 25 25" fill="none" xmlns="http://www.w3.org/2000/svg">
<path fill-rule="evenodd" clip-rule="evenodd" d="M24.055 13.5116C23.7001 17.039 21.9705 19.651 20.1723 21.1878C18.1175 22.9439 15.2443 24.3973 11.4586 24.0573C5.45891 23.5186 0.32198 18.1823 0.962072 11.4085C1.52841 5.41525 6.8757 0.309425 13.5888 0.952049C15.2026 1.10658 16.7641 1.60454 17.9847 2.28332C21.9547 4.49096 24.5281 8.80989 24.055 13.5116ZM0.0814411 13.8617C0.808355 20.3362 6.52227 25.6587 13.831 24.9337C20.2269 24.2994 25.7059 18.4598 24.9257 11.1532C24.2403 4.73419 18.4751 -0.695656 11.1804 0.0727342C4.79864 0.745035 -0.741832 6.52904 0.0814411 13.8617Z" fill="#313143"/>
<path d="M8.87971 11.6768C8.0845 11.1668 7.60788 10.86 7.44974 10.7568C7.16147 10.576 6.88938 10.3274 6.63365 10.011C6.37791 9.69468 6.25 9.40083 6.25 9.12964C6.25 8.79394 6.34649 8.51412 6.53947 8.29024C6.73245 8.06644 7.00796 7.95455 7.36601 7.95455H17.6339C17.936 7.95455 18.1977 8.05567 18.4186 8.25799C18.6395 8.46031 18.75 8.70352 18.75 8.98763C18.75 9.32768 18.6361 9.65268 18.4081 9.96246C18.1802 10.2724 17.8967 10.5372 17.5572 10.7566C15.8087 11.8801 14.7205 12.5796 14.2927 12.855C14.2462 12.8852 14.1473 12.9508 13.9962 13.052C13.8451 13.1532 13.7196 13.235 13.6196 13.2974C13.5196 13.3598 13.3987 13.4297 13.2569 13.5072C13.1152 13.5845 12.9813 13.6428 12.8558 13.6814C12.7302 13.7202 12.614 13.7394 12.507 13.7394H12.493C12.386 13.7394 12.2698 13.7202 12.1442 13.6814C12.0187 13.6428 11.8849 13.5846 11.7431 13.5072C11.6012 13.4297 11.4803 13.3598 11.3803 13.2974C11.2804 13.235 11.1548 13.1532 11.0037 13.052C10.8526 12.9508 10.7538 12.8852 10.7073 12.855C10.2841 12.5796 9.67491 12.1869 8.87971 11.6768Z" fill="#313143"/>
<path d="M14.5788 13.6751C15.3692 13.1456 16.5272 12.4031 18.0524 11.4476C18.3176 11.2797 18.55 11.0924 18.75 10.8859V16.0123C18.75 16.2965 18.6408 16.5395 18.4222 16.7419C18.2036 16.9443 17.9408 17.0455 17.634 17.0455H7.3661C7.05916 17.0455 6.7964 16.9443 6.57783 16.7419C6.35925 16.5396 6.25 16.2965 6.25 16.0123V10.8859C6.45462 11.0967 6.68947 11.2841 6.95454 11.4476C8.63793 12.5064 9.79349 13.249 10.4213 13.6751C10.6864 13.8559 10.9015 13.9969 11.0665 14.098C11.2316 14.1992 11.4514 14.3024 11.7257 14.4079C12 14.5134 12.2558 14.5661 12.493 14.5661H12.5071C12.7443 14.5661 13 14.5134 13.2743 14.4079C13.5487 14.3024 13.7684 14.1992 13.9335 14.098C14.0986 13.9969 14.3137 13.8559 14.5788 13.6751Z" fill="#313143"/>
</svg>
