<svg width="25" height="25" viewBox="0 0 25 25" fill="none" xmlns="http://www.w3.org/2000/svg">
<path fill-rule="evenodd" clip-rule="evenodd" d="M10.1869 16.0688L9.53393 14.7594C9.3412 14.3168 9.10196 13.884 8.95836 13.4583L15.4191 9.34384C15.2459 9.64767 14.9217 9.87086 14.6864 10.1039L12.3549 12.2737C12.0324 12.6049 10.1361 14.1511 10.0931 14.5269C10.0594 14.8217 10.1807 15.677 10.1869 16.0688ZM10.099 17.33C10.4173 17.2983 10.7594 16.8423 11.0038 16.6416C11.2514 16.4383 11.6299 16.0216 11.8779 15.8872L14.3937 17.8747C15.811 19.0289 16.0236 16.6268 16.2458 15.6713L18.0093 8.19041C18.4678 6.23564 18.1915 6.58008 14.9416 7.90878L5.37202 11.7609C4.87598 12.0541 5.1646 12.4764 5.64517 12.6441C6.37968 12.9003 7.11169 13.1845 7.84658 13.4303C8.49395 13.6467 8.4744 14.0314 9.05674 15.2653C9.27585 15.7295 9.83232 17.0742 10.099 17.33Z" fill="#313143"/>
<path fill-rule="evenodd" clip-rule="evenodd" d="M24.055 13.5116C23.7001 17.039 21.9705 19.651 20.1723 21.1878C18.1175 22.9439 15.2443 24.3973 11.4586 24.0573C5.45891 23.5186 0.32198 18.1823 0.962072 11.4085C1.52841 5.41525 6.8757 0.309425 13.5888 0.952049C15.2026 1.10658 16.7641 1.60454 17.9847 2.28332C21.9547 4.49096 24.5281 8.80989 24.055 13.5116ZM0.0814411 13.8617C0.808355 20.3362 6.52227 25.6587 13.831 24.9337C20.2269 24.2994 25.7059 18.4598 24.9257 11.1532C24.2403 4.73419 18.4751 -0.695656 11.1804 0.0727342C4.79864 0.745035 -0.741832 6.52904 0.0814411 13.8617Z" fill="#313143"/>
</svg>
