<svg width="25" height="25" viewBox="0 0 25 25" fill="none" xmlns="http://www.w3.org/2000/svg">
<path fill-rule="evenodd" clip-rule="evenodd" d="M24.055 13.5116C23.7001 17.039 21.9705 19.651 20.1723 21.1878C18.1175 22.9439 15.2443 24.3973 11.4586 24.0573C5.45891 23.5186 0.32198 18.1823 0.962072 11.4085C1.52841 5.41525 6.8757 0.309425 13.5888 0.952049C15.2026 1.10658 16.7641 1.60454 17.9847 2.28332C21.9547 4.49096 24.5281 8.8099 24.055 13.5116ZM0.0814411 13.8617C0.808355 20.3362 6.52227 25.6587 13.831 24.9337C20.2269 24.2994 25.7059 18.4598 24.9257 11.1532C24.2403 4.73419 18.4751 -0.695656 11.1804 0.0727342C4.79864 0.745035 -0.741832 6.52904 0.0814411 13.8617Z" fill="#BDBDBD"/>
<path d="M8.99093 10.5745C8.99093 12.5486 10.562 14.1489 12.5 14.1489C14.438 14.1489 16.0091 12.5486 16.0091 10.5745C16.0091 8.60034 14.438 7 12.5 7C10.562 7 8.99093 8.60034 8.99093 10.5745Z" fill="#BDBDBD"/>
<path d="M7 16.1234C8.22824 17.8653 10.2339 19 12.5 19C14.7661 19 16.7718 17.8653 18 16.1234C17.9016 15.2621 17.2898 14.5389 16.4479 14.3245L15.4336 14.0662C14.6169 14.7805 13.5879 15.1702 12.5 15.1702C11.4121 15.1702 10.3831 14.7805 9.56635 14.0662L8.55204 14.3245C7.71018 14.5389 7.09841 15.2621 7 16.1234Z" fill="#BDBDBD"/>
</svg>
