<svg width="223" height="272" viewBox="0 0 223 272" fill="none" xmlns="http://www.w3.org/2000/svg">
<path opacity="0.5" fill-rule="evenodd" clip-rule="evenodd" d="M27.0685 109.105C38.2008 88.3113 48.2639 72.7926 60.3511 52.8364C71.6199 34.23 84.1121 11.2713 113.862 25.3404C130.118 33.0287 154.751 50.0205 170.867 60.0292C223.599 92.7827 201.511 107.234 162.694 170.038C151.121 188.761 139.629 211.683 110.136 197.154C93.1055 188.768 70.3656 172.588 53.3752 162.358C33.6938 150.51 10.4704 140.107 27.0685 109.105Z" fill="#EEF1FF"/>
<path fill-rule="evenodd" clip-rule="evenodd" d="M153.722 100.194V127.651H155.555C155.555 121.148 155.604 114.624 155.55 108.122C155.487 100.355 155.109 102.028 160.797 98.7165L170.478 93.0607C173.319 91.5142 178.564 95.363 183.248 98.1721C184.578 98.9695 184.923 99.2272 186.343 99.9627C187.922 100.78 189.167 100.789 189.167 102.635V142.296C189.167 144.351 183.866 146.689 180.353 148.75C172.095 153.598 174.69 152.782 169.611 152.668V154.499C173.759 155.464 170.842 156.804 180.351 151.188C182.65 149.83 188.952 145.892 191 145.347V100.194L172.576 90.0006C171.044 89.9144 156.25 98.859 153.722 100.194Z" fill="#24ADED"/>
<path fill-rule="evenodd" clip-rule="evenodd" d="M130.5 158.769V138.635L139.036 134.344C141.514 132.952 144.63 131.068 147 129.482L162.664 138.267C164.887 140.107 164.142 151.32 164.15 153.927C164.161 158.764 163.201 159.166 154.74 163.446C146.327 167.703 149.465 169.967 139.057 163.041C136.989 161.664 133.183 159.393 130.5 158.769ZM128.667 137.415C128.667 141.236 128.462 146.341 128.334 149.112C128.184 152.361 128.667 154.92 128.667 159.38L137.834 164.872C140.181 166.117 145.194 170.225 147.486 169.99L161.699 161.854C167.721 158.492 165.945 160.766 165.945 139.246C165.945 137.251 163.697 136.579 162.172 135.69C143.513 124.809 150.071 125.636 133.748 134.556C131.168 135.965 131.65 136.72 128.667 137.415Z" fill="#24ADED"/>
<path fill-rule="evenodd" clip-rule="evenodd" d="M103 113.008V143.516C103 145.239 103.497 144.765 104.562 145.646L111.55 149.619C117.423 152.671 123.494 158.299 125 152.668C118.727 152.808 124.029 154.435 114.58 149.037C102.552 142.166 105.444 147.699 105.444 114.229C105.444 112.079 109.418 110.7 113.124 108.473C125.665 100.937 120.179 103.358 138.445 113.008L138.388 124.657C138.585 127.786 137.866 126.334 139.667 127.651C140.696 126.937 140.889 127.564 140.889 125.821C140.889 110.45 143.708 113.084 131.933 106.696C120.367 100.422 125.161 98.5213 107.401 109.471C105.704 110.517 103 111.037 103 113.008Z" fill="#24ADED"/>
<path fill-rule="evenodd" clip-rule="evenodd" d="M120.723 123.381C120.723 126.917 120.254 146.075 121.065 148.055C121.708 149.625 121.097 149.03 122.556 149.617C124.104 146.396 123.168 128.197 123.168 122.77C123.171 122.769 139.815 115.282 134.341 114.605C133.015 114.441 126.128 119.097 123.759 120.31C122.427 120.992 120.723 121.465 120.723 123.381Z" fill="#24ADED"/>
<path fill-rule="evenodd" clip-rule="evenodd" d="M171.445 110.568V149.617H173.278V111.788C175.4 110.667 177.826 109.336 179.973 108.099C182.07 106.892 184.839 105.752 186.112 103.856C183.087 102.407 176.275 108.016 171.445 110.568Z" fill="#24ADED"/>
<path fill-rule="evenodd" clip-rule="evenodd" d="M146.389 164.261H148.223V149.007C150.121 148.501 153.321 146.326 154.976 145.378C158.404 143.413 160.194 143.471 160.445 140.465C158.139 140.657 158.464 140.814 156.872 141.779L147.581 147.188C145.256 148.825 146.387 150.125 146.399 154.48C146.408 157.739 146.389 161.001 146.389 164.261Z" fill="#24ADED"/>
<path fill-rule="evenodd" clip-rule="evenodd" d="M178.166 133.753C180.513 133.128 180.667 131.024 183.726 125.881C184.461 124.646 184.84 124.362 184.889 122.16H183.056C182.036 126.532 176.684 130.553 178.166 133.753Z" fill="#24ADED"/>
<path fill-rule="evenodd" clip-rule="evenodd" d="M177.556 121.551C179.88 121.358 179.149 121.766 180.254 119.974C182.401 116.491 185.205 112.568 184.278 110.568C181.496 111.31 177.693 119.89 177.556 121.551Z" fill="#24ADED"/>
<path fill-rule="evenodd" clip-rule="evenodd" d="M152.502 159.379H154.335L157.196 153.694C157.847 152.53 160.903 148.786 159.119 148.198C157.563 147.686 152.737 156.543 152.502 159.379Z" fill="#24ADED"/>
<path fill-rule="evenodd" clip-rule="evenodd" d="M132.333 122.77C132.201 122.914 131.238 124.935 130.858 125.568L127.14 131.653C126.857 133.438 127.797 133.474 129.064 132.459L134.363 123.545C134.389 123.416 135.824 123.187 133.917 122.454C131.579 121.554 132.593 122.487 132.333 122.77Z" fill="#24ADED"/>
<path fill-rule="evenodd" clip-rule="evenodd" d="M178.777 144.736C180.825 144.191 181.699 141.755 183.963 137.71C185.074 135.722 184.82 137.459 184.888 134.364H183.055C181.999 138.887 177.297 141.541 178.777 144.736Z" fill="#24ADED"/>
<path opacity="0.5" d="M55.8519 240.056C55.6722 234.101 57.798 228.68 62.2291 223.794C66.6601 218.908 71.8262 216.287 77.7274 215.932C83.6713 215.53 89.1793 217.629 94.252 222.229C99.2787 226.787 101.882 232.044 102.062 237.999C102.33 243.948 100.248 249.365 95.817 254.252C91.4291 259.091 86.2187 261.714 80.1861 262.122C74.239 262.436 68.7751 260.334 63.7941 255.817C58.7214 251.217 56.0741 245.964 55.8519 240.056ZM78.9961 227.068C75.8483 227.325 73.0695 228.783 70.6603 231.44C68.2513 234.096 67.0499 237.005 67.0563 240.166C67.0625 243.328 68.2767 246.007 70.6986 248.203C73.1662 250.44 75.963 251.42 79.0882 251.142C82.2135 250.864 85.0021 249.373 87.4543 246.668C89.8634 244.012 91.0429 241.104 90.9917 237.946C90.9412 234.788 89.7048 232.11 87.2829 229.914C84.9067 227.759 82.1445 226.811 78.9961 227.068Z" fill="#EEF1FF"/>
</svg>
