<svg width="87" height="77" viewBox="0 0 87 77" fill="none" xmlns="http://www.w3.org/2000/svg">
<path fill-rule="evenodd" clip-rule="evenodd" d="M0.240942 58.5043C6.7461 59.9919 8.60035 58.429 15.154 58.4644L43.5385 59.2011C45.537 59.2011 44.8516 58.9002 45.6677 57.8074C43.9589 55.52 44.9407 56.3872 36.4415 56.4138L3.08034 56.4148C1.75924 53.2791 2.37021 17.7888 2.37021 12.5372C7.33785 12.5372 37.2722 13.3435 39.4489 12.0074C40.9199 11.1037 40.0891 12.1026 40.6989 10.4479C34.1679 7.37303 4.93236 12.0285 2.7512 8.74127C1.7198 7.18835 2.58442 9.60397 2.4345 6.88969C2.27894 4.03714 2.2012 2.78623 4.49959 2.78623H74.0589L73.7399 42.4508C74.1987 46.9458 74.769 38.5441 74.769 50.8436C74.769 53.7669 72.9237 51.6665 73.4276 54.2614C73.4276 54.2636 73.9496 55.1119 74.0589 56.4148H63.4123C63.7043 59.8636 63.3728 59.2011 71.9295 59.2011C74.3767 59.2011 74.6788 58.6857 76.8983 58.5043L76.94 5.53141C76.9885 2.57379 77.6423 0 74.769 0H2.37021C-1.05652 0 0.240942 6.13198 0.240942 12.5372V58.5043Z" fill="#24ADED"/>
<path fill-rule="evenodd" clip-rule="evenodd" d="M39.281 28.556C40.406 26.2543 39.9901 23.5024 39.9901 20.1986L52.0569 26.4667V40.3964C50.4416 39.558 49.5691 39.1675 47.9211 38.1389C46.6586 37.3514 44.615 35.4767 43.8452 37.2563C43.3187 38.4719 42.5499 38.3436 46.3599 40.3898C48.5524 41.5667 49.1679 41.2149 50.6366 43.1826C47.3778 44.0365 43.9601 46.7022 42.0438 47.9841C37.4606 51.0501 37.0908 48.6787 26.504 43.1826C28.994 39.8478 32.5437 40.8067 33.6021 36.9134C29.383 37.2585 29.304 39.3556 25.0848 39.6996V26.4667L37.1517 20.1986C37.1517 25.2367 35.5567 27.5804 39.281 28.556ZM7.34022 18.806V24.3773C9.06711 23.9249 12.5108 20.9131 19.0509 24.7257C22.5566 26.7697 22.2454 25.3341 22.2454 31.3422C22.2454 36.366 6.81158 32.0434 6.6301 32.039C6.6301 39.5249 7.59043 35.9699 12.2684 35.5076C14.8982 35.2477 19.4082 35.5209 22.2454 35.5209V42.4858C16.4786 43.9978 17.8515 47.7861 9.38726 45.1923C9.33879 45.1769 10.1414 43.7047 7.69193 44.9933C6.27727 45.7388 6.6301 44.4314 6.6301 48.0582C6.6301 50.7205 6.41252 48.3114 7.34022 50.1475L10.466 48.3391C12.1332 47.7806 13.9198 48.1931 15.7741 47.9752C22.339 47.2065 21.1385 43.4447 25.6811 45.3836C36.4754 49.9893 35.9895 54.1272 42.2467 50.2925L53.476 44.5752C54.7284 44.5752 59.0433 47.7441 61.052 48.2927C65.0503 49.3822 61.5853 47.9619 65.5204 48.1532C71.0032 48.4209 64.3965 48.87 69.8015 49.4507V44.5752C65.5936 45.6779 70.5511 45.9688 63.4136 45.9688C59.5314 45.9688 58.0649 43.3165 54.8952 42.4858C54.8952 38.7916 54.8625 38.3734 54.1861 35.5209C72.4696 35.5209 65.8044 36.4853 69.8015 36.9134V32.039C65.2521 32.4107 69.398 33.3519 63.9535 32.9493C57.9657 32.5068 53.0263 36.3228 54.3237 28.6644C54.6303 26.8638 55.7496 25.9712 58.4392 24.374C64.0978 21.0127 68.929 24.1494 69.8015 24.3773V18.806C66.9609 19.5504 68.9798 19.6622 66.1449 20.0935C64.1362 20.3988 62.9447 19.9807 60.8762 20.495C51.4854 22.8365 59.2057 27.2719 46.1424 20.4308C36.5419 15.4016 39.8998 15.7157 31.4728 20.1986C18.3756 27.1679 25.0093 23.3563 16.8133 20.6542C14.4315 19.8689 14.1125 20.4098 11.6372 20.1609C7.90497 19.7871 10.5877 19.6577 7.34022 18.806Z" fill="#24ADED"/>
<path fill-rule="evenodd" clip-rule="evenodd" d="M81.1586 10.4491C82.4042 12.273 81.5171 11.8881 83.9981 12.5385V66.1661H75.4808C72.7665 66.1661 75.2227 65.9537 73.3516 66.8629C74.3807 70.6467 73.799 68.2554 76.1898 68.2554H86.8364L86.9886 53.1532C86.461 49.835 86.1274 56.7125 86.1274 45.2725C86.1274 42.0184 86.1365 45.7703 86.7316 43.8689L86.8398 18.1076C86.8793 11.6138 88.0729 9.75233 83.2879 9.75233C82.4594 9.75233 81.3266 10.2478 81.1586 10.4491Z" fill="#24ADED"/>
<path fill-rule="evenodd" clip-rule="evenodd" d="M52.7649 57.112C55.7836 58.6793 63.8848 63.3812 64.8328 66.862C62.965 67.2889 62.7464 67.4957 61.2833 68.2545C62.4004 70.3262 63.7282 71.6523 62.7025 73.8268C58.6073 73.3866 61.7883 72.7484 58.4438 70.3438C55.7622 71.0473 56.3798 71.6888 54.1852 73.1301C54.1852 68.1771 52.7649 62.4609 52.7649 57.112ZM52.7649 76.6131C57.8047 75.4606 53.9586 74.3058 58.4438 73.1301C60.1515 80.3217 62.6574 75.4649 66.2521 74.5236C66.1506 70.0618 62.4646 68.4149 69.8005 68.2545V65.4695C64.9309 64.1942 55.0013 53.7397 49.9266 53.6291C49.9988 56.8344 50.586 56.0148 50.6131 59.2312C50.6514 63.7838 50.8509 72.6998 52.7649 76.6131Z" fill="#24ADED"/>
<path fill-rule="evenodd" clip-rule="evenodd" d="M10.1796 65.4695V68.2545C16.9835 68.2545 43.9554 69.0343 47.0891 67.5588C45.7263 65.7338 47.9165 66.0845 39.2876 66.1597L21.2296 65.9738C19.5771 65.9085 15.376 66.1652 12.3089 66.1652C12.035 62.931 13.0709 64.9484 10.8897 63.38C10.4039 64.2295 10.1796 64.1245 10.1796 65.4695Z" fill="#24ADED"/>
<path fill-rule="evenodd" clip-rule="evenodd" d="M37.1504 34.8235C37.1504 44.277 35.8756 44.9351 39.9888 45.2714V34.8235C42.4044 33.5703 47.7902 31.189 48.506 28.5554C41.0145 28.7202 42.0234 36.1099 33.8274 30.4104C29.8957 27.6751 30.6904 27.0799 29.2092 28.5322C27.2287 30.4778 30.9293 31.46 32.1558 32.0517C34.0934 32.9864 35.2296 33.8269 37.1504 34.8235Z" fill="#24ADED"/>
<path fill-rule="evenodd" clip-rule="evenodd" d="M45.6693 9.75147C45.9128 12.6295 46.5654 12.6538 48.5076 13.9302C50.0643 11.6506 50.3653 12.9613 50.637 9.75147C48.7928 9.27144 49.8456 10.0103 49.2177 8.35895H47.0884C46.5395 10.3908 48.2066 9.48269 45.6693 9.75147Z" fill="#24ADED"/>
<path fill-rule="evenodd" clip-rule="evenodd" d="M54.7371 10.9903C56.1067 12.9193 56.1112 13.3186 58.4434 13.9302C59.0149 11.832 58.4343 12.4005 60.5726 11.8408C59.9504 9.55234 59.5424 9.54686 57.7332 8.35895L54.7371 10.9903Z" fill="#24ADED"/>
<path fill-rule="evenodd" clip-rule="evenodd" d="M64.8342 9.75147C65.1351 13.3141 65.3731 10.695 66.2534 13.9302C68.5856 13.3186 68.5901 12.9192 69.8018 11.1451C68.6712 9.48818 68.9429 10.4195 68.3827 8.35895H66.2534C65.7045 10.3908 67.3715 9.48269 64.8342 9.75147Z" fill="#24ADED"/>
</svg>
