<svg width="240" height="223" viewBox="0 0 240 223" fill="none" xmlns="http://www.w3.org/2000/svg">
<path opacity="0.5" fill-rule="evenodd" clip-rule="evenodd" d="M44.0685 109.105C55.2008 88.3113 65.2639 72.7926 77.3511 52.8364C88.6199 34.23 101.112 11.2713 130.862 25.3404C147.118 33.0287 171.751 50.0205 187.867 60.0292C240.599 92.7827 218.511 107.234 179.694 170.038C168.121 188.761 156.629 211.683 127.136 197.154C110.106 188.768 87.3656 172.588 70.3752 162.358C50.6938 150.51 27.4704 140.107 44.0685 109.105Z" fill="#EEF1FF"/>
<path d="M19.4167 166.423C6.47194 153.175 0 136.368 0 116C0 95.6325 6.47194 78.923 19.4167 65.8724C32.3606 52.6242 49.5544 46 71 46C92.2515 46 109.35 52.6242 122.294 65.8724C135.432 78.923 142 95.6325 142 116C142 136.169 135.432 152.977 122.294 166.423C109.157 179.475 92.0584 186 71 186C49.5544 186 32.3606 179.475 19.4167 166.423ZM45.7874 88.7119C39.0257 95.8292 35.6448 104.926 35.6448 116C35.6448 127.073 38.9779 136.219 45.643 143.436C52.308 150.654 60.7609 154.263 71 154.263C81.4321 154.263 89.9818 150.703 96.6469 143.585C103.312 136.465 106.645 127.271 106.645 116C106.645 104.926 103.264 95.8292 96.5015 88.7119C89.7399 81.5926 81.239 78.0334 71 78.0334C60.9541 78.0334 52.5499 81.5926 45.7874 88.7119Z" fill="white"/>
<path fill-rule="evenodd" clip-rule="evenodd" d="M91.4236 150.3C91.4236 148.029 94.1919 140.311 101.575 144.225C109.076 148.202 104.084 159.161 96.1966 156.327C93.9732 155.528 91.4236 152.967 91.4236 150.3ZM66.5126 137.584C55.1301 137.584 58.397 124.199 65.8392 124.199C74.1259 124.199 74.9746 137.584 66.5126 137.584ZM124.415 130.891C124.415 127.649 127.886 124.199 131.148 124.199C138.398 124.199 142.941 137.584 130.474 137.584C128.467 137.584 127.255 136.937 126.274 135.737C125.658 134.982 124.415 131.931 124.415 130.891ZM122.395 131.56C122.395 133.368 122.716 133.406 123.068 134.907L105.563 144.277C97.4985 138.909 99.5033 144.519 99.5033 126.875H110.949C119.522 126.875 116.047 122.871 123.068 127.545C122.838 130.295 122.395 129.04 122.395 131.56ZM73.9184 127.545C82.149 123.216 77.2615 126.875 84.6912 126.875H97.4831V141.599C93.8601 141.899 93.0124 143.44 90.7507 144.946C89.4946 143.241 75.8367 135.351 73.9184 134.907C74.8315 133.016 74.8091 129.526 73.9184 127.545ZM94.7905 96.0896C100.09 96.0896 101.919 98.0337 104.216 101.444C108.964 100.751 113.642 98.7109 113.642 108.137C123.685 108.359 124.12 124.868 112.296 124.868H85.3641C76.1769 124.868 72.0801 114.233 78.7279 109.571C80.2985 108.47 82.9219 107.964 83.7402 107.191C84.9935 106.007 84.7496 104.077 85.7687 101.846C87.3221 98.4485 90.1535 96.0896 94.7905 96.0896ZM115.662 103.451C117.616 102.999 118.364 102.327 119.752 101.493C120.541 101.02 121.057 100.778 121.858 100.241C121.977 100.162 122.145 100.052 122.26 99.9702L123.742 98.7662C128.454 101.903 122.966 99.2009 130.474 102.782L130.342 119.686C130.221 123.238 132.165 120.379 124.415 125.537C122.325 125.053 122.465 124.683 120.375 124.199C122.202 120.767 124.559 118.339 123.143 113.463C122.06 109.732 119.488 107.015 115.662 106.129V103.451ZM73.9184 114.16C73.9184 121.763 73.7198 118.767 76.6119 124.199C71.38 125.587 75.7222 126.805 69.7963 123.613C64.764 120.901 66.5691 123.19 66.9093 108.723C67.0692 101.967 64.3499 104.157 69.3435 101.581C74.4007 98.9733 70.8244 98.0044 78.5008 102.243C81.7014 104.011 82.3766 102.603 82.6715 106.129C78.7812 106.451 73.9184 110.115 73.9184 114.16ZM67.1855 100.105C54.2595 100.105 59.2475 86.7195 65.1658 86.7195C75.4264 86.7195 73.4516 100.105 67.1855 100.105ZM124.415 93.4127C124.415 85.9558 137.881 83.3634 137.881 94.082C137.881 102.478 124.415 102.043 124.415 93.4127ZM122.395 93.4127C122.395 95.9331 122.838 94.678 123.068 97.4279C121.402 97.8706 116.774 100.504 114.989 101.444C110.279 98.3087 113.914 99.4476 106.917 98.7592C102.491 98.3235 104.478 95.9034 99.5033 94.751V83.3736C103.466 83.0456 103.193 82.2741 105.563 80.6962C108.301 81.3312 120.358 88.2626 123.068 90.0663C122.846 92.7247 122.395 91.6782 122.395 93.4127ZM73.9184 90.0663C77.912 87.9653 87.795 81.5374 91.4236 80.6962C93.2764 81.9295 94.584 83.1339 97.4831 83.3736V94.082C91.546 94.082 84.9856 95.1128 83.3444 102.113C80.1214 101.257 77.2536 98.2004 73.9184 97.4279C74.5572 94.704 75.2689 92.8631 73.9184 90.0663ZM98.157 67.9806C107 67.9806 107.638 81.366 98.157 81.366C89.674 81.366 89.8684 67.9806 98.157 67.9806ZM90.0773 78.6885C87.4319 79.3012 84.3598 81.7413 81.7672 83.1441C78.576 84.8707 76.2288 86.4896 73.245 88.0587C70.6183 86.3094 69.9408 84.7119 65.8392 84.7119C54.0216 84.7119 54.5422 101.29 64.4929 102.113C64.4929 109.878 65.5887 118.185 64.4929 122.86C62.1746 122.911 63.2621 122.732 61.6573 123.388C53.4179 126.757 56.4857 142.564 67.9426 139.733C71.9067 138.752 69.6309 138.294 72.3576 137.366C74.9254 136.492 87.7623 145.067 90.0773 146.285C90.0773 150.366 89.5478 159 98.8303 159C103.013 159 107.582 154.287 107.582 150.3C107.582 147.779 107.139 149.034 106.91 146.285L124.415 136.914C127.249 138.801 129.32 141.055 133.852 139.661C137.901 138.416 139.901 135.184 139.901 130.891C139.901 124.505 136.567 124.133 132.494 122.191V102.113C143.158 101.231 142.031 84.7119 131.821 84.7119C127.829 84.7119 126.113 86.4794 123.742 88.0587L106.91 78.6885C106.999 74.7132 108.25 73.6903 106.148 70.0802C103.043 64.7471 94.4438 64.6765 91.0974 69.6663C88.638 73.3336 89.9866 74.6324 90.0773 78.6885Z" fill="#24ADED"/>
<path fill-rule="evenodd" clip-rule="evenodd" d="M91.4234 112.821C91.4234 104.163 104.89 103.816 104.89 111.482C104.89 123.281 91.4234 119.092 91.4234 112.821ZM90.0771 111.482C90.0771 117.102 92.3085 121.866 99.1746 121.16C102.017 120.868 103.276 120.239 104.775 118.73C113.287 110.161 100.191 98.6009 92.8772 105.566C91.6463 106.739 90.0771 109.224 90.0771 111.482Z" fill="#24ADED"/>
<path fill-rule="evenodd" clip-rule="evenodd" d="M96.1376 113.491C97.8882 113.952 96.8891 113.242 97.484 114.829H99.5041C99.9681 113.09 99.2541 114.083 100.851 113.491C100.454 108.752 96.5162 108.972 96.1376 113.491Z" fill="#24ADED"/>
</svg>
