<svg width="85" height="91" viewBox="0 0 85 91" fill="none" xmlns="http://www.w3.org/2000/svg">
<path fill-rule="evenodd" clip-rule="evenodd" d="M44.0144 14.9535C47.6477 16.852 52.807 17.1502 52.807 21.154C52.807 25.7456 33.1583 22.6428 32.0822 22.3937C32.6068 16.1754 35.4582 18.5348 40.8738 14.9535C40.8738 14.9506 33.28 3.69564 41.7445 2.16741C44.4572 1.67802 49.5507 4.58382 46.8319 10.9478C45.0736 15.0638 45.1105 10.3088 44.0144 14.9535ZM35.8502 6.8939C35.8502 12.5165 35.5001 10.1649 37.7341 14.3341C28.9236 16.3605 27.4794 23.917 33.8315 25.0091C42.4486 26.489 38.5539 26.4822 48.3738 25.4581C49.5397 25.337 51.0447 25.1548 52.1138 24.8112C54.322 24.1022 54.1095 24.5403 54.691 22.3937C54.7748 22.5138 54.8616 22.5936 54.8995 22.7777C54.9344 22.954 55.071 23.0821 55.1228 23.1283C57.5364 25.2946 53.9849 22.8408 55.6525 23.6197C56.2409 23.8944 55.7572 23.9368 57.2033 23.6345C52.9856 17.4162 55.3682 19.9213 53.8403 17.6535C52.9676 16.3587 48.8356 14.721 47.1541 14.3341C56.7685 0.158509 35.8502 -5.64115 35.8502 6.8939Z" fill="#24ADED"/>
<path fill-rule="evenodd" clip-rule="evenodd" d="M61.7628 68.678C65.6425 66.1129 65.1299 69.9246 69.4454 66.3413C70.711 65.2897 71.0152 64.4724 71.1828 62.4774C75.4025 62.824 72.3357 63.4493 74.9807 66.169C77.9158 69.1851 79.9345 67.5959 81.8593 67.4383C82.5655 70.7272 82.76 67.9877 81.4305 70.0929C77.7154 75.9764 81.3907 75.1621 82.4877 79.218C79.8129 80.4863 78.3138 79.09 75.7785 80.6546C71.9637 83.008 75.6858 84.429 71.1828 84.7982C70.6901 82.7067 69.6997 80.9639 67.6102 80.2235C63.193 78.6627 63.3676 82.2125 62.3912 78.5987C61.9095 77.0646 61.5414 80.0304 63.3197 77.1246C66.2479 72.338 62.424 69.6519 61.7628 68.678ZM68.0432 64.9577C63.7955 65.9346 65.7672 65.0454 61.7628 64.9577C60.8203 66.7174 59.7532 68.41 59.2515 70.538C64.0777 73.0597 63.221 74.7337 59.2515 77.3579L62.3912 82.9381C68.0631 81.6343 62.9996 81.6343 68.6715 82.9381V86.6593H75.5791C75.5791 79.4937 79.6932 82.7096 82.4877 82.9381C83.2158 80.2459 84.7038 80.2529 85 76.7386C82.4209 76.0592 82.4877 75.6427 82.4877 73.0185C82.4877 70.8719 83.5548 71.8654 85 69.9177C84.4904 67.7563 83.5479 66.5204 82.4877 64.9577C78.4824 65.0454 80.4551 65.9346 76.2074 64.9577C75.1253 60.3711 76.2852 60.6172 70.5554 60.6172C67.8157 60.6172 69.1652 62.6487 68.0432 64.9577Z" fill="#24ADED"/>
<path fill-rule="evenodd" clip-rule="evenodd" d="M15.9178 75.4975C19.5511 77.396 24.7104 77.6942 24.7104 81.698C24.7104 86.2896 5.0617 83.1868 3.98557 82.9377C4.51017 76.7194 7.36162 79.0788 12.7772 75.4975C12.7772 75.4946 5.18337 64.2397 13.6478 62.7114C16.3606 62.222 21.4541 65.1278 18.7353 71.4919C16.977 75.6078 17.0139 70.8528 15.9178 75.4975ZM7.75357 67.4379C7.75357 73.0605 7.40347 70.7089 9.63752 74.8781C0.826964 76.9045 -0.617181 84.461 5.73492 85.5531C14.352 87.033 10.4573 87.0262 20.2772 86.0021C21.4431 85.881 22.9481 85.6988 24.0172 85.3552C26.2253 84.6462 26.0129 85.0843 26.5944 82.9377C26.6781 83.0578 26.765 83.1376 26.8029 83.3217C26.8378 83.498 26.9743 83.6261 27.0262 83.6723C29.4398 85.8387 25.8883 83.3848 27.5559 84.1637C28.1443 84.4385 27.6606 84.4808 29.1067 84.1785C24.8889 77.9602 27.2716 80.4653 25.7437 78.1975C24.871 76.9027 20.739 75.265 19.0575 74.8781C28.6719 60.7025 7.75357 54.9029 7.75357 67.4379Z" fill="#24ADED"/>
<path fill-rule="evenodd" clip-rule="evenodd" d="M3.9848 73.0186C3.62975 68.814 2.10085 72.4386 2.10085 62.4775C2.10085 47.914 14.7422 37.0559 27.8493 37.0559C31.0039 37.0559 33.0634 38.1557 35.3852 37.0559C32.461 33.1132 12.182 34.1412 4.00175 48.233C-0.550138 56.075 -0.359625 60.3929 0.456204 68.8799C0.846166 72.9318 1.24011 72.9576 3.9848 73.0186Z" fill="#24ADED"/>
<path fill-rule="evenodd" clip-rule="evenodd" d="M26.5943 69.9179C26.5943 73.0778 30.2914 78.8696 32.5075 81.4416C32.5913 81.5381 32.711 81.679 32.7968 81.7755C36.3055 85.6906 46.1214 91 52.3429 91C56.0969 91 64.4935 90.4968 65.5307 86.6595C62.9246 86.7166 62.2415 87.2809 60.3525 87.7477C48.8172 90.5983 37.3457 86.0934 31.0964 76.0132C27.3553 69.979 30.4202 70.3718 27.2227 68.0578C26.7918 68.814 26.5943 68.7215 26.5943 69.9179Z" fill="#24ADED"/>
<path fill-rule="evenodd" clip-rule="evenodd" d="M16.5439 48.8365C15.8218 47.8095 16.5489 49.8132 15.6902 47.1989C15.2254 45.779 15.4388 46.8965 15.2882 45.1162H13.4043C13.4043 54.2955 21.8049 63.3123 28.8322 66.4958C33.5546 68.6346 42.7222 69.6252 47.6371 68.351C51.7153 67.2944 51.5627 64.4812 48.1119 65.584C47.9733 65.6293 47.8087 65.7247 47.6641 65.7779L46.7305 66.1648C35.7488 69.9323 17.5322 60.5572 16.5439 48.8365Z" fill="#24ADED"/>
<path fill-rule="evenodd" clip-rule="evenodd" d="M66.7867 38.9159C66.7867 57.1335 59.6967 55.3206 59.2508 60.6172C66.5604 60.0166 75.4468 36.4738 62.562 23.2455C60.9743 21.6139 60.1575 19.9241 57.3669 19.6937C57.7369 24.0953 66.7867 27.1105 66.7867 38.9159Z" fill="#24ADED"/>
<path fill-rule="evenodd" clip-rule="evenodd" d="M54.226 61.8588C54.226 77.726 45.1871 79.6501 44.8051 84.1796C48.0465 83.9138 50.8161 79.9278 52.3271 77.3449C61.9355 60.9184 51.4584 42.5115 45.4334 42.0162C45.7426 45.6842 47.8988 44.6819 51.1063 50.6776C52.5854 53.4446 54.226 57.6375 54.226 61.8588Z" fill="#24ADED"/>
<path fill-rule="evenodd" clip-rule="evenodd" d="M25.9661 58.7577H27.8501C30.9748 45.5156 40.4725 37.0561 53.5986 37.0561C57.7515 37.0561 61.1036 38.8808 63.6469 37.6765C60.0285 32.7994 41.4718 35.1212 34.3338 42.2178C30.3774 46.1507 25.9661 52.7255 25.9661 58.7577Z" fill="#24ADED"/>
<path fill-rule="evenodd" clip-rule="evenodd" d="M37.8991 55.6571C37.8991 53.9064 39.3402 53.2653 40.4113 52.5573C43.4841 53.2643 43.551 53.4464 43.551 56.2774C43.551 59.8301 37.8991 58.8514 37.8991 55.6571ZM36.015 54.4174C36.015 59.4777 37.169 60.6179 42.2954 60.6179C46.0025 60.6179 49.572 50.6972 39.783 50.6972C38.271 50.6972 36.015 52.9246 36.015 54.4174Z" fill="#24ADED"/>
<path fill-rule="evenodd" clip-rule="evenodd" d="M69.2978 73.638C69.2978 69.7643 74.1808 71.6016 74.9497 71.7779C74.9497 75.8151 75.3197 75.9314 71.8101 76.7388C70.7389 76.0308 69.2978 75.3898 69.2978 73.638ZM67.4137 72.3983C67.4137 74.4632 67.1246 78.599 72.4385 78.599C77.0253 78.599 78.9641 73.6233 75.8643 70.2557C75.0265 69.3458 75.6419 69.7318 74.4172 69.205C70.2602 67.4158 67.4137 70.8189 67.4137 72.3983Z" fill="#24ADED"/>
<path fill-rule="evenodd" clip-rule="evenodd" d="M80.6025 61.2373C82.3918 59.9434 81.7684 59.0216 81.1062 56.4408C80.1966 52.8919 76.1763 43.0855 73.0955 43.4341C69.873 43.7984 74.4908 46.1233 76.7378 50.7927C79.6451 56.8367 78.4343 59.6677 80.6025 61.2373Z" fill="#24ADED"/>
<path fill-rule="evenodd" clip-rule="evenodd" d="M13.4043 34.5754H15.9165C16.5688 26.8407 23.7238 23.9348 24.0808 19.6937C18.9266 20.1181 14.5871 29.5643 13.4043 34.5754Z" fill="#24ADED"/>
<path fill-rule="evenodd" clip-rule="evenodd" d="M22.825 89.1393C24.323 91.1579 22.6046 89.928 25.7512 90.5996C26.7236 90.8074 27.9055 91.092 29.6329 90.9492C37.111 90.3338 35.0075 90.3939 36.0129 88.519L26.3776 88.3477C24.1475 88.5358 24.3111 88.4342 22.825 89.1393Z" fill="#24ADED"/>
</svg>
