<svg width="235" height="293" viewBox="0 0 235 293" fill="none" xmlns="http://www.w3.org/2000/svg">
<path opacity="0.5" d="M143.657 285.309C138.552 280.104 136 273.502 136 265.5C136 257.498 138.552 250.934 143.657 245.807C148.762 240.602 155.543 238 164 238C172.381 238 179.124 240.602 184.229 245.807C189.41 250.934 192 257.498 192 265.5C192 273.423 189.41 280.027 184.229 285.309C179.048 290.436 172.305 293 164 293C155.543 293 148.762 290.436 143.657 285.309ZM154.057 254.78C151.39 257.576 150.057 261.15 150.057 265.5C150.057 269.85 151.372 273.443 154 276.278C156.629 279.114 159.962 280.532 164 280.532C168.114 280.532 171.486 279.133 174.114 276.337C176.743 273.54 178.057 269.928 178.057 265.5C178.057 261.15 176.724 257.576 174.057 254.78C171.39 251.983 168.038 250.585 164 250.585C160.038 250.585 156.724 251.983 154.057 254.78Z" fill="#EEF1FF"/>
<path opacity="0.5" fill-rule="evenodd" clip-rule="evenodd" d="M69.3173 215.851C58.0022 195.157 50.5174 178.243 40.4256 157.207C31.0159 137.595 18.6322 114.577 46.6852 97.3716C62.0142 87.9708 89.7142 76.6474 106.909 68.6329C163.176 42.4115 163.188 68.8072 194.523 135.659C203.864 155.59 216.764 177.75 188.467 194.489C172.129 204.157 146.145 214.34 128.287 222.965C107.601 232.958 86.1875 246.706 69.3173 215.851Z" fill="#EEF1FF"/>
<path d="M73.4167 120.423C60.4719 107.175 54 90.3675 54 70C54 49.6325 60.4719 32.923 73.4167 19.8724C86.3606 6.62416 103.554 0 125 0C146.251 0 163.35 6.62416 176.294 19.8724C189.432 32.923 196 49.6325 196 70C196 90.1689 189.432 106.977 176.294 120.423C163.157 133.475 146.058 140 125 140C103.554 140 86.3606 133.475 73.4167 120.423ZM99.7874 42.7119C93.0257 49.8292 89.6448 58.9262 89.6448 70C89.6448 81.0728 92.9779 90.2188 99.643 97.436C106.308 104.654 114.761 108.263 125 108.263C135.432 108.263 143.982 104.703 150.647 97.5847C157.312 90.4654 160.645 81.2715 160.645 70C160.645 58.9262 157.264 49.8292 150.502 42.7119C143.74 35.5926 135.239 32.0334 125 32.0334C114.954 32.0334 106.55 35.5926 99.7874 42.7119Z" fill="white"/>
<path fill-rule="evenodd" clip-rule="evenodd" d="M148.552 175.262C163.262 175.591 160.586 179.814 176.946 171.068C181.068 168.864 184.949 165.589 189.142 168.398C188.106 172.277 174.366 180.396 170.738 182.589C169.236 183.498 167.842 184.286 166.28 184.993C164.692 185.712 163.669 186.044 161.4 186.343C159.76 186.558 160.386 186.345 159.125 186.582C157.095 186.963 158.131 187.275 156.555 187.275C151.605 187.275 142.179 185.789 139.26 186.532C133.77 187.93 131.964 191.464 127.971 194.139C125.529 190.492 121.339 189.303 116.537 182.126C120.923 173.834 127.191 168.391 136.66 167.278C140.61 166.814 140.253 167.669 140.548 168.398C144.507 165.745 146.682 165.805 153.095 164.935C158.984 164.135 163.313 162.485 165.131 164.966C164.217 168.389 160.783 169.167 157.337 170.324C150.013 172.785 149.238 172.314 148.552 175.262ZM127.971 197C134.704 195.2 130.621 187.688 147.911 189.104L154.188 189.331C154.915 189.308 156.214 189.037 157.686 188.994C160.619 188.906 161.937 188.977 164.308 188.169C172.386 185.416 181.28 178.819 187.918 173.466C189.754 171.986 190.657 171.549 192 169.542C190.006 165.383 190.401 164.966 186.283 164.966C181.979 164.966 175.597 168.91 172.682 170.805C167.194 174.372 163.575 174.118 155.983 174.118V172.974C159.743 172.661 167.418 169.05 167.418 166.11C167.418 158.302 159.449 162.05 147.941 163.469C141.594 164.252 132.163 165.1 126.051 168.193C122.697 169.891 121.253 171.68 118.681 174.547C110.254 183.943 115.411 184.802 117.26 186.551C119.877 189.027 125.05 195.042 127.971 197Z" fill="#24ADED"/>
<path fill-rule="evenodd" clip-rule="evenodd" d="M160.475 128.902C158.208 128.928 149.121 125.708 149.121 130.645C149.121 137.14 162.271 134.765 162.271 144.373C162.271 152.407 154.755 149.939 154.266 155.814H150.265C150.215 153.565 150.421 154.472 149.693 152.953C145.658 152.953 145.86 152.062 142.833 151.809V146.661C144.897 147.652 155.981 151.381 155.981 144.373C155.981 140.231 142.833 140.291 142.833 131.789C142.833 122.603 150.265 127.289 150.265 120.347H154.266C154.352 124.18 154.783 123.312 161.699 124.924L160.475 128.902ZM147.978 122.063C139.671 124.001 137.605 134.858 145.25 140.239C146.912 141.409 147.935 141.556 149.895 142.455C151.986 143.415 153.157 143.5 153.695 145.518C149.883 147.66 143.312 143.863 140.546 143.802C139.889 151.712 138.402 152.776 143.306 154.197C144.556 154.559 146.347 155.106 147.978 155.242V158.102C158.025 158.102 156.78 158.883 157.02 155.514C157.05 155.096 157.09 154.528 157.125 154.098C163.38 153.577 171.187 139.892 155.32 133.595C150.761 131.786 151.797 131.719 151.408 130.645C153.485 128.908 157.999 131.659 160.236 131.88C162.68 132.121 164.481 124.689 164.557 123.779C162.706 122.891 159.601 121.698 157.125 121.492C157.086 119.749 156.866 119.406 156.553 118.06C146.934 118.06 147.978 117.192 147.978 122.063Z" fill="#24ADED"/>
</svg>
