<svg width="79" height="91" viewBox="0 0 79 91" fill="none" xmlns="http://www.w3.org/2000/svg">
<defs><g id="adv6">
    <path fill-rule="evenodd" clip-rule="evenodd" d="M19.1125 88.3439V72.9794L32.4921 65.2978V80.6622L19.1125 88.3439ZM41.4119 75.5404V49.9345C45.9749 47.5078 50.1808 44.7028 54.7905 42.2517V67.8587L41.4119 75.5404ZM3.82268 81.3026V63.3774C5.67927 62.9423 8.68928 61.0158 10.559 59.9046C19.4292 54.6303 16.7126 55.1193 23.9912 59.1157C25.8681 60.1476 29.5964 62.0273 30.5809 63.3774C29.6136 64.7041 24.1764 67.449 21.5427 69.0207C15.289 72.7548 17.1901 70.2122 17.2124 78.7224C17.2397 89.2263 17.696 88.9426 13.8179 86.6979C10.6815 84.8842 7.22221 82.0976 3.82268 81.3026ZM63.0728 62.0975C64.8899 58.2923 63.7102 33.5159 63.7102 26.8885C65.6861 25.5587 74.3712 20.4043 76.4514 19.8472V55.0562C73.928 56.753 66.1587 61.8393 63.0728 62.0975ZM38.8632 75.5404C37.1948 74.418 36.2215 73.9473 34.4033 72.9794V62.738C32.6692 61.5709 27.4039 58.1316 25.4836 57.6162V40.9718L40.137 32.6497C42.7919 34.0618 50.8051 39.2059 52.8792 39.6919V40.9718C51.0489 41.4628 46.6771 44.096 45.0542 45.2732C41.9218 47.5424 39.1779 46.9639 38.8349 51.187C38.2703 58.1601 38.8632 68.2216 38.8632 75.5404ZM61.1615 25.6085V62.0975C58.8314 61.9023 58.5977 61.1855 56.7016 60.177V39.6919C45.3355 33.649 47.7819 36.5546 47.7819 19.2067C47.7819 17.2812 51.3484 15.9586 54.7905 14.085C57.2339 12.7552 60.1771 11.1235 62.4354 9.60365C64.3679 11.2913 73.3877 15.2399 75.1776 17.9268C73.0215 18.5043 70.1986 20.6646 68.17 21.7677C65.7924 23.0598 63.6373 24.2919 61.1615 25.6085ZM45.8707 16.6459V33.2902C37.037 28.5923 42.4519 29.6537 23.5723 39.6919V56.3362C16.5224 51.5926 17.6566 53.1205 3.75588 61.3898C-0.269939 63.785 1.27404 64.2995 1.27404 79.3812C1.27404 82.7422 2.53267 82.7381 5.76628 84.4705L17.174 90.9373C19.8217 91.8055 32.2442 83.3948 34.4033 81.9421V76.1808C41.7629 76.7959 35.924 81.6473 45.7402 75.4082C49.3461 73.1167 53.2222 71.48 56.7016 69.1387V62.738C65.588 67.4622 61.3659 65.43 75.2959 58.3756C76.8095 57.609 79 56.9329 79 55.0562V17.9268C79 15.7939 74.2548 14.0921 71.1517 12.3689C58.4126 5.29823 66.0878 5.89706 45.8707 16.6459Z" fill="#24ADED"/>
    <path fill-rule="evenodd" clip-rule="evenodd" d="M34.8099 23.5717L33.7657 23.6865C30.7628 10.7357 22.4622 11.3873 35.9177 6.64266C39.0573 5.53656 41.5695 3.91001 44.5967 3.20041L34.8099 23.5717ZM25.4834 8.96265L29.3058 17.2848C25.7211 22.6648 19.2398 28.3336 14.4875 33.122C13.674 33.9403 13.3634 34.2677 12.638 35.1044C12.1959 35.6147 12.209 35.6421 11.7588 36.1413L7.11779 41.0811C3.66665 45.0846 0.272165 46.6482 0 49.9329C3.80424 49.6147 12.3132 38.5202 15.4497 35.3697L26.568 24.1349C28.1697 22.1738 27.8904 21.207 30.5807 20.4862C31.2919 23.5554 32.417 25.0976 33.1293 28.1679C36.2101 27.9096 35.164 27.9025 38.0151 22.1942C38.7396 20.7414 39.0148 20.2321 39.6755 18.7417C41.3732 14.911 47.7544 2.86995 48.4191 0C45.1026 0 40.7085 2.2895 36.4024 3.92932C34.6399 4.60132 33.1698 5.37902 31.035 6.21774C28.2253 7.32383 27.6961 7.4743 25.4834 8.96265Z" fill="#24ADED"/>
    <path fill-rule="evenodd" clip-rule="evenodd" d="M22.2979 81.9391C25.0449 81.7093 23.7113 82.6264 28.1874 75.0535C29.1607 73.4045 29.1253 73.8823 29.3064 71.6965C26.6788 71.9171 28.2764 70.4593 25.1177 75.8098C23.2955 78.8973 22.5296 79.1454 22.2979 81.9391Z" fill="#24ADED"/>
    <path fill-rule="evenodd" clip-rule="evenodd" d="M66.2564 46.0928C69.0196 46.0307 68.2011 46.8471 72.3999 39.4613C73.2123 38.0299 73.2194 37.8784 73.2649 35.8502C70.3268 36.6381 67.6628 43.1476 66.2564 46.0928Z" fill="#24ADED"/>
    <path fill-rule="evenodd" clip-rule="evenodd" d="M44.5958 58.8987H46.507C47.0068 56.7424 48.0085 55.5946 49.081 53.8023C49.7326 52.7155 52.4016 49.5517 50.7484 48.9204C48.7178 48.1447 44.7779 56.6997 44.5958 58.8987Z" fill="#24ADED"/>
    <path fill-rule="evenodd" clip-rule="evenodd" d="M66.8937 35.8499C69.8086 35.0671 73.624 26.989 72.7802 26.1401C72.0173 25.3746 71.3364 26.2011 70.782 26.8599C69.5952 28.27 66.9595 32.8712 66.8937 35.8499Z" fill="#24ADED"/>
    <path fill-rule="evenodd" clip-rule="evenodd" d="M67.531 55.694H69.4423C70.3812 52.1602 73.1655 51.1628 73.2647 46.7313H71.3535C70.3994 50.8416 67.6271 51.3367 67.531 55.694Z" fill="#24ADED"/>

</g></defs>
<use xlink:href="#adv6"></use>
</svg>
