<svg width="688" height="1319" viewBox="0 0 688 1319" fill="none" xmlns="http://www.w3.org/2000/svg">
<path opacity="0.4" fill-rule="evenodd" clip-rule="evenodd" d="M160.885 645.044C226.701 522.11 286.195 430.361 357.656 312.377C424.28 202.373 498.135 66.6375 674.022 149.816C770.127 195.271 915.762 295.729 1011.04 354.902C1322.8 548.545 1192.22 633.985 962.725 1005.29C894.305 1115.98 826.36 1251.5 651.995 1165.61C551.306 1116.02 416.864 1020.37 316.414 959.888C200.055 889.838 62.7541 828.334 160.885 645.044Z" fill="#EEF1FF"/>
<path d="M533.13 1089.26C490.376 1045.44 469 989.858 469 922.5C469 855.142 490.376 799.881 533.13 756.721C575.881 712.907 632.669 691 703.5 691C773.69 691 830.162 712.907 872.916 756.721C916.305 799.881 938 855.142 938 922.5C938 989.201 916.305 1044.79 872.916 1089.26C829.524 1132.42 773.052 1154 703.5 1154C632.669 1154 575.881 1132.42 533.13 1089.26ZM620.227 832.254C597.895 855.792 586.728 885.877 586.728 922.5C586.728 959.119 597.737 989.366 619.75 1013.23C641.764 1037.11 669.682 1049.04 703.5 1049.04C737.955 1049.04 766.193 1037.27 788.207 1013.73C810.22 990.182 821.228 959.776 821.228 922.5C821.228 885.877 810.062 855.792 787.727 832.254C765.395 808.71 737.318 796.939 703.5 796.939C670.32 796.939 642.563 808.71 620.227 832.254Z" fill="white"/>
<path opacity="0.5" d="M201.537 201.564C192.512 210.743 188 222.388 188 236.5C188 250.612 192.512 262.189 201.537 271.231C210.561 280.41 222.548 285 237.5 285C252.316 285 264.237 280.41 273.262 271.231C282.421 262.189 287 250.612 287 236.5C287 222.526 282.421 210.88 273.262 201.564C264.102 192.521 252.182 188 237.5 188C222.548 188 210.561 192.521 201.537 201.564ZM219.922 255.407C215.208 250.475 212.851 244.173 212.851 236.5C212.851 228.828 215.175 222.491 219.822 217.491C224.468 212.49 230.361 209.989 237.5 209.989C244.773 209.989 250.734 212.456 255.381 217.388C260.027 222.32 262.351 228.69 262.351 236.5C262.351 244.173 259.994 250.475 255.279 255.407C250.565 260.339 244.638 262.805 237.5 262.805C230.496 262.805 224.637 260.339 219.922 255.407Z" fill="#EEF1FF"/>
<path opacity="0.5" d="M104.5 33C232.24 79.4376 306.855 146.879 344.101 227" stroke="#EEF1FF" stroke-width="3"/>
<path opacity="0.4" d="M40 42.5C196.117 73.6256 302.042 137.787 364.181 221.5" stroke="#24ADED"/>
<path opacity="0.5" d="M404.662 105.142C404.547 101.334 405.906 97.8667 408.74 94.7413C411.574 91.616 414.879 89.9398 418.653 89.7131C422.455 89.4559 425.978 90.7983 429.222 93.7403C432.437 96.6558 434.102 100.018 434.217 103.827C434.388 107.632 433.057 111.097 430.223 114.222C427.417 117.317 424.084 118.995 420.226 119.256C416.422 119.456 412.927 118.112 409.741 115.223C406.497 112.281 404.804 108.921 404.662 105.142ZM419.464 96.8355C417.451 97 415.674 97.9321 414.133 99.6313C412.592 101.33 411.824 103.191 411.828 105.213C411.832 107.235 412.608 108.948 414.157 110.353C415.736 111.784 417.525 112.411 419.523 112.233C421.522 112.055 423.306 111.101 424.874 109.372C426.415 107.672 427.17 105.813 427.137 103.793C427.104 101.773 426.314 100.06 424.765 98.6558C423.245 97.2776 421.478 96.6708 419.464 96.8355Z" fill="#EEF1FF"/>
</svg>
