<svg width="870" height="747" viewBox="0 0 870 747" fill="none" xmlns="http://www.w3.org/2000/svg">
<path opacity="0.5" fill-rule="evenodd" clip-rule="evenodd" d="M301.672 35.1452C342.595 -124.75 385.315 -247.784 434.328 -404.199C480.02 -550.033 526.596 -727.001 757.662 -697.433C883.92 -681.271 1084.58 -621.738 1213.92 -590.058C1637.15 -486.371 1509.11 -344.981 1349.46 148.91C1301.87 296.15 1262.17 470.771 1032.08 437.644C899.223 418.535 713.121 360.335 577.323 329.052C420.018 292.821 240.657 273.542 301.672 35.1452Z" fill="#EEF1FF"/>
<path d="M669.438 309.032C629.145 267.773 609 215.43 609 152C609 88.5697 629.145 36.5316 669.438 -4.11161C709.728 -45.3705 763.247 -66 830 -66C896.149 -66 949.37 -45.3705 989.663 -4.11161C1030.55 36.5316 1051 88.5697 1051 152C1051 214.812 1030.55 267.158 989.663 309.032C948.769 349.678 895.548 370 830 370C763.247 370 709.728 349.678 669.438 309.032ZM751.521 67.0169C730.474 89.1825 719.951 117.513 719.951 152C719.951 186.484 730.326 214.967 751.072 237.443C771.818 259.923 798.129 271.162 830 271.162C862.472 271.162 889.084 260.075 909.83 237.907C930.577 215.735 940.951 187.103 940.951 152C940.951 117.513 930.428 89.1825 909.378 67.0169C888.331 44.8455 861.871 33.7611 830 33.7611C798.73 33.7611 772.571 44.8455 751.521 67.0169Z" fill="white"/>
<path opacity="0.5" d="M407.349 392.534C399.783 384.774 396 374.93 396 363C396 351.07 399.783 341.283 407.349 333.64C414.915 325.88 424.965 322 437.5 322C449.922 322 459.916 325.88 467.482 333.64C475.161 341.283 479 351.07 479 363C479 374.813 475.161 384.658 467.482 392.534C459.803 400.178 449.809 404 437.5 404C424.965 404 414.915 400.178 407.349 392.534ZM422.763 347.017C418.811 351.186 416.835 356.514 416.835 363C416.835 369.486 418.783 374.842 422.679 379.07C426.574 383.297 431.515 385.411 437.5 385.411C443.598 385.411 448.595 383.326 452.491 379.157C456.387 374.987 458.335 369.602 458.335 363C458.335 356.514 456.359 351.186 452.406 347.017C448.454 342.847 443.485 340.762 437.5 340.762C431.628 340.762 426.716 342.847 422.763 347.017Z" fill="#EEF1FF"/>
<path opacity="0.5" d="M569.5 404C531 512.5 681.5 740 65 589.5" stroke="#EEF1FF" stroke-width="3"/>
<path opacity="0.4" d="M557 375C518.5 483.5 713 803.5 71 572" stroke="#24ADED"/>
</svg>
