<svg width="1920" height="1502" viewBox="0 0 1920 1502" fill="none" xmlns="http://www.w3.org/2000/svg">
    <path opacity="0.4"
          d="M-6.74893 389.996C-3.33046 334.151 44.2932 292.29 100.064 296.763C495.771 328.498 1926.09 440.991 1961.1 411.772C2001.74 377.853 1929.43 1360.13 1844.88 1428.75C1760.34 1497.36 -34.2436 1363.39 -49.7575 1338.56C-62.2552 1318.56 -22.6291 649.421 -6.74893 389.996Z"
          fill="#EEF1FF"/>
    <path opacity="0.5" d="M488 1C405 117 175 13.5 184 185.5C189.499 290.595 502 399 53 629.5"
          stroke="#EEF1FF" stroke-width="3"/>
    <path opacity="0.4" d="M489 27C388.5 116.5 137.162 31.5 167.5 186C194.5 323.5 505 366 72 646.5"
          stroke="#24ADED"/>
</svg>