<svg width="2256" height="1152" viewBox="0 0 2256 1152" fill="none" xmlns="http://www.w3.org/2000/svg">
<path d="M311.771 1025.16C316.367 1077.72 360.158 1117.26 412.888 1115.61C786.629 1103.91 2162.94 1053.26 2214.02 940.687C2273.15 810.373 2184.29 113.582 2100.87 59.6553C2017.45 5.72812 267.443 138.537 251.574 158.746C238.796 175.018 290.965 787.291 311.771 1025.16Z" fill="#F8F9FF"/>
<path d="M64.1299 598.084C21.3756 554.27 0 498.685 0 431.327C0 363.969 21.3756 308.708 64.1299 265.548C106.881 221.734 163.669 199.827 234.5 199.827C304.69 199.827 361.162 221.734 403.916 265.548C447.305 308.708 469 363.969 469 431.327C469 498.029 447.305 553.616 403.916 598.084C360.524 641.247 304.052 662.827 234.5 662.827C163.669 662.827 106.881 641.247 64.1299 598.084ZM151.227 341.081C128.895 364.62 117.728 394.705 117.728 431.327C117.728 467.947 128.737 498.194 150.75 522.062C172.764 545.933 200.682 557.869 234.5 557.869C268.955 557.869 297.193 546.095 319.207 522.554C341.22 499.009 352.228 468.603 352.228 431.327C352.228 394.705 341.062 364.62 318.727 341.081C296.395 317.537 268.318 305.766 234.5 305.766C201.32 305.766 173.563 317.537 151.227 341.081Z" fill="white"/>
</svg>
