<svg width="1920" height="1153" viewBox="0 0 1920 1153" fill="none" xmlns="http://www.w3.org/2000/svg">
<path opacity="0.4" d="M33.7705 1025.34C38.3673 1077.89 82.1576 1117.43 134.888 1115.78C508.629 1104.08 1884.94 1053.43 1936.02 940.859C1995.15 810.545 1906.29 113.755 1822.87 59.8281C1739.45 5.90097 -10.557 138.71 -26.4259 158.918C-39.2041 175.191 12.9651 787.464 33.7705 1025.34Z" fill="#EEF1FF"/>
<path d="M-214.87 684.257C-257.624 640.443 -279 584.858 -279 517.5C-279 450.142 -257.624 394.881 -214.87 351.721C-172.119 307.907 -115.331 286 -44.5001 286C25.6898 286 82.162 307.907 124.916 351.721C168.305 394.881 190 450.142 190 517.5C190 584.201 168.305 639.789 124.916 684.257C81.5241 727.42 25.0519 749 -44.5001 749C-115.331 749 -172.119 727.42 -214.87 684.257ZM-127.773 427.254C-150.105 450.792 -161.272 480.877 -161.272 517.5C-161.272 554.119 -150.263 584.366 -128.25 608.235C-106.236 632.106 -78.3178 644.042 -44.5001 644.042C-10.0446 644.042 18.1934 632.268 40.2069 608.726C62.2204 585.182 73.2284 554.776 73.2284 517.5C73.2284 480.877 62.0625 450.792 39.727 427.254C17.3945 403.71 -10.6825 391.939 -44.5001 391.939C-77.6799 391.939 -105.437 403.71 -127.773 427.254Z" fill="white"/>
</svg>
