<svg width="1591" height="631" viewBox="0 0 1591 631" fill="none" xmlns="http://www.w3.org/2000/svg">
<path opacity="0.5" fill-rule="evenodd" clip-rule="evenodd" d="M93.7207 301.176C124.451 243.778 152.229 200.939 185.595 145.852C216.702 94.4897 251.186 31.1136 333.309 69.9505C378.181 91.1736 446.179 138.078 490.666 165.707C636.231 256.12 575.258 296.013 468.107 469.378C436.161 521.062 404.437 584.337 323.024 544.232C276.012 521.081 213.24 476.417 166.339 448.18C112.01 415.473 47.9028 386.756 93.7207 301.176Z" fill="#EEF1FF"/>
<path fill-rule="evenodd" clip-rule="evenodd" d="M481 339.002L453.76 321.656L436.9 339.055C416.985 332.166 403.208 314.983 393.652 297.713C404.601 276.683 408.269 272.246 391.337 247.078C356.136 244.885 349.9 289.497 394.637 335.398C416.106 357.426 476.449 394.317 481 339.002Z" fill="white"/>
<path opacity="0.5" d="M1412.15 595.317C1388.4 582.759 1372.01 562.42 1363 534.298C1353.98 506.176 1355.52 480.237 1367.62 456.483C1379.64 432.456 1400.45 415.693 1430.08 406.192C1459.44 396.778 1485.99 398.349 1509.74 410.907C1533.66 423.106 1550.14 443.268 1559.16 471.39C1568.09 499.238 1566.46 525.356 1554.26 549.741C1541.89 573.582 1521.16 590.166 1492.07 599.495C1462.45 608.996 1435.81 607.603 1412.15 595.317ZM1414.16 476.336C1407.97 489.158 1407.33 503.217 1412.24 518.507C1417.14 533.795 1425.79 544.947 1438.2 551.959C1450.6 558.973 1463.87 560.211 1478.02 555.675C1492.43 551.054 1502.66 542.35 1508.72 529.569C1514.77 516.786 1515.31 502.616 1510.32 487.053C1505.41 471.763 1496.71 460.7 1484.22 453.869C1471.73 447.034 1458.41 445.886 1444.26 450.422C1430.39 454.873 1420.35 463.51 1414.16 476.336Z" fill="#EEF1FF"/>
<path d="M64.237 516.268C31.8458 498.269 9.30608 469.484 -3.38449 429.913C-16.0751 390.341 -14.419 354.006 1.58596 320.91C17.466 287.431 45.3976 264.279 85.3844 251.456C125.009 238.748 161.018 241.394 193.409 259.393C226.035 276.893 248.694 305.43 261.384 345.001C273.951 384.187 272.177 420.772 256.06 454.751C239.695 487.964 211.88 510.866 172.615 523.459C132.629 536.282 96.5039 533.886 64.237 516.268ZM64.9866 349.516C56.8138 367.387 56.1779 387.083 63.0777 408.598C69.977 430.111 81.8904 445.888 98.8148 455.924C115.74 465.963 133.749 467.92 152.841 461.798C172.292 455.56 186.016 443.53 194.008 425.715C201.999 407.897 202.485 388.042 195.462 366.143C188.562 344.628 176.591 328.975 159.547 319.19C142.503 309.402 124.435 307.57 105.344 313.693C86.6125 319.7 73.1601 331.64 64.9866 349.516Z" fill="white"/>
<path opacity="0.5" d="M1500.08 333.77C1497.67 325.616 1498.65 317.407 1503.02 309.142C1507.39 300.878 1513.6 295.486 1521.65 292.969C1529.75 290.371 1538.15 291.373 1546.86 295.976C1555.48 300.537 1561 306.894 1563.42 315.048C1565.95 323.163 1565.03 331.353 1560.66 339.618C1556.34 347.802 1550.06 353.212 1541.85 355.849C1533.71 358.325 1525.37 357.303 1516.82 352.784C1508.12 348.181 1502.54 341.843 1500.08 333.77ZM1527.46 307.896C1523.19 309.333 1519.86 312.299 1517.49 316.792C1515.11 321.285 1514.5 325.712 1515.66 330.071C1516.82 334.43 1519.47 337.709 1523.63 339.906C1527.87 342.145 1532.1 342.535 1536.33 341.077C1540.57 339.619 1543.89 336.604 1546.31 332.03C1548.69 327.537 1549.26 323.12 1548.05 318.78C1546.83 314.44 1544.14 311.172 1539.98 308.974C1535.91 306.818 1531.73 306.459 1527.46 307.896Z" fill="#EEF1FF"/>
</svg>
