<svg width="88" height="80" viewBox="0 0 88 80" fill="none" xmlns="http://www.w3.org/2000/svg">
<path fill-rule="evenodd" clip-rule="evenodd" d="M50.7218 10.1942V37.6513H52.5551C52.5551 31.1475 52.6036 24.6244 52.5503 18.1215C52.4872 10.3551 52.1087 12.0275 57.7968 8.71653L67.4776 3.06067C70.3193 1.51418 75.5639 5.36297 80.2476 8.17205C81.5782 8.96952 81.9227 9.22722 83.3435 9.96268C84.9215 10.7795 86.1667 10.7892 86.1667 12.6351V52.2955C86.1667 54.3507 80.8658 56.6889 77.3526 58.75C69.0945 63.5978 71.6896 62.7818 66.611 62.6685V64.4989C70.7589 65.464 67.8416 66.8042 77.3506 61.1879C79.6497 59.8304 85.9522 55.8924 88 55.3469V10.1942L69.5759 0.000619476C68.0444 -0.0856199 53.25 8.85897 50.7218 10.1942Z" fill="#24ADED"/>
<path fill-rule="evenodd" clip-rule="evenodd" d="M27.5004 68.7695V48.6351L36.036 44.3444C38.5138 42.952 41.6301 41.0682 44 39.482L59.664 48.2668C61.8875 50.1069 61.1421 61.32 61.1499 63.9265C61.1606 68.7637 60.2007 69.1659 51.7398 73.4458C43.3275 77.7026 46.4651 79.967 36.0574 73.0407C33.9893 71.6638 30.1829 69.3935 27.5004 68.7695ZM25.6672 47.4151C25.6672 51.2358 25.4624 56.3413 25.3343 59.1116C25.1838 62.3606 25.6672 64.9198 25.6672 69.38L34.8336 74.8722C37.1812 76.1173 42.1939 80.2248 44.4862 79.9903L58.6994 71.8537C64.7214 68.4923 62.9453 70.7656 62.9453 49.2455C62.9453 47.2514 60.6967 46.5788 59.172 45.6903C40.513 34.8086 47.0708 35.6361 30.7478 44.5556C28.1682 45.9655 28.6495 46.7203 25.6672 47.4151Z" fill="#24ADED"/>
<path fill-rule="evenodd" clip-rule="evenodd" d="M0 23.0076V53.5161C0 55.2389 0.496885 54.765 1.56153 55.6458L8.55018 59.6187C14.4227 62.6709 20.4942 68.2988 22.0004 62.668C15.7271 62.8075 21.029 64.4355 11.5801 59.0373C-0.448345 52.1662 2.44376 57.6992 2.44376 24.2286C2.44376 22.0794 6.418 20.6995 10.1244 18.4728C22.6653 10.937 17.179 13.3575 35.4449 23.0076L35.3876 34.6568C35.5846 37.7856 34.8655 36.334 36.6668 37.6509C37.6965 36.9367 37.8886 37.5637 37.8886 35.8205C37.8886 20.4495 40.708 23.0842 28.9328 16.6957C17.3673 10.4215 22.1606 8.52134 4.40126 19.4708C2.70384 20.5173 0 21.0367 0 23.0076Z" fill="#24ADED"/>
<path fill-rule="evenodd" clip-rule="evenodd" d="M17.7228 33.3809C17.7228 36.9167 17.2541 56.0745 18.0654 58.0551C18.7079 59.6249 18.0974 59.0299 19.5561 59.6171C21.104 56.3962 20.1675 38.1968 20.1675 32.7705C20.1714 32.7695 36.8146 25.2822 31.341 24.6049C30.0153 24.4411 23.1276 29.0971 20.7586 30.3103C19.427 30.9924 17.7228 31.4652 17.7228 33.3809Z" fill="#24ADED"/>
<path fill-rule="evenodd" clip-rule="evenodd" d="M68.445 20.568V59.617H70.2783V21.7879C72.3998 20.6668 74.8261 19.3363 76.9728 18.0989C79.0701 16.8916 81.8389 15.7521 83.1123 13.8558C80.0872 12.4071 73.2752 18.0157 68.445 20.568Z" fill="#24ADED"/>
<path fill-rule="evenodd" clip-rule="evenodd" d="M43.3894 74.2609H45.2227V59.0072C47.121 58.5014 50.3208 56.326 51.9765 55.3783C55.4043 53.4133 57.1939 53.4714 57.4453 50.4646C55.1394 50.6565 55.4644 50.8144 53.8718 51.7785L44.5812 57.1884C42.2558 58.825 43.3875 60.1254 43.3991 64.48C43.4079 67.7386 43.3894 71.0013 43.3894 74.2609Z" fill="#24ADED"/>
<path fill-rule="evenodd" clip-rule="evenodd" d="M75.1663 43.7531C77.513 43.1281 77.6673 41.0235 80.7264 35.8811C81.461 34.6457 81.8395 34.3617 81.889 32.1602H80.0557C79.0357 36.5323 73.6843 40.5535 75.1663 43.7531Z" fill="#24ADED"/>
<path fill-rule="evenodd" clip-rule="evenodd" d="M74.5557 31.5508C76.88 31.358 76.1492 31.766 77.2537 29.9743C79.4014 26.4908 82.2052 22.5684 81.2784 20.5684C78.4959 21.3097 74.6935 29.89 74.5557 31.5508Z" fill="#24ADED"/>
<path fill-rule="evenodd" clip-rule="evenodd" d="M49.5016 69.3792H51.3348L54.1959 63.6942C54.8471 62.5295 57.9033 58.7863 56.1195 58.1981C54.5628 57.6855 49.7374 66.543 49.5016 69.3792Z" fill="#24ADED"/>
<path fill-rule="evenodd" clip-rule="evenodd" d="M29.3327 32.77C29.2007 32.9144 28.238 34.9347 27.8575 35.5684L24.1405 41.6526C23.8571 43.4385 24.7966 43.4743 26.0641 42.4589L31.363 33.5452C31.3892 33.4163 32.8236 33.1867 30.9166 32.4541C28.5786 31.5539 29.5928 32.487 29.3327 32.77Z" fill="#24ADED"/>
<path fill-rule="evenodd" clip-rule="evenodd" d="M75.7772 54.7365C77.825 54.191 78.6994 51.755 80.9626 47.7104C82.0739 45.7221 81.8196 47.4595 81.8885 44.3636H80.0552C78.9993 48.8868 74.2972 51.5408 75.7772 54.7365Z" fill="#24ADED"/>
</svg>
