<svg width="83" height="93" viewBox="0 0 83 93" fill="none" xmlns="http://www.w3.org/2000/svg">
<path fill-rule="evenodd" clip-rule="evenodd" d="M34.4236 84.3002C34.4236 82.0292 37.1919 74.3109 44.5748 78.2253C52.076 82.2025 47.0842 93.1612 39.1966 90.3268C36.9732 89.5283 34.4236 86.9674 34.4236 84.3002ZM9.51263 71.5837C-1.86993 71.5837 1.39697 58.1987 8.83924 58.1987C17.1259 58.1987 17.9746 71.5837 9.51263 71.5837ZM67.4147 64.891C67.4147 61.6487 70.8858 58.1987 74.1481 58.1987C81.3978 58.1987 85.9409 71.5837 73.4742 71.5837C71.4671 71.5837 70.2545 70.9371 69.2741 69.7368C68.6578 68.9824 67.4147 65.9306 67.4147 64.891ZM65.395 65.5604C65.395 67.3682 65.716 67.4063 66.0684 68.9067L48.5628 78.2768C40.4985 72.9089 42.5033 78.5193 42.5033 60.8752H53.9493C62.5225 60.8752 59.0467 56.8707 66.0684 61.5451C65.838 64.295 65.395 63.0399 65.395 65.5604ZM16.9184 61.5451C25.149 57.2163 20.2615 60.8752 27.6912 60.8752H40.4831V75.5994C36.8601 75.899 36.0124 77.4403 33.7507 78.9458C32.4946 77.2415 18.8367 69.3507 16.9184 68.9067C17.8315 67.0156 17.8091 63.5258 16.9184 61.5451ZM37.7905 30.0896C43.0897 30.0896 44.9188 32.0337 47.2165 35.4437C51.9638 34.7506 56.642 32.7109 56.642 42.1368C66.6848 42.3589 67.1198 58.8676 55.2957 58.8676H28.3641C19.1769 58.8676 15.0801 48.2326 21.7279 43.5712C23.2985 42.4703 25.9219 41.9644 26.7402 41.191C27.9935 40.007 27.7496 38.077 28.7687 35.8459C30.3221 32.4485 33.1535 30.0896 37.7905 30.0896ZM58.6616 37.4512C60.6163 36.9993 61.3641 36.3266 62.7524 35.4933C63.5413 35.02 64.0572 34.7775 64.8581 34.2415C64.9773 34.1616 65.1446 34.0524 65.2595 33.9702L66.7418 32.7662C71.4536 35.903 65.9661 33.2009 73.4742 36.7819L73.3424 53.686C73.2214 57.2376 75.1649 54.3786 67.4147 59.537C65.3249 59.0535 65.4651 58.6828 63.3749 58.1987C65.2016 54.7674 67.5587 52.3394 66.1432 47.4634C65.0595 43.732 62.4884 41.015 58.6616 40.1287V37.4512ZM16.9184 48.1602C16.9184 55.7629 16.7198 52.7667 19.6119 58.1987C14.38 59.5872 18.7222 60.8051 12.7963 57.6126C7.76396 54.9012 9.56914 57.1903 9.90934 42.723C10.0692 35.9671 7.34991 38.1573 12.3435 35.5811C17.4007 32.9733 13.8244 32.0044 21.5008 36.2435C24.7014 38.011 25.3766 36.6026 25.6715 40.1287C21.7812 40.4506 16.9184 44.1152 16.9184 48.1602ZM10.1855 34.1054C-2.74054 34.1054 2.24746 20.7195 8.16585 20.7195C18.4264 20.7195 16.4516 34.1054 10.1855 34.1054ZM67.4147 27.4127C67.4147 19.9558 80.881 17.3634 80.881 28.082C80.881 36.4777 67.4147 36.0429 67.4147 27.4127ZM65.395 27.4127C65.395 29.9331 65.838 28.678 66.0684 31.4279C64.4015 31.8706 59.7743 34.5044 57.9892 35.4437C53.2788 32.3087 56.914 33.4476 49.917 32.7592C45.4907 32.3235 47.4777 29.9034 42.5033 28.751V17.3736C46.4665 17.0456 46.1926 16.2741 48.5628 14.6962C51.3012 15.3312 63.3585 22.2626 66.0684 24.0663C65.8459 26.7247 65.395 25.6782 65.395 27.4127ZM16.9184 24.0663C20.912 21.9653 30.795 15.5374 34.4236 14.6962C36.2764 15.9295 37.584 17.1339 40.4831 17.3736V28.082C34.546 28.082 27.9856 29.1128 26.3444 36.113C23.1214 35.2574 20.2536 32.2004 16.9184 31.4279C17.5572 28.704 18.2689 26.8631 16.9184 24.0663ZM41.157 1.98059C50.0002 1.98059 50.6381 15.366 41.157 15.366C32.674 15.366 32.8684 1.98059 41.157 1.98059ZM33.0773 12.6885C30.4319 13.3012 27.3598 15.7413 24.7672 17.1441C21.576 18.8707 19.2288 20.4896 16.245 22.0587C13.6183 20.3094 12.9408 18.7119 8.83924 18.7119C-2.97838 18.7119 -2.45783 35.2904 7.49292 36.113C7.49292 43.8778 8.58874 52.1851 7.49292 56.86C5.17463 56.9111 6.26205 56.7318 4.65734 57.3877C-3.58215 60.7568 -0.514304 76.5637 10.9426 73.7325C14.9067 72.7524 12.6309 72.2944 15.3576 71.3659C17.9254 70.4916 30.7623 79.0666 33.0773 80.2845C33.0773 84.3657 32.5478 93 41.8303 93C46.0131 93 50.5824 88.2871 50.5824 84.3002C50.5824 81.7793 50.1395 83.0344 49.9096 80.2845L67.4147 70.9143C70.2489 72.8012 72.3205 75.055 76.8524 73.6615C80.9006 72.4156 82.9007 69.184 82.9007 64.891C82.9007 58.5049 79.5674 58.1332 75.4944 56.1911V36.113C86.1582 35.2309 85.0311 18.7119 74.8214 18.7119C70.8288 18.7119 69.1133 20.4794 66.7418 22.0587L49.9096 12.6885C49.9988 8.71322 51.2498 7.69035 49.1479 4.08015C46.0426 -1.25292 37.4438 -1.32353 34.0974 3.66626C31.638 7.33359 32.9866 8.63239 33.0773 12.6885Z" fill="#24ADED"/>
<path fill-rule="evenodd" clip-rule="evenodd" d="M34.4234 46.8206C34.4234 38.1625 47.8897 37.8164 47.8897 45.4823C47.8897 57.2809 34.4234 53.0915 34.4234 46.8206ZM33.0771 45.4823C33.0771 51.1015 35.3085 55.866 42.1746 55.16C45.0167 54.8682 46.2761 54.2388 47.7752 52.7301C56.2872 44.1612 43.191 32.6009 35.8772 39.5658C34.6463 40.7387 33.0771 43.2238 33.0771 45.4823Z" fill="#24ADED"/>
<path fill-rule="evenodd" clip-rule="evenodd" d="M39.1376 47.4905C40.8882 47.9522 39.8891 47.2424 40.484 48.8287H42.5041C42.9681 47.0896 42.2541 48.0828 43.8509 47.4905C43.4541 42.7525 39.5162 42.9717 39.1376 47.4905Z" fill="#24ADED"/>
</svg>
