<svg width="78" height="79" viewBox="0 0 78 79" fill="none" xmlns="http://www.w3.org/2000/svg">
<path fill-rule="evenodd" clip-rule="evenodd" d="M34.5517 57.2618C49.2624 57.5907 46.5859 61.814 62.9462 53.0675C67.068 50.8637 70.9493 47.5887 75.142 50.3976C74.1061 54.2767 60.366 62.3963 56.738 64.5893C55.2363 65.4978 53.8417 66.2863 52.2802 66.9931C50.6923 67.7116 49.6691 68.0442 47.4002 68.343C45.7596 68.5583 46.3861 68.3448 45.1251 68.5819C43.095 68.9626 44.131 69.2751 42.5548 69.2751C37.605 69.2751 28.1792 67.7889 25.2603 68.532C19.7702 69.9301 17.9644 73.4639 13.9705 76.1393C11.5292 72.4919 7.3393 71.3027 2.53652 64.126C6.92257 55.8338 13.1906 50.3912 22.66 49.2784C26.6103 48.8142 26.2535 49.669 26.5477 50.3976C30.507 47.7449 32.6823 47.8049 39.0948 46.9346C44.9843 46.1352 49.3132 44.4845 51.1308 46.9655C50.2166 50.3894 46.7828 51.1671 43.3374 52.3244C36.0134 54.7854 35.2381 54.3139 34.5517 57.2618ZM13.9705 79C20.7044 77.2004 16.6207 69.6884 33.9107 71.1038L40.1879 71.3309C40.9152 71.3082 42.2144 71.0375 43.6861 70.9939C46.6195 70.9057 47.9368 70.9766 50.3082 70.169C58.3858 67.4164 67.2795 60.8193 73.9181 55.4658C75.7539 53.986 76.6572 53.549 78 51.5423C76.0063 47.3834 76.4012 46.9655 72.283 46.9655C67.9786 46.9655 61.5971 50.91 58.6818 52.805C53.1936 56.3715 49.5746 56.1181 41.9828 56.1181V54.9744C45.7433 54.6609 53.4178 51.0499 53.4178 48.1102C53.4178 40.3021 45.4491 44.0503 33.9406 45.4693C27.5944 46.2524 18.1632 47.1 12.0513 50.1932C8.69659 51.8911 7.25306 53.6798 4.68099 56.5469C-3.74612 65.9429 1.4107 66.8023 3.26009 68.5511C5.87665 71.0266 11.0498 77.0423 13.9705 79Z" fill="#24ADED"/>
<path fill-rule="evenodd" clip-rule="evenodd" d="M46.4751 10.9021C44.2081 10.9285 35.121 7.70803 35.121 12.6445C35.121 19.1399 48.271 16.7652 48.271 26.3729C48.271 34.4072 40.7554 31.939 40.266 37.8139H36.2649C36.215 35.5655 36.4211 36.4721 35.6929 34.9532C31.6583 34.9532 31.8598 34.062 28.8329 33.8095V28.6613C30.8975 29.6524 41.981 33.3807 41.981 26.3729C41.981 22.2313 28.8329 22.2913 28.8329 13.7892C28.8329 4.60297 36.2649 9.28874 36.2649 2.34731H40.266C40.3523 6.18004 40.7826 5.31246 47.699 6.92404L46.4751 10.9021ZM33.978 4.06335C25.6707 6.00106 23.6053 16.8579 31.2497 22.2386C32.9121 23.4087 33.9353 23.5558 35.8955 24.4552C37.9863 25.4145 39.1566 25.4999 39.695 27.5176C35.8827 29.6597 29.3122 25.8633 26.5459 25.8015C25.8886 33.7123 24.4024 34.776 29.3059 36.1969C30.5561 36.5593 32.3474 37.1062 33.978 37.2416V40.1023C44.0248 40.1023 42.78 40.8826 43.0197 37.5141C43.0497 37.0962 43.0896 36.5275 43.125 36.0978C49.3804 35.5773 57.1866 21.8916 41.3201 15.5952C36.7607 13.7865 37.7974 13.7192 37.4079 12.6445C39.4852 10.9085 43.9993 13.6593 46.2364 13.88C48.6804 14.1207 50.4808 6.68877 50.557 5.77942C48.7058 4.89096 45.6009 3.69815 43.125 3.49194C43.086 1.74863 42.8663 1.40617 42.5531 0.0598523C32.9339 0.0598523 33.978 -0.807728 33.978 4.06335Z" fill="#24ADED"/>
</svg>
