<svg width="173" height="363" viewBox="0 0 173 363" fill="none" xmlns="http://www.w3.org/2000/svg">
<rect width="173" height="363" fill="white"/>
<path opacity="0.7" d="M133.522 215.146C133.14 210.665 135.998 205.999 141.32 204.441C149.175 202.142 158.014 207.88 157.265 215.513C156.421 224.119 144.954 227.084 137.869 222.291C135.145 220.45 133.752 217.831 133.522 215.146Z" fill="url(#paint0_linear_1_732)"/>
<path opacity="0.7" d="M90.4713 168.632C94.6908 169.594 99.0414 169.753 103.429 170.55C115.696 172.776 118.697 183.819 128.207 189.492C144.267 199.074 169.107 183.067 167.814 166.655C167.316 160.329 162.925 155.632 158.669 150.949C153.907 145.708 150.16 140.036 149.238 133.169C147.759 122.133 153.162 110.325 147.388 99.8189C143.23 92.2533 132.736 88.8967 124.001 91.5078C119.926 92.726 116.548 95.3119 115.034 99.01C113.351 103.118 115.189 107.49 113.826 111.564C111.199 119.42 96.8959 115.324 90.3621 117.54C85.1337 119.315 80.6352 122.61 77.3204 126.658C70.795 134.625 68.5529 145.798 72.9648 155.053C75.3808 160.122 79.7146 164.3 85.1177 166.835C86.8734 167.658 88.6601 168.219 90.4713 168.632Z" fill="url(#paint1_linear_1_732)"/>
<path opacity="0.7" d="M13.3055 202.281C14.0347 193.367 17.3545 184.802 24.0018 177.822C31.7226 169.714 44.1501 164.764 55.8872 167.877C66.3213 170.643 71.207 179.186 73.6842 188.148C76.2447 197.415 77.0839 207.434 85.0802 214.486C94.2669 222.586 107.858 222.237 119.089 226.453C125.857 228.993 132.82 233.739 131.131 241.186C129.71 247.459 123.567 252.763 117.964 256.221C107.267 262.82 94.1627 266.447 81.2555 266.682C59.2767 267.086 37.744 257.306 25.2333 240.851C17.0278 230.06 12.2 215.772 13.3055 202.281Z" fill="url(#paint2_linear_1_732)"/>
<path d="M20.3976 309.699C19.0989 302.851 17.801 296.002 16.5023 289.155C16.315 288.162 16.126 287.168 15.9378 286.175C15.9067 286.013 15.7034 285.895 15.5329 285.895H15.5228C15.6572 285.988 15.7933 286.082 15.9277 286.175C13.8091 276.119 13.2925 265.902 14.9852 255.753C16.751 245.165 21.0133 235.225 26.2056 225.658C28.5661 221.311 31.1224 217.051 33.8357 212.877C36.2768 209.121 39.1313 205.54 41.3465 201.672C43.7725 197.434 45.3619 192.823 46.049 188.088C46.758 183.211 46.175 178.457 45.6676 173.594C45.146 168.584 44.6856 163.569 44.2505 158.551C43.812 153.51 43.2156 148.577 41.68 143.695C38.5475 133.73 32.0262 125.095 26.8432 115.959C21.4585 106.467 16.5787 96.7413 12.2341 86.8209C10.1046 81.9586 8.10275 77.0499 6.23199 72.0999C5.30962 69.6642 4.42086 67.2179 3.56318 64.7623C2.80714 62.598 2.01079 60.4101 1.73946 58.1413C1.48073 55.9786 1.73273 53.7213 3.16751 51.9091C4.95092 49.6572 7.96834 48.6943 10.9312 48.6791C16.7669 48.6486 22.3633 51.7231 27.5043 53.8958C35.8803 57.4354 44.1749 61.1297 52.54 64.6907C55.0509 65.7595 57.5676 66.8169 60.0886 67.8674C60.5758 68.0709 61.0034 67.4138 60.512 67.2095C51.5613 63.4801 42.7065 59.5723 33.8071 55.7438C28.9189 53.6412 24.0433 51.4235 19.0292 49.5779C14.482 47.9053 8.73615 46.8357 4.44859 49.6846C0.859105 52.0677 0.386159 56.0312 1.16404 59.7369C2.18888 64.6274 4.31249 69.4409 6.11857 74.1285C9.99535 84.1908 14.4148 94.0807 19.3433 103.756C21.8382 108.653 24.4659 113.493 27.2212 118.273C29.9732 123.046 33.0402 127.664 35.8056 132.427C38.5903 137.224 40.6585 142.375 41.9102 147.678C43.1627 152.975 43.3852 158.412 43.8767 163.799C44.8057 173.966 47.026 184.272 43.7448 194.271C42.1655 199.083 39.4463 203.181 36.5305 207.395C33.7903 211.354 31.1887 215.393 28.7501 219.512C23.2764 228.759 18.3092 238.501 15.6278 248.751C12.9573 258.965 12.4306 269.61 13.9444 280.012C14.256 282.147 14.6727 284.263 15.1179 286.378C15.1524 286.54 15.3489 286.657 15.5228 286.657H15.5329C15.3976 286.564 15.2632 286.471 15.128 286.378C16.4259 293.227 17.7237 300.074 19.0224 306.922C19.2106 307.915 19.3996 308.908 19.5869 309.902C19.6793 310.383 20.4883 310.179 20.3976 309.699Z" fill="#151B37"/>
<path d="M127.184 309.729C127.157 302.119 126.06 294.454 124.978 286.92C123.85 279.06 121.806 271.415 119.611 263.751C117.148 255.157 114.632 246.557 113.073 237.781C112.249 233.139 111.701 228.448 111.606 223.745C111.56 221.492 111.394 218.988 111.836 216.763C111.873 216.577 111.901 216.469 111.956 216.292C112.553 214.38 113.467 212.503 114.212 210.635C115.904 206.393 117.594 202.152 119.286 197.911C125.109 183.311 130.931 168.71 136.754 154.11C138.389 150.009 140.231 145.975 141.949 141.902C145.622 133.195 149.17 124.443 152.574 115.646C156.77 104.802 160.761 93.886 164.316 82.854C167.468 73.0639 170.44 63.1245 172.063 53.018C172.703 49.0248 173.84 43.9689 171.992 40.158C170.47 37.0209 167.131 34.807 163.381 34.4327C160.667 34.1613 157.808 34.9298 155.228 35.6266C148.762 37.3739 142.529 39.8934 136.454 42.5342C130.269 45.2222 124.183 48.1336 118.311 51.3523C116.241 52.4867 114.19 53.6584 112.237 54.9536C111.805 55.2403 112.223 55.902 112.66 55.6115C117.191 52.6071 122.161 50.1112 127.094 47.7037C133.48 44.5887 140.019 41.6888 146.735 39.205C149.643 38.1301 152.591 37.1276 155.604 36.3211C158.547 35.5336 161.782 34.6904 164.83 35.4527C169.472 36.6138 172.158 40.5231 172.063 44.7633C172.022 46.5746 171.858 48.3837 171.631 50.1836C170.406 59.8929 167.626 69.4634 164.709 78.8486C161.326 89.7365 157.463 100.5 153.395 111.192C149.902 120.371 146.242 129.497 142.449 138.576C140.609 142.983 138.718 147.369 136.819 151.754C134.088 158.057 131.716 164.506 129.177 170.875C126.412 177.808 123.647 184.74 120.882 191.672C117.811 199.375 114.741 207.077 111.67 214.779C110.336 218.122 110.667 221.801 110.814 225.317C111.183 234.102 113.022 242.777 115.264 251.309C117.42 259.514 120.027 267.619 122.032 275.856C123.98 283.863 124.965 292.061 125.752 300.222C126.057 303.381 126.333 306.556 126.344 309.729C126.346 310.219 127.186 310.221 127.184 309.729Z" fill="#151B37"/>
<path d="M56.0809 80.596C53.3189 80.0608 50.5568 79.5257 47.7948 78.9905C43.3896 78.1374 38.9836 77.2851 34.5784 76.4321C33.5645 76.2354 32.5506 76.0387 31.5366 75.8428C31.2132 75.7795 30.8318 76.1119 31.062 76.4023C33.4654 79.4365 35.8687 82.4699 38.2721 85.504C41.9103 90.0972 45.5493 94.6903 49.1875 99.2834C50.0158 100.329 50.7971 101.45 51.7287 102.426C53.5566 104.34 56.2649 105.504 59.0488 105.606C59.961 105.638 60.8859 105.575 61.7965 105.548C64.8871 105.458 67.9776 105.368 71.0689 105.278C72.1735 105.246 73.2631 105.276 74.2165 104.659C75.1028 104.085 75.6471 103.176 75.7009 102.191C75.7328 101.607 75.7042 101.017 75.7042 100.433V86.4653C75.7042 85.9744 74.8642 85.9736 74.8642 86.4653V99.4839C74.8642 100.329 74.8785 101.174 74.8642 102.018C74.8382 103.521 73.5638 104.443 71.9929 104.489C69.157 104.571 66.3201 104.654 63.485 104.737C62.3468 104.77 61.2093 104.803 60.0711 104.836C58.0399 104.896 56.0851 104.499 54.3622 103.488C52.6662 102.493 51.6236 101.059 50.4787 99.6128C47.0312 95.2598 43.582 90.9075 40.1344 86.5545C37.3984 83.1011 34.6624 79.6469 31.9264 76.1935C31.8802 76.1348 31.834 76.0761 31.7878 76.0173C31.6299 76.2041 31.4711 76.3909 31.3132 76.5777C34.0761 77.1128 36.8381 77.6473 39.6002 78.1824C44.0053 79.0355 48.4097 79.8886 52.8148 80.7416C53.8296 80.9383 54.8435 81.1342 55.8575 81.3309C56.385 81.4331 56.6101 80.6982 56.0809 80.596Z" fill="#151B37"/>
<path d="M102.087 85.2402C101.86 86.6872 101.632 88.1349 101.404 89.5818C101.049 91.8361 100.706 94.1544 100.863 96.433C101.056 99.2751 102.556 101.997 104.996 103.797C106.616 104.993 108.483 105.657 110.513 106.015C114.117 106.649 117.72 107.283 121.323 107.917C122.965 108.206 124.539 108.505 126.17 107.89C127.745 107.298 128.821 106.13 129.395 104.698C129.982 103.241 130.568 101.782 131.154 100.324C132.308 97.4523 133.462 94.5798 134.616 91.7072C136.049 88.1432 137.482 84.5785 138.914 81.0145C140.348 77.4467 141.782 73.8797 143.216 70.3127C144.372 67.4318 145.531 64.5509 146.688 61.6707C147.28 60.1986 147.872 58.7258 148.464 57.2537C148.49 57.1889 148.516 57.1233 148.542 57.0577C148.649 56.7917 148.316 56.4967 148.026 56.5889C146.887 56.951 145.748 57.3131 144.608 57.6752C141.888 58.5397 139.17 59.4035 136.452 60.268C133.146 61.3177 129.841 62.3683 126.537 63.4188C123.692 64.3229 120.849 65.2271 118.004 66.1304C116.619 66.5703 115.189 66.953 113.83 67.4569C113.812 67.4646 113.791 67.4691 113.772 67.476C113.265 67.6368 113.483 68.374 113.995 68.2109C115.135 67.8488 116.274 67.4867 117.413 67.1246C120.132 66.2608 122.851 65.3963 125.571 64.5318C128.875 63.4821 132.18 62.4315 135.484 61.381C138.328 60.4776 141.174 59.5735 144.018 58.6693C144.957 58.3705 145.897 58.0717 146.836 57.7736C147.25 57.6417 147.814 57.554 148.19 57.3429C148.207 57.3337 148.231 57.3299 148.249 57.3238C148.077 57.1683 147.905 57.012 147.733 56.8557C147.336 57.8422 146.94 58.8287 146.542 59.8152C145.531 62.3324 144.519 64.8489 143.508 67.3654C142.149 70.7472 140.79 74.1298 139.431 77.5115C137.991 81.0931 136.552 84.6746 135.113 88.2561C133.864 91.3611 132.616 94.4669 131.369 97.572C130.568 99.564 129.767 101.556 128.967 103.548C128.82 103.913 128.677 104.281 128.526 104.644C127.687 106.659 125.389 107.843 123.047 107.446C119.804 106.896 116.57 106.306 113.33 105.736C112.28 105.551 111.229 105.372 110.181 105.182C107.188 104.639 104.578 102.969 103.063 100.557C102.241 99.2476 101.766 97.761 101.692 96.2546C101.61 94.5935 101.805 92.9079 101.991 91.2582C102.158 89.7892 102.444 88.3254 102.674 86.8633C102.748 86.3898 102.823 85.9164 102.897 85.443C102.973 84.9627 102.163 84.7554 102.087 85.2402Z" fill="#151B37"/>
<path d="M113.282 61.1229C113.701 64.468 113.863 68.4711 111.871 71.4816C111.579 71.923 111.303 72.2585 110.871 72.6008C111.029 72.4758 110.752 72.6976 110.677 72.7479C110.478 72.8821 110.209 73.0513 109.945 73.0231C109.475 72.9728 109.213 72.4071 109.065 72.0664C108.676 71.1691 108.51 70.1567 108.451 69.1961C108.421 68.7098 107.61 68.7021 107.611 69.1961C107.616 71.5449 107.621 73.8937 107.625 76.2425C107.626 76.8989 107.379 77.5538 107.155 78.1728C106.738 79.3224 106.136 80.4103 105.418 81.4295C104.05 83.3712 102.259 85.0499 100.31 86.5174C98.339 88.0025 96.1893 89.4098 93.6919 90.0395C91.7304 90.5335 89.7395 90.4679 87.7293 90.4679C86.8094 90.4679 85.8938 90.4702 84.9807 90.3513C83.3443 90.1386 81.8322 89.6042 80.3773 88.9074C77.6782 87.6145 75.2244 85.9167 72.9362 84.0947C71.9172 83.2828 70.8613 82.4625 70.0204 81.492C69.1173 80.4491 68.447 79.2439 68.0429 77.9708C67.6187 76.6374 67.4994 75.2233 67.2861 73.8533C67.0727 72.4857 66.861 71.118 66.6359 69.7519C66.5796 69.4073 66.5284 69.0604 66.4561 68.7174C66.3637 68.2767 65.6564 68.4094 65.632 68.8188C65.5993 69.3463 65.5203 69.8731 65.4094 70.3907C65.2675 71.0502 65.0768 72.1335 64.4064 72.5459C63.3522 73.1946 61.8955 70.6758 61.6309 70.1552C60.8127 68.5382 60.6388 66.7254 60.8018 64.9704C60.8472 64.4818 60.0071 64.4848 59.9618 64.9704C59.7156 67.6143 60.2911 70.6194 62.418 72.5855C62.9456 73.0727 63.6806 73.5682 64.4719 73.3563C65.4489 73.0948 65.8496 71.9711 66.0747 71.179C66.2931 70.4128 66.4233 69.6101 66.4721 68.8188C66.1965 68.8531 65.9218 68.8866 65.6472 68.9202C66.1747 71.4245 66.4628 73.9844 66.8551 76.5078C67.2793 79.2332 68.694 81.5728 70.8982 83.4459C73.0991 85.3137 75.447 87.0686 77.9966 88.5323C79.3205 89.2931 80.7149 89.9968 82.1867 90.4946C83.682 91 85.2806 91.2234 86.8724 91.2303C88.3996 91.2371 89.9613 91.3057 91.4826 91.1754C93.0383 91.0427 94.5529 90.6791 95.9726 90.086C97.1411 89.5973 98.2029 88.9287 99.2361 88.2381C103.384 85.4677 107.288 81.7108 108.375 76.9942C108.62 75.9284 108.462 74.7483 108.46 73.6681C108.457 72.2631 108.455 70.8573 108.452 69.4523C108.452 69.3669 108.452 69.2815 108.451 69.1961H107.611C107.699 70.6232 108.394 75.0502 110.995 73.4752C112.588 72.5085 113.393 70.6438 113.828 69.0193C114.518 66.4448 114.449 63.7362 114.122 61.1229C114.061 60.6411 113.22 60.635 113.282 61.1229Z" fill="#151B37"/>
<path d="M64.5234 309.783L68.8757 277.263L74.9349 281.413L81.2621 309.783" stroke="#151B37" stroke-width="0.00133333" stroke-miterlimit="2"/>
<path d="M43.6869 155.223C44.2707 162.127 45.0242 170.494 45.8298 177.632C51.0927 177.295 56.3522 176.914 61.6192 176.633C75.0658 175.915 88.3569 176.37 101.657 178.369C108.228 179.356 114.616 180.671 120.906 182.672C122.666 183.233 124.416 183.818 126.165 184.407C128.725 175.392 132.255 164.667 137.125 152.458C126.834 139.804 122.243 123.442 124.524 107.857C123.98 107.921 123.414 107.913 122.849 107.811L109.945 105.541C105.676 104.79 102.438 101.85 101.449 98.1698C97.998 98.1606 94.5379 98.3527 91.1777 98.618C85.9812 99.0305 80.6235 99.5153 75.3673 99.5062V101.933C75.3673 103.444 74.0451 104.679 72.3911 104.735L59.8392 105.101C57.65 105.165 55.5315 104.561 53.806 103.425C54.8149 116.501 49.5781 129.842 39.9126 139.548C41.9505 144.584 43.2316 149.849 43.6869 155.223Z" fill="#151B37"/>
<path d="M124.403 284.063C109.134 287.879 93.4433 290.289 77.6413 291.248C74.0963 291.472 70.5354 291.616 66.982 291.681C53.4061 291.955 39.805 291.162 26.3804 289.293C22.7001 288.788 18.7814 288.067 15.7765 286.213H15.7606L15.6337 285.593C12.1921 269.846 13.4639 253.478 19.7667 238.481C22.9152 230.986 26.7777 223.846 30.6335 217.519C34.5834 219.863 39.2019 221.198 43.8196 222.129C50.7113 223.521 57.7374 224.451 64.7089 225.461C79.6683 227.639 92.5284 229.457 107.687 228.116C108.72 228.029 110.12 227.755 111.622 227.423C112.973 247.491 121.922 268.013 124.403 284.063Z" fill="#151B37"/>
<path d="M81.3397 92.5347C81.2716 94.4505 81.2036 96.3655 81.1356 98.2813C81.1171 98.7715 81.9571 98.7715 81.9756 98.2813C82.0436 96.3655 82.1117 94.4505 82.1797 92.5347C82.1973 92.0445 81.3573 92.0445 81.3397 92.5347Z" fill="#151B37"/>
<path d="M73.8528 220.022C74.9616 219.121 75.632 217.846 75.7487 216.504C75.7664 216.299 75.5421 216.123 75.3287 216.123C75.0868 216.123 74.9263 216.298 74.9087 216.504C74.8087 217.648 74.1972 218.72 73.2589 219.483C73.0892 219.619 73.1043 219.881 73.2589 220.022C73.426 220.174 73.6831 220.159 73.8528 220.022Z" fill="#151B37"/>
<path opacity="0.7" d="M7.96711 105.637C4.57587 96.9595 4.71951 87.3043 7.81085 78.4199C11.7859 66.9962 22.3267 51.827 36.7141 50.3709C45.0313 49.5292 49.8901 55.3856 50.7688 62.2871C51.7348 69.874 49.4777 77.7239 53.8736 84.7314C58.6097 92.2832 68.3466 94.2257 74.5974 100.286C88.6378 113.9 71.1154 130.344 55.4411 132.141C39.1065 134.014 21.7001 126.218 12.5747 113.946C10.63 111.329 9.10116 108.538 7.96711 105.637Z" fill="url(#paint3_linear_1_732)"/>
<path d="M90.2337 76.0204C89.355 76.1089 88.5997 76.9474 88.5997 76.9474C87.9821 76.6359 87.2905 76.0026 86.0553 76.025C84.1778 76.0577 81.7526 79.1119 79.9512 79.457C85.4521 79.2434 90.9715 79.249 96.4714 79.4709C94.6443 78.7361 93.1563 75.7247 90.2337 76.0204Z" fill="#151B37"/>
<path d="M93.9554 78.7649C92.8867 78.2734 91.4213 78.4021 90.2334 78.4152C88.88 78.4301 87.5245 78.4767 86.1711 78.459C85.0849 78.446 83.8692 78.3154 82.8888 78.7649C81.2241 79.5315 82.2517 81.1197 83.5003 81.7529C86.1136 83.0772 90.7194 83.0828 93.343 81.7529C94.5916 81.1197 95.6192 79.5315 93.9554 78.7649Z" fill="#151B37"/>
<path d="M85.2197 79.0238L85.4181 79.2438C85.5506 79.615 86.0161 79.7848 86.4344 79.8724C88.2543 80.2529 90.2335 79.9573 91.8233 79.0676C89.7711 78.1807 87.2863 78.1639 85.2197 79.0238Z" fill="white"/>
<defs>
<linearGradient id="paint0_linear_1_732" x1="149.389" y1="203.879" x2="149.389" y2="233.237" gradientUnits="userSpaceOnUse">
<stop stop-color="#EC53CD"/>
<stop offset="0.998978" stop-color="white" stop-opacity="0"/>
</linearGradient>
<linearGradient id="paint1_linear_1_732" x1="135.549" y1="90.387" x2="135.549" y2="235.039" gradientUnits="userSpaceOnUse">
<stop stop-color="#EC53CD"/>
<stop offset="0.998978" stop-color="white" stop-opacity="0"/>
</linearGradient>
<linearGradient id="paint2_linear_1_732" x1="92.0749" y1="166.697" x2="92.0749" y2="308.523" gradientUnits="userSpaceOnUse">
<stop stop-color="#EC53CD"/>
<stop offset="0.998978" stop-color="white" stop-opacity="0"/>
</linearGradient>
<linearGradient id="paint3_linear_1_732" x1="55.0395" y1="50.0926" x2="55.0395" y2="166.855" gradientUnits="userSpaceOnUse">
<stop stop-color="#EC53CD"/>
<stop offset="0.998978" stop-color="white" stop-opacity="0"/>
</linearGradient>
</defs>
</svg>
