<svg width="85" height="173" viewBox="0 0 85 173" fill="none" xmlns="http://www.w3.org/2000/svg">
<g clip-path="url(#clip0_201_166)">
<path d="M45.1947 34.0609L59.5098 20.8469L70.1544 24.1504L75.4767 35.8962L71.072 52.4136L59.5098 61.957L61.0644 67.0958C67.3367 65.5052 80.4686 64.0859 82.8177 71.1334C85.7541 79.9427 82.8177 90.2202 82.8177 94.2578C82.8177 98.2954 80.6154 105.82 80.7989 111.142C80.9824 116.465 83.0012 124.54 80.7989 135.368C78.5966 146.196 78.7801 152.803 80.7989 155.556C82.8177 158.309 89.2412 165.283 89.9753 173.909C87.3447 175.438 81.8267 177.579 80.7989 173.909C79.5142 169.32 78.0461 166.384 75.4767 162.713C72.9072 159.043 73.4578 151.151 73.8249 143.26C74.1919 135.368 70.8884 110.408 72.3567 103.985C73.5312 98.846 68.6862 88.3849 66.1168 83.7968L59.5098 100.865C58.8369 109.124 57.5277 127.586 57.6745 135.368L35.1007 128.944C36.5077 121.297 38.7712 104.756 36.5689 99.7636C34.3666 94.7717 30.6349 85.9379 29.0443 82.145C27.4537 79.5145 24.346 77.2999 24.6396 89.4861C25.0067 104.719 22.4372 126.926 21.5196 132.248C20.602 137.57 14.7291 156.657 14.7291 162.713C14.7291 167.559 15.3409 172.196 15.6467 173.909L13.6279 178.497L10.508 169.32C11.915 161.49 14.7291 144.948 14.7291 141.424C14.7291 137.02 13.6279 127.476 13.6279 122.705C13.6279 117.933 14.7291 110.959 14.7291 106.738C14.7291 102.517 17.2985 84.3473 17.2985 79.9427C17.2985 75.538 20.235 67.4628 24.6396 67.0958C29.0443 66.7287 30.6959 66.7287 33.6324 65.8111C35.9816 65.077 42.3194 44.3384 45.1947 34.0609Z" fill="#EAC7AC"/>
<path d="M18.3997 158.125C17.5187 154.455 20.1126 145.462 21.5196 141.424C28.4285 139.589 40.6064 153.721 42.6252 158.125C44.2403 161.649 47.7028 174.031 49.2322 179.782L24.6396 180.883C22.9267 174.826 19.2806 161.796 18.3997 158.125Z" fill="#EAC7AC"/>
<path d="M58.5921 178.497C56.6143 175.12 56.1774 163.509 56.2063 158.125C60.2439 155.434 68.4292 150.527 68.8696 152.436C69.3101 154.345 75.6601 170.605 78.7801 178.497C72.8749 179.904 60.5699 181.874 58.5921 178.497Z" fill="#EAC7AC"/>
<path d="M31.7971 123.438C33.8526 118.006 32.6535 108.695 31.7971 104.719C31.6215 103.838 35.7615 102.883 37.8535 102.516C39.3217 118.667 37.2417 126.375 36.0182 128.21L31.7971 123.438Z" fill="#D6B49B"/>
<path d="M57.4909 135.001C55.1417 124.723 57.8579 107.472 59.5097 100.13L71.0719 103.25C69.31 110.004 70.8272 124.784 71.806 131.33L57.4909 135.001Z" fill="#D6B49B"/>
<path d="M56.2062 59.0203C52.5356 58.7267 49.0486 53.2698 47.7639 50.5781L46.1122 54.2486C46.8463 57.9192 52.4133 61.7732 55.105 63.2415V59.3874C59.3628 60.4151 61.7732 58.5921 62.4461 57.5521C61.8955 58.1639 59.8767 59.314 56.2062 59.0203Z" fill="#D6B49B"/>
<path d="M48.131 179.231C48.131 176.001 44.0934 163.57 42.0746 157.758C47.2133 159.043 57.4909 161.942 57.4909 163.264C57.4909 164.585 58.592 174.459 59.1426 179.231C58.1148 176.735 52.3521 169.137 49.5992 165.65C50.1865 169.761 48.8651 176.417 48.131 179.231Z" fill="#D6B49B"/>
<path d="M71.0719 111.509C71.0719 107.985 72.173 103.312 72.7236 101.415C71.4389 108.573 73.4577 127.476 74.0083 131.33C74.5589 135.184 74.7424 153.72 74.7424 157.758C74.7424 160.988 76.4553 163.631 77.3118 164.549C75.66 163.447 74.0083 164.365 74.7424 166.751C75.4765 169.137 74.5589 171.155 74.0083 173.358C73.4577 175.56 72.7236 173.174 71.806 168.036C70.8883 162.897 71.0719 158.492 71.806 155.005C72.5401 151.518 73.0907 134.817 72.7236 132.615C72.3566 130.412 71.0719 115.914 71.0719 111.509Z" fill="#D6B49B"/>
<path d="M25.0065 80.493C26.3279 78.2907 28.1265 80.0648 28.8606 81.2271C25.19 81.9612 27.576 100.13 27.7595 103.25C27.943 106.37 25.5572 125.824 23.9054 131.33C22.2537 136.836 18.2161 149.683 16.5643 155.005C15.2429 159.263 14.9125 167.913 14.9125 171.706C14.4231 166.139 14.1784 153.574 17.1149 147.848C20.7854 140.69 21.8866 120.318 22.9877 110.224C24.0889 100.13 23.3548 83.2459 25.0065 80.493Z" fill="#D6B49B"/>
<path d="M14.7289 112.611C14.605 112.943 14.468 113.323 14.3221 113.74C13.0234 119.207 14.8017 136.708 15.6466 141.608C16.5643 146.931 11.2418 166.201 11.2418 168.403C11.2418 170.165 12.5877 174.276 13.2607 176.111H11.2418C7.75482 171.707 8.3054 169.504 9.95714 165.1C11.6089 160.695 11.2418 152.803 11.2418 148.582V127.11C11.2418 123.437 13.0976 117.243 14.3221 113.74C14.434 113.269 14.5687 112.888 14.7289 112.611Z" fill="#F5D5BC"/>
<path d="M41.5239 98.6629C43.2858 97.1947 46.0509 90.343 47.2132 87.1007C46.4791 91.799 51.0673 95.91 53.4532 97.3782C51.9238 99.1523 48.5346 104.279 47.2132 110.592C45.8918 116.906 47.7638 129.495 48.865 135.001L40.6063 131.881C41.4627 126.743 43.2858 114.923 43.7262 108.757C44.1667 102.59 42.4415 99.4582 41.5239 98.6629Z" fill="#F5D5BC"/>
<path d="M83.9187 94.0747C84.6528 90.4042 84.2246 80.7996 83.9187 76.4561C82.2058 85.6325 79.0736 105.747 80.2481 112.795C81.7164 121.604 80.7987 129.312 79.6976 136.837C78.5964 144.361 78.2293 151.335 79.6976 155.006C81.1658 158.676 85.0199 162.347 85.754 166.201C86.3412 169.284 88.568 172.624 89.608 173.909C89.5469 171.095 88.3233 164.109 83.9187 158.676C78.4129 151.886 79.147 144.545 81.8999 136.286C84.6528 128.027 82.0834 116.465 81.8999 111.877C81.7164 107.289 83.0011 98.6629 83.9187 94.0747Z" fill="#F5D5BC"/>
<path d="M21.703 181.984C15.2428 168.623 16.9312 156.963 18.583 152.803C18.583 158.676 23.9665 173.848 26.6582 180.7L21.703 181.984Z" fill="#F5D5BC"/>
<path d="M27.2089 83.4299C27.2089 81.0808 31.8583 71.4395 34.183 66.9125C34.183 69.6654 33.0818 72.6018 31.2466 76.4559C29.4113 80.3099 30.696 84.164 33.0818 88.9357C34.9905 92.7531 38.8935 96.7662 40.6064 98.2956C37.3029 100.437 30.2555 103.948 28.4936 100.865C26.2913 97.0109 27.2089 86.3663 27.2089 83.4299Z" fill="#34A853"/>
<path d="M58.9592 94.4415C62.7765 89.8901 63.8532 77.0065 63.9144 71.1336C64.832 72.4183 72.3567 92.9733 71.9896 98.2956C71.696 102.553 62.5685 101.783 58.0415 100.865C56.7568 100.62 55.1418 98.993 58.9592 94.4415Z" fill="#34A853"/>
<path d="M43.3594 128.394C38.9547 127.366 34.183 123.439 32.3477 121.604C30.5859 124.1 28.1877 129.495 27.2089 131.881C29.9618 138.488 71.9896 143.443 71.9896 137.57C71.9896 132.872 71.1331 128.761 70.7049 127.293C70.1543 129.128 61.8956 130.046 58.9592 130.046C56.0227 130.046 48.8652 129.679 43.3594 128.394Z" fill="#34A853"/>
<path d="M37.1189 99.0298C40.2021 98.2957 45.0106 94.8086 47.0294 93.1569C48.7423 94.931 52.5719 98.5893 54.1869 99.0298C55.655 99.4302 56.9311 97.7377 57.5187 96.5993C57.5622 96.4945 57.6138 96.3871 57.6739 96.2769C57.6294 96.377 57.5775 96.4854 57.5187 96.5993C55.9687 100.334 64.7582 100.671 68.6856 100.314C71.9156 100.021 71.9891 96.3992 71.622 94.6251C72.9434 98.1488 72.7843 102.211 72.5396 103.801C67.7679 106.004 58.408 103.434 56.0222 102.333C53.6363 101.232 52.7187 99.9474 52.1681 99.3968C51.6175 98.8462 48.314 95.1757 47.0294 94.9922C45.7447 94.8086 43.5423 99.0298 42.2576 100.314C40.973 101.599 40.0553 104.169 35.6507 106.004C31.246 107.839 28.3096 103.985 28.3096 102.7V100.314C28.8602 100.865 33.2648 99.9474 37.1189 99.0298Z" fill="#2C9A4A"/>
<path d="M22.6202 142.342C22.3266 139.112 25.5567 134.022 27.2084 131.881C27.2084 132.982 35.4672 135.735 49.4153 138.305C60.5737 140.36 69.1139 138.549 71.9891 137.387L71.6221 154.639C68.3798 156.474 61.7483 160.291 61.161 160.878C60.4269 161.613 56.3893 164.365 55.2882 165.65C54.4072 166.678 53.0858 166.445 52.5353 166.201C50.7 166.751 49.4153 166.751 48.8647 166.201C48.3141 165.65 40.7895 158.86 39.6883 158.493C38.5872 158.126 22.9873 146.38 22.6202 142.342Z" fill="#2C9A4A"/>
<path d="M65.3819 24.1507C64.3542 23.1229 61.7726 23.4777 60.6102 23.7836C57.1232 22.499 54.0032 28.5552 54.0032 29.4728C54.0032 30.3905 47.9468 34.9787 46.6622 35.8963C45.3775 36.8139 43.9092 39.3833 45.3774 41.7692C46.8456 44.155 48.6809 48.3762 49.2315 50.5785C49.7821 52.7808 45.7445 57.9196 45.3774 60.3055C45.1679 61.6672 47.0633 63.608 48.8776 65.0751C49.9091 65.5323 50.7047 66.0099 50.8832 66.5453C50.3222 66.1772 49.6064 65.6643 48.8776 65.0751C46.7273 64.1218 43.5522 63.257 42.808 62.1407C41.7068 60.4889 42.808 59.0208 42.808 56.0843C42.808 53.1479 38.954 61.9572 37.3022 64.5265C35.9808 66.5821 34.5493 68.6865 33.9987 69.4818L29.5941 67.0959C24.2718 67.6465 20.7847 68.7477 19.133 72.0512C17.4813 75.3547 17.1142 82.8793 16.3801 86.3663C15.7928 89.1559 11.8531 90.7098 9.95667 91.138C12.8931 87.8346 11.0578 77.1899 12.7096 76.0888C14.3613 74.9876 15.4624 71.5006 15.2789 68.7477C15.0954 65.9947 15.0954 62.5077 18.2154 60.3055C21.3353 58.1032 20.4177 56.0843 20.7847 50.5785C21.0784 46.1738 27.5141 42.1362 30.6952 40.668C31.0623 39.8728 31.9065 36.9975 32.3469 31.8587C32.8975 25.4353 40.9727 21.5812 42.808 21.5812C44.6433 21.5812 47.5797 18.2777 48.6809 16.6259C49.782 14.9742 52.7185 14.9742 58.9584 14.2401C63.9503 13.6528 68.6242 18.1554 70.3372 20.4801C74.1913 19.9295 77.8617 27.2706 77.8617 31.8587C77.8617 36.4469 82.8169 45.8068 81.8993 47.275C80.9817 48.7432 77.1276 56.0843 79.8805 60.3055C82.0828 63.6824 82.144 66.9736 81.8993 68.1971C81.1652 68.0136 78.7793 69.4818 78.7793 70.0324C78.7793 70.583 76.3935 73.3359 75.4758 73.7029C74.5582 74.07 74.1912 75.9053 76.3935 78.4747C78.5958 81.044 76.9441 88.0181 77.1276 91.138C77.2744 93.634 80.8593 94.8698 82.6334 95.1756C81.3487 95.7262 78.5958 96.497 77.8617 95.1756C76.9441 93.5239 75.4758 93.5239 74.1912 93.8909C72.9065 94.258 72.9065 98.1121 74.9253 98.2956C76.5403 98.4424 78.9017 98.8462 79.8805 99.0297V101.049C78.9629 100.681 76.6871 100.057 74.9253 100.498C73.3335 100.896 73.6192 103.321 74.0501 104.823C74.1251 104.95 74.174 105.098 74.1912 105.27C74.1439 105.134 74.0962 104.984 74.0501 104.823C73.4821 103.859 71.418 104.082 70.3372 104.352C70.643 103.373 71.2548 101.122 71.2548 99.9473C71.2548 98.4791 61.8948 85.2652 58.5914 82.8793C55.288 80.4935 56.7561 73.5194 57.3066 71.5006C57.8572 69.4818 55.8384 69.4818 55.6549 70.3995C55.4714 71.3171 52.7185 74.07 50.8832 75.3547C49.0478 76.6394 43.1751 78.4747 46.6622 84.3475C49.4518 89.0458 53.0856 86.9169 54.5537 85.2652C53.2691 88.9357 48.3139 88.5687 46.6622 86.3663C45.0104 84.164 44.4598 82.5123 44.8269 78.4747C45.1939 74.4371 50.8833 70.7665 52.7185 69.4818C54.5538 68.1971 53.2691 65.9948 54.0032 65.2607C54.5905 64.6734 54.8597 60.856 54.9209 59.0208C55.0432 59.1431 55.9486 59.4245 58.5914 59.5714C61.8949 59.7549 63.3631 57.1855 64.0972 56.0843C64.8313 54.9832 69.6031 49.6609 70.3372 48.3762C71.0713 47.0915 70.5207 42.5033 71.2548 40.668C71.4932 40.072 71.7316 39.4179 71.9449 38.6492C71.9969 38.4657 69.6031 38.0986 68.6854 38.2822C67.9512 38.429 67.8901 37.3645 67.9513 36.8139C68.9892 36.4469 71.3226 35.933 72.3528 36.8139C72.5782 35.5002 72.723 33.8967 72.723 31.8587C72.723 27.2706 70.3372 25.9859 69.6031 25.0682C68.8689 24.1506 66.6666 25.4354 65.3819 24.1507Z" fill="#A08263"/>
<path d="M60.0596 32.7763C58.4446 32.0422 55.3491 33.0822 54.0032 33.694C58.4079 32.9599 60.0596 34.6116 60.2431 34.7951C60.4267 34.9787 63.3631 37.181 63.9137 36.4469C64.4643 35.7128 62.0784 33.694 60.0596 32.7763Z" fill="#A08263"/>
<path d="M58.4083 16.0757C61.932 14.7543 67.4623 18.5839 69.787 20.6639C68.9061 20.6639 67.9517 21.7651 67.5847 22.3157C66.4223 21.031 63.0332 18.4616 58.7754 18.4616C53.4531 18.4616 50.5166 23.4169 48.1308 24.8851C45.7449 26.3533 44.6438 29.8403 42.4414 32.4097C40.2391 34.9791 47.2131 50.5789 47.2131 53.1483C47.2131 55.7177 45.3779 59.0211 45.3779 61.2235C45.3779 63.4258 50.5166 63.9764 53.6366 66.3622C56.7566 68.7481 54.1872 71.868 48.8649 74.0704C44.6071 75.8322 44.2767 80.9221 44.6438 83.2467C42.0744 72.0516 53.8201 71.868 53.6366 68.5646C53.4531 65.2611 46.6626 64.7105 45.3779 63.2423C44.0932 61.774 44.4602 56.2682 44.6438 54.8C44.8273 53.3318 44.0932 47.826 42.4414 44.5225C41.12 41.8797 40.6673 36.3249 40.6062 33.8779C39.1379 35.1626 38.2203 39.3837 37.6697 40.4849C37.1191 41.5861 27.5757 48.9271 27.5757 52.0471C27.5757 55.1671 22.437 62.3246 19.8676 64.7105C17.8121 66.6192 16.197 69.6657 15.6465 70.9504C15.83 69.1151 16.7476 65.8116 18.2158 63.9764C19.6841 62.1411 24.2722 57.1859 25.3734 51.313C26.4746 45.4401 35.2839 41.7696 35.2839 38.099C35.2839 34.4285 38.7709 26.3533 41.1567 25.8027C43.5426 25.2521 49.0484 19.7463 50.5166 17.7275C51.6912 16.1125 56.2672 15.9534 58.4083 16.0757Z" fill="#61472D"/>
<path d="M71.6223 20.6639C69.7136 20.517 68.1353 22.1933 67.5847 23.0498C77.1281 24.7015 76.2104 43.4213 76.0269 52.0471C75.8434 60.6729 68.6858 60.1223 67.0341 72.0516C65.3823 83.9808 70.8882 88.202 74.3752 92.6066C77.1648 96.1303 80.5539 95.7878 81.8998 95.176C78.0457 94.9925 65.5659 79.3927 70.8882 73.3363C76.2104 67.2799 78.5963 63.9764 78.5963 62.5082C78.5963 61.0399 76.9446 60.1223 77.8622 55.3506C78.7798 50.5789 81.5327 48.9271 81.8998 45.8072C82.2668 42.6872 77.6787 36.4473 77.8622 31.4921C78.0457 26.5368 74.0081 20.8475 71.6223 20.6639Z" fill="#61472D"/>
</g>
<defs>
<clipPath id="clip0_201_166">
<rect width="84.6769" height="172" fill="white" transform="translate(0.32309 0.63623)"/>
</clipPath>
</defs>
</svg>
