<?xml version="1.0" standalone="no"?>
<!DOCTYPE svg PUBLIC "-//W3C//DTD SVG 20010904//EN"
 "http://www.w3.org/TR/2001/REC-SVG-20010904/DTD/svg10.dtd">
<svg version="1.0" xmlns="http://www.w3.org/2000/svg"
 width="512.000000pt" height="512.000000pt" viewBox="0 0 512.000000 512.000000"
 preserveAspectRatio="xMidYMid meet">
<metadata>
Created by potrace 1.14, written by Peter Selinger 2001-2017
</metadata>
<g transform="translate(0.000000,512.000000) scale(0.100000,-0.100000)"
fill="#000000" stroke="none">
<path d="M0 3930 c0 -655 2 -1190 5 -1190 2 0 246 151 542 335 598 374 611
380 763 379 74 -1 170 -21 725 -154 566 -135 650 -153 725 -153 101 1 197 30
281 86 30 20 389 285 799 590 410 305 747 553 748 551 7 -5 -1130 -2207 -1163
-2254 -45 -64 -125 -104 -208 -103 -41 1 -278 50 -712 148 -685 155 -766 169
-878 145 -135 -28 -166 -51 -917 -688 l-705 -598 -3 -512 -2 -512 2560 0 2560
0 0 2560 0 2560 -2560 0 -2560 0 0 -1190z"/>
</g>
</svg>
