<svg width="42" height="44" viewBox="0 0 42 44" fill="none" xmlns="http://www.w3.org/2000/svg">
<circle cx="17" cy="26.002" r="17" fill="#CCEEFF"/>
<path fill-rule="evenodd" clip-rule="evenodd" d="M10.2518 37.7115C10.2518 31.7936 18.5197 32.5515 18.5197 37.3809C18.5197 41.0901 14.1965 43.0246 11.6632 40.5995C11.1726 40.1299 10.2518 38.5252 10.2518 37.7115ZM34.7243 41.68C29.2638 41.68 29.6495 33.4123 34.7243 33.4123C36.9625 33.4123 38.8775 35.4355 38.9269 37.4183C38.978 39.4635 36.9525 41.68 34.7243 41.68ZM13.2282 30.1053C12.896 26.112 9.99877 18.0436 9.92117 14.5622H37.7007C38.1273 14.5622 38.4015 14.1762 38.6199 15.5754C38.9269 17.5423 39.3277 25.283 36.9683 27.0579C35.5437 28.1297 29.7578 28.2806 28.058 28.3964L18.2119 29.4667C16.46 29.5929 15.2686 30.1053 13.2282 30.1053ZM0 8.27855C0.395175 11.8913 5.95285 5.52776 7.94354 13.2327L12.2362 32.4203C8.37964 34.4608 8.23955 38.5751 9.72212 40.5562L10.4949 41.4372C12.8856 43.703 17.5411 43.8384 19.439 39.623C20.2713 37.7744 19.4005 38.0421 23.811 38.0421C25.1144 38.0421 25.3204 38.2766 26.126 38.2766L29.433 38.0421C29.5385 42.7769 35.4315 44.3972 38.6165 41.6037C39.5427 40.7913 40.0342 39.3823 40.3464 38.0421H42V36.7193C38.9835 36.7193 40.5952 35.7078 38.9469 33.8198C36.4771 30.9911 29.8785 31.3657 29.433 36.7193H19.8425C18.4719 30.8362 14.9159 33.2801 13.559 31.4281L36.7284 28.8021C41.1969 27.0187 40.0158 20.6935 40.0158 14.2314C40.0158 13.4693 39.7856 13.2392 39.0236 13.2392H9.25976C9.19815 10.4712 7.10933 7.94794 5.62207 7.94794C4.53747 7.94794 0.447542 7.73259 0 8.27855Z" fill="#00AAFF"/>
<path fill-rule="evenodd" clip-rule="evenodd" d="M17.8583 3.31809C19.7188 2.82126 19.8338 1.66451 22.8188 1.66451V5.63309C20.646 5.58454 18.7676 4.67625 17.8583 3.31809ZM24.8032 1.66451C27.2691 1.66451 27.803 2.88287 29.433 3.31809C28.5236 4.67625 26.6453 5.58454 24.4724 5.63309C24.4724 2.82919 24.0146 1.66451 24.8032 1.66451ZM12.8976 10.5937C12.8976 11.858 12.7961 10.714 13.2282 11.5858C15.7583 10.9101 12.9846 9.94344 16.5354 4.6409C18.3642 5.86543 19.7273 6.9559 22.8188 6.9559C22.8188 10.6698 22.4048 11.1219 24.1417 11.5858C25.2682 6.75084 22.9129 7.37072 25.7094 6.89267C28.4583 6.42269 28.7106 5.72315 30.7559 4.6409C34.2401 9.84399 31.3526 10.862 34.0631 11.5858C35.0935 7.16244 31.9816 2.94125 28.339 1.10489C21.3836 -2.40134 12.8976 2.90883 12.8976 10.5937Z" fill="#00AAFF"/>
<path fill-rule="evenodd" clip-rule="evenodd" d="M22.1574 18.5306L26.1469 21.486C26.9729 22.1549 26.7924 21.6097 27.1182 22.8298C24.2309 22.894 24.5219 24.0042 22.8188 25.1447C22.4472 23.5493 22.1574 20.4862 22.1574 18.5306ZM21.4961 27.4597C24.687 27.3887 22.8092 25.1796 27.6932 24.0662C28.7056 23.8355 29.197 23.6353 30.0944 23.1604C29.7213 21.7631 28.2906 21.1567 26.4554 19.8546C17.1866 13.2773 21.4961 15.7695 21.4961 27.4597Z" fill="#00AAFF"/>
</svg>
