<svg width="64" height="54" viewBox="0 0 64 54" fill="none" xmlns="http://www.w3.org/2000/svg">
<path fill-rule="evenodd" clip-rule="evenodd" d="M30.9679 25.1359H58.8388L60.3873 38.4989C60.8039 42.3283 61.1581 48.4054 61.9355 51.8618H26.8387C26.8387 47.5147 28.3934 36.3344 28.9975 31.1132C29.2395 29.0202 28.8762 25.1359 30.9679 25.1359ZM31.4838 15.5145C35.9271 15.5145 37.1615 13.8561 37.1615 22.9979H27.8711L26.1654 37.267C25.6689 41.1075 24.7743 47.5388 24.7743 51.8618H2.06444L6.19356 15.5145H12.3871C12.3871 19.7583 12.0817 19.5865 14.4516 19.7907V15.5145H27.8711L28.4754 19.7751L29.9356 19.7907C30.2563 15.7972 29.8896 15.5145 31.4838 15.5145ZM20.6452 4.28943C22.5017 4.28943 24.2888 4.90052 25.4046 5.77463C28.2475 8.00102 27.8711 10.2435 27.8711 13.3765H14.4516C14.4516 7.83966 17.5729 4.28943 20.6452 4.28943ZM12.3871 13.3765C2.83846 13.3765 4.41534 12.7256 4.01037 16.9954C3.88453 18.3247 3.63285 20.4132 3.38986 22.2323L0 54H64L61.0348 26.0687C60.8202 24.2769 61.2036 22.9979 59.3549 22.9979H39.2259C39.2259 19.7609 38.4295 16.3135 38.1936 13.3765H30.4517C30.3247 13.0583 30.2732 2.15141 21.6775 2.15141C15.0979 2.15141 12.3871 6.9992 12.3871 13.3765Z" fill="#0A2896"/>
<path fill-rule="evenodd" clip-rule="evenodd" d="M46.4519 17.118H44.3872C44.3243 14.1931 43.127 10.7976 47.3371 6.27517C50.3991 2.98606 52.318 2.15129 58.3228 2.15129C58.5798 5.34988 58.8605 8.95344 55.8832 12.4532C53.6357 15.0952 51.0578 17.118 46.4519 17.118ZM44.3872 19.256C49.8596 19.256 54.2235 18.5592 57.8996 13.4725C61.7001 8.21319 60.3873 3.41542 60.3873 0.547843C42.328 -3.80944 38.6693 19.256 44.3872 19.256Z" fill="#0A2896"/>
<path fill-rule="evenodd" clip-rule="evenodd" d="M43.871 44.9135C49.4262 44.9135 53.1613 40.1342 53.1613 36.3612C53.1613 29.6913 53.8612 29.1231 52.1292 27.8087C50.6178 28.9556 51.0248 29.2643 51.0719 32.0589C51.1426 36.2717 50.6514 42.7755 44.3871 42.7755C35.6072 42.7755 38.0881 31.9286 37.1614 27.8087H35.6129C35.6129 31.7068 34.9824 36.9489 36.3515 39.8724C37.5591 42.4509 40.5447 44.9135 43.871 44.9135Z" fill="#0A2896"/>
</svg>
