<svg width="55" height="50" viewBox="0 0 55 50" fill="none" xmlns="http://www.w3.org/2000/svg">
<circle cx="17" cy="32.002" r="17" fill="#CCEEFF"/>
<path fill-rule="evenodd" clip-rule="evenodd" d="M18.9972 36.002C18.9972 37.2765 18.895 36.1234 19.3305 37.002C21.0684 36.5378 20.6134 34.7721 21.7014 31.3741C22.0044 30.428 22.38 29.4332 22.7059 28.3789L25.5444 18.552C27.0197 13.3358 27.2736 14.3353 37.6555 14.3353C38.644 14.3353 38.8001 15.2296 39.7738 16.5495C40.8382 17.9919 41.0268 17.7072 43.3093 17.6791C46.4171 17.6409 49.5393 17.6686 52.6488 17.6686C54.0608 19.7781 53.6186 19.5004 52.6095 22.9627L49.2516 34.6032C48.7674 36.3641 47.9871 38.6688 45.652 38.6688H18.664C14.2959 38.6688 16.9311 33.5475 15.6479 32.2681C15.2833 31.9047 15.1738 31.7286 14.7147 32.2251C13.9293 33.075 14.6658 31.498 14.6658 34.6687C14.6658 35.5837 13.8688 40.002 17.9978 40.002H46.3183C50.4813 40.002 51.2113 32.4606 52.6052 27.9584C56.5211 15.3095 56.4889 16.511 45.9641 16.3407C45.5144 16.3335 45.138 16.3094 44.6983 16.286C42.5436 16.172 42.4366 16.6704 41.351 15.9872C40.3673 15.3682 39.6705 13.0019 38.3219 13.0019H28.3264C24.6831 13.0019 23.6986 19.2818 22.5894 23.2624L18.9972 36.002Z" fill="#00AAFF"/>
<path fill-rule="evenodd" clip-rule="evenodd" d="M19.5837 2.58861L19.6636 6.66857H15.6654L19.5837 2.58861ZM13 7.66863V29.3354C13 30.8162 14.5553 30.3353 17.9978 30.3353C19.2715 30.3353 18.119 30.4376 18.9972 30.002C18.53 28.2513 18.0745 28.6686 14.3327 28.6686V8.33531C16.8326 8.12713 19.7945 8.7271 20.73 8.04255C21.6843 7.34425 20.4809 3.22231 21.1732 1.902C21.3299 1.60305 20.5853 1.33529 21.9959 1.33529H34.3237V10.3353C34.3237 11.274 34.4678 10.9524 34.9901 11.3352C36.2953 10.3786 35.6564 8.98259 35.6564 7.66863V0.00195312H20.6632C19.8092 0.00195312 19.1224 1.04312 18.5818 1.58633L17.0319 3.03572C15.7937 4.33164 13 6.58902 13 7.66863Z" fill="#00AAFF"/>
<path fill-rule="evenodd" clip-rule="evenodd" d="M17.3314 11.002C18.9656 11.7865 26.4636 11.2957 29.6663 11.3425C30.0402 11.3479 31.399 11.3918 31.6738 11.3507C33.2591 11.113 32.1997 11.8314 32.991 10.3353C30.9866 9.37308 23.8401 10.2014 19.8302 9.91378C17.2435 9.72837 17.439 9.73857 17.3314 11.002Z" fill="#00AAFF"/>
<path fill-rule="evenodd" clip-rule="evenodd" d="M31.6583 8.33531C32.7003 8.33531 32.6021 7.73695 32.991 7.00198C30.0369 6.31329 26.4163 6.66858 23.3287 6.66858C23.3634 8.2293 22.8586 8.21451 25.1545 8.27262L31.6583 8.33531Z" fill="#00AAFF"/>
<path fill-rule="evenodd" clip-rule="evenodd" d="M37.3224 10.6685C38.3728 12.1029 38.9505 11.0636 42.327 11.3284C44.2244 11.4771 44.9411 12.3399 44.9856 14.3353H46.3183C46.3183 9.16564 42.6938 10.002 38.3219 10.002C37.7195 10.002 37.4078 10.1688 37.3224 10.6685Z" fill="#00AAFF"/>
<path fill-rule="evenodd" clip-rule="evenodd" d="M17.3314 13.6686C18.1097 14.789 18.4522 14.3353 22.6623 14.3353C23.6006 14.3353 23.2793 14.1911 23.6618 13.6686C22.8835 12.5482 22.541 13.0019 18.3309 13.0019C17.7285 13.0019 17.4167 13.1689 17.3314 13.6686Z" fill="#00AAFF"/>
<path fill-rule="evenodd" clip-rule="evenodd" d="M17.3314 16.6686C18.1871 17.8371 19.4028 17.3353 22.6623 17.3353C22.5228 15.6572 22.6728 16.002 18.3309 16.002C17.7285 16.002 17.4167 16.1689 17.3314 16.6686Z" fill="#00AAFF"/>
<path fill-rule="evenodd" clip-rule="evenodd" d="M17.3314 20.3354C19.6049 20.8653 21.6627 21.297 21.6627 19.3353C21.2026 19.0767 17.867 18.0967 17.3314 20.3354Z" fill="#00AAFF"/>
<path fill-rule="evenodd" clip-rule="evenodd" d="M18.3309 23.6687C21.2455 23.6687 20.4285 23.7773 20.9963 23.002C20.364 22.0915 21.0546 22.3354 17.3314 22.3354C17.4096 23.2763 17.3236 23.6687 18.3309 23.6687Z" fill="#00AAFF"/>
</svg>
