<svg width="182" height="42" viewBox="0 0 182 42" fill="none" xmlns="http://www.w3.org/2000/svg">
<path d="M30.7977 17.2418H2.07256L0 23H28.7252L30.7977 17.2418ZM37 0H8.27522L6.21364 5.72553H34.9392L37 0ZM33.9022 8.60496H5.17663L3.10406 14.3631H31.8292L33.9022 8.60496Z" fill="white"/>
<path d="M59.3717 23.8929V24.0089C60.6412 24.4735 61.8531 25.2869 62.4884 25.8099C64.4502 27.4359 65.3156 29.5852 65.3156 32.3728C65.3156 36.9618 62.8915 40.2728 58.91 41.3181C57.7357 41.6556 56.5077 41.7756 54.2804 41.7828H42V8.21106H52.6769C54.8699 8.21106 56.3706 8.3267 57.6978 8.67573C61.5647 9.72105 64.1037 12.3931 64.1037 16.6326C64.1037 18.898 63.2959 20.815 61.9684 22.0926C61.3914 22.6733 60.5836 23.3706 59.3717 23.8929ZM75.3576 41.7828H82.0528V13.845H90.5948L92.4989 8.21106H65.7197V13.845H75.3576V41.7828ZM48.6944 27.4359V36.2645H53.3122C54.6967 36.2645 55.9665 36.1481 56.8903 35.2771C57.813 34.4058 58.2175 33.3025 58.2175 31.8505C58.2175 30.7469 57.9286 29.7012 57.3517 28.9458C56.3706 27.7262 55.1584 27.4359 53.0807 27.4359H48.6944ZM48.6368 21.6279H52.3881C53.5424 21.6279 54.1193 21.628 54.6966 21.4533C56.255 20.9886 57.2361 19.5957 57.2361 17.6787C57.2361 15.4134 56.1974 14.4257 54.6966 13.9606C54.0617 13.787 53.4271 13.729 52.1569 13.729H48.6368V21.6279ZM128.2 8.09688V16.597H131.289C133.702 16.597 134.293 15.0185 134.293 14.1198C134.293 13.027 133.774 11.3755 131.289 11.3755H129.913V9.60291H133.605V8.09688H128.2ZM129.913 12.7115H130.975C131.928 12.7115 132.483 13.1242 132.483 13.9862C132.483 14.8485 131.928 15.2613 130.975 15.2613H129.913V12.7115ZM135.704 8.09688V16.597H137.756L140.736 11.4486L141.315 10.1612H141.351L141.315 12.2133V16.597H143.028V8.09688H140.977L138.021 13.2943L137.418 14.5326H137.382L137.418 12.4683V8.09688H135.704ZM146.804 16.6942C147.661 16.6942 150.255 16.5484 150.255 14.1321C150.255 12.8815 149.459 12.25 148.566 12.0919V12.0555C149.507 11.8005 149.966 11.0113 149.966 10.1371C149.966 8.89835 149.036 8 147.094 8C146.117 8 145.466 8.14552 144.621 8.42503V9.93068C145.309 9.60289 145.888 9.39649 146.732 9.39649C147.782 9.39649 148.095 9.91842 148.095 10.3798C148.095 11.0477 147.613 11.4727 146.744 11.4727H145.719V12.8692H146.744C147.07 12.8692 148.385 12.8815 148.385 14.1685C148.385 14.6177 148.023 15.2977 146.72 15.2977C146.237 15.2977 145.478 15.1886 144.331 14.6785V16.1719C145.164 16.4878 145.815 16.6942 146.804 16.6942ZM151.582 8.09688V16.597H153.296V12.9178H156.722V16.597H158.435V8.09688H156.722V11.5213H153.296V8.09688H151.582ZM160.125 8.09688V16.597H165.168V15.0913H161.838V12.9178H164.866V11.5213H161.838V9.60291H165.168V8.09688H160.125ZM170.706 16.6942C171.382 16.6942 172.142 16.5847 172.89 16.3297V14.8363C172.467 15.0305 171.876 15.2613 171.02 15.2613C169.499 15.2613 168.124 14.4235 168.124 12.3714C168.124 10.6349 169.246 9.43287 171.14 9.43287C171.852 9.43287 172.395 9.5784 172.89 9.77291V8.2914C172.25 8.085 171.683 8 171.02 8C168.365 8 166.314 9.46925 166.314 12.3955C166.314 15.4919 168.606 16.6942 170.706 16.6942ZM128.2 22.2021V30.7022H129.913V26.4767H129.949L133.086 30.7022H135.258L131.518 26.0516L135.041 22.2021H133.002L129.949 25.833H129.913V22.2021H128.2ZM139.445 22.1052C137.358 22.1052 135.306 23.3681 135.306 26.4521C135.306 29.5366 137.358 30.7995 139.445 30.7995C141.532 30.7995 143.584 29.5366 143.584 26.4521C143.584 23.3681 141.532 22.1052 139.445 22.1052ZM139.445 23.3195C140.084 23.3195 141.774 23.5745 141.774 26.4521C141.774 29.3302 140.084 29.5852 139.445 29.5852C138.805 29.5852 137.116 29.3302 137.116 26.4521C137.116 23.5745 138.805 23.3195 139.445 23.3195ZM144.971 22.2021V30.7022H146.684V27.0231H150.111V30.7022H151.824V22.2021H150.111V25.6266H146.684V22.2021H144.971ZM153.513 22.2021V30.7022H155.227V27.0231H158.653V30.7022H160.366V22.2021H158.653V25.6266H155.227V22.2021H153.513ZM162.056 22.2021V30.7022H167.099V29.1965H163.769V27.0231H166.797V25.6266H163.769V23.7081H167.099V22.2021H162.056ZM168.547 22.2021V30.7022H170.26V26.4767H170.296L173.433 30.7022H175.605L171.865 26.0516L175.388 22.2021H173.349L170.296 25.833H170.26V22.2021H168.547ZM175.412 22.2021V23.7081H177.849V30.7022H179.563V23.7081H182V22.2021H175.412ZM101.239 36.3653L101.231 27.0148H106.177C107.736 27.0148 108.659 27.3051 109.352 27.8274C110.506 28.6984 111.083 29.9184 111.083 31.6614C111.083 33.4037 110.506 34.3327 110.102 34.8553C109.293 35.901 108.139 36.3653 106.235 36.3653H101.239ZM94.5769 42H105.576C109.881 41.9874 112.038 41.5706 114.084 40.1413C115.873 38.8633 118.008 36.3653 118.008 31.8354C118.008 27.2464 115.931 24.9234 114.719 23.8781C113.16 22.5425 110.91 21.4961 106.581 21.4961H101.214V14.0622H114.372L116.277 8.42827H94.5769V42Z" fill="white"/>
</svg>
