<svg width="43" height="48" viewBox="0 0 43 48" fill="none" xmlns="http://www.w3.org/2000/svg">
<circle cx="17" cy="30.002" r="17" fill="#CCEEFF"/>
<path fill-rule="evenodd" clip-rule="evenodd" d="M30.2261 13.7059C30.3295 13.6363 31.0113 15.0867 31.1075 15.0125C35.1933 11.8565 32.9515 4.39749 28.7012 4.39749H26.3417C23.8796 4.39749 21.6225 7.23207 21.6225 9.80765C21.6225 11.9021 22.4091 13.4427 23.3542 14.4489C23.3096 14.3986 24.1315 13.2092 24.089 13.1568C23.398 12.3084 22.9708 11.1877 22.9708 10.1457C22.9708 5.41104 28.8014 4.6646 30.7932 7.0329C32.2687 8.78735 32.7415 12.1454 30.2261 13.7059Z" fill="#00AAFF"/>
<path fill-rule="evenodd" clip-rule="evenodd" d="M26.6787 9.46944H25.3304V10.8219H26.6787C26.8432 12.8045 28.2042 12.751 28.3642 10.8219C29.9296 10.6913 28.9535 11.1846 29.7125 10.1457C28.9535 9.10679 29.9296 9.60022 28.3642 9.46944C28.1875 7.33915 26.6787 7.69805 26.6787 9.46944Z" fill="#00AAFF"/>
<path fill-rule="evenodd" clip-rule="evenodd" d="M13 3.38321V43.6205C13 45.6709 14.3485 47.002 16.7079 47.002H27.1573C28.5013 47.002 28.1687 46.044 28.1687 43.6205C28.1687 42.471 26.1278 41.9376 25.2328 40.1411C23.7755 37.2162 23.8258 34.308 21.0013 31.5361C20.086 30.6378 19.9103 31.0627 19.58 29.8965C19.1782 28.478 20.7709 26.7573 23.1888 29.3423C24.0381 30.2504 23.8702 30.3979 25.4719 30.4336V16.2321C25.4719 15.4073 26.2537 14.5414 27.4945 14.5414C30.4577 14.5414 27.5527 20.7286 29.517 23.6709C31.4508 22.6446 29.8734 22.7613 31.5394 21.6421C33.4577 22.0906 33.2249 22.7119 33.2249 25.0236H34.573C34.6567 24.0149 34.8154 23.3329 35.9213 23.3329C37.8101 23.3329 36.9486 25.3379 37.6068 26.7141C39.4627 26.5106 37.9465 26.9127 38.8485 25.9309C39.4787 25.2449 38.577 25.0236 40.3034 25.0236C41.0924 25.0236 41.6517 25.5845 41.6517 26.3761C41.6517 30.0352 42.1566 38.2405 40.8835 40.821C39.4594 43.7074 38.9551 40.8765 38.9551 45.9875C38.9551 47.2803 38.8516 46.1105 39.2922 47.002C40.5528 46.8637 40.5197 46.8802 40.6395 45.3102C40.8083 43.0967 40.1829 44.1237 41.3775 42.6692C42.4462 41.368 43 40.1613 43 37.8725V25.6998C43 24.0025 41.2459 23.0569 38.6181 23.6709C37.5286 21.6054 37.2439 21.9803 34.236 21.9803C33.7238 20.056 32.3457 20.2896 30.5281 20.2896V16.9084C30.5281 11.9789 24.8223 12.0899 24.1867 15.281C23.7633 17.4072 24.1237 25.3445 24.1237 28.0668C23.2424 27.4746 22.5571 26.3761 21.09 26.3761C19.5962 26.3761 15.5783 28.7186 20.0455 32.8337C20.0966 32.8808 20.1703 32.9482 20.2201 32.9967C23.1437 35.8371 22.9559 40.7783 25.0884 42.6529C26.3657 43.7755 26.4832 42.742 26.4832 45.6493C11.6145 45.6493 14.6195 47.1201 14.451 35.5558C14.3422 28.0809 14.0458 11.3358 14.3292 4.37831C14.4208 2.12504 15.4535 1.35445 17.7191 1.35445C42.9441 1.35445 39.9664 -0.703688 39.9664 10.1459C39.9664 13.978 39.9664 17.8101 39.9664 21.6421C40.918 21.5628 41.3147 21.6501 41.3147 20.6278V3.38321C41.3147 1.48374 39.8375 0.00195312 37.9438 0.00195312H16.3708C14.6762 0.00195312 13 1.68321 13 3.38321Z" fill="#00AAFF"/>
<path fill-rule="evenodd" clip-rule="evenodd" d="M16.0337 37.5343C16.7868 38.9621 16.3864 38.575 18.7277 38.5795C20.8266 38.5834 21.2762 39.0125 21.4269 37.1962C20.2221 37.1962 16.5018 37.0049 16.0337 37.5343Z" fill="#00AAFF"/>
</svg>
