<svg width="40" height="46" viewBox="0 0 40 46" fill="none" xmlns="http://www.w3.org/2000/svg">
<circle cx="22" cy="28.002" r="17" fill="#CCEEFF"/>
<path fill-rule="evenodd" clip-rule="evenodd" d="M6.54545 37.9199L4.04331 35.9292C3.42996 35.3637 2.50948 34.0744 2.06696 33.4087L11.6063 25.3202C12.3032 24.7296 12.3536 24.5368 13.0909 24.0395C15.3709 25.5774 14.5248 25.6915 16.1914 26.8157C15.6482 27.6327 14.5933 28.8618 13.8687 29.6811C12.4825 31.2486 7.85681 37.0352 6.54545 37.9199ZM28.2488 24.3866C24.6999 24.3866 21.924 24.1383 19.0181 21.1922C15.4751 17.6003 14.8934 11.6522 16.9807 7.48429C18.4 4.65008 22.7693 1.48403 26.5262 1.48403C33.0653 1.48403 37.747 6.00145 38.4626 12.0393C38.592 13.1316 38.1906 15.7928 37.8648 16.7223C36.5614 20.4417 32.4243 24.3866 28.2488 24.3866ZM14.1245 12.5883C14.1245 16.9269 15.5153 19.0389 17.2248 21.6105L15.4352 23.6276C14.4145 22.9588 14.4579 22.6861 13.0909 21.9575L0 33.4087C0.709768 34.7597 5.47767 40.002 6.54545 40.002C7.6441 40.002 11.5708 34.8456 12.4019 33.7557C12.9812 32.9963 13.2206 32.8253 13.8604 32.1018C19.5595 25.657 18.0564 27.0207 16.5358 24.7337L18.3256 22.7164C20.2621 23.9912 22.9783 26.1217 26.5262 26.1217C37.1414 26.1217 42.4898 15.3637 38.8735 7.78534C37.4632 4.83015 36.7026 4.24112 34.7212 2.59884C27.1205 -3.70141 14.1245 2.17248 14.1245 12.5883Z" fill="#00AAFF"/>
<path fill-rule="evenodd" clip-rule="evenodd" d="M20.6698 9.81227C22.5239 8.5617 21.2243 9.46534 22.7367 9.46534C23.2359 9.46534 25.2577 8.44919 25.5605 8.14536C27.1154 6.58511 24.9605 6.06118 27.9042 5.9953C27.9042 7.83567 27.7994 7.66868 28.9294 8.43272C30.9011 9.76609 30.8898 9.75054 32.7273 8.77117C33.0147 9.35528 33.0442 9.38099 33.4163 9.81227C32.4996 11.1909 30.8348 12.3691 32.9306 15.7157C33.4317 16.5158 33.3389 15.2972 33.0717 16.0583C32.5566 18.0017 32.3473 16.0933 29.8616 16.9729C28.4106 17.4864 27.9363 18.4294 27.9042 19.8754H26.1818C26.1465 18.2776 25.4699 17.4359 24.2262 16.9709C21.7716 16.0531 21.5381 18.0343 21.0143 16.0583C20.7501 15.1996 20.5483 16.8598 21.5235 15.2336C23.2712 12.3194 20.9761 10.2729 20.6698 9.81227ZM24.8038 7.03623C23.6173 7.35545 23.8922 7.73024 23.4259 7.73024C22.3271 7.73024 20.2419 5.25651 18.9474 10.8532C22.7717 12.8917 19.4452 14.6799 18.9474 15.3645C19.1844 16.3892 20.2554 18.8345 21.3589 18.8345C22.6706 18.8345 22.1252 17.6158 23.7821 18.4283C24.9249 18.9886 24.8038 19.6734 24.8038 21.2635C28.752 21.5944 24.8232 21.6373 29.2823 21.2635C29.2823 16.4487 32.0277 18.7181 33.4163 18.8345C34.0949 17.8134 35.0106 16.5672 35.1386 15.0174C34.4286 14.6389 34.3222 14.5359 33.4163 14.3234V11.8943C34.1632 11.3907 34.606 11.2388 35.1386 10.5063C34.6614 8.44287 33.9874 8.41378 33.0717 7.03623C31.8853 7.35545 32.1601 7.73024 31.6937 7.73024C30.4423 7.73024 30.4854 7.31867 29.2823 7.03623C29.2823 4.31715 29.6327 4.60714 25.8372 4.60714C24.4992 4.60714 24.8038 5.75658 24.8038 7.03623Z" fill="#00AAFF"/>
<path fill-rule="evenodd" clip-rule="evenodd" d="M1.72254 19.1814C1.72254 19.981 1.96213 20.2225 2.75594 20.2225H12.0573C13.0275 20.2225 12.6953 20.0724 13.0909 19.5285C12.2022 18.3067 11.5529 18.826 7.92343 18.8345C1.96458 18.8487 3.10052 20.9162 3.10052 7.38316H12.0573C13.0989 7.38316 13.0099 6.97482 13.0909 5.9953H1.72254V19.1814Z" fill="#00AAFF"/>
<path fill-rule="evenodd" clip-rule="evenodd" d="M24.8038 12.9354C24.8038 10.2617 29.2823 9.75116 29.2823 13.2825C29.2823 14.1946 27.4316 16.5286 25.483 14.6803C24.9738 14.1973 24.8038 13.9272 24.8038 12.9354ZM23.0813 12.9354C23.0813 17.3361 30.6603 19.0511 30.6603 12.5883C30.6603 7.66159 23.0813 8.44627 23.0813 12.9354Z" fill="#00AAFF"/>
</svg>
