<svg width="67" height="66" viewBox="0 0 67 66" fill="none" xmlns="http://www.w3.org/2000/svg">
<path fill-rule="evenodd" clip-rule="evenodd" d="M16.2228 60.5614C22.6781 60.5614 30.1728 57.9247 30.1792 50.8021L35.7352 50.8558C37.5635 53.4582 36.417 55.7232 40.8479 58.1781C45.5752 60.7973 47.9961 60.0632 50.5155 60.8991L50.9203 63.6376L16.2228 63.6432V60.5614ZM2.08946 2.34345C4.41754 1.57134 58.9599 1.64978 64.7229 2.09406C65.1074 7.01788 65.311 45.9115 64.472 48.41C61.9812 49.236 4.57996 49.236 2.08946 48.41C1.30817 45.933 1.31566 4.64703 2.08946 2.34345ZM0.538657 1.31636C-0.129185 3.30434 -0.288918 48.7763 0.715788 49.775C5.14506 51.8036 22.5346 50.8021 28.6284 50.8021C28.3686 53.702 26.4962 56.0409 23.8321 57.3363C20.7513 58.8343 17.2492 58.4445 14.4951 59.3581L14.1093 65.1829C17.707 66.0345 49.0057 66.3754 52.0663 65.3603C52.6534 63.6121 52.6287 61.1418 52.0663 59.3581C49.0568 58.3599 38.6747 59.0826 37.9327 50.8021C70.5146 50.8021 66.879 52.8738 66.879 39.5019V9.19703C66.88 -3.04032 68.7873 0.465031 32.7637 0.465031C28.0813 0.465031 2.89751 -0.43711 0.538657 1.31636Z" fill="#0A2896"/>
<path fill-rule="evenodd" clip-rule="evenodd" d="M21.3919 13.8197V27.688L33.1511 34.5873C34.9376 33.9665 36.4657 33.5982 36.7659 31.9293C35.2451 30.8466 35.0176 31.661 33.4577 32.7365L22.9499 26.6484L22.9564 14.979L27.5379 12.2125C32.5836 13.6403 33.5345 16.793 35.7323 15.2286C35.1305 13.0753 31.9061 13.1455 30.1792 10.7379L33.4527 8.76297C34.9425 9.79511 37.4642 11.241 39.1347 12.1117C40.1996 12.6663 41.1609 13.1896 42.1081 13.7796C45.6127 15.9622 41.7453 15.1135 44.6968 16.432C47.8466 13.8679 42.6111 12.1854 40.7232 11.0466C38.3881 9.63823 35.6657 8.16633 33.4136 6.71676L21.3919 13.8197Z" fill="#0A2896"/>
<path fill-rule="evenodd" clip-rule="evenodd" d="M40.5171 19.47L50.9185 26.7913L47.8297 28.1589C47.8313 30.0956 48.3983 30.5202 49.2159 32.1349L47.4364 33.2883L45.4015 30.0991C42.7235 30.9555 43.9698 31.6606 41.551 32.3109L40.5171 19.47ZM40.5171 35.3927C43.885 34.5821 42.5035 33.6738 44.6968 32.7805L46.6048 35.4837C48.1722 35.0319 50.3221 33.714 51.4164 32.8687L49.8894 29.3498C51.5173 29.0122 53.0124 28.6062 54.3848 27.5121C53.1518 25.7716 40.74 16.7775 39.0549 16.5201C38.1647 17.8854 39.9836 33.192 40.5171 35.3927Z" fill="#0A2896"/>
<path fill-rule="evenodd" clip-rule="evenodd" d="M6.40186 40.5293H60.6763C60.1559 38.6288 60.3202 38.9886 58.0916 38.9886H6.40186V40.5293Z" fill="#0A2896"/>
<path fill-rule="evenodd" clip-rule="evenodd" d="M26.4722 16.4323C26.4722 16.4323 25.289 16.3012 26.6252 17.7904L32.1138 21.1431L32.5187 28.1674C33.1161 30.8341 32.4205 29.242 33.6646 29.6108C35.0616 27.7002 34.4628 23.0045 34.1816 20.6294L28.6103 16.8845C27.0263 15.9502 27.3223 16.0446 26.4722 16.4323Z" fill="#0A2896"/>
<path fill-rule="evenodd" clip-rule="evenodd" d="M30.1793 44.1248V45.6658C32.4011 45.6658 34.9411 46.0489 36.8989 45.1521C35.5777 43.3168 31.9294 43.9687 30.1793 44.1248Z" fill="#0A2896"/>
</svg>
