<svg width="50" height="41" viewBox="0 0 50 41" fill="none" xmlns="http://www.w3.org/2000/svg">
<circle cx="26" cy="23.002" r="17" fill="#CCEEFF"/>
<path fill-rule="evenodd" clip-rule="evenodd" d="M3.6589 36.002H46.1893C48.1443 36.002 49.7375 33.7763 49.9501 32.0271C50.0659 31.0738 50.0557 30.586 49.0673 30.586H31.4796C30.7546 30.586 30.6264 30.8178 30.3501 31.4552C29.7147 32.9213 30.3864 32.6336 30.84 32.816C31.4251 33.0626 30.459 33.2955 31.3176 32.6244C32.0981 32.0142 31.4075 32.0285 32.7415 31.8493C32.8855 31.83 33.8127 31.8405 34.02 31.8428L48.4276 31.8603C48.292 33.4841 47.2759 34.7275 45.5498 34.7275H4.29858C3.32444 34.7275 2.84262 34.4128 2.26378 33.8874C1.57728 33.2642 1.44735 33.0595 1.42055 31.8603H17.4094C19.2144 31.8603 17.0152 32.7576 19.6479 32.816C19.6165 31.4161 19.4314 31.8237 19.328 30.586H0.141318C-0.63099 33.8892 1.93458 36.002 3.6589 36.002Z" fill="#00AAFF"/>
<path fill-rule="evenodd" clip-rule="evenodd" d="M35.9564 8.60371C35.9564 10.6366 36.0658 18.2376 35.6367 20.0728C33.4012 20.5917 30.0623 20.3913 27.3225 20.3913L25.0841 23.8957C23.8939 23.0271 23.2168 20.8473 21.8102 20.467C20.946 20.2333 16.1163 20.3913 14.8512 20.3913C14.3873 19.7011 13.8918 19.3307 13.8918 18.1611V3.82493C13.8918 2.72653 14.1284 2.59129 14.2117 1.59478C17.3876 0.857716 30.1904 1.27627 34.3575 1.27627C35.7235 1.27627 35.9448 3.0203 35.974 4.4488L35.8537 7.71544C35.8574 8.43399 35.9564 7.41686 35.9564 8.60371ZM12.6127 2.23194V19.4355C12.6127 19.8813 13.2684 20.8573 13.5162 21.084C14.6335 22.1062 19.3103 21.6656 21.5665 21.6656C22.0944 22.451 22.658 23.1608 23.1574 23.9035C23.9416 25.0697 23.7151 25.4887 25.7235 25.4887C25.9577 24.6152 27.4887 22.8455 28.2818 21.6656C39.3069 21.6656 37.2355 24.1358 37.2355 2.55059C37.2355 1.00948 36.2242 0.00195312 34.6773 0.00195312H15.1709C13.3575 0.00195312 12.6127 1.69963 12.6127 2.23194Z" fill="#00AAFF"/>
<path fill-rule="evenodd" clip-rule="evenodd" d="M19.6479 9.55938L22.6164 9.01251C23.8902 8.61529 24.4831 6.9388 24.7642 5.7364L26.691 9.23677C28.4561 9.24073 28.8092 9.52857 30.2005 9.55938C28.1532 12.6053 26.9897 10.0873 28.2818 15.6125C26.4688 15.4623 25.9344 14.3382 25.0841 14.3382C23.1701 14.3382 23.7128 15.4346 21.5665 15.6125C21.6717 14.3526 22.5043 13.1209 21.9564 12.0632C21.5681 11.3137 20.2331 10.4303 19.6479 9.55938ZM22.206 7.96655C21.3726 7.96655 16.903 7.87781 17.4052 9.1934C17.8048 10.2401 19.6208 11.2958 20.2284 12.1889C21.0637 13.4165 19.9676 15.9796 19.9676 17.8426C22.4267 17.7879 23.9153 15.6963 25.0208 15.8154C25.7832 15.8975 29.8806 18.9618 29.8806 17.2055C29.8806 13.1776 27.6946 13.974 30.9214 10.9148C31.7893 10.0921 32.328 9.93032 32.4388 8.60371C31.3071 8.06264 29.2782 8.02152 28.6778 7.89053C27.1116 7.5487 27.208 7.15288 26.4657 5.63409C26.0043 4.69015 25.6452 4.22031 25.4038 3.18777C23.5878 3.33826 24.3199 3.9863 22.206 7.96655Z" fill="#00AAFF"/>
<path fill-rule="evenodd" clip-rule="evenodd" d="M4.93813 7.01074V12.7452C4.93813 14.2883 5.22423 14.9195 5.22423 15.931C5.22423 16.9428 4.93813 17.5739 4.93813 19.117V28.0372C4.93813 28.9186 5.1848 28.8034 5.89739 28.993C6.81636 28.3224 6.56474 28.4462 6.56247 26.7882L6.53694 5.09924C7.86539 4.4642 8.30636 4.62629 9.35043 4.56566C9.69382 4.54588 10.1971 4.47311 10.6941 4.46208C10.5792 3.08573 10.6419 3.18776 8.77542 3.18776C6.14361 3.18776 4.93813 4.38875 4.93813 7.01074Z" fill="#00AAFF"/>
<path fill-rule="evenodd" clip-rule="evenodd" d="M39.1542 4.46209C40.2053 4.46209 42.3187 4.77763 42.9914 5.09925C43.6898 5.79491 43.3445 23.2125 43.2927 26.463C43.2635 28.2934 42.9225 28.6344 44.2707 28.993C45.38 28.1833 44.9102 24.6404 44.9102 21.9843L44.8278 6.94827C44.6719 3.32567 43.269 3.18777 40.1135 3.18777C39.2032 3.18777 39.1542 3.55672 39.1542 4.46209Z" fill="#00AAFF"/>
<path fill-rule="evenodd" clip-rule="evenodd" d="M26.6829 27.0815L41.1683 27.2262C42.0566 27.1314 41.9047 27.2881 42.0322 26.1257C40.7668 25.4176 29.9091 25.8072 27.6421 25.8072C26.732 25.8072 26.6829 26.1762 26.6829 27.0815Z" fill="#00AAFF"/>
<path fill-rule="evenodd" clip-rule="evenodd" d="M7.81618 26.4444C8.10979 27.1694 7.15182 26.9623 8.78622 27.2149L14.8512 27.0815C17.2887 27.0815 21.3359 27.6375 23.1655 26.763C22.6412 25.776 23.5961 25.7477 19.9745 25.8003L11.6521 25.8058C6.09442 25.7709 9.06932 25.9597 7.81618 26.4444Z" fill="#00AAFF"/>
<path fill-rule="evenodd" clip-rule="evenodd" d="M21.2467 31.8603H28.6015V30.586H21.2467V31.8603Z" fill="#00AAFF"/>
</svg>
