<svg xmlns="http://www.w3.org/2000/svg" viewBox="0 0 3224.46 499.23"><defs><style>.cls-1{fill:#fff;}.cls-2,.cls-3,.cls-4,.cls-5{fill:none;stroke:#fff;stroke-linecap:round;stroke-linejoin:round;}.cls-2{stroke-width:3px;}.cls-3{stroke-width:2px;}.cls-4{stroke-width:1.5px;}</style></defs><title>Ресурс 2</title><g id="Шар_2" data-name="Шар 2"><g id="Слой_2" data-name="Слой 2"><path class="cls-1" d="M336.5,246.7l647.57,14.52L391.54,295.7a3,3,0,0,0-.54.08l-349.08,86,294.59-135m-.62-3L11.79,392.24l379.92-93.55,666.87-38.8L335.88,243.69Z"/><polyline class="cls-2" points="726.34 311.73 391.72 298.69 164.89 386.75 336.19 244.69 391.72 298.69 364.67 379.08 349.83 309.05 336.19 244.69"/><path class="cls-2" d="M1738,202.92s-432.29,21.37-679.45,57L716.5,309.27,367.6,379.49,11.79,392.24"/><path class="cls-2" d="M1738,202.92s-605.36,42.64-679.45,57"/><path class="cls-2" d="M1058.59,259.89s-276,43.83-340.45,53.48l-353,66.12"/><polyline class="cls-2" points="726.97 311.83 336.19 244.69 344.18 448.63"/><line class="cls-2" x1="379.03" y1="336.39" x2="349.83" y2="309.05"/><line class="cls-2" x1="384.26" y1="481.5" x2="391.95" y2="299.86"/><path class="cls-2" d="M371.76,378.21C459.81,392.72,1739,205.37,1739,205.37"/><path class="cls-2" d="M1738,202.92s-478.83,123.55-655,143.74S379,382.93,367.6,379.49"/><polyline class="cls-2" points="1533.44 217.86 1585.02 246.56 1622.9 211.23 1557.69 230.45"/><polyline class="cls-2" points="1360.57 231.41 1419.78 283.56 1448.63 224.3 1388.27 254.43"/><path class="cls-2" d="M1215.75,278.65l61.67-40.71-23.66,79.58-.17.56-43.77-37.68-23-34.64s29.26,33.81,66.3,70.86"/><path class="cls-2" d="M1046.24,300.29l63.38-46.37-26.56,92.73-1.2-1.11-44.91-41.46-20.06-37.46s60,64.86,65.6,78.43"/><path class="cls-2" d="M876.57,323.51l59.5-44.79s-12.16,44.79-26.39,81.42l-1.51-.75c-36.21-18.51-60-67.52-60-67.52s27.72,33.09,59.64,64.75"/><polyline class="cls-2" points="674.42 317.85 703.06 342.44 734 369.01 765.8 302.15 703.89 341.97"/><line class="cls-2" x1="367.6" y1="379.49" x2="1016.88" y2="306.8"/><polyline class="cls-2" points="376.24 476.3 354.61 379.95 346.88 451.06"/><line class="cls-2" x1="379.74" y1="378.9" x2="382.26" y2="478.92"/><line class="cls-2" x1="352.21" y1="455.85" x2="361.66" y2="411.37"/><line class="cls-2" x1="363.58" y1="417" x2="380.27" y2="417"/><polyline class="cls-2" points="366.11 431.16 381.06 431.16 513.91 350.77"/><line class="cls-2" x1="369.85" y1="446.54" x2="381.06" y2="446.54"/><line class="cls-2" x1="373.58" y1="460.98" x2="381.81" y2="460.98"/><line class="cls-2" x1="348.83" y1="437.23" x2="356.17" y2="437.23"/><line class="cls-2" x1="350.08" y1="424.79" x2="358.81" y2="424.79"/><line class="cls-2" x1="351.17" y1="414.06" x2="361.09" y2="414.06"/><polyline class="cls-2" points="352.24 403.39 359.87 403.39 379.83 403.39"/><polyline class="cls-2" points="353.31 392.82 357.5 392.82 379.83 392.82"/><line class="cls-2" x1="348.13" y1="444.1" x2="354.45" y2="444.1"/><line class="cls-2" x1="344.18" y1="448.63" x2="375.59" y2="476.88"/><polyline class="cls-2" points="381.06 406.69 513.91 350.77 560.53 375.67 595.54 335.01 533.62 360.14"/><polygon class="cls-2" points="423.87 369.01 430.83 401.04 417.58 390.44 423.87 369.01"/><rect class="cls-2" x="1.5" y="382.69" width="10.29" height="18.35"/><path class="cls-2" d="M1385.79,217.24"/><path class="cls-2" d="M3112,24.08S2679.75,49.3,2432.59,84.89L2090.5,134.27l-348.9,70.22"/><path class="cls-2" d="M3112,27.92s-605.36,42.64-679.45,57"/><path class="cls-2" d="M2432.59,84.89s-276,43.83-340.45,53.48l-353,66.12"/><line class="cls-2" x1="1715.51" y1="205.42" x2="1718.18" y2="273.63"/><line class="cls-2" x1="1758.26" y1="306.5" x2="1762.68" y2="202.13"/><path class="cls-2" d="M1745.76,203.21C1833.81,217.72,3113,30.37,3113,30.37"/><path class="cls-2" d="M3103.26,23.89s-478.26,121.79-655,136c-196.3,15.83-695.25,48-706.67,44.55"/><polyline class="cls-2" points="2907.44 42.86 2943.56 62.95 2996.91 36.23 2931.69 55.45"/><polyline class="cls-2" points="2734.57 56.41 2783.67 99.65 2822.63 49.3 2762.27 79.43"/><path class="cls-2" d="M2589.75,103.65l61.67-40.71-21.76,68.86-9.08,1.75-36.76-28.14-23-34.64s22.68,25.73,59.73,62.78"/><path class="cls-2" d="M2420.24,125.29l63.38-46.37L2454.92,160h0l-44-30.92-20.06-37.46s58.45,54.81,64,68.38"/><path class="cls-2" d="M2250.57,148.51l59.5-44.79s-12.87,32.87-26.84,69.2c-.32.84-1.39.75-2.46.52h0c-36.21-18.51-58.58-56.57-58.58-56.57s26.66,23.33,58.58,55"/><polyline class="cls-2" points="2048.42 142.85 2077.06 167.44 2096.53 182.41 2139.8 127.15 2077.89 166.97"/><line class="cls-2" x1="1739.14" y1="203.19" x2="2390.88" y2="131.8"/><polyline class="cls-2" points="1750.24 301.3 1728.61 204.96 1720.88 276.06"/><line class="cls-2" x1="1753.74" y1="203.9" x2="1756.26" y2="303.92"/><line class="cls-2" x1="1726.21" y1="280.85" x2="1735.66" y2="236.37"/><line class="cls-2" x1="1737.58" y1="242" x2="1754.27" y2="242"/><polyline class="cls-2" points="1740.11 256.16 1755.06 256.16 1887.91 175.77"/><line class="cls-2" x1="1743.85" y1="271.54" x2="1755.06" y2="271.54"/><line class="cls-2" x1="1747.58" y1="285.98" x2="1755.81" y2="285.98"/><line class="cls-2" x1="1722.83" y1="262.23" x2="1730.17" y2="262.23"/><line class="cls-2" x1="1724.08" y1="249.79" x2="1732.81" y2="249.79"/><line class="cls-2" x1="1725.17" y1="239.06" x2="1735.09" y2="239.06"/><polyline class="cls-2" points="1726.24 228.39 1733.87 228.39 1753.83 228.39"/><polyline class="cls-2" points="1727.31 217.82 1731.5 217.82 1753.83 217.82"/><line class="cls-2" x1="1722.13" y1="269.1" x2="1728.45" y2="269.1"/><line class="cls-2" x1="1718.18" y1="273.63" x2="1749.59" y2="301.88"/><polyline class="cls-2" points="1755.06 231.69 1887.91 175.77 1932.74 190.01 1969.55 160.01 1911.92 183.4"/><polygon class="cls-2" points="1797.87 194.01 1804.83 226.04 1791.58 215.44 1797.87 194.01"/><polygon class="cls-2" points="3113.68 23.87 3113.68 35.4 3146.19 27.71 3146.19 19.79 3113.68 23.87"/><line class="cls-2" x1="3119.65" y1="23.29" x2="3119.8" y2="33.57"/><polygon class="cls-2" points="3151.43 1.5 3160.52 1.5 3163.31 15.95 3155.86 15.95 3148.4 15.95 3151.43 1.5"/><line class="cls-2" x1="3155.86" y1="32.49" x2="3155.86" y2="15.95"/><polyline class="cls-2" points="3219.35 147.6 3158.65 32.49 3153.76 32.49 3093.88 130.12"/><line class="cls-2" x1="3155.86" y1="32.49" x2="3129.93" y2="157.88"/><polygon class="cls-2" points="3204.84 120.07 3136.23 127.41 3109.97 103.89 3162.41 96.94 3204.84 120.07"/><polyline class="cls-2" points="3157.4 33.57 3163.31 108.35 3164.13 117.71"/><polygon class="cls-2" points="3189 90.04 3142.9 95.18 3123.47 81.87 3160.68 74.98 3189 90.04"/><polygon class="cls-2" points="3137.26 59.39 3148.4 68.56 3175.25 63.97 3159.19 56.2 3137.26 59.39"/><path class="cls-2" d="M3137.26,122.44"/><line class="cls-2" x1="3090.85" y1="127.41" x2="3096.44" y2="133.15"/><line class="cls-2" x1="3125.33" y1="157.88" x2="3132.32" y2="160.18"/><line class="cls-2" x1="3217.84" y1="149.69" x2="3222.96" y2="147.6"/><line class="cls-2" x1="3160.77" y1="117.71" x2="3166.81" y2="117.71"/><line class="cls-2" x1="3146.19" y1="23.29" x2="3155.86" y2="22.47"/><path class="cls-2" d="M3155.86,117.71"/></g><g id="Слой_3" data-name="Слой 3"><ellipse class="cls-3" cx="340.84" cy="459.68" rx="7.99" ry="10.49"/><ellipse class="cls-4" cx="339.21" cy="459.68" rx="6.35" ry="9.7"/><ellipse class="cls-5" cx="338.81" cy="459.68" rx="2.03" ry="3.64"/><ellipse class="cls-3" cx="376.92" cy="487.74" rx="7.99" ry="10.49"/><ellipse class="cls-4" cx="375.29" cy="487.77" rx="6.35" ry="9.56"/><ellipse class="cls-5" cx="374.89" cy="487.74" rx="2.03" ry="3.64"/><ellipse class="cls-3" cx="1714.84" cy="284.68" rx="7.99" ry="10.49"/><ellipse class="cls-4" cx="1713.21" cy="284.68" rx="6.35" ry="9.7"/><ellipse class="cls-5" cx="1712.81" cy="284.68" rx="2.03" ry="3.64"/><ellipse class="cls-3" cx="1750.92" cy="312.74" rx="7.99" ry="10.49"/><ellipse class="cls-4" cx="1749.29" cy="312.77" rx="6.35" ry="9.56"/><ellipse class="cls-5" cx="1748.89" cy="312.74" rx="2.03" ry="3.64"/></g></g></svg>