<svg width="30" height="30" viewBox="0 0 30 30" fill="none" xmlns="http://www.w3.org/2000/svg">
<g clip-path="url(#clip0_201_112)">
<g clip-path="url(#clip1_201_112)">
<path d="M15 0C6.72365 0 0 6.72353 0 15C0 23.2765 6.72365 30 15 30C23.2764 30 30 23.2765 30 15C30 6.72353 23.2764 0 15 0ZM15 20.2941C12.0882 20.2941 9.70588 17.9117 9.70588 15C9.70588 12.0882 12.0882 9.70588 15 9.70588C17.9118 9.70588 20.2941 12.0882 20.2941 15C20.2941 17.9117 17.9118 20.2941 15 20.2941Z" fill="url(#paint0_linear_201_112)"/>
<path d="M26.4705 15C26.4705 14.2941 26.2587 13.2529 25.3411 12.2118C25.6058 10.8529 25.2883 9.86464 24.9352 9.2647C24.5822 8.66464 23.8941 7.87052 22.5706 7.42935C22.1294 6.10582 21.3354 5.41764 20.7352 5.0647C19.9059 4.58817 18.8999 4.44699 17.7883 4.65887C16.7469 3.74117 15.7058 3.5294 14.9999 3.5294C14.294 3.5294 13.2528 3.74117 12.2115 4.65882C11.1 4.44693 10.0939 4.58817 9.26459 5.06464C8.66441 5.41758 7.87042 6.10576 7.42924 7.42929C6.10571 7.88811 5.41765 8.66458 5.06459 9.26464C4.71153 9.86458 4.394 10.8528 4.65877 12.2117C3.74106 13.2529 3.5293 14.2941 3.5293 15C3.5293 15.7058 3.74106 16.7471 4.65871 17.7882C4.394 19.147 4.71153 20.1352 5.06459 20.7353C5.41765 21.3352 6.10571 22.1293 7.42924 22.5705C7.87042 23.8941 8.66447 24.5823 9.26459 24.9353C10.0939 25.4117 11.0999 25.5706 12.2115 25.3411C13.2528 26.2588 14.2939 26.4706 14.9999 26.4706C15.7058 26.4706 16.7469 26.2588 17.7882 25.3412C18.8998 25.5706 19.9058 25.4117 20.7352 24.9353C21.3354 24.5824 22.1294 23.8941 22.5705 22.5706C23.8941 22.1118 24.5821 21.3353 24.9352 20.7353C25.2882 20.1353 25.6058 19.1471 25.341 17.7882C26.2587 16.7471 26.4705 15.7058 26.4705 15ZM11.4175 8.0117L13.3942 7.88817C13.9235 7.87052 14.294 8.22346 14.3293 8.71764C14.3469 9.19405 13.9762 9.61764 13.4999 9.65287C13.3371 9.66276 11.6153 9.76758 11.4705 9.7764C11.0117 9.7764 10.6235 9.40576 10.5881 8.94705C10.5528 8.45288 10.9233 8.0294 11.4175 8.0117ZM11.4688 9.77652C11.4575 9.77723 11.4584 9.77717 11.4688 9.77652V9.77652ZM8.73506 15.3882C8.53965 15.7792 8.07 16.0157 7.55283 15.7941C7.11165 15.5647 6.935 15.0352 7.147 14.6116L8.02936 12.8469C8.25853 12.4058 8.78806 12.2293 9.21159 12.4411C9.65277 12.6705 9.82941 13.1999 9.61741 13.6235L8.73506 15.3882ZM11.9647 21.8471C11.6056 22.0861 11.0195 22.0357 10.7294 21.6L9.65277 19.9588C9.37059 19.5529 9.494 19.0058 9.89989 18.7235C10.3059 18.4588 10.8529 18.5646 11.1177 18.9883L12.2115 20.6295C12.4765 21.0353 12.3705 21.5823 11.9647 21.8471ZM10.5881 15C10.5881 12.5647 12.5646 10.5882 14.9999 10.5882C17.4352 10.5882 19.4117 12.5647 19.4117 15C19.4117 17.4353 17.4352 19.4118 14.9999 19.4118C12.5646 19.4118 10.5881 17.4353 10.5881 15ZM16.5511 22.1118C16.5399 22.1125 16.5407 22.1125 16.5511 22.1118V22.1118ZM18.5823 21.9882C18.4195 21.9981 16.6977 22.1029 16.5529 22.1117C16.0941 22.1117 15.7059 21.7588 15.6705 21.2823C15.6529 20.8058 16.0236 20.3823 16.4999 20.347L18.4764 20.2235C19.0058 20.2059 19.3764 20.5764 19.4117 21.0529C19.4469 21.547 19.0765 21.9706 18.5823 21.9882ZM20.0999 11.2765C19.6671 11.5471 19.122 11.4111 18.8822 11.0117L17.7883 9.37052C17.5234 8.96458 17.6293 8.41752 18.0352 8.15287C18.441 7.88811 18.9882 7.99399 19.2704 8.39993L20.3471 10.0411C20.6292 10.4471 20.5058 10.9941 20.0999 11.2765ZM22.8527 15.3882L21.9704 17.1529C21.7749 17.5439 21.3053 17.7804 20.7881 17.5588C20.3469 17.3294 20.1703 16.7999 20.3823 16.3763L21.2647 14.6116C21.4938 14.1705 22.0234 13.9941 22.4469 14.2058C22.8881 14.4353 23.0647 14.9646 22.8527 15.3882Z" fill="url(#paint1_linear_201_112)"/>
</g>
</g>
<defs>
<linearGradient id="paint0_linear_201_112" x1="15" y1="30" x2="15" y2="0" gradientUnits="userSpaceOnUse">
<stop stop-color="#A93AFF"/>
<stop offset="1" stop-color="#FF81FF"/>
</linearGradient>
<linearGradient id="paint1_linear_201_112" x1="3.5293" y1="15" x2="26.4705" y2="15" gradientUnits="userSpaceOnUse">
<stop stop-color="#FFBEF9"/>
<stop offset="1" stop-color="#FFF1FF"/>
</linearGradient>
<clipPath id="clip0_201_112">
<rect width="30" height="30" fill="white"/>
</clipPath>
<clipPath id="clip1_201_112">
<rect width="30" height="30" fill="white"/>
</clipPath>
</defs>
</svg>
