<svg width="30" height="30" viewBox="0 0 30 30" fill="none" xmlns="http://www.w3.org/2000/svg">
<g clip-path="url(#clip0_201_512)">
<g clip-path="url(#clip1_201_512)">
<path d="M29.2443 17.8199L17.077 16.0818C16.8074 16.0423 16.5277 16.1359 16.332 16.3307C16.1362 16.5264 16.0436 16.8028 16.083 17.0766L17.822 29.2448C17.8921 29.7291 18.342 30.0598 18.8159 29.9906C20.9909 29.6808 23.0869 28.8044 24.8739 27.4543C25.255 27.1659 25.3356 26.6252 25.0558 26.2373C24.4883 25.4541 25.3387 24.399 26.2403 25.0545C26.6282 25.3343 27.1672 25.2536 27.4573 24.8717C28.8066 23.0821 29.6838 20.987 29.991 18.8137C30.0597 18.3332 29.725 17.8885 29.2443 17.8199ZM13.7675 14.6961C13.6789 14.0774 14.2093 13.5469 14.8281 13.6353L25.2703 15.127C25.6143 15.1714 26.2176 14.8172 26.2866 14.1829C26.3278 13.8095 26.3672 13.4345 26.3672 13.0499C26.3672 6.52768 21.4954 0.922079 15.0376 0.0105361C14.7938 -0.0289561 14.5535 0.0422939 14.3647 0.195048C14.1758 0.346103 14.0574 0.569286 14.0385 0.811337C14.0007 1.27481 13.6334 1.62415 13.1837 1.62415C12.7339 1.62415 12.3666 1.27481 12.3288 0.811337C12.3099 0.569286 12.1914 0.346161 12.0026 0.195048C11.8138 0.0431143 11.57 -0.0281358 11.3297 0.0105361C4.87178 0.922079 0 6.52768 0 13.0499C0 20.3198 5.91375 26.2335 13.1836 26.2335C13.5732 26.2335 13.9509 26.1932 14.4865 26.1331C14.9705 26.0805 15.3304 25.639 15.2607 25.1349L13.7675 14.6961Z" fill="url(#paint0_linear_201_512)"/>
<path d="M22.2268 19.589C21.7414 19.589 21.3479 19.9825 21.3479 20.4679C21.3479 20.9533 21.7414 21.3468 22.2268 21.3468C22.7122 21.3468 23.1057 20.9533 23.1057 20.4679C23.1057 19.9825 22.7122 19.589 22.2268 19.589ZM9.66797 19.2024C9.18258 19.2024 8.78906 19.5959 8.78906 20.0813C8.78906 20.5667 9.18258 20.9602 9.66797 20.9602C10.1534 20.9602 10.5469 20.5667 10.5469 20.0813C10.5469 19.5959 10.1534 19.2024 9.66797 19.2024ZM14.9414 5.13988C14.456 5.13988 14.0625 5.5334 14.0625 6.01879C14.0625 6.50418 14.456 6.8977 14.9414 6.8977C15.4268 6.8977 15.8203 6.50418 15.8203 6.01879C15.8203 5.5334 15.4268 5.13988 14.9414 5.13988ZM18.457 8.65551C17.9716 8.65551 17.5781 9.04903 17.5781 9.53442C17.5781 10.0198 17.9716 10.4133 18.457 10.4133C18.9424 10.4133 19.3359 10.0198 19.3359 9.53442C19.3359 9.04903 18.9424 8.65551 18.457 8.65551ZM6.15234 13.9289C5.66695 13.9289 5.27344 14.3225 5.27344 14.8079C5.27344 15.2932 5.66695 15.6868 6.15234 15.6868C6.63773 15.6868 7.03125 15.2932 7.03125 14.8079C7.03125 14.3225 6.63773 13.9289 6.15234 13.9289ZM7.91016 6.8977C6.45621 6.8977 5.27344 8.08047 5.27344 9.53442C5.27344 10.9884 6.45621 12.1711 7.91016 12.1711C9.3641 12.1711 10.5469 10.9884 10.5469 9.53442C10.5469 8.08047 9.3641 6.8977 7.91016 6.8977Z" fill="url(#paint1_linear_201_512)"/>
</g>
</g>
<defs>
<linearGradient id="paint0_linear_201_512" x1="15" y1="29.9998" x2="15" y2="-0.000187635" gradientUnits="userSpaceOnUse">
<stop stop-color="#FD5900"/>
<stop offset="1" stop-color="#FFDE00"/>
</linearGradient>
<linearGradient id="paint1_linear_201_512" x1="14.1896" y1="21.3468" x2="14.1896" y2="5.13988" gradientUnits="userSpaceOnUse">
<stop stop-color="#FFE59A"/>
<stop offset="1" stop-color="#FFFFD5"/>
</linearGradient>
<clipPath id="clip0_201_512">
<rect width="30" height="30" fill="white"/>
</clipPath>
<clipPath id="clip1_201_512">
<rect width="30" height="30" fill="white"/>
</clipPath>
</defs>
</svg>
