<svg  version="1.1" xmlns="http://www.w3.org/2000/svg"  viewBox="0 0 550 470" width="100%" height="100%">
    <g fill="#ffffff" fill-rule="none" stroke="none" stroke-width="1" stroke-linecap="butt" stroke-linejoin="miter"
       stroke-miterlimit="10" stroke-dasharray="" stroke-dashoffset="0" font-family="none" font-weight="none"
       font-size="none" text-anchor="none" style="mix-blend-mode: normal">
        <g data-paper-data="{&quot;isGlobalGroup&quot;:true,&quot;bounds&quot;:{&quot;x&quot;:150.50499002025782,&quot;y&quot;:114.99999999999999,&quot;width&quot;:248.99001995948436,&quot;height&quot;:240}}">
            <g data-paper-data="{&quot;isSecondaryText&quot;:true}" fill-rule="nonzero">
                <path d="M165.83928,354.23766c-0.0693,0.0462 -0.16604,0.10107 -0.29021,0.1646c-0.12417,0.06353 -0.27144,0.12273 -0.44181,0.17759c-0.17037,0.05487 -0.3624,0.10107 -0.57609,0.13861c-0.21369,0.03754 -0.44181,0.05631 -0.68438,0.05631c-0.49668,0 -0.94138,-0.08519 -1.3341,-0.25556c-0.39272,-0.17037 -0.7248,-0.39994 -0.99625,-0.68871c-0.27144,-0.28877 -0.47935,-0.62662 -0.62374,-1.01357c-0.14438,-0.38695 -0.21658,-0.79411 -0.21658,-1.22148c0,-0.47358 0.08663,-0.91106 0.25989,-1.31245c0.17326,-0.40139 0.40861,-0.74791 0.70603,-1.03956c0.29743,-0.29165 0.64395,-0.51834 1.03956,-0.68005c0.39561,-0.16171 0.81865,-0.24256 1.26913,-0.24256c0.17326,0 0.34796,0.01299 0.52411,0.03898c0.17615,0.02599 0.34219,0.0592 0.49812,0.09962c0.15593,0.04043 0.2931,0.08663 0.41149,0.13861c0.11839,0.05198 0.20358,0.10684 0.25556,0.1646c-0.05198,0.08085 -0.09241,0.14727 -0.12128,0.19925c-0.02888,0.05198 -0.0592,0.1054 -0.09096,0.16027c-0.03176,0.05487 -0.06642,0.11695 -0.10396,0.18625c-0.03754,0.0693 -0.09096,0.1646 -0.16027,0.28588c-0.0693,-0.0462 -0.15305,-0.08663 -0.25123,-0.12128c-0.09818,-0.03465 -0.20069,-0.06208 -0.30754,-0.0823c-0.10684,-0.02021 -0.21513,-0.0361 -0.32486,-0.04765c-0.10973,-0.01155 -0.20791,-0.01733 -0.29454,-0.01733c-0.32342,0 -0.62229,0.06064 -0.89662,0.18192c-0.27433,0.12128 -0.51112,0.28155 -0.71037,0.4808c-0.19925,0.19925 -0.35518,0.43171 -0.4678,0.69737c-0.11262,0.26567 -0.16893,0.53999 -0.16893,0.82299c0,0.27722 0.05342,0.54721 0.16027,0.80999c0.10684,0.26278 0.257,0.49524 0.45048,0.69737c0.19347,0.20214 0.42304,0.36529 0.68871,0.48946c0.26567,0.12417 0.56021,0.18625 0.88363,0.18625c0.18481,0 0.36385,-0.01877 0.53711,-0.05631c0.17326,-0.03754 0.32631,-0.07941 0.45914,-0.12561c0.13283,-0.0462 0.24112,-0.09241 0.32486,-0.13861c0.08374,-0.0462 0.1285,-0.07797 0.13428,-0.09529z"
                      data-paper-data="{&quot;glyphName&quot;:&quot;C&quot;,&quot;glyphIndex&quot;:0,&quot;firstGlyphOfWord&quot;:true,&quot;word&quot;:1}"></path>
                <path d="M170.27313,351.56079c0,-0.43893 0.08519,-0.85475 0.25556,-1.24747c0.17037,-0.39272 0.40139,-0.73636 0.69304,-1.0309c0.29165,-0.29454 0.6324,-0.52844 1.02223,-0.7017c0.38984,-0.17326 0.8071,-0.25989 1.2518,-0.25989c0.43893,0 0.85475,0.08663 1.24747,0.25989c0.39272,0.17326 0.73636,0.40716 1.0309,0.7017c0.29454,0.29454 0.527,0.63817 0.69737,1.0309c0.17037,0.39272 0.25556,0.80855 0.25556,1.24747c0,0.4447 -0.08519,0.86197 -0.25556,1.2518c-0.17037,0.38984 -0.40283,0.73058 -0.69737,1.02223c-0.29454,0.29165 -0.63817,0.52122 -1.0309,0.68871c-0.39272,0.16748 -0.80855,0.25123 -1.24747,0.25123c-0.4447,0 -0.86197,-0.08374 -1.2518,-0.25123c-0.38984,-0.16748 -0.73058,-0.39705 -1.02223,-0.68871c-0.29165,-0.29165 -0.52267,-0.6324 -0.69304,-1.02223c-0.17037,-0.38984 -0.25556,-0.8071 -0.25556,-1.2518zM171.33868,351.56079c0,0.30609 0.05631,0.59342 0.16893,0.86197c0.11262,0.26855 0.26855,0.50245 0.4678,0.7017c0.19925,0.19925 0.43026,0.35663 0.69304,0.47213c0.26278,0.11551 0.54721,0.17326 0.85331,0.17326c0.29454,0 0.5732,-0.05775 0.83598,-0.17326c0.26278,-0.11551 0.4909,-0.27288 0.68438,-0.47213c0.19347,-0.19925 0.34652,-0.43315 0.45914,-0.7017c0.11262,-0.26855 0.16893,-0.55588 0.16893,-0.86197c0,-0.30609 -0.05775,-0.59342 -0.17326,-0.86197c-0.11551,-0.26855 -0.27144,-0.5039 -0.4678,-0.70603c-0.19636,-0.20214 -0.42593,-0.36096 -0.68871,-0.47647c-0.26278,-0.11551 -0.54433,-0.17326 -0.84464,-0.17326c-0.30032,0 -0.58187,0.05775 -0.84464,0.17326c-0.26278,0.11551 -0.4909,0.27433 -0.68438,0.47647c-0.19347,0.20214 -0.34652,0.43748 -0.45914,0.70603c-0.11262,0.26855 -0.16893,0.55588 -0.16893,0.86197z"
                      data-paper-data="{&quot;glyphName&quot;:&quot;O&quot;,&quot;glyphIndex&quot;:1,&quot;word&quot;:1}"></path>
                <path d="M182.45251,348.11291c0.02888,0.04043 0.09241,0.13139 0.19059,0.27288c0.09818,0.1415 0.22091,0.31476 0.36818,0.51978c0.14727,0.20502 0.31187,0.43171 0.49379,0.68005c0.18192,0.24834 0.36673,0.50101 0.55443,0.75801c0.1877,0.257 0.37107,0.50823 0.5501,0.75368c0.17904,0.24545 0.34074,0.46925 0.48513,0.67138c0.14438,0.20214 0.26711,0.37107 0.36818,0.50679c0.10107,0.13572 0.16315,0.22091 0.18625,0.25556c0.01155,-0.01733 0.06353,-0.09096 0.15593,-0.22091c0.09241,-0.12995 0.20936,-0.2931 0.35085,-0.48946c0.1415,-0.19636 0.30176,-0.42016 0.4808,-0.67138c0.17904,-0.25123 0.36385,-0.50679 0.55443,-0.76668c0.19059,-0.25989 0.37684,-0.51689 0.55876,-0.77101c0.18192,-0.25411 0.34941,-0.48513 0.50245,-0.69304c0.15305,-0.20791 0.28155,-0.38406 0.3855,-0.52844c0.10396,-0.14438 0.17037,-0.23679 0.19925,-0.27722v6.59255h-1.13485v-3.22264c0,-0.0462 0.00578,-0.09529 0.01733,-0.14727c0.01155,-0.05198 0.01733,-0.08374 0.01733,-0.09529l-2.08778,3.00606c-0.02888,-0.03465 -0.09962,-0.12995 -0.21224,-0.28588c-0.11262,-0.15593 -0.2469,-0.34074 -0.40283,-0.55443c-0.15593,-0.21369 -0.32053,-0.44326 -0.49379,-0.68871c-0.17326,-0.24545 -0.33641,-0.47358 -0.48946,-0.68438c-0.15305,-0.2108 -0.28299,-0.38984 -0.38984,-0.53711c-0.10684,-0.14727 -0.16604,-0.23246 -0.17759,-0.25556c0,0.01155 0.00578,0.04332 0.01733,0.09529c0.01155,0.05198 0.01733,0.10107 0.01733,0.14727v3.22264h-1.06555z"
                      data-paper-data="{&quot;glyphName&quot;:&quot;M&quot;,&quot;glyphIndex&quot;:2,&quot;word&quot;:1}"></path>
                <path d="M194.70091,354.70546v-6.31533h3.83771v0.97892h-2.78082v1.76725h2.41698v0.98758h-2.41698v2.58158z"
                      data-paper-data="{&quot;glyphName&quot;:&quot;F&quot;,&quot;glyphIndex&quot;:3,&quot;word&quot;:1}"></path>
                <path d="M203.27743,351.56079c0,-0.43893 0.08519,-0.85475 0.25556,-1.24747c0.17037,-0.39272 0.40139,-0.73636 0.69304,-1.0309c0.29165,-0.29454 0.6324,-0.52844 1.02223,-0.7017c0.38984,-0.17326 0.8071,-0.25989 1.2518,-0.25989c0.43893,0 0.85475,0.08663 1.24747,0.25989c0.39272,0.17326 0.73636,0.40716 1.0309,0.7017c0.29454,0.29454 0.527,0.63817 0.69737,1.0309c0.17037,0.39272 0.25556,0.80855 0.25556,1.24747c0,0.4447 -0.08519,0.86197 -0.25556,1.2518c-0.17037,0.38984 -0.40283,0.73058 -0.69737,1.02223c-0.29454,0.29165 -0.63817,0.52122 -1.0309,0.68871c-0.39272,0.16748 -0.80855,0.25123 -1.24747,0.25123c-0.4447,0 -0.86197,-0.08374 -1.2518,-0.25123c-0.38984,-0.16748 -0.73058,-0.39705 -1.02223,-0.68871c-0.29165,-0.29165 -0.52267,-0.6324 -0.69304,-1.02223c-0.17037,-0.38984 -0.25556,-0.8071 -0.25556,-1.2518zM204.34297,351.56079c0,0.30609 0.05631,0.59342 0.16893,0.86197c0.11262,0.26855 0.26855,0.50245 0.4678,0.7017c0.19925,0.19925 0.43026,0.35663 0.69304,0.47213c0.26278,0.11551 0.54721,0.17326 0.85331,0.17326c0.29454,0 0.5732,-0.05775 0.83598,-0.17326c0.26278,-0.11551 0.4909,-0.27288 0.68438,-0.47213c0.19347,-0.19925 0.34652,-0.43315 0.45914,-0.7017c0.11262,-0.26855 0.16893,-0.55588 0.16893,-0.86197c0,-0.30609 -0.05775,-0.59342 -0.17326,-0.86197c-0.11551,-0.26855 -0.27144,-0.5039 -0.4678,-0.70603c-0.19636,-0.20214 -0.42593,-0.36096 -0.68871,-0.47647c-0.26278,-0.11551 -0.54433,-0.17326 -0.84464,-0.17326c-0.30032,0 -0.58187,0.05775 -0.84464,0.17326c-0.26278,0.11551 -0.4909,0.27433 -0.68438,0.47647c-0.19347,0.20214 -0.34652,0.43748 -0.45914,0.70603c-0.11262,0.26855 -0.16893,0.55588 -0.16893,0.86197z"
                      data-paper-data="{&quot;glyphName&quot;:&quot;O&quot;,&quot;glyphIndex&quot;:4,&quot;word&quot;:1}"></path>
                <path d="M215.19547,354.70546v-6.31533h1.78458c0.34652,0 0.66272,0.0462 0.9486,0.13861c0.28588,0.09241 0.52844,0.22524 0.72769,0.3985c0.19925,0.17326 0.35374,0.38695 0.46347,0.64106c0.10973,0.25411 0.1646,0.53999 0.1646,0.85764c0,0.17326 -0.01733,0.34652 -0.05198,0.51978c-0.03465,0.17326 -0.08952,0.34074 -0.1646,0.50245c-0.07508,0.16171 -0.17326,0.31042 -0.29454,0.44614c-0.12128,0.13572 -0.26567,0.25267 -0.43315,0.35085c0.12706,0.20214 0.25123,0.39994 0.37251,0.59342c0.12128,0.19347 0.24401,0.38839 0.36818,0.58475c0.12417,0.19636 0.25267,0.3985 0.3855,0.60641c0.13283,0.20791 0.27722,0.43315 0.43315,0.67571h-1.27346c-0.25989,-0.40427 -0.50534,-0.78689 -0.73636,-1.14785c-0.23101,-0.36096 -0.45336,-0.70315 -0.66705,-1.02657h-0.08663h-0.88363v2.17441zM216.25235,351.5348h0.84897c0.21946,0 0.40139,-0.03754 0.54577,-0.11262c0.14438,-0.07508 0.25989,-0.16604 0.34652,-0.27288c0.08663,-0.10684 0.14727,-0.22235 0.18192,-0.34652c0.03465,-0.12417 0.05198,-0.23823 0.05198,-0.34219c0,-0.09818 -0.01588,-0.20936 -0.04765,-0.33353c-0.03176,-0.12417 -0.08952,-0.24112 -0.17326,-0.35085c-0.08374,-0.10973 -0.19781,-0.20214 -0.34219,-0.27722c-0.14438,-0.07508 -0.32919,-0.11262 -0.55443,-0.11262h-0.85764z"
                      data-paper-data="{&quot;glyphName&quot;:&quot;R&quot;,&quot;glyphIndex&quot;:5,&quot;word&quot;:1}"></path>
                <path d="M228.18945,348.39013v1.01357h-1.55934v5.30176h-1.06555v-5.30176h-1.52469v-1.01357z"
                      data-paper-data="{&quot;glyphName&quot;:&quot;T&quot;,&quot;glyphIndex&quot;:6,&quot;lastGlyphOfWord&quot;:true,&quot;word&quot;:1}"></path>
                <path d="M242.70167,354.23766c-0.0693,0.0462 -0.16604,0.10107 -0.29021,0.1646c-0.12417,0.06353 -0.27144,0.12273 -0.44181,0.17759c-0.17037,0.05487 -0.3624,0.10107 -0.57609,0.13861c-0.21369,0.03754 -0.44181,0.05631 -0.68438,0.05631c-0.49668,0 -0.94138,-0.08519 -1.3341,-0.25556c-0.39272,-0.17037 -0.7248,-0.39994 -0.99625,-0.68871c-0.27144,-0.28877 -0.47935,-0.62662 -0.62374,-1.01357c-0.14438,-0.38695 -0.21658,-0.79411 -0.21658,-1.22148c0,-0.47358 0.08663,-0.91106 0.25989,-1.31245c0.17326,-0.40139 0.40861,-0.74791 0.70603,-1.03956c0.29743,-0.29165 0.64395,-0.51834 1.03956,-0.68005c0.39561,-0.16171 0.81865,-0.24256 1.26913,-0.24256c0.17326,0 0.34796,0.01299 0.52411,0.03898c0.17615,0.02599 0.34219,0.0592 0.49812,0.09962c0.15593,0.04043 0.2931,0.08663 0.41149,0.13861c0.11839,0.05198 0.20358,0.10684 0.25556,0.1646c-0.05198,0.08085 -0.09241,0.14727 -0.12128,0.19925c-0.02888,0.05198 -0.0592,0.1054 -0.09096,0.16027c-0.03176,0.05487 -0.06642,0.11695 -0.10396,0.18625c-0.03754,0.0693 -0.09096,0.1646 -0.16027,0.28588c-0.0693,-0.0462 -0.15305,-0.08663 -0.25123,-0.12128c-0.09818,-0.03465 -0.20069,-0.06208 -0.30754,-0.0823c-0.10684,-0.02021 -0.21513,-0.0361 -0.32486,-0.04765c-0.10973,-0.01155 -0.20791,-0.01733 -0.29454,-0.01733c-0.32342,0 -0.62229,0.06064 -0.89662,0.18192c-0.27433,0.12128 -0.51112,0.28155 -0.71037,0.4808c-0.19925,0.19925 -0.35518,0.43171 -0.4678,0.69737c-0.11262,0.26567 -0.16893,0.53999 -0.16893,0.82299c0,0.27722 0.05342,0.54721 0.16027,0.80999c0.10684,0.26278 0.257,0.49524 0.45048,0.69737c0.19347,0.20214 0.42304,0.36529 0.68871,0.48946c0.26567,0.12417 0.56021,0.18625 0.88363,0.18625c0.18481,0 0.36385,-0.01877 0.53711,-0.05631c0.17326,-0.03754 0.32631,-0.07941 0.45914,-0.12561c0.13283,-0.0462 0.24112,-0.09241 0.32486,-0.13861c0.08374,-0.0462 0.1285,-0.07797 0.13428,-0.09529z"
                      data-paper-data="{&quot;glyphName&quot;:&quot;C&quot;,&quot;glyphIndex&quot;:7,&quot;firstGlyphOfWord&quot;:true,&quot;word&quot;:2}"></path>
                <path d="M251.43858,354.70546c-0.01733,-0.04043 -0.04765,-0.11262 -0.09096,-0.21658c-0.04332,-0.10396 -0.09674,-0.23101 -0.16027,-0.38117c-0.06353,-0.15016 -0.13283,-0.3162 -0.20791,-0.49812c-0.07508,-0.18192 -0.15305,-0.37107 -0.2339,-0.56743h-2.17441l-0.69304,1.6633h-1.04822c0.0231,-0.05198 0.07797,-0.18048 0.1646,-0.3855c0.08663,-0.20502 0.19492,-0.45914 0.32486,-0.76234c0.12995,-0.30321 0.27433,-0.64106 0.43315,-1.01357c0.15882,-0.37251 0.32198,-0.75224 0.48946,-1.13919c0.16748,-0.38695 0.33064,-0.76668 0.48946,-1.13919c0.15882,-0.37251 0.30321,-0.71037 0.43315,-1.01357c0.12995,-0.30321 0.23823,-0.55732 0.32486,-0.76234c0.08663,-0.20502 0.1415,-0.33353 0.1646,-0.3855c0.0231,0.05198 0.07941,0.18048 0.16893,0.3855c0.08952,0.20502 0.19925,0.45914 0.32919,0.76234c0.12995,0.30321 0.27433,0.64106 0.43315,1.01357c0.15882,0.37251 0.32198,0.75224 0.48946,1.13919c0.16748,0.38695 0.33064,0.76668 0.48946,1.13919c0.15882,0.37251 0.30321,0.71037 0.43315,1.01357c0.12995,0.30321 0.23823,0.55732 0.32486,0.76234c0.08663,0.20502 0.1415,0.33353 0.1646,0.3855zM248.93497,352.14987h1.43806l-0.62374,-1.50736c-0.00578,-0.00578 -0.02021,-0.04476 -0.04332,-0.11695c-0.0231,-0.07219 -0.04043,-0.13716 -0.05198,-0.19492c-0.01155,0.05775 -0.02888,0.12273 -0.05198,0.19492c-0.0231,0.07219 -0.03465,0.11118 -0.03465,0.11695z"
                      data-paper-data="{&quot;glyphName&quot;:&quot;A&quot;,&quot;glyphIndex&quot;:8,&quot;word&quot;:2}"></path>
                <path d="M257.32784,354.70546v-6.31533h1.05689v5.31042h3.0667v1.00491z"
                      data-paper-data="{&quot;glyphName&quot;:&quot;L&quot;,&quot;glyphIndex&quot;:9,&quot;word&quot;:2}"></path>
                <path d="M266.22439,354.70546v-6.31533h1.05689v5.31042h3.0667v1.00491z"
                      data-paper-data="{&quot;glyphName&quot;:&quot;L&quot;,&quot;glyphIndex&quot;:10,&quot;lastGlyphOfWord&quot;:true,&quot;word&quot;:2}"></path>
                <path d="M279.66862,354.70546v-6.31533h3.83771v0.97892h-2.78082v1.76725h2.41698v0.98758h-2.41698v2.58158z"
                      data-paper-data="{&quot;glyphName&quot;:&quot;F&quot;,&quot;glyphIndex&quot;:11,&quot;firstGlyphOfWord&quot;:true,&quot;word&quot;:3}"></path>
                <path d="M288.24514,351.56079c0,-0.43893 0.08519,-0.85475 0.25556,-1.24747c0.17037,-0.39272 0.40139,-0.73636 0.69304,-1.0309c0.29165,-0.29454 0.6324,-0.52844 1.02223,-0.7017c0.38984,-0.17326 0.8071,-0.25989 1.2518,-0.25989c0.43893,0 0.85475,0.08663 1.24747,0.25989c0.39272,0.17326 0.73636,0.40716 1.0309,0.7017c0.29454,0.29454 0.527,0.63817 0.69737,1.0309c0.17037,0.39272 0.25556,0.80855 0.25556,1.24747c0,0.4447 -0.08519,0.86197 -0.25556,1.2518c-0.17037,0.38984 -0.40283,0.73058 -0.69737,1.02223c-0.29454,0.29165 -0.63817,0.52122 -1.0309,0.68871c-0.39272,0.16748 -0.80855,0.25123 -1.24747,0.25123c-0.4447,0 -0.86197,-0.08374 -1.2518,-0.25123c-0.38984,-0.16748 -0.73058,-0.39705 -1.02223,-0.68871c-0.29165,-0.29165 -0.52267,-0.6324 -0.69304,-1.02223c-0.17037,-0.38984 -0.25556,-0.8071 -0.25556,-1.2518zM289.31068,351.56079c0,0.30609 0.05631,0.59342 0.16893,0.86197c0.11262,0.26855 0.26855,0.50245 0.4678,0.7017c0.19925,0.19925 0.43026,0.35663 0.69304,0.47213c0.26278,0.11551 0.54721,0.17326 0.85331,0.17326c0.29454,0 0.5732,-0.05775 0.83598,-0.17326c0.26278,-0.11551 0.4909,-0.27288 0.68438,-0.47213c0.19347,-0.19925 0.34652,-0.43315 0.45914,-0.7017c0.11262,-0.26855 0.16893,-0.55588 0.16893,-0.86197c0,-0.30609 -0.05775,-0.59342 -0.17326,-0.86197c-0.11551,-0.26855 -0.27144,-0.5039 -0.4678,-0.70603c-0.19636,-0.20214 -0.42593,-0.36096 -0.68871,-0.47647c-0.26278,-0.11551 -0.54433,-0.17326 -0.84464,-0.17326c-0.30032,0 -0.58187,0.05775 -0.84464,0.17326c-0.26278,0.11551 -0.4909,0.27433 -0.68438,0.47647c-0.19347,0.20214 -0.34652,0.43748 -0.45914,0.70603c-0.11262,0.26855 -0.16893,0.55588 -0.16893,0.86197z"
                      data-paper-data="{&quot;glyphName&quot;:&quot;O&quot;,&quot;glyphIndex&quot;:12,&quot;word&quot;:3}"></path>
                <path d="M300.16318,354.70546v-6.31533h1.78458c0.34652,0 0.66272,0.0462 0.9486,0.13861c0.28588,0.09241 0.52844,0.22524 0.72769,0.3985c0.19925,0.17326 0.35374,0.38695 0.46347,0.64106c0.10973,0.25411 0.1646,0.53999 0.1646,0.85764c0,0.17326 -0.01733,0.34652 -0.05198,0.51978c-0.03465,0.17326 -0.08952,0.34074 -0.1646,0.50245c-0.07508,0.16171 -0.17326,0.31042 -0.29454,0.44614c-0.12128,0.13572 -0.26567,0.25267 -0.43315,0.35085c0.12706,0.20214 0.25123,0.39994 0.37251,0.59342c0.12128,0.19347 0.24401,0.38839 0.36818,0.58475c0.12417,0.19636 0.25267,0.3985 0.3855,0.60641c0.13283,0.20791 0.27722,0.43315 0.43315,0.67571h-1.27346c-0.25989,-0.40427 -0.50534,-0.78689 -0.73636,-1.14785c-0.23101,-0.36096 -0.45336,-0.70315 -0.66705,-1.02657h-0.08663h-0.88363v2.17441zM301.22006,351.5348h0.84897c0.21946,0 0.40139,-0.03754 0.54577,-0.11262c0.14438,-0.07508 0.25989,-0.16604 0.34652,-0.27288c0.08663,-0.10684 0.14727,-0.22235 0.18192,-0.34652c0.03465,-0.12417 0.05198,-0.23823 0.05198,-0.34219c0,-0.09818 -0.01588,-0.20936 -0.04765,-0.33353c-0.03176,-0.12417 -0.08952,-0.24112 -0.17326,-0.35085c-0.08374,-0.10973 -0.19781,-0.20214 -0.34219,-0.27722c-0.14438,-0.07508 -0.32919,-0.11262 -0.55443,-0.11262h-0.85764z"
                      data-paper-data="{&quot;glyphName&quot;:&quot;R&quot;,&quot;glyphIndex&quot;:13,&quot;lastGlyphOfWord&quot;:true,&quot;word&quot;:3}"></path>
                <path d="M314.64746,354.70546v-6.31533h4.19289v0.96159h-3.13601v1.69795h2.78949v0.98758h-2.78949v1.68062h3.25729v0.98758z"
                      data-paper-data="{&quot;glyphName&quot;:&quot;E&quot;,&quot;glyphIndex&quot;:14,&quot;firstGlyphOfWord&quot;:true,&quot;word&quot;:4}"></path>
                <path d="M324.34675,348.39013l1.68929,4.06295c0,0.00578 0.01155,0.04476 0.03465,0.11695c0.0231,0.07219 0.04043,0.14005 0.05198,0.20358c0.01155,-0.06353 0.02888,-0.13139 0.05198,-0.20358c0.0231,-0.07219 0.03754,-0.11118 0.04332,-0.11695l1.68929,-4.06295h1.04822c-0.0231,0.05198 -0.07797,0.18192 -0.1646,0.38984c-0.08663,0.20791 -0.19492,0.46347 -0.32486,0.76668c-0.12995,0.30321 -0.27433,0.64106 -0.43315,1.01357c-0.15882,0.37251 -0.32198,0.75079 -0.48946,1.13485c-0.16748,0.38406 -0.33064,0.76379 -0.48946,1.13919c-0.15882,0.3754 -0.30321,0.7147 -0.43315,1.0179c-0.12995,0.30321 -0.23968,0.55732 -0.32919,0.76234c-0.08952,0.20502 -0.14583,0.33353 -0.16893,0.3855c-0.0231,-0.05198 -0.07797,-0.18048 -0.1646,-0.3855c-0.08663,-0.20502 -0.19492,-0.45914 -0.32486,-0.76234c-0.12995,-0.30321 -0.27433,-0.64251 -0.43315,-1.0179c-0.15882,-0.3754 -0.32198,-0.75513 -0.48946,-1.13919c-0.16748,-0.38406 -0.33064,-0.76234 -0.48946,-1.13485c-0.15882,-0.37251 -0.30321,-0.71037 -0.43315,-1.01357c-0.12995,-0.30321 -0.23823,-0.55876 -0.32486,-0.76668c-0.08663,-0.20791 -0.1415,-0.33786 -0.1646,-0.38984z"
                      data-paper-data="{&quot;glyphName&quot;:&quot;V&quot;,&quot;glyphIndex&quot;:15,&quot;word&quot;:4}"></path>
                <path d="M333.82615,354.70546v-6.31533h4.19289v0.96159h-3.13601v1.69795h2.78949v0.98758h-2.78949v1.68062h3.25729v0.98758z"
                      data-paper-data="{&quot;glyphName&quot;:&quot;E&quot;,&quot;glyphIndex&quot;:16,&quot;word&quot;:4}"></path>
                <path d="M343.28304,354.70546v-6.31533h1.78458c0.34652,0 0.66272,0.0462 0.9486,0.13861c0.28588,0.09241 0.52844,0.22524 0.72769,0.3985c0.19925,0.17326 0.35374,0.38695 0.46347,0.64106c0.10973,0.25411 0.1646,0.53999 0.1646,0.85764c0,0.17326 -0.01733,0.34652 -0.05198,0.51978c-0.03465,0.17326 -0.08952,0.34074 -0.1646,0.50245c-0.07508,0.16171 -0.17326,0.31042 -0.29454,0.44614c-0.12128,0.13572 -0.26567,0.25267 -0.43315,0.35085c0.12706,0.20214 0.25123,0.39994 0.37251,0.59342c0.12128,0.19347 0.24401,0.38839 0.36818,0.58475c0.12417,0.19636 0.25267,0.3985 0.3855,0.60641c0.13283,0.20791 0.27722,0.43315 0.43315,0.67571h-1.27346c-0.25989,-0.40427 -0.50534,-0.78689 -0.73636,-1.14785c-0.23101,-0.36096 -0.45336,-0.70315 -0.66705,-1.02657h-0.08663h-0.88363v2.17441zM344.33993,351.5348h0.84897c0.21946,0 0.40139,-0.03754 0.54577,-0.11262c0.14438,-0.07508 0.25989,-0.16604 0.34652,-0.27288c0.08663,-0.10684 0.14727,-0.22235 0.18192,-0.34652c0.03465,-0.12417 0.05198,-0.23823 0.05198,-0.34219c0,-0.09818 -0.01588,-0.20936 -0.04765,-0.33353c-0.03176,-0.12417 -0.08952,-0.24112 -0.17326,-0.35085c-0.08374,-0.10973 -0.19781,-0.20214 -0.34219,-0.27722c-0.14438,-0.07508 -0.32919,-0.11262 -0.55443,-0.11262h-0.85764z"
                      data-paper-data="{&quot;glyphName&quot;:&quot;R&quot;,&quot;glyphIndex&quot;:17,&quot;word&quot;:4}"></path>
                <path d="M355.02895,352.66099v2.04447h-1.06555v-2.04447c-0.02888,-0.04043 -0.10107,-0.16893 -0.21658,-0.3855c-0.11551,-0.21658 -0.257,-0.47647 -0.42449,-0.77967c-0.16748,-0.30321 -0.34363,-0.62662 -0.52844,-0.97026c-0.18481,-0.34363 -0.36096,-0.66705 -0.52844,-0.97026c-0.16748,-0.30321 -0.30898,-0.5631 -0.42449,-0.77967c-0.11551,-0.21658 -0.1877,-0.34508 -0.21658,-0.3855h1.20416c0.0231,0.04043 0.06786,0.12273 0.13428,0.2469c0.06642,0.12417 0.14583,0.27433 0.23823,0.45048c0.09241,0.17615 0.19347,0.36962 0.30321,0.58042c0.10973,0.2108 0.21946,0.4216 0.32919,0.6324c0.10973,0.2108 0.21369,0.41294 0.31187,0.60641c0.09818,0.19347 0.18481,0.3624 0.25989,0.50679l0.09529,0.29454c0.0231,-0.0462 0.04332,-0.09674 0.06064,-0.1516c0.01733,-0.05487 0.03465,-0.10251 0.05198,-0.14294c0.07508,-0.14438 0.16171,-0.31331 0.25989,-0.50679c0.09818,-0.19347 0.20069,-0.39561 0.30754,-0.60641c0.10684,-0.2108 0.21369,-0.4216 0.32053,-0.6324c0.10684,-0.2108 0.20502,-0.40427 0.29454,-0.58042c0.08952,-0.17615 0.16604,-0.32631 0.22957,-0.45048c0.06353,-0.12417 0.10684,-0.20647 0.12995,-0.2469h1.20416z"
                      data-paper-data="{&quot;glyphName&quot;:&quot;Y&quot;,&quot;glyphIndex&quot;:18,&quot;word&quot;:4}"></path>
                <path d="M361.56405,351.56079c0,-0.43893 0.08519,-0.85475 0.25556,-1.24747c0.17037,-0.39272 0.40139,-0.73636 0.69304,-1.0309c0.29165,-0.29454 0.6324,-0.52844 1.02223,-0.7017c0.38984,-0.17326 0.8071,-0.25989 1.2518,-0.25989c0.43893,0 0.85475,0.08663 1.24747,0.25989c0.39272,0.17326 0.73636,0.40716 1.0309,0.7017c0.29454,0.29454 0.527,0.63817 0.69737,1.0309c0.17037,0.39272 0.25556,0.80855 0.25556,1.24747c0,0.4447 -0.08519,0.86197 -0.25556,1.2518c-0.17037,0.38984 -0.40283,0.73058 -0.69737,1.02223c-0.29454,0.29165 -0.63817,0.52122 -1.0309,0.68871c-0.39272,0.16748 -0.80855,0.25123 -1.24747,0.25123c-0.4447,0 -0.86197,-0.08374 -1.2518,-0.25123c-0.38984,-0.16748 -0.73058,-0.39705 -1.02223,-0.68871c-0.29165,-0.29165 -0.52267,-0.6324 -0.69304,-1.02223c-0.17037,-0.38984 -0.25556,-0.8071 -0.25556,-1.2518zM362.6296,351.56079c0,0.30609 0.05631,0.59342 0.16893,0.86197c0.11262,0.26855 0.26855,0.50245 0.4678,0.7017c0.19925,0.19925 0.43026,0.35663 0.69304,0.47213c0.26278,0.11551 0.54721,0.17326 0.85331,0.17326c0.29454,0 0.5732,-0.05775 0.83598,-0.17326c0.26278,-0.11551 0.4909,-0.27288 0.68438,-0.47213c0.19347,-0.19925 0.34652,-0.43315 0.45914,-0.7017c0.11262,-0.26855 0.16893,-0.55588 0.16893,-0.86197c0,-0.30609 -0.05775,-0.59342 -0.17326,-0.86197c-0.11551,-0.26855 -0.27144,-0.5039 -0.4678,-0.70603c-0.19636,-0.20214 -0.42593,-0.36096 -0.68871,-0.47647c-0.26278,-0.11551 -0.54433,-0.17326 -0.84464,-0.17326c-0.30032,0 -0.58187,0.05775 -0.84464,0.17326c-0.26278,0.11551 -0.4909,0.27433 -0.68438,0.47647c-0.19347,0.20214 -0.34652,0.43748 -0.45914,0.70603c-0.11262,0.26855 -0.16893,0.55588 -0.16893,0.86197z"
                      data-paper-data="{&quot;glyphName&quot;:&quot;O&quot;,&quot;glyphIndex&quot;:19,&quot;word&quot;:4}"></path>
                <path d="M379.19712,348.39013v6.60987c-0.04043,-0.05198 -0.12995,-0.14727 -0.26855,-0.28588c-0.13861,-0.13861 -0.30898,-0.30465 -0.51112,-0.49812c-0.20214,-0.19347 -0.42593,-0.40716 -0.67138,-0.64106c-0.24545,-0.2339 -0.49524,-0.47069 -0.74935,-0.71037c-0.25411,-0.23968 -0.50245,-0.47502 -0.74502,-0.70603c-0.24256,-0.23101 -0.46347,-0.44326 -0.66272,-0.63673c-0.19925,-0.19347 -0.36673,-0.35807 -0.50245,-0.49379c-0.13572,-0.13572 -0.22379,-0.22957 -0.26422,-0.28155c-0.00578,-0.01155 -0.02888,-0.04187 -0.0693,-0.09096c-0.04043,-0.04909 -0.07508,-0.09385 -0.10396,-0.13428l0.02599,0.27722v3.90702h-1.05689v-6.60121c0.04043,0.05198 0.12995,0.14583 0.26855,0.28155c0.13861,0.13572 0.30898,0.29887 0.51112,0.48946c0.20214,0.19059 0.42593,0.3985 0.67138,0.62374c0.24545,0.22524 0.49524,0.45481 0.74935,0.68871c0.25411,0.2339 0.50245,0.46491 0.74502,0.69304c0.24256,0.22813 0.46491,0.43604 0.66705,0.62374c0.20214,0.1877 0.37107,0.34796 0.50679,0.4808c0.13572,0.13283 0.22379,0.22524 0.26422,0.27722l0.1646,0.24256l-0.02599,-0.29454v-3.82039z"
                      data-paper-data="{&quot;glyphName&quot;:&quot;N&quot;,&quot;glyphIndex&quot;:20,&quot;word&quot;:4}"></path>
                <path d="M385.00969,354.70546v-6.31533h4.19289v0.96159h-3.13601v1.69795h2.78949v0.98758h-2.78949v1.68062h3.25729v0.98758z"
                      data-paper-data="{&quot;glyphName&quot;:&quot;E&quot;,&quot;glyphIndex&quot;:21,&quot;lastGlyphOfWord&quot;:true,&quot;word&quot;:4}"></path>
            </g>
            <g data-paper-data="{&quot;isPrimaryText&quot;:true}" fill-rule="nonzero">
                <path d="M150.50499,338.14993h2.77226v-12.04735l9.92538,12.04735h3.38832l-10.47298,-12.49228l10.06228,-11.46552h-3.35409l-9.5489,11.02059v-11.02059h-2.77226z"
                      data-paper-data="{&quot;glyphName&quot;:&quot;K&quot;,&quot;glyphIndex&quot;:0,&quot;firstGlyphOfWord&quot;:true,&quot;word&quot;:1}"></path>
                <path d="M175.56941,326.17103c0,7.11889 5.23649,12.42383 12.18425,12.42383c6.98199,0 12.2527,-5.37339 12.2527,-12.42383c0,-6.98199 -5.23649,-12.42383 -12.21848,-12.42383c-6.94776,0 -12.21848,5.37339 -12.21848,12.42383zM178.44435,326.17103c0,-5.61297 4.0386,-9.8227 9.34354,-9.8227c5.30494,0 9.34354,4.20973 9.34354,9.8227c0,5.68142 -4.0386,9.8227 -9.34354,9.8227c-5.30494,0 -9.34354,-4.14128 -9.34354,-9.8227z"
                      data-paper-data="{&quot;glyphName&quot;:&quot;O&quot;,&quot;glyphIndex&quot;:1,&quot;word&quot;:1}"></path>
                <path d="M223.94136,330.38076l2.87494,7.76917h2.80649l-8.96706,-23.9578h-2.80649l-8.96706,23.9578h2.80649l2.87494,-7.76917zM223.11995,327.98498h-7.70072l3.83325,-10.74679z"
                      data-paper-data="{&quot;glyphName&quot;:&quot;A&quot;,&quot;glyphIndex&quot;:2,&quot;word&quot;:1}"></path>
                <path d="M239.90182,338.14993h11.73932v-2.49846h-8.96706v-21.45935h-2.77226z"
                      data-paper-data="{&quot;glyphName&quot;:&quot;L&quot;,&quot;glyphIndex&quot;:3,&quot;word&quot;:1}"></path>
                <path d="M275.16542,330.38076l2.87494,7.76917h2.80649l-8.96706,-23.9578h-2.80649l-8.96706,23.9578h2.80649l2.87494,-7.76917zM274.34401,327.98498h-7.70072l3.83325,-10.74679z"
                      data-paper-data="{&quot;glyphName&quot;:&quot;A&quot;,&quot;glyphIndex&quot;:4,&quot;lastGlyphOfWord&quot;:true,&quot;word&quot;:1}"></path>
                <path d="M324.60976,333.42682c-0.82141,0.68451 -3.18297,2.56691 -6.81086,2.56691c-5.54452,0 -9.34354,-4.24395 -9.34354,-9.8227c0,-5.57875 3.97015,-9.8227 9.27509,-9.8227c3.18297,0 5.54452,1.6086 6.46861,2.36155l0.88986,-2.46423c-1.26634,-1.02676 -3.83325,-2.49846 -7.42692,-2.49846c-6.77664,0 -12.08158,5.37339 -12.08158,12.42383c0,7.08466 5.13381,12.42383 12.15003,12.42383c4.0386,0 6.81086,-1.91662 7.73495,-2.73803z"
                      data-paper-data="{&quot;glyphName&quot;:&quot;C&quot;,&quot;glyphIndex&quot;:5,&quot;firstGlyphOfWord&quot;:true,&quot;word&quot;:2}"></path>
                <path d="M349.29771,330.38076l2.87494,7.76917h2.80649l-8.96706,-23.9578h-2.80649l-8.96706,23.9578h2.80649l2.87494,-7.76917zM348.4763,327.98498h-7.70072l3.83325,-10.74679z"
                      data-paper-data="{&quot;glyphName&quot;:&quot;A&quot;,&quot;glyphIndex&quot;:6,&quot;word&quot;:2}"></path>
                <path d="M365.25817,338.14993h11.73932v-2.49846h-8.96706v-21.45935h-2.77226z"
                      data-paper-data="{&quot;glyphName&quot;:&quot;L&quot;,&quot;glyphIndex&quot;:7,&quot;word&quot;:2}"></path>
                <path d="M387.75569,338.14993h11.73932v-2.49846h-8.96706v-21.45935h-2.77226z"
                      data-paper-data="{&quot;glyphName&quot;:&quot;L&quot;,&quot;glyphIndex&quot;:8,&quot;lastGlyphOfWord&quot;:true,&quot;word&quot;:2}"></path>
            </g>
            <g data-paper-data="{&quot;fillRule&quot;:&quot;evenodd&quot;,&quot;fillRuleOriginal&quot;:&quot;evenodd&quot;,&quot;isIcon&quot;:true,&quot;iconStyle&quot;:&quot;standalone&quot;,&quot;selectedEffects&quot;:{&quot;container&quot;:&quot;&quot;,&quot;transformation&quot;:&quot;&quot;,&quot;pattern&quot;:&quot;&quot;},&quot;bounds&quot;:{&quot;x&quot;:239.0118345503583,&quot;y&quot;:114.99999999999999,&quot;width&quot;:71.97633089928337,&quot;height&quot;:162.26100961855423},&quot;iconType&quot;:&quot;initial&quot;,&quot;initialText&quot;:&quot;K&quot;,&quot;rawInitialId&quot;:217,&quot;disableIconEffects&quot;:&quot;true&quot;,&quot;monogramSpecial&quot;:&quot;law&quot;,&quot;suitableAsStandaloneIcon&quot;:true}"
               fill-rule="evenodd">
                <path d="M239.01183,115v162.26101h9.13133v-76.95532h9.25704v36.79958l31.88535,-36.79958h11.19987l-33.59961,38.28528l32.41925,38.67004h11.68311v-162.26101zM288.03499,277.26101l-30.6348,-37.18434v37.18434z"
                      data-paper-data="{&quot;isPathIcon&quot;:true}"></path>
            </g>
        </g>
    </g>
</svg>