<svg width="56" height="57" viewBox="0 0 56 57" fill="none" xmlns="http://www.w3.org/2000/svg">
<path fill-rule="evenodd" clip-rule="evenodd" d="M28 54.6251C42.2969 54.6251 53.8868 43.0352 53.8868 28.7383C53.8868 14.4414 42.2969 2.85149 28 2.85149C13.7031 2.85149 2.11321 14.4414 2.11321 28.7383C2.11321 43.0352 13.7031 54.6251 28 54.6251ZM56 28.7383C56 44.2023 43.464 56.7383 28 56.7383C12.536 56.7383 0 44.2023 0 28.7383C0 13.2743 12.536 0.738281 28 0.738281C43.464 0.738281 56 13.2743 56 28.7383Z" fill="#A09DC0"/>
<path fill-rule="evenodd" clip-rule="evenodd" d="M29.6733 44.011H23.4656V29.3728H20.3637V24.329H23.4656V21.3008C23.4656 17.1863 25.2162 14.7383 30.193 14.7383H34.3352V19.784H31.7463C29.8089 19.784 29.6809 20.4888 29.6809 21.8043L29.6724 24.329H34.3637L33.8146 29.3728H29.6724L29.6733 44.011Z" fill="#A09DC0"/>
</svg>
