<svg width="56" height="57" viewBox="0 0 56 57" fill="none" xmlns="http://www.w3.org/2000/svg">
<path fill-rule="evenodd" clip-rule="evenodd" d="M28 54.6251C42.2969 54.6251 53.8868 43.0352 53.8868 28.7383C53.8868 14.4414 42.2969 2.85149 28 2.85149C13.7031 2.85149 2.11321 14.4414 2.11321 28.7383C2.11321 43.0352 13.7031 54.6251 28 54.6251ZM56 28.7383C56 44.2023 43.464 56.7383 28 56.7383C12.536 56.7383 0 44.2023 0 28.7383C0 13.2743 12.536 0.738281 28 0.738281C43.464 0.738281 56 13.2743 56 28.7383Z" fill="#A09DC0"/>
<path fill-rule="evenodd" clip-rule="evenodd" d="M14.0706 31.5342C14.0941 42.1609 16.6665 43.0242 27.788 42.6401C27.9288 38.5959 27.5424 33.7817 25.3357 31.4796C22.9039 28.9425 18.3381 29.0457 14.068 28.9017L14.0706 31.5342Z" fill="#A09DC0"/>
<path fill-rule="evenodd" clip-rule="evenodd" d="M28.2136 42.649C29.6249 42.8643 33.3362 42.6409 34.8257 42.4954C36.7719 42.3053 38.778 41.8039 39.8864 40.704C42.1745 38.4336 41.94 32.7504 41.9294 28.9042C37.8061 29.0037 32.9324 29.0764 30.6587 31.4623C28.4772 33.7516 28.0442 38.6528 28.2136 42.649Z" fill="#A09DC0"/>
<path fill-rule="evenodd" clip-rule="evenodd" d="M14.0922 28.5248C18.4811 28.4435 22.7183 28.4828 25.2925 25.9522C27.8208 23.4667 27.6618 18.9849 27.7959 14.7399C24.0254 14.7878 18.1388 14.5313 16.0093 16.7924C14.1041 18.8153 13.8095 24.9963 14.0922 28.5248Z" fill="#A09DC0"/>
<path fill-rule="evenodd" clip-rule="evenodd" d="M28.2148 14.7383C28.2904 26.5949 30.1396 28.2909 41.9022 28.5231C42.1818 24.9173 41.9605 18.748 39.9229 16.7343C37.6774 14.5151 32.0073 14.7976 28.2148 14.7383Z" fill="#A09DC0"/>
</svg>
