<svg width="56" height="57" viewBox="0 0 56 57" fill="none" xmlns="http://www.w3.org/2000/svg">
<path fill-rule="evenodd" clip-rule="evenodd" d="M28 54.6251C42.2969 54.6251 53.8868 43.0352 53.8868 28.7383C53.8868 14.4414 42.2969 2.85149 28 2.85149C13.7031 2.85149 2.11321 14.4414 2.11321 28.7383C2.11321 43.0352 13.7031 54.6251 28 54.6251ZM56 28.7383C56 44.2023 43.464 56.7383 28 56.7383C12.536 56.7383 0 44.2023 0 28.7383C0 13.2743 12.536 0.738281 28 0.738281C43.464 0.738281 56 13.2743 56 28.7383Z" fill="#A09DC0"/>
<path fill-rule="evenodd" clip-rule="evenodd" d="M19.8906 26.894C18.1093 25.7515 17.0417 25.0644 16.6874 24.8331C16.0417 24.4282 15.4322 23.8713 14.8594 23.1626C14.2865 22.454 14 21.7958 14 21.1883C14 20.4363 14.2161 19.8095 14.6484 19.3081C15.0807 18.8067 15.6978 18.5561 16.4999 18.5561H39.5C40.1768 18.5561 40.7628 18.7826 41.2576 19.2358C41.7524 19.689 42 20.2338 42 20.8702C42 21.6319 41.7449 22.3599 41.2342 23.0538C40.7237 23.7481 40.0885 24.3412 39.3281 24.8327C35.4116 27.3494 32.9739 28.9161 32.0157 29.5332C31.9116 29.6008 31.6901 29.7476 31.3516 29.9743C31.0131 30.201 30.7319 30.3844 30.5079 30.5241C30.2839 30.6638 30.0131 30.8204 29.6955 30.994C29.378 31.1672 29.0782 31.2977 28.7971 31.3841C28.5157 31.4711 28.2553 31.5143 28.0157 31.5143H27.9843C27.7448 31.5143 27.4843 31.4711 27.203 31.3841C26.9218 31.2977 26.6223 31.1674 26.3045 30.994C25.9867 30.8205 25.7159 30.6638 25.4919 30.5241C25.2681 30.3844 24.9868 30.201 24.6483 29.9743C24.3098 29.7478 24.0885 29.6008 23.9843 29.5332C23.0363 28.9163 21.6718 28.0365 19.8906 26.894ZM32.6564 31.37C34.427 30.1841 37.021 28.5207 40.4374 26.3804C41.0313 26.0044 41.552 25.5848 42 25.1222V36.6054C42 37.2419 41.7555 37.7864 41.2657 38.2398C40.7761 38.6931 40.1875 38.9197 39.5001 38.9197H16.5001C15.8125 38.9197 15.2239 38.6931 14.7343 38.2398C14.2447 37.7866 14 37.2419 14 36.6054V25.1222C14.4584 25.5945 14.9844 26.0142 15.5782 26.3804C19.349 28.7522 21.9374 30.4155 23.3438 31.37C23.9375 31.775 24.4193 32.0909 24.789 32.3173C25.1588 32.544 25.6511 32.7753 26.2655 33.0115C26.88 33.2478 27.453 33.3659 27.9843 33.3659H28.0159C28.5471 33.3659 29.12 33.2478 29.7345 33.0115C30.3491 32.7753 30.8412 32.544 31.211 32.3173C31.5809 32.0909 32.0627 31.775 32.6564 31.37Z" fill="#A09DC0"/>
</svg>
