<svg width="56" height="57" viewBox="0 0 56 57" fill="none" xmlns="http://www.w3.org/2000/svg">
<path fill-rule="evenodd" clip-rule="evenodd" d="M28 54.6251C42.2969 54.6251 53.8868 43.0352 53.8868 28.7383C53.8868 14.4414 42.2969 2.85149 28 2.85149C13.7031 2.85149 2.11321 14.4414 2.11321 28.7383C2.11321 43.0352 13.7031 54.6251 28 54.6251ZM56 28.7383C56 44.2023 43.464 56.7383 28 56.7383C12.536 56.7383 0 44.2023 0 28.7383C0 13.2743 12.536 0.738281 28 0.738281C43.464 0.738281 56 13.2743 56 28.7383Z" fill="#A09DC0"/>
<path fill-rule="evenodd" clip-rule="evenodd" d="M28.924 38.8453C28.924 38.8453 29.4983 38.7827 29.7924 38.4726C30.0616 38.1885 30.0523 37.6523 30.0523 37.6523C30.0523 37.6523 30.0165 35.1486 31.2008 34.7789C32.368 34.4153 33.8666 37.2001 35.4571 38.271C36.6585 39.0806 37.5704 38.9034 37.5704 38.9034L41.8205 38.8453C41.8205 38.8453 44.0428 38.7109 42.9892 36.9954C42.9021 36.8549 42.3745 35.726 39.8301 33.4071C37.1642 30.9798 37.5222 31.3724 40.7311 27.173C42.6857 24.6159 43.467 23.0547 43.2226 22.3871C42.9908 21.7486 41.5528 21.9181 41.5528 21.9181L36.769 21.9472C36.769 21.9472 36.4142 21.8998 36.1511 22.0541C35.8944 22.2053 35.7279 22.5582 35.7279 22.5582C35.7279 22.5582 34.9715 24.5364 33.9615 26.2198C31.8311 29.7699 30.9798 29.9578 30.6312 29.7379C29.8204 29.2231 30.0227 27.6726 30.0227 26.5712C30.0227 23.1295 30.5549 21.6951 28.9878 21.3239C28.468 21.2002 28.0852 21.1192 26.7546 21.1055C25.0475 21.0887 23.6033 21.1116 22.7847 21.5042C22.24 21.7654 21.8198 22.3489 22.0766 22.3825C22.3925 22.4238 23.1084 22.5719 23.4881 23.0791C23.9783 23.7344 23.9612 25.204 23.9612 25.204C23.9612 25.204 24.2429 29.2551 23.3029 29.7577C22.6586 30.103 21.7747 29.3987 19.8745 26.1771C18.9019 24.5273 18.1674 22.7033 18.1674 22.7033C18.1674 22.7033 18.0258 22.3627 17.7721 22.1794C17.4655 21.9579 17.0375 21.8891 17.0375 21.8891L12.4918 21.9181C12.4918 21.9181 11.8086 21.9365 11.5581 22.2282C11.3355 22.4864 11.5409 23.0226 11.5409 23.0226C11.5409 23.0226 15.1 31.1967 19.1307 35.3166C22.8267 39.0928 27.0223 38.8453 27.0223 38.8453H28.924Z" fill="#A09DC0"/>
</svg>
