<svg width="55" height="57" viewBox="0 0 55 57" fill="none" xmlns="http://www.w3.org/2000/svg">
<path fill-rule="evenodd" clip-rule="evenodd" d="M17.4826 38.9512C17.9248 36.896 19.0882 35.7816 18.3039 33.9421C17.5264 32.1183 16.9824 31.7377 16.6311 29.5018C14.8863 18.3903 28.33 11.0577 36.4655 19.1371C44.6939 27.3082 38.0898 41.1277 26.3551 39.564C24.3247 39.2932 23.2772 38.1591 22.053 37.9136C21.0219 37.7067 18.765 38.8091 17.4826 38.9512ZM13.7501 42.6903C15.8118 42.3629 17.7784 41.5285 19.7623 40.8518C23.2148 39.6749 28.9738 45.6822 37.4246 38.8445C43.9511 33.5637 44.2434 22.9192 37.9531 17.2066C31.6403 11.4732 22.2837 12.4159 17.0054 18.8882C10.6965 26.6239 16.6949 33.7847 15.6868 36.7159C15.0102 38.6821 14.1288 40.6843 13.7501 42.6903Z" fill="#A09DC0"/>
<path fill-rule="evenodd" clip-rule="evenodd" d="M35 31.698L31.8259 29.691L29.8613 31.7042C27.5406 30.9071 25.9352 28.9189 24.8218 26.9208C26.0976 24.4875 26.525 23.9742 24.552 21.0621C20.4502 20.8084 19.7235 25.9701 24.9365 31.281C27.4382 33.8297 34.4697 38.0981 35 31.698Z" fill="#A09DC0"/>
<path fill-rule="evenodd" clip-rule="evenodd" d="M27.5 54.6251C41.5416 54.6251 52.9245 43.0352 52.9245 28.7383C52.9245 14.4414 41.5416 2.85149 27.5 2.85149C13.4584 2.85149 2.07547 14.4414 2.07547 28.7383C2.07547 43.0352 13.4584 54.6251 27.5 54.6251ZM55 28.7383C55 44.2023 42.6878 56.7383 27.5 56.7383C12.3122 56.7383 0 44.2023 0 28.7383C0 13.2743 12.3122 0.738281 27.5 0.738281C42.6878 0.738281 55 13.2743 55 28.7383Z" fill="#A09DC0"/>
</svg>
