<svg width="97" height="100" viewBox="0 0 97 100" fill="none" xmlns="http://www.w3.org/2000/svg">
<path fill-rule="evenodd" clip-rule="evenodd" d="M4.22586 90.1509C4.22586 85.6038 10.8499 86.3987 15.4967 86.3987C15.7945 85.7782 15.8584 85.5498 16.208 84.7641C16.985 83.0213 16.9052 85.065 16.9052 83.1153V18.8598H92.0419V94.841H8.92234C6.51848 94.841 4.22586 92.374 4.22586 90.1509ZM4.22586 82.6464L4.21962 11.8179C4.15516 4.43126 5.6229 5.25792 12.6793 5.25792V81.2391C6.94234 81.2391 8.6451 81.618 4.22586 82.6464ZM0 9.94856V91.5577C0 95.9686 3.56074 100 7.98283 100H93.9204C98.3168 100 96.7634 84.3659 96.6094 83.2435C95.6579 76.3092 96.776 70.8613 96.2643 62.0105C96.0418 58.1568 96.7378 55.3771 96.7378 51.222C96.7378 47.2959 96.1827 44.7515 96.2386 41.365C96.278 38.9641 96.6282 38.7561 96.7401 36.6846L96.7378 17.4525C96.7378 15.7815 96.5085 13.7003 94.8593 13.7003H16.9052C16.9052 -2.05182 18.7625 0.098961 8.92234 0.098961C4.10835 0.098961 0 5.2169 0 9.94856Z" fill="#BDBDBD"/>
<path fill-rule="evenodd" clip-rule="evenodd" d="M33 44.8434V71.6156C33 72.6787 33.3276 73 34.412 73H73V41.1507C68.775 41.1507 63.588 40.0265 63.588 43.92C63.588 45.8427 65.0073 45.6386 66.9052 45.7563C69.6776 45.9279 69.2083 46.2307 68.9442 48.1505L69.2352 67.4614C69.2352 69.1855 68.4257 68.5407 66.4547 68.4218L41.462 68.3927C34.8338 68.4807 37.2353 68.4275 37.2353 63.7686V45.7664H52.294C54.1747 45.7664 56.6505 41.1507 53.2355 41.1507H35.3529C33.8866 41.1507 33 43.4338 33 44.8434Z" fill="#BDBDBD"/>
</svg>
