<svg width="97" height="100" viewBox="0 0 97 100" fill="none" xmlns="http://www.w3.org/2000/svg">
<path fill-rule="evenodd" clip-rule="evenodd" d="M4.23314 89.9706C4.23314 85.6309 10.9903 86.2262 15.5234 86.2262C16.0743 85.1909 16.9343 83.943 16.9343 82.4824V18.8301H92.2005V95.1187H10.3486C6.44803 95.1187 4.23314 92.4983 4.23314 89.9706ZM4.23314 82.4824L4.22689 11.8024C4.16232 4.43193 5.63259 5.25688 12.7012 5.25688V80.1417C12.7012 82.1379 10.8423 81.5306 8.93888 81.5471C5.71546 81.575 6.73828 82.2749 4.23314 82.4824ZM0 9.9371V91.3749C0 94.8555 2.2943 98.0591 4.87544 99.1632C8.10401 100.545 11.7514 99.7989 16.464 99.7994H95.0228C96.7536 97.2274 96.9045 97.2785 96.9045 94.1829C96.9045 90.9661 97.189 86.0767 96.7759 83.0782C96.4045 80.3811 96.1131 75.7088 96.5028 72.2538C97.0056 67.7999 96.677 66.1432 96.4302 61.8894C96.2073 58.0438 96.9045 55.2705 96.9045 51.1241C96.9045 47.2058 96.3485 44.6667 96.4045 41.2879C96.4553 38.2167 96.9045 37.2695 96.9045 31.467V17.4258C96.9045 15.8123 96.5565 15.6134 96.4342 14.1494C91.2302 12.9435 27.7229 13.6814 16.9343 13.6814C16.9343 -2.12786 18.8943 0.108795 8.46746 0.108795C4.47146 0.108795 0 5.30125 0 9.9371Z" fill="#BDBDBD"/>
<path fill-rule="evenodd" clip-rule="evenodd" d="M40.6176 29.9188V48.3165C28.963 48.3165 31.1657 47.0499 31.1657 78.2123C31.1657 79.4543 31.3913 79.4805 31.6387 80.5119C35.4918 81.4097 33.102 80.765 35.9499 80.7002C37.6073 80.6628 36.4149 81.051 40.7537 80.7728C42.2204 80.6784 40.9437 80.7622 42.1073 80.76C43.0757 80.7578 42.7686 80.7292 43.4391 80.7583L66.5358 80.7169C73.0841 80.8684 71.8074 83.863 71.8074 66.2537L71.8034 33.5722C72.0674 26.0822 73.4578 27.1588 62.3561 27.1588C61.1982 31.995 59.4146 31.7586 67.5542 31.7586L67.9595 40.5655C68.3556 43.8898 67.5542 45.4067 67.5542 48.3165C65.2063 48.3165 62.3561 48.0332 62.3561 51.9955C62.3561 53.8733 63.8377 53.3755 67.5542 53.3755V76.3725C57.5254 76.3725 46.6826 76.3725 36.8369 76.3725C35.7479 76.3725 35.4189 76.0523 35.4189 74.9924V63.4943C35.4189 61.0628 35.9981 59.2788 35.8294 57.5887C35.2938 52.2218 32.4373 53.3755 51.9593 53.3755C52.9731 51.9022 53.3772 51.7905 53.3772 49.2361C48.6786 48.1706 53.1654 48.3165 44.8708 48.3165V31.7586C49.5413 31.7586 52.2968 32.6884 53.5339 29.5272C54.8812 26.0839 49.0764 27.1588 42.9804 27.1588C41.3071 27.1588 40.6176 29.6613 40.6176 29.9188Z" fill="#BDBDBD"/>
</svg>
