<svg width="97" height="100" viewBox="0 0 97 100" fill="none" xmlns="http://www.w3.org/2000/svg">
<path fill-rule="evenodd" clip-rule="evenodd" d="M8.47555 5.25908H12.7133V80.1752C12.7133 82.171 10.8527 81.5669 8.94743 81.5812C5.96171 81.6033 6.89573 82.01 4.70848 82.5168C4.48141 72.3835 4.37504 8.28328 5.01737 6.97112C5.58478 5.8131 6.97068 5.25908 8.47555 5.25908ZM92.7765 90.9608C92.8108 93.0454 93.3325 95.1584 91.3477 95.1584H11.3005C5.67856 95.1584 4.70848 92.8907 4.70848 89.0719C4.70848 85.7241 11.837 86.2622 15.5383 86.2622C16.0897 85.2264 16.9511 83.978 16.9511 82.5168V18.838H92.7605L92.7765 90.9608ZM0 11.3461V90.4762C0 101.994 10.8853 99.84 16.0091 99.8411H95.5855C95.884 99.2217 95.9481 98.9936 96.2987 98.2093C97.0778 96.4694 96.9977 98.5102 96.9977 96.5633V65.6606C96.9977 63.8149 96.6643 63.5232 96.6643 62.3828C96.6643 61.2424 96.9977 60.9506 96.9977 59.1049V16.4964C96.9977 15.0591 96.5618 13.6872 95.1147 13.6872H16.9511C16.9511 -2.12875 18.9124 0.10884 8.47555 0.10884C3.81507 0.10884 0 5.97918 0 11.3461Z" fill="#BDBDBD"/>
<path fill-rule="evenodd" clip-rule="evenodd" d="M34.49 29.9192V48.3193C30.0363 48.3193 27.8894 47.6689 26.3303 49.928C25.5555 51.0512 25.1659 52.1442 25.1659 53.8389C25.1659 59.5776 24.5718 76.0292 25.632 80.519C28.5294 81.2035 32.9382 80.7733 35.9602 80.7671L47.1356 80.7073C50.0907 80.6391 49.8059 81.0202 56.0412 80.6654C58.2759 80.538 56.4382 80.9789 58.7335 80.9789C60.8369 80.9789 58.5421 80.7682 60.1194 80.7487L68.9898 80.9789C70.4277 80.9789 70.0415 80.7498 70.8547 80.7515C73.4032 80.757 82.4866 81.4376 84.0486 80.5223C84.5254 80.2429 85.7736 78.5253 85.7736 77.7592C85.7736 44.7096 87.7184 49.2922 80.2077 48.7513C75.4562 48.4093 73.3704 47.9779 68.3561 48.6931C63.9636 49.3201 65.2605 48.1466 65.2605 34.0592C65.2605 30.3729 66.3303 30.3182 64.7944 27.1588H55.9359C54.7941 31.9956 53.034 31.7593 61.0645 31.7593L61.4638 40.5673C61.8546 43.8921 61.0645 45.4092 61.0645 48.3193C58.7482 48.3193 55.9359 48.036 55.9359 51.9988C55.9359 53.8769 57.3975 53.379 61.0645 53.379C61.0645 57.4274 60.2807 61.1992 62.9295 61.1992C65.7798 61.1992 65.2605 55.2085 65.2605 53.379H81.5777C81.5777 57.4844 82.0443 59.7759 82.0443 63.959V76.379C77.3121 76.379 69.5374 76.902 65.2605 75.9191C65.2605 73.7695 66.1389 69.0188 63.8616 69.0188C60.9229 69.0188 61.5307 74.0204 61.5307 76.379L32.6251 76.1516C29.8563 76.1572 29.3143 77.6374 29.4763 73.1174C29.504 72.3552 29.3545 69.763 29.359 68.1023C29.3641 66.4165 29.3216 64.6999 29.3431 63.0208C29.3743 60.5974 29.944 60.0358 29.8149 58.0141C29.4343 52.0681 26.0562 53.379 45.679 53.379C46.6797 51.9055 47.0779 51.7938 47.0779 49.239C42.443 48.1735 46.8695 48.3193 38.686 48.3193V31.7593C43.2936 31.7593 46.012 32.6891 47.2324 29.5275C48.5616 26.0838 42.8349 27.1588 36.821 27.1588C35.1701 27.1588 34.49 29.6616 34.49 29.9192Z" fill="#BDBDBD"/>
</svg>
