<svg width="102" height="94" viewBox="0 0 102 94" fill="none" xmlns="http://www.w3.org/2000/svg">
<path fill-rule="evenodd" clip-rule="evenodd" d="M30.6243 90.0714C26.2861 90.0714 22.6989 89.7854 18.9518 88.4294C11.1031 85.5879 3.96928 78.2225 3.96928 69.597C3.96928 57.6756 10.1682 49.6071 17.4044 42.4044C24.9037 34.9395 24.5748 36.3265 32.7739 36.3265C34.7276 36.3265 35.7579 37.809 37.133 38.8266C38.7613 40.0318 39.3891 40.5287 40.8357 41.9774C48.0823 49.2325 54.7 58.2901 54.7 69.1706C54.7 81.2272 42.4886 90.0714 30.6243 90.0714ZM51.2606 47.8433L54.6948 42.293C58.737 36.611 59.5752 36.8032 63.623 32.8094C68.5655 27.9321 68.4548 29.0751 77.0555 29.0751C79.2343 29.0751 88.6079 38.9738 91.0003 42.1116C100.635 54.746 102.519 72.6048 84.3643 80.6873C77.5229 83.733 66.6327 83.7412 59.9956 80.1251C58.7432 79.4422 58.3119 78.8925 56.8496 78.5547C57.0433 76.2417 58.5688 74.5603 58.5688 69.597C58.5688 60.344 55.0332 53.4325 51.2606 47.8433ZM24.1757 29.0751C35.4911 29.0751 36.2133 28.0062 36.2133 32.0612C32.6052 32.8949 28.3604 32.4876 24.6056 32.4876C23.0665 32.4876 22.7453 31.9602 22.0262 31.2078C22.3171 30.1275 22.8566 29.0751 24.1757 29.0751ZM78.3455 25.2362C74.3613 25.2362 69.6893 25.6907 65.8775 24.8098V22.6771C68.6276 21.2331 72.0629 21.8237 76.6257 21.8237C81.4496 21.8237 80.4339 25.2362 78.3455 25.2362ZM34.0638 25.2362H24.6056C23.9888 22.6103 16.9401 14.8496 16.867 11.5868C20.5075 10.8215 19.0865 14.1459 23.3156 14.1459C26.8715 14.1459 26.848 12.5267 28.9046 11.1604C32.1973 11.9215 31.097 14.1459 35.3537 14.1459C38.2532 14.1459 38.8856 11.8044 40.3667 11.4583C45.2507 10.3158 34.7411 22.3522 34.0638 25.2362ZM61.1487 3.90894C63.9176 4.64263 63.0277 6.89504 67.5972 6.89504C70.162 6.89504 70.9281 4.50739 73.1863 3.90894C75.5687 5.49186 75.3274 6.89504 79.2051 6.89504C82.0466 6.89504 82.5411 4.50584 84.794 3.90894C86.2281 5.61259 81.3462 11.7723 79.2902 15.0832C76.9793 18.8045 78.1574 17.9848 69.317 17.9848C67.5199 17.9848 62.836 9.43081 61.7059 7.61472C60.3841 5.49033 59.8452 5.7701 61.1487 3.90894ZM56.4198 5.18876C56.4198 8.00745 62.7629 16.2226 64.1578 18.8382C62.6464 21.0776 62.0083 20.1978 62.0083 24.3834C62.0083 26.0906 62.8945 26.5031 63.2982 28.2223C62.0401 28.5554 57.7217 32.6032 56.3409 34.1156C56.2814 34.1809 56.1999 34.2778 56.1414 34.3447L55.5581 35.0452C55.5011 35.1131 55.4218 35.212 55.3649 35.2799C53.6081 37.3649 49.7258 41.3846 49.1111 44.0044H47.8211C47.3015 42.0727 43.0719 38.6499 41.3093 37.2421C40.269 36.4115 39.8967 35.7799 38.7927 35.0467C41.8802 29.258 40.3249 29.6332 37.9331 26.0891C40.1254 22.8408 45.6716 15.6656 45.6716 12.0132C45.6716 10.0386 44.0594 7.32144 40.5124 7.32144C37.9869 7.32144 36.8813 9.29246 35.3537 10.307C32.6005 9.57796 33.3582 7.32144 28.9046 7.32144C26.379 7.32144 25.2735 9.29246 23.7459 10.307C22.4529 9.96449 17.8979 4.61727 14.2015 8.94221C9.64866 14.2697 19.5111 21.9642 20.7363 26.516C18.9957 27.1409 18.1569 30.0747 18.1569 30.7814C18.1569 31.7659 19.4673 34.2799 19.8767 35.0467L16.3328 37.9291C5.62897 47.2878 -5.23618 65.2653 2.76242 79.7521C3.49826 81.0847 4.17559 82.2366 5.15845 83.3464L8.35767 86.5703C10.6466 88.5507 13.0411 90.1678 15.9996 91.3585C27.4836 95.9792 41.6101 94.6772 50.5174 86.3486L54.7 81.9666C57.7692 82.6765 61.5106 86.0579 68.896 86.6496C78.7966 87.4434 90.0007 84.9283 96.16 77.0349C97.7722 74.9686 98.8558 74.0271 99.9692 71.4302C102.254 66.1011 101.991 65.7488 101.991 60.2129C101.991 48.7951 93.9285 38.1779 85.9816 30.8824L82.2147 27.7953C85.1977 23.3756 83.4994 19.8325 81.3545 19.2646C84.1454 14.0314 90.4796 7.53803 88.9636 3.65093C85.9873 -3.97768 79.4286 2.76904 78.3455 3.05557C77.2488 2.32706 73.8605 -2.09426 69.611 1.2146L68.4757 2.22087C67.6584 2.83746 67.9372 2.77836 66.7376 3.05557C64.7834 1.75762 64.361 0.0700265 61.1487 0.0700265C58.6633 0.0700265 56.4198 2.68302 56.4198 5.18876Z" fill="#BDBDBD"/>
</svg>
