<?xml version="1.0" encoding="UTF-8"?> <svg xmlns="http://www.w3.org/2000/svg" width="512" height="512" viewBox="0 0 512 512" fill="none"> <path d="M128 435.207H8.533C3.814 435.207 0 439.03 0 443.74C0 448.45 3.814 452.273 8.533 452.273H128C132.719 452.273 136.533 448.45 136.533 443.74C136.533 439.03 132.719 435.207 128 435.207Z" fill="#6E59B8"></path> <path d="M102.4 418.123C158.865 418.123 204.8 372.179 204.8 315.723C204.8 287.452 193.527 261.127 173.056 241.594C169.66 238.351 164.241 238.479 160.99 241.876C157.739 245.289 157.867 250.691 161.272 253.942C178.33 270.224 187.734 292.154 187.734 315.723C187.734 362.776 149.453 401.056 102.401 401.056C55.349 401.056 17.068 362.775 17.068 315.723C17.068 268.662 55.349 230.39 102.401 230.39C107.12 230.39 110.934 226.567 110.934 221.857C110.934 217.138 107.12 213.324 102.401 213.324C45.936 213.324 0.000976579 259.259 0.000976579 315.724C-2.34212e-05 372.179 45.935 418.123 102.4 418.123Z" fill="#6E59B8"></path> <path d="M145.067 179.189H149.393L100.096 298.886C91.785 300.021 85.333 307.095 85.333 315.722C85.333 325.134 92.987 332.789 102.4 332.789C111.812 332.789 119.467 325.135 119.467 315.722C119.467 311.814 118.102 308.264 115.883 305.38L164.037 188.456L218.045 266.869C220.707 270.752 226.007 271.741 229.906 269.062C233.797 266.383 234.77 261.075 232.091 257.192L178.365 179.189H196.268C210.382 179.189 221.868 167.703 221.868 153.589C221.868 139.466 210.382 127.989 196.268 127.989H145.068C140.349 127.989 136.535 131.803 136.535 136.522V170.655C136.533 175.367 140.348 179.189 145.067 179.189ZM153.6 145.056H196.267C200.977 145.056 204.8 148.879 204.8 153.589C204.8 158.291 200.977 162.122 196.267 162.122H153.6V145.056Z" fill="#6E59B8"></path> <path d="M401.067 221.856C401.067 226.566 404.881 230.389 409.6 230.389C456.653 230.389 494.933 268.661 494.933 315.722C494.933 362.775 456.652 401.055 409.6 401.055C362.548 401.055 324.267 362.774 324.267 315.722C324.267 290.148 335.591 266.143 355.354 249.845C358.981 246.85 359.501 241.474 356.497 237.839C353.502 234.212 348.134 233.675 344.482 236.679C320.793 256.229 307.2 285.029 307.2 315.723C307.2 372.179 353.135 418.123 409.6 418.123C466.065 418.123 512 372.179 512 315.723C512 259.258 466.065 213.323 409.6 213.323C404.881 213.323 401.067 217.137 401.067 221.856Z" fill="#6E59B8"></path> <path d="M264.533 435.207H179.2C174.481 435.207 170.667 439.03 170.667 443.74C170.667 448.45 174.481 452.273 179.2 452.273H264.533C269.252 452.273 273.066 448.45 273.066 443.74C273.067 439.03 269.252 435.207 264.533 435.207Z" fill="#6E59B8"></path> <path d="M264.533 274.268V247.456C269.252 247.456 273.066 243.633 273.066 238.923C273.066 234.204 269.252 230.39 264.533 230.39H247.466C242.747 230.39 238.933 234.204 238.933 238.923C238.933 243.633 242.747 247.456 247.466 247.456V274.268C232.78 278.082 221.866 291.326 221.866 307.19C221.866 323.045 232.78 336.289 247.466 340.112V366.924C242.747 366.924 238.933 370.738 238.933 375.457C238.933 380.167 242.747 383.99 247.466 383.99H264.533C269.252 383.99 273.066 380.167 273.066 375.457C273.066 370.738 269.252 366.924 264.533 366.924V340.112C279.219 336.289 290.133 323.045 290.133 307.19C290.133 291.326 279.219 278.082 264.533 274.268ZM256 324.256C246.596 324.256 238.933 316.602 238.933 307.189C238.933 297.777 246.596 290.122 256 290.122C265.412 290.122 273.067 297.776 273.067 307.189C273.067 316.602 265.412 324.256 256 324.256Z" fill="#6E59B8"></path> <path d="M396.45 304.971C394.044 307.915 392.533 311.627 392.533 315.723C392.533 325.135 400.196 332.79 409.6 332.79C419.004 332.79 426.667 325.136 426.667 315.723C426.667 307.275 420.48 300.295 412.425 298.938L373.914 196.256H434.833C445.047 196.256 450.987 188.09 452.104 180.862L460.629 138.195C461.132 135.686 460.484 133.084 458.863 131.112C457.242 129.132 454.827 127.989 452.267 127.989H375.467C370.748 127.989 366.934 131.803 366.934 136.522C366.934 141.232 370.748 145.055 375.467 145.055H441.856L435.337 177.704C435.209 178.293 434.842 179.121 434.834 179.189H367.515L340.797 107.927C340.78 107.893 340.754 107.876 340.746 107.842C340.729 107.808 340.737 107.774 340.729 107.748L323.662 65.0809C321.913 60.7029 316.904 58.6039 312.569 60.3279C308.191 62.0769 306.058 67.0439 307.807 71.4209L323.355 110.256L291.261 166.422C288.914 170.51 290.339 175.723 294.435 178.062C295.766 178.821 297.225 179.188 298.659 179.188C301.629 179.188 304.504 177.644 306.074 174.887L331.196 130.932L351.727 185.69L286.694 258.846C283.554 262.37 283.878 267.763 287.402 270.895C289.023 272.346 291.046 273.054 293.068 273.054C295.415 273.054 297.761 272.081 299.442 270.187L358.501 203.755L396.45 304.971Z" fill="#6E59B8"></path> <path d="M503.467 435.207H366.933C362.214 435.207 358.4 439.03 358.4 443.74C358.4 448.45 362.214 452.273 366.933 452.273H503.466C508.185 452.273 511.999 448.45 511.999 443.74C512 439.03 508.186 435.207 503.467 435.207Z" fill="#6E59B8"></path> <path d="M332.8 435.207H315.733C311.014 435.207 307.2 439.03 307.2 443.74C307.2 448.45 311.014 452.273 315.733 452.273H332.8C337.519 452.273 341.333 448.45 341.333 443.74C341.333 439.03 337.519 435.207 332.8 435.207Z" fill="#6E59B8"></path> </svg> 