<?xml version="1.0" encoding="UTF-8"?> <svg xmlns="http://www.w3.org/2000/svg" width="512" height="512" viewBox="0 0 512 512" fill="none"> <path d="M366.933 477.867H128C123.29 477.867 119.467 481.69 119.467 486.4V503.467C119.467 508.177 123.29 512 128 512C132.71 512 136.533 508.177 136.533 503.467V494.934H366.933C371.643 494.934 375.466 491.111 375.466 486.401C375.466 481.691 371.644 477.867 366.933 477.867Z" fill="#6E59B8"></path> <path d="M187.733 213.333C187.733 218.043 191.556 221.866 196.266 221.866H230.4C235.11 221.866 238.933 218.043 238.933 213.333V162.133C238.933 157.423 235.11 153.6 230.4 153.6H196.267C191.557 153.6 187.734 157.423 187.734 162.133V213.333H187.733ZM204.8 170.667H221.867V204.8H204.8V170.667Z" fill="#6E59B8"></path> <path d="M110.933 102.4H8.533C3.823 102.4 0 106.223 0 110.933V281.6C0 286.31 3.823 290.133 8.533 290.133C13.243 290.133 17.066 286.31 17.066 281.6V119.467H110.933C115.643 119.467 119.466 115.644 119.466 110.934C119.466 106.224 115.644 102.4 110.933 102.4Z" fill="#6E59B8"></path> <path d="M409.6 418.133C409.6 422.843 413.423 426.666 418.133 426.666H452.266C456.976 426.666 460.799 422.843 460.799 418.133V366.933C460.799 362.223 456.976 358.4 452.266 358.4H418.133C413.423 358.4 409.6 362.223 409.6 366.933V418.133ZM426.667 375.467H443.734V409.6H426.667V375.467Z" fill="#6E59B8"></path> <path d="M42.667 307.2C0.486 307.2 0 417.024 0 418.133C0 438.741 14.686 455.97 34.133 459.938V503.467C34.133 508.177 37.956 512 42.666 512C47.376 512 51.199 508.177 51.199 503.467V459.938C70.646 455.97 85.332 438.741 85.332 418.133C85.333 417.024 84.847 307.2 42.667 307.2ZM42.667 443.733C28.553 443.733 17.067 432.247 17.067 418.133C17.067 375.62 28.485 324.266 42.667 324.266C56.849 324.266 68.267 375.62 68.267 418.133C68.267 432.247 56.781 443.733 42.667 443.733Z" fill="#6E59B8"></path> <path d="M93.8669 256H59.733C55.023 256 51.2 259.823 51.2 264.533V281.6C51.2 286.31 55.023 290.133 59.733 290.133C64.443 290.133 68.2659 286.31 68.2659 281.6V273.067H85.333V315.734C85.333 320.444 89.1559 324.267 93.8659 324.267C98.5759 324.267 102.399 320.444 102.399 315.734V264.534C102.4 259.823 98.5769 256 93.8669 256Z" fill="#6E59B8"></path> <path d="M418.133 221.867H452.266C456.976 221.867 460.799 218.044 460.799 213.334V162.134C460.799 157.424 456.976 153.601 452.266 153.601H418.133C413.423 153.601 409.6 157.424 409.6 162.134V213.334C409.6 218.044 413.423 221.867 418.133 221.867ZM426.667 170.667H443.734V204.8H426.667V170.667Z" fill="#6E59B8"></path> <path d="M93.8669 153.6H59.733C55.023 153.6 51.2 157.423 51.2 162.133V213.333C51.2 218.043 55.023 221.866 59.733 221.866H93.8659C98.5759 221.866 102.399 218.043 102.399 213.333V162.133C102.4 157.423 98.5769 153.6 93.8669 153.6ZM85.333 204.8H68.2669V170.667H85.334V204.8H85.333Z" fill="#6E59B8"></path> <path d="M273.067 213.333C273.067 218.043 276.89 221.866 281.6 221.866H315.733C320.443 221.866 324.266 218.043 324.266 213.333V162.133C324.266 157.423 320.443 153.6 315.733 153.6H281.6C276.89 153.6 273.067 157.423 273.067 162.133V213.333ZM290.133 170.667H307.2V204.8H290.133V170.667Z" fill="#6E59B8"></path> <path d="M503.467 102.4H401.067C396.357 102.4 392.534 106.223 392.534 110.933C392.534 115.643 396.357 119.466 401.067 119.466H494.934V462.37C492.255 461.414 489.413 460.8 486.401 460.8C484.925 460.8 483.457 460.928 482.015 461.184C476.127 450.577 464.923 443.733 452.268 443.733C439.613 443.733 428.409 450.577 422.521 461.184C421.079 460.928 419.611 460.8 418.135 460.8C404.021 460.8 392.535 472.286 392.535 486.4C392.535 500.514 404.021 512 418.135 512H486.4C500.514 512 512 500.514 512 486.4V110.933C512 106.223 508.177 102.4 503.467 102.4ZM486.4 494.933H418.133C413.431 494.933 409.6 491.102 409.6 486.4C409.6 481.698 413.431 477.867 418.133 477.867C419.771 477.867 421.324 478.336 422.758 479.258C425.096 480.76 428.015 481.033 430.592 479.992C433.169 478.951 435.072 476.715 435.695 474.01C437.496 466.236 444.314 460.8 452.267 460.8C460.22 460.8 467.038 466.236 468.839 474.01C469.462 476.715 471.365 478.951 473.942 479.992C476.511 481.033 479.437 480.76 481.776 479.258C487.331 475.674 494.934 480.06 494.934 486.4C494.933 491.102 491.102 494.933 486.4 494.933Z" fill="#6E59B8"></path> <path d="M281.6 119.467H315.733C320.443 119.467 324.266 115.644 324.266 110.934V59.7341C324.266 55.0241 320.443 51.201 315.733 51.201H281.6C276.89 51.201 273.067 55.0241 273.067 59.7341V110.934C273.067 115.644 276.89 119.467 281.6 119.467ZM290.133 68.267H307.2V102.4H290.133V68.267Z" fill="#6E59B8"></path> <path d="M273.067 315.733C273.067 320.443 276.89 324.266 281.6 324.266H315.733C320.443 324.266 324.266 320.443 324.266 315.733V264.533C324.266 259.823 320.443 256 315.733 256H281.6C276.89 256 273.067 259.823 273.067 264.533V315.733ZM290.133 273.067H307.2V307.2H290.133V273.067Z" fill="#6E59B8"></path> <path d="M196.267 119.467H230.4C235.11 119.467 238.933 115.644 238.933 110.934V59.7341C238.933 55.0241 235.11 51.201 230.4 51.201H196.267C191.557 51.201 187.734 55.0241 187.734 59.7341V110.934C187.733 115.644 191.556 119.467 196.267 119.467ZM204.8 68.267H221.867V102.4H204.8V68.267Z" fill="#6E59B8"></path> <path d="M249.941 412.075C248.405 413.696 247.466 415.915 247.466 418.134C247.466 420.353 248.405 422.571 249.941 424.193C251.562 425.729 253.781 426.668 256 426.668C258.219 426.668 260.437 425.729 262.059 424.193C263.595 422.572 264.534 420.353 264.534 418.134C264.534 415.915 263.595 413.697 262.059 412.075C258.816 408.917 253.184 408.917 249.941 412.075Z" fill="#6E59B8"></path> <path d="M187.733 315.733C187.733 320.443 191.556 324.266 196.266 324.266H230.4C235.11 324.266 238.933 320.443 238.933 315.733V264.533C238.933 259.823 235.11 256 230.4 256H196.267C191.557 256 187.734 259.823 187.734 264.533V315.733H187.733ZM204.8 273.067H221.867V307.2H204.8V273.067Z" fill="#6E59B8"></path> <path d="M170.667 366.933C170.667 371.643 174.49 375.466 179.2 375.466H204.8V452.266C204.8 456.976 208.623 460.799 213.333 460.799C218.043 460.799 221.866 456.976 221.866 452.266V375.466H290.133V452.266C290.133 456.976 293.956 460.799 298.666 460.799C303.376 460.799 307.199 456.976 307.199 452.266V375.466H332.799C337.509 375.466 341.332 371.643 341.332 366.933C341.332 362.223 337.509 358.4 332.799 358.4H179.2C174.49 358.4 170.667 362.223 170.667 366.933Z" fill="#6E59B8"></path> <path d="M409.6 315.733C409.6 320.443 413.423 324.266 418.133 324.266H452.266C456.976 324.266 460.799 320.443 460.799 315.733V264.533C460.799 259.823 456.976 256 452.266 256H418.133C413.423 256 409.6 259.823 409.6 264.533V315.733ZM426.667 273.067H443.734V307.2H426.667V273.067Z" fill="#6E59B8"></path> <path d="M366.933 0H145.067C140.357 0 136.534 3.823 136.534 8.533V452.266C136.534 456.976 140.357 460.799 145.067 460.799C149.777 460.799 153.6 456.976 153.6 452.266V17.066H358.4V452.266C358.4 456.976 362.223 460.799 366.933 460.799C371.643 460.799 375.466 456.976 375.466 452.266V8.533C375.467 3.823 371.644 0 366.933 0Z" fill="#6E59B8"></path> </svg> 