<?xml version="1.0" encoding="UTF-8"?> <svg xmlns="http://www.w3.org/2000/svg" width="512" height="512" viewBox="0 0 512 512" fill="none"> <path d="M110.933 324.267C96.819 324.267 85.333 335.753 85.333 349.867C85.333 363.981 96.819 375.467 110.933 375.467C125.047 375.467 136.533 363.981 136.533 349.867C136.533 335.753 125.047 324.267 110.933 324.267ZM110.933 358.4C106.231 358.4 102.4 354.569 102.4 349.867C102.4 345.165 106.231 341.334 110.933 341.334C115.635 341.334 119.466 345.165 119.466 349.867C119.467 354.569 115.635 358.4 110.933 358.4Z" fill="#6E59B8"></path> <path d="M452.267 68.2671H25.6C11.486 68.2671 0 79.7531 0 93.8671V332.8C0 346.914 11.486 358.4 25.6 358.4C30.31 358.4 34.133 354.577 34.133 349.867C34.133 345.157 30.31 341.334 25.6 341.334C20.898 341.334 17.067 337.503 17.067 332.801V307.201H25.6C30.31 307.201 34.133 303.378 34.133 298.668C34.133 293.958 30.31 290.135 25.6 290.135H17.067V93.8671C17.067 89.1651 20.898 85.3341 25.6 85.3341H392.533V102.4H42.667C37.957 102.4 34.134 106.223 34.134 110.933C34.134 115.643 37.957 119.466 42.667 119.466H51.2V221.866H42.667C37.957 221.866 34.134 225.689 34.134 230.399C34.134 235.109 37.957 238.932 42.667 238.932H392.534V273.065C392.534 277.775 396.357 281.598 401.067 281.598C405.777 281.598 409.6 277.775 409.6 273.065V238.932H494.933V290.132H486.4C481.69 290.132 477.867 293.955 477.867 298.665C477.867 303.375 481.69 307.198 486.4 307.198H494.933V332.798C494.933 337.5 491.102 341.331 486.4 341.331H460.117C455.961 312.429 431.104 290.131 401.066 290.131C368.127 290.131 341.333 316.926 341.333 349.864C341.333 382.803 368.128 409.597 401.066 409.597C431.103 409.597 455.961 387.299 460.117 358.397H486.4C500.514 358.397 512 346.911 512 332.797V128C512 94.5071 485.76 68.2671 452.267 68.2671ZM136.533 221.867H68.267V119.467H136.534V221.867H136.533ZM221.867 221.867H153.6V119.467H221.867V221.867ZM307.2 221.867H238.933V119.467H307.2V221.867ZM392.533 221.867H324.266V119.467H392.533V221.867ZM401.067 392.533C377.541 392.533 358.4 373.393 358.4 349.866C358.4 326.34 377.54 307.199 401.067 307.199C424.593 307.199 443.734 326.339 443.734 349.866C443.733 373.393 424.593 392.533 401.067 392.533ZM494.933 221.867H466.073L476.97 200.081C479.078 195.866 477.363 190.746 473.147 188.638C468.923 186.513 463.803 188.237 461.695 192.452L446.992 221.866H409.6V85.3331H452.267C476.596 85.3331 494.934 103.671 494.934 128V221.867H494.933Z" fill="#6E59B8"></path> <path d="M324.267 349.867C324.267 345.157 320.444 341.334 315.734 341.334H169.984C165.828 312.432 140.971 290.134 110.933 290.134C77.9939 290.134 51.2 316.929 51.2 349.867C51.2 382.806 77.9949 409.6 110.933 409.6C140.97 409.6 165.828 387.302 169.984 358.4H315.733C320.444 358.4 324.267 354.577 324.267 349.867ZM110.933 392.533C87.4069 392.533 68.2659 373.393 68.2659 349.866C68.2659 326.34 87.4059 307.199 110.933 307.199C134.459 307.199 153.6 326.339 153.6 349.866C153.6 373.393 134.46 392.533 110.933 392.533Z" fill="#6E59B8"></path> <path d="M401.067 324.267C386.953 324.267 375.467 335.753 375.467 349.867C375.467 363.981 386.953 375.467 401.067 375.467C415.181 375.467 426.667 363.981 426.667 349.867C426.667 335.753 415.181 324.267 401.067 324.267ZM401.067 358.4C396.365 358.4 392.534 354.569 392.534 349.867C392.534 345.165 396.365 341.334 401.067 341.334C405.769 341.334 409.6 345.165 409.6 349.867C409.6 354.569 405.769 358.4 401.067 358.4Z" fill="#6E59B8"></path> <path d="M128 426.667H8.533C3.823 426.667 0 430.49 0 435.2C0 439.91 3.823 443.733 8.533 443.733H128C132.71 443.733 136.533 439.91 136.533 435.2C136.533 430.49 132.71 426.667 128 426.667Z" fill="#6E59B8"></path> <path d="M332.8 426.667H315.733C311.023 426.667 307.2 430.49 307.2 435.2C307.2 439.91 311.023 443.733 315.733 443.733H332.8C337.51 443.733 341.333 439.91 341.333 435.2C341.333 430.49 337.51 426.667 332.8 426.667Z" fill="#6E59B8"></path> <path d="M503.467 426.667H366.933C362.223 426.667 358.4 430.49 358.4 435.2C358.4 439.91 362.223 443.733 366.933 443.733H503.466C508.176 443.733 511.999 439.91 511.999 435.2C511.999 430.49 508.177 426.667 503.467 426.667Z" fill="#6E59B8"></path> <path d="M264.533 426.667H179.2C174.49 426.667 170.667 430.49 170.667 435.2C170.667 439.91 174.49 443.733 179.2 443.733H264.533C269.243 443.733 273.066 439.91 273.066 435.2C273.066 430.49 269.244 426.667 264.533 426.667Z" fill="#6E59B8"></path> <path d="M332.8 307.2C337.51 307.2 341.333 303.377 341.333 298.667C341.333 293.957 337.51 290.134 332.8 290.134H179.2C174.49 290.134 170.667 293.957 170.667 298.667C170.667 303.377 174.49 307.2 179.2 307.2H332.8Z" fill="#6E59B8"></path> </svg> 