<svg width="107" height="107" viewBox="0 0 107 107" fill="none" xmlns="http://www.w3.org/2000/svg">
<path fill-rule="evenodd" clip-rule="evenodd" d="M84.1599 102.755C66.1425 102.755 57.8317 77.1159 76.9234 67.8349C83.6959 64.5426 92.7542 66.715 97.152 71.146C108.694 82.7781 101.119 102.755 84.1599 102.755ZM62.4897 90.1681L17.5644 90.3442C10.8783 90.3938 4.53556 89.0623 4.53556 78.588V36.7991C4.53556 35.6389 4.88569 35.2885 6.04698 35.2885H90.2069V62.4766C81.7008 61.7696 74.0897 60.8993 66.4339 70.4452C62.4671 75.3918 60.7248 82.5995 62.4897 90.1681ZM4.53556 29.7504C4.53556 22.5091 3.96747 13.1351 15.1182 13.1351V15.6524C15.1182 22.2535 29.2287 25.7873 29.2287 13.1351H66.0177C66.0177 17.2824 67.0945 21.6945 73.0729 21.6945C77.18 21.6945 80.1282 18.2939 80.1282 13.1351C86.5327 13.1351 90.2069 18.4426 90.2069 21.6945V31.2605H6.04698C4.88569 31.2605 4.53556 30.91 4.53556 29.7504ZM70.0488 13.6391C70.0488 6.22707 69.1697 3.70175 75.0888 5.07969C75.6232 7.37136 77.0771 17.1631 73.0729 17.1631C71.0038 17.1631 70.0488 15.7729 70.0488 13.6391ZM19.1499 13.6391C19.1499 8.02517 18.299 4.57631 22.6772 4.57631C26.2162 4.57631 24.6472 14.6953 24.1893 16.6597C23.1755 16.8958 19.1499 18.5472 19.1499 13.6391ZM15.1182 6.08638V8.60374C5.96927 8.60374 0 15.5173 0 24.7151V78.588C0 85.2343 2.6458 89.392 6.53247 92.2011C11.199 95.5734 16.4478 94.6994 24.1893 94.6994C37.6283 94.6994 51.0666 94.6994 64.5056 94.6994C66.0764 101.435 79.6286 110.824 92.3122 105.361C96.0262 103.762 96.9678 103.993 100.927 99.8711C113.995 86.2654 103.149 66.7334 94.7425 64.4906C94.7425 52.7424 94.7425 40.9947 94.7425 29.2465C94.7425 22.0797 95.0982 18.8535 91.8812 14.4837C89.5023 11.2513 85.5061 8.60374 80.1282 8.60374C80.1282 -2.33902 67.362 -2.30903 66.1095 5.67481C65.8414 7.38056 66.4015 8.60374 64.5056 8.60374H29.2287C29.2287 5.85521 28.8969 4.25525 27.6052 2.67426C23.1216 -2.8118 15.1182 1.22354 15.1182 6.08638Z" fill="#BDBDBD"/>
<path fill-rule="evenodd" clip-rule="evenodd" d="M22.173 49.8899H27.7168V55.4279H22.173V49.8899ZM18.1419 45.8619C17.2389 49.7321 17.6375 53.3082 17.6375 57.9453C17.6375 61.1116 23.7843 59.9593 30.2365 59.9593C33.4057 59.9593 32.2524 53.8182 32.2524 47.372C32.2524 43.7342 18.8863 45.5732 18.1419 45.8619Z" fill="#BDBDBD"/>
<path fill-rule="evenodd" clip-rule="evenodd" d="M22.173 70.5328H27.7168V76.0708H22.173V70.5328ZM17.6375 68.0154C17.6375 72.6519 17.2389 76.2285 18.1419 80.0988C21.8461 80.9611 28.0438 80.9611 31.748 80.0988C32.651 76.2285 32.2524 72.6519 32.2524 68.0154C32.2524 64.8491 26.1056 66.0014 19.6533 66.0014C18.4737 66.0014 17.6375 66.8368 17.6375 68.0154Z" fill="#BDBDBD"/>
<path fill-rule="evenodd" clip-rule="evenodd" d="M44.8507 49.8898H50.3946V55.4278H44.8507V49.8898ZM40.3152 47.3718C40.3152 62.427 37.8451 59.9591 52.9143 59.9591C56.5261 59.9591 54.6375 48.4054 54.4257 45.8617C50.5519 44.9596 46.9726 45.3578 42.3311 45.3578C41.1514 45.3578 40.3152 46.1933 40.3152 47.3718Z" fill="#BDBDBD"/>
<path fill-rule="evenodd" clip-rule="evenodd" d="M44.8515 70.5326H50.3953V76.0706H44.8515V70.5326ZM40.3159 68.0152C40.3159 82.6099 37.9811 80.602 51.4029 80.602C56.1093 80.602 54.9309 75.8223 54.9309 69.0219C54.9309 64.7487 51.9986 66.0012 42.3318 66.0012C41.1522 66.0012 40.3159 66.8367 40.3159 68.0152Z" fill="#BDBDBD"/>
<path fill-rule="evenodd" clip-rule="evenodd" d="M67.026 49.8899H73.0736V55.4279H67.026V49.8899ZM62.4904 48.8826C62.4904 61.9452 61.0298 59.9593 75.0895 59.9593C78.2581 59.9593 77.1047 53.8182 77.1047 47.3719C77.1047 44.2418 71.2438 45.3579 65.0101 45.3579C63.3811 45.3579 62.4904 47.186 62.4904 48.8826Z" fill="#BDBDBD"/>
<path fill-rule="evenodd" clip-rule="evenodd" d="M82.1443 74.0566C82.1443 88.006 80.4817 86.644 89.7034 86.644C94.0767 86.644 92.4789 83.7138 92.223 82.616L86.6792 82.1127C86.6792 76.2878 87.6513 72.0426 84.1601 72.0426C82.9805 72.0426 82.1443 72.8781 82.1443 74.0566Z" fill="#BDBDBD"/>
</svg>
