<svg width="24" height="24" viewBox="0 0 24 24" fill="none" xmlns="http://www.w3.org/2000/svg">
<path fill-rule="evenodd" clip-rule="evenodd" d="M18.877 23.0479C14.8357 23.0479 12.9716 17.297 17.2539 15.2153C18.7729 14.4768 20.8047 14.9641 21.7911 15.958C24.3801 18.567 22.681 23.0479 18.877 23.0479ZM14.0164 20.2246L3.93968 20.2641C2.43998 20.2752 1.01732 19.9766 1.01732 17.6272V8.25401C1.01732 7.99378 1.09586 7.91517 1.35633 7.91517H20.2333V14.0134C18.3254 13.8549 16.6183 13.6597 14.9011 15.8008C14.0113 16.9103 13.6205 18.527 14.0164 20.2246ZM1.01732 6.673C1.01732 5.04877 0.889901 2.94619 3.39099 2.94619V3.51083C3.39099 4.99143 6.55597 5.78406 6.55597 2.94619H14.8077C14.8077 3.87642 15.0492 4.86605 16.3902 4.86605C17.3114 4.86605 17.9727 4.10331 17.9727 2.94619C19.4092 2.94619 20.2333 4.13665 20.2333 4.86605V7.0117H1.35633C1.09586 7.0117 1.01732 6.93309 1.01732 6.673ZM15.7119 3.05923C15.7119 1.39673 15.5147 0.8303 16.8423 1.13937C16.9622 1.65339 17.2883 3.84967 16.3902 3.84967C15.9261 3.84967 15.7119 3.53785 15.7119 3.05923ZM4.2953 3.05923C4.2953 1.80004 4.10444 1.02646 5.08648 1.02646C5.88026 1.02646 5.52834 3.29614 5.42563 3.73676C5.19825 3.78972 4.2953 4.16011 4.2953 3.05923ZM3.39099 1.36517V1.92981C1.3389 1.92981 0 3.48051 0 5.54358V17.6272C0 19.118 0.59345 20.0505 1.46523 20.6806C2.51193 21.437 3.68922 21.241 5.42563 21.241C8.43998 21.241 11.4542 21.241 14.4685 21.241C14.8209 22.7518 17.8606 24.8576 20.7055 23.6325C21.5386 23.2738 21.7498 23.3255 22.6378 22.401C25.569 19.3493 23.1363 14.9682 21.2507 14.4652C21.2507 11.8301 21.2507 9.19508 21.2507 6.55996C21.2507 4.95246 21.3304 4.22883 20.6089 3.24867C20.0753 2.52367 19.1789 1.92981 17.9727 1.92981C17.9727 -0.524641 15.1092 -0.517914 14.8283 1.27285C14.7682 1.65545 14.8938 1.92981 14.4685 1.92981H6.55597C6.55597 1.31332 6.48154 0.954448 6.19181 0.599834C5.18616 -0.630685 3.39099 0.27444 3.39099 1.36517Z" fill="white"/>
<path fill-rule="evenodd" clip-rule="evenodd" d="M4.97339 11.1903H6.21686V12.4324H4.97339V11.1903ZM4.0692 10.2868C3.86667 11.1549 3.95607 11.957 3.95607 12.9971C3.95607 13.7073 5.33479 13.4488 6.78203 13.4488C7.49288 13.4488 7.23418 12.0714 7.23418 10.6255C7.23418 9.80953 4.23617 10.222 4.0692 10.2868Z" fill="white"/>
<path fill-rule="evenodd" clip-rule="evenodd" d="M4.97339 15.8204H6.21686V17.0626H4.97339V15.8204ZM3.95607 15.2558C3.95607 16.2958 3.86667 17.098 4.0692 17.9661C4.90006 18.1595 6.29019 18.1595 7.12105 17.9661C7.32358 17.098 7.23418 16.2958 7.23418 15.2558C7.23418 14.5456 5.85546 14.804 4.40823 14.804C4.14363 14.804 3.95607 14.9914 3.95607 15.2558Z" fill="white"/>
<path fill-rule="evenodd" clip-rule="evenodd" d="M10.06 11.1902H11.3035V12.4324H10.06V11.1902ZM9.04266 10.6255C9.04266 14.0023 8.48862 13.4488 11.8686 13.4488C12.6788 13.4488 12.2551 10.8573 12.2076 10.2867C11.3387 10.0844 10.5359 10.1737 9.49483 10.1737C9.23023 10.1737 9.04266 10.3611 9.04266 10.6255Z" fill="white"/>
<path fill-rule="evenodd" clip-rule="evenodd" d="M10.0601 15.8204H11.3036V17.0626H10.0601V15.8204ZM9.04282 15.2558C9.04282 18.5293 8.51912 18.0789 11.5296 18.0789C12.5853 18.0789 12.3209 17.0069 12.3209 15.4816C12.3209 14.5231 11.6632 14.804 9.49499 14.804C9.23039 14.804 9.04282 14.9914 9.04282 15.2558Z" fill="white"/>
<path fill-rule="evenodd" clip-rule="evenodd" d="M15.0339 11.1903H16.3903V12.4324H15.0339V11.1903ZM14.0165 10.9643C14.0165 13.8942 13.6889 13.4488 16.8425 13.4488C17.5532 13.4488 17.2945 12.0714 17.2945 10.6255C17.2945 9.92338 15.9799 10.1737 14.5817 10.1737C14.2163 10.1737 14.0165 10.5838 14.0165 10.9643Z" fill="white"/>
<path fill-rule="evenodd" clip-rule="evenodd" d="M18.4249 16.6108C18.4249 19.7397 18.052 19.4342 20.1204 19.4342C21.1013 19.4342 20.7429 18.7769 20.6855 18.5307L19.4421 18.4178C19.4421 17.1113 19.6601 16.1591 18.877 16.1591C18.6124 16.1591 18.4249 16.3465 18.4249 16.6108Z" fill="white"/>
</svg>
