<svg width="79" height="113" viewBox="0 0 79 113" fill="none" xmlns="http://www.w3.org/2000/svg">
<path fill-rule="evenodd" clip-rule="evenodd" d="M50.4601 100.017H72.6931C74.9999 100.017 74.1433 103.914 74.1433 108.191C70.2971 109.083 52.8561 109.083 49.0099 108.191C49.0099 103.914 48.1533 100.017 50.4601 100.017ZM23.3939 70.6848V80.3022H17.5937V5.76985C17.5937 3.76226 19.2711 4.32765 23.3939 4.32765C23.3939 13.3971 22.9089 51.0722 23.4191 57.196C24.1718 66.2351 23.3939 62.1749 23.3939 70.6848ZM31.61 62.5102C31.61 66.0323 35.0124 74.752 35.4768 80.3022C31.3393 80.3022 27.7438 81.1275 27.7438 78.8594V5.76985C27.7438 4.66237 28.0797 4.32765 29.1934 4.32765H51.9102C56.5796 4.32765 57.2266 8.72252 57.2266 12.5017V58.6638C57.2266 64.5785 56.7434 68.6673 56.7434 74.5317C55.3461 74.0282 55.0273 73.3244 53.7432 71.2654C49.0768 63.7865 44.32 52.8116 37.2933 54.6591C34.0184 55.5201 31.61 58.6381 31.61 62.5102ZM61.5766 43.7574L69.242 52.9612C78.3066 64.905 74.3048 64.9155 74.1239 79.8021C74.0376 86.9253 73.1763 90.7121 73.1763 95.6893H53.3599C51.7007 95.6893 46.453 90.8681 45.2054 89.3763C42.2815 85.8798 40.7896 85.5352 39.8203 79.8279C39.0289 75.1661 35.5361 63.7958 35.6559 62.6638C36.1755 57.7625 39.5238 56.9162 44.1943 62.974C46.9784 66.5844 53.9223 84.5071 59.6808 77.9347C61.8067 75.5084 61.0723 70.9032 61.077 67.7835C61.0811 64.7438 61.6012 63.7865 61.5877 60.5984L61.5766 43.7574ZM13.2438 10.0975L13.727 80.3022C0.0846469 80.3022 6.06269 75.874 4.33949 64.6363L4.52325 10.5583C4.50975 8.5601 4.42581 7.29607 5.38868 6.12961C7.06021 4.10392 9.85489 4.32765 12.2768 4.32765C13.9066 4.32765 12.8292 4.12966 13.3788 5.02043C13.8943 5.85687 13.2438 8.91585 13.2438 10.0975ZM0.193851 7.6933C0.193851 16.4415 -0.572355 75.7467 0.941826 79.558C3.62027 86.2986 13.3941 84.1216 20.9937 84.1321C23.6493 84.1356 24.1014 84.513 26.2913 84.6322C30.5556 84.8635 33.0837 84.1485 36.927 84.1485C37.7789 87.7857 40.8225 91.4872 43.5767 93.8821C44.9934 95.1134 45.5224 95.0597 46.5933 96.6508C43.9724 101.579 44.6599 99.0696 44.6599 107.71C44.6599 110.759 47.74 113 50.9433 113H72.2099C79.8319 113 78.4933 106.506 78.4933 100.978C78.4933 98.3984 77.1552 99.7944 77.521 93.767L78.9688 70.1737C79.1544 58.8759 78.7927 58.1031 69.7933 46.6423L62.0756 37.4589C60.6959 35.5617 61.5913 36.873 61.5778 30.7761C61.5378 12.6167 64.8216 0 49.9769 0H10.344C4.72171 0 0.193851 3.53152 0.193851 7.6933Z" fill="#BDBDBD"/>
<path fill-rule="evenodd" clip-rule="evenodd" d="M38.86 10.5788C37.775 15.2102 38.3762 29.8777 38.3762 35.5827C38.3762 36.5605 38.7913 36.904 39.5275 37.3929C41.2108 38.5103 43.2099 37.3456 43.2099 33.6593V13.4637C43.2099 10.1273 41.1497 9.69448 38.86 10.5788Z" fill="#BDBDBD"/>
<path fill-rule="evenodd" clip-rule="evenodd" d="M45.6268 10.5789C44.5418 15.2103 45.1436 29.8778 45.1436 35.5828C45.1436 38.0594 49.4936 38.8188 49.4936 36.0635V12.021C49.4936 9.55489 46.9748 10.0578 45.6268 10.5789Z" fill="#BDBDBD"/>
</svg>
