<svg width="99" height="67" viewBox="0 0 99 67" fill="none" xmlns="http://www.w3.org/2000/svg">
<path fill-rule="evenodd" clip-rule="evenodd" d="M93.3695 62.8699H83.9858C84.1118 57.3305 90.1402 52.416 94.7773 52.3151C94.7773 58.655 95.7524 62.8699 93.3695 62.8699ZM4.22274 61.4929V52.3151C7.24631 52.3809 9.50161 53.9935 11.3881 55.8616C13.2547 57.7101 14.74 59.65 15.0142 62.8699C12.9806 62.8699 10.9385 62.8514 8.90602 62.8781C6.7368 62.9066 4.22274 63.4925 4.22274 61.4929ZM4.22274 46.808C4.22274 34.0078 3.0156 33.7469 6.32985 32.8076C7.47259 32.4838 8.16222 32.3801 9.19668 31.9403C14.4869 29.6938 19.0944 24.6259 19.2369 18.3563C24.2342 18.3563 27.8437 18.8151 32.3742 18.8151C36.0686 18.8151 37.7522 18.3095 41.299 18.3346C44.5648 18.3569 46.8577 18.8151 50.673 18.8151C55.57 18.8151 60.4783 17.8775 65.0197 18.5498C69.5912 19.2271 74.9453 18.8151 79.7631 18.8151C80.3416 25.6171 87.5925 33.3433 94.7773 33.5C94.7773 53.5113 95.5341 46.4456 89.8501 49.3316C86.0308 51.2704 83.7453 53.2226 81.5938 56.8594C80.7531 58.2815 79.8144 60.5999 79.7631 62.8699H19.2369C19.1514 59.106 16.2925 54.6954 14.2168 52.6362C10.3121 48.7619 4.22274 49.1671 4.22274 46.808ZM4.22274 29.3698V18.8151C8.50818 18.8151 11.4309 19.1724 15.0142 18.3563C14.8842 24.0674 8.72134 29.2717 4.22274 29.3698ZM94.7773 18.3563V29.3698C90.31 29.2728 86.4971 25.6522 84.7519 22.1882C83.6325 19.9657 82.3387 17.8379 86.6344 18.4506C89.968 18.9261 90.8976 18.3563 94.7773 18.3563ZM0 19.7327V62.4111C0 65.9977 2.87311 67 6.56865 67H93.3695C100.885 67 98.6672 59.791 98.6672 58.2809C98.6672 57.1632 99 56.8772 99 55.0683L98.931 37.2383C97.4412 24.2575 102.093 14.685 93.3695 14.685H4.22274C1.34279 14.685 0 16.8691 0 19.7327Z" fill="#BDBDBD"/>
<path fill-rule="evenodd" clip-rule="evenodd" d="M34.7204 41.7603C34.7204 19.6558 64.2796 22.837 64.2796 39.9245C64.2796 43.2168 64.3178 44.4495 62.6861 47.5439L61.5239 49.6197C59.6864 52.2994 53.9493 55.5276 49.2655 55.5276C44.6272 55.5276 41.0531 53.4923 38.0347 50.4503C37.9674 50.3829 37.8682 50.2876 37.8044 50.2168C37.7406 50.1454 37.6494 50.0434 37.5895 49.9681C36.1225 48.1213 34.7204 44.3447 34.7204 41.7603ZM30.4977 40.3834C30.4977 43.9109 30.8083 46.0504 32.5204 49.4191C35.2995 54.8854 42.9436 59.8278 49.9677 59.3807C53.6718 59.1455 53.181 59.053 55.7139 58.1633C56.3631 57.9353 56.7814 57.8617 57.5001 57.6153C62.0078 56.0689 64.1109 53.0821 65.9484 49.8171C71.1885 40.5049 67.7386 30.1219 59.6385 25.1901C56.644 23.3667 52.692 21.7918 48.874 22.0728C39.1398 22.7902 30.4977 29.9462 30.4977 40.3834Z" fill="#BDBDBD"/>
<path fill-rule="evenodd" clip-rule="evenodd" d="M7.97663 9.17786C7.97663 11.8664 8.96605 10.6835 15.5524 11.4054C20.2163 11.9171 44.0851 10.5396 53.0213 11.0112C55.1284 11.1227 55.6192 11.4851 58.1754 11.499L83.1157 11.4054C94.4184 12.6496 91.0221 7.34273 89.1469 7.34273H10.7916C9.35133 7.34273 7.97663 7.76751 7.97663 9.17786Z" fill="#BDBDBD"/>
<path fill-rule="evenodd" clip-rule="evenodd" d="M13.6065 1.83567C13.6065 3.0392 13.9554 4.13014 15.4834 4.13014H82.5783C86.7075 4.13014 85.7899 0 83.5164 0H16.4221C14.9812 0 13.6065 0.42476 13.6065 1.83567Z" fill="#BDBDBD"/>
</svg>
