<svg width="71" height="68" viewBox="0 0 71 68" fill="none" xmlns="http://www.w3.org/2000/svg">
<path fill-rule="evenodd" clip-rule="evenodd" d="M61.218 65.1185C61.4903 61.8187 64.7446 58.9249 68.16 58.123C68.16 59.6225 68.7719 64.3114 67.6989 64.9719L61.218 65.1185ZM2.52448 62.8927V43.8144C2.52448 42.7181 2.75784 42.583 2.84003 41.5886C4.30414 41.2446 10.0979 40.0449 10.0979 42.5425V63.8466C10.0979 66.1198 3.46485 65.0937 3.46336 65.0928C2.91413 64.7515 2.52448 63.8315 2.52448 62.8927ZM37.8668 44.7683C37.8668 47.2018 41.8875 46.3579 46.7022 46.3579C47.9951 46.3579 53.0422 46.0629 53.9508 46.6852C55.1581 47.5125 55.7293 50.7706 52.0934 50.8365C50.4367 50.8667 48.6889 50.8096 47.0178 50.8096C43.5562 50.8096 37.8668 50.0751 37.8668 52.0815C37.8668 54.0655 42.9458 53.3552 46.3867 53.3534C49.6718 53.3519 53.2681 52.8843 53.7957 55.4389C54.5123 58.9104 48.2935 58.123 47.0178 58.123C45.335 58.1227 43.6513 58.1281 41.9685 58.1227C38.8849 58.1124 37.8668 57.5221 37.8668 59.7129C37.8668 62.536 52.6979 58.3446 52.6979 62.5747C52.6979 66.1939 50.9149 64.9577 44.4219 65.3352C42.9098 65.4231 44.1534 65.1185 42.5999 65.1185C41.0467 65.1185 42.2904 65.4231 40.778 65.3352C37.7826 65.1611 39.9819 64.9589 36.4663 65.3089C34.5571 65.499 36.0143 65.1185 34.7109 65.1185C33.3986 65.1185 34.2103 65.3349 33.1758 65.3092L27.4534 65.1185C26.2098 65.1185 26.013 65.3437 25.2445 65.3437L19.945 65.0746C11.9013 62.8533 13.2484 57.0367 12.9211 53.0523L12.6224 44.7683C12.6224 43.5191 13.4479 43.945 14.5955 43.5768C15.5401 43.274 16.1136 42.8759 16.8048 42.3052C20.6026 39.1705 19.4123 39.1448 22.399 34.5877C23.2848 33.2363 24.083 31.8341 25.8756 31.4134C26.2916 32.2875 27.67 37.5283 27.7689 38.7268C30.9605 39.4761 44.469 39.0523 49.5423 39.0445C51.2346 39.0421 54.9068 38.4233 54.9068 41.2706C54.9068 44.3258 51.3132 43.4961 47.0178 43.4961C43.5562 43.4961 37.8668 42.7616 37.8668 44.7683ZM52.6979 26.9617C53.6511 26.9617 55.8187 27.6137 56.4924 27.9078C61.3533 30.029 64.8982 37.9292 59.255 43.7446C58.6836 44.3334 57.0752 46.0692 56.4054 45.3943C55.5055 44.4875 59.2697 42.4397 55.9635 37.9799C54.2262 35.6362 46.5225 36.501 42.5999 36.501C42.7109 31.4823 46.9407 26.9617 52.6979 26.9617ZM40.0755 35.547V36.501H36.2888L36.3848 34.8851C36.4025 34.3135 36.3947 34.8319 36.3398 33.9176L36.2888 18.3767C39.4117 17.6434 40.8434 17.1468 42.8405 15.1211C44.4078 13.5315 46.0711 11.5438 46.0711 8.51944H57.7468C59.5442 8.51944 57.9994 13.984 64.5967 17.1976C64.996 17.3919 65.9627 17.7546 66.4382 17.8855C67.3795 18.1449 68.16 17.8861 68.16 19.0126V55.5792C65.3037 55.5792 63.2538 57.1222 61.6778 58.5864C59.261 60.8315 58.6974 64.4475 58.3779 65.1185C56.2431 65.6196 57.2345 65.1635 55.2223 65.1185C55.2223 63.6882 55.5505 63.5582 55.4893 62.5895C55.4188 61.4814 54.8024 61.2904 54.7412 60.2566C54.6356 58.4685 58.1727 57.7352 55.5379 52.7174C56.8217 50.7854 57.4312 51.4014 57.4312 47.9478C61.0485 47.0987 64.6888 42.1148 64.6888 37.7729V35.865C64.6888 30.1282 59.0223 24.4179 53.329 24.4179H51.4356C45.8749 24.4179 40.0755 30.019 40.0755 35.547ZM61.218 8.51944C69.6622 8.51944 68.16 7.00572 68.16 15.5149C65.8887 14.9817 65.1184 14.5359 63.654 13.06C63.0006 12.4019 62.5471 11.9609 62.1025 11.1255C61.6205 10.2196 61.5707 9.31559 61.218 8.51944ZM36.2888 14.561C36.2888 7.35998 35.241 8.51944 43.5466 8.51944C42.2556 14.1031 36.2888 16.8007 36.2888 14.561ZM33.7643 36.183C33.3773 36.3668 33.7871 36.2217 33.2966 36.2963L31.9114 36.4266C31.5445 36.4562 31.4369 36.5514 30.9359 36.4711C29.5279 36.2456 29.6779 34.8869 29.2811 33.3874L23.3511 11.0633C26.1311 9.18744 31.3904 8.86581 34.0801 7.5655C33.4976 14.6199 33.7643 28.8898 33.7643 36.183ZM54.5912 5.65767H42.2844C43.1825 5.02898 44.4717 4.86636 45.6311 4.57831C52.1798 2.95095 54.4829 0.764116 54.5912 5.65767ZM20.8266 11.0633C20.8266 13.6615 24.4283 25.3395 25.2445 28.8696C22.2976 29.1168 20.0581 32.8887 19.0272 35.3234C18.5223 36.5152 17.3306 38.2655 16.4994 39.1361C15.412 40.2756 14.355 41.2247 12.3065 41.2706C11.374 37.7505 7.68891 38.4088 4.73339 38.4088C2.2941 38.4088 0 40.2535 0 42.5425V64.4825C0 65.5422 1.87445 67.9799 4.10227 67.9799C10.7452 67.9799 10.6577 68.5065 12.9377 64.1645L14.2308 65.0876C14.2785 65.1318 14.3418 65.2013 14.3897 65.2454C16.1679 66.8809 18.9561 67.9799 21.4577 67.9799H66.8977C69.5221 67.9799 71 65.9152 71 64.1645V10.1093C71 7.23121 69.3706 5.77011 66.5924 5.6477C63.6762 5.51924 60.3901 5.65767 57.4312 5.65767C56.7518 -2.56888 51.6327 0.0341574 44.6757 2.02574L27.4912 6.64966C24.9028 7.42344 20.8266 7.69549 20.8266 11.0633Z" fill="#FFBB00"/>
</svg>
