<svg width="104" height="94" viewBox="0 0 104 94" fill="none" xmlns="http://www.w3.org/2000/svg">
<path fill-rule="evenodd" clip-rule="evenodd" d="M81.7815 30.1577H92.6542V89.6278H81.7815V30.1577ZM22.2179 80.5884V89.6278H12.7636C11.1971 89.6278 11.6542 89.64 11.4366 87.816L11.3447 36.3415C11.3206 28.9301 9.3894 30.1577 22.2179 30.1577C22.2179 36.1994 22.6911 40.5754 22.6911 46.3333C22.6911 52.5825 22.0169 57.2331 22.2024 63.4765C22.288 66.3517 23.0219 68.408 22.6222 71.9547C22.3109 74.7132 22.2179 77.1601 22.2179 80.5884ZM25.9999 33.9633V16.8358C25.9999 15.74 26.3289 15.4089 27.4182 15.4089H78.0001V89.6278H25.9999V52.5183C25.9999 50.0217 26.4018 48.9473 26.4501 47.2575L25.9999 39.197C25.9999 38.0319 26.2652 37.3604 26.279 36.7593C26.3088 35.489 25.9999 35.7873 25.9999 33.9633ZM37.3451 10.1751C37.3451 5.81638 36.7467 3.99015 38.7635 3.99015H65.2365C67.2533 3.99015 66.6543 5.81638 66.6543 10.1751C66.6543 12.4655 62.1988 11.6067 60.0368 11.6026L39.3377 11.5506C36.9833 11.3778 37.3451 11.3853 37.3451 10.1751ZM22.2179 13.5057V26.3514H9.45429C8.34773 26.3514 7.5639 27.1408 7.5639 28.2545V89.6278C3.67917 89.6278 0 88.8684 0 91.5309C0 95.5238 9.77241 92.974 15.5751 93.4589C23.2165 94.0975 17.9806 93.6895 23.2079 93.5283C24.7945 93.4797 29.5779 94.2934 34.4842 93.8848C36.5871 93.7097 37.8614 93.3191 40.678 93.4266L45.6526 93.6652C47.8227 93.8802 50.0203 93.3693 55.8661 93.8559C58.136 94.0449 58.0378 93.4341 60.5088 93.4341L69.0179 93.9097C70.9864 93.9097 71.1208 93.5647 72.3714 93.5283C73.9678 93.4814 73.9449 93.9097 76.1092 93.9097C79.96 93.9097 82.5694 93.2786 85.9631 93.4994C87.6933 93.6121 86.3318 93.6236 87.7261 93.5623L99.8758 93.5964C101.823 93.3866 102.493 93.3115 104 92.9584C104 85.3788 96.4361 93.4941 96.4361 87.249C96.4361 85.7817 96.6716 86.1758 96.6698 85.3459L96.4361 58.7033C96.4361 56.5725 96.8134 57.3388 96.6853 55.549C96.1392 47.9209 96.4361 34.6793 96.4361 26.827C92.1913 25.8318 86.2973 26.3514 81.7815 26.3514C81.7815 21.8066 82.2978 15.8753 81.3089 11.6026H70.9088C70.9088 7.25775 71.2775 4.29355 70.4362 0.660109C65.6603 -0.459919 42.1222 0.184446 35.4547 0.184446C31.1675 0.184446 35.3445 8.96321 33.1428 11.179C30.9412 13.3954 22.2179 9.19091 22.2179 13.5057Z" fill="#BDBDBD"/>
<path fill-rule="evenodd" clip-rule="evenodd" d="M43.9638 57.7514V61.5576C49.8274 61.5576 49.1636 62.2032 49.1636 57.7514C49.1636 55.5761 43.9638 55.5761 43.9638 57.7514Z" fill="#BDBDBD"/>
<path fill-rule="evenodd" clip-rule="evenodd" d="M43.9638 34.4396V39.197C50.1432 39.197 49.1636 39.6837 49.1636 34.4396C47.4391 34.035 46.2022 33.5652 43.9638 34.4396Z" fill="#BDBDBD"/>
<path fill-rule="evenodd" clip-rule="evenodd" d="M66.182 27.7783C70.487 28.4267 71.3817 29.2856 71.3817 24.4483C71.3817 22.5059 69.9002 23.0208 66.182 23.0208V27.7783Z" fill="#BDBDBD"/>
<path fill-rule="evenodd" clip-rule="evenodd" d="M43.9638 27.7783C49.4358 29.0619 49.1636 27.164 49.1636 24.4483C49.1636 22.5059 47.6815 23.0208 43.9638 23.0208V27.7783Z" fill="#BDBDBD"/>
<path fill-rule="evenodd" clip-rule="evenodd" d="M66.1818 34.4395C66.1818 39.3721 65.3996 39.197 69.9637 39.197C72.3215 39.197 71.9046 33.9633 69.4911 33.9633L66.1818 34.4395Z" fill="#BDBDBD"/>
<path fill-rule="evenodd" clip-rule="evenodd" d="M43.9638 72.5002H49.1636V69.1702C49.1636 68.0739 48.8345 67.7427 47.7452 67.7427H43.9638V72.5002Z" fill="#BDBDBD"/>
<path fill-rule="evenodd" clip-rule="evenodd" d="M55.3092 56.8001C55.3092 61.9634 54.4002 61.5576 60.0364 61.5576C60.0364 58.9379 61.3405 54.4439 55.3092 56.8001Z" fill="#BDBDBD"/>
<path fill-rule="evenodd" clip-rule="evenodd" d="M55.3091 35.3907V39.1969H60.0363C60.0363 33.402 60.599 33.9632 56.7275 33.9632C55.6381 33.9632 55.3091 34.2944 55.3091 35.3907Z" fill="#BDBDBD"/>
<path fill-rule="evenodd" clip-rule="evenodd" d="M66.182 50.1395H71.3817C70.8224 47.481 71.3604 49.9089 71.3616 47.6445C71.3627 46.1581 71.4868 45.382 69.9639 45.382H66.182V50.1395Z" fill="#BDBDBD"/>
<path fill-rule="evenodd" clip-rule="evenodd" d="M43.9638 50.1395H48.691C48.8139 48.6513 49.1636 48.449 49.1636 46.8089C49.1636 45.7131 48.8345 45.382 47.7452 45.382H43.9638V50.1395Z" fill="#BDBDBD"/>
<path fill-rule="evenodd" clip-rule="evenodd" d="M55.3091 27.7782C56.5765 28.0839 56.2003 28.2544 57.2001 28.2544C58.9802 28.2544 58.0936 27.9412 60.0363 27.7782V23.0207H55.3091V27.7782Z" fill="#BDBDBD"/>
<path fill-rule="evenodd" clip-rule="evenodd" d="M33.0917 26.8269C33.0917 28.8982 36.0243 28.1989 37.8188 27.7782V23.0207H33.0917V26.8269Z" fill="#BDBDBD"/>
<path fill-rule="evenodd" clip-rule="evenodd" d="M33.0913 35.3908C33.0913 39.5692 32.6957 39.197 36.4001 39.197C38.5615 39.197 38.5615 33.9633 36.4001 33.9633C34.1003 33.9633 33.0913 33.6414 33.0913 35.3908Z" fill="#BDBDBD"/>
<path fill-rule="evenodd" clip-rule="evenodd" d="M66.182 72.5002H70.9091V67.7427H66.182V72.5002Z" fill="#BDBDBD"/>
<path fill-rule="evenodd" clip-rule="evenodd" d="M55.3091 50.1395H60.0363V45.382H55.3091V50.1395Z" fill="#BDBDBD"/>
<path fill-rule="evenodd" clip-rule="evenodd" d="M33.0917 50.1395H37.8188V45.382H33.0917V50.1395Z" fill="#BDBDBD"/>
<path fill-rule="evenodd" clip-rule="evenodd" d="M55.3091 69.1702V72.5002H60.0363V67.7427H56.7275C55.6381 67.7427 55.3091 68.0739 55.3091 69.1702Z" fill="#BDBDBD"/>
<path fill-rule="evenodd" clip-rule="evenodd" d="M33.0917 72.5001C38.3132 72.5001 37.8188 73.0186 37.8188 69.1701C37.8188 67.2734 36.4797 67.7426 33.0917 67.7426V72.5001Z" fill="#BDBDBD"/>
<path fill-rule="evenodd" clip-rule="evenodd" d="M33.0917 61.5577L37.8068 60.9942L37.8188 58.2276C37.8188 57.1313 37.4898 56.8002 36.4005 56.8002H33.0917V61.5577Z" fill="#BDBDBD"/>
<path fill-rule="evenodd" clip-rule="evenodd" d="M66.1822 57.7514V61.082H70.9093V56.8001C65.9961 56.8001 66.1822 55.9523 66.1822 57.7514Z" fill="#BDBDBD"/>
</svg>
