<svg width="108" height="108" viewBox="0 0 108 108" fill="none" xmlns="http://www.w3.org/2000/svg">
<path fill-rule="evenodd" clip-rule="evenodd" d="M60.5605 94.92V75.8022H103.458V95.9259C103.458 99.1276 99.0998 103.472 95.8874 103.472H68.1304C64.3142 103.472 60.5605 98.885 60.5605 94.92ZM69.1401 62.7216H95.8874C98.7528 62.7216 103.458 66.3108 103.458 71.2743H60.5605C60.9363 66.7691 64.232 62.7216 69.1401 62.7216ZM4.54146 48.1322C4.54146 35.1348 7.69802 24.4394 17.2732 16.0486C23.6685 10.4446 27.7864 7.46048 36.9575 5.48593C62.8134 -0.0808202 86.8032 20.241 86.8032 43.1014C86.8032 55.3862 85.7764 52.3642 85.2896 58.1938C75.948 58.1938 65.642 56.7796 60.4219 61.5776C54.3338 67.1731 56.0184 77.0965 56.0184 85.8644C49.4729 86.4071 52.841 86.8703 42.3922 86.8703C23.7439 86.8703 4.54146 67.7689 4.54146 48.1322ZM0 43.6044C0 52.2005 0.65657 57.2007 4.04243 64.7286C6.42596 70.0271 10.8215 76.4622 15.4292 80.0415C16.8061 81.1116 16.963 81.5235 18.4595 82.5551C28.6213 89.5568 35.5243 91.3981 47.9434 91.3981C51.4905 91.3981 53.1242 90.6318 56.0184 90.3922C56.0184 96.5628 56.1288 98.8105 58.8151 102.697C60.3674 104.943 65.0584 108 68.6356 108H95.3828C101.757 108 108 101.776 108 95.423V70.7714C108 66.7074 105.25 62.776 102.757 60.9053C98.8693 57.989 96.2791 58.1938 89.8317 58.1938C90.2345 53.3708 91.3459 54.2752 91.3459 44.1073C91.3459 30.7884 84.3651 19.8382 77.5977 13.037C74.4092 9.83285 68.9458 5.95709 64.389 4.0687C49.2032 -2.22529 34.1504 -1.36421 20.4874 7.68169C9.21287 15.1466 0 29.3071 0 43.6044Z" fill="#BDBDBD"/>
<path fill-rule="evenodd" clip-rule="evenodd" d="M42.8971 45.6167C46.7973 38.2686 51.5637 48.9761 45.4786 48.522C43.2324 48.3546 43.5543 47.0828 42.8971 45.6167ZM43.4022 39.0765C30.8746 45.6846 45.6803 60.9536 52.4857 48.1322C57.3313 48.1322 65.6074 49.6111 65.6074 45.6167C65.6074 43.0488 62.6157 43.5664 60.0648 43.5957C57.5421 43.6245 55.0097 43.6043 52.4857 43.6043C50.5393 39.9363 51.6232 41.0174 47.9437 39.0765C47.9437 35.8901 47.9394 32.7037 47.9443 29.5173C47.9504 25.5003 48.9589 21.9716 45.4204 21.9716C42.4912 21.9716 43.3973 26.6853 43.4016 29.5173C43.4065 32.7037 43.4022 35.8901 43.4022 39.0765Z" fill="#BDBDBD"/>
<path fill-rule="evenodd" clip-rule="evenodd" d="M85.29 83.8518C85.29 82.6656 83.6077 80.8329 82.7666 80.8329C79.702 80.8329 77.8175 83.5231 79.6144 85.9602C81.7232 88.8203 85.29 86.4662 85.29 83.8518Z" fill="#BDBDBD"/>
<path fill-rule="evenodd" clip-rule="evenodd" d="M90.3362 84.3549C90.3362 86.797 96.3925 89.9608 96.3925 83.3484C96.3925 80.5268 90.3362 79.1989 90.3362 84.3549Z" fill="#BDBDBD"/>
<path fill-rule="evenodd" clip-rule="evenodd" d="M67.626 83.3484L68.1305 86.3674C70.3368 87.4228 70.9713 87.4228 73.1777 86.3674C75.1057 78.1172 67.626 80.7792 67.626 83.3484Z" fill="#BDBDBD"/>
<path fill-rule="evenodd" clip-rule="evenodd" d="M79.7378 97.9385C87.898 99.8336 85.6886 92.4041 82.2617 92.4041C78.2738 92.4041 78.5558 95.4823 79.7378 97.9385Z" fill="#BDBDBD"/>
<path fill-rule="evenodd" clip-rule="evenodd" d="M90.3362 95.4231C90.3362 98.986 93.7154 98.4433 95.8874 97.9385C96.6323 94.7533 96.6323 96.0923 95.8874 92.9077C93.7154 92.4029 90.3362 91.8596 90.3362 95.4231Z" fill="#BDBDBD"/>
<path fill-rule="evenodd" clip-rule="evenodd" d="M67.626 94.92C67.626 99.7363 73.6823 99.7363 73.6823 94.92C73.6823 91.5601 67.626 91.5601 67.626 94.92Z" fill="#BDBDBD"/>
<path fill-rule="evenodd" clip-rule="evenodd" d="M9.58919 45.6168C10.1845 46.7382 10.4309 47.1318 11.1028 48.1322C14.0828 48.1322 13.7953 48.3681 16.15 47.1257C16.15 43.2358 15.605 43.6043 11.1028 43.6043L9.58919 45.6168Z" fill="#BDBDBD"/>
<path fill-rule="evenodd" clip-rule="evenodd" d="M43.4013 12.916C43.4013 14.9211 43.3474 15.3684 44.915 15.9343C44.915 18.256 49.628 14.5166 47.5884 11.2574C46.9466 10.2326 47.5836 10.8168 46.4292 10.4C46.4292 8.92169 43.4013 10.1201 43.4013 12.916Z" fill="#BDBDBD"/>
<path fill-rule="evenodd" clip-rule="evenodd" d="M43.9057 75.8021L43.4011 80.33C44.4047 80.9998 44.7989 81.246 45.9244 81.8395L47.9426 80.33C47.9426 77.3104 48.4986 74.025 43.9057 75.8021Z" fill="#BDBDBD"/>
<path fill-rule="evenodd" clip-rule="evenodd" d="M75.1968 45.6168V47.1257C79.0718 49.17 81.2525 48.7128 81.2525 44.1073C79.8136 43.7731 75.1968 42.4903 75.1968 45.6168Z" fill="#BDBDBD"/>
</svg>
