<svg width="22" height="22" viewBox="0 0 22 22" fill="none" xmlns="http://www.w3.org/2000/svg">
<path fill-rule="evenodd" clip-rule="evenodd" d="M12.3364 19.3356V15.4412H21.0748V19.5405C21.0748 20.1927 20.187 21.0777 19.5326 21.0777H13.8784C13.101 21.0777 12.3364 20.1432 12.3364 19.3356ZM14.0841 12.7766H19.5326C20.1163 12.7766 21.0748 13.5077 21.0748 14.5188H12.3364C12.413 13.6011 13.0843 12.7766 14.0841 12.7766ZM0.925113 9.80471C0.925113 7.15708 1.56812 4.9784 3.51862 3.26917C4.82137 2.1276 5.66018 1.51973 7.52839 1.1175C12.7953 -0.0164634 17.6821 4.12316 17.6821 8.77991C17.6821 11.2824 17.473 10.6668 17.3738 11.8543C15.4709 11.8543 13.3715 11.5662 12.3082 12.5436C11.068 13.6834 11.4112 15.7049 11.4112 17.4909C10.0778 17.6014 10.7639 17.6958 8.63546 17.6958C4.83673 17.6958 0.925113 13.8048 0.925113 9.80471ZM0 8.88237C0 10.6334 0.133746 11.652 0.823458 13.1855C1.30899 14.2648 2.20439 15.5756 3.14298 16.3048C3.42346 16.5227 3.45543 16.6066 3.76026 16.8168C5.83027 18.243 7.23642 18.6181 9.76624 18.6181C10.4888 18.6181 10.8216 18.462 11.4112 18.4132C11.4112 19.6702 11.4336 20.1281 11.9809 20.9198C12.2971 21.3772 13.2526 22 13.9813 22H19.4298C20.7282 22 22 20.7322 22 19.438V14.4164C22 13.5885 21.4398 12.7877 20.9319 12.4066C20.14 11.8126 19.6124 11.8543 18.2991 11.8543C18.3811 10.8718 18.6075 11.0561 18.6075 8.98482C18.6075 6.27171 17.1855 4.04112 15.8069 2.65568C15.1574 2.00299 14.0445 1.21348 13.1163 0.82881C10.0229 -0.4533 6.95657 -0.277894 4.17337 1.56479C1.8767 3.08542 0 5.96996 0 8.88237Z" fill="white"/>
<path fill-rule="evenodd" clip-rule="evenodd" d="M8.7383 9.2923C9.53279 7.79545 10.5037 9.97661 9.26416 9.88412C8.8066 9.85001 8.87217 9.59095 8.7383 9.2923ZM8.84119 7.96003C6.28927 9.30612 9.30525 12.4165 10.6915 9.8047C11.6786 9.8047 13.3645 10.106 13.3645 9.2923C13.3645 8.7692 12.7551 8.87464 12.2354 8.88061C11.7215 8.88646 11.2057 8.88236 10.6915 8.88236C10.295 8.13518 10.5158 8.3554 9.7663 7.96003C9.7663 7.31094 9.76543 6.66186 9.76643 6.01277C9.76768 5.19451 9.9731 4.4757 9.2523 4.4757C8.65562 4.4757 8.8402 5.43589 8.84107 6.01277C8.84207 6.66186 8.84119 7.31094 8.84119 7.96003Z" fill="white"/>
<path fill-rule="evenodd" clip-rule="evenodd" d="M17.3739 17.0809C17.3739 16.8393 17.0312 16.466 16.8599 16.466C16.2356 16.466 15.8517 17.014 16.2177 17.5104C16.6473 18.093 17.3739 17.6135 17.3739 17.0809Z" fill="white"/>
<path fill-rule="evenodd" clip-rule="evenodd" d="M18.4018 17.1834C18.4018 17.6809 19.6355 18.3253 19.6355 16.9784C19.6355 16.4036 18.4018 16.1331 18.4018 17.1834Z" fill="white"/>
<path fill-rule="evenodd" clip-rule="evenodd" d="M13.7757 16.9784L13.8784 17.5934C14.3279 17.8084 14.4571 17.8084 14.9066 17.5934C15.2993 15.9128 13.7757 16.455 13.7757 16.9784Z" fill="white"/>
<path fill-rule="evenodd" clip-rule="evenodd" d="M16.2429 19.9504C17.9052 20.3365 17.4551 18.823 16.757 18.823C15.9447 18.823 16.0021 19.4501 16.2429 19.9504Z" fill="white"/>
<path fill-rule="evenodd" clip-rule="evenodd" d="M18.4018 19.438C18.4018 20.1638 19.0902 20.0533 19.5326 19.9504C19.6844 19.3016 19.6844 19.5744 19.5326 18.9256C19.0902 18.8228 18.4018 18.7121 18.4018 19.438Z" fill="white"/>
<path fill-rule="evenodd" clip-rule="evenodd" d="M13.7757 19.3356C13.7757 20.3167 15.0093 20.3167 15.0093 19.3356C15.0093 18.6511 13.7757 18.6511 13.7757 19.3356Z" fill="white"/>
<path fill-rule="evenodd" clip-rule="evenodd" d="M1.95335 9.2923C2.07461 9.52074 2.12481 9.60091 2.26168 9.8047C2.86872 9.8047 2.81016 9.85276 3.28982 9.59967C3.28982 8.8073 3.1788 8.88237 2.26168 8.88237L1.95335 9.2923Z" fill="white"/>
<path fill-rule="evenodd" clip-rule="evenodd" d="M8.84101 2.63104C8.84101 3.03949 8.83003 3.13061 9.14934 3.24588C9.14934 3.71882 10.1094 2.95708 9.69394 2.29318C9.56319 2.08441 9.69295 2.20342 9.4578 2.11852C9.4578 1.81738 8.84101 2.0615 8.84101 2.63104Z" fill="white"/>
<path fill-rule="evenodd" clip-rule="evenodd" d="M8.94375 15.4412L8.84096 16.3635C9.04539 16.5 9.12569 16.5501 9.35497 16.671L9.76608 16.3635C9.76608 15.7484 9.87935 15.0792 8.94375 15.4412Z" fill="white"/>
<path fill-rule="evenodd" clip-rule="evenodd" d="M15.3179 9.29232V9.59969C16.1072 10.0161 16.5514 9.92298 16.5514 8.98483C16.2583 8.91673 15.3179 8.65543 15.3179 9.29232Z" fill="white"/>
</svg>
