<?xml version="1.0" encoding="UTF-8"?> <svg xmlns="http://www.w3.org/2000/svg" width="513" height="513" viewBox="0 0 513 513" fill="none"> <g clip-path="url(#clip0)"> <path d="M102.401 443.736C104.586 443.736 106.77 442.9 108.434 441.236C111.771 437.899 111.771 432.506 108.434 429.17L31.148 351.926C30.576 351.423 17.068 339.373 17.068 315.736V187.736C17.068 178.324 24.722 170.669 34.135 170.669C43.539 170.669 51.202 178.323 51.202 187.736V255.294C51.202 260.004 55.016 263.819 59.735 263.819C64.454 263.819 68.268 260.005 68.268 255.294V187.736C68.268 168.911 52.959 153.603 34.135 153.603C15.31 153.603 0.00195312 168.912 0.00195312 187.736V315.736C0.00195312 347.599 19.279 364.231 19.569 364.436L96.369 441.236C98.032 442.899 100.217 443.736 102.401 443.736Z" fill="#6E59B8"></path> <path d="M162.134 204.802H136.534C131.815 204.802 128.001 208.625 128.001 213.335V238.935C128.001 240.13 128.223 268.29 147.568 287.635C166.913 306.98 195.073 307.202 196.268 307.202H221.868C226.587 307.202 230.401 303.379 230.401 298.669V273.069C230.401 271.874 230.179 243.714 210.834 224.369C191.489 205.024 163.329 204.802 162.134 204.802ZM213.334 290.135H196.267C196.054 290.135 174.029 289.964 159.633 275.569C145.374 261.31 145.067 239.132 145.067 238.935V221.868H162.134C162.347 221.868 184.363 222.03 198.768 236.434C213.027 250.693 213.334 272.871 213.334 273.068V290.135V290.135Z" fill="#6E59B8"></path> <path d="M196.268 460.802H187.735V392.535C187.735 361.132 168.544 344.134 168.168 343.835L108.435 284.102C102.018 277.676 93.7489 273.939 85.1729 273.589C76.1189 273.256 67.6799 276.593 61.2029 283.07C54.7179 289.547 51.3559 298.063 51.7139 307.032C52.0719 315.617 55.8099 323.885 62.2359 330.302L104.903 372.969C108.24 376.306 113.633 376.306 116.969 372.969C120.305 369.632 120.305 364.239 116.969 360.903L74.3019 318.228C70.9139 314.849 68.9519 310.625 68.7809 306.341C68.6019 302.126 70.1629 298.251 73.2699 295.137C76.3849 292.031 80.1559 290.461 84.4739 290.648C88.7579 290.819 92.9899 292.781 96.3689 296.169L156.503 356.278C157.075 356.79 170.668 369.206 170.668 392.536V460.803H59.7339C55.0149 460.803 51.2009 464.626 51.2009 469.336V503.469C51.2009 508.179 55.0149 512.002 59.7339 512.002C64.4529 512.002 68.2669 508.179 68.2669 503.469V477.869H187.734V503.469C187.734 508.179 191.548 512.002 196.267 512.002C200.986 512.002 204.8 508.179 204.8 503.469V469.336C204.801 464.625 200.987 460.802 196.268 460.802Z" fill="#6E59B8"></path> <path d="M324.268 102.402C324.268 65.162 297.32 37.779 296.168 36.636L262.034 2.502C258.697 -0.834 253.304 -0.834 249.968 2.502L215.835 36.635C214.683 37.778 187.735 65.162 187.735 102.401C187.735 139.64 214.683 167.024 215.835 168.167L247.477 199.809V366.951C247.477 371.67 251.291 375.484 256.01 375.484C260.729 375.484 264.543 371.67 264.543 366.951V199.793L296.168 168.168C297.319 167.025 324.268 139.642 324.268 102.402ZM264.543 175.661V59.735C264.543 55.025 260.729 51.202 256.01 51.202C251.291 51.202 247.477 55.025 247.477 59.735V175.677L227.902 156.102C227.672 155.872 204.802 132.652 204.802 102.402C204.802 72.365 227.688 48.924 227.902 48.702L256.002 20.602L284.102 48.702C284.332 48.932 307.202 72.152 307.202 102.402C307.202 132.439 284.316 155.88 284.102 156.102L264.543 175.661Z" fill="#6E59B8"></path> <path d="M477.868 153.602C459.043 153.602 443.735 168.911 443.735 187.735V255.293C443.735 260.003 447.549 263.818 452.268 263.818C456.987 263.818 460.801 260.004 460.801 255.293V187.735C460.801 178.323 468.455 170.668 477.868 170.668C487.272 170.668 494.935 178.322 494.935 187.735V315.735C494.935 339.372 481.427 351.421 480.369 352.369L403.569 429.169C400.232 432.505 400.232 437.899 403.569 441.235C405.233 442.899 407.418 443.735 409.602 443.735C411.787 443.735 413.971 442.899 415.635 441.235L491.897 364.921C492.725 364.23 512.002 347.598 512.002 315.735V187.735C512.001 168.911 496.692 153.602 477.868 153.602Z" fill="#6E59B8"></path> <path d="M452.268 460.802H341.334V392.535C341.334 369.205 354.928 356.789 355.9 355.901L415.633 296.168C419.012 292.78 423.245 290.818 427.528 290.647C431.88 290.459 435.618 292.029 438.732 295.136C441.838 298.251 443.4 302.125 443.221 306.34C443.05 310.624 441.088 314.848 437.7 318.236L395.033 360.903C391.696 364.24 391.696 369.633 395.033 372.969C398.369 376.306 403.763 376.306 407.099 372.969L449.766 330.302C456.192 323.885 459.921 315.616 460.288 307.032C460.646 298.063 457.284 289.547 450.799 283.07C444.322 276.593 435.891 273.24 426.829 273.589C418.253 273.939 409.984 277.676 403.567 284.102L344.277 343.426C343.458 344.134 324.266 361.133 324.266 392.535V460.802H315.733C311.014 460.802 307.2 464.625 307.2 469.335V503.468C307.2 508.178 311.014 512.001 315.733 512.001C320.452 512.001 324.266 508.178 324.266 503.468V477.868H443.733V503.468C443.733 508.178 447.547 512.001 452.266 512.001C456.985 512.001 460.799 508.178 460.799 503.468V469.335C460.801 464.625 456.987 460.802 452.268 460.802Z" fill="#6E59B8"></path> <path d="M364.434 287.635C383.779 268.29 384.001 240.13 384.001 238.935V213.335C384.001 208.625 380.187 204.802 375.468 204.802H349.868C348.673 204.802 320.513 205.024 301.168 224.369C281.823 243.714 281.601 271.874 281.601 273.069V298.669C281.601 303.379 285.415 307.202 290.134 307.202H315.734C316.929 307.202 345.089 306.98 364.434 287.635ZM298.668 290.135V273.068C298.668 272.846 298.83 250.83 313.234 236.434C327.493 222.175 349.671 221.868 349.868 221.868H366.935V238.935C366.935 239.157 366.764 261.164 352.369 275.569C338.212 289.726 316.247 290.127 315.718 290.135H298.668V290.135Z" fill="#6E59B8"></path> </g> <defs> <clipPath id="clip0"> <rect width="512.002" height="512.002" fill="white"></rect> </clipPath> </defs> </svg> 