<svg width="82" height="58" viewBox="0 0 82 58" fill="none" xmlns="http://www.w3.org/2000/svg">
<path fill-rule="evenodd" clip-rule="evenodd" d="M33.8809 54.149C32.6687 54.149 32.5771 53.7933 31.954 52.8586C32.2413 51.6193 32.8403 51.1397 33.5097 50.2271C35.178 47.9528 35.1438 48.1335 37.4135 48.6646C37.9648 51.0428 38.0082 50.5573 36.3258 52.7337C35.6854 53.562 35.2073 54.149 33.8809 54.149ZM27.458 51.8907C26.922 51.8907 22.57 50.2258 25.7671 46.9657C26.5602 46.1567 26.6888 45.8485 27.3866 45.0441C28.5894 43.6571 29.5528 41.8898 31.3118 41.8898C32.4645 41.8898 34.7677 43.2992 33.4609 45.6618L31.1304 48.4824C30.4613 49.3466 30.1682 49.5904 29.5305 50.4239C29.0045 51.1121 28.5717 51.8907 27.458 51.8907ZM21.9986 46.7289C19.6514 46.7289 18.7874 45.5194 18.7874 43.5028C18.7874 42.6748 19.6428 42.166 20.1538 41.6493L23.0838 38.1408C24.8974 35.8653 27.7792 37.4713 27.7792 39.3092C27.7792 40.8262 26.1332 42.2964 25.3095 43.2802C24.724 43.9794 22.7862 46.7289 21.9986 46.7289ZM14.2914 37.3735C14.2914 35.8579 15.2704 34.7647 15.8971 33.8248C16.6179 34.3553 18.8439 37.6679 19.1086 38.6636C18.6641 38.9001 17.392 39.6315 16.8606 39.6315C15.8159 39.6315 14.2914 38.6026 14.2914 37.3735ZM31.3118 27.6951C31.0441 26.5402 30.6695 26.1793 30.6695 24.7916C30.6695 18.3004 32.1235 15.3856 35.805 12.5296C43.5201 6.54472 46.2639 5.00526 55.9315 7.80204C57.3593 8.21482 58.6045 8.51721 59.8698 9.00756C61.4591 9.62335 61.3079 10.3207 62.2033 11.8252L69.5276 24.7916C68.8835 25.6745 68.8731 25.2102 67.6832 26.8101C66.0439 29.0138 65.2911 31.349 63.4259 34.1474L45.7159 19.3547C43.8431 17.8309 43.3495 14.7051 37.2279 22.6695C36.03 24.228 33.3122 27.6504 31.3118 27.6951ZM28.1003 21.2429C28.1003 24.0734 27.3756 30.5986 31.6329 30.5986C34.1004 30.5986 36.6143 27.8794 37.7346 26.4047L42.873 20.9203C44.359 21.319 58.0672 33.3896 59.9928 35.0152C61.8492 36.5826 63.4259 37.1932 63.4259 39.3092C63.4259 40.9428 62.0726 42.2967 60.4514 42.4016C59.1231 42.4874 57.6444 41.001 56.6819 40.2767C54.3398 38.5152 48.0113 32.4037 48.0113 36.4057C48.0113 37.4008 49.4564 38.1984 50.157 38.7664L54.0104 41.6699C54.7245 42.1185 57.6453 44.1959 57.6453 44.7933C57.6453 47.158 55.9798 47.0515 54.4339 47.0515C53.058 47.0515 50.9947 45.4274 50.0276 44.7031C48.7931 43.7785 47.0942 42.2013 45.763 41.8898L44.4072 43.1088C45.1445 45.5878 49.1676 46.2269 51.2224 49.3098C50.5933 50.6273 49.7516 52.3725 47.1086 51.5332C44.958 50.8502 45.0376 48.9756 42.2307 49.6324C42.2307 51.8818 42.5799 52.4142 44.4787 52.8586C43.9527 54.8369 40.5889 54.7942 38.6981 54.7942C38.8962 52.4029 40.3038 54.0647 40.3038 49.6324C40.3038 47.5652 38.4423 45.9276 36.4501 45.7611C36.4501 41.5466 35.1704 39.9397 31.6176 39.3245C29.2661 38.9176 31.2467 38.2064 29.3214 36.1465C25.2097 31.7477 22.059 35.7221 20.7143 36.0827C20.4463 35.0747 14.9028 26.1176 12.3645 25.4368C12.4763 24.0872 18.2843 14.2764 19.369 12.4717C21.874 8.30407 20.5012 9.43966 24.8458 7.97257C29.5094 6.39815 32.6882 5.94212 37.4135 7.04826C37.1644 7.98512 36.7376 8.05994 36.0639 8.59599C35.4488 9.08604 35.0199 9.36359 34.4454 9.87326C31.2409 12.717 28.1003 16.2231 28.1003 21.2429ZM8.18966 25.4368C6.92553 25.4368 2.7302 22.8756 2.7302 22.2107C2.7302 20.9929 9.43913 9.75856 10.5744 7.83056C13.9889 2.03182 12.9647 2.46669 16.7635 4.5649C20.4609 6.6076 19.9588 6.20065 13.9065 16.3396C13.2221 17.4859 9.08532 25.4368 8.18966 25.4368ZM62.7836 6.72566C62.7836 5.21043 67.6969 3.17691 67.9219 3.17691C68.8481 3.17691 69.277 4.16561 69.7188 4.92062C70.2814 5.88263 70.6791 6.48062 71.1352 7.36903C72.2113 9.46632 79.1617 20.8675 79.1617 21.8881C79.1617 23.4687 74.5026 25.4368 74.0234 25.4368C72.7629 25.4368 68.8957 17.918 68.1329 16.5147C67.3465 15.0688 62.7836 7.64934 62.7836 6.72566ZM7.22623 28.3404C9.20866 28.3404 9.66808 27.6651 10.7588 27.3725C11.9872 28.4449 13.8457 29.8893 14.2914 31.5665C12.6396 34.0446 11.7222 33.6687 11.7222 37.6961C11.7222 40.1451 14.1653 41.7321 16.2183 42.2124C16.2183 45.6921 16.2543 48.285 20.7372 49.2868C23.1375 49.8232 21.2366 50.3537 23.3485 52.4706C26.175 55.3042 28.6031 54.1736 29.706 54.149C30.635 58.1544 34.5623 55.9626 37.0017 56.7949C38.0192 57.1424 38.5979 57.3451 39.8663 57.4601C44.4253 57.8732 46.2896 54.9564 47.3183 54.4207C48.8413 53.6283 52.5336 55.3797 53.7916 49.9551C57.3696 49.9551 60.1363 48.6462 60.2144 45.1159C63.6356 45.1159 65.7469 42.8162 66.1077 39.733C66.4786 36.5636 64.3011 37.5179 66.5064 34.3427C68.3032 31.7548 68.8591 28.9022 71.1334 27.3725C74.5442 28.1708 72.8868 29.5256 78.2977 26.5044C84.0799 23.2758 82.1725 20.7982 78.7822 15.1721L72.0855 3.51088C69.5115 -1.05506 66.5894 0.475203 63.1176 2.54489C61.7781 3.34345 60.3787 4.09631 60.2144 6.08044C57.8168 5.87988 51.4178 2.79879 45.5316 3.90371C43.4136 4.30115 41.9965 5.42049 41.0804 5.57321C40.03 5.74832 40.4537 5.53702 39.2094 4.93718C34.3419 2.59149 26.2345 4.03866 21.9986 6.08044C20.9433 3.8703 21.5507 4.03069 19.2108 2.75159C17.146 1.62245 14.009 -1.00203 11.1569 1.64112C10.1941 2.53352 8.54255 5.9734 7.76717 7.26906L1.13698 18.6746C0.340534 20.0279 -0.352707 21.3873 0.197085 23.1148C1.07169 25.8628 7.16426 28.3404 7.22623 28.3404Z" fill="#FFBB00"/>
</svg>
