<svg width="88" height="108" viewBox="0 0 88 108" fill="none" xmlns="http://www.w3.org/2000/svg">
<path fill-rule="evenodd" clip-rule="evenodd" d="M52.6139 28.0425C52.6139 25.7833 52.7143 25.8022 54.6183 24.5223C56.5344 25.8102 57.6751 27.7957 60.6315 28.0425L59.4635 30.8936C57.2935 33.2548 52.6139 32.1155 52.6139 28.0425ZM73.1583 21.5044C77.3485 22.6278 83.6814 32.0733 83.6814 38.604C83.6814 44.1482 83.962 45.7274 81.3549 50.8536C78.7717 55.9322 75.6461 58.7693 70.6658 61.2484C66.8085 63.168 62.7412 63.1411 62.1344 63.7502C60.7959 66.5506 61.8623 67.6576 59.1311 69.2851C54.7053 71.9224 52.6364 71.9609 54.9348 75.9686C55.6604 77.2332 55.9793 77.6168 56.6227 78.8381C54.5824 81.8957 54.1027 79.9896 55.1192 84.3699C44.7691 91.3259 53.1148 89.908 53.1148 96.4399C53.1148 99.2172 51.7958 99.0357 49.8273 100.181C47.7224 101.406 47.2051 101.866 44.5968 102.475C43.8323 101.025 40.588 92.8446 40.588 91.4108L48.6057 61.7384C54.1393 61.7384 56.4237 61.3767 60.2219 59.8189C61.9786 59.098 62.8003 58.5017 64.4334 57.5077C66.2753 56.3873 66.8456 55.7679 68.2755 54.323C77.3455 45.1611 79.3901 33.3251 73.1583 21.5044ZM52.6139 17.9842C52.6139 19.3423 52.8531 19.371 53.1148 20.4988C47.143 22.0994 44.5031 36.0895 57.6252 36.0895C60.6662 36.0895 64.6403 33.2267 64.6403 28.5452C64.6403 23.7061 63.3652 20.9521 57.1237 19.4932L57.4578 13.9467C64.6458 14.5472 72.1564 25.7179 72.1564 32.0659C72.1564 40.4209 71.6756 44.9418 65.0262 51.5648C59.7793 56.7912 51.1445 59.0455 43.0721 56.7276C40.504 55.9903 39.7571 54.5369 37.7211 56.2994C35.181 58.4981 36.8251 58.8414 32.0864 58.7375C26.0202 58.6043 26.5577 58.4376 26.5577 66.2647C23.297 66.2647 23.0498 66.5128 23.0498 69.7855C15.2531 69.7855 15.4169 69.2454 15.5502 75.3338C15.5855 76.9314 15.7255 77.7995 15.1369 78.9425C13.6858 81.7589 9.68362 80.8492 4.50977 80.8492C4.5469 79.1887 6.17149 69.5344 6.73758 68.5007C7.77904 66.6007 29.0631 46.7128 29.0631 45.6449C29.0631 42.4651 21.9031 30.265 34.1876 18.0985C38.2446 14.0811 46.222 10.7229 53.6164 12.4518C53.4344 14.648 52.6139 15.6566 52.6139 17.9842ZM72.1564 4.40533C76.8853 4.40533 81.176 5.92652 81.176 11.4462C81.176 14.8936 79.367 17.2218 78.1697 19.4932C70.2725 14.1855 69.8696 16.0507 65.2381 12.8574C63.7121 11.8054 62.6171 10.9049 60.6315 10.4406C61.4581 7.33347 68.2614 4.40533 72.1564 4.40533ZM51.612 7.92546C42.8225 7.92546 36.5895 9.5621 30.1788 16.0867C23.1783 23.2119 20.388 35.9264 24.5533 44.6387C22.474 46.0365 8.48879 60.6021 4.8817 64.1234C2.6752 66.2775 2.61737 65.8102 2.05798 69.3358L0 83.3644C0 85.8863 10.2388 84.8728 14.5312 84.8728C15.7906 84.8728 17.6763 82.6239 18.4573 81.7717C20.5086 79.5333 19.178 79.0849 19.4951 75.7731C19.9766 70.7507 27.4914 77.1525 28.0606 70.2882C31.7949 70.2045 31.0675 68.1964 31.0675 62.7439C40.3378 62.7439 36.1062 62.9046 40.087 60.2294C41.708 60.6088 42.285 61.0841 44.0953 61.2356L37.7588 85.5539C36.1689 91.0131 35.6138 91.1469 37.155 94.3402L40.2325 102.832C42.5626 108.844 41.4079 110.262 51.7063 103.576C53.5793 102.36 57.6252 101.462 57.6252 95.9371C57.6252 93.8587 55.4656 91.0058 54.6183 89.3991C63.7693 84.5392 58.9101 85.166 60.7776 81.9721C61.4021 80.9048 62.0814 81.3294 61.8148 79.5956C61.5135 77.6321 59.3429 76.3974 59.1281 73.8083C62.4271 73.0374 65.0585 71.0049 65.1413 67.2709C67.926 67.2086 72.2271 65.2775 74.1706 64.2627C84.9602 58.6294 91.5408 44.1115 85.9846 30.2571C84.0034 25.3159 83.0501 25.3196 81.176 22.5106C84.6741 17.2671 85.1848 16.6995 85.1848 9.9372C85.1848 0.718409 69.6572 -5.49221 57.2734 7.08359C54.8161 9.57981 55.384 7.92546 51.612 7.92546Z" fill="#BDBDBD"/>
</svg>
