<svg width="140" height="68" viewBox="0 0 140 68" fill="none" xmlns="http://www.w3.org/2000/svg">
<path d="M0.323364 55.0806V46.4754H1.67318V53.8494H5.79019V46.4754H7.14001V53.8494H8.18888V56.9222H6.8328V55.0806H0.323364ZM11.1305 53.8494H15.9848V55.0806H9.78064V46.4754H15.8642V47.7046H11.1305V49.9803H14.8809V51.2091H11.1305V53.8494ZM24.7703 46.4754V55.0806H23.4202V51.3301H19.1782V55.0806H17.8284V46.4754H19.1782V50.1052H23.4202V46.4754H24.7703ZM26.2411 46.4754H32.7529V47.7046H30.1719V55.0806H28.8221V47.7046H26.2411V46.4754ZM34.2296 46.4754H37.6666C38.488 46.4754 39.1743 46.7437 39.7294 47.2826C40.2825 47.8212 40.5587 48.4746 40.5587 49.2449C40.5587 50.0149 40.2825 50.6685 39.7294 51.2032C39.1743 51.7398 38.488 52.0081 37.6666 52.0081H35.5794V55.0806H34.2296V46.4754ZM37.6666 47.7046H35.5794V50.777H37.6666C38.0905 50.777 38.4531 50.6316 38.7544 50.3366C39.0533 50.0436 39.203 49.679 39.203 49.2449C39.203 48.8105 39.0533 48.4459 38.7544 48.1489C38.4531 47.8539 38.0905 47.7046 37.6666 47.7046ZM46.3272 53.8494H48.5413C48.9408 53.8494 49.2767 53.7163 49.5473 53.446C49.8156 53.1757 49.9507 52.8398 49.9507 52.4363C49.9507 52.0348 49.8156 51.6986 49.5473 51.4283C49.2767 51.158 48.9408 51.0249 48.5413 51.0249H46.3272V53.8494ZM48.5413 55.0806H44.9774V46.4754H50.6288V47.7046H46.3272V49.7937H48.5413C49.3383 49.7937 49.9979 50.0479 50.522 50.5558C51.0444 51.0638 51.3065 51.6907 51.3065 52.4363C51.3065 53.1839 51.0444 53.8105 50.522 54.3185C49.9979 54.8264 49.3383 55.0806 48.5413 55.0806ZM54.6209 53.8494H59.4753V55.0806H53.2711V46.4754H59.3546V47.7046H54.6209V49.9803H58.3713V51.2091H54.6209V53.8494ZM65.129 46.3547C65.5651 46.3547 65.9831 46.4121 66.3826 46.5268C66.784 46.6392 67.1137 46.7786 67.3761 46.9425C67.6381 47.1063 67.8675 47.2681 68.0643 47.43C68.2588 47.5898 68.4042 47.727 68.4964 47.8437L68.6276 48.0118L67.7693 48.876C67.7446 48.8434 67.71 48.7983 67.6648 48.7409C67.6177 48.6816 67.5132 48.5771 67.3494 48.4254C67.1855 48.2738 67.0092 48.143 66.821 48.0322C66.6324 47.9214 66.3885 47.8212 66.0856 47.727C65.7843 47.6327 65.4649 47.5856 65.129 47.5856C64.238 47.5856 63.4799 47.8951 62.8615 48.5115C62.2408 49.1302 61.9313 49.886 61.9313 50.777C61.9313 51.6699 62.2388 52.4258 62.8572 53.0465C63.4759 53.6671 64.2337 53.9767 65.129 53.9767C65.4649 53.9767 65.7866 53.9295 66.0915 53.8353C66.399 53.741 66.6529 53.6283 66.8536 53.4971C67.0563 53.3642 67.2346 53.233 67.3883 53.1038C67.5419 52.973 67.6566 52.8622 67.7344 52.7699L67.8286 52.6206L68.6929 53.4849C68.6622 53.532 68.6131 53.5956 68.5475 53.6734C68.48 53.7512 68.3346 53.8883 68.1091 54.0851C67.882 54.2796 67.6424 54.4536 67.3883 54.6076C67.1341 54.7589 66.8025 54.8963 66.3928 55.017C65.9831 55.1399 65.5611 55.2016 65.129 55.2016C63.8405 55.2016 62.761 54.7734 61.8885 53.917C61.0159 53.061 60.5795 52.0141 60.5795 50.777C60.5795 49.5419 61.0159 48.495 61.8885 47.639C62.761 46.7826 63.8405 46.3547 65.129 46.3547ZM77.3535 46.4754V55.0806H76.0033V47.7046H71.7614V55.0806H70.4116V46.4754H77.3535ZM86.5649 46.4754V55.0806H85.215V47.7046H82.0829V49.0564C82.0829 50.2915 82.0236 51.3258 81.903 52.1575C81.782 52.9891 81.6017 53.6223 81.3601 54.0545C81.1185 54.4866 80.8521 54.7856 80.5611 54.9517C80.2723 55.1175 79.918 55.2016 79.5023 55.2016C79.3546 55.2016 79.1991 55.1851 79.0352 55.1521C78.8714 55.1215 78.7422 55.0888 78.6499 55.0559L78.519 55.0212V53.7308C78.7626 53.8105 78.9861 53.8494 79.1908 53.8494C79.4265 53.8494 79.6292 53.7921 79.7993 53.6734C79.9691 53.5544 80.1309 53.3332 80.2825 53.0095C80.4342 52.6862 80.5469 52.1944 80.6184 51.5348C80.6903 50.8732 80.7272 50.0479 80.7272 49.0564V46.4754H86.5649ZM88.0419 55.0806L91.6058 46.4754H92.9579L96.5219 55.0806H95.1107L94.1868 52.8068H90.377L89.453 55.0806H88.0419ZM92.2839 48.0118L90.8684 51.576H93.6953L92.2839 48.0118ZM96.2763 46.4754H102.788V47.7046H100.207V55.0806H98.8572V47.7046H96.2763V46.4754ZM111.207 46.4754V55.0806H109.857V51.3301H105.615V55.0806H104.265V46.4754H105.615V50.1052H109.857V46.4754H111.207ZM115.447 48.5115C114.828 49.1302 114.521 49.886 114.521 50.777C114.521 51.6699 114.828 52.4258 115.447 53.0465C116.065 53.6671 116.821 53.9767 117.716 53.9767C118.609 53.9767 119.365 53.6671 119.984 53.0465C120.602 52.4258 120.912 51.6699 120.912 50.777C120.912 49.886 120.602 49.1302 119.984 48.5115C119.365 47.8951 118.609 47.5856 117.716 47.5856C116.821 47.5856 116.065 47.8951 115.447 48.5115ZM114.478 53.917C113.605 53.061 113.169 52.0141 113.169 50.777C113.169 49.5419 113.605 48.495 114.478 47.639C115.35 46.7826 116.43 46.3547 117.716 46.3547C119.003 46.3547 120.08 46.7826 120.953 47.639C121.825 48.495 122.262 49.5419 122.262 50.777C122.262 52.0141 121.825 53.061 120.953 53.917C120.08 54.7734 119.003 55.2016 117.716 55.2016C116.43 55.2016 115.35 54.7734 114.478 53.917ZM124.23 55.0806V46.4754H129.757V47.7046H125.58V55.0806H124.23ZM132.645 48.5115C132.026 49.1302 131.719 49.886 131.719 50.777C131.719 51.6699 132.026 52.4258 132.645 53.0465C133.263 53.6671 134.019 53.9767 134.914 53.9767C135.807 53.9767 136.563 53.6671 137.182 53.0465C137.8 52.4258 138.11 51.6699 138.11 50.777C138.11 49.886 137.8 49.1302 137.182 48.5115C136.563 47.8951 135.807 47.5856 134.914 47.5856C134.019 47.5856 133.263 47.8951 132.645 48.5115ZM131.676 53.917C130.803 53.061 130.367 52.0141 130.367 50.777C130.367 49.5419 130.803 48.495 131.676 47.639C132.548 46.7826 133.628 46.3547 134.914 46.3547C136.2 46.3547 137.278 46.7826 138.151 47.639C139.023 48.495 139.459 49.5419 139.459 50.777C139.459 52.0141 139.023 53.061 138.151 53.917C137.278 54.7734 136.2 55.2016 134.914 55.2016C133.628 55.2016 132.548 54.7734 131.676 53.917Z" fill="#1F1D32"/>
<path d="M4.63454 31.1638C3.26198 29.3308 2.21081 27.3672 1.47245 25.282C0.733756 23.1971 0.360291 21.164 0.360291 19.1744C0.360291 17.1762 0.742657 15.1605 1.49849 13.1277C2.24542 11.1035 3.349 9.19201 4.79111 7.39358C7.99705 3.44928 12.2367 1.11223 17.5189 0.364974C18.961 0.156651 20.3339 0.0524902 21.6369 0.0524902C23.5395 0.0524902 25.2338 0.260816 26.728 0.677792C28.2225 1.09477 29.456 1.64227 30.4379 2.32855C31.411 3.02373 32.1408 3.77956 32.6184 4.61351C33.1049 5.4389 33.3482 6.31636 33.3482 7.23734C33.3482 8.47112 33.0008 9.5134 32.3059 10.3648C31.7584 11.0775 31.2112 11.5811 30.6637 11.8679C30.1077 12.1547 29.3953 12.3024 28.5093 12.3024C27.7795 12.3024 27.1885 12.2677 26.728 12.1982C25.8505 12.0416 24.6342 11.6767 23.088 11.0946C22.3753 10.8949 21.4547 10.7907 20.3165 10.7907C18.3183 10.7907 16.598 11.3728 15.1644 12.537C13.7309 13.701 12.7753 15.3778 12.2973 17.5671C12.1932 18.0797 12.1497 18.6272 12.1497 19.2179C12.1497 19.7825 12.1932 20.3561 12.2973 20.9557C12.5666 22.3978 13.0271 23.6227 13.6702 24.6218C14.3219 25.6209 15.1469 26.3767 16.1724 26.8807C17.1886 27.3758 18.3618 27.628 19.7083 27.628C21.3851 27.628 23.3833 27.2281 25.6854 26.4288C25.7203 26.4116 25.7985 26.3856 25.9201 26.3596C26.0332 26.3246 26.1373 26.2986 26.2243 26.2811C26.815 26.1423 27.4578 26.0728 28.153 26.0728C29.8209 26.0728 31.1328 26.6114 32.0973 27.68C32.9662 28.6966 33.4006 29.7913 33.4006 30.9641C33.4006 32.0327 33.0357 33.11 32.3059 34.1961C31.3849 35.6032 29.7081 36.7675 27.2666 37.6884C25.5206 38.3836 23.4093 38.7311 20.9507 38.7311C19.7169 38.7311 18.405 38.6269 17.0324 38.4182C13.4181 37.8622 10.282 36.4461 7.61469 34.1961C6.59812 33.3618 5.60759 32.3541 4.63454 31.1638Z" fill="#FFBB00"/>
<path d="M41.8103 38.3662C40.0119 38.3662 38.5523 37.758 37.4316 36.5503C36.3109 35.334 35.7548 33.7181 35.7548 31.6939V6.73335C35.7548 5.59516 36.033 4.54398 36.5976 3.57093C37.1537 2.60677 37.9007 1.85094 38.8302 1.29487C39.7686 0.747358 40.7938 0.469482 41.9145 0.469482H50.5678C51.2976 0.469482 52.062 0.521563 52.8614 0.625724C54.5728 0.842948 56.1108 1.28597 57.4659 1.94621C58.8213 2.60677 59.9855 3.44073 60.9497 4.43125C61.9228 5.42145 62.6614 6.55107 63.1826 7.802C63.6952 9.06183 63.9559 10.3909 63.9559 11.7984C63.9559 12.3024 63.9384 12.7019 63.9038 12.9976C63.7212 14.9957 63.0784 16.7246 61.9923 18.1842L62.0968 18.3144L62.8091 18.7749L63.5475 19.2268L63.8517 19.5047C64.564 20.1043 65.1722 20.7906 65.6762 21.5724C66.1713 22.3543 66.5537 23.1882 66.8055 24.0746C67.0573 24.9695 67.1879 25.9077 67.1879 26.8893C67.1879 28.0624 67.0052 29.2092 66.6492 30.3385C66.2929 31.4681 65.7454 32.5453 64.9985 33.579C64.3814 34.3438 63.7647 34.9951 63.1391 35.5426C62.0183 36.5071 60.7849 37.2194 59.4469 37.6799C58.1001 38.1404 56.5449 38.3662 54.7814 38.3662H41.8103ZM47.8484 14.231H50.5939C51.1064 14.231 51.5755 14.0398 52.0014 13.6489C52.3574 13.371 52.5311 13.0061 52.5311 12.5456C52.5311 12.0937 52.3402 11.7117 51.9493 11.4074C51.5583 11.0686 51.0718 10.8949 50.4983 10.8949H47.8484V14.231ZM47.7963 27.8884H53.4956C53.9475 27.8884 54.3384 27.7321 54.6598 27.4282C54.9812 27.124 55.1463 26.7245 55.1463 26.229C55.1463 25.7079 54.9901 25.256 54.6858 24.8911C54.3819 24.5262 53.9821 24.3439 53.4956 24.3439H47.7963V27.8884Z" fill="#1F1D32"/>
<path d="M71.1061 36.9241C69.9508 35.6642 69.3772 34.2046 69.3772 32.5453V7.08967C69.3772 5.08259 69.9333 3.48424 71.054 2.27649C72.1748 1.06874 73.6169 0.469482 75.3893 0.469482H86.5879C89.3855 0.469482 91.8791 1.06874 94.0685 2.25902C96.2578 3.4582 97.9518 5.09149 99.1595 7.15033C100.367 9.2095 100.967 11.503 100.967 14.0313C100.88 17.6456 99.7156 20.6429 97.4827 23.0145C95.2413 25.3865 92.218 26.8026 88.4213 27.2631C87.6395 27.3672 86.8747 27.4193 86.1275 27.4193H81.4188V32.6409C81.4188 34.4393 80.8192 35.925 79.6118 37.0717C78.4736 38.2099 77.0835 38.7831 75.4328 38.7831C73.7385 38.7831 72.2964 38.1664 71.1061 36.9241ZM81.4188 16.8894H86.2145C87.0138 16.8894 87.6826 16.6116 88.2476 16.0469C88.8383 15.4562 89.1336 14.7871 89.1336 14.0313C89.1336 13.2754 88.8558 12.6063 88.2997 12.0505C87.6915 11.4856 86.9964 11.2077 86.2145 11.2077H81.4188V16.8894Z" fill="#1F1D32"/>
<path d="M104.476 36.924C103.251 35.4644 102.643 33.8571 102.643 32.1108V6.18608C102.643 4.90021 102.991 3.73597 103.677 2.70227C104.364 1.65966 105.276 0.920972 106.405 0.460486C107.135 0.156571 107.865 0 108.595 0C110.41 0 112.131 0.947012 113.764 2.84994L126.987 18.5661V6.18608C126.987 4.50927 127.586 3.06716 128.794 1.85942C129.984 0.686611 131.392 0.104493 133.025 0.104493C133.833 0.104493 134.615 0.252163 135.353 0.547507C136.092 0.842851 136.717 1.28587 137.247 1.85942C137.786 2.38945 138.22 3.04079 138.542 3.80552C138.863 4.57882 139.028 5.37784 139.028 6.18608V32.745C139.028 33.0057 138.994 33.4052 138.924 33.9438C138.759 34.8823 138.377 35.7162 137.795 36.4546C137.204 37.1933 136.5 37.7665 135.666 38.1749C134.841 38.5833 133.937 38.7831 132.973 38.7831C131.817 38.7831 130.775 38.4963 129.845 37.9142C129.168 37.4626 128.664 37.0196 128.342 36.5937L114.685 19.8085V32.6929C114.685 34.4478 114.103 35.9074 112.93 37.0802C111.792 38.2184 110.419 38.7831 108.803 38.7831C107.057 38.7831 105.615 38.1663 104.476 36.924Z" fill="#1F1D32"/>
<path d="M5.40255 59.1328V65.8294H4.35204V60.0893H1.05051V65.8294H0V59.1328H5.40255ZM8.70244 60.7173C8.22085 61.1985 7.98187 61.7869 7.98187 62.4804C7.98187 63.1753 8.22085 63.7637 8.70244 64.2466C9.18369 64.7295 9.77207 64.9701 10.4686 64.9701C11.1634 64.9701 11.7518 64.7295 12.233 64.2466C12.7146 63.7637 12.9553 63.1753 12.9553 62.4804C12.9553 61.7869 12.7146 61.1985 12.233 60.7173C11.7518 60.2373 11.1634 59.9967 10.4686 59.9967C9.77207 59.9967 9.18369 60.2373 8.70244 60.7173ZM7.94825 64.9239C7.26922 64.2578 6.92971 63.4433 6.92971 62.4804C6.92971 61.5189 7.26922 60.7044 7.94825 60.0382C8.62728 59.3717 9.46749 59.0388 10.4686 59.0388C11.4696 59.0388 12.3082 59.3717 12.9872 60.0382C13.6663 60.7044 14.0058 61.5189 14.0058 62.4804C14.0058 63.4433 13.6663 64.2578 12.9872 64.9239C12.3082 65.5905 11.4696 65.9234 10.4686 65.9234C9.46749 65.9234 8.62728 65.5905 7.94825 64.9239ZM14.3885 64.8715H14.7712C14.8028 64.8475 14.8443 64.8043 14.8954 64.744C14.9465 64.6833 15.0372 64.5445 15.168 64.3277C15.2986 64.1111 15.4149 63.8734 15.5171 63.6153C15.6176 63.3569 15.7099 63.0049 15.7943 62.5586C15.879 62.1106 15.9202 61.6386 15.9202 61.1412V59.1328H20.2723V64.8715H21.0851V67.2626H20.03V65.8294H15.439V67.2626H14.3885V64.8715ZM16.9708 61.1412C16.9708 61.6386 16.9309 62.1089 16.8514 62.549C16.7733 62.9887 16.6774 63.3444 16.5643 63.6153C16.4529 63.8863 16.3412 64.1223 16.2281 64.323C16.1164 64.5238 16.0191 64.6659 15.9394 64.7502L15.8217 64.8715H19.2168V60.0893H16.9708V61.1412ZM23.379 64.8715H25.1023C25.4131 64.8715 25.6745 64.7677 25.8851 64.5574C26.0938 64.3471 26.1989 64.0854 26.1989 63.7716C26.1989 63.4591 26.0938 63.1977 25.8851 62.9871C25.6745 62.7768 25.4131 62.6733 25.1023 62.6733H23.379V64.8715ZM25.1023 65.8294H22.3285V59.1328H26.7267V60.0893H23.379V61.715H25.1023C25.7223 61.715 26.2355 61.9128 26.6436 62.308C27.0504 62.7036 27.2544 63.1911 27.2544 63.7716C27.2544 64.3534 27.0504 64.8412 26.6436 65.2364C26.2355 65.6317 25.7223 65.8294 25.1023 65.8294ZM30.1716 60.7173C29.69 61.1985 29.451 61.7869 29.451 62.4804C29.451 63.1753 29.69 63.7637 30.1716 64.2466C30.6528 64.7295 31.2412 64.9701 31.9377 64.9701C32.6326 64.9701 33.221 64.7295 33.7022 64.2466C34.1838 63.7637 34.4244 63.1753 34.4244 62.4804C34.4244 61.7869 34.1838 61.1985 33.7022 60.7173C33.221 60.2373 32.6326 59.9967 31.9377 59.9967C31.2412 59.9967 30.6528 60.2373 30.1716 60.7173ZM29.4174 64.9239C28.7384 64.2578 28.3989 63.4433 28.3989 62.4804C28.3989 61.5189 28.7384 60.7044 29.4174 60.0382C30.0964 59.3717 30.9366 59.0388 31.9377 59.0388C32.9388 59.0388 33.7774 59.3717 34.4564 60.0382C35.1354 60.7044 35.4749 61.5189 35.4749 62.4804C35.4749 63.4433 35.1354 64.2578 34.4564 64.9239C33.7774 65.5905 32.9388 65.9234 31.9377 65.9234C30.9366 65.9234 30.0964 65.5905 29.4174 64.9239ZM37.0067 59.1328H39.6816C40.3207 59.1328 40.8551 59.3414 41.2869 59.7607C41.7174 60.18 41.9326 60.6886 41.9326 61.2879C41.9326 61.8874 41.7174 62.3957 41.2869 62.8117C40.8551 63.2293 40.3207 63.4383 39.6816 63.4383H38.0572V65.8294H37.0067V59.1328ZM39.6816 60.0893H38.0572V62.4804H39.6816C40.0116 62.4804 40.2937 62.367 40.5281 62.1376C40.7608 61.9095 40.8772 61.6257 40.8772 61.2879C40.8772 60.95 40.7608 60.6662 40.5281 60.4351C40.2937 60.2057 40.0116 60.0893 39.6816 60.0893ZM42.1189 65.8294L44.8927 59.1328H45.9448L48.7183 65.8294H47.62L46.9011 64.06H43.9361L43.2172 65.8294H42.1189ZM45.4204 60.3283L44.3188 63.1021H46.5187L45.4204 60.3283ZM57.1801 59.1328V65.8294H56.1296V62.9106H52.8281V65.8294H51.7775V59.1328H52.8281V61.9573H56.1296V59.1328H57.1801ZM60.1418 64.8715H63.9199V65.8294H59.0913V59.1328H63.8257V60.0893H60.1418V61.8601H63.0606V62.8167H60.1418V64.8715ZM64.3966 64.8715H64.7793C64.8109 64.8475 64.8524 64.8043 64.9035 64.744C64.9546 64.6833 65.0453 64.5445 65.1761 64.3277C65.3067 64.1111 65.423 63.8734 65.5252 63.6153C65.6258 63.3569 65.718 63.0049 65.8024 62.5586C65.8871 62.1106 65.9284 61.6386 65.9284 61.1412V59.1328H70.2804V64.8715H71.0932V67.2626H70.0381V65.8294H65.4471V67.2626H64.3966V64.8715ZM66.9789 61.1412C66.9789 61.6386 66.939 62.1089 66.8595 62.549C66.7814 62.9887 66.6855 63.3444 66.5724 63.6153C66.461 63.8863 66.3493 64.1223 66.2362 64.323C66.1245 64.5238 66.0272 64.6659 65.9475 64.7502L65.8298 64.8715H69.2249V60.0893H66.9789V61.1412ZM75.203 65.8294H72.3366V59.1328H75.0593C75.5999 59.1328 76.0637 59.3114 76.4464 59.6701C76.8287 60.027 77.0202 60.4384 77.0202 60.9022C77.0202 61.1698 76.9642 61.4154 76.8544 61.6402C76.7443 61.865 76.6343 62.0196 76.5258 62.1073L76.3521 62.2428C76.3778 62.2556 76.4127 62.2764 76.4572 62.3064C76.5021 62.3351 76.5848 62.399 76.7028 62.4979C76.8208 62.5951 76.923 62.7036 77.009 62.8213C77.0934 62.9393 77.1732 63.0939 77.2464 63.2821C77.3199 63.4703 77.3565 63.6664 77.3565 63.8688C77.3565 64.4028 77.1508 64.8649 76.7394 65.2509C76.3284 65.6366 75.8164 65.8294 75.203 65.8294ZM73.3871 64.9193H75.203C75.5152 64.9193 75.7769 64.8139 75.9888 64.6036C76.1991 64.3933 76.3059 64.1319 76.3059 63.821C76.3059 63.5102 76.2008 63.2488 75.9905 63.0365C75.7799 62.8246 75.5185 62.7194 75.203 62.7194H73.3871V64.9193ZM75.0593 60.0429H73.3871V61.8601H75.0593C75.3207 61.8601 75.5376 61.774 75.7096 61.6003C75.8837 61.4283 75.9697 61.2114 75.9697 60.9516C75.9697 60.6919 75.8837 60.475 75.7096 60.3029C75.5376 60.1289 75.3207 60.0429 75.0593 60.0429ZM84.571 65.8294H83.5204V61.0011L79.7888 65.8294H78.8833V59.1328H79.9338V63.9661L83.6655 59.1328H84.571V65.8294ZM89.7837 65.8294V63.3922L89.1158 62.6733L86.9159 65.8294H85.6231L88.3969 61.9066L85.8146 59.1328H87.1552L89.7837 61.9573V59.1328H90.8391V61.9573L93.4675 59.1328H94.8081L92.2259 61.9066L94.9996 65.8294H93.7069L91.5069 62.6733L90.8391 63.3922V65.8294H89.7837ZM101.739 65.8294H100.689V61.0011L96.957 65.8294H96.0515V59.1328H97.102V63.9661L100.834 59.1328H101.739V65.8294ZM107.143 62.3878L109.726 59.1328H110.636V65.8294H109.585V60.9533L107.143 64.0122L104.706 60.9533V65.8294H103.655V59.1328H104.561L107.143 62.3878ZM113.936 60.7173C113.454 61.1985 113.215 61.7869 113.215 62.4804C113.215 63.1753 113.454 63.7637 113.936 64.2466C114.417 64.7295 115.005 64.9701 115.702 64.9701C116.397 64.9701 116.985 64.7295 117.466 64.2466C117.948 63.7637 118.188 63.1753 118.188 62.4804C118.188 61.7869 117.948 61.1985 117.466 60.7173C116.985 60.2373 116.397 59.9967 115.702 59.9967C115.005 59.9967 114.417 60.2373 113.936 60.7173ZM113.181 64.9239C112.502 64.2578 112.163 63.4433 112.163 62.4804C112.163 61.5189 112.502 60.7044 113.181 60.0382C113.86 59.3717 114.701 59.0388 115.702 59.0388C116.703 59.0388 117.541 59.3717 118.22 60.0382C118.899 60.7044 119.239 61.5189 119.239 62.4804C119.239 63.4433 118.899 64.2578 118.22 64.9239C117.541 65.5905 116.703 65.9234 115.702 65.9234C114.701 65.9234 113.86 65.5905 113.181 64.9239ZM123.927 59.0388C124.267 59.0388 124.592 59.0833 124.903 59.1726C125.215 59.2603 125.472 59.3688 125.676 59.4963C125.88 59.6236 126.058 59.7495 126.212 59.8757C126.363 60 126.476 60.1068 126.548 60.1975L126.65 60.3283L125.982 61.0011C125.963 60.9754 125.936 60.9404 125.901 60.8959C125.864 60.8495 125.783 60.7684 125.655 60.6504C125.528 60.5324 125.39 60.4302 125.244 60.3441C125.097 60.2581 124.908 60.18 124.672 60.1068C124.437 60.0333 124.189 59.9967 123.927 59.9967C123.234 59.9967 122.644 60.2373 122.162 60.7173C121.68 61.1985 121.439 61.7869 121.439 62.4804C121.439 63.1753 121.678 63.7637 122.159 64.2466C122.641 64.7295 123.23 64.9701 123.927 64.9701C124.189 64.9701 124.439 64.9335 124.676 64.8603C124.915 64.7868 125.113 64.6991 125.269 64.5973C125.427 64.4935 125.566 64.3916 125.685 64.2911C125.805 64.1892 125.894 64.1032 125.955 64.0313L126.028 63.915L126.701 64.5877C126.677 64.6243 126.639 64.6738 126.588 64.7344C126.535 64.7947 126.422 64.9015 126.246 65.0548C126.069 65.2061 125.883 65.3416 125.685 65.4612C125.488 65.5792 125.23 65.686 124.911 65.78C124.592 65.8756 124.263 65.9234 123.927 65.9234C122.925 65.9234 122.084 65.5905 121.405 64.9239C120.726 64.2578 120.387 63.4433 120.387 62.4804C120.387 61.5189 120.726 60.7044 121.405 60.0382C122.084 59.3717 122.925 59.0388 123.927 59.0388ZM127.271 59.1328H132.339V60.0893H130.331V65.8294H129.28V60.0893H127.271V59.1328ZM139.176 65.8294H138.125V61.0011L134.394 65.8294H133.488V59.1328H134.539V63.9661L138.27 59.1328H139.176V65.8294Z" fill="#1F1D32"/>
</svg>
