<svg width="140" height="68" viewBox="0 0 140 68" fill="none" xmlns="http://www.w3.org/2000/svg">
<path d="M0.323364 55.0807V46.4755H1.67318V53.8496H5.79019V46.4755H7.14001V53.8496H8.18888V56.9223H6.8328V55.0807H0.323364ZM11.1305 53.8496H15.9848V55.0807H9.78064V46.4755H15.8642V47.7047H11.1305V49.9804H14.8809V51.2093H11.1305V53.8496ZM24.7703 46.4755V55.0807H23.4202V51.3302H19.1782V55.0807H17.8284V46.4755H19.1782V50.1053H23.4202V46.4755H24.7703ZM26.2411 46.4755H32.7529V47.7047H30.1719V55.0807H28.8221V47.7047H26.2411V46.4755ZM34.2296 46.4755H37.6666C38.488 46.4755 39.1743 46.7438 39.7294 47.2828C40.2825 47.8214 40.5587 48.4747 40.5587 49.245C40.5587 50.015 40.2825 50.6687 39.7294 51.2033C39.1743 51.7399 38.488 52.0083 37.6666 52.0083H35.5794V55.0807H34.2296V46.4755ZM37.6666 47.7047H35.5794V50.7771H37.6666C38.0905 50.7771 38.4531 50.6317 38.7544 50.3367C39.0533 50.0437 39.203 49.6791 39.203 49.245C39.203 48.8106 39.0533 48.446 38.7544 48.149C38.4531 47.854 38.0905 47.7047 37.6666 47.7047ZM46.3272 53.8496H48.5413C48.9408 53.8496 49.2767 53.7164 49.5473 53.4461C49.8156 53.1758 49.9507 52.8399 49.9507 52.4364C49.9507 52.035 49.8156 51.6987 49.5473 51.4285C49.2767 51.1582 48.9408 51.025 48.5413 51.025H46.3272V53.8496ZM48.5413 55.0807H44.9774V46.4755H50.6288V47.7047H46.3272V49.7938H48.5413C49.3383 49.7938 49.9979 50.048 50.522 50.5559C51.0444 51.0639 51.3065 51.6908 51.3065 52.4364C51.3065 53.184 51.0444 53.8107 50.522 54.3186C49.9979 54.8266 49.3383 55.0807 48.5413 55.0807ZM54.6209 53.8496H59.4753V55.0807H53.2711V46.4755H59.3546V47.7047H54.6209V49.9804H58.3713V51.2093H54.6209V53.8496ZM65.129 46.3549C65.5651 46.3549 65.9831 46.4122 66.3826 46.5269C66.784 46.6393 67.1137 46.7788 67.3761 46.9426C67.6381 47.1064 67.8675 47.2683 68.0643 47.4301C68.2588 47.59 68.4042 47.7271 68.4964 47.8438L68.6276 48.0119L67.7693 48.8762C67.7446 48.8435 67.71 48.7984 67.6648 48.741C67.6177 48.6817 67.5132 48.5772 67.3494 48.4256C67.1855 48.2739 67.0092 48.1431 66.821 48.0323C66.6324 47.9216 66.3885 47.8214 66.0856 47.7271C65.7843 47.6328 65.4649 47.5857 65.129 47.5857C64.238 47.5857 63.4799 47.8952 62.8615 48.5116C62.2408 49.1303 61.9313 49.8861 61.9313 50.7771C61.9313 51.6701 62.2388 52.4259 62.8572 53.0466C63.4759 53.6673 64.2337 53.9768 65.129 53.9768C65.4649 53.9768 65.7866 53.9297 66.0915 53.8354C66.399 53.7411 66.6529 53.6284 66.8536 53.4972C67.0563 53.3643 67.2346 53.2331 67.3883 53.1039C67.5419 52.9731 67.6566 52.8623 67.7344 52.77L67.8286 52.6207L68.6929 53.485C68.6622 53.5321 68.6131 53.5957 68.5475 53.6735C68.48 53.7513 68.3346 53.8884 68.1091 54.0852C67.882 54.2797 67.6424 54.4538 67.3883 54.6077C67.1341 54.759 66.8025 54.8964 66.3928 55.0171C65.9831 55.14 65.5611 55.2017 65.129 55.2017C63.8405 55.2017 62.761 54.7735 61.8885 53.9171C61.0159 53.0611 60.5795 52.0142 60.5795 50.7771C60.5795 49.542 61.0159 48.4951 61.8885 47.6391C62.761 46.7827 63.8405 46.3549 65.129 46.3549ZM77.3535 46.4755V55.0807H76.0033V47.7047H71.7614V55.0807H70.4116V46.4755H77.3535ZM86.5649 46.4755V55.0807H85.215V47.7047H82.0829V49.0565C82.0829 50.2916 82.0236 51.3259 81.903 52.1576C81.782 52.9892 81.6017 53.6224 81.3601 54.0546C81.1185 54.4867 80.8521 54.7857 80.5611 54.9518C80.2723 55.1176 79.918 55.2017 79.5023 55.2017C79.3546 55.2017 79.1991 55.1852 79.0352 55.1522C78.8714 55.1216 78.7422 55.0889 78.6499 55.056L78.519 55.0214V53.7309C78.7626 53.8107 78.9861 53.8496 79.1908 53.8496C79.4265 53.8496 79.6292 53.7922 79.7993 53.6735C79.9691 53.5545 80.1309 53.3334 80.2825 53.0097C80.4342 52.6863 80.5469 52.1945 80.6184 51.5349C80.6903 50.8734 80.7272 50.048 80.7272 49.0565V46.4755H86.5649ZM88.0419 55.0807L91.6058 46.4755H92.9579L96.5219 55.0807H95.1107L94.1868 52.8069H90.377L89.453 55.0807H88.0419ZM92.2839 48.0119L90.8684 51.5761H93.6953L92.2839 48.0119ZM96.2763 46.4755H102.788V47.7047H100.207V55.0807H98.8572V47.7047H96.2763V46.4755ZM111.207 46.4755V55.0807H109.857V51.3302H105.615V55.0807H104.265V46.4755H105.615V50.1053H109.857V46.4755H111.207ZM115.447 48.5116C114.828 49.1303 114.521 49.8861 114.521 50.7771C114.521 51.6701 114.828 52.4259 115.447 53.0466C116.065 53.6673 116.821 53.9768 117.716 53.9768C118.609 53.9768 119.365 53.6673 119.984 53.0466C120.602 52.4259 120.912 51.6701 120.912 50.7771C120.912 49.8861 120.602 49.1303 119.984 48.5116C119.365 47.8952 118.609 47.5857 117.716 47.5857C116.821 47.5857 116.065 47.8952 115.447 48.5116ZM114.478 53.9171C113.605 53.0611 113.169 52.0142 113.169 50.7771C113.169 49.542 113.605 48.4951 114.478 47.6391C115.35 46.7827 116.43 46.3549 117.716 46.3549C119.003 46.3549 120.08 46.7827 120.953 47.6391C121.825 48.4951 122.262 49.542 122.262 50.7771C122.262 52.0142 121.825 53.0611 120.953 53.9171C120.08 54.7735 119.003 55.2017 117.716 55.2017C116.43 55.2017 115.35 54.7735 114.478 53.9171ZM124.23 55.0807V46.4755H129.757V47.7047H125.58V55.0807H124.23ZM132.645 48.5116C132.026 49.1303 131.719 49.8861 131.719 50.7771C131.719 51.6701 132.026 52.4259 132.645 53.0466C133.263 53.6673 134.019 53.9768 134.914 53.9768C135.807 53.9768 136.563 53.6673 137.182 53.0466C137.8 52.4259 138.11 51.6701 138.11 50.7771C138.11 49.8861 137.8 49.1303 137.182 48.5116C136.563 47.8952 135.807 47.5857 134.914 47.5857C134.019 47.5857 133.263 47.8952 132.645 48.5116ZM131.676 53.9171C130.803 53.0611 130.367 52.0142 130.367 50.7771C130.367 49.542 130.803 48.4951 131.676 47.6391C132.548 46.7827 133.628 46.3549 134.914 46.3549C136.2 46.3549 137.278 46.7827 138.151 47.6391C139.023 48.4951 139.459 49.542 139.459 50.7771C139.459 52.0142 139.023 53.0611 138.151 53.9171C137.278 54.7735 136.2 55.2017 134.914 55.2017C133.628 55.2017 132.548 54.7735 131.676 53.9171Z" fill="#FEFEFE"/>
<path d="M4.63454 31.1638C3.26198 29.3307 2.21081 27.3671 1.47245 25.2819C0.733756 23.1971 0.360291 21.1639 0.360291 19.1743C0.360291 17.1761 0.742657 15.1605 1.49849 13.1277C2.24542 11.1034 3.349 9.19194 4.79111 7.3935C7.99705 3.4492 12.2367 1.11216 17.5189 0.364898C18.961 0.156575 20.3339 0.0524139 21.6369 0.0524139C23.5395 0.0524139 25.2338 0.26074 26.728 0.677716C28.2225 1.09469 29.456 1.6422 30.4379 2.32848C31.411 3.02366 32.1408 3.77949 32.6184 4.61344C33.1049 5.43882 33.3482 6.31629 33.3482 7.23726C33.3482 8.47105 33.0008 9.51332 32.3059 10.3647C31.7584 11.0774 31.2112 11.5811 30.6637 11.8678C30.1077 12.1546 29.3953 12.3023 28.5093 12.3023C27.7795 12.3023 27.1885 12.2677 26.728 12.1981C25.8505 12.0415 24.6342 11.6766 23.088 11.0945C22.3753 10.8948 21.4547 10.7906 20.3165 10.7906C18.3183 10.7906 16.598 11.3727 15.1644 12.537C13.7309 13.7009 12.7753 15.3777 12.2973 17.5671C12.1932 18.0796 12.1497 18.6271 12.1497 19.2178C12.1497 19.7825 12.1932 20.356 12.2973 20.9556C12.5666 22.3977 13.0271 23.6226 13.6702 24.6217C14.3219 25.6208 15.1469 26.3766 16.1724 26.8806C17.1886 27.3757 18.3618 27.6279 19.7083 27.6279C21.3851 27.6279 23.3833 27.228 25.6854 26.4287C25.7203 26.4116 25.7985 26.3855 25.9201 26.3595C26.0332 26.3245 26.1373 26.2985 26.2243 26.281C26.815 26.1423 27.4578 26.0727 28.153 26.0727C29.8209 26.0727 31.1328 26.6113 32.0973 27.68C32.9662 28.6965 33.4006 29.7912 33.4006 30.964C33.4006 32.0327 33.0357 33.1099 32.3059 34.196C31.3849 35.6032 29.7081 36.7674 27.2666 37.6884C25.5206 38.3835 23.4093 38.731 20.9507 38.731C19.7169 38.731 18.405 38.6268 17.0324 38.4182C13.4181 37.8621 10.282 36.446 7.61469 34.196C6.59812 33.3617 5.60759 32.354 4.63454 31.1638Z" fill="#FFBB00"/>
<path d="M41.8103 38.3661C40.0119 38.3661 38.5523 37.7579 37.4316 36.5502C36.3109 35.3339 35.7548 33.718 35.7548 31.6938V6.73325C35.7548 5.59506 36.033 4.54388 36.5976 3.57083C37.1537 2.60667 37.9007 1.85084 38.8302 1.29477C39.7686 0.747259 40.7938 0.469383 41.9145 0.469383H50.5678C51.2976 0.469383 52.062 0.521464 52.8614 0.625625C54.5728 0.842848 56.1108 1.28587 57.4659 1.94611C58.8213 2.60668 59.9855 3.44063 60.9497 4.43115C61.9228 5.42135 62.6614 6.55097 63.1826 7.8019C63.6952 9.06173 63.9559 10.3908 63.9559 11.7983C63.9559 12.3023 63.9384 12.7018 63.9038 12.9975C63.7212 14.9956 63.0784 16.7245 61.9923 18.1841L62.0968 18.3143L62.8091 18.7748L63.5475 19.2267L63.8517 19.5046C64.564 20.1042 65.1722 20.7905 65.6762 21.5723C66.1713 22.3542 66.5537 23.1881 66.8055 24.0745C67.0573 24.9694 67.1879 25.9076 67.1879 26.8892C67.1879 28.0623 67.0052 29.2091 66.6492 30.3384C66.2929 31.468 65.7454 32.5452 64.9985 33.5789C64.3814 34.3437 63.7647 34.995 63.1391 35.5425C62.0183 36.507 60.7849 37.2193 59.4469 37.6798C58.1001 38.1403 56.5449 38.3661 54.7814 38.3661H41.8103ZM47.8484 14.2309H50.5939C51.1064 14.2309 51.5755 14.0397 52.0014 13.6488C52.3574 13.3709 52.5311 13.006 52.5311 12.5455C52.5311 12.0936 52.3402 11.7116 51.9493 11.4073C51.5583 11.0685 51.0718 10.8948 50.4983 10.8948H47.8484V14.2309ZM47.7963 27.8883H53.4956C53.9475 27.8883 54.3384 27.732 54.6598 27.4281C54.9812 27.1239 55.1463 26.7244 55.1463 26.2289C55.1463 25.7078 54.9901 25.2559 54.6858 24.891C54.3819 24.5261 53.9821 24.3438 53.4956 24.3438H47.7963V27.8883Z" fill="#FEFEFE"/>
<path d="M71.1061 36.924C69.9508 35.6641 69.3772 34.2045 69.3772 32.5452V7.08958C69.3772 5.08249 69.9333 3.48414 71.054 2.27639C72.1748 1.06864 73.6169 0.469383 75.3893 0.469383H86.5879C89.3855 0.469383 91.8791 1.06864 94.0685 2.25892C96.2578 3.4581 97.9518 5.09139 99.1595 7.15023C100.367 9.2094 100.967 11.5029 100.967 14.0312C100.88 17.6455 99.7156 20.6428 97.4827 23.0144C95.2413 25.3864 92.218 26.8025 88.4213 27.263C87.6395 27.3671 86.8747 27.4192 86.1275 27.4192H81.4188V32.6408C81.4188 34.4392 80.8192 35.9249 79.6118 37.0716C78.4736 38.2098 77.0835 38.783 75.4328 38.783C73.7385 38.783 72.2964 38.1663 71.1061 36.924ZM81.4188 16.8893H86.2145C87.0138 16.8893 87.6826 16.6115 88.2476 16.0468C88.8383 15.4561 89.1336 14.787 89.1336 14.0312C89.1336 13.2753 88.8558 12.6062 88.2997 12.0504C87.6915 11.4855 86.9964 11.2076 86.2145 11.2076H81.4188V16.8893Z" fill="#FEFEFE"/>
<path d="M104.476 36.924C103.251 35.4644 102.643 33.8571 102.643 32.1108V6.18608C102.643 4.90021 102.991 3.73597 103.677 2.70227C104.364 1.65966 105.276 0.920972 106.405 0.460486C107.135 0.156571 107.865 0 108.595 0C110.41 0 112.131 0.947012 113.764 2.84994L126.987 18.5661V6.18608C126.987 4.50927 127.586 3.06716 128.794 1.85942C129.984 0.686611 131.392 0.104493 133.025 0.104493C133.833 0.104493 134.615 0.252163 135.353 0.547507C136.092 0.842851 136.717 1.28587 137.247 1.85942C137.786 2.38945 138.22 3.04079 138.542 3.80552C138.863 4.57882 139.028 5.37784 139.028 6.18608V32.745C139.028 33.0057 138.994 33.4052 138.924 33.9438C138.759 34.8823 138.377 35.7162 137.795 36.4546C137.204 37.1933 136.5 37.7665 135.666 38.1749C134.841 38.5833 133.937 38.7831 132.973 38.7831C131.817 38.7831 130.775 38.4963 129.845 37.9142C129.168 37.4626 128.664 37.0196 128.342 36.5937L114.685 19.8085V32.6929C114.685 34.4478 114.103 35.9074 112.93 37.0802C111.792 38.2184 110.419 38.7831 108.803 38.7831C107.057 38.7831 105.615 38.1663 104.476 36.924Z" fill="#FEFEFE"/>
<path d="M5.40255 59.1328V65.8295H4.35204V60.0894H1.05051V65.8295H0V59.1328H5.40255ZM8.70244 60.7173C8.22085 61.1986 7.98187 61.7869 7.98187 62.4805C7.98187 63.1753 8.22085 63.7637 8.70244 64.2466C9.18369 64.7295 9.77207 64.9701 10.4686 64.9701C11.1634 64.9701 11.7518 64.7295 12.233 64.2466C12.7146 63.7637 12.9553 63.1753 12.9553 62.4805C12.9553 61.7869 12.7146 61.1986 12.233 60.7173C11.7518 60.2374 11.1634 59.9967 10.4686 59.9967C9.77207 59.9967 9.18369 60.2374 8.70244 60.7173ZM7.94825 64.924C7.26922 64.2578 6.92971 63.4433 6.92971 62.4805C6.92971 61.519 7.26922 60.7044 7.94825 60.0383C8.62728 59.3718 9.46749 59.0388 10.4686 59.0388C11.4696 59.0388 12.3082 59.3718 12.9872 60.0383C13.6663 60.7044 14.0058 61.519 14.0058 62.4805C14.0058 63.4433 13.6663 64.2578 12.9872 64.924C12.3082 65.5905 11.4696 65.9234 10.4686 65.9234C9.46749 65.9234 8.62728 65.5905 7.94825 64.924ZM14.3885 64.8716H14.7712C14.8028 64.8475 14.8443 64.8043 14.8954 64.744C14.9465 64.6834 15.0372 64.5446 15.168 64.3277C15.2986 64.1111 15.4149 63.8735 15.5171 63.6154C15.6176 63.3569 15.7099 63.0049 15.7943 62.5586C15.879 62.1106 15.9202 61.6386 15.9202 61.1412V59.1328H20.2723V64.8716H21.0851V67.2627H20.03V65.8295H15.439V67.2627H14.3885V64.8716ZM16.9708 61.1412C16.9708 61.6386 16.9309 62.109 16.8514 62.549C16.7733 62.9887 16.6774 63.3444 16.5643 63.6154C16.4529 63.8863 16.3412 64.1223 16.2281 64.3231C16.1164 64.5238 16.0191 64.6659 15.9394 64.7503L15.8217 64.8716H19.2168V60.0894H16.9708V61.1412ZM23.379 64.8716H25.1023C25.4131 64.8716 25.6745 64.7677 25.8851 64.5574C26.0938 64.3471 26.1989 64.0854 26.1989 63.7716C26.1989 63.4591 26.0938 63.1977 25.8851 62.9871C25.6745 62.7768 25.4131 62.6733 25.1023 62.6733H23.379V64.8716ZM25.1023 65.8295H22.3285V59.1328H26.7267V60.0894H23.379V61.7151H25.1023C25.7223 61.7151 26.2355 61.9128 26.6436 62.3081C27.0504 62.7036 27.2544 63.1911 27.2544 63.7716C27.2544 64.3534 27.0504 64.8412 26.6436 65.2365C26.2355 65.6317 25.7223 65.8295 25.1023 65.8295ZM30.1716 60.7173C29.69 61.1986 29.451 61.7869 29.451 62.4805C29.451 63.1753 29.69 63.7637 30.1716 64.2466C30.6528 64.7295 31.2412 64.9701 31.9377 64.9701C32.6326 64.9701 33.221 64.7295 33.7022 64.2466C34.1838 63.7637 34.4244 63.1753 34.4244 62.4805C34.4244 61.7869 34.1838 61.1986 33.7022 60.7173C33.221 60.2374 32.6326 59.9967 31.9377 59.9967C31.2412 59.9967 30.6528 60.2374 30.1716 60.7173ZM29.4174 64.924C28.7384 64.2578 28.3989 63.4433 28.3989 62.4805C28.3989 61.519 28.7384 60.7044 29.4174 60.0383C30.0964 59.3718 30.9366 59.0388 31.9377 59.0388C32.9388 59.0388 33.7774 59.3718 34.4564 60.0383C35.1354 60.7044 35.4749 61.519 35.4749 62.4805C35.4749 63.4433 35.1354 64.2578 34.4564 64.924C33.7774 65.5905 32.9388 65.9234 31.9377 65.9234C30.9366 65.9234 30.0964 65.5905 29.4174 64.924ZM37.0067 59.1328H39.6816C40.3207 59.1328 40.8551 59.3414 41.2869 59.7607C41.7174 60.18 41.9326 60.6886 41.9326 61.2879C41.9326 61.8875 41.7174 62.3958 41.2869 62.8117C40.8551 63.2294 40.3207 63.4384 39.6816 63.4384H38.0572V65.8295H37.0067V59.1328ZM39.6816 60.0894H38.0572V62.4805H39.6816C40.0116 62.4805 40.2937 62.3671 40.5281 62.1377C40.7608 61.9096 40.8772 61.6257 40.8772 61.2879C40.8772 60.95 40.7608 60.6662 40.5281 60.4351C40.2937 60.2057 40.0116 60.0894 39.6816 60.0894ZM42.1189 65.8295L44.8927 59.1328H45.9448L48.7183 65.8295H47.62L46.9011 64.06H43.9361L43.2172 65.8295H42.1189ZM45.4204 60.3283L44.3188 63.1021H46.5187L45.4204 60.3283ZM57.1801 59.1328V65.8295H56.1296V62.9106H52.8281V65.8295H51.7775V59.1328H52.8281V61.9574H56.1296V59.1328H57.1801ZM60.1418 64.8716H63.9199V65.8295H59.0913V59.1328H63.8257V60.0894H60.1418V61.8601H63.0606V62.8167H60.1418V64.8716ZM64.3966 64.8716H64.7793C64.8109 64.8475 64.8524 64.8043 64.9035 64.744C64.9546 64.6834 65.0453 64.5446 65.1761 64.3277C65.3067 64.1111 65.423 63.8735 65.5252 63.6154C65.6258 63.3569 65.718 63.0049 65.8024 62.5586C65.8871 62.1106 65.9284 61.6386 65.9284 61.1412V59.1328H70.2804V64.8716H71.0932V67.2627H70.0381V65.8295H65.4471V67.2627H64.3966V64.8716ZM66.9789 61.1412C66.9789 61.6386 66.939 62.109 66.8595 62.549C66.7814 62.9887 66.6855 63.3444 66.5724 63.6154C66.461 63.8863 66.3493 64.1223 66.2362 64.3231C66.1245 64.5238 66.0272 64.6659 65.9475 64.7503L65.8298 64.8716H69.2249V60.0894H66.9789V61.1412ZM75.203 65.8295H72.3366V59.1328H75.0593C75.5999 59.1328 76.0637 59.3115 76.4464 59.6701C76.8287 60.0271 77.0202 60.4384 77.0202 60.9022C77.0202 61.1699 76.9642 61.4154 76.8544 61.6402C76.7443 61.8651 76.6343 62.0197 76.5258 62.1073L76.3521 62.2428C76.3778 62.2557 76.4127 62.2764 76.4572 62.3064C76.5021 62.3351 76.5848 62.399 76.7028 62.4979C76.8208 62.5952 76.923 62.7036 77.009 62.8213C77.0934 62.9393 77.1732 63.0939 77.2464 63.2821C77.3199 63.4703 77.3565 63.6665 77.3565 63.8688C77.3565 64.4028 77.1508 64.865 76.7394 65.251C76.3284 65.6366 75.8164 65.8295 75.203 65.8295ZM73.3871 64.9194H75.203C75.5152 64.9194 75.7769 64.8139 75.9888 64.6036C76.1991 64.3933 76.3059 64.1319 76.3059 63.8211C76.3059 63.5102 76.2008 63.2488 75.9905 63.0365C75.7799 62.8246 75.5185 62.7194 75.203 62.7194H73.3871V64.9194ZM75.0593 60.0429H73.3871V61.8601H75.0593C75.3207 61.8601 75.5376 61.7741 75.7096 61.6004C75.8837 61.4283 75.9697 61.2114 75.9697 60.9517C75.9697 60.6919 75.8837 60.475 75.7096 60.303C75.5376 60.1289 75.3207 60.0429 75.0593 60.0429ZM84.571 65.8295H83.5204V61.0011L79.7888 65.8295H78.8833V59.1328H79.9338V63.9661L83.6655 59.1328H84.571V65.8295ZM89.7837 65.8295V63.3922L89.1158 62.6733L86.9159 65.8295H85.6231L88.3969 61.9066L85.8146 59.1328H87.1552L89.7837 61.9574V59.1328H90.8391V61.9574L93.4675 59.1328H94.8081L92.2259 61.9066L94.9996 65.8295H93.7069L91.5069 62.6733L90.8391 63.3922V65.8295H89.7837ZM101.739 65.8295H100.689V61.0011L96.957 65.8295H96.0515V59.1328H97.102V63.9661L100.834 59.1328H101.739V65.8295ZM107.143 62.3878L109.726 59.1328H110.636V65.8295H109.585V60.9533L107.143 64.0122L104.706 60.9533V65.8295H103.655V59.1328H104.561L107.143 62.3878ZM113.936 60.7173C113.454 61.1986 113.215 61.7869 113.215 62.4805C113.215 63.1753 113.454 63.7637 113.936 64.2466C114.417 64.7295 115.005 64.9701 115.702 64.9701C116.397 64.9701 116.985 64.7295 117.466 64.2466C117.948 63.7637 118.188 63.1753 118.188 62.4805C118.188 61.7869 117.948 61.1986 117.466 60.7173C116.985 60.2374 116.397 59.9967 115.702 59.9967C115.005 59.9967 114.417 60.2374 113.936 60.7173ZM113.181 64.924C112.502 64.2578 112.163 63.4433 112.163 62.4805C112.163 61.519 112.502 60.7044 113.181 60.0383C113.86 59.3718 114.701 59.0388 115.702 59.0388C116.703 59.0388 117.541 59.3718 118.22 60.0383C118.899 60.7044 119.239 61.519 119.239 62.4805C119.239 63.4433 118.899 64.2578 118.22 64.924C117.541 65.5905 116.703 65.9234 115.702 65.9234C114.701 65.9234 113.86 65.5905 113.181 64.924ZM123.927 59.0388C124.267 59.0388 124.592 59.0834 124.903 59.1727C125.215 59.2604 125.472 59.3688 125.676 59.4964C125.88 59.6236 126.058 59.7495 126.212 59.8758C126.363 60 126.476 60.1068 126.548 60.1975L126.65 60.3283L125.982 61.0011C125.963 60.9754 125.936 60.9405 125.901 60.896C125.864 60.8495 125.783 60.7684 125.655 60.6504C125.528 60.5324 125.39 60.4302 125.244 60.3442C125.097 60.2581 124.908 60.18 124.672 60.1068C124.437 60.0333 124.189 59.9967 123.927 59.9967C123.234 59.9967 122.644 60.2374 122.162 60.7173C121.68 61.1986 121.439 61.7869 121.439 62.4805C121.439 63.1753 121.678 63.7637 122.159 64.2466C122.641 64.7295 123.23 64.9701 123.927 64.9701C124.189 64.9701 124.439 64.9335 124.676 64.8604C124.915 64.7869 125.113 64.6992 125.269 64.5973C125.427 64.4935 125.566 64.3916 125.685 64.2911C125.805 64.1892 125.894 64.1032 125.955 64.0314L126.028 63.915L126.701 64.5878C126.677 64.6244 126.639 64.6738 126.588 64.7344C126.535 64.7948 126.422 64.9016 126.246 65.0548C126.069 65.2061 125.883 65.3416 125.685 65.4613C125.488 65.5793 125.23 65.6861 124.911 65.78C124.592 65.8756 124.263 65.9234 123.927 65.9234C122.925 65.9234 122.084 65.5905 121.405 64.924C120.726 64.2578 120.387 63.4433 120.387 62.4805C120.387 61.519 120.726 60.7044 121.405 60.0383C122.084 59.3718 122.925 59.0388 123.927 59.0388ZM127.271 59.1328H132.339V60.0894H130.331V65.8295H129.28V60.0894H127.271V59.1328ZM139.176 65.8295H138.125V61.0011L134.394 65.8295H133.488V59.1328H134.539V63.9661L138.27 59.1328H139.176V65.8295Z" fill="#FEFEFE"/>
</svg>
