<?xml version="1.0" encoding="UTF-8"?> <svg xmlns="http://www.w3.org/2000/svg" width="513" height="513" viewBox="0 0 513 513" fill="none"> <g clip-path="url(#clip0)"> <path d="M427.971 81.562H402.98C399.249 81.562 396.887 83.925 396.887 86.536H396.886V167.355C396.886 170.712 400.865 172.453 404.968 172.453C408.947 172.453 413.05 170.713 413.05 167.355V138.509H426.977C443.389 138.509 456.196 130.675 456.196 110.284V109.539C456.196 89.147 443.762 81.562 427.971 81.562ZM440.031 111.528C440.031 121.226 435.058 125.827 426.976 125.827H413.05V95.737H426.976C435.058 95.737 440.031 100.338 440.031 110.036V111.528Z" fill="#6E59B8" stroke="#6E59B8" stroke-width="2"></path> <path d="M358.922 314.919C355.766 313.182 352.652 311.28 349.668 309.264L301.423 276.672C286.781 266.78 269.701 261.552 252.031 261.552H163.48C139.975 261.552 117.859 270.689 101.205 287.279C92.6451 295.808 82.8931 302.942 72.2201 308.484C65.9081 311.762 61.9871 318.213 61.9871 325.32C61.9871 335.786 70.5011 344.3 80.9671 344.3H111.157C115.185 344.3 118.451 341.034 118.451 337.006C118.451 332.978 115.185 329.712 111.157 329.712H80.9671C78.5451 329.712 76.5741 327.741 76.5741 325.319C76.5741 323.678 77.4811 322.188 78.9421 321.43C90.9331 315.204 101.888 307.19 111.5 297.613C125.4 283.765 143.86 276.139 163.479 276.139H183.304V329.712H159.072C155.044 329.712 151.778 332.978 151.778 337.006C151.778 341.034 155.044 344.3 159.072 344.3H359.07C365.066 344.3 369.944 339.422 369.944 333.426C369.944 325.748 365.72 318.656 358.922 314.919ZM197.894 329.713V276.14H252.032C266.781 276.14 281.037 280.504 293.258 288.76L341.503 321.352C344.853 323.615 348.348 325.751 351.894 327.701C352.812 328.206 353.581 328.9 354.159 329.713H197.894V329.713Z" fill="#6E59B8" stroke="#6E59B8" stroke-width="2"></path> <path d="M215.966 355.388H193.436C189.408 355.388 186.142 358.654 186.142 362.682C186.142 366.71 189.408 369.976 193.436 369.976H215.966C219.994 369.976 223.26 366.71 223.26 362.682C223.26 358.654 219.994 355.388 215.966 355.388Z" fill="#6E59B8" stroke="#6E59B8" stroke-width="2"></path> <path d="M505.709 349.266L503.405 345.442C494.722 331.033 480.279 320.887 463.78 317.605L444.949 313.86V218.413H493.681C503.715 218.413 511.877 210.25 511.877 200.217V58.166C511.877 48.132 503.714 39.97 493.681 39.97H351.63C341.596 39.97 333.434 48.133 333.434 58.166V112.051C333.434 116.079 336.699 119.345 340.728 119.345C344.757 119.345 348.022 116.079 348.022 112.051V58.166C348.022 56.176 349.641 54.557 351.631 54.557H493.683C495.673 54.557 497.292 56.176 497.292 58.166V200.218C497.292 202.208 495.673 203.827 493.683 203.827H351.63C349.64 203.827 348.021 202.208 348.021 200.218V159.469C348.021 155.441 344.756 152.175 340.727 152.175C336.698 152.175 333.433 155.441 333.433 159.469V200.218C333.433 210.252 341.596 218.414 351.629 218.414H406.89V306.293L397.21 304.368C383.85 301.711 370.825 293.648 362.189 287.813L313.945 255.222C295.59 242.823 274.181 236.269 252.031 236.269H163.481C134.016 236.269 106.293 247.722 85.42 268.517C72.212 281.676 55.586 290.651 37.339 294.473L26.867 296.666C11.299 299.926 0 313.838 0 329.744V400.384C0 408.81 4.975 416.467 12.676 419.889L41.728 432.801C43.485 441.988 47.911 450.761 55.009 457.859C64.442 467.292 76.833 472.009 89.225 472.009C101.617 472.009 114.007 467.292 123.441 457.859C129.508 451.792 133.612 444.499 135.777 436.772H378.013C380.178 444.499 384.283 451.792 390.35 457.859C399.49 466.998 411.64 472.032 424.566 472.032C437.491 472.032 449.643 466.999 458.783 457.859C464.85 451.792 468.954 444.499 471.119 436.772H484.956C499.869 436.772 512.002 424.639 512.002 409.726V371.894C512 363.92 509.824 356.096 505.709 349.266ZM421.478 218.413H430.362V310.959L421.478 309.192V218.413ZM113.125 447.545C106.741 453.929 98.253 457.445 89.224 457.445C80.195 457.445 71.707 453.929 65.323 447.545C55.082 437.304 52.804 422.075 58.478 409.609C58.524 409.509 58.568 409.408 58.614 409.308C58.787 408.938 58.97 408.572 59.157 408.208C59.245 408.036 59.333 407.865 59.425 407.695C59.594 407.379 59.77 407.065 59.95 406.753C60.074 406.538 60.201 406.325 60.33 406.113C60.497 405.838 60.666 405.564 60.842 405.293C61.001 405.048 61.165 404.806 61.331 404.565C61.495 404.326 61.658 404.086 61.828 403.851C62.023 403.582 62.226 403.318 62.43 403.054C62.589 402.848 62.744 402.64 62.908 402.437C63.148 402.14 63.399 401.85 63.649 401.56C63.792 401.395 63.929 401.226 64.075 401.063C64.447 400.65 64.83 400.245 65.224 399.848C65.258 399.814 65.289 399.778 65.323 399.744C65.398 399.669 65.477 399.599 65.553 399.525C65.887 399.197 66.223 398.873 66.566 398.562C66.655 398.481 66.749 398.406 66.839 398.326C67.181 398.023 67.525 397.722 67.877 397.435C67.91 397.408 67.945 397.383 67.978 397.356C80.341 387.351 98.172 387.363 110.52 397.396C110.534 397.408 110.549 397.418 110.564 397.43C110.941 397.737 111.31 398.059 111.677 398.385C111.743 398.443 111.811 398.498 111.876 398.557C112.3 398.94 112.716 399.335 113.124 399.743C113.564 400.183 113.988 400.636 114.4 401.095C114.581 401.297 114.752 401.504 114.927 401.709C115.141 401.959 115.356 402.21 115.562 402.465C115.793 402.752 116.016 403.044 116.236 403.336C116.36 403.499 116.483 403.663 116.603 403.828C116.87 404.196 117.13 404.568 117.381 404.945C117.424 405.009 117.466 405.074 117.508 405.138C126.088 418.243 124.628 436.041 113.125 447.545ZM448.466 447.545C442.081 453.929 433.593 457.445 424.564 457.445C415.535 457.445 407.048 453.929 400.664 447.545C389.159 436.041 387.699 418.24 396.28 405.136C396.321 405.073 396.362 405.01 396.404 404.948C396.655 404.57 396.916 404.197 397.184 403.827C397.303 403.663 397.425 403.501 397.548 403.34C397.769 403.046 397.993 402.753 398.226 402.464C398.431 402.211 398.643 401.963 398.856 401.715C399.033 401.508 399.206 401.298 399.389 401.095C399.801 400.636 400.225 400.184 400.665 399.744C407.049 393.36 415.536 389.844 424.565 389.844C433.594 389.844 442.082 393.36 448.466 399.744C448.906 400.184 449.33 400.637 449.742 401.096C449.924 401.298 450.095 401.506 450.271 401.712C450.485 401.961 450.699 402.211 450.904 402.465C451.136 402.753 451.359 403.045 451.58 403.338C451.703 403.501 451.826 403.664 451.946 403.829C452.213 404.198 452.474 404.569 452.724 404.946C452.767 405.01 452.809 405.074 452.851 405.138C461.429 418.242 459.969 436.042 448.466 447.545ZM497.415 409.726H497.413C497.413 416.596 491.824 422.185 484.954 422.185H472.946C472.66 411.606 468.926 401.513 462.206 393.238C462.161 393.182 462.118 393.124 462.072 393.068C461.656 392.561 461.225 392.064 460.787 391.57C460.675 391.444 460.569 391.314 460.456 391.188C459.992 390.677 459.512 390.176 459.024 389.682C458.941 389.598 458.865 389.51 458.781 389.427C452.497 383.144 444.79 378.801 436.387 376.701C432.567 375.746 428.604 375.255 424.564 375.255C421.333 375.255 418.15 375.57 415.05 376.184C405.751 378.028 397.203 382.573 390.348 389.427C390.266 389.509 390.191 389.595 390.11 389.678C389.62 390.175 389.138 390.677 388.673 391.19C388.563 391.311 388.461 391.437 388.353 391.559C387.911 392.057 387.475 392.559 387.056 393.071C387.014 393.122 386.975 393.175 386.933 393.227C380.208 401.503 376.47 411.602 376.183 422.186H137.605C137.318 411.589 133.572 401.478 126.83 393.195C126.799 393.156 126.769 393.117 126.738 393.078C126.298 392.54 125.841 392.013 125.376 391.491C125.29 391.395 125.21 391.296 125.123 391.2C124.578 390.599 124.018 390.007 123.439 389.428C121.081 387.07 118.537 385.006 115.856 383.237C107.81 377.931 98.517 375.278 89.224 375.278C76.833 375.278 64.441 379.995 55.008 389.428C54.469 389.967 53.948 390.52 53.438 391.08C53.287 391.246 53.142 391.415 52.993 391.582C52.633 391.989 52.279 392.4 51.934 392.816C51.781 393.001 51.628 393.187 51.478 393.375C51.121 393.82 50.773 394.27 50.433 394.725C50.327 394.867 50.218 395.006 50.115 395.149C49.201 396.4 48.353 397.69 47.569 399.013C47.547 399.05 47.526 399.088 47.504 399.125C47.121 399.776 46.754 400.436 46.403 401.103C46.393 401.122 46.383 401.142 46.372 401.161C43.829 406 42.119 411.234 41.335 416.663L18.602 406.559C16.164 405.475 14.589 403.051 14.589 400.384V329.744C14.589 320.703 21.012 312.796 29.861 310.942L40.333 308.749C61.353 304.346 80.505 294.007 95.719 278.85C113.839 260.797 137.905 250.855 163.484 250.855H252.034C271.263 250.855 289.848 256.545 305.782 267.308L354.026 299.899C363.707 306.44 378.422 315.502 394.367 318.674L460.937 331.912C473.419 334.395 484.344 342.07 490.913 352.97L493.217 356.794C495.964 361.351 497.415 366.573 497.415 371.894V409.726V409.726Z" fill="#6E59B8" stroke="#6E59B8" stroke-width="2"></path> <path d="M104.883 407.986C100.699 403.803 95.1391 401.5 89.2241 401.5C83.3091 401.5 77.7481 403.804 73.5661 407.986C69.3841 412.168 67.0801 417.729 67.0801 423.644C67.0801 429.559 69.3841 435.12 73.5661 439.302C77.7481 443.484 83.3091 445.788 89.2251 445.788C95.1401 445.788 100.701 443.485 104.883 439.302C113.517 430.668 113.517 416.62 104.883 407.986ZM94.5671 428.987C93.1401 430.414 91.2421 431.2 89.2241 431.2C87.2051 431.2 85.3081 430.414 83.8811 428.986C82.4541 427.559 81.6671 425.662 81.6671 423.643C81.6671 421.624 82.4531 419.727 83.8811 418.3C85.3081 416.873 87.2051 416.086 89.2241 416.086C91.2421 416.086 93.1401 416.872 94.5671 418.3C97.5131 421.247 97.5131 426.041 94.5671 428.987Z" fill="#6E59B8" stroke="#6E59B8" stroke-width="2"></path> <path d="M440.223 407.987C436.041 403.804 430.48 401.5 424.564 401.5C418.649 401.5 413.089 403.803 408.905 407.986C400.272 416.62 400.272 430.668 408.905 439.302C413.088 443.485 418.649 445.788 424.564 445.788C430.48 445.788 436.04 443.485 440.222 439.303C444.405 435.121 446.708 429.56 446.708 423.645C446.708 417.73 444.405 412.169 440.223 407.987ZM429.907 428.988C428.48 430.415 426.583 431.201 424.564 431.201C422.546 431.201 420.648 430.415 419.221 428.988C416.275 426.042 416.275 421.248 419.221 418.302C420.648 416.875 422.546 416.088 424.564 416.088C426.583 416.088 428.48 416.874 429.908 418.302C431.335 419.729 432.121 421.626 432.121 423.645C432.121 425.662 431.336 427.56 429.907 428.988Z" fill="#6E59B8" stroke="#6E59B8" stroke-width="2"></path> </g> <defs> <clipPath id="clip0"> <rect width="512.002" height="512.002" fill="white"></rect> </clipPath> </defs> </svg> 