<?xml version="1.0" encoding="UTF-8"?> <svg xmlns="http://www.w3.org/2000/svg" width="512" height="512" viewBox="0 0 512 512" fill="none"> <g clip-path="url(#clip0)"> <path d="M462.797 324.497L349.867 292.232V187.733C349.867 168.908 334.558 153.6 315.734 153.6C296.91 153.6 281.6 168.909 281.6 187.733V332.817L277.214 324.599C271.625 313.838 260.309 307.157 247.68 307.157C241.596 307.157 235.622 308.753 230.4 311.774C214.818 320.768 209.408 340.088 217.284 357.078C218.905 361.507 257.672 466.006 301.167 509.5C302.763 511.104 304.93 512 307.2 512H443.733C446.583 512 449.246 510.575 450.833 508.203C486.4 454.852 486.4 410.496 486.4 384V358.4C486.4 335.377 471.245 326.246 462.797 324.497ZM469.333 384C469.333 407.927 469.333 447.565 439.108 494.933H310.81C270.874 452.505 233.677 352.204 233.046 350.558C229.308 342.477 230.136 331.631 238.934 326.554C246.887 321.963 258.091 324.813 262.119 332.553L282.608 370.953C284.451 374.4 288.419 376.133 292.199 375.211C296.005 374.264 298.667 370.85 298.667 366.934V187.734C298.667 178.322 306.321 170.667 315.734 170.667C325.147 170.667 332.801 178.321 332.801 187.734V298.667C332.801 302.473 335.327 305.826 338.996 306.868L366.934 314.855V322.398C366.934 327.108 370.748 330.931 375.467 330.931C380.186 330.931 384 327.108 384 322.398V319.727L401.067 324.608V331.733C401.067 336.443 404.881 340.266 409.6 340.266C414.319 340.266 418.133 336.443 418.133 331.733V329.48L435.2 334.361V341.333C435.2 346.043 439.014 349.866 443.733 349.866C448.452 349.866 452.266 346.043 452.266 341.333V339.234L458.461 341C458.734 341.085 459.007 341.154 459.289 341.196C459.391 341.213 469.333 343.176 469.333 358.399V384Z" fill="#6E59B8"></path> <path d="M196.267 358.4H51.2001C46.4901 358.4 42.6671 354.569 42.6671 349.867V25.6C42.6671 20.898 46.4901 17.067 51.2001 17.067H375.467C380.177 17.067 384 20.898 384 25.6V281.6C384 286.31 387.814 290.133 392.533 290.133C397.252 290.133 401.066 286.31 401.066 281.6V25.6C401.066 11.486 389.58 0 375.466 0H51.2001C37.0861 0 25.6001 11.486 25.6001 25.6V349.867C25.6001 363.981 37.0861 375.467 51.2001 375.467H196.267C200.986 375.467 204.8 371.644 204.8 366.934C204.8 362.224 200.986 358.4 196.267 358.4Z" fill="#6E59B8"></path> <path d="M221.867 221.867C240.692 221.867 256 206.558 256 187.734C256 168.91 240.691 153.6 221.867 153.6C203.042 153.6 187.734 168.909 187.734 187.733C187.734 206.557 203.042 221.867 221.867 221.867ZM221.867 170.667C231.279 170.667 238.934 178.321 238.934 187.734C238.934 197.147 231.28 204.801 221.867 204.801C212.455 204.801 204.8 197.147 204.8 187.734C204.8 178.321 212.454 170.667 221.867 170.667Z" fill="#6E59B8"></path> <path d="M281.6 85.333C281.6 104.158 296.909 119.466 315.733 119.466C334.557 119.466 349.866 104.157 349.866 85.333C349.866 66.5079 334.557 51.2 315.733 51.2C296.909 51.2 281.6 66.509 281.6 85.333ZM332.8 85.333C332.8 94.745 325.146 102.4 315.733 102.4C306.32 102.4 298.666 94.746 298.666 85.333C298.666 75.921 306.32 68.2659 315.733 68.2659C325.146 68.2659 332.8 75.921 332.8 85.333Z" fill="#6E59B8"></path> <path d="M110.933 256C92.1093 256 76.8003 271.309 76.8003 290.133C76.8003 308.957 92.1093 324.266 110.933 324.266C129.758 324.266 145.066 308.957 145.066 290.133C145.066 271.309 129.758 256 110.933 256ZM110.933 307.2C101.521 307.2 93.8663 299.546 93.8663 290.133C93.8663 280.721 101.52 273.066 110.933 273.066C120.345 273.066 128 280.72 128 290.133C128 299.546 120.346 307.2 110.933 307.2Z" fill="#6E59B8"></path> <path d="M247.467 85.333C247.467 66.5079 232.158 51.2 213.334 51.2C194.51 51.2 179.2 66.509 179.2 85.333C179.2 104.158 194.509 119.466 213.333 119.466C232.157 119.466 247.467 104.158 247.467 85.333ZM196.267 85.333C196.267 75.921 203.921 68.2659 213.334 68.2659C222.746 68.2659 230.401 75.92 230.401 85.333C230.401 94.745 222.747 102.4 213.334 102.4C203.921 102.4 196.267 94.746 196.267 85.333Z" fill="#6E59B8"></path> <path d="M110.933 153.6C92.1083 153.6 76.8003 168.909 76.8003 187.733C76.8003 206.557 92.1093 221.866 110.933 221.866C129.758 221.866 145.066 206.557 145.066 187.733C145.066 168.909 129.758 153.6 110.933 153.6ZM110.933 204.8C101.521 204.8 93.8663 197.146 93.8663 187.733C93.8663 178.32 101.52 170.666 110.933 170.666C120.345 170.666 128 178.32 128 187.733C128 197.146 120.346 204.8 110.933 204.8Z" fill="#6E59B8"></path> <path d="M110.933 51.2C92.1093 51.2 76.8003 66.509 76.8003 85.333C76.8003 104.158 92.1093 119.466 110.933 119.466C129.758 119.466 145.066 104.157 145.066 85.333C145.067 66.509 129.758 51.2 110.933 51.2ZM110.933 102.4C101.521 102.4 93.8663 94.746 93.8663 85.333C93.8663 75.921 101.52 68.2659 110.933 68.2659C120.345 68.2659 128 75.92 128 85.333C128 94.746 120.346 102.4 110.933 102.4Z" fill="#6E59B8"></path> <path d="M204.8 290.133C204.8 280.721 212.454 273.066 221.867 273.066C230.093 273.066 237.142 278.92 238.644 286.984C239.506 291.618 243.969 294.655 248.594 293.819C253.228 292.957 256.283 288.503 255.429 283.869C252.425 267.725 238.31 256 221.867 256C203.042 256 187.734 271.309 187.734 290.133C187.734 298.59 190.849 306.705 196.506 312.994C198.196 314.863 200.517 315.81 202.846 315.81C204.894 315.81 206.933 315.085 208.555 313.617C212.071 310.46 212.344 305.067 209.195 301.568C206.362 298.428 204.8 294.366 204.8 290.133Z" fill="#6E59B8"></path> </g> <defs> <clipPath id="clip0"> <rect width="512" height="512" fill="white"></rect> </clipPath> </defs> </svg> 