<svg width="39" height="36" viewBox="0 0 39 36" fill="none" xmlns="http://www.w3.org/2000/svg">
<path fill-rule="evenodd" clip-rule="evenodd" d="M1.16689 6.40679C-0.587014 13.4285 7.04589 22.2956 11.1718 26.1739C17.0671 31.7156 27.749 38.5896 35.4552 33.0033C36.1461 32.5025 37.4897 31.2144 37.8857 30.4079C38.228 29.7105 38.649 26.7559 38.1885 26.221C37.7511 25.713 30.0341 21.7215 29.0799 21.9126C27.8539 22.1582 25.48 26.596 24.6627 26.7567C23.1273 27.0586 17.855 23.4238 16.6406 22.3334C14.4909 20.4032 12.2629 18.1632 10.8323 15.5657C9.89629 13.866 11.0784 14.0674 13.0021 10.9928C14.0316 9.34739 13.6327 9.34889 12.8698 7.46919C12.4562 6.45009 10.3032 0.985588 9.75629 0.530688C9.49049 0.309588 6.01059 0.0540884 5.58359 0.190688C4.01819 0.691588 1.56829 4.79959 1.16689 6.40679Z" fill="white"/>
</svg>
