<svg width="18" height="22" viewBox="0 0 18 22" fill="none" xmlns="http://www.w3.org/2000/svg">
<path fill-rule="evenodd" clip-rule="evenodd" d="M10.7619 5.71235C10.7619 5.25215 10.7825 5.25601 11.1719 4.99529C11.5639 5.25762 11.7972 5.66208 12.4019 5.71235L12.163 6.29315C11.7191 6.77413 10.7619 6.54204 10.7619 5.71235ZM14.9642 4.38052C15.8213 4.60938 17.1166 6.53345 17.1166 7.86379C17.1166 8.99314 17.174 9.31483 16.6408 10.3591C16.1124 11.3936 15.4731 11.9715 14.4544 12.4765C13.6654 12.8675 12.8334 12.8621 12.7093 12.9861C12.4355 13.5566 12.6537 13.7821 12.095 14.1136C11.1897 14.6509 10.7665 14.6587 11.2367 15.4751C11.3851 15.7327 11.4503 15.8108 11.5819 16.0596C11.1646 16.6825 11.0665 16.2942 11.2744 17.1865C9.15731 18.6034 10.8644 18.3146 10.8644 19.6452C10.8644 20.2109 10.5946 20.1739 10.1919 20.4073C9.76141 20.6568 9.65558 20.7504 9.12208 20.8746C8.9657 20.5791 8.30209 18.9128 8.30209 18.6207L9.94207 12.5763C11.0739 12.5763 11.5412 12.5027 12.3181 12.1853C12.6774 12.0385 12.8455 11.917 13.1796 11.7145C13.5563 11.4863 13.673 11.3601 13.9654 11.0658C15.8207 9.19947 16.2389 6.78844 14.9642 4.38052ZM10.7619 3.66345C10.7619 3.9401 10.8109 3.94595 10.8644 4.17568C9.64288 4.50173 9.1029 7.35156 11.787 7.35156C12.409 7.35156 13.2219 6.7684 13.2219 5.81477C13.2219 4.82902 12.9611 4.26802 11.6844 3.97084L11.7527 2.84099C13.223 2.96332 14.7593 5.23883 14.7593 6.53195C14.7593 8.23389 14.6609 9.1548 13.3008 10.5039C12.2276 11.5686 10.4614 12.0278 8.81019 11.5556C8.28491 11.4054 8.13214 11.1094 7.71567 11.4684C7.19612 11.9163 7.5324 11.9862 6.56314 11.9651C5.32232 11.9379 5.43226 11.9039 5.43226 13.4984C4.76529 13.4984 4.71474 13.5489 4.71474 14.2156C3.11996 14.2156 3.15345 14.1055 3.18072 15.3458C3.18794 15.6712 3.21658 15.848 3.09618 16.0809C2.79936 16.6546 1.98074 16.4693 0.922452 16.4693C0.930047 16.131 1.26235 14.1644 1.37814 13.9538C1.59117 13.5668 5.94472 9.51557 5.94472 9.29804C5.94472 8.65029 4.48017 6.16508 6.99293 3.68673C7.82275 2.86837 9.45451 2.18428 10.967 2.53647C10.9298 2.98386 10.7619 3.18931 10.7619 3.66345ZM14.7593 0.897381C15.7265 0.897381 16.6042 1.20725 16.6042 2.33163C16.6042 3.03388 16.2342 3.50815 15.9893 3.97084C14.3739 2.88965 14.2915 3.26958 13.3442 2.6191C13.032 2.4048 12.808 2.22137 12.4019 2.12679C12.571 1.49386 13.9626 0.897381 14.7593 0.897381ZM10.557 1.61445C8.75915 1.61445 7.48422 1.94784 6.17294 3.27693C4.74101 4.72835 4.17028 7.31834 5.02226 9.09308C4.59696 9.37781 1.73634 12.3449 0.998529 13.0622C0.5472 13.501 0.53537 13.4058 0.420951 14.124L0 16.9816C0 17.4953 2.09429 17.2889 2.9723 17.2889C3.2299 17.2889 3.61561 16.8308 3.77535 16.6572C4.19493 16.2012 3.92277 16.1099 3.98764 15.4353C4.08612 14.4122 5.62325 15.7163 5.73966 14.318C6.5035 14.3009 6.35471 13.8919 6.35471 12.7812C8.25092 12.7812 7.38536 12.8139 8.19962 12.2689C8.53118 12.3462 8.64921 12.4431 9.01949 12.4739L7.72339 17.4276C7.39819 18.5397 7.28464 18.567 7.59989 19.2174L8.22938 20.9473C8.70599 22.1719 8.4698 22.4608 10.5763 21.0988C10.9594 20.8512 11.787 20.6682 11.787 19.5427C11.787 19.1194 11.3452 18.5382 11.1719 18.2109C13.0437 17.2209 12.0498 17.3486 12.4318 16.698C12.5595 16.4806 12.6985 16.5671 12.6439 16.2139C12.5823 15.8139 12.1383 15.5624 12.0944 15.035C12.7692 14.878 13.3074 14.464 13.3244 13.7033C13.894 13.6906 14.7737 13.2973 15.1713 13.0906C17.3782 11.943 18.7242 8.98568 17.5878 6.16347C17.1825 5.15695 16.9875 5.1577 16.6042 4.58549C17.3197 3.51736 17.4242 3.40175 17.4242 2.02424C17.4242 0.146343 14.2481 -1.11878 11.715 1.44295C11.2124 1.95144 11.3285 1.61445 10.557 1.61445Z" fill="white"/>
</svg>
