<svg width="68" height="67" viewBox="0 0 68 67" fill="none" xmlns="http://www.w3.org/2000/svg">
<path fill-rule="evenodd" clip-rule="evenodd" d="M7.41242 63.8816C4.80999 63.8816 2.9005 62.6721 2.9005 60.0807C2.9005 57.9219 4.54193 57.0418 5.72046 55.8842C7.97794 53.6661 15.4657 46.6183 16.4359 45.1942C17.7189 46.0384 21.7891 49.73 21.9147 51.2122C20.4865 51.5868 13.1353 59.3653 11.5212 60.9517C10.5047 61.951 9.16198 63.8816 7.41242 63.8816ZM20.3033 13.8371C20.3033 12.282 26.4774 6.97212 28.1198 5.36553C31.8055 1.76005 29.8865 1.24249 39.8814 11.066L60.9904 31.8122C66.6735 37.3973 66.5283 35.3963 59.8627 41.9476C52.8167 48.8722 55.9905 49.3865 45.5213 39.0969L24.4123 18.3507C23.5904 17.5429 20.3033 14.866 20.3033 13.8371ZM24.4929 4.96871C23.1428 4.08021 22.0335 1.8013 20.3033 1.8013C19.2537 1.8013 19.0142 2.5543 19.0142 3.38499C19.0142 4.43427 21.3158 5.98997 21.9147 6.86913C21.3053 9.11221 17.9202 10.0299 17.2478 12.7604C16.5566 15.5666 19.5962 17.735 21.0284 19.1426L47.6161 45.2733C51.2592 48.8538 53.5771 52.3139 57.93 47.9666C58.9388 46.9588 59.7641 45.9484 60.9099 45.1942C62.9492 46.5364 62.8435 47.1593 62.8435 49.3118C62.8435 51.065 55.6039 58.1802 53.82 58.1802C50.3534 58.1802 49.5664 56.3752 46.9716 53.8253L36.4978 43.5313C32.4084 39.5121 32.7588 39.1761 28.038 39.1761C24.7184 39.1761 22.5932 43.9597 20.3033 44.5607C16.9512 42.3546 18.0541 39.1144 12.4473 45.0746L7.49605 50.0278C4.90005 52.5623 0 56.2256 0 59.7642C0 61.9031 0.689589 63.7488 2.07306 65.0115C8.27786 70.6758 14.2213 62.7326 17.1611 59.8431C18.5283 58.4994 25.782 51.9595 25.782 50.5788C25.782 49.4924 23.1955 47.7118 22.5592 46.7779L23.4872 45.7894C25.6518 43.664 28.5781 39.7442 32.3161 43.5234C35.3665 46.6077 48.1259 59.3954 49.5134 60.196C55.3269 63.551 58.6404 58.6689 61.9573 55.409C63.72 53.6766 65.3176 52.6719 65.9049 49.7604C66.6082 46.273 63.8643 44.0019 63.1658 42.977C65.4316 39.6518 68 39.8954 68 36.0087C68 33.6292 60.0653 26.785 58.0902 24.8439L36.8198 3.93929C35.398 2.54166 33.1871 -0.519171 30.4857 0.0757711C28.3955 0.536129 25.4965 3.49551 24.4929 4.96871Z" fill="#FFBB00"/>
</svg>
