<svg width="53" height="53" viewBox="0 0 53 53" fill="none" xmlns="http://www.w3.org/2000/svg">
<path fill-rule="evenodd" clip-rule="evenodd" d="M23.428 21.5065C23.879 18.2385 22.9684 13.1066 25.8866 10.6186C28.337 8.52965 33.7369 8.60565 36.8879 9.03674L36.9037 14.5685L31.5847 14.9827C30.3321 16.5233 30.6718 19.4125 30.8538 21.5644L36.678 21.7339L35.6974 27.8954L30.8223 28.043C30.6676 31.6875 31.3071 41.2188 30.531 43.9636L23.3933 43.9099L23.1854 27.9519L18.6367 27.7503L18.656 21.6407L23.428 21.5065ZM21.8159 0.339374C18.4668 0.884481 15.1487 2.23924 12.3932 3.99065C6.7512 7.57659 7.77967 7.70811 5.36262 10.3547C0.983061 15.1496 -0.852075 24.4467 0.371148 30.8463C3.10529 45.1512 15.7838 54.4759 30.5049 52.2961C44.7602 50.1854 54.3085 36.2977 52.2607 22.0902C50.2068 7.83846 36.0679 -1.9797 21.8159 0.339374Z" fill="#42599D"/>
</svg>
