<svg width="54" height="53" viewBox="0 0 54 53" fill="none" xmlns="http://www.w3.org/2000/svg">
<path fill-rule="evenodd" clip-rule="evenodd" d="M7.74446 8.86209C7.83769 10.2379 8.37953 9.2044 7.40719 10.2741C9.00094 9.59571 10.6265 10.2094 12.4147 10.4045C12.6008 11.6295 12.697 11.6805 13.1753 12.4166C18.2862 9.20233 25.7992 9.92585 31.7333 10.1681C38.8998 10.4606 42.6212 12.0558 43.4317 19.7408L43.6395 18.5457C46.3526 18.6206 45.3244 18.4472 48.2049 19.7336C49.1019 20.1344 52.0159 21.3704 52.8481 21.504C52.0245 17.3644 50.6802 14.7074 48.5143 11.2194L46.7709 11.3465C46.3481 10.0206 47.1738 11.4787 46.3891 10.0043C44.8467 10.8908 46.2312 10.3982 45.0439 10.1177C42.9157 9.61502 45.89 10.1649 44.2975 9.87984C40.3585 9.175 33.3315 6.06766 28.8439 4.65056C25.8428 3.70256 27.5227 2.17265 23.1265 2.14029L22.3593 0.526943C17.6472 1.14509 9.84265 4.90057 7.74446 8.86209ZM34.2685 43.2477C34.5227 44.0722 36.9881 43.5918 37.7832 43.6678C40.5102 43.9285 37.5035 44.4591 40.1744 43.7824C41.7572 45.2274 40.1213 43.6803 43.7075 45.4234L43.0202 47.0133C45.7517 45.6751 50.5038 39.4471 51.0976 36.2005C49.3833 35.5815 49.6856 36.6346 46.8306 34.548C45.4236 35.1575 46.4233 34.2496 45.6908 35.7783L45.113 34.4491L43.3646 34.5376C42.4516 39.9124 40.0292 42.9473 34.2685 43.2477ZM25.2431 21.5239C18.3173 23.7468 21.414 33.8951 28.3671 32.0612C35.4484 30.1931 32.369 19.2366 25.2431 21.5239ZM48.5143 11.2194C45.203 7.84608 43.2283 4.66424 38.2686 2.59129C33.3297 0.526951 27.7109 -0.787132 22.3593 0.526943L23.1265 2.14029C27.5227 2.17265 25.8428 3.70256 28.8439 4.65056C33.3315 6.06766 40.3585 9.175 44.2975 9.87984C45.89 10.1649 42.9157 9.61502 45.0439 10.1177C46.2312 10.3982 44.8467 10.8908 46.3891 10.0043C47.1738 11.4787 46.3481 10.0206 46.7709 11.3465L48.5143 11.2194ZM1.15093 30.9837C2.56328 29.7655 1.60787 29.979 2.43651 28.5539C5.75703 28.8273 2.12773 28.6738 6.29768 30.3145C10.0621 31.7957 9.56921 32.4575 9.80821 35.4176L10.1369 34.4634L10.2298 19.7841L9.9338 17.5194L9.69093 19.8654C8.44099 18.9566 7.87688 19.3661 6.01324 18.0559C4.4569 16.9618 4.39485 17.8715 2.40771 17.4098C0.303287 21.5034 0.619482 26.5368 1.15093 30.9837ZM13.3235 30.6833C13.9268 31.5003 13.7736 30.8397 14.0289 31.9374C14.1863 32.6134 14.0432 32.9248 13.9713 33.4435L14.0485 30.1883C15.7759 30.2533 14.7266 30.514 16.4763 30.7979C19.1323 31.2287 17.7378 30.4149 19.3972 32.2156C24.8604 38.1434 26.6673 33.8158 35.468 37.3285C35.5514 37.3614 35.6654 37.4279 35.7429 37.4591C35.8124 37.487 35.9234 37.5538 35.9884 37.5784C37.7496 38.2456 35.9374 37.0449 37.6232 38.0891L37.2681 39.2259C42.0208 38.1111 40.5408 27.9182 40.5619 24.139C39.9506 24.767 39.9138 24.4297 39.6979 26.3046C38.7374 24.8314 39.4936 25.6556 38.325 25.8955L36.6443 26.2446C36.3967 24.995 36.0846 23.3246 34.7409 23.4247C37.8548 30.7349 30.1879 37.8501 23.1814 34.4841C16.4905 31.2696 16.6936 21.4568 24.027 18.7262L21.6506 17.6301C21.6067 17.6221 21.0479 17.5897 20.7911 17.544C19.1106 17.2444 18.9286 16.9618 18.1211 15.7335C17.1244 16.6667 17.5053 16.6013 16.3673 16.7626L15.4107 15.8623L16.2833 14.3491C12.1089 15.2279 13.2193 27.1505 13.3235 30.6833ZM1.15093 30.9837C1.79401 39.4053 9.17433 47.0694 16.3308 50.3831C20.4811 52.3049 26.458 53.0136 31.0011 52.3022C34.4398 51.764 40.9808 49.7605 43.0202 47.0133L43.7075 45.4234C40.1213 43.6803 41.7572 45.2274 40.1744 43.7824C37.5035 44.4591 40.5102 43.9285 37.7832 43.6678C36.9881 43.5918 34.5227 44.0722 34.2685 43.2477C29.3869 43.2777 22.3222 43.8947 17.6594 42.9844C15.5309 42.569 13.7433 41.6537 12.4726 40.0463C10.6873 37.7881 11.2672 36.4229 10.1369 34.4634L9.80821 35.4176C9.56921 32.4575 10.0621 31.7957 6.29768 30.3145C2.12773 28.6738 5.75703 28.8273 2.43651 28.5539C1.60787 29.979 2.56328 29.7655 1.15093 30.9837ZM2.40771 17.4098C4.39485 17.8715 4.4569 16.9618 6.01324 18.0559C7.87688 19.3661 8.44099 18.9566 9.69093 19.8654L9.9338 17.5194L10.2298 19.7841C11.3313 16.398 10.3444 15.6029 13.1753 12.4166C12.697 11.6805 12.6008 11.6295 12.4147 10.4045C10.6265 10.2094 9.00094 9.59571 7.40719 10.2741C8.37953 9.2044 7.83769 10.2379 7.74446 8.86209C5.54118 10.4089 2.96855 14.684 2.40771 17.4098ZM34.0714 18.9097C33.0361 14.8158 37.8458 14.6448 37.6826 18.6378C36.3035 19.9572 35.5588 20.1867 34.0714 18.9097ZM16.2833 14.3491L15.4107 15.8623L16.3673 16.7626C17.5053 16.6013 17.1244 16.6667 18.1211 15.7335C18.9286 16.9618 19.1106 17.2444 20.7911 17.544C21.0479 17.5897 21.6067 17.6221 21.6506 17.6301L24.027 18.7262C28.8308 17.0704 32.5634 19.3643 34.7409 23.4247C36.0846 23.3246 36.3967 24.995 36.6443 26.2446L38.325 25.8955C39.4936 25.6556 38.7374 24.8314 39.6979 26.3046C39.9138 24.4297 39.9506 24.767 40.5619 24.139C40.5343 17.9442 40.6729 13.6736 33.4324 13.2476C30.0653 13.0495 18.445 12.3512 16.2833 14.3491ZM13.3235 30.6833C13.4794 37.4006 13.7825 39.7188 20.9609 40.2271C24.2945 40.4631 35.0698 41.1326 37.2681 39.2259L37.6232 38.0891C35.9374 37.0449 37.7496 38.2456 35.9884 37.5784C35.9234 37.5538 35.8124 37.487 35.7429 37.4591C35.6654 37.4279 35.5514 37.3614 35.468 37.3285C26.6673 33.8158 24.8604 38.1434 19.3972 32.2156C17.7378 30.4149 19.1323 31.2287 16.4763 30.7979C14.7266 30.514 15.7759 30.2533 14.0485 30.1883L13.9713 33.4435C14.0432 32.9248 14.1863 32.6134 14.0289 31.9374C13.7736 30.8397 13.9268 31.5003 13.3235 30.6833ZM43.4317 19.7408L43.4721 33.2618C43.9171 30.0173 44.7692 23.8412 44.0662 20.8443L44.516 25.1303C45.9055 25.7907 49.8649 27.1757 51.1659 28.4651C52.8164 28.0756 51.2054 28.4743 52.5705 27.7814L52.6804 30.158C54.0444 28.1635 53.1854 24.0001 52.8481 21.504C52.0159 21.3704 49.1019 20.1344 48.2049 19.7336C45.3244 18.4472 46.3526 18.6206 43.6395 18.5457L43.4317 19.7408ZM43.4721 33.2618L43.3646 34.5376L45.113 34.4491L45.6908 35.7783C46.4233 34.2496 45.4236 35.1575 46.8306 34.548C49.6856 36.6346 49.3833 35.5815 51.0976 36.2005C52.2526 34.7128 52.8398 32.0704 52.6804 30.158L52.5705 27.7814C51.2054 28.4743 52.8164 28.0756 51.1659 28.4651C49.8649 27.1757 45.9055 25.7907 44.516 25.1303L44.0662 20.8443C44.7692 23.8412 43.9171 30.0173 43.4721 33.2618Z" fill="url(#paint0_linear)"/>
<defs>
<linearGradient id="paint0_linear" x1="0.757541" y1="26.2862" x2="53.4259" y2="26.2862" gradientUnits="userSpaceOnUse">
<stop stop-color="#9F28A6"/>
<stop offset="1" stop-color="#FA9456"/>
</linearGradient>
</defs>
</svg>
