<svg width="53" height="53" viewBox="0 0 53 53" fill="none" xmlns="http://www.w3.org/2000/svg">
<path fill-rule="evenodd" clip-rule="evenodd" d="M16.6494 26.3676C19.8577 26.0182 22.1293 29.6911 28.2157 28.8473C32.345 28.2746 36.5324 23.3402 37.3257 28.9753C35.5847 32.1138 31.8987 32.7824 28.6025 33.5954C29.6123 36.4771 36.696 39.6153 35.428 42.9316C33.7727 47.2622 28.1649 39.8929 26.5872 38.4859C24.3316 39.5458 19.2591 47.5371 17.2821 42.8903C16.2017 40.3516 22.7334 35.5944 24.2301 33.696C21.4719 32.8489 12.1897 30.7858 16.6494 26.3676ZM24.3791 8.09974C36.0781 5.37778 40.113 23.2541 28.4095 26.0384C16.636 28.839 12.4705 10.8707 24.3791 8.09974ZM22.0114 0.421952C7.74687 3.00972 -2.30582 16.1576 0.458603 30.909C3.09803 44.9933 16.3955 54.826 30.8438 52.2165C44.9053 49.6766 55.0307 36.1338 52.2298 21.6639C49.5108 7.61908 36.4074 -2.18987 22.0114 0.421952Z" fill="#F19913"/>
<path fill-rule="evenodd" clip-rule="evenodd" d="M28.6025 33.5957C31.8987 32.7828 35.5847 32.1141 37.3257 28.9756C36.5324 23.3405 32.345 28.2749 28.2157 28.8476C22.1293 29.6914 19.8577 26.0185 16.6494 26.3679C12.1897 30.7861 21.4719 32.8492 24.2301 33.6963C22.7335 35.5947 16.2017 40.3519 17.2821 42.8907C19.2591 47.5374 24.3317 39.5461 26.5872 38.4862C28.1649 39.8932 33.7728 47.2625 35.428 42.9319C36.696 39.6156 29.6123 36.4774 28.6025 33.5957Z" fill="#FFFFFD"/>
<path fill-rule="evenodd" clip-rule="evenodd" d="M21.8986 18.0423C20.6795 11.9677 29.6135 10.4036 30.6856 16.1433C31.85 22.3764 23.0167 23.6145 21.8986 18.0423ZM24.3791 8.09943C12.4705 10.8704 16.636 28.8387 28.4095 26.0381C40.113 23.2537 36.0781 5.37746 24.3791 8.09943Z" fill="#FFFFFD"/>
<path fill-rule="evenodd" clip-rule="evenodd" d="M21.8986 18.0432C23.0167 23.6154 31.85 22.3774 30.6856 16.1443C29.6135 10.4046 20.6795 11.9687 21.8986 18.0432Z" fill="#F19913"/>
</svg>
