<svg width="53" height="53" viewBox="0 0 53 53" fill="none" xmlns="http://www.w3.org/2000/svg">
<path fill-rule="evenodd" clip-rule="evenodd" d="M25.1217 34.511C23.4769 35.6953 22.3335 37.933 20.3164 38.3665C18.8408 36.5694 18.0727 31.811 17.2524 29.4393C14.9642 28.4471 11.3895 27.9124 9.59835 26.4526C9.94839 24.1492 14.0373 23.5676 16.0933 22.6885C18.5302 21.646 21.0254 20.7465 23.4923 19.7501C26.3265 18.6055 36.484 14.1042 38.7773 14.4228C39.4067 16.2989 37.2031 24.4615 36.7126 26.9579C36.1726 29.7063 35.4229 37.9366 33.5869 39.4181C31.7805 40.2281 26.9764 35.6297 25.1217 34.511ZM21.9535 0.348314C7.89355 2.61989 -2.27137 16.4729 0.439019 30.7923C3.11645 44.9372 15.9659 54.6754 30.6004 52.2694C44.9893 49.9037 54.6144 36.5836 52.3164 21.9982C50.0538 7.63836 36.3902 -1.98412 21.9535 0.348314Z" fill="#34B2E3"/>
<path fill-rule="evenodd" clip-rule="evenodd" d="M17.2524 29.4394C20.1406 27.8331 31.7128 19.569 33.9221 19.1943C32.9352 21.4368 22.6705 28.6968 21.2917 31.1142C22.6856 32.4288 24.6817 32.8531 25.1217 34.511C26.9764 35.6297 31.7805 40.2281 33.5869 39.4182C35.4229 37.9366 36.1726 29.7063 36.7126 26.9579C37.2031 24.4616 39.4067 16.2989 38.7773 14.4228C36.484 14.1043 26.3265 18.6055 23.4923 19.7501C21.0254 20.7465 18.5302 21.6461 16.0933 22.6885C14.0373 23.5676 9.94837 24.1492 9.59833 26.4526C11.3895 27.9124 14.9642 28.4471 17.2524 29.4394Z" fill="#FFFFFD"/>
<path fill-rule="evenodd" clip-rule="evenodd" d="M17.2524 29.4389C18.0727 31.8105 18.8408 36.569 20.3164 38.3661C22.3335 37.9326 23.4769 35.6949 25.1217 34.5106C24.6817 32.8527 22.6856 32.4284 21.2917 31.1137C22.6705 28.6964 32.9352 21.4363 33.9221 19.1938C31.7128 19.5685 20.1406 27.8327 17.2524 29.4389Z" fill="#CCD7EC"/>
</svg>
