<svg width="53" height="53" viewBox="0 0 53 53" fill="none" xmlns="http://www.w3.org/2000/svg">
<path fill-rule="evenodd" clip-rule="evenodd" d="M17.9002 40.1743C14.2683 37.947 11.9317 36.8603 10.8893 32.0508C7.42773 16.0777 14.6266 8.09792 31.7794 11.1287C42.4606 13.0158 42.9632 20.0342 42.3003 29.6448C41.5773 40.1265 32.9322 41.081 24.1327 40.8346C22.6551 42.1481 20.2238 45.1307 18.5101 44.683C17.5677 43.0408 17.9955 42.0653 17.9002 40.1743ZM21.5666 0.426361C7.36893 3.08568 -2.25296 16.6326 0.457724 31.2186C3.03926 45.112 16.6841 54.9124 30.9341 52.2088C49.6019 48.6668 58.3245 28.3729 48.5862 12.4383C45.5029 7.39369 45.0552 7.8429 42.1993 5.42139C36.8379 0.875575 28.6177 -0.894246 21.5666 0.426361Z" fill="#794A9A"/>
<path fill-rule="evenodd" clip-rule="evenodd" d="M27.2306 33.2954C22.2204 29.9856 23.4677 30.4728 20.9948 27.5154C13.0361 17.9963 22.5805 14.8485 24.3468 22.6834L22.5785 24.7765C23.2105 27.5849 25.176 29.6219 28.0176 30.2692C28.9567 29.6175 31.388 26.5496 34.86 32.0909C33.4503 36.5103 30.3486 35.3553 27.2306 33.2954ZM40.0284 25.221C40.0278 19.5541 39.325 15.497 33.2772 13.8916C29.3961 12.8614 21.2662 12.7328 17.5727 14.3111C12.5629 16.4521 12.4797 22.5827 12.6329 27.3402C12.8396 33.7539 14.3704 35.2749 19.3464 38.1839L19.5744 43.268L24.1303 38.5081C28.6836 36.4061 40.0305 43.2142 40.0284 25.221Z" fill="#794A9A"/>
<path fill-rule="evenodd" clip-rule="evenodd" d="M40.0284 25.2198C40.0305 43.2131 28.6836 36.4049 24.1304 38.5069L19.5744 43.2668L19.3464 38.1827C14.3704 35.2737 12.8396 33.7527 12.6329 27.3391C12.4797 22.5816 12.5629 16.4509 17.5727 14.31C21.2662 12.7317 29.3962 12.8602 33.2772 13.8905C39.325 15.4958 40.0278 19.5529 40.0284 25.2198ZM17.9002 40.174C17.9955 42.065 17.5677 43.0406 18.5101 44.6827C20.2238 45.1305 22.6551 42.1478 24.1327 40.8343C32.9322 41.0808 41.5773 40.1262 42.3003 29.6445C42.9632 20.0339 42.4606 13.0155 31.7794 11.1284C14.6266 8.09766 7.42771 16.0774 10.8893 32.0506C11.9317 36.86 14.2683 37.9467 17.9002 40.174Z" fill="#FFFFFD"/>
<path fill-rule="evenodd" clip-rule="evenodd" d="M34.86 32.0895C31.388 26.5482 28.9567 29.616 28.0177 30.2677C25.176 29.6205 23.2106 27.5835 22.5785 24.7751L24.3468 22.682C22.5805 14.8471 13.0361 17.9948 20.9948 27.514C23.4677 30.4714 22.2204 29.9842 27.2306 33.294C30.3486 35.3539 33.4503 36.5089 34.86 32.0895Z" fill="#FFFFFD"/>
</svg>
