<svg width="54" height="53" viewBox="0 0 54 53" fill="none" xmlns="http://www.w3.org/2000/svg">
<path fill-rule="evenodd" clip-rule="evenodd" d="M15.274 16.9578C16.7243 19.0079 18.973 28.1883 22.4583 28.1717C23.1406 26.3526 22.9126 23.9189 22.8369 21.935C22.7267 19.048 21.2832 18.7327 21.6424 16.7945L28.9765 16.9706C29.8413 19.9375 28.9521 23.3488 29.3983 26.4131C32.8231 27.2516 34.9759 19.0777 37.0387 16.8067L42.3479 17.0023C43.5491 19.5996 38.6274 24.9969 37.303 27.5054C38.4481 30.4008 43.9977 33.4244 43.1934 36.7969C41.407 37.412 39.2292 37.2829 37.3623 36.9649C35.6163 35.1847 31.9772 30.4628 29.4928 31.3624C28.9589 33.4407 29.7356 34.8424 28.863 36.7431C18.6334 40.1548 7.65494 20.9371 9.66168 16.8393L15.274 16.9578ZM22.5593 0.395271C8.1564 2.93257 -1.38978 16.3212 1.17365 30.9845C3.64117 45.102 17.3989 54.7907 31.7495 52.1088C46.019 49.4421 55.374 36.0472 52.9374 21.4929C50.5865 7.45228 36.6988 -2.09541 22.5593 0.395271Z" fill="#467FC2"/>
</svg>
