<svg width="53" height="53" viewBox="0 0 53 53" fill="none" xmlns="http://www.w3.org/2000/svg">
<path fill-rule="evenodd" clip-rule="evenodd" d="M10.9826 41.622C11.3882 39.5063 12.332 37.3944 13.0564 35.3206C14.136 32.229 7.71285 24.6762 14.4685 16.5171C20.1205 9.69052 30.1397 8.69622 36.8995 14.7435C43.6352 20.7687 43.3223 31.9959 36.3336 37.5658C27.2844 44.7777 21.1175 38.4416 17.4206 39.683C15.2962 40.3967 13.1903 41.2767 10.9826 41.622ZM21.4049 0.471221C7.15439 3.1635 -2.34935 16.8333 0.507712 31.3149C3.28104 45.3733 17.4645 55.1962 31.819 51.9443C45.4941 48.8464 54.8369 35.5994 52.1542 21.4326C49.4438 7.12028 35.8336 -2.25431 21.4049 0.471221Z" fill="#08BB07"/>
<path fill-rule="evenodd" clip-rule="evenodd" d="M34.4421 29.8642C33.8439 36.6941 25.9113 32.139 23.089 29.4191C17.208 23.7516 18.0278 18.2433 22.6553 18.514C24.8811 21.6217 24.3989 22.1695 22.9596 24.7661C24.2158 26.8985 26.0268 29.0201 28.6449 29.8707L30.8612 27.7224L34.4421 29.8642ZM14.9795 37.6789C16.3527 37.5289 18.7694 36.3663 19.8736 36.5845C21.1844 36.8434 22.3061 38.0396 24.4803 38.3252C37.0459 39.9745 44.1178 25.3986 35.3067 16.7802C26.5951 8.25858 12.1994 15.9925 14.0677 27.7123C14.4439 30.0706 15.0264 30.4719 15.8589 32.3955C16.6989 34.3358 15.4531 35.5112 14.9795 37.6789Z" fill="#08BB07"/>
<path fill-rule="evenodd" clip-rule="evenodd" d="M14.9794 37.6793C15.453 35.5117 16.6987 34.3363 15.8588 32.396C15.0263 30.4724 14.4438 30.071 14.0676 27.7128C12.1992 15.993 26.595 8.25906 35.3066 16.7806C44.1176 25.399 37.0458 39.975 24.4802 38.3257C22.306 38.0401 21.1843 36.8439 19.8735 36.585C18.7693 36.3667 16.3526 37.5294 14.9794 37.6793ZM10.9825 41.6231C13.1903 41.2778 15.2962 40.3978 17.4205 39.684C21.1175 38.4427 27.2844 44.7788 36.3335 37.5668C43.3222 31.997 43.6352 20.7698 36.8994 14.7445C30.1396 8.69728 20.1205 9.69157 14.4684 16.5182C7.71279 24.6772 14.1359 32.2301 13.0564 35.3217C12.332 37.3955 11.3881 39.5074 10.9825 41.6231Z" fill="#EBF7F9"/>
<path fill-rule="evenodd" clip-rule="evenodd" d="M34.442 29.8632L30.8612 27.7213L28.6448 29.8697C26.0267 29.0191 24.2157 26.8974 22.9595 24.7651C24.3988 22.1684 24.881 21.6206 22.6552 18.513C18.0277 18.2422 17.208 23.7506 23.0889 29.4181C25.9112 32.138 33.8438 36.693 34.442 29.8632Z" fill="#EBF7F9"/>
</svg>
