<svg width="100" height="78" viewBox="0 0 100 78" fill="none" xmlns="http://www.w3.org/2000/svg">
<path fill-rule="evenodd" clip-rule="evenodd" d="M14.3356 70.3767H21.5036V74.1241H14.3356V70.3767ZM78.8469 74.1241H75.0522V70.3767H80.9551C81.9267 70.3767 82.2202 70.666 82.2202 71.6256C82.2202 73.8145 81.0017 74.1241 78.8469 74.1241ZM85.5934 49.5548C88.1892 49.5548 94.1695 49.1441 96.1342 49.5548V56.2179H85.5934V49.5548ZM85.5934 19.9887C85.5934 12.6918 83.8438 14.1588 94.8691 14.1588C96.8144 14.1588 96.1342 16.4994 96.1342 21.2377C90.0571 21.2377 85.5934 22.1614 85.5934 19.9887ZM81.7987 14.9914C81.7987 25.6199 81.3366 24.986 92.3394 24.986C92.3394 32.4378 92.761 38.4073 92.761 45.807C87.1126 45.807 83.1759 44.816 82.0419 48.1627C81.4534 49.8988 82.2202 50.3272 82.2202 52.47C82.2202 52.987 80.5658 59.9657 84.7499 59.9657H92.761C92.761 62.3544 93.35 67.0451 88.9662 67.0451H8.43261C5.27191 67.0451 3.79478 65.5863 3.79478 62.4642L3.94383 6.39394C4.34129 4.79849 5.72981 3.74785 7.58956 3.74785H88.9662C92.9766 3.74785 92.3394 7.67224 92.3394 10.4109C86.395 10.4109 81.7987 9.46345 81.7987 14.9914ZM0 6.24624V61.2152C0 68.1565 2.50511 70.362 8.21393 70.6579L10.5408 70.793C10.5408 78.9155 9.11588 77.8724 22.3467 77.8724C23.4381 77.8724 24.2254 77.5851 24.755 76.8905C26.1082 75.116 22.6181 70.271 27.7108 70.5639C28.3341 70.5998 28.6691 70.7176 29.483 70.6787L49.3322 70.3767C52.3792 70.3767 54.4904 70.8456 56.911 70.571C58.024 70.4445 58.5726 70.6832 59.8848 70.702C61.282 70.7222 61.7071 70.3767 63.6678 70.3767H71.2574C71.2574 73.9622 70.9716 74.4554 71.6789 77.4556C74.8329 78.1815 82.0179 78.1815 85.1714 77.4556C85.7072 75.1858 85.5934 73.5802 85.5934 70.793C86.9937 70.5001 87.9572 70.706 89.8154 70.402C95.5417 69.4647 96.1342 65.7947 96.1342 59.9657C98.5241 59.7695 99.3958 58.4507 99.5162 56.2265C99.9654 47.9057 101.183 47.7833 96.1342 45.3906C96.1342 38.1468 96.5558 32.3098 96.5558 24.986C100.784 22.9819 99.929 23.2196 99.929 14.1588C99.929 12.0119 98.7771 10.8763 96.5558 10.8273C96.5558 6.14358 95.8023 0 89.3882 0H6.32445C3.48489 0 0 3.44179 0 6.24624Z" fill="#BDBDBD"/>
<path fill-rule="evenodd" clip-rule="evenodd" d="M29.9359 52.8863C18.5193 52.8863 10.9625 46.2227 10.9625 34.5633C10.9625 26.2192 19.0412 17.9066 27.4062 17.9066C45.575 17.9066 49.7319 35.8709 43.4971 44.6252C40.4029 48.97 36.4381 52.8863 29.9359 52.8863ZM7.16717 33.7306C7.16717 38.1953 7.04836 41.0893 9.69329 44.9783C13.8538 51.0971 12.0043 49.1566 17.1676 53.0041C24.0918 58.1638 33.9596 57.1799 40.8516 52.4234C41.4083 52.039 41.7751 51.8776 42.3328 51.3874C59.4455 36.3418 45.4756 14.1587 30.3579 14.1587C20.9286 14.1587 13.8236 17.2131 9.29379 25.8363C8.504 27.3397 7.16717 31.475 7.16717 33.7306Z" fill="#BDBDBD"/>
<path fill-rule="evenodd" clip-rule="evenodd" d="M21.503 35.8129C21.503 33.4925 22.1986 31.9305 23.478 30.6841C26.1813 28.0511 30.1743 27.4491 33.2065 30.0846C37.8745 34.142 34.6278 42.0592 29.5141 42.0592H27.406C24.6842 42.0592 21.503 38.3007 21.503 35.8129ZM26.5629 22.9035V24.9861C24.0629 25.0407 24.4025 25.7621 22.3461 26.2351C20.9703 25.325 21.3734 25.0246 19.3948 24.5693C18.7797 25.0974 18.243 25.6275 17.7082 26.2351C18.1692 28.1892 18.4734 27.7911 19.3948 29.1503C19.0005 30.8221 18.3008 31.284 18.1297 33.3145C12.5674 33.3145 14.2581 36.3379 15.3998 36.8438C16.3781 37.2773 15.7368 36.8873 16.4513 37.0542C17.3031 37.2535 18.2137 36.6364 19.3948 41.6428C18.7536 42.5883 17.9699 42.9323 17.8286 43.815C17.7297 44.4326 18.2916 47.9402 22.3461 44.1418C23.7858 44.894 24.7564 45.3917 26.5629 45.807C26.5629 47.7814 26.7616 49.5549 28.6711 49.5549C30.6179 49.5549 30.3577 47.7323 30.3577 45.807C32.4766 45.633 33.2311 45.03 34.574 44.1418C35.9513 45.0523 35.7643 45.807 37.5252 45.807C38.8984 45.807 39.2118 44.8176 39.2118 43.7249C39.2118 42.6894 38.1578 42.1593 37.5252 41.2265C38.7412 39.4333 38.6454 39.4656 39.2118 37.0623C42.1851 37.0623 42.4022 37.5429 43.0066 34.9802C41.8127 33.2194 41.9843 33.3145 39.2118 33.3145C38.7913 31.5303 38.2869 30.5717 37.5252 29.1503C38.4477 27.7901 39.2118 27.9742 39.2118 26.2351C39.2118 23.1843 35.8995 25.6372 34.9955 26.2351C34.4577 26.1116 31.8727 25.2401 31.5255 25.0817C29.7891 24.2906 30.3577 24.0726 30.3577 21.6546C29.8409 21.5357 26.5629 20.3014 26.5629 22.9035Z" fill="#BDBDBD"/>
<path fill-rule="evenodd" clip-rule="evenodd" d="M56.9219 37.0623C56.9219 39.5562 60.2788 39.1444 61.5598 39.1444C63.5911 39.1444 63.819 38.3543 64.5115 37.0623C63.2854 34.7738 63.1009 34.9802 59.8731 34.9802C58.4523 34.9802 56.9219 35.7162 56.9219 37.0623Z" fill="#BDBDBD"/>
<path fill-rule="evenodd" clip-rule="evenodd" d="M67.462 36.646C68.1755 39.67 68.9422 39.1444 72.9434 39.1444C74.3995 39.1444 74.7719 37.8327 75.0516 36.646C73.4669 34.3084 69.8508 34.7981 68.7312 35.4006L67.462 36.646Z" fill="#BDBDBD"/>
<path fill-rule="evenodd" clip-rule="evenodd" d="M56.9219 47.0564C56.9219 50.176 58.6199 49.5548 62.4029 49.5548C64.9546 49.5548 64.1002 46.3462 64.0895 46.2238C62.8679 45.9426 56.9219 44.8095 56.9219 47.0564Z" fill="#BDBDBD"/>
<path fill-rule="evenodd" clip-rule="evenodd" d="M56.9219 26.6513C56.9219 29.3414 62.4566 28.2766 64.0895 27.9008C64.0895 24.0214 63.8697 24.5692 58.608 24.5692C57.47 24.5692 56.9219 25.678 56.9219 26.6513Z" fill="#BDBDBD"/>
<path fill-rule="evenodd" clip-rule="evenodd" d="M69.9913 28.3171L74.6296 27.9008C75.3221 25.3219 74.6296 26.5476 74.6296 24.986C65.7125 22.9343 66.4506 28.3171 69.9913 28.3171Z" fill="#BDBDBD"/>
<path fill-rule="evenodd" clip-rule="evenodd" d="M67.462 47.0565C68.3087 50.645 74.1061 50.5539 75.0516 47.0565C73.4971 45.2905 75.1627 45.807 69.9917 45.807C68.4997 45.807 68.1448 46.3129 67.462 47.0565Z" fill="#BDBDBD"/>
</svg>
