<?xml version="1.0" encoding="UTF-8"?> <svg xmlns="http://www.w3.org/2000/svg" width="512" height="512" viewBox="0 0 512 512" fill="none"> <g clip-path="url(#clip0)"> <path d="M153.6 366.933V384C153.6 388.71 157.423 392.533 162.133 392.533C166.843 392.533 170.666 388.71 170.666 384V366.933C170.666 362.223 166.843 358.4 162.133 358.4C157.423 358.4 153.6 362.223 153.6 366.933Z" fill="#6E59B8"></path> <path d="M503.467 494.933H494.934V226.133C494.934 221.423 491.111 217.6 486.401 217.6C481.691 217.6 477.868 221.423 477.868 226.133V494.933H34.133V226.133C34.133 221.423 30.31 217.6 25.6 217.6C20.89 217.6 17.067 221.423 17.067 226.133V494.933H8.533C3.823 494.933 0 498.756 0 503.466C0 508.176 3.823 512 8.533 512H503.466C508.176 512 511.999 508.177 511.999 503.467C511.999 498.757 508.177 494.933 503.467 494.933Z" fill="#6E59B8"></path> <path d="M196.267 477.867C200.977 477.867 204.8 474.044 204.8 469.334V264.534C204.8 259.824 200.977 256.001 196.267 256.001H76.8001C72.0901 256.001 68.2671 259.824 68.2671 264.534V469.334C68.2671 474.044 72.0901 477.867 76.8001 477.867C81.5101 477.867 85.3331 474.044 85.3331 469.334V273.067H187.733V469.334C187.733 474.044 191.556 477.867 196.267 477.867Z" fill="#6E59B8"></path> <path d="M355.9 309.7C352.563 306.364 347.17 306.364 343.834 309.7C340.497 313.037 340.497 318.43 343.834 321.766L377.967 355.899C379.631 357.563 381.816 358.399 384 358.399C386.185 358.399 388.369 357.563 390.033 355.899C393.37 352.562 393.37 347.169 390.033 343.833L355.9 309.7Z" fill="#6E59B8"></path> <path d="M469.333 0H42.667C19.14 0 0 19.14 0 42.667V195.405C0 197.974 1.152 200.397 3.132 202.018C5.112 203.631 7.731 204.279 10.232 203.767C23.86 201.002 35.346 192.87 42.659 181.853C51.832 195.677 67.542 204.799 85.334 204.799C103.118 204.799 118.819 195.685 128.001 181.87C137.183 195.685 152.884 204.799 170.668 204.799C188.452 204.799 204.153 195.685 213.335 181.87C222.515 195.686 238.217 204.8 256 204.8C273.784 204.8 289.485 195.686 298.667 181.871C307.849 195.686 323.55 204.8 341.334 204.8C359.117 204.8 374.819 195.686 384.001 181.871C393.183 195.686 408.884 204.8 426.668 204.8C444.46 204.8 460.17 195.678 469.343 181.854C476.656 192.871 488.142 201.003 501.77 203.768C504.287 204.289 506.882 203.64 508.87 202.019C510.85 200.398 512.002 197.974 512.002 195.406V42.667C512 19.14 492.86 0 469.333 0ZM494.933 183.159C484.633 177.186 477.866 166.016 477.866 153.6V42.667C477.866 37.957 474.043 34.134 469.333 34.134C464.623 34.134 460.8 37.957 460.8 42.667V153.6C460.8 172.425 445.491 187.733 426.667 187.733C407.843 187.733 392.534 172.424 392.534 153.6V42.667C392.534 37.957 388.711 34.134 384.001 34.134C379.291 34.134 375.468 37.957 375.468 42.667V153.6C375.468 172.425 360.159 187.733 341.335 187.733C322.51 187.733 307.202 172.424 307.202 153.6V42.667C307.202 37.957 303.379 34.134 298.669 34.134C293.959 34.134 290.136 37.957 290.136 42.667V153.6C290.136 172.425 274.827 187.733 256.003 187.733C237.178 187.733 221.87 172.424 221.87 153.6V42.667C221.87 37.957 218.047 34.134 213.337 34.134C208.627 34.134 204.804 37.957 204.804 42.667V153.6C204.804 172.425 189.495 187.733 170.671 187.733C151.847 187.733 136.538 172.424 136.538 153.6V42.667C136.538 37.957 132.715 34.134 128.005 34.134C123.295 34.134 119.472 37.957 119.472 42.667V153.6C119.472 172.425 104.163 187.733 85.339 187.733C66.514 187.733 51.206 172.424 51.206 153.6V42.667C51.206 37.957 47.383 34.134 42.673 34.134C37.963 34.134 34.14 37.957 34.14 42.667V153.6C34.14 166.016 27.373 177.186 17.073 183.159V42.667C17.073 28.553 28.559 17.067 42.673 17.067H469.34C483.454 17.067 494.94 28.553 494.94 42.667V183.159H494.933Z" fill="#6E59B8"></path> <path d="M435.2 443.733C439.91 443.733 443.733 439.91 443.733 435.2V264.533C443.733 259.823 439.91 256 435.2 256H230.4C225.69 256 221.867 259.823 221.867 264.533V435.2C221.867 439.91 225.69 443.733 230.4 443.733H435.2ZM238.933 273.067H426.666V426.667H238.933V273.067Z" fill="#6E59B8"></path> <path d="M390.033 292.634C386.697 289.297 381.303 289.297 377.967 292.634C374.631 295.971 374.631 301.364 377.967 304.7L395.034 321.767C396.698 323.431 398.883 324.267 401.067 324.267C403.252 324.267 405.436 323.431 407.1 321.767C410.437 318.43 410.437 313.037 407.1 309.701L390.033 292.634Z" fill="#6E59B8"></path> </g> <defs> <clipPath id="clip0"> <rect width="512" height="512" fill="white"></rect> </clipPath> </defs> </svg> 