<svg width="65" height="55" viewBox="0 0 65 55" fill="none" xmlns="http://www.w3.org/2000/svg">
<path fill-rule="evenodd" clip-rule="evenodd" d="M36.6022 50.5963C36.6022 46.6998 35.9951 38.8847 37.664 36.4017C40.1774 32.6622 47.0146 34.0011 47.0146 39.5363V50.5963C47.0146 51.6118 47.1904 51.3561 45.9582 51.5098L39.1078 51.5911C37.7683 51.6131 36.6022 51.913 36.6022 50.5963ZM33.1314 51.5722H9.78269C9.05565 51.5722 8.8361 51.3459 8.8361 50.5963V26.8494C8.8361 25.7952 9.07516 26.1675 9.7635 25.8537C11.1111 25.2393 13.1239 24.6644 13.569 22.9457C14.6113 23.6653 14.8005 24.3075 15.9802 25.0141C19.6063 27.1858 23.9817 26.3454 26.1898 22.9457C26.9789 23.5419 30.6729 28.3989 36.2765 25.2123C37.6547 24.4285 38.1028 23.4807 38.8109 22.9457C40.9758 26.2792 45.1904 27.1564 48.8157 25.1282C50.175 24.3678 50.3015 23.7262 51.4317 22.9457C52.1359 25.6647 56.1646 25.3289 56.1646 26.8494V50.5963C56.1646 52.1236 54.2261 51.5722 50.4851 51.5722C49.208 51.5722 49.4989 50.37 49.5202 48.989L49.5355 38.2385C48.9255 29.8959 35.6085 28.7938 34.1455 37.9793L34.0888 48.6559C34.1122 50.104 34.4616 51.5722 33.1314 51.5722ZM27.7674 19.0421C27.7674 12.6068 28.6597 11.4766 28.714 8.95793H36.2867C36.341 11.4766 37.2333 12.6068 37.2333 19.0421C37.2333 24.6585 27.7674 24.6585 27.7674 19.0421ZM39.1264 8.95793H47.6454C47.8448 11.4289 51.7322 17.3825 48.7896 21.5227C46.7801 24.3499 40.1699 24.3768 40.0589 17.7554C40.0232 15.6196 40.0967 15.0268 39.732 13.2129C39.4992 12.0539 39.1264 10.3306 39.1264 8.95793ZM20.8261 23.271C10.681 23.271 17.2033 10.8396 17.3553 8.95793H25.8743C25.8743 11.4521 25.0276 12.6315 24.9418 17.7554C24.8926 20.689 23.1968 23.271 20.8261 23.271ZM50.4851 8.95793H57.7422C58.175 10.6287 62.1596 15.0401 62.1596 16.1143V19.0421C62.1596 23.9594 52.9436 26.0457 52.3927 17.401C52.1899 14.2234 51.7352 11.8424 50.4851 8.95793ZM8.20506 23.271C2.61975 23.271 2.84109 19.6311 2.84109 16.1143C2.84109 15.0401 6.82568 10.6287 7.25848 8.95793H14.5156C13.3228 14.2364 12.8417 11.557 12.6263 17.4196C12.522 20.2626 10.8849 23.271 8.20506 23.271ZM8.20506 3.42775H56.7956V6.03018H8.20506V3.42775ZM0.0016495 15.464C0.0016495 18.8658 -0.206208 23.049 4.04471 25.2832C5.09597 25.8354 6.3119 25.6502 6.3119 26.8494V50.5963C6.3119 52.961 3.78767 49.8533 3.78767 53.1988C3.78767 54.1988 4.71206 54.5 5.68084 54.5H59.3199C61.2259 54.5 61.213 53.6178 61.213 52.5482C61.213 50.4934 58.6888 52.6511 58.6888 50.5963V26.8494C58.6888 25.6688 59.6798 25.8858 60.7427 25.3886C65.1541 23.3248 64.9993 18.8333 64.9993 15.464C64.9993 14.7915 61.1743 9.47495 60.582 8.63262C57.4438 4.1705 61.4173 0.5 57.4267 0.5H7.57401C5.33293 0.5 5.63164 1.83307 5.68053 4.07804C5.74742 7.15978 5.60556 6.82922 4.42113 8.63478C3.80537 9.57328 0.0016495 14.7547 0.0016495 15.464Z" fill="#FFBB00"/>
<path fill-rule="evenodd" clip-rule="evenodd" d="M17.9864 34.3312H25.5588V42.1382H17.9864V34.3312ZM15.4622 34.0059C15.4622 46.0935 13.9575 45.066 24.297 45.066C29.5791 45.066 28.3985 42.2282 28.3985 33.6806C28.3985 30.477 21.3831 31.4035 17.9864 31.4035C16.4601 31.4035 15.4622 32.4323 15.4622 34.0059Z" fill="#FFBB00"/>
</svg>
