<svg width="0" height="0" class="hidden">
  <symbol xmlns="http://www.w3.org/2000/svg" viewBox="0 0 512 512" fill="none" id="building">
    <path d="M366.933 477.867H128a8.536 8.536 0 0 0-8.533 8.533v17.067A8.536 8.536 0 0 0 128 512a8.536 8.536 0 0 0 8.533-8.533v-8.533h230.4a8.536 8.536 0 0 0 8.533-8.533c0-4.71-3.822-8.534-8.533-8.534zm-179.2-264.534a8.536 8.536 0 0 0 8.533 8.533H230.4a8.536 8.536 0 0 0 8.533-8.533v-51.2a8.536 8.536 0 0 0-8.533-8.533h-34.133a8.536 8.536 0 0 0-8.533 8.533v51.2h-.001zm17.067-42.666h17.067V204.8H204.8v-34.133zM110.933 102.4H8.533A8.536 8.536 0 0 0 0 110.933V281.6a8.536 8.536 0 0 0 8.533 8.533 8.536 8.536 0 0 0 8.533-8.533V119.467h93.867a8.536 8.536 0 0 0 8.533-8.533c0-4.71-3.822-8.534-8.533-8.534zM409.6 418.133a8.536 8.536 0 0 0 8.533 8.533h34.133a8.536 8.536 0 0 0 8.533-8.533v-51.2a8.536 8.536 0 0 0-8.533-8.533h-34.133a8.536 8.536 0 0 0-8.533 8.533v51.2zm17.067-42.666h17.067V409.6h-17.067v-34.133zm-384-68.267C.486 307.2 0 417.024 0 418.133c0 20.608 14.686 37.837 34.133 41.805v43.529A8.536 8.536 0 0 0 42.666 512a8.536 8.536 0 0 0 8.533-8.533v-43.529c19.447-3.968 34.133-21.197 34.133-41.805.001-1.109-.485-110.933-42.665-110.933zm0 136.533c-14.114 0-25.6-11.486-25.6-25.6 0-42.513 11.418-93.867 25.6-93.867 14.182 0 25.6 51.354 25.6 93.867 0 14.114-11.486 25.6-25.6 25.6zM93.867 256H59.733a8.536 8.536 0 0 0-8.533 8.533V281.6a8.536 8.536 0 0 0 8.533 8.533 8.536 8.536 0 0 0 8.533-8.533v-8.533h17.067v42.667a8.536 8.536 0 0 0 8.533 8.533 8.536 8.536 0 0 0 8.533-8.533v-51.2A8.535 8.535 0 0 0 93.867 256zm324.266-34.133h34.133a8.536 8.536 0 0 0 8.533-8.533v-51.2a8.536 8.536 0 0 0-8.533-8.533h-34.133a8.536 8.536 0 0 0-8.533 8.533v51.2a8.536 8.536 0 0 0 8.533 8.533zm8.534-51.2h17.067V204.8h-17.067v-34.133z"
      fill="#6E59B8"></path>
    <path d="M93.867 153.6H59.733a8.536 8.536 0 0 0-8.533 8.533v51.2a8.536 8.536 0 0 0 8.533 8.533h34.133a8.536 8.536 0 0 0 8.533-8.533v-51.2c.001-4.71-3.822-8.533-8.532-8.533zm-8.534 51.2H68.267v-34.133h17.067V204.8h-.001zm187.734 8.533a8.536 8.536 0 0 0 8.533 8.533h34.133a8.536 8.536 0 0 0 8.533-8.533v-51.2a8.536 8.536 0 0 0-8.533-8.533H281.6a8.536 8.536 0 0 0-8.533 8.533v51.2zm17.066-42.666H307.2V204.8h-17.067v-34.133zM503.467 102.4h-102.4a8.536 8.536 0 0 0-8.533 8.533 8.536 8.536 0 0 0 8.533 8.533h93.867V462.37c-2.679-.956-5.521-1.57-8.533-1.57-1.476 0-2.944.128-4.386.384-5.888-10.607-17.092-17.451-29.747-17.451-12.655 0-23.859 6.844-29.747 17.451a25.094 25.094 0 0 0-4.386-.384c-14.114 0-25.6 11.486-25.6 25.6s11.486 25.6 25.6 25.6H486.4c14.114 0 25.6-11.486 25.6-25.6V110.933a8.536 8.536 0 0 0-8.533-8.533zM486.4 494.933h-68.267c-4.702 0-8.533-3.831-8.533-8.533s3.831-8.533 8.533-8.533c1.638 0 3.191.469 4.625 1.391a8.558 8.558 0 0 0 7.834.734 8.51 8.51 0 0 0 5.103-5.982c1.801-7.774 8.619-13.21 16.572-13.21 7.953 0 14.771 5.436 16.572 13.21a8.51 8.51 0 0 0 5.103 5.982 8.56 8.56 0 0 0 7.834-.734c5.555-3.584 13.158.802 13.158 7.142-.001 4.702-3.832 8.533-8.534 8.533zM281.6 119.467h34.133a8.536 8.536 0 0 0 8.533-8.533v-51.2a8.536 8.536 0 0 0-8.533-8.533H281.6a8.536 8.536 0 0 0-8.533 8.533v51.2a8.536 8.536 0 0 0 8.533 8.533zm8.533-51.2H307.2V102.4h-17.067V68.267zm-17.066 247.466a8.536 8.536 0 0 0 8.533 8.533h34.133a8.536 8.536 0 0 0 8.533-8.533v-51.2a8.536 8.536 0 0 0-8.533-8.533H281.6a8.536 8.536 0 0 0-8.533 8.533v51.2zm17.066-42.666H307.2V307.2h-17.067v-34.133zm-93.866-153.6H230.4a8.536 8.536 0 0 0 8.533-8.533v-51.2a8.536 8.536 0 0 0-8.533-8.533h-34.133a8.536 8.536 0 0 0-8.533 8.533v51.2c-.001 4.71 3.822 8.533 8.533 8.533zm8.533-51.2h17.067V102.4H204.8V68.267zm45.141 343.808c-1.536 1.621-2.475 3.84-2.475 6.059 0 2.219.939 4.437 2.475 6.059 1.621 1.536 3.84 2.475 6.059 2.475 2.219 0 4.437-.939 6.059-2.475 1.536-1.621 2.475-3.84 2.475-6.059 0-2.219-.939-4.437-2.475-6.059-3.243-3.158-8.875-3.158-12.118 0zm-62.208-96.342a8.536 8.536 0 0 0 8.533 8.533H230.4a8.536 8.536 0 0 0 8.533-8.533v-51.2A8.536 8.536 0 0 0 230.4 256h-34.133a8.536 8.536 0 0 0-8.533 8.533v51.2h-.001zm17.067-42.666h17.067V307.2H204.8v-34.133z"
      fill="#6E59B8"></path>
    <path d="M170.667 366.933a8.536 8.536 0 0 0 8.533 8.533h25.6v76.8a8.536 8.536 0 0 0 8.533 8.533 8.536 8.536 0 0 0 8.533-8.533v-76.8h68.267v76.8a8.536 8.536 0 0 0 8.533 8.533 8.536 8.536 0 0 0 8.533-8.533v-76.8h25.6a8.536 8.536 0 0 0 8.533-8.533 8.536 8.536 0 0 0-8.533-8.533H179.2a8.536 8.536 0 0 0-8.533 8.533zm238.933-51.2a8.536 8.536 0 0 0 8.533 8.533h34.133a8.536 8.536 0 0 0 8.533-8.533v-51.2a8.536 8.536 0 0 0-8.533-8.533h-34.133a8.536 8.536 0 0 0-8.533 8.533v51.2zm17.067-42.666h17.067V307.2h-17.067v-34.133z"
      fill="#6E59B8"></path>
    <path d="M366.933 0H145.067a8.536 8.536 0 0 0-8.533 8.533v443.733a8.536 8.536 0 0 0 8.533 8.533 8.536 8.536 0 0 0 8.533-8.533v-435.2h204.8v435.2a8.536 8.536 0 0 0 8.533 8.533 8.536 8.536 0 0 0 8.533-8.533V8.533c.001-4.71-3.822-8.533-8.533-8.533z"
      fill="#6E59B8"></path>
  </symbol>
</svg>