<svg width="97" height="100" viewBox="0 0 97 100" fill="none" xmlns="http://www.w3.org/2000/svg">
<path fill-rule="evenodd" clip-rule="evenodd" d="M8.45875 5.22425H12.6881V81.3249C6.35575 81.3249 9.7203 81.0964 4.69915 82.2585C4.64378 79.7705 4.42117 80.7896 4.61525 78.4706C5.1861 71.6576 4.78081 22.1758 4.69575 11.7565C4.66493 7.98503 4.4794 5.22425 8.45875 5.22425ZM91.1667 94.8641H10.3385C6.45564 94.8641 4.69915 92.8428 4.69915 89.7287C4.69915 84.6869 12.0773 87.2339 14.7518 86.1274C15.6885 85.7401 16.9175 84.1555 16.9175 83.1925V18.7634H92.5767L92.5007 47.3015C92.5675 48.4035 92.5835 49.3942 92.5812 50.5035L92.5778 89.2631C92.5915 91.5515 93.3085 94.8641 91.1667 94.8641ZM0 11.2937V90.1955C0 96.8871 4.01531 100 10.8084 100H93.0464C96.1724 100 96.8054 96.3863 96.8054 96.2649V65.4509C96.8054 63.6111 96.4727 63.3202 96.4727 62.1831C96.4727 61.046 96.8054 60.755 96.8054 58.9147C96.8054 51.3502 97.4728 18.9426 96.3357 14.0948C91.137 12.8913 27.6945 13.628 16.9175 13.628C16.9175 -1.95567 18.6769 0.0882639 9.39836 0.0882639C3.67451 0.0882639 0 5.65071 0 11.2937Z" fill="#BDBDBD"/>
<path fill-rule="evenodd" clip-rule="evenodd" d="M55.5128 39.4817C54.8964 40.7818 54.5619 41.8019 54.5619 43.8129L80.7196 44.2939C80.7196 48.5888 81.1951 50.9863 81.1951 55.3624V68.3559L64.0735 67.8748C64.0735 61.2053 64.7033 60.6558 62.1711 60.6558C59.71 60.6558 60.2687 65.7931 60.2687 68.3559L27.4526 67.8748V44.2939H43.1471C44.8196 44.2939 45.4858 41.7697 45.5251 39.9627C39.954 38.6492 31.0819 39.4817 24.5992 39.4817C24.1526 41.4208 23.1722 41.8861 23.1722 43.8129C23.1722 49.9241 22.5587 67.956 23.6477 72.687C35.0347 72.687 47.5731 72.687 57.8907 72.687C59.9942 72.687 59.268 73.043 61.1306 72.9957L68.4394 72.8261C68.5359 72.8214 68.6803 72.8203 68.7722 72.8145C68.8652 72.808 69.0229 72.7952 69.1061 72.7882L76.4352 72.6841C78.8148 72.6911 81.1939 72.687 83.573 72.687C84.1299 71.6219 85 70.3394 85 68.837V41.4067C85 40.2492 84.2293 39.9914 83.573 39C74.0694 39 65.4179 39.4817 55.5128 39.4817Z" fill="#BDBDBD"/>
</svg>
