<svg width="99" height="95" viewBox="0 0 99 95" fill="none" xmlns="http://www.w3.org/2000/svg">
<path fill-rule="evenodd" clip-rule="evenodd" d="M36.0002 79.8922V67.1283C40.3157 67.1283 43.3354 65.6985 46.8949 63.8189C48.964 65.2023 50.3243 67.1887 54.4701 69.0228C64.5253 73.4704 63.474 67.389 63.474 79.8922C58.7275 79.8922 54.592 78.9465 49.7368 78.9465C44.7923 78.9465 40.6184 79.8922 36.0002 79.8922ZM31.737 40.1821C29.8301 38.9079 30.1086 37.9586 27.4738 37.3459C23.6439 39.9054 26.0911 41.0372 30.2214 45.0035C32.5351 47.2259 31.737 48.2527 31.737 53.8918C28.9267 53.143 25.9904 48.0224 24.3822 47.49C23.2371 47.1105 21.7894 47.563 21.7894 49.6372C21.7894 51.1274 25.9875 54.5356 27.1182 55.6646C29.2006 57.7422 31.737 58.8764 31.737 62.8737C24.8345 62.8737 18.94 58.6696 15.3592 53.2177C5.87601 38.7792 20.4412 4.25407 34.1053 4.25407C40.3582 4.25407 46.4299 13.1079 48.9209 18.3054C52.0183 24.7703 52.8969 27.8236 54.4838 34.4993C56.477 42.8834 54.9954 50.3682 49.6252 56.1435C47.9433 57.9524 46.1716 59.5574 43.8216 60.7524C40.1632 62.613 37.3351 62.7072 36.0002 63.3463C36.0002 58.9297 35.2838 53.0138 37.0261 51.1337C39.0291 48.9734 43.5788 46.051 43.5788 43.4915C43.5788 41.952 42.4527 41.6005 41.2104 41.6005C39.6413 41.6005 37.315 44.9766 36.0002 45.8552C36.0002 41.3817 36.392 35.8557 35.526 32.1461C30.8054 31.0177 31.737 32.6169 31.737 40.1821ZM56.8419 25.5272C63.2795 24.0307 59.4732 24.1094 67.263 24.1094C74.8088 24.1094 82.414 30.0713 85.2099 36.9267C90.0927 48.8993 84.5113 60.5147 74.6961 65.0915C66.1761 69.0653 67.263 66.3318 67.263 63.3463C67.263 60.4831 77.2106 55.4165 77.2106 51.055C77.2106 49.5235 75.6904 47.977 72.3473 51.4007C70.8466 52.9374 69.4443 55.2011 67.263 55.7828L67.3045 42.9776C67.3275 39.9863 67.5467 39.7095 64.8947 39.7095C62.3088 39.7095 63.4832 43.7132 63.4786 46.3203C63.4728 49.4741 63.474 52.6285 63.474 55.7828C60.7909 55.0679 61.9233 53.4192 59.2103 53.4192C57.6106 53.4192 56.4235 55.0742 58.1693 57.2943C60.9525 60.8328 63.474 59.7394 63.474 65.7099C63.474 70.3585 51.3019 62.0927 50.6839 61.9285C51.5533 58.6794 62.9314 53.0873 58.6251 33.2032C58.182 31.1572 56.9017 27.6847 56.8419 25.5272ZM8.05279 39.2369C8.05279 50.011 10.0909 56.4863 18.9377 62.8835C27.2851 68.9194 31.3428 64.9945 31.7836 68.9723L31.737 80.8374C27.2126 81.2136 0 89.4105 0 92.6562C0 97.918 6.0895 92.8865 12.3735 90.8226C35.2423 83.3114 49.9877 79.9681 75.2134 87.0854L91.3557 92.7216C96.974 95.0146 94.9779 95.482 99 94.5472C99 90.9466 98.9643 91.2877 93.2488 88.9413C87.0287 86.3882 73.7576 81.3772 67.263 80.8374V71.383C70.1112 71.3198 74.7628 69.7699 76.9102 68.7196C82.3075 66.0792 86.6363 61.3273 89.126 55.8558C91.3339 51.0045 91.8201 45.564 90.6819 39.9742C88.5535 29.5211 78.1238 19.8548 66.7895 19.8548C63.3342 19.8548 62.7363 19.6969 59.3172 20.4336C57.6923 20.7839 56.4029 21.407 54.9477 21.7458C53.6121 16.0268 44.1018 0 34.5789 0C25.1066 0 19.8963 7.32861 15.6516 14.6744C12.7768 19.6498 8.05279 31.577 8.05279 39.2369Z" fill="#BDBDBD"/>
</svg>
