<?xml version="1.0" encoding="UTF-8"?> <svg xmlns="http://www.w3.org/2000/svg" width="512" height="512" viewBox="0 0 512 512" fill="none"> <path d="M509.568 222.003C509.517 221.738 509.542 221.465 509.474 221.201C496.58 127.59 432.563 47.044 341.871 14.763C337.442 13.176 332.553 15.497 330.974 19.934C329.395 24.38 331.708 29.252 336.154 30.831C410.565 57.327 465.681 118.665 486.127 192.469C432.256 134.093 362.01 93.44 284.638 76.049C292.787 56.064 302.891 36.855 314.991 18.756C316.612 16.341 316.885 13.269 315.725 10.607C314.573 7.945 312.141 6.059 309.274 5.589C307.866 5.367 274.551 0 256 0C197.291 0 143.164 19.917 99.925 53.291C99.643 53.521 99.328 53.692 99.072 53.957C38.852 100.838 0 173.943 0 256C0 272.444 1.579 288.913 4.676 304.939C5.47 309.018 9.037 311.851 13.047 311.851C13.585 311.851 14.131 311.8 14.677 311.697C19.311 310.801 22.331 306.321 21.435 301.696C18.534 286.737 17.066 271.36 17.066 256C17.066 190.737 43.391 131.524 85.956 88.354C62.319 164.224 62.208 245.419 85.836 321.16C64.451 324.095 42.768 324.957 21.051 323.515C18.235 323.293 15.504 324.548 13.764 326.775C12.032 328.994 11.503 331.938 12.356 334.626C46.191 440.721 144.111 512 256 512C317.372 512 376.738 489.941 423.159 449.894C426.726 446.813 427.127 441.429 424.046 437.853C420.965 434.286 415.581 433.894 412.014 436.966C368.682 474.351 313.275 494.933 255.999 494.933C235.195 494.933 214.954 492.151 195.549 487.142C273.194 469.717 343.671 429.192 397.516 370.781C410.751 387.831 422.331 406.177 431.948 425.71C433.194 428.244 435.609 429.994 438.408 430.386C438.809 430.446 439.21 430.471 439.603 430.471C441.984 430.471 444.288 429.473 445.918 427.681C488.533 380.809 512 319.838 512 256C512 244.506 511.07 233.182 509.568 222.003ZM256 17.067C266.317 17.067 282.359 18.987 293.598 20.532C251.716 88.841 235.273 170.411 246.895 252.246C226.304 268.383 204.288 281.951 181.24 292.796C158.61 200.073 172.058 103.697 219.512 19.849C231.415 18.014 243.601 17.067 256 17.067ZM112.273 65.271C137.352 46.327 166.263 32.213 197.623 24.311C153.25 109.772 141.9 206.609 165.376 299.741C145.109 308.027 124.177 314.256 102.844 318.352C76.51 235.819 79.787 146.355 112.273 65.271ZM69.444 405.692C54.152 386.56 41.634 364.903 32.682 341.146C112.836 343.313 192.068 316.86 257.305 265.763C281.574 275.517 304.332 287.805 325.256 302.337C256.196 368.367 165.897 404.932 69.444 405.692ZM162.287 475.896C132.864 463.446 106.368 445.244 84.258 422.401C180.565 418.151 270.208 379.572 339.191 312.594C356.514 326.008 372.369 341.027 386.577 357.454C328.183 421.623 248.909 463.556 162.287 475.896ZM441.395 406.801C403.208 336.145 340.676 280.917 263.808 249.984C260.122 224.085 259.379 198.229 261.513 172.843C353.084 199.604 429.807 259.397 478.695 342.358C469.726 365.542 457.301 387.345 441.395 406.801ZM485.794 321.195C433.963 240.086 355.797 181.871 263.424 155.631C266.377 133.939 271.454 112.7 278.571 92.177C363.17 110.626 438.989 158.157 492.962 226.799C494.157 236.416 494.933 246.136 494.933 256C494.933 278.306 491.725 300.186 485.794 321.195Z" fill="#6E59B8"></path> </svg> 