<svg width="101" height="95" viewBox="0 0 101 95" fill="none" xmlns="http://www.w3.org/2000/svg">
<path fill-rule="evenodd" clip-rule="evenodd" d="M68.6218 60.7911C68.6218 56.4583 72.2591 51.7404 78.2644 51.614L92.3173 51.6526C94.6724 51.5836 94.5568 51.2013 96.6507 51.1545C96.6507 56.7006 97.6686 67.4838 95.4144 69.1945C93.6328 70.5477 81.311 69.9454 77.8041 69.9454C72.3236 69.9454 68.6218 64.6703 68.6218 60.7911ZM95.2007 41.5185C96.7822 41.9393 96.6507 41.5706 96.6507 44.4092C96.6507 45.7664 96.4417 45.3012 95.6845 45.8548L95.6211 43.9626C95.577 43.0912 95.5025 42.1904 95.2007 41.5185ZM90.852 43.4458C90.852 46.7731 91.5447 44.3361 90.852 47.3005C82.2738 47.3005 72.1716 45.3872 67.2553 52.6827C62.8749 59.1828 64.1376 68.2113 70.7457 72.1648C78.7745 76.9682 90.417 72.2807 91.0504 75.1228C91.7009 78.041 91.3481 84.9192 88.5738 87.9099C87.5629 88.9997 84.9865 90.6631 83.1197 90.6631H13.0479C8.25247 90.6631 4.43853 86.8904 4.32641 81.5316C3.97948 64.9132 4.34928 44.4753 4.34928 27.5456C7.45877 29.1861 8.82482 30.705 13.5252 30.9244C22.4521 31.3412 42.9224 30.9185 52.6747 30.9185C61.2118 30.9185 69.7501 30.9297 78.2873 30.9185C83.6351 30.9115 89.3129 31.0696 90.7464 37.7816C91.4684 41.1609 90.852 40.6324 90.852 43.4458ZM72.488 18.8736L79.847 26.4734L65.2394 26.5822C65.7918 24.5197 68.6723 22.6094 70.7563 20.5194L72.488 18.8736ZM50.7415 26.5822L65.1202 12.0094L69.2188 15.8693C67.6568 18.139 64.0383 21.2621 61.9779 23.3305C57.7565 27.569 58.6013 26.5822 50.7415 26.5822ZM32.3782 26.5822C32.9728 24.3605 46.3036 11.9755 48.9294 9.35754C52.2608 6.03609 56.2238 0.368847 61.8563 8.75528L44.2215 26.3452C42.5854 26.9914 34.7363 26.5822 32.3782 26.5822ZM68.1387 7.79135C73.6022 10.4052 92.3519 2.88029 90.9389 19.4091C90.5978 23.3978 91.4931 27.9261 90.852 29.473C87.0827 28.4698 77.3909 17.7387 73.3339 13.6938C70.68 11.0478 69.5159 10.404 68.1387 7.79135ZM24.6458 26.5822C18.6763 26.5822 11.2205 27.5158 7.59439 24.3102C2.80189 20.0728 3.21809 12.4624 8.83243 9.3704C11.8644 7.7006 15.4113 8.27363 19.8134 8.27363C27.7066 8.27363 35.5998 8.27363 43.493 8.27363C42.8331 9.25514 26.1486 26.5822 24.6458 26.5822ZM0 15.9823V82.9544C0 88.7053 6.13506 95 13.0479 95H83.1197C91.1544 95 95.6845 87.2211 95.6845 78.1364C95.6845 73.0234 93.7338 75.4599 97.3898 73.1042C98.9736 72.0835 101 69.86 101 67.5364V43.4458C101 41.3283 100.387 40.1168 99.381 38.7964C97.8001 36.7222 96.9102 37.4046 95.6845 35.7366L95.6099 35.2584C95.2712 24.5584 98.4106 11.6612 89.0322 5.75105C82.6483 1.72786 66.6994 5.42269 63.2242 3.53752C62.3671 3.07222 62.0248 2.21249 60.5819 1.3533C56.4122 -1.12945 52.8707 0.0861377 49.5217 2.72047C47.1044 4.62262 46.3083 3.94019 41.5598 3.93726C34.9587 3.93258 11.4999 2.93762 7.15412 5.28809C3.48754 7.27159 0 11.7396 0 15.9823Z" fill="#BDBDBD"/>
<path fill-rule="evenodd" clip-rule="evenodd" d="M73.9382 60.7911C73.9382 61.5502 74.561 63.0673 75.0183 63.5683C76.7095 65.4224 82.1537 65.2486 82.1537 60.7911C82.1537 55.533 73.9382 55.6524 73.9382 60.7911Z" fill="#BDBDBD"/>
</svg>
