<svg width="88" height="87" viewBox="0 0 88 87" fill="none" xmlns="http://www.w3.org/2000/svg">
<path fill-rule="evenodd" clip-rule="evenodd" d="M4.0823 79.381V35.9086C6.04767 35.9521 5.93909 36.3076 8.14964 36.3719C23.159 36.8058 45.1594 36.3572 60.7804 36.3572C68.9085 36.3572 76.6554 34.9101 76.6554 39.9421V79.381C76.6554 81.5488 75.2212 82.9665 73.0271 82.9665H7.71106C5.51703 82.9665 4.0823 81.5488 4.0823 79.381ZM48.987 27.3935C51.5635 27.3935 53.1167 27.7517 54.8848 28.7371C56.9042 29.8624 57.2673 30.4869 58.5125 32.3237H40.3691C41.9323 30.0165 45.1164 27.3935 48.987 27.3935ZM78.0163 33.2197C76.0934 29.2597 77.4951 26.9155 78.0163 24.7047C80.001 25.2284 79.6742 26.0075 81.5928 27.4458L83.0055 28.2902C82.4991 30.439 80.1811 32.6486 78.0163 33.2197ZM12.7002 32.3237C7.84273 32.3237 4.0823 33.3624 4.0823 28.2902C4.0823 24.2545 15.3676 25.6008 20.4113 25.6008C19.8956 27.0086 16.5241 30.1939 15.2932 31.2996C14.5042 32.0079 14.0634 32.3237 12.7002 32.3237ZM73.0271 28.2902C73.0271 31.2077 73.3274 30.5059 73.4806 32.3237H63.0482C58.0987 23.0819 48.9893 20.7142 40.6226 26.2998C38.2798 27.8634 37.1177 29.9245 35.8334 32.3237H30.8436L50.6891 12.4932C53.6253 13.2543 54.8633 14.845 58.966 14.845C62.3705 14.845 64.0014 12.8241 66.677 12.6042C68.087 13.8155 69.3736 15.4972 70.8689 16.9769C73.08 19.1648 73.4718 18.878 75.295 21.5673C74.4537 23.1379 73.0271 25.964 73.0271 28.2902ZM58.4045 4.87852C60.166 5.84974 59.5809 5.71697 60.96 7.04859L62.0923 8.17058C62.9386 9.21202 62.6961 8.61202 63.0482 9.91533C59.145 10.8136 58.0811 11.6129 53.9763 9.46684L58.4045 4.87852ZM19.9578 32.3237L47.5138 4.87416L49.997 7.12419C49.4262 8.95829 48.0339 9.74011 46.8327 10.9237L26.2325 31.3525C24.5701 32.8719 22.9365 32.3237 19.9578 32.3237ZM0 29.1862V79.381C0 84.0661 3.70263 87 8.61798 87H72.1197C76.9799 87 80.7376 84.0759 80.7376 79.381C80.7376 72.2073 81.3779 41.8916 80.2842 37.2532C81.2743 36.5978 88.2074 30.3545 87.9952 28.7382C87.7947 27.21 69.1443 9.44016 66.5635 6.89016C55.4611 -4.07962 59.414 0.339285 53.0694 4.5372C52.1536 3.67922 51.6698 2.92575 50.7061 1.94255C47.5738 -1.25365 47.0708 -0.0826207 43.7555 2.95353L31.1313 15.5772C30.7676 15.974 30.847 15.9099 30.4927 16.2909C29.6078 17.2404 28.9372 17.8409 28.0099 18.7675C25.5432 21.2325 26.0617 21.6228 21.3309 21.5792C16.782 21.5379 6.93639 20.834 3.45636 22.7416C1.47501 23.8283 0 26.3531 0 29.1862Z" fill="#BDBDBD"/>
<path fill-rule="evenodd" clip-rule="evenodd" d="M58.9663 62.3504C58.9663 60.0764 59.3481 57.7562 62.5334 57.9968C66.8851 58.3251 66.4949 64.0767 62.8739 64.8661C61.3118 65.2064 58.9663 63.9123 58.9663 62.3504ZM54.884 60.5582C54.884 69.9241 64.3444 70.2976 67.9275 66.275C71.8946 61.8206 69.1556 54.604 62.8678 54.1211C59.3227 53.8495 54.884 56.9466 54.884 60.5582Z" fill="#BDBDBD"/>
</svg>
