<svg width="44" height="13" viewBox="0 0 44 13" fill="none" xmlns="http://www.w3.org/2000/svg">
<path d="M1.39968 9.86326C0.950212 9.28212 0.605986 8.65961 0.364196 7.99853C0.122298 7.33756 0 6.693 0 6.06223C0 5.42874 0.125213 4.78972 0.372724 4.14526C0.61732 3.50351 0.978709 2.89751 1.45096 2.32735C2.5008 1.07689 3.88915 0.335972 5.61892 0.0990671C6.09117 0.0330222 6.54074 0 6.96744 0C7.59048 0 8.1453 0.0660458 8.6346 0.19824C9.12401 0.330434 9.52793 0.50401 9.84949 0.721582C10.1681 0.941976 10.4071 1.1816 10.5635 1.44599C10.7228 1.70766 10.8025 1.98584 10.8025 2.27782C10.8025 2.66897 10.6887 2.9994 10.4612 3.26933C10.2819 3.49526 10.1027 3.65494 9.92343 3.74585C9.74133 3.83677 9.50807 3.88358 9.21792 3.88358C8.97894 3.88358 8.7854 3.87261 8.6346 3.85056C8.34726 3.80092 7.94895 3.68524 7.4426 3.50069C7.20923 3.43736 6.90775 3.40434 6.53502 3.40434C5.88068 3.40434 5.31733 3.58889 4.84789 3.95799C4.37845 4.32698 4.06553 4.85858 3.90901 5.55268C3.8749 5.71518 3.86065 5.88876 3.86065 6.07602C3.86065 6.25503 3.8749 6.43687 3.90901 6.62695C3.9972 7.08415 4.14799 7.47247 4.35859 7.78922C4.57199 8.10596 4.84217 8.34558 5.17798 8.50537C5.51076 8.66233 5.89493 8.74227 6.33587 8.74227C6.88497 8.74227 7.53932 8.61551 8.29318 8.36209C8.30462 8.35666 8.3302 8.3484 8.37004 8.34015C8.40706 8.32907 8.44117 8.32082 8.46967 8.31528C8.6631 8.27128 8.87358 8.24923 9.10123 8.24923C9.64742 8.24923 10.077 8.41999 10.3929 8.75878C10.6774 9.08106 10.8197 9.42811 10.8197 9.79993C10.8197 10.1387 10.7002 10.4802 10.4612 10.8246C10.1596 11.2707 9.61051 11.6398 8.81098 11.9318C8.23921 12.1521 7.54784 12.2623 6.7427 12.2623C6.33868 12.2623 5.90907 12.2293 5.4596 12.1631C4.27601 11.9868 3.24905 11.5379 2.37559 10.8246C2.04269 10.5601 1.71833 10.2406 1.39968 9.86326Z" fill="#FFBB00"/>
<path d="M13.4864 12.2623C12.9086 12.2623 12.4397 12.0655 12.0797 11.6747C11.7196 11.2812 11.541 10.7583 11.541 10.1033V2.02681C11.541 1.65852 11.6303 1.31839 11.8117 1.00354C11.9904 0.691566 12.2303 0.447002 12.529 0.267071C12.8305 0.0899126 13.1598 0 13.5199 0H16.2999C16.5343 0 16.7799 0.0168518 17.0367 0.0505555C17.5865 0.120843 18.0806 0.264191 18.516 0.477826C18.9514 0.691567 19.3255 0.96141 19.6352 1.28192C19.9478 1.60231 20.1851 1.96783 20.3526 2.37259C20.5172 2.78024 20.601 3.21028 20.601 3.66571C20.601 3.82879 20.5954 3.95806 20.5843 4.05373C20.5256 4.70029 20.3191 5.2597 19.9702 5.73198L20.0037 5.77411L20.2326 5.92311L20.4698 6.06934L20.5675 6.15925C20.7964 6.35326 20.9918 6.57532 21.1537 6.82831C21.3127 7.0813 21.4356 7.35115 21.5165 7.63795C21.5974 7.92752 21.6393 8.23107 21.6393 8.5487C21.6393 8.92829 21.5806 9.29935 21.4663 9.66476C21.3518 10.0303 21.1759 10.3788 20.9359 10.7133C20.7377 10.9608 20.5396 11.1715 20.3386 11.3487C19.9785 11.6607 19.5823 11.8912 19.1524 12.0402C18.7197 12.1892 18.2201 12.2623 17.6536 12.2623H13.4864ZM15.4262 4.45284H16.3082C16.4729 4.45284 16.6236 4.39098 16.7604 4.26448C16.8748 4.17457 16.9306 4.0565 16.9306 3.9075C16.9306 3.76127 16.8693 3.63766 16.7437 3.53921C16.6181 3.42957 16.4618 3.37336 16.2775 3.37336H15.4262V4.45284ZM15.4095 8.87198H17.2404C17.3856 8.87198 17.5112 8.82142 17.6145 8.72308C17.7177 8.62464 17.7708 8.49537 17.7708 8.33506C17.7708 8.16644 17.7206 8.02021 17.6228 7.90214C17.5252 7.78407 17.3968 7.72509 17.2404 7.72509H15.4095V8.87198Z" fill="#1F1D32"/>
<path d="M22.192 11.6673C21.8227 11.2641 21.6393 10.7969 21.6393 10.2659V2.11879C21.6393 1.47642 21.8171 0.964873 22.1754 0.578333C22.5336 0.191794 22.9947 0 23.5613 0H27.1412C28.0355 0 28.8327 0.191793 29.5326 0.572742C30.2324 0.956538 30.774 1.47927 31.16 2.13821C31.5461 2.79724 31.7377 3.53129 31.7377 4.34045C31.71 5.49722 31.3378 6.4565 30.624 7.21555C29.9075 7.9747 28.941 8.42791 27.7273 8.57529C27.4774 8.60863 27.2329 8.6253 26.994 8.6253H25.4887V10.2965C25.4887 10.8721 25.2971 11.3475 24.9111 11.7146C24.5472 12.0788 24.1029 12.2623 23.5752 12.2623C23.0335 12.2623 22.5725 12.0649 22.192 11.6673ZM25.4887 5.25521H27.0218C27.2773 5.25521 27.4912 5.16628 27.6718 4.98556C27.8606 4.79651 27.955 4.58235 27.955 4.34045C27.955 4.09854 27.8662 3.88439 27.6884 3.70652C27.494 3.5257 27.2718 3.43676 27.0218 3.43676H25.4887V5.25521Z" fill="#1F1D32"/>
<path d="M33.0404 11.6745C32.6519 11.213 32.459 10.7048 32.459 10.1527V1.95589C32.459 1.54933 32.5692 1.18123 32.787 0.854394C33.0047 0.524747 33.294 0.29119 33.6523 0.145595C33.8837 0.0495041 34.1152 0 34.3467 0C34.9226 0 35.4683 0.299423 35.9863 0.901084L40.1805 5.87018V1.95589C40.1805 1.42573 40.3707 0.969766 40.7538 0.587904C41.1313 0.21709 41.5777 0.0330381 42.0958 0.0330381C42.3521 0.0330381 42.6001 0.079728 42.8343 0.173109C43.0686 0.26649 43.2669 0.406562 43.4351 0.587904C43.6059 0.75549 43.7437 0.961427 43.8456 1.20322C43.9476 1.44772 44 1.70035 44 1.95589V10.3532C44 10.4356 43.989 10.5619 43.9669 10.7322C43.9145 11.029 43.7933 11.2926 43.6087 11.5261C43.4213 11.7596 43.198 11.9409 42.9335 12.07C42.6717 12.1991 42.3851 12.2623 42.0792 12.2623C41.7127 12.2623 41.382 12.1716 41.0872 11.9876C40.8722 11.8448 40.7124 11.7047 40.6104 11.5701L36.2784 6.26299V10.3367C36.2784 10.8916 36.0938 11.3531 35.7218 11.7239C35.3608 12.0838 34.9254 12.2623 34.4128 12.2623C33.8589 12.2623 33.4014 12.0673 33.0404 11.6745Z" fill="#1F1D32"/>
</svg>
