<svg width="193" height="122" viewBox="0 0 193 122" fill="none" xmlns="http://www.w3.org/2000/svg">
<g clip-path="url(#clip0)">
<path d="M9.98422 109.817C9.27121 98.3114 26.8835 88.5283 39.2192 92.634L37.9357 111.997C37.9357 111.997 31.3757 126.342 18.3982 111.997C18.2556 111.845 18.113 111.642 17.9704 111.49L19.8956 118.384C19.8956 118.384 4.42245 124.619 0.999813 119.6C-2.20891 114.988 2.71113 109.817 9.98422 109.817Z" fill="#7FC269"/>
<path d="M16.0306 114.957C14.242 105.702 20.873 99.7973 26.4135 102.138C18.2991 81.392 42.075 66.1253 52.5888 87.7751C62.2736 79.7963 75.6665 84.903 83.5628 104.266C88.5795 104.106 93.6406 86.7645 106.859 87.4034C120.034 88.0416 122.651 106.659 124.309 108.681C128.759 104.266 141.192 105.063 140.32 121.554H20.175H18.6481H6.08399C3.11745 116.075 7.52365 110.011 16.0306 114.957Z" fill="#8BD274"/>
<path d="M117.73 25.4662L138.373 14.4217L156.877 25.4662V121.554H117.73V25.4662Z" fill="#A2E28D"/>
<path d="M34.0586 54.3923L53.2099 43.265L72.0533 54.3923V121.554H34.0586V54.3923Z" fill="#A2E28D"/>
<path d="M71.2139 0H118.69V121.554H71.2139V0Z" fill="#A2E28D"/>
<path d="M181.319 73.121C186.503 56.341 170.896 46.6411 169.781 74.7378C168.276 64.5919 153.338 74.9607 165.434 92.521C165.434 92.521 163.036 92.521 160.919 95.4753C158.41 98.9317 159.636 111.977 171.62 114.82C184.719 117.886 197.094 97.7053 186.169 97.4825C189.625 95.6987 195.422 89.0086 191.91 84.2147C190.294 81.9847 185.054 84.103 185.054 84.103C185.054 84.103 193.805 74.2357 190.74 71.0027C187.618 67.8808 183.326 70.6123 181.319 73.121Z" fill="#8BD274"/>
<path d="M175.244 84.8279C175.132 84.8279 175.021 84.7162 175.021 84.6044C175.021 84.4933 175.132 84.3816 175.244 84.3816C179.312 84.1029 182.991 80.6465 183.939 76.1871C183.939 76.0753 184.106 75.9636 184.218 76.0195C184.329 76.0195 184.441 76.1871 184.385 76.2982C183.326 81.0369 179.591 84.5492 175.244 84.8279Z" fill="white"/>
<path d="M174.519 94.3612C173.571 94.3612 172.679 93.915 171.787 92.9672C169.39 90.4033 167.997 84.6051 168.555 81.8736C168.555 81.7625 168.666 81.6507 168.833 81.7066C168.944 81.7066 169.056 81.8736 169 81.9853C168.443 84.6051 169.781 90.1798 172.122 92.6885C173.014 93.6363 173.961 94.0267 174.909 93.9149C175.02 93.9149 175.132 93.9708 175.187 94.0825C175.187 94.1936 175.132 94.3053 175.02 94.3612C174.853 94.3612 174.686 94.3612 174.519 94.3612Z" fill="white"/>
<path d="M174.854 97.3708C174.742 97.3708 174.63 97.2597 174.63 97.148C174.63 97.0362 174.686 96.9251 174.854 96.9251C179.536 96.5906 184.385 91.6849 185.89 89.2873C185.946 89.1762 186.113 89.1762 186.224 89.2321C186.336 89.2873 186.392 89.4549 186.28 89.5666C184.72 92.0195 179.703 97.0362 174.854 97.3708Z" fill="white"/>
<path d="M174.965 75.4069C174.909 74.9606 174.854 74.682 174.854 74.682C174.854 74.5702 174.742 74.4592 174.631 74.515C174.463 74.515 174.407 74.682 174.407 74.7937C174.407 74.7937 174.463 75.0165 174.519 75.518C174.575 76.0201 174.631 76.6886 174.687 77.5811C174.687 78.0267 174.742 78.5288 174.742 79.0862C174.798 79.5877 174.798 80.2009 174.798 80.8141C174.798 82.0405 174.798 83.4345 174.742 84.9955C174.575 91.1276 174.018 99.378 174.185 107.628C174.241 109.747 174.296 111.81 174.463 113.816C174.631 115.879 175.076 121.287 175.076 121.287H176.303C176.084 119.285 175.746 115.768 175.578 113.761C175.411 111.754 175.244 109.747 175.188 107.684C174.854 99.4339 175.3 91.2387 175.355 85.0507C175.411 83.4897 175.355 82.0964 175.355 80.8141C175.355 80.145 175.3 79.5877 175.3 79.0303C175.244 78.473 175.244 77.9708 175.188 77.5252C175.076 76.5775 175.021 75.9084 174.965 75.4069Z" fill="white"/>
<path d="M174.687 108.967C173.516 108.911 171.287 107.573 169.67 105.399C168.444 103.782 167.218 101.273 167.942 98.0963C167.998 97.9846 168.109 97.9287 168.221 97.9287C168.332 97.9846 168.388 98.0963 168.388 98.2074C167.663 101.162 168.89 103.615 170.005 105.12C171.621 107.294 173.739 108.465 174.687 108.465C174.798 108.465 174.909 108.577 174.909 108.688C174.909 108.855 174.798 108.967 174.687 108.967Z" fill="white"/>
<path d="M135.452 59.0047H138.95V66.6422H135.452V59.0047Z" fill="white"/>
<path d="M135.452 42.8818H138.95V51.3678H135.452V42.8818Z" fill="white"/>
<path d="M135.452 27.6071H138.95V36.0931H135.452V27.6071Z" fill="white"/>
<path d="M50.6245 59.0047H54.9971V66.6422H50.6245V59.0047Z" fill="white"/>
<path d="M50.6245 74.2787H54.9971V81.9159H50.6245V74.2787Z" fill="white"/>
<path d="M50.6245 89.5544H54.9971V97.1916H50.6245V89.5544Z" fill="white"/>
<path d="M93.3355 12.3332H86.7227V18.9334H93.3355V12.3332Z" fill="white"/>
<path d="M103.728 12.3323H97.1147V18.9325H103.728V12.3323Z" fill="white"/>
<path d="M93.3355 22.7038H86.7227V29.304H93.3355V22.7038Z" fill="white"/>
<path d="M59.3792 114.957C57.5905 105.702 64.2216 99.7973 69.762 102.138C61.6477 81.392 85.4239 66.1253 95.9373 87.7751C105.622 79.7963 119.016 84.903 126.911 104.266C131.929 104.106 136.989 86.7645 150.208 87.4034C163.382 88.0416 166 106.659 167.657 108.681C172.107 104.266 184.541 105.063 183.668 121.554H63.5236H61.9967H49.4326C46.4661 116.075 50.8723 110.011 59.3792 114.957Z" fill="#92D97B"/>
<path d="M103.728 22.7038H97.1147V29.304H103.728V22.7038Z" fill="white"/>
<path fill-rule="evenodd" clip-rule="evenodd" d="M78.3228 64.8799C76.1236 73.7264 85.6948 84.8979 90.8684 89.7841C98.2607 96.766 111.655 105.426 121.318 98.3884C122.185 97.7574 123.869 96.1346 124.366 95.1185C124.795 94.2398 125.323 90.5174 124.746 89.8435C124.197 89.2034 114.521 84.1746 113.324 84.4154C111.787 84.7248 108.81 90.3159 107.785 90.5184C105.86 90.8987 99.2487 86.3193 97.7259 84.9455C95.0303 82.5137 92.2366 79.6916 90.4427 76.419C89.269 74.2776 90.7513 74.5313 93.1635 70.6577C94.4544 68.5847 93.9542 68.5866 92.9976 66.2184C92.479 64.9344 89.7792 58.0498 89.0934 57.4767C88.7601 57.1981 84.3966 56.8762 83.8611 57.0483C81.8982 57.6794 78.8262 62.855 78.3228 64.8799Z" fill="white"/>
</g>
<defs>
<clipPath id="clip0">
<rect width="193" height="122" fill="white"/>
</clipPath>
</defs>
</svg>
