<svg width="30" height="30" viewBox="0 0 30 30" fill="none" xmlns="http://www.w3.org/2000/svg">
<g clip-path="url(#clip0_201_233)">
<path d="M8.81788 22.5446C16.3986 22.5446 22.5432 16.399 22.5432 8.81831C22.5432 5.45925 21.3329 2.38644 19.3302 0.000427246C25.5181 1.98685 29.999 7.78283 29.999 14.6306C29.999 23.119 23.1186 29.9995 14.6302 29.9995C7.7824 29.9995 1.98642 25.5185 0 19.3306C2.38601 21.3343 5.45978 22.5446 8.81788 22.5446Z" fill="url(#paint0_linear_201_233)"/>
<path d="M7.69242 6.00014L9.27541 9.20935L12.816 9.72324L10.2542 12.2207L10.8584 15.7469L7.69242 14.0822L4.52548 15.7469L5.12967 12.2207L2.56787 9.72324L6.10847 9.20935L7.69242 6.00014Z" fill="url(#paint1_linear_201_233)"/>
<path d="M16.6218 4.97331L17.4421 6.63699L19.2777 6.90306L17.9492 8.19789L18.2633 10.0249L16.6218 9.16228L14.9802 10.0249L15.2943 8.19789L13.9658 6.90306L15.8014 6.63699L16.6218 4.97331Z" fill="url(#paint2_linear_201_233)"/>
</g>
<defs>
<linearGradient id="paint0_linear_201_233" x1="14.9995" y1="29.9995" x2="14.9995" y2="0.000437975" gradientUnits="userSpaceOnUse">
<stop stop-color="#FD9800"/>
<stop offset="1" stop-color="#FFDE00"/>
</linearGradient>
<linearGradient id="paint1_linear_201_233" x1="7.69195" y1="15.7469" x2="7.69195" y2="6.00014" gradientUnits="userSpaceOnUse">
<stop stop-color="#FD9800"/>
<stop offset="1" stop-color="#FFDE00"/>
</linearGradient>
<linearGradient id="paint2_linear_201_233" x1="16.6218" y1="10.0249" x2="16.6218" y2="4.97331" gradientUnits="userSpaceOnUse">
<stop stop-color="#FD9800"/>
<stop offset="1" stop-color="#FFDE00"/>
</linearGradient>
<clipPath id="clip0_201_233">
<rect width="30" height="30" fill="white"/>
</clipPath>
</defs>
</svg>
