<svg width="30" height="30" viewBox="0 0 30 30" fill="none" xmlns="http://www.w3.org/2000/svg">
<g clip-path="url(#clip0_201_399)">
<path d="M18.5156 16.7578C17.5303 16.7578 16.7578 17.5303 16.7578 18.5156C16.7578 19.5009 17.5303 20.2734 18.5156 20.2734C19.5009 20.2734 20.2734 19.5009 20.2734 18.5156C20.2734 17.5303 19.5009 16.7578 18.5156 16.7578ZM18.5156 22.0312C17.5303 22.0312 16.7578 22.8037 16.7578 23.7891C16.7578 24.7744 17.5303 25.5469 18.5156 25.5469C19.5009 25.5469 20.2734 24.7744 20.2734 23.7891C20.2734 22.8037 19.5009 22.0312 18.5156 22.0312ZM15 23.7891C14.0147 23.7891 13.2422 24.5616 13.2422 25.5469C13.2422 26.5322 14.0147 27.3633 15 27.3633C15.9853 27.3633 16.7578 26.5322 16.7578 25.5469C16.7578 24.5616 15.9853 23.7891 15 23.7891ZM11.4844 20.2734C10.4991 20.2734 9.72656 21.0459 9.72656 22.0312C9.72656 23.0166 10.4991 23.7891 11.4844 23.7891C12.4697 23.7891 13.2422 23.0166 13.2422 22.0312C13.2422 21.0459 12.4697 20.2734 11.4844 20.2734ZM15 22.0312C15.9853 22.0312 16.7578 21.2588 16.7578 20.2734C16.7578 19.2881 15.9853 18.5156 15 18.5156C14.0147 18.5156 13.2422 19.2881 13.2422 20.2734C13.2422 21.2588 14.0147 22.0312 15 22.0312ZM21.1523 7.17773V4.39453C21.1523 3.90229 20.7657 3.51562 20.2734 3.51562H9.72656C9.23432 3.51562 8.84766 3.90229 8.84766 4.39453V7.17773C6.84375 7.58209 5.33203 9.35742 5.33203 11.4844V15.3516L11.5546 16.2567C11.5092 16.415 11.4844 16.583 11.4844 16.7578C11.4844 17.7431 12.2569 18.5156 13.2422 18.5156C14.2275 18.5156 15 17.7431 15 16.7578L24.668 15.3516V11.4844C24.668 9.35736 23.1562 7.58209 21.1523 7.17773Z" fill="url(#paint0_linear_201_399)"/>
<path d="M9.72656 5.27344H20.2734C21.7274 5.27344 22.9102 4.09066 22.9102 2.63672C22.9102 1.18277 21.7274 0 20.2734 0L9.72656 0C8.27262 0 7.08984 1.18277 7.08984 2.63672C7.08984 4.09066 8.27262 5.27344 9.72656 5.27344ZM15 13.2422C12.4945 13.2422 9.2182 13.7971 5.33203 15.3516V27.3633C5.33203 28.8223 6.50965 30 7.96875 30H22.0312C23.4904 30 24.668 28.8223 24.668 27.3633V15.3516C20.7848 13.7983 17.4976 13.2422 15 13.2422ZM11.4844 22.9102C10.9921 22.9102 10.6055 22.5235 10.6055 22.0312C10.6055 21.539 10.9921 21.1523 11.4844 21.1523C11.9766 21.1523 12.3633 21.539 12.3633 22.0312C12.3633 22.5235 11.9766 22.9102 11.4844 22.9102ZM13.2422 17.6367C12.7499 17.6367 12.3633 17.2501 12.3633 16.7578C12.3633 16.2656 12.7499 15.8789 13.2422 15.8789C13.7344 15.8789 14.1211 16.2656 14.1211 16.7578C14.1211 17.2501 13.7344 17.6367 13.2422 17.6367ZM15 26.4258C14.5078 26.4258 14.1211 26.0391 14.1211 25.5469C14.1211 25.0546 14.5078 24.668 15 24.668C15.4922 24.668 15.8789 25.0546 15.8789 25.5469C15.8789 26.0391 15.4922 26.4258 15 26.4258ZM15 21.1523C14.5078 21.1523 14.1211 20.7657 14.1211 20.2734C14.1211 19.7812 14.5078 19.3945 15 19.3945C15.4922 19.3945 15.8789 19.7812 15.8789 20.2734C15.8789 20.7657 15.4922 21.1523 15 21.1523ZM18.5156 24.668C18.0234 24.668 17.6367 24.2813 17.6367 23.7891C17.6367 23.2968 18.0234 22.9102 18.5156 22.9102C19.0079 22.9102 19.3945 23.2968 19.3945 23.7891C19.3945 24.2813 19.0079 24.668 18.5156 24.668ZM18.5156 19.3945C18.0234 19.3945 17.6367 19.0079 17.6367 18.5156C17.6367 18.0234 18.0234 17.6367 18.5156 17.6367C19.0079 17.6367 19.3945 18.0234 19.3945 18.5156C19.3945 19.0079 19.0079 19.3945 18.5156 19.3945Z" fill="url(#paint1_linear_201_399)"/>
</g>
<defs>
<linearGradient id="paint0_linear_201_399" x1="15" y1="27.3633" x2="15" y2="3.51562" gradientUnits="userSpaceOnUse">
<stop stop-color="#ADDCFF"/>
<stop offset="0.5028" stop-color="#EAF6FF"/>
<stop offset="1" stop-color="#EAF6FF"/>
</linearGradient>
<linearGradient id="paint1_linear_201_399" x1="15" y1="30" x2="15" y2="0" gradientUnits="userSpaceOnUse">
<stop stop-color="#5558FF"/>
<stop offset="1" stop-color="#00C0FF"/>
</linearGradient>
<clipPath id="clip0_201_399">
<rect width="30" height="30" fill="white"/>
</clipPath>
</defs>
</svg>
