<svg width="30" height="30" viewBox="0 0 30 30" fill="none" xmlns="http://www.w3.org/2000/svg">
<g clip-path="url(#clip0_201_303)">
<g clip-path="url(#clip1_201_303)">
<path d="M7.08981 5.27344H22.9101C23.214 5.27344 23.4972 5.11553 23.6585 4.85631C23.8182 4.59709 23.8319 4.27354 23.6963 4.00143L21.9385 0.485801C21.7892 0.187969 21.4854 0 21.1523 0H8.84763C8.51458 0 8.21077 0.187969 8.06142 0.485801L6.3036 4.00143C6.16802 4.27354 6.18173 4.59709 6.3414 4.85631C6.5027 5.11553 6.78595 5.27344 7.08981 5.27344ZM22.9101 7.14844H7.08981C6.84436 7.14844 6.60917 7.25145 6.44265 7.43256C6.27612 7.61279 6.19374 7.85572 6.21436 8.10029L7.97218 29.194C8.00991 29.6498 8.39101 30 8.84763 30H21.1523C21.6089 30 21.99 29.6498 22.0278 29.194L23.7856 8.10029C23.8062 7.85566 23.7238 7.61279 23.5573 7.43256C23.3908 7.25145 23.1556 7.14844 22.9101 7.14844Z" fill="url(#paint0_linear_201_303)"/>
<path d="M24.668 3.51562H5.33203C4.84623 3.51562 4.45312 3.90873 4.45312 4.39453V8.02734C4.45312 8.51314 4.84623 8.90625 5.33203 8.90625H24.668C25.1538 8.90625 25.5469 8.51314 25.5469 8.02734V4.39453C25.5469 3.90873 25.1538 3.51562 24.668 3.51562ZM15 14.1797C13.062 14.1797 11.4844 15.7564 11.4844 17.6953C11.4844 19.6342 13.062 21.2109 15 21.2109C16.938 21.2109 18.5156 19.6342 18.5156 17.6953C18.5156 15.7564 16.938 14.1797 15 14.1797Z" fill="url(#paint1_linear_201_303)"/>
</g>
</g>
<defs>
<linearGradient id="paint0_linear_201_303" x1="15" y1="30" x2="15" y2="0" gradientUnits="userSpaceOnUse">
<stop stop-color="#A93AFF"/>
<stop offset="1" stop-color="#FF81FF"/>
</linearGradient>
<linearGradient id="paint1_linear_201_303" x1="15" y1="21.2109" x2="15" y2="3.51562" gradientUnits="userSpaceOnUse">
<stop stop-color="#FFBEF9"/>
<stop offset="1" stop-color="#FFF1FF"/>
</linearGradient>
<clipPath id="clip0_201_303">
<rect width="30" height="30" fill="white"/>
</clipPath>
<clipPath id="clip1_201_303">
<rect width="30" height="30" fill="white"/>
</clipPath>
</defs>
</svg>
