<svg width="616" height="616" viewBox="0 0 616 616" fill="none" xmlns="http://www.w3.org/2000/svg">
<path opacity="0.5" fill-rule="evenodd" clip-rule="evenodd" d="M74.7205 301.176C105.451 243.778 133.229 200.939 166.595 145.852C197.702 94.4897 232.186 31.1136 314.309 69.9505C359.181 91.1736 427.179 138.078 471.666 165.707C617.23 256.12 556.258 296.013 449.106 469.378C417.161 521.062 385.437 584.337 304.024 544.232C257.011 521.081 194.24 476.417 147.339 448.18C93.0093 415.473 28.9026 386.756 74.7205 301.176Z" fill="#EEF1FF"/>
<path d="M270.107 424.567C244.035 397.881 231 364.026 231 323C231 281.974 244.035 248.316 270.107 222.029C296.177 195.343 330.807 182 374 182C416.802 182 451.24 195.343 477.311 222.029C503.771 248.316 517 281.974 517 323C517 363.626 503.771 397.483 477.311 424.567C450.851 450.856 416.413 464 374 464C330.807 464 296.177 450.856 270.107 424.567ZM323.22 268.034C309.601 282.37 302.792 300.694 302.792 323C302.792 345.304 309.505 363.726 322.929 378.264C336.353 392.803 353.378 400.073 374 400.073C395.011 400.073 412.231 392.902 425.655 378.563C439.079 364.223 445.792 345.704 445.792 323C445.792 300.694 438.983 282.37 425.362 268.034C411.744 253.694 394.622 246.524 374 246.524C353.767 246.524 336.84 253.694 323.22 268.034Z" fill="white"/>
<path d="M289 297.607L299.607 287L320.82 308.213L342.033 329.426L331.426 340.033L289 297.607Z" fill="#D8DCF0"/>
<path d="M331.426 287L342.033 297.607L299.607 340.033L289 329.426L331.426 287Z" fill="#D8DCF0"/>
<path d="M362 297.607L372.607 287L393.82 308.213L415.033 329.426L404.426 340.033L362 297.607Z" fill="#D8DCF0"/>
<path d="M404.426 287L415.033 297.607L372.607 340.033L362 329.426L404.426 287Z" fill="#D8DCF0"/>
</svg>
