<svg width="367" height="151" viewBox="0 0 367 151" fill="none" xmlns="http://www.w3.org/2000/svg">
    <path d="M87.52 139.952V144H85.552V132.8C86.0213 132.8 86.528 132.795 87.072 132.784C87.6267 132.773 88.1813 132.768 88.736 132.768C89.5253 132.768 90.208 132.869 90.784 133.072C91.3707 133.264 91.824 133.536 92.144 133.888C92.464 134.229 92.6987 134.608 92.848 135.024C92.9973 135.429 93.072 135.877 93.072 136.368C93.072 137.381 92.7093 138.24 91.984 138.944C91.2693 139.648 90.2667 140 88.976 140C88.3253 140 87.84 139.984 87.52 139.952ZM88.928 134.608L87.52 134.64V138.08C88.0853 138.133 88.5493 138.16 88.912 138.16C89.5413 138.16 90.0427 138.005 90.416 137.696C90.8 137.387 90.992 136.939 90.992 136.352C90.992 135.189 90.304 134.608 88.928 134.608ZM118.357 144H111.349V132.8H113.317V142.16H118.357V144ZM136.643 144H134.659L139.395 132.768H141.123L145.859 144H143.763L142.595 141.136H137.811L136.643 144ZM141.843 139.296L140.211 135.312L138.563 139.296H141.843ZM164.792 134.64H161.16V132.8H170.392V134.64H166.76V144H164.792V134.64ZM190.067 144H188.099V132.8H194.499V134.64H190.067V137.808H194.019V139.648H190.067V144ZM212.001 138.4C212.001 136.768 212.545 135.397 213.633 134.288C214.743 133.179 216.14 132.624 217.825 132.624C219.511 132.624 220.903 133.157 222.001 134.224C223.111 135.301 223.665 136.693 223.665 138.4C223.665 140.075 223.111 141.456 222.001 142.544C220.892 143.632 219.5 144.176 217.825 144.176C216.14 144.176 214.748 143.643 213.649 142.576C212.551 141.509 212.001 140.117 212.001 138.4ZM214.081 138.4C214.081 139.531 214.439 140.469 215.153 141.216C215.868 141.963 216.759 142.336 217.825 142.336C218.977 142.336 219.889 141.963 220.561 141.216C221.244 140.469 221.585 139.531 221.585 138.4C221.585 137.259 221.223 136.315 220.497 135.568C219.772 134.832 218.881 134.464 217.825 134.464C216.748 134.464 215.852 134.832 215.137 135.568C214.433 136.304 214.081 137.248 214.081 138.4ZM243.911 139.808V144H241.943V132.8C242.497 132.8 243.1 132.795 243.751 132.784C244.401 132.773 244.935 132.768 245.351 132.768C248.06 132.768 249.415 133.92 249.415 136.224C249.415 137.077 249.196 137.781 248.759 138.336C248.321 138.869 247.82 139.232 247.255 139.424L250.759 144H248.375L245.287 139.808H243.911ZM245.255 134.608C245.201 134.608 245.116 134.613 244.999 134.624C244.881 134.624 244.716 134.629 244.503 134.64C244.289 134.64 244.092 134.64 243.911 134.64V137.968H245.191C245.82 137.968 246.332 137.813 246.727 137.504C247.132 137.195 247.335 136.773 247.335 136.24C247.335 135.152 246.641 134.608 245.255 134.608ZM270.442 144H268.474V132.8H270.458L274.282 138.032L277.93 132.8H279.786V144H277.834V135.904L274.298 140.88H274.01L270.442 135.952V144Z"
          fill="white"/>
    <path d="M0 98.8C0 62.6692 0 36.1338 0 0.00348902C8.30918 -0.125574 17.8462 3.31696 18.5703 11.8367V35.9948C23.8446 31.7311 30.2505 29.6 37.7864 29.6C48.4432 29.6 56.8405 33.0977 62.9768 40.0946C69.2202 46.872 72.3427 55.8913 72.3427 67.1515C72.3427 79.286 68.5745 88.961 61.0391 96.176C53.6109 103.392 43.5455 106.999 30.8424 106.999C25.2442 106.999 19.6199 106.234 13.9683 104.704C8.31632 103.173 3.66057 101.205 0 98.8ZM33.4263 47.3097C27.5052 47.3097 22.5532 49.6598 18.5703 54.3613V85.6814C22.5532 88.196 26.9671 89.4533 31.811 89.4533C37.9473 89.4533 42.926 87.5668 46.748 83.7959C50.5694 80.024 52.4804 74.9135 52.4804 68.4635C52.4804 61.7949 50.7042 56.6022 47.1518 52.8848C43.5993 49.168 39.024 47.3097 33.4263 47.3097ZM177.626 77.1544C177.626 47.8426 177.626 29.6322 177.626 0.320413C185.341 0.0622877 195.684 2.98809 196.196 11.5078V29.1659C204.001 29.1659 200.281 29.1659 208.085 29.1659C217.577 30.1636 219.611 40.9726 219.611 46.8756H196.196V76.0063C196.196 84.8612 199.103 89.2889 204.916 89.2889C218.557 89.2889 219.378 96.3316 221.71 99.6196C215.789 104.43 208.63 106.835 200.233 106.835C192.374 106.835 186.642 104.403 183.036 99.5379C179.429 94.6731 177.626 87.2119 177.626 77.1544ZM94.7878 96.176C87.5748 88.8517 83.9686 79.5597 83.9686 68.2995C83.9686 57.0393 87.5748 47.8015 94.7878 40.5864C102 33.2621 111.581 29.6 123.531 29.6C135.372 29.6 144.9 33.2621 152.113 40.5864C159.433 47.8015 163.093 57.0393 163.093 68.2995C163.093 79.4499 159.433 88.7424 152.113 96.176C144.793 103.392 135.265 106.999 123.531 106.999C111.581 106.999 102 103.392 94.7878 96.176ZM109.482 53.2133C105.715 57.1481 103.83 62.1774 103.83 68.2995C103.83 74.4212 105.688 79.4775 109.402 83.4675C113.115 87.4581 117.825 89.4533 123.531 89.4533C129.344 89.4533 134.108 87.4851 137.822 83.5497C141.536 79.6139 143.393 74.531 143.393 68.2995C143.393 62.1774 141.509 57.1481 137.741 53.2133C133.973 49.2774 129.237 47.3097 123.531 47.3097C117.934 47.3097 113.25 49.2774 109.482 53.2133Z"
          fill="white"/>
    <path d="M234.951 77.1552C234.951 47.8434 234.951 29.6331 234.951 0.321235C242.751 -0.280884 253.264 3.41878 253.521 11.5086V29.1668C261.326 29.1668 257.606 29.1668 265.41 29.1668C275.495 30.2503 276.935 40.9734 276.935 46.8765H253.521V76.0072C253.521 84.862 256.427 89.2897 262.241 89.2897C275.882 89.2897 276.619 96.5042 279.035 99.6205C273.113 104.431 265.955 106.836 257.558 106.836C249.699 106.836 243.967 104.404 240.361 99.5387C236.754 94.6739 234.951 87.2128 234.951 77.1552ZM298.089 96.1769C290.876 88.8526 287.27 79.5606 287.27 68.3004C287.27 57.0402 290.876 47.8023 298.089 40.5873C305.302 33.263 314.882 29.6008 326.832 29.6008C338.674 29.6008 348.201 33.263 355.414 40.5873C362.734 47.8023 366.394 57.0402 366.394 68.3004C366.394 79.4508 362.734 88.7433 355.414 96.1769C348.093 103.392 338.566 107 326.832 107C314.882 107 305.302 103.392 298.089 96.1769ZM312.783 53.2141C309.016 57.1489 307.132 62.1782 307.132 68.3004C307.132 74.422 308.989 79.4783 312.703 83.4684C316.417 87.4589 321.127 89.4542 326.832 89.4542C332.645 89.4542 337.409 87.486 341.123 83.5506C344.837 79.6147 346.694 74.5318 346.694 68.3004C346.694 62.1782 344.81 57.1489 341.042 53.2141C337.274 49.2782 332.537 47.3105 326.832 47.3105C321.234 47.3105 316.551 49.2782 312.783 53.2141Z"
          fill="#24ADED"/>
</svg>
