<svg width="578" height="217" viewBox="0 0 578 217" fill="none" xmlns="http://www.w3.org/2000/svg">
<path d="M8.93903 5.1484C13.2772 1.96513 17.622 0.376829 21.8842 0.376829C28.7868 0.376829 35.3173 3.89482 41.1918 11.1909L62.7266 37.9426L84.516 11.1909C90.4118 3.9535 96.8583 0.376829 103.824 0.376829C108.118 0.376829 112.431 1.9518 116.77 5.1484C119.069 6.84206 121.055 9.15048 122.654 12.019C124.704 15.693 125.708 19.5258 125.708 23.5012C125.708 28.3368 124.308 32.4802 121.351 35.7155L84.8974 75.6044V119.914C84.8974 126.043 82.745 131.292 78.5682 135.754C74.3567 140.253 69.1838 142.562 62.9172 142.562C56.8108 142.562 51.5404 140.283 47.0449 135.754C42.8988 131.576 40.8104 126.307 40.8104 119.914V75.6044L4.35815 35.7155C1.39626 32.4749 0 28.3368 0 23.5012C0 19.5885 0.916163 15.7264 2.98989 12.019C4.6302 9.08647 6.71327 6.78071 8.93903 5.1484ZM165.343 133.719C158.378 130.22 152.589 125.798 147.976 120.486C143.396 115.175 139.897 108.94 137.511 101.783C135.126 94.6587 133.917 86.8332 133.917 78.4036V22.8331C133.917 16.5679 136.016 11.2229 140.247 6.80203C144.669 2.37987 149.948 0.184784 156.088 0.184784C162.131 0.184784 167.221 2.25318 171.387 6.4193C175.809 10.8415 178.003 16.1852 178.003 22.4517V79.7718C178.003 84.1287 178.735 87.9454 180.23 91.286C181.725 94.5947 183.888 97.3298 186.719 99.4929C189.551 101.624 193.018 103.055 197.121 103.819C199.22 104.072 200.81 104.2 201.861 104.2C202.846 104.2 204.405 104.072 206.504 103.819C210.608 103.055 214.075 101.624 216.874 99.5249C219.642 97.4259 221.805 94.6893 223.3 91.318C224.795 87.9774 225.527 84.1287 225.527 79.7718V22.4517C225.527 16.2492 227.752 10.9055 232.237 6.4193C236.373 2.25318 241.463 0.184784 247.473 0.184784C253.677 0.184784 258.893 2.37987 263.092 6.80203C265.097 8.7424 266.656 11.1282 267.832 14.0221C269.01 16.9173 269.614 19.8432 269.614 22.8331V78.4036C269.614 86.9599 268.436 94.816 266.082 101.879C263.729 108.972 260.197 115.175 255.49 120.486C250.814 125.798 244.993 130.22 237.996 133.719C215.526 144.955 187.818 144.955 165.343 133.719Z" fill="#FEFEFE"/>
<path d="M364.434 102.615C371.018 101.374 375.661 98.8293 378.398 95.0446H366.946C361.474 95.0446 356.863 93.103 353.109 89.2542C349.356 85.4055 347.448 80.794 347.448 75.3863C347.575 71.7923 348.497 68.5476 350.151 65.6524C351.837 62.7585 354.158 60.4674 357.118 58.7191C360.044 56.9695 363.288 56.1093 366.755 56.1093H403.749C417.362 56.1093 424.17 63.6174 424.17 78.5989C424.17 82.925 423.725 87.4099 422.866 92.0214C421.975 97.8118 419.844 103.76 416.409 109.93C412.624 116.706 407.789 122.527 401.935 127.393C396.052 132.293 389.308 136.014 381.705 138.558C374.104 141.103 365.738 142.375 356.608 142.375C351.391 142.375 345.602 141.867 339.272 140.881C330.557 139.385 322.7 136.809 315.639 133.087C308.576 129.398 302.406 124.626 297.125 118.773C291.845 112.952 287.647 106.304 284.465 98.8294C280.809 90.0184 278.963 81.0487 278.963 71.983C278.963 60.054 281.985 48.7626 288.061 38.1059C294.104 27.4505 302.661 18.6395 313.729 11.6729C325.785 4.1341 339.496 0.381404 354.923 0.381404C356.895 0.381404 359.757 0.508092 363.479 0.762807C370.127 1.33492 376.616 2.60716 382.979 4.57953C389.053 6.58391 394.779 9.19241 400.123 12.437C411.001 19.593 416.409 27.2278 416.409 35.3707C416.409 40.2369 414.182 44.6271 409.697 48.5398C406.548 51.339 402.732 52.706 398.247 52.706C394.97 52.706 391.439 51.9432 387.717 50.3842H387.526L379.511 46.1861C377.794 45.1992 376.457 44.5311 375.502 44.1497C367.741 40.5557 360.521 38.742 353.809 38.742C348.401 38.742 343.535 39.8235 339.272 41.9546C334.979 44.0857 331.415 47.2356 328.552 51.4017C325.69 55.5692 323.782 60.3727 322.859 65.8431C322.478 67.5608 322.287 69.2784 322.287 70.9641C322.287 73.1272 322.478 75.2275 322.859 77.2946C323.973 82.797 325.977 87.5366 328.839 91.4813C331.67 95.426 335.296 98.4799 339.686 100.61C344.075 102.742 349.005 103.824 354.541 103.824C357.912 103.824 361.189 103.409 364.434 102.615ZM444.56 110.948C441.76 106.972 439.439 102.774 437.53 98.3199C435.652 93.8671 434.222 89.4142 433.235 84.8974C432.281 80.3805 431.804 75.8317 431.804 71.2188C431.804 66.766 432.281 62.2491 433.235 57.7002C434.222 53.1834 435.653 48.6665 437.593 44.1497C439.501 39.6328 441.823 35.4347 444.56 31.522C449.044 25.0007 454.452 19.3717 460.783 14.6308C467.112 9.92321 474.046 6.29719 481.617 3.78472C489.155 1.27091 496.917 0 504.87 0C510.817 0 516.702 0.698796 522.524 2.13107C528.313 3.562 533.879 5.66106 539.191 8.42825C544.502 11.1954 549.338 14.5041 553.727 18.3528C558.117 22.2335 561.934 26.5917 565.242 31.522C573.735 43.8323 577.998 57.0641 577.998 71.2188C577.998 78.2495 576.915 85.1508 574.721 91.8947C572.558 98.6387 569.41 105 565.242 110.948C561.934 115.751 558.021 120.141 553.504 124.149C548.955 128.158 544.185 131.465 539.191 134.073C534.196 136.682 528.694 138.749 522.745 140.276C516.765 141.803 510.817 142.567 504.87 142.567C496.917 142.567 489.155 141.325 481.617 138.845C474.046 136.363 467.112 132.705 460.751 127.934C454.356 123.131 448.982 117.469 444.56 110.948ZM475.509 71.2188C475.509 77.3906 476.846 82.957 479.485 87.982C482.125 93.0083 485.657 96.921 490.077 99.6882C494.532 102.455 499.398 103.824 504.678 103.824C506.523 103.824 508.464 103.633 510.436 103.252C513.998 102.519 517.179 101.215 520.042 99.3694C522.905 97.4931 525.417 95.1393 527.645 92.2761C529.838 89.4142 531.525 86.2323 532.702 82.7343C533.879 79.235 534.483 75.4503 534.483 71.4095C534.483 69.5011 534.292 67.4341 533.911 65.271C532.988 59.8633 531.175 55.2198 528.471 51.307C525.767 47.3943 522.364 44.3404 518.26 42.0826C514.157 39.8555 509.704 38.742 504.838 38.742C499.462 38.742 494.5 40.1103 490.047 42.8774C485.561 45.6446 482.031 49.5574 479.422 54.5837C476.814 59.6086 475.509 65.1443 475.509 71.2188Z" fill="#FFBB00"/>
<path d="M40.416 181.4H54.7391C58.1627 181.4 61.0219 182.473 63.3352 184.626C65.6398 186.78 66.7921 189.392 66.7921 192.471C66.7921 195.549 65.6398 198.161 63.3352 200.297C61.0219 202.443 58.1627 203.515 54.7391 203.515H46.0408V215.798H40.416V181.4ZM54.7391 186.313H46.0408V198.595H54.7391C56.5064 198.595 58.0173 198.014 59.2719 196.835C60.5179 195.663 61.1415 194.206 61.1415 192.471C61.1415 190.734 60.5179 189.278 59.2719 188.09C58.0173 186.911 56.5064 186.313 54.7391 186.313Z" fill="#FEFEFE"/>
<path d="M128.689 215.798H105.659V181.4H111.283V210.876H128.689V215.798Z" fill="#FEFEFE"/>
<path d="M161.921 215.798L176.774 181.4H182.407L197.26 215.798H191.379L187.529 206.709H171.652L167.802 215.798H161.921ZM179.6 187.541L173.701 201.788H185.481L179.6 187.541Z" fill="#FEFEFE"/>
<path d="M229.988 181.4H257.125V186.313H246.369V215.798H240.743V186.313H229.988V181.4Z" fill="#FEFEFE"/>
<path d="M293.959 181.4H319.037V186.313H299.584V195.909H314.941V200.806H299.584V215.798H293.959V181.4Z" fill="#FEFEFE"/>
<path d="M364.332 189.537C361.754 192.01 360.474 195.032 360.474 198.593C360.474 202.164 361.754 205.184 364.332 207.665C366.909 210.147 370.059 211.383 373.79 211.383C377.512 211.383 380.662 210.147 383.239 207.665C385.817 205.184 387.106 202.164 387.106 198.593C387.106 195.032 385.817 192.01 383.239 189.537C380.662 187.072 377.512 185.837 373.79 185.837C370.059 185.837 366.909 187.072 364.332 189.537ZM360.294 211.145C356.658 207.723 354.839 203.538 354.839 198.593C354.839 193.656 356.658 189.472 360.294 186.05C363.931 182.626 368.429 180.916 373.79 180.916C379.151 180.916 383.641 182.626 387.277 186.05C390.913 189.472 392.731 193.656 392.731 198.593C392.731 203.538 390.913 207.723 387.277 211.145C383.641 214.568 379.151 216.279 373.79 216.279C368.429 216.279 363.931 214.568 360.294 211.145Z" fill="#FEFEFE"/>
<path d="M431.615 215.798V181.4H446.714C450.036 181.4 452.784 182.415 454.969 184.446C457.154 186.477 458.247 188.99 458.247 191.979C458.247 193.388 457.991 194.698 457.495 195.926C456.993 197.146 456.395 198.112 455.695 198.816C454.995 199.52 454.295 200.134 453.595 200.658C452.895 201.19 452.289 201.551 451.794 201.739L451.068 202.051L459.271 215.798H453.117L445.443 202.533H437.24V215.798H431.615ZM450.906 195.999C452.033 194.919 452.597 193.576 452.597 191.962C452.597 190.358 452.033 189.015 450.906 187.935C449.779 186.853 448.379 186.313 446.714 186.313H437.24V197.613H446.714C448.379 197.613 449.779 197.071 450.906 195.999Z" fill="#FEFEFE"/>
<path d="M516.806 198.12L530.634 181.4H535.508V215.798H529.883V190.751L516.806 206.464L503.754 190.751V215.798H498.129V181.4H502.977L516.806 198.12Z" fill="#FEFEFE"/>
</svg>

